<svg xmlns="http://www.w3.org/2000/svg" width="1853" height="440" fill="none" viewBox="0 0 1853 440"><path fill="#132636" d="M3 37C3 16.5655 19.5655 0 40 0H1800.86C1826.35 0 1844.2 25.159 1835.79 49.2139L1708.15 414.214C1702.95 429.059 1688.95 439 1673.22 439H40.0001C19.5655 439 3 422.435 3 402V37Z"/><path fill="#132636" d="M0 37C0 16.5655 16.5655 0 37 0H39V440H37C16.5655 440 0 423.435 0 403V37Z"/><path fill="url(#paint0_linear_232_23)" d="M0 37C0 16.5655 16.5655 0 37 0H39V440H37C16.5655 440 0 423.435 0 403V37Z"/><path fill="url(#paint1_linear_232_23)" d="M339.24 246.663C349.416 240.819 349.415 226.178 339.238 220.336L304.727 200.542L342.697 182.89L395.065 212.927C410.978 222.055 410.978 244.945 395.065 254.073L340.201 285.542L302.231 267.89L339.24 246.663Z"/><path fill="url(#paint2_linear_232_23)" d="M223.282 266.804V286.916C223.287 298.595 235.961 305.901 246.117 300.076L267.934 287.562L305.904 305.214L224.679 351.803C208.808 360.906 189 349.485 189 331.23L189 250.866L223.282 266.804Z"/><path fill="url(#paint3_linear_232_23)" d="M308.401 163.218L270.431 180.87L246.103 166.916C235.948 161.104 223.282 168.413 223.282 180.09V202.789L189 218.726L189 135.77C189 117.515 208.808 106.094 224.679 115.197L308.401 163.218Z"/><path fill="#fff" d="M542.011 147.114L551.627 111.789H564.101L548.517 158H540.456L542.011 147.114ZM533.283 111.789L542.899 147.114L544.518 158H536.361L520.873 111.789H533.283ZM586.159 149.653V123.659H596.886V158H586.857L586.159 149.653ZM587.174 142.67L589.967 142.607C589.967 144.913 589.692 147.05 589.142 149.018C588.592 150.965 587.777 152.657 586.698 154.096C585.64 155.535 584.328 156.656 582.763 157.46C581.218 158.243 579.43 158.635 577.399 158.635C575.706 158.635 574.151 158.402 572.733 157.937C571.337 157.45 570.131 156.699 569.115 155.683C568.1 154.646 567.306 153.324 566.735 151.716C566.185 150.087 565.91 148.14 565.91 145.876V123.659H576.605V145.939C576.605 146.701 576.701 147.357 576.891 147.907C577.082 148.457 577.357 148.923 577.716 149.304C578.076 149.663 578.52 149.938 579.049 150.129C579.599 150.298 580.224 150.383 580.922 150.383C582.53 150.383 583.789 150.044 584.699 149.367C585.609 148.69 586.243 147.77 586.603 146.606C586.984 145.442 587.174 144.13 587.174 142.67ZM619.42 158.635C616.627 158.635 614.131 158.201 611.93 157.333C609.73 156.445 607.868 155.228 606.344 153.684C604.842 152.139 603.689 150.362 602.885 148.352C602.102 146.341 601.71 144.215 601.71 141.972V140.766C601.71 138.248 602.06 135.921 602.758 133.784C603.456 131.625 604.493 129.742 605.868 128.134C607.243 126.526 608.968 125.278 611.042 124.389C613.115 123.479 615.527 123.024 618.278 123.024C620.711 123.024 622.89 123.416 624.816 124.199C626.741 124.982 628.371 126.103 629.704 127.563C631.058 129.023 632.084 130.79 632.782 132.863C633.502 134.937 633.861 137.264 633.861 139.846V144.194H605.805V137.497H623.419V136.672C623.441 135.529 623.24 134.556 622.816 133.752C622.414 132.948 621.822 132.334 621.039 131.911C620.256 131.488 619.304 131.276 618.183 131.276C617.019 131.276 616.056 131.53 615.294 132.038C614.554 132.546 613.972 133.244 613.549 134.133C613.147 135 612.861 136.005 612.692 137.148C612.523 138.291 612.438 139.497 612.438 140.766V141.972C612.438 143.242 612.607 144.395 612.946 145.432C613.306 146.468 613.813 147.357 614.469 148.098C615.146 148.817 615.95 149.378 616.881 149.78C617.833 150.182 618.913 150.383 620.119 150.383C621.579 150.383 623.017 150.108 624.435 149.558C625.853 149.007 627.069 148.098 628.085 146.828L632.941 152.604C632.243 153.599 631.248 154.562 629.958 155.493C628.688 156.424 627.165 157.185 625.387 157.778C623.61 158.349 621.621 158.635 619.42 158.635ZM661.093 111.789V158H649.953V111.789H661.093ZM674.994 111.789V120.39H636.369V111.789H674.994ZM697.179 149.653V123.659H707.907V158H697.877L697.179 149.653ZM698.195 142.67L700.988 142.607C700.988 144.913 700.713 147.05 700.163 149.018C699.612 150.965 698.798 152.657 697.719 154.096C696.661 155.535 695.349 156.656 693.783 157.46C692.239 158.243 690.451 158.635 688.419 158.635C686.727 158.635 685.172 158.402 683.754 157.937C682.357 157.45 681.151 156.699 680.136 155.683C679.12 154.646 678.327 153.324 677.755 151.716C677.205 150.087 676.93 148.14 676.93 145.876V123.659H687.626V145.939C687.626 146.701 687.721 147.357 687.912 147.907C688.102 148.457 688.377 148.923 688.737 149.304C689.097 149.663 689.541 149.938 690.07 150.129C690.62 150.298 691.244 150.383 691.942 150.383C693.55 150.383 694.809 150.044 695.719 149.367C696.629 148.69 697.264 147.77 697.624 146.606C698.004 145.442 698.195 144.13 698.195 142.67ZM713.905 109.25H724.601V149.558L723.49 158H713.905V109.25ZM745.675 140.449V141.115C745.675 143.718 745.411 146.088 744.882 148.225C744.353 150.362 743.538 152.213 742.438 153.779C741.338 155.323 739.952 156.519 738.28 157.365C736.609 158.212 734.63 158.635 732.345 158.635C730.272 158.635 728.494 158.19 727.013 157.302C725.532 156.392 724.294 155.144 723.3 153.557C722.305 151.949 721.501 150.097 720.888 148.002C720.274 145.887 719.787 143.623 719.428 141.21V140.417C719.787 138.026 720.274 135.783 720.888 133.688C721.501 131.573 722.305 129.721 723.3 128.134C724.294 126.526 725.521 125.278 726.981 124.389C728.463 123.479 730.229 123.024 732.282 123.024C734.588 123.024 736.577 123.458 738.249 124.326C739.941 125.193 741.338 126.41 742.438 127.976C743.538 129.541 744.353 131.382 744.882 133.498C745.411 135.614 745.675 137.931 745.675 140.449ZM734.979 141.115V140.449C734.979 139.2 734.905 138.026 734.757 136.926C734.609 135.826 734.345 134.852 733.964 134.006C733.583 133.16 733.043 132.493 732.345 132.006C731.647 131.52 730.737 131.276 729.616 131.276C728.473 131.276 727.51 131.467 726.728 131.848C725.966 132.229 725.352 132.779 724.887 133.498C724.442 134.196 724.125 135.064 723.935 136.101C723.744 137.116 723.66 138.269 723.681 139.56V142.067C723.638 143.824 723.797 145.326 724.157 146.574C724.516 147.823 725.141 148.775 726.029 149.431C726.918 150.087 728.135 150.415 729.679 150.415C730.822 150.415 731.742 150.192 732.44 149.748C733.16 149.304 733.699 148.669 734.059 147.844C734.419 147.019 734.662 146.035 734.789 144.892C734.916 143.75 734.979 142.491 734.979 141.115ZM767.067 158.635C764.274 158.635 761.777 158.201 759.577 157.333C757.376 156.445 755.514 155.228 753.991 153.684C752.488 152.139 751.335 150.362 750.531 148.352C749.748 146.341 749.357 144.215 749.357 141.972V140.766C749.357 138.248 749.706 135.921 750.404 133.784C751.103 131.625 752.139 129.742 753.515 128.134C754.89 126.526 756.614 125.278 758.688 124.389C760.762 123.479 763.174 123.024 765.924 123.024C768.358 123.024 770.537 123.416 772.462 124.199C774.388 124.982 776.017 126.103 777.35 127.563C778.704 129.023 779.73 130.79 780.429 132.863C781.148 134.937 781.508 137.264 781.508 139.846V144.194H753.451V137.497H771.066V136.672C771.087 135.529 770.886 134.556 770.463 133.752C770.061 132.948 769.468 132.334 768.686 131.911C767.903 131.488 766.951 131.276 765.829 131.276C764.665 131.276 763.703 131.53 762.941 132.038C762.2 132.546 761.618 133.244 761.195 134.133C760.793 135 760.508 136.005 760.338 137.148C760.169 138.291 760.084 139.497 760.084 140.766V141.972C760.084 143.242 760.254 144.395 760.592 145.432C760.952 146.468 761.46 147.357 762.116 148.098C762.793 148.817 763.597 149.378 764.528 149.78C765.48 150.182 766.559 150.383 767.765 150.383C769.225 150.383 770.664 150.108 772.082 149.558C773.499 149.007 774.716 148.098 775.731 146.828L780.587 152.604C779.889 153.599 778.895 154.562 777.604 155.493C776.334 156.424 774.811 157.185 773.034 157.778C771.256 158.349 769.267 158.635 767.067 158.635Z"/><path fill="#fff" d="M584.008 350.239C571.478 350.239 560.857 348.688 552.146 345.585C543.435 342.482 536.812 338.186 532.277 332.697C527.742 327.208 525.475 320.883 525.475 313.723C525.475 310.262 526.131 306.981 527.444 303.878C528.876 300.775 531.203 298.09 534.425 295.823C536.096 294.63 538.124 293.675 540.511 292.959C542.898 292.124 545.762 291.527 549.103 291.169C552.564 290.811 556.74 290.632 561.633 290.632H700L699.821 309.606H563.602C561.693 309.606 560.022 309.666 558.59 309.785C557.277 309.904 556.203 310.143 555.368 310.501C554.533 310.74 553.817 311.098 553.22 311.575C551.907 312.888 551.251 314.439 551.251 316.229C551.251 320.644 554.115 324.224 559.843 326.969C565.571 329.714 574.64 331.086 587.051 331.086H589.199C601.252 331.086 611.455 329.714 619.808 326.969C628.161 324.224 634.904 320.465 640.035 315.692C645.286 310.919 649.164 305.608 651.67 299.761L652.207 294.749C652.804 292.482 653.162 290.214 653.281 287.947C653.52 285.56 653.639 283.353 653.639 281.324C653.639 274.641 652.684 268.496 650.775 262.887C648.866 257.159 645.763 252.386 641.467 248.567C637.29 244.629 631.741 242.063 624.82 240.87C623.507 240.631 622.075 240.512 620.524 240.512C619.092 240.393 617.72 240.333 616.407 240.333C613.066 240.333 609.963 240.751 607.099 241.586C604.235 242.302 601.908 243.615 600.118 245.524C598.328 247.433 597.433 250.178 597.433 253.758C597.433 257.457 598.447 260.381 600.476 262.529C602.505 264.677 605.369 265.751 609.068 265.751C612.171 265.751 614.856 264.796 617.123 262.887C619.39 260.858 620.524 257.219 620.524 251.968C620.524 247.433 619.45 243.316 617.302 239.617C615.273 235.798 612.946 232.278 610.321 229.056L629.116 226.192C631.145 227.982 633.054 230.19 634.844 232.815C636.753 235.44 638.305 238.543 639.498 242.123C640.811 245.584 641.467 249.701 641.467 254.474C641.467 258.651 640.811 262.529 639.498 266.109C638.305 269.689 636.336 272.851 633.591 275.596C630.966 278.341 627.505 280.489 623.209 282.04C618.913 283.472 613.662 284.188 607.457 284.188C601.371 284.188 595.703 283.114 590.452 280.966C585.321 278.818 581.144 275.596 577.922 271.3C574.819 266.885 573.268 261.395 573.268 254.832C573.268 247.195 575.177 240.989 578.996 236.216C582.934 231.443 588.185 227.922 594.748 225.655C601.311 223.388 608.71 222.254 616.944 222.254C627.565 222.254 636.753 223.865 644.51 227.087C652.267 230.309 658.711 234.724 663.842 240.333C669.093 245.822 672.971 252.087 675.477 259.128C677.983 266.049 679.236 273.269 679.236 280.787C679.236 283.412 679.057 285.978 678.699 288.484C678.46 290.871 678.102 293.257 677.625 295.644V302.088C674.045 312.112 668.078 320.704 659.725 327.864C651.372 335.024 641.049 340.513 628.758 344.332C616.467 348.27 602.624 350.239 587.23 350.239H584.008ZM698.389 352.566V224.402H725.06V352.566H698.389ZM850.848 222.254C861.946 222.254 870.956 224.641 877.877 229.414C884.798 234.068 889.87 240.512 893.092 248.746C896.433 256.98 898.104 266.288 898.104 276.67C898.104 285.739 897.03 293.317 894.882 299.403C892.853 305.489 889.572 310.441 885.037 314.26C881.815 317.005 878.175 319.153 874.118 320.704C870.061 322.255 865.168 323.389 859.44 324.105C853.831 324.702 846.85 325 838.497 325H753.472V224.402H780.143V305.847H813.079V261.455C813.079 254.056 813.855 248.03 815.406 243.376C817.077 238.722 819.463 234.844 822.566 231.741C825.788 228.638 829.726 226.311 834.38 224.76C839.153 223.089 844.643 222.254 850.848 222.254ZM852.638 241.407C851.087 241.407 849.535 241.646 847.984 242.123C846.552 242.6 845.239 243.436 844.046 244.629C842.495 246.18 841.361 248.328 840.645 251.073C840.048 253.698 839.75 258.054 839.75 264.14V305.847H846.552C852.877 305.847 857.829 304.952 861.409 303.162C865.108 301.253 867.674 298.15 869.106 293.854C870.657 289.558 871.433 283.83 871.433 276.67C871.433 270.107 870.836 264.2 869.643 258.949C868.45 253.579 866.481 249.343 863.736 246.24C860.991 243.018 857.292 241.407 852.638 241.407ZM823.103 206.502C818.807 206.502 815.287 205.13 812.542 202.385C809.797 199.521 808.425 195.941 808.425 191.645C808.425 187.349 809.797 183.829 812.542 181.084C815.287 178.22 818.807 176.788 823.103 176.788C827.28 176.788 830.74 178.22 833.485 181.084C836.23 183.829 837.602 187.349 837.602 191.645C837.602 195.941 836.23 199.521 833.485 202.385C830.74 205.13 827.28 206.502 823.103 206.502ZM959.42 327.148C950.47 327.148 942.594 325.955 935.792 323.568C928.99 321.062 923.68 317.482 919.861 312.828C916.042 308.055 914.133 302.267 914.133 295.465C914.133 288.902 916.042 283.233 919.861 278.46C923.799 273.567 930.004 269.749 938.477 267.004C946.95 264.259 958.048 262.887 971.771 262.887H1043.19V280.966H968.549C964.372 280.966 960.375 281.205 956.556 281.682C952.857 282.04 949.694 282.875 947.069 284.188C944.802 285.381 943.131 286.873 942.057 288.663C940.983 290.453 940.446 292.541 940.446 294.928C940.446 299.463 942.296 302.804 945.995 304.952C949.814 306.981 954.885 307.995 961.21 307.995C965.864 307.995 969.802 307.279 973.024 305.847C976.365 304.415 978.931 301.849 980.721 298.15C982.511 294.331 983.406 289.081 983.406 282.398V243.555H956.377V270.942L932.391 273.806V224.402H1043.19V243.555H1009V282.04C1009 290.393 1008.23 297.016 1006.68 301.909C1005.12 306.682 1002.86 310.74 999.874 314.081C995.459 318.854 989.79 322.255 982.869 324.284C976.067 326.193 968.251 327.148 959.42 327.148ZM1065.5 325V224.402H1182.39V243.555H1144.8V266.646C1148.02 264.617 1151.54 263.066 1155.36 261.992C1159.18 260.799 1163.47 260.202 1168.24 260.202C1176 260.202 1182.21 261.574 1186.86 264.319C1191.51 267.064 1194.86 270.584 1196.88 274.88C1198.91 279.057 1199.93 283.353 1199.93 287.768C1199.93 291.706 1199.39 295.167 1198.32 298.15C1197.24 301.133 1195.99 303.699 1194.56 305.847H1242.53V325H1118.12V305.847H1168.42C1169.62 304.534 1170.75 302.685 1171.82 300.298C1172.9 297.911 1173.44 295.226 1173.44 292.243C1173.44 287.35 1172.24 284.009 1169.86 282.219C1167.47 280.31 1164.37 279.355 1160.55 279.355C1157.92 279.355 1155.24 279.892 1152.49 280.966C1149.87 281.921 1147.3 283.293 1144.8 285.083V296.36H1118.12V243.555H1092.17V325H1065.5ZM1209.06 325L1203.33 305.847H1222.12V224.402H1248.79V325H1209.06ZM1157.33 206.502C1153.03 206.502 1149.51 205.13 1146.76 202.385C1144.02 199.521 1142.65 195.941 1142.65 191.645C1142.65 187.349 1144.02 183.829 1146.76 181.084C1149.51 178.22 1153.03 176.788 1157.33 176.788C1161.5 176.788 1164.96 178.22 1167.71 181.084C1170.45 183.829 1171.82 187.349 1171.82 191.645C1171.82 195.941 1170.45 199.521 1167.71 202.385C1164.96 205.13 1161.5 206.502 1157.33 206.502ZM1315.67 327.148C1306.72 327.148 1298.85 325.955 1292.04 323.568C1285.24 321.062 1279.93 317.482 1276.11 312.828C1272.29 308.055 1270.38 302.267 1270.38 295.465C1270.38 288.902 1272.29 283.233 1276.11 278.46C1280.05 273.567 1286.26 269.749 1294.73 267.004C1303.2 264.259 1314.3 262.887 1328.02 262.887H1365.97C1373.61 262.887 1379.93 263.185 1384.94 263.782C1389.96 264.379 1394.25 265.393 1397.83 266.825C1401.41 268.138 1404.75 269.928 1407.86 272.195C1411.44 274.701 1414.24 278.042 1416.27 282.219C1418.42 286.276 1419.49 290.93 1419.49 296.181C1419.49 305.847 1416.39 313.425 1410.18 318.914C1404.1 324.403 1395.33 327.148 1383.87 327.148C1381.01 327.148 1377.73 326.969 1374.03 326.611C1370.45 326.372 1367.1 325.835 1364 325L1368.3 306.563C1369.97 307.04 1371.64 307.398 1373.31 307.637C1374.98 307.756 1376.77 307.816 1378.68 307.816C1383.69 307.816 1387.51 306.802 1390.14 304.773C1392.76 302.625 1394.07 299.343 1394.07 294.928C1394.07 291.825 1393.24 289.379 1391.57 287.589C1390.02 285.68 1387.81 284.248 1384.94 283.293C1382.2 282.338 1379.04 281.742 1375.46 281.503C1371.88 281.145 1368.18 280.966 1364.36 280.966H1324.8C1320.62 280.966 1316.63 281.205 1312.81 281.682C1309.11 282.04 1305.95 282.875 1303.32 284.188C1301.05 285.381 1299.38 286.873 1298.31 288.663C1297.23 290.453 1296.7 292.541 1296.7 294.928C1296.7 299.463 1298.55 302.804 1302.25 304.952C1306.07 307.1 1311.14 308.174 1317.46 308.174C1322.12 308.174 1326.05 307.458 1329.28 306.026C1332.62 304.475 1335.18 301.849 1336.97 298.15C1338.76 294.331 1339.66 289.081 1339.66 282.398V243.555H1312.63V270.942L1288.64 273.806V224.402H1399.26V243.555H1365.61V282.04C1365.61 290.393 1364.78 297.016 1363.11 301.909C1361.56 306.682 1359.29 310.74 1356.3 314.081C1351.89 318.854 1346.22 322.255 1339.3 324.284C1332.5 326.193 1324.62 327.148 1315.67 327.148ZM1476.06 327.148C1467.83 327.148 1460.61 325.477 1454.4 322.136C1448.32 318.795 1443.54 313.783 1440.08 307.1C1436.62 300.298 1434.89 291.825 1434.89 281.682C1434.89 272.135 1436.5 263.663 1439.73 256.264C1443.07 248.865 1447.54 242.66 1453.15 237.648C1458.88 232.517 1465.44 228.698 1472.84 226.192C1480.24 223.567 1488.12 222.254 1496.47 222.254C1502.79 222.254 1508.46 222.851 1513.47 224.044C1518.49 225.237 1523.26 227.027 1527.79 229.414C1532.45 231.801 1537.22 234.784 1542.11 238.364L1531.37 259.486C1527.32 254.474 1522.36 250.297 1516.52 246.956C1510.79 243.495 1503.81 241.765 1495.57 241.765C1488.29 241.765 1481.85 243.495 1476.24 246.956C1470.75 250.417 1466.4 255.309 1463.17 261.634C1460.07 267.959 1458.52 275.417 1458.52 284.009C1458.52 289.976 1459.18 294.809 1460.49 298.508C1461.8 302.088 1463.65 304.713 1466.04 306.384C1468.54 308.055 1471.53 308.89 1474.99 308.89C1477.61 308.89 1479.88 308.353 1481.79 307.279C1483.7 306.205 1485.13 304.654 1486.09 302.625C1487.16 300.596 1487.7 298.09 1487.7 295.107C1487.7 290.572 1486.44 287.112 1483.94 284.725C1481.43 282.219 1478.09 280.966 1473.91 280.966C1468.9 280.966 1464.43 282.458 1460.49 285.441C1456.55 288.305 1452.97 291.467 1449.75 294.928L1445.81 277.744C1450.23 273.567 1455.24 270.047 1460.85 267.183C1466.46 264.319 1473.02 262.887 1480.54 262.887C1490.08 262.887 1497.84 265.572 1503.81 270.942C1509.77 276.312 1512.76 283.949 1512.76 293.854C1512.76 300.775 1511.39 306.742 1508.64 311.754C1505.9 316.647 1501.78 320.465 1496.29 323.21C1490.92 325.835 1484.18 327.148 1476.06 327.148ZM1528.51 325V243.913L1532.09 239.259L1532.27 224.402H1634.12V243.555H1608.52V325H1581.85V243.555H1555.18V325H1528.51ZM1532.09 206.502C1527.79 206.502 1524.27 205.13 1521.53 202.385C1518.78 199.521 1517.41 195.941 1517.41 191.645C1517.41 187.349 1518.78 183.829 1521.53 181.084C1524.27 178.22 1527.79 176.788 1532.09 176.788C1536.27 176.788 1539.73 178.22 1542.47 181.084C1545.22 183.829 1546.59 187.349 1546.59 191.645C1546.59 195.941 1545.22 199.521 1542.47 202.385C1539.73 205.13 1536.27 206.502 1532.09 206.502Z"/><path fill="url(#paint4_linear_232_23)" d="M584.008 350.239C571.478 350.239 560.857 348.688 552.146 345.585C543.435 342.482 536.812 338.186 532.277 332.697C527.742 327.208 525.475 320.883 525.475 313.723C525.475 310.262 526.131 306.981 527.444 303.878C528.876 300.775 531.203 298.09 534.425 295.823C536.096 294.63 538.124 293.675 540.511 292.959C542.898 292.124 545.762 291.527 549.103 291.169C552.564 290.811 556.74 290.632 561.633 290.632H700L699.821 309.606H563.602C561.693 309.606 560.022 309.666 558.59 309.785C557.277 309.904 556.203 310.143 555.368 310.501C554.533 310.74 553.817 311.098 553.22 311.575C551.907 312.888 551.251 314.439 551.251 316.229C551.251 320.644 554.115 324.224 559.843 326.969C565.571 329.714 574.64 331.086 587.051 331.086H589.199C601.252 331.086 611.455 329.714 619.808 326.969C628.161 324.224 634.904 320.465 640.035 315.692C645.286 310.919 649.164 305.608 651.67 299.761L652.207 294.749C652.804 292.482 653.162 290.214 653.281 287.947C653.52 285.56 653.639 283.353 653.639 281.324C653.639 274.641 652.684 268.496 650.775 262.887C648.866 257.159 645.763 252.386 641.467 248.567C637.29 244.629 631.741 242.063 624.82 240.87C623.507 240.631 622.075 240.512 620.524 240.512C619.092 240.393 617.72 240.333 616.407 240.333C613.066 240.333 609.963 240.751 607.099 241.586C604.235 242.302 601.908 243.615 600.118 245.524C598.328 247.433 597.433 250.178 597.433 253.758C597.433 257.457 598.447 260.381 600.476 262.529C602.505 264.677 605.369 265.751 609.068 265.751C612.171 265.751 614.856 264.796 617.123 262.887C619.39 260.858 620.524 257.219 620.524 251.968C620.524 247.433 619.45 243.316 617.302 239.617C615.273 235.798 612.946 232.278 610.321 229.056L629.116 226.192C631.145 227.982 633.054 230.19 634.844 232.815C636.753 235.44 638.305 238.543 639.498 242.123C640.811 245.584 641.467 249.701 641.467 254.474C641.467 258.651 640.811 262.529 639.498 266.109C638.305 269.689 636.336 272.851 633.591 275.596C630.966 278.341 627.505 280.489 623.209 282.04C618.913 283.472 613.662 284.188 607.457 284.188C601.371 284.188 595.703 283.114 590.452 280.966C585.321 278.818 581.144 275.596 577.922 271.3C574.819 266.885 573.268 261.395 573.268 254.832C573.268 247.195 575.177 240.989 578.996 236.216C582.934 231.443 588.185 227.922 594.748 225.655C601.311 223.388 608.71 222.254 616.944 222.254C627.565 222.254 636.753 223.865 644.51 227.087C652.267 230.309 658.711 234.724 663.842 240.333C669.093 245.822 672.971 252.087 675.477 259.128C677.983 266.049 679.236 273.269 679.236 280.787C679.236 283.412 679.057 285.978 678.699 288.484C678.46 290.871 678.102 293.257 677.625 295.644V302.088C674.045 312.112 668.078 320.704 659.725 327.864C651.372 335.024 641.049 340.513 628.758 344.332C616.467 348.27 602.624 350.239 587.23 350.239H584.008ZM698.389 352.566V224.402H725.06V352.566H698.389ZM850.848 222.254C861.946 222.254 870.956 224.641 877.877 229.414C884.798 234.068 889.87 240.512 893.092 248.746C896.433 256.98 898.104 266.288 898.104 276.67C898.104 285.739 897.03 293.317 894.882 299.403C892.853 305.489 889.572 310.441 885.037 314.26C881.815 317.005 878.175 319.153 874.118 320.704C870.061 322.255 865.168 323.389 859.44 324.105C853.831 324.702 846.85 325 838.497 325H753.472V224.402H780.143V305.847H813.079V261.455C813.079 254.056 813.855 248.03 815.406 243.376C817.077 238.722 819.463 234.844 822.566 231.741C825.788 228.638 829.726 226.311 834.38 224.76C839.153 223.089 844.643 222.254 850.848 222.254ZM852.638 241.407C851.087 241.407 849.535 241.646 847.984 242.123C846.552 242.6 845.239 243.436 844.046 244.629C842.495 246.18 841.361 248.328 840.645 251.073C840.048 253.698 839.75 258.054 839.75 264.14V305.847H846.552C852.877 305.847 857.829 304.952 861.409 303.162C865.108 301.253 867.674 298.15 869.106 293.854C870.657 289.558 871.433 283.83 871.433 276.67C871.433 270.107 870.836 264.2 869.643 258.949C868.45 253.579 866.481 249.343 863.736 246.24C860.991 243.018 857.292 241.407 852.638 241.407ZM823.103 206.502C818.807 206.502 815.287 205.13 812.542 202.385C809.797 199.521 808.425 195.941 808.425 191.645C808.425 187.349 809.797 183.829 812.542 181.084C815.287 178.22 818.807 176.788 823.103 176.788C827.28 176.788 830.74 178.22 833.485 181.084C836.23 183.829 837.602 187.349 837.602 191.645C837.602 195.941 836.23 199.521 833.485 202.385C830.74 205.13 827.28 206.502 823.103 206.502ZM959.42 327.148C950.47 327.148 942.594 325.955 935.792 323.568C928.99 321.062 923.68 317.482 919.861 312.828C916.042 308.055 914.133 302.267 914.133 295.465C914.133 288.902 916.042 283.233 919.861 278.46C923.799 273.567 930.004 269.749 938.477 267.004C946.95 264.259 958.048 262.887 971.771 262.887H1043.19V280.966H968.549C964.372 280.966 960.375 281.205 956.556 281.682C952.857 282.04 949.694 282.875 947.069 284.188C944.802 285.381 943.131 286.873 942.057 288.663C940.983 290.453 940.446 292.541 940.446 294.928C940.446 299.463 942.296 302.804 945.995 304.952C949.814 306.981 954.885 307.995 961.21 307.995C965.864 307.995 969.802 307.279 973.024 305.847C976.365 304.415 978.931 301.849 980.721 298.15C982.511 294.331 983.406 289.081 983.406 282.398V243.555H956.377V270.942L932.391 273.806V224.402H1043.19V243.555H1009V282.04C1009 290.393 1008.23 297.016 1006.68 301.909C1005.12 306.682 1002.86 310.74 999.874 314.081C995.459 318.854 989.79 322.255 982.869 324.284C976.067 326.193 968.251 327.148 959.42 327.148ZM1065.5 325V224.402H1182.39V243.555H1144.8V266.646C1148.02 264.617 1151.54 263.066 1155.36 261.992C1159.18 260.799 1163.47 260.202 1168.24 260.202C1176 260.202 1182.21 261.574 1186.86 264.319C1191.51 267.064 1194.86 270.584 1196.88 274.88C1198.91 279.057 1199.93 283.353 1199.93 287.768C1199.93 291.706 1199.39 295.167 1198.32 298.15C1197.24 301.133 1195.99 303.699 1194.56 305.847H1242.53V325H1118.12V305.847H1168.42C1169.62 304.534 1170.75 302.685 1171.82 300.298C1172.9 297.911 1173.44 295.226 1173.44 292.243C1173.44 287.35 1172.24 284.009 1169.86 282.219C1167.47 280.31 1164.37 279.355 1160.55 279.355C1157.92 279.355 1155.24 279.892 1152.49 280.966C1149.87 281.921 1147.3 283.293 1144.8 285.083V296.36H1118.12V243.555H1092.17V325H1065.5ZM1209.06 325L1203.33 305.847H1222.12V224.402H1248.79V325H1209.06ZM1157.33 206.502C1153.03 206.502 1149.51 205.13 1146.76 202.385C1144.02 199.521 1142.65 195.941 1142.65 191.645C1142.65 187.349 1144.02 183.829 1146.76 181.084C1149.51 178.22 1153.03 176.788 1157.33 176.788C1161.5 176.788 1164.96 178.22 1167.71 181.084C1170.45 183.829 1171.82 187.349 1171.82 191.645C1171.82 195.941 1170.45 199.521 1167.71 202.385C1164.96 205.13 1161.5 206.502 1157.33 206.502ZM1315.67 327.148C1306.72 327.148 1298.85 325.955 1292.04 323.568C1285.24 321.062 1279.93 317.482 1276.11 312.828C1272.29 308.055 1270.38 302.267 1270.38 295.465C1270.38 288.902 1272.29 283.233 1276.11 278.46C1280.05 273.567 1286.26 269.749 1294.73 267.004C1303.2 264.259 1314.3 262.887 1328.02 262.887H1365.97C1373.61 262.887 1379.93 263.185 1384.94 263.782C1389.96 264.379 1394.25 265.393 1397.83 266.825C1401.41 268.138 1404.75 269.928 1407.86 272.195C1411.44 274.701 1414.24 278.042 1416.27 282.219C1418.42 286.276 1419.49 290.93 1419.49 296.181C1419.49 305.847 1416.39 313.425 1410.18 318.914C1404.1 324.403 1395.33 327.148 1383.87 327.148C1381.01 327.148 1377.73 326.969 1374.03 326.611C1370.45 326.372 1367.1 325.835 1364 325L1368.3 306.563C1369.97 307.04 1371.64 307.398 1373.31 307.637C1374.98 307.756 1376.77 307.816 1378.68 307.816C1383.69 307.816 1387.51 306.802 1390.14 304.773C1392.76 302.625 1394.07 299.343 1394.07 294.928C1394.07 291.825 1393.24 289.379 1391.57 287.589C1390.02 285.68 1387.81 284.248 1384.94 283.293C1382.2 282.338 1379.04 281.742 1375.46 281.503C1371.88 281.145 1368.18 280.966 1364.36 280.966H1324.8C1320.62 280.966 1316.63 281.205 1312.81 281.682C1309.11 282.04 1305.95 282.875 1303.32 284.188C1301.05 285.381 1299.38 286.873 1298.31 288.663C1297.23 290.453 1296.7 292.541 1296.7 294.928C1296.7 299.463 1298.55 302.804 1302.25 304.952C1306.07 307.1 1311.14 308.174 1317.46 308.174C1322.12 308.174 1326.05 307.458 1329.28 306.026C1332.62 304.475 1335.18 301.849 1336.97 298.15C1338.76 294.331 1339.66 289.081 1339.66 282.398V243.555H1312.63V270.942L1288.64 273.806V224.402H1399.26V243.555H1365.61V282.04C1365.61 290.393 1364.78 297.016 1363.11 301.909C1361.56 306.682 1359.29 310.74 1356.3 314.081C1351.89 318.854 1346.22 322.255 1339.3 324.284C1332.5 326.193 1324.62 327.148 1315.67 327.148ZM1476.06 327.148C1467.83 327.148 1460.61 325.477 1454.4 322.136C1448.32 318.795 1443.54 313.783 1440.08 307.1C1436.62 300.298 1434.89 291.825 1434.89 281.682C1434.89 272.135 1436.5 263.663 1439.73 256.264C1443.07 248.865 1447.54 242.66 1453.15 237.648C1458.88 232.517 1465.44 228.698 1472.84 226.192C1480.24 223.567 1488.12 222.254 1496.47 222.254C1502.79 222.254 1508.46 222.851 1513.47 224.044C1518.49 225.237 1523.26 227.027 1527.79 229.414C1532.45 231.801 1537.22 234.784 1542.11 238.364L1531.37 259.486C1527.32 254.474 1522.36 250.297 1516.52 246.956C1510.79 243.495 1503.81 241.765 1495.57 241.765C1488.29 241.765 1481.85 243.495 1476.24 246.956C1470.75 250.417 1466.4 255.309 1463.17 261.634C1460.07 267.959 1458.52 275.417 1458.52 284.009C1458.52 289.976 1459.18 294.809 1460.49 298.508C1461.8 302.088 1463.65 304.713 1466.04 306.384C1468.54 308.055 1471.53 308.89 1474.99 308.89C1477.61 308.89 1479.88 308.353 1481.79 307.279C1483.7 306.205 1485.13 304.654 1486.09 302.625C1487.16 300.596 1487.7 298.09 1487.7 295.107C1487.7 290.572 1486.44 287.112 1483.94 284.725C1481.43 282.219 1478.09 280.966 1473.91 280.966C1468.9 280.966 1464.43 282.458 1460.49 285.441C1456.55 288.305 1452.97 291.467 1449.75 294.928L1445.81 277.744C1450.23 273.567 1455.24 270.047 1460.85 267.183C1466.46 264.319 1473.02 262.887 1480.54 262.887C1490.08 262.887 1497.84 265.572 1503.81 270.942C1509.77 276.312 1512.76 283.949 1512.76 293.854C1512.76 300.775 1511.39 306.742 1508.64 311.754C1505.9 316.647 1501.78 320.465 1496.29 323.21C1490.92 325.835 1484.18 327.148 1476.06 327.148ZM1528.51 325V243.913L1532.09 239.259L1532.27 224.402H1634.12V243.555H1608.52V325H1581.85V243.555H1555.18V325H1528.51ZM1532.09 206.502C1527.79 206.502 1524.27 205.13 1521.53 202.385C1518.78 199.521 1517.41 195.941 1517.41 191.645C1517.41 187.349 1518.78 183.829 1521.53 181.084C1524.27 178.22 1527.79 176.788 1532.09 176.788C1536.27 176.788 1539.73 178.22 1542.47 181.084C1545.22 183.829 1546.59 187.349 1546.59 191.645C1546.59 195.941 1545.22 199.521 1542.47 202.385C1539.73 205.13 1536.27 206.502 1532.09 206.502Z"/><defs><linearGradient id="paint0_linear_232_23" x1="0" x2="88.064" y1=".777" y2="9.505" gradientUnits="userSpaceOnUse"><stop stop-color="#00E1C3"/><stop offset="1" stop-color="#00D1D5"/></linearGradient><linearGradient id="paint1_linear_232_23" x1="189" x2="436.787" y1="112.429" y2="360.973" gradientUnits="userSpaceOnUse"><stop stop-color="#00E1C3"/><stop offset="1" stop-color="#00D1D5"/></linearGradient><linearGradient id="paint2_linear_232_23" x1="189" x2="436.787" y1="112.429" y2="360.973" gradientUnits="userSpaceOnUse"><stop stop-color="#00E1C3"/><stop offset="1" stop-color="#00D1D5"/></linearGradient><linearGradient id="paint3_linear_232_23" x1="189" x2="436.787" y1="112.429" y2="360.973" gradientUnits="userSpaceOnUse"><stop stop-color="#00E1C3"/><stop offset="1" stop-color="#00D1D5"/></linearGradient><linearGradient id="paint4_linear_232_23" x1="521" x2="591.034" y1="159.371" y2="575.871" gradientUnits="userSpaceOnUse"><stop stop-color="#00E1C3"/><stop offset="1" stop-color="#00D1D5"/></linearGradient></defs></svg>