<svg xmlns="http://www.w3.org/2000/svg" width="1997" height="440" fill="none" viewBox="0 0 1997 440"><path fill="#132636" d="M3 37C3 16.5655 19.5655 0 40 0H1943.51C1969.37 0 1987.26 25.8518 1978.13 50.0501L1840.56 415.05C1835.12 429.461 1821.33 439 1805.93 439H40.0001C19.5655 439 3 422.435 3 402V37Z"/><path fill="#132636" d="M0 37C0 16.5655 16.5655 0 37 0H39V440H37C16.5655 440 0 423.435 0 403V37Z"/><path fill="url(#paint0_linear_232_3)" d="M0 37C0 16.5655 16.5655 0 37 0H39V440H37C16.5655 440 0 423.435 0 403V37Z"/><path fill="#01D8CE" d="M206.156 325C201.581 325 197.578 323.284 194.147 319.853C190.716 316.422 189 312.419 189 307.844V266.955H206.156V307.844H354.844V266.955H372V307.844C372 312.419 370.284 316.422 366.853 319.853C363.422 323.284 359.419 325 354.844 325H206.156ZM280.5 281.252L225.314 226.066L237.609 213.77L271.922 248.083V142H289.078V248.083L323.391 213.77L335.686 226.066L280.5 281.252Z"/><path fill="#fff" d="M507.011 147.114L516.627 111.789H529.101L513.517 158H505.456L507.011 147.114ZM498.283 111.789L507.899 147.114L509.518 158H501.361L485.873 111.789H498.283ZM551.159 149.653V123.659H561.886V158H551.857L551.159 149.653ZM552.174 142.67L554.967 142.607C554.967 144.913 554.692 147.05 554.142 149.018C553.592 150.965 552.777 152.657 551.698 154.096C550.64 155.535 549.328 156.656 547.763 157.46C546.218 158.243 544.43 158.635 542.399 158.635C540.706 158.635 539.151 158.402 537.733 157.937C536.337 157.45 535.131 156.699 534.115 155.683C533.1 154.646 532.306 153.324 531.735 151.716C531.185 150.087 530.91 148.14 530.91 145.876V123.659H541.605V145.939C541.605 146.701 541.701 147.357 541.891 147.907C542.082 148.457 542.357 148.923 542.716 149.304C543.076 149.663 543.52 149.938 544.049 150.129C544.599 150.298 545.224 150.383 545.922 150.383C547.53 150.383 548.789 150.044 549.699 149.367C550.609 148.69 551.243 147.77 551.603 146.606C551.984 145.442 552.174 144.13 552.174 142.67ZM584.42 158.635C581.627 158.635 579.131 158.201 576.93 157.333C574.73 156.445 572.868 155.228 571.344 153.684C569.842 152.139 568.689 150.362 567.885 148.352C567.102 146.341 566.71 144.215 566.71 141.972V140.766C566.71 138.248 567.06 135.921 567.758 133.784C568.456 131.625 569.493 129.742 570.868 128.134C572.243 126.526 573.968 125.278 576.042 124.389C578.115 123.479 580.527 123.024 583.278 123.024C585.711 123.024 587.89 123.416 589.816 124.199C591.741 124.982 593.371 126.103 594.704 127.563C596.058 129.023 597.084 130.79 597.782 132.863C598.502 134.937 598.861 137.264 598.861 139.846V144.194H570.805V137.497H588.419V136.672C588.441 135.529 588.24 134.556 587.816 133.752C587.414 132.948 586.822 132.334 586.039 131.911C585.256 131.488 584.304 131.276 583.183 131.276C582.019 131.276 581.056 131.53 580.294 132.038C579.554 132.546 578.972 133.244 578.549 134.133C578.147 135 577.861 136.005 577.692 137.148C577.523 138.291 577.438 139.497 577.438 140.766V141.972C577.438 143.242 577.607 144.395 577.946 145.432C578.306 146.468 578.813 147.357 579.469 148.098C580.146 148.817 580.95 149.378 581.881 149.78C582.833 150.182 583.913 150.383 585.119 150.383C586.579 150.383 588.017 150.108 589.435 149.558C590.853 149.007 592.069 148.098 593.085 146.828L597.941 152.604C597.243 153.599 596.248 154.562 594.958 155.493C593.688 156.424 592.165 157.185 590.387 157.778C588.61 158.349 586.621 158.635 584.42 158.635ZM626.093 111.789V158H614.953V111.789H626.093ZM639.994 111.789V120.39H601.369V111.789H639.994ZM662.179 149.653V123.659H672.907V158H662.877L662.179 149.653ZM663.195 142.67L665.988 142.607C665.988 144.913 665.713 147.05 665.163 149.018C664.612 150.965 663.798 152.657 662.719 154.096C661.661 155.535 660.349 156.656 658.783 157.46C657.239 158.243 655.451 158.635 653.419 158.635C651.727 158.635 650.172 158.402 648.754 157.937C647.357 157.45 646.151 156.699 645.136 155.683C644.12 154.646 643.327 153.324 642.755 151.716C642.205 150.087 641.93 148.14 641.93 145.876V123.659H652.626V145.939C652.626 146.701 652.721 147.357 652.912 147.907C653.102 148.457 653.377 148.923 653.737 149.304C654.097 149.663 654.541 149.938 655.07 150.129C655.62 150.298 656.244 150.383 656.942 150.383C658.55 150.383 659.809 150.044 660.719 149.367C661.629 148.69 662.264 147.77 662.624 146.606C663.004 145.442 663.195 144.13 663.195 142.67ZM678.905 109.25H689.601V149.558L688.49 158H678.905V109.25ZM710.675 140.449V141.115C710.675 143.718 710.411 146.088 709.882 148.225C709.353 150.362 708.538 152.213 707.438 153.779C706.338 155.323 704.952 156.519 703.28 157.365C701.609 158.212 699.63 158.635 697.345 158.635C695.272 158.635 693.494 158.19 692.013 157.302C690.532 156.392 689.294 155.144 688.3 153.557C687.305 151.949 686.501 150.097 685.888 148.002C685.274 145.887 684.787 143.623 684.428 141.21V140.417C684.787 138.026 685.274 135.783 685.888 133.688C686.501 131.573 687.305 129.721 688.3 128.134C689.294 126.526 690.521 125.278 691.981 124.389C693.463 123.479 695.229 123.024 697.282 123.024C699.588 123.024 701.577 123.458 703.249 124.326C704.941 125.193 706.338 126.41 707.438 127.976C708.538 129.541 709.353 131.382 709.882 133.498C710.411 135.614 710.675 137.931 710.675 140.449ZM699.979 141.115V140.449C699.979 139.2 699.905 138.026 699.757 136.926C699.609 135.826 699.345 134.852 698.964 134.006C698.583 133.16 698.043 132.493 697.345 132.006C696.647 131.52 695.737 131.276 694.616 131.276C693.473 131.276 692.51 131.467 691.728 131.848C690.966 132.229 690.352 132.779 689.887 133.498C689.442 134.196 689.125 135.064 688.935 136.101C688.744 137.116 688.66 138.269 688.681 139.56V142.067C688.638 143.824 688.797 145.326 689.157 146.574C689.516 147.823 690.141 148.775 691.029 149.431C691.918 150.087 693.135 150.415 694.679 150.415C695.822 150.415 696.742 150.192 697.44 149.748C698.16 149.304 698.699 148.669 699.059 147.844C699.419 147.019 699.662 146.035 699.789 144.892C699.916 143.75 699.979 142.491 699.979 141.115ZM732.067 158.635C729.274 158.635 726.777 158.201 724.577 157.333C722.376 156.445 720.514 155.228 718.991 153.684C717.488 152.139 716.335 150.362 715.531 148.352C714.748 146.341 714.357 144.215 714.357 141.972V140.766C714.357 138.248 714.706 135.921 715.404 133.784C716.103 131.625 717.139 129.742 718.515 128.134C719.89 126.526 721.614 125.278 723.688 124.389C725.762 123.479 728.174 123.024 730.924 123.024C733.358 123.024 735.537 123.416 737.462 124.199C739.388 124.982 741.017 126.103 742.35 127.563C743.704 129.023 744.73 130.79 745.429 132.863C746.148 134.937 746.508 137.264 746.508 139.846V144.194H718.451V137.497H736.066V136.672C736.087 135.529 735.886 134.556 735.463 133.752C735.061 132.948 734.468 132.334 733.686 131.911C732.903 131.488 731.951 131.276 730.829 131.276C729.665 131.276 728.703 131.53 727.941 132.038C727.2 132.546 726.618 133.244 726.195 134.133C725.793 135 725.508 136.005 725.338 137.148C725.169 138.291 725.084 139.497 725.084 140.766V141.972C725.084 143.242 725.254 144.395 725.592 145.432C725.952 146.468 726.46 147.357 727.116 148.098C727.793 148.817 728.597 149.378 729.528 149.78C730.48 150.182 731.559 150.383 732.765 150.383C734.225 150.383 735.664 150.108 737.082 149.558C738.499 149.007 739.716 148.098 740.731 146.828L745.587 152.604C744.889 153.599 743.895 154.562 742.604 155.493C741.334 156.424 739.811 157.185 738.034 157.778C736.256 158.349 734.267 158.635 732.067 158.635Z"/><path fill="#fff" d="M500.141 325V224.402H526.812V305.847H593.758V224.402H620.429V325H500.141ZM687.385 327.148C678.435 327.148 670.559 325.955 663.757 323.568C656.955 321.062 651.644 317.482 647.826 312.828C644.007 308.055 642.098 302.267 642.098 295.465C642.098 288.902 644.007 283.233 647.826 278.46C651.764 273.567 657.969 269.749 666.442 267.004C675.034 264.259 686.191 262.887 699.915 262.887H729.808C741.741 262.887 752.302 264.319 761.491 267.183C770.679 270.047 777.899 274.761 783.15 281.324C788.52 287.768 791.205 296.539 791.205 307.637C791.205 315.752 789.474 322.613 786.014 328.222C782.672 333.95 777.839 338.902 771.515 343.079C767.577 345.704 762.803 347.912 757.195 349.702C751.705 351.611 745.202 352.984 737.684 353.819C730.285 354.774 721.693 355.251 711.908 355.251H697.946C690.666 355.251 685.475 355.549 682.373 356.146C679.389 356.862 676.943 357.876 675.034 359.189C673.124 360.621 671.633 362.411 670.559 364.559C669.485 366.826 668.948 369.869 668.948 373.688C668.948 375.001 669.007 376.254 669.127 377.447C669.246 378.64 669.365 379.893 669.485 381.206L643.351 382.459C642.993 379.953 642.694 377.447 642.456 374.941C642.336 372.554 642.277 369.929 642.277 367.065C642.277 361.695 643.351 356.981 645.499 352.924C647.647 348.986 650.511 345.764 654.091 343.258C656.477 341.587 659.162 340.215 662.146 339.141C665.129 338.067 668.828 337.291 673.244 336.814C677.659 336.337 683.148 336.098 689.712 336.098H705.822C716.204 336.098 724.736 335.68 731.419 334.845C738.101 334.129 743.471 332.936 747.529 331.265C751.705 329.594 755.106 327.387 757.732 324.642C760.118 322.255 761.908 319.511 763.102 316.408C764.295 313.186 764.892 309.546 764.892 305.489C764.892 300.238 763.758 296.002 761.491 292.78C759.343 289.558 756.419 287.112 752.72 285.441C749.14 283.651 745.142 282.458 740.727 281.861C736.431 281.264 732.135 280.966 727.839 280.966H696.514C692.337 280.966 688.339 281.205 684.521 281.682C680.821 282.04 677.659 282.875 675.034 284.188C672.766 285.381 671.096 286.873 670.022 288.663C668.948 290.453 668.411 292.541 668.411 294.928C668.411 299.343 670.26 302.625 673.96 304.773C677.778 306.921 682.85 307.995 689.175 307.995C693.829 307.995 697.767 307.279 700.989 305.847C704.33 304.415 706.896 301.849 708.686 298.15C710.476 294.331 711.371 289.081 711.371 282.398V243.555H684.342V270.942L660.356 273.806V224.402H771.157V243.555H737.326V282.04C737.326 290.393 736.49 297.016 734.82 301.909C733.268 306.682 731.001 310.74 728.018 314.081C723.722 318.854 718.113 322.255 711.192 324.284C704.27 326.193 696.335 327.148 687.385 327.148ZM767.417 172.671C777.561 172.671 786.451 173.745 794.088 175.893C801.726 177.922 808.289 180.905 813.778 184.843C819.387 188.781 824.041 193.733 827.74 199.7C831.44 205.547 834.184 212.827 835.974 221.538C837.884 230.13 838.838 240.631 838.838 253.042V325H812.167V256.98C812.167 247.314 811.63 238.841 810.556 231.562C809.482 224.163 807.633 217.839 805.007 212.588C802.501 207.337 798.921 203.041 794.267 199.7C791.045 197.313 787.346 195.523 783.169 194.33C778.873 193.017 774.1 192.361 768.849 192.361C757.871 192.361 749.398 194.509 743.431 198.805C737.465 202.982 734.481 208.889 734.481 216.526C734.481 219.629 734.839 222.672 735.555 225.655C736.271 228.638 737.226 231.443 738.419 234.068H713.18C712.226 231.92 711.331 229.056 710.495 225.476C709.541 221.777 709.063 218.435 709.063 215.452C709.063 205.547 711.569 197.492 716.581 191.287C721.593 184.962 728.515 180.308 737.345 177.325C746.057 174.222 756.081 172.671 767.417 172.671ZM902.315 327.148C894.081 327.148 886.861 325.477 880.656 322.136C874.57 318.795 869.797 313.783 866.336 307.1C862.875 300.298 861.145 291.885 861.145 281.861C861.145 268.973 863.949 258.114 869.558 249.283C875.167 240.452 882.804 233.77 892.47 229.235C902.136 224.581 912.995 222.254 925.048 222.254C936.027 222.254 945.335 223.686 952.972 226.55C960.609 229.295 966.815 233.113 971.588 238.006C976.361 242.779 979.822 248.328 981.97 254.653C984.118 260.858 985.192 267.362 985.192 274.164C985.192 280.011 984.595 285.62 983.402 290.99C982.209 296.241 980.657 301.193 978.748 305.847H1016.52V224.402H1043.19V325H951.361L950.466 310.501C952.733 306.444 954.643 301.611 956.194 296.002C957.745 290.393 958.521 284.128 958.521 277.207C958.521 269.689 957.149 263.305 954.404 258.054C951.779 252.803 947.841 248.806 942.59 246.061C937.339 243.197 930.836 241.765 923.079 241.765C914.964 241.765 908.043 243.674 902.315 247.493C896.587 251.312 892.231 256.443 889.248 262.887C886.265 269.212 884.773 276.252 884.773 284.009C884.773 289.976 885.429 294.809 886.742 298.508C888.055 302.088 889.904 304.713 892.291 306.384C894.797 307.935 897.78 308.711 901.241 308.711C903.986 308.711 906.253 308.174 908.043 307.1C909.952 306.026 911.384 304.475 912.339 302.446C913.413 300.417 913.95 297.971 913.95 295.107C913.95 290.572 912.697 287.112 910.191 284.725C907.804 282.219 904.463 280.966 900.167 280.966C895.155 280.966 890.68 282.458 886.742 285.441C882.804 288.305 879.224 291.467 876.002 294.928L872.064 277.744C876.479 273.567 881.491 270.047 887.1 267.183C892.709 264.319 899.272 262.887 906.79 262.887C916.337 262.887 924.093 265.572 930.06 270.942C936.027 276.312 939.01 283.949 939.01 293.854C939.01 300.775 937.578 306.742 934.714 311.754C931.969 316.647 927.852 320.465 922.363 323.21C916.993 325.835 910.31 327.148 902.315 327.148ZM1035.6 172.671C1046.22 172.671 1055.41 174.222 1063.16 177.325C1070.92 180.428 1077.48 184.783 1082.85 190.392C1086.43 193.972 1089.36 198.149 1091.63 202.922C1093.89 207.695 1095.56 213.423 1096.64 220.106C1097.71 226.669 1098.25 234.605 1098.25 243.913V325H1071.58V249.462C1071.58 240.751 1071.22 233.591 1070.5 227.982C1069.79 222.373 1068.71 217.719 1067.28 214.02C1065.97 210.321 1064.24 207.099 1062.09 204.354C1058.87 200.177 1054.87 197.134 1050.1 195.225C1045.32 193.316 1039.89 192.361 1033.81 192.361C1026.77 192.361 1021.28 193.614 1017.34 196.12C1013.28 198.507 1010.42 201.49 1008.75 205.07C1007.08 208.531 1006.24 211.812 1006.24 214.915C1006.24 218.137 1006.72 221.18 1007.67 224.044C1008.63 226.789 1010.06 229.295 1011.97 231.562C1013.88 233.71 1016.27 235.56 1019.13 237.111C1021.99 238.662 1025.34 239.856 1029.15 240.691V260.202C1020.44 259.486 1012.51 257.219 1005.35 253.4C998.068 249.581 992.34 244.39 988.164 237.827C983.868 231.144 981.72 223.388 981.72 214.557C981.72 206.92 983.748 199.939 987.806 193.614C991.744 187.289 997.71 182.218 1005.71 178.399C1013.7 174.58 1023.67 172.671 1035.6 172.671ZM1227.78 222.254C1238.4 222.254 1247.35 224.7 1254.63 229.593C1262.02 234.366 1267.57 241.228 1271.27 250.178C1275.09 259.128 1277 269.808 1277 282.219C1277 296.778 1275.15 308.711 1271.45 318.019C1267.75 327.327 1262.56 334.666 1255.88 340.036C1250.99 343.974 1245.44 347.017 1239.23 349.165C1233.03 351.432 1226.11 352.984 1218.47 353.819C1210.83 354.774 1202.42 355.251 1193.23 355.251H1174.79C1167.51 355.251 1162.38 355.549 1159.4 356.146C1156.41 356.862 1153.97 357.876 1152.06 359.189C1150.15 360.621 1148.66 362.411 1147.58 364.559C1146.51 366.826 1145.97 369.869 1145.97 373.688C1145.97 375.001 1146.03 376.254 1146.15 377.447C1146.27 378.64 1146.39 379.893 1146.51 381.206L1120.38 382.459C1120.02 379.953 1119.72 377.447 1119.48 374.941C1119.36 372.554 1119.3 369.929 1119.3 367.065C1119.3 361.695 1120.38 356.981 1122.52 352.924C1124.67 348.986 1127.54 345.764 1131.12 343.258C1133.5 341.587 1136.19 340.215 1139.17 339.141C1142.15 338.067 1145.85 337.291 1150.27 336.814C1154.68 336.337 1160.17 336.098 1166.74 336.098H1189.65C1200.03 336.098 1209.04 335.382 1216.68 333.95C1224.32 332.518 1230.58 329.893 1235.47 326.074C1240.49 322.255 1244.18 316.826 1246.57 309.785C1249.08 302.744 1250.33 293.675 1250.33 282.577C1250.33 272.672 1249.26 264.737 1247.11 258.77C1244.96 252.684 1242.04 248.269 1238.34 245.524C1234.76 242.779 1230.64 241.407 1225.99 241.407C1223 241.407 1220.32 241.884 1217.93 242.839C1215.66 243.674 1213.64 245.166 1211.85 247.314C1209.82 249.939 1208.44 252.982 1207.73 256.443C1207.13 259.784 1206.83 264.2 1206.83 269.689V325H1180.16V270.763C1180.16 264.2 1179.92 259.068 1179.45 255.369C1179.09 251.67 1178.13 248.686 1176.58 246.419C1175.51 244.868 1174.2 243.674 1172.64 242.839C1171.09 241.884 1169.12 241.407 1166.74 241.407C1164.47 241.407 1162.44 241.825 1160.65 242.66C1158.86 243.495 1157.49 244.748 1156.53 246.419C1154.98 248.686 1153.97 251.67 1153.49 255.369C1153.13 259.068 1152.95 264.2 1152.95 270.763V325H1126.28V265.751C1126.28 259.904 1126.7 254.832 1127.54 250.536C1128.37 246.121 1129.62 242.362 1131.3 239.259C1132.97 236.156 1134.99 233.471 1137.38 231.204C1140.6 228.101 1144.36 225.834 1148.66 224.402C1152.95 222.97 1157.43 222.254 1162.08 222.254C1168.53 222.254 1173.9 223.089 1178.19 224.76C1182.49 226.311 1186.25 228.817 1189.47 232.278C1192.81 235.739 1195.97 240.333 1198.96 246.061L1189.29 243.913C1192.39 239.617 1195.62 235.858 1198.96 232.636C1202.42 229.295 1206.42 226.729 1210.95 224.939C1215.48 223.149 1221.09 222.254 1227.78 222.254ZM1338.88 327.148C1329.93 327.148 1322.06 325.955 1315.25 323.568C1308.45 321.062 1303.14 317.482 1299.32 312.828C1295.5 308.055 1293.59 302.267 1293.59 295.465C1293.59 288.902 1295.5 283.233 1299.32 278.46C1303.26 273.567 1309.47 269.749 1317.94 267.004C1326.41 264.259 1337.51 262.887 1351.23 262.887H1389.18C1396.82 262.887 1403.14 263.185 1408.15 263.782C1413.17 264.379 1417.46 265.393 1421.04 266.825C1424.62 268.138 1427.96 269.928 1431.07 272.195C1434.65 274.701 1437.45 278.042 1439.48 282.219C1441.63 286.276 1442.7 290.93 1442.7 296.181C1442.7 305.847 1439.6 313.425 1433.39 318.914C1427.31 324.403 1418.54 327.148 1407.08 327.148C1404.22 327.148 1400.94 326.969 1397.24 326.611C1393.66 326.372 1390.31 325.835 1387.21 325L1391.51 306.563C1393.18 307.04 1394.85 307.398 1396.52 307.637C1398.19 307.756 1399.98 307.816 1401.89 307.816C1406.9 307.816 1410.72 306.802 1413.35 304.773C1415.97 302.625 1417.28 299.343 1417.28 294.928C1417.28 291.825 1416.45 289.379 1414.78 287.589C1413.23 285.68 1411.02 284.248 1408.15 283.293C1405.41 282.338 1402.25 281.742 1398.67 281.503C1395.09 281.145 1391.39 280.966 1387.57 280.966H1348.01C1343.83 280.966 1339.84 281.205 1336.02 281.682C1332.32 282.04 1329.16 282.875 1326.53 284.188C1324.26 285.381 1322.59 286.873 1321.52 288.663C1320.44 290.453 1319.91 292.541 1319.91 294.928C1319.91 299.463 1321.76 302.804 1325.46 304.952C1329.28 307.1 1334.35 308.174 1340.67 308.174C1345.33 308.174 1349.26 307.458 1352.49 306.026C1355.83 304.475 1358.39 301.849 1360.18 298.15C1361.97 294.331 1362.87 289.081 1362.87 282.398V243.555H1335.84V270.942L1311.85 273.806V224.402H1422.47V243.555H1388.82V282.04C1388.82 290.393 1387.99 297.016 1386.32 301.909C1384.77 306.682 1382.5 310.74 1379.51 314.081C1375.1 318.854 1369.43 322.255 1362.51 324.284C1355.71 326.193 1347.83 327.148 1338.88 327.148ZM1372 206.502C1367.7 206.502 1364.18 205.13 1361.44 202.385C1358.69 199.521 1357.32 195.941 1357.32 191.645C1357.32 187.349 1358.69 183.829 1361.44 181.084C1364.18 178.22 1367.7 176.788 1372 176.788C1376.17 176.788 1379.63 178.22 1382.38 181.084C1385.12 183.829 1386.5 187.349 1386.5 191.645C1386.5 195.941 1385.12 199.521 1382.38 202.385C1379.63 205.13 1376.17 206.502 1372 206.502ZM1502.67 327.148C1493.72 327.148 1485.85 325.955 1479.05 323.568C1472.24 321.062 1466.93 317.482 1463.11 312.828C1459.3 308.055 1457.39 302.267 1457.39 295.465C1457.39 288.902 1459.3 283.233 1463.11 278.46C1467.05 273.567 1473.26 269.749 1481.73 267.004C1490.2 264.259 1501.3 262.887 1515.02 262.887H1552.97C1560.61 262.887 1566.93 263.185 1571.95 263.782C1576.96 264.379 1581.25 265.393 1584.83 266.825C1588.41 268.138 1591.76 269.928 1594.86 272.195C1598.44 274.701 1601.24 278.042 1603.27 282.219C1605.42 286.276 1606.49 290.93 1606.49 296.181C1606.49 305.847 1603.39 313.425 1597.19 318.914C1591.1 324.403 1582.33 327.148 1570.87 327.148C1568.01 327.148 1564.73 326.969 1561.03 326.611C1557.45 326.372 1554.11 325.835 1551 325L1555.3 306.563C1556.97 307.04 1558.64 307.398 1560.31 307.637C1561.98 307.756 1563.77 307.816 1565.68 307.816C1570.69 307.816 1574.51 306.802 1577.14 304.773C1579.76 302.625 1581.08 299.343 1581.08 294.928C1581.08 291.825 1580.24 289.379 1578.57 287.589C1577.02 285.68 1574.81 284.248 1571.95 283.293C1569.2 282.338 1566.04 281.742 1562.46 281.503C1558.88 281.145 1555.18 280.966 1551.36 280.966H1511.8C1507.63 280.966 1503.63 281.205 1499.81 281.682C1496.11 282.04 1492.95 282.875 1490.32 284.188C1488.06 285.381 1486.38 286.873 1485.31 288.663C1484.24 290.453 1483.7 292.541 1483.7 294.928C1483.7 299.463 1485.55 302.804 1489.25 304.952C1493.07 307.1 1498.14 308.174 1504.46 308.174C1509.12 308.174 1513.06 307.458 1516.28 306.026C1519.62 304.475 1522.18 301.849 1523.97 298.15C1525.76 294.331 1526.66 289.081 1526.66 282.398V243.555H1499.63V270.942L1475.64 273.806V224.402H1586.27V243.555H1552.61V282.04C1552.61 290.393 1551.78 297.016 1550.11 301.909C1548.56 306.682 1546.29 310.74 1543.31 314.081C1538.89 318.854 1533.22 322.255 1526.3 324.284C1519.5 326.193 1511.62 327.148 1502.67 327.148ZM1725.36 222.254C1736.45 222.254 1745.46 224.641 1752.39 229.414C1759.31 234.068 1764.38 240.512 1767.6 248.746C1770.94 256.98 1772.61 266.288 1772.61 276.67C1772.61 285.739 1771.54 293.317 1769.39 299.403C1767.36 305.489 1764.08 310.441 1759.55 314.26C1756.32 317.005 1752.68 319.153 1748.63 320.704C1744.57 322.255 1739.68 323.389 1733.95 324.105C1728.34 324.702 1721.36 325 1713.01 325H1627.98V224.402H1654.65V305.847H1687.59V261.455C1687.59 254.056 1688.36 248.03 1689.91 243.376C1691.59 238.722 1693.97 234.844 1697.07 231.741C1700.3 228.638 1704.23 226.311 1708.89 224.76C1713.66 223.089 1719.15 222.254 1725.36 222.254ZM1727.15 241.407C1725.6 241.407 1724.04 241.646 1722.49 242.123C1721.06 242.6 1719.75 243.436 1718.55 244.629C1717 246.18 1715.87 248.328 1715.15 251.073C1714.56 253.698 1714.26 258.054 1714.26 264.14V305.847H1721.06C1727.39 305.847 1732.34 304.952 1735.92 303.162C1739.62 301.253 1742.18 298.15 1743.61 293.854C1745.17 289.558 1745.94 283.83 1745.94 276.67C1745.94 270.107 1745.35 264.2 1744.15 258.949C1742.96 253.579 1740.99 249.343 1738.24 246.24C1735.5 243.018 1731.8 241.407 1727.15 241.407ZM1697.61 206.502C1693.32 206.502 1689.8 205.13 1687.05 202.385C1684.31 199.521 1682.93 195.941 1682.93 191.645C1682.93 187.349 1684.31 183.829 1687.05 181.084C1689.8 178.22 1693.32 176.788 1697.61 176.788C1701.79 176.788 1705.25 178.22 1707.99 181.084C1710.74 183.829 1712.11 187.349 1712.11 191.645C1712.11 195.941 1710.74 199.521 1707.99 202.385C1705.25 205.13 1701.79 206.502 1697.61 206.502Z"/><path fill="url(#paint1_linear_232_3)" d="M500.141 325V224.402H526.812V305.847H593.758V224.402H620.429V325H500.141ZM687.385 327.148C678.435 327.148 670.559 325.955 663.757 323.568C656.955 321.062 651.644 317.482 647.826 312.828C644.007 308.055 642.098 302.267 642.098 295.465C642.098 288.902 644.007 283.233 647.826 278.46C651.764 273.567 657.969 269.749 666.442 267.004C675.034 264.259 686.191 262.887 699.915 262.887H729.808C741.741 262.887 752.302 264.319 761.491 267.183C770.679 270.047 777.899 274.761 783.15 281.324C788.52 287.768 791.205 296.539 791.205 307.637C791.205 315.752 789.474 322.613 786.014 328.222C782.672 333.95 777.839 338.902 771.515 343.079C767.577 345.704 762.803 347.912 757.195 349.702C751.705 351.611 745.202 352.984 737.684 353.819C730.285 354.774 721.693 355.251 711.908 355.251H697.946C690.666 355.251 685.475 355.549 682.373 356.146C679.389 356.862 676.943 357.876 675.034 359.189C673.124 360.621 671.633 362.411 670.559 364.559C669.485 366.826 668.948 369.869 668.948 373.688C668.948 375.001 669.007 376.254 669.127 377.447C669.246 378.64 669.365 379.893 669.485 381.206L643.351 382.459C642.993 379.953 642.694 377.447 642.456 374.941C642.336 372.554 642.277 369.929 642.277 367.065C642.277 361.695 643.351 356.981 645.499 352.924C647.647 348.986 650.511 345.764 654.091 343.258C656.477 341.587 659.162 340.215 662.146 339.141C665.129 338.067 668.828 337.291 673.244 336.814C677.659 336.337 683.148 336.098 689.712 336.098H705.822C716.204 336.098 724.736 335.68 731.419 334.845C738.101 334.129 743.471 332.936 747.529 331.265C751.705 329.594 755.106 327.387 757.732 324.642C760.118 322.255 761.908 319.511 763.102 316.408C764.295 313.186 764.892 309.546 764.892 305.489C764.892 300.238 763.758 296.002 761.491 292.78C759.343 289.558 756.419 287.112 752.72 285.441C749.14 283.651 745.142 282.458 740.727 281.861C736.431 281.264 732.135 280.966 727.839 280.966H696.514C692.337 280.966 688.339 281.205 684.521 281.682C680.821 282.04 677.659 282.875 675.034 284.188C672.766 285.381 671.096 286.873 670.022 288.663C668.948 290.453 668.411 292.541 668.411 294.928C668.411 299.343 670.26 302.625 673.96 304.773C677.778 306.921 682.85 307.995 689.175 307.995C693.829 307.995 697.767 307.279 700.989 305.847C704.33 304.415 706.896 301.849 708.686 298.15C710.476 294.331 711.371 289.081 711.371 282.398V243.555H684.342V270.942L660.356 273.806V224.402H771.157V243.555H737.326V282.04C737.326 290.393 736.49 297.016 734.82 301.909C733.268 306.682 731.001 310.74 728.018 314.081C723.722 318.854 718.113 322.255 711.192 324.284C704.27 326.193 696.335 327.148 687.385 327.148ZM767.417 172.671C777.561 172.671 786.451 173.745 794.088 175.893C801.726 177.922 808.289 180.905 813.778 184.843C819.387 188.781 824.041 193.733 827.74 199.7C831.44 205.547 834.184 212.827 835.974 221.538C837.884 230.13 838.838 240.631 838.838 253.042V325H812.167V256.98C812.167 247.314 811.63 238.841 810.556 231.562C809.482 224.163 807.633 217.839 805.007 212.588C802.501 207.337 798.921 203.041 794.267 199.7C791.045 197.313 787.346 195.523 783.169 194.33C778.873 193.017 774.1 192.361 768.849 192.361C757.871 192.361 749.398 194.509 743.431 198.805C737.465 202.982 734.481 208.889 734.481 216.526C734.481 219.629 734.839 222.672 735.555 225.655C736.271 228.638 737.226 231.443 738.419 234.068H713.18C712.226 231.92 711.331 229.056 710.495 225.476C709.541 221.777 709.063 218.435 709.063 215.452C709.063 205.547 711.569 197.492 716.581 191.287C721.593 184.962 728.515 180.308 737.345 177.325C746.057 174.222 756.081 172.671 767.417 172.671ZM902.315 327.148C894.081 327.148 886.861 325.477 880.656 322.136C874.57 318.795 869.797 313.783 866.336 307.1C862.875 300.298 861.145 291.885 861.145 281.861C861.145 268.973 863.949 258.114 869.558 249.283C875.167 240.452 882.804 233.77 892.47 229.235C902.136 224.581 912.995 222.254 925.048 222.254C936.027 222.254 945.335 223.686 952.972 226.55C960.609 229.295 966.815 233.113 971.588 238.006C976.361 242.779 979.822 248.328 981.97 254.653C984.118 260.858 985.192 267.362 985.192 274.164C985.192 280.011 984.595 285.62 983.402 290.99C982.209 296.241 980.657 301.193 978.748 305.847H1016.52V224.402H1043.19V325H951.361L950.466 310.501C952.733 306.444 954.643 301.611 956.194 296.002C957.745 290.393 958.521 284.128 958.521 277.207C958.521 269.689 957.149 263.305 954.404 258.054C951.779 252.803 947.841 248.806 942.59 246.061C937.339 243.197 930.836 241.765 923.079 241.765C914.964 241.765 908.043 243.674 902.315 247.493C896.587 251.312 892.231 256.443 889.248 262.887C886.265 269.212 884.773 276.252 884.773 284.009C884.773 289.976 885.429 294.809 886.742 298.508C888.055 302.088 889.904 304.713 892.291 306.384C894.797 307.935 897.78 308.711 901.241 308.711C903.986 308.711 906.253 308.174 908.043 307.1C909.952 306.026 911.384 304.475 912.339 302.446C913.413 300.417 913.95 297.971 913.95 295.107C913.95 290.572 912.697 287.112 910.191 284.725C907.804 282.219 904.463 280.966 900.167 280.966C895.155 280.966 890.68 282.458 886.742 285.441C882.804 288.305 879.224 291.467 876.002 294.928L872.064 277.744C876.479 273.567 881.491 270.047 887.1 267.183C892.709 264.319 899.272 262.887 906.79 262.887C916.337 262.887 924.093 265.572 930.06 270.942C936.027 276.312 939.01 283.949 939.01 293.854C939.01 300.775 937.578 306.742 934.714 311.754C931.969 316.647 927.852 320.465 922.363 323.21C916.993 325.835 910.31 327.148 902.315 327.148ZM1035.6 172.671C1046.22 172.671 1055.41 174.222 1063.16 177.325C1070.92 180.428 1077.48 184.783 1082.85 190.392C1086.43 193.972 1089.36 198.149 1091.63 202.922C1093.89 207.695 1095.56 213.423 1096.64 220.106C1097.71 226.669 1098.25 234.605 1098.25 243.913V325H1071.58V249.462C1071.58 240.751 1071.22 233.591 1070.5 227.982C1069.79 222.373 1068.71 217.719 1067.28 214.02C1065.97 210.321 1064.24 207.099 1062.09 204.354C1058.87 200.177 1054.87 197.134 1050.1 195.225C1045.32 193.316 1039.89 192.361 1033.81 192.361C1026.77 192.361 1021.28 193.614 1017.34 196.12C1013.28 198.507 1010.42 201.49 1008.75 205.07C1007.08 208.531 1006.24 211.812 1006.24 214.915C1006.24 218.137 1006.72 221.18 1007.67 224.044C1008.63 226.789 1010.06 229.295 1011.97 231.562C1013.88 233.71 1016.27 235.56 1019.13 237.111C1021.99 238.662 1025.34 239.856 1029.15 240.691V260.202C1020.44 259.486 1012.51 257.219 1005.35 253.4C998.068 249.581 992.34 244.39 988.164 237.827C983.868 231.144 981.72 223.388 981.72 214.557C981.72 206.92 983.748 199.939 987.806 193.614C991.744 187.289 997.71 182.218 1005.71 178.399C1013.7 174.58 1023.67 172.671 1035.6 172.671ZM1227.78 222.254C1238.4 222.254 1247.35 224.7 1254.63 229.593C1262.02 234.366 1267.57 241.228 1271.27 250.178C1275.09 259.128 1277 269.808 1277 282.219C1277 296.778 1275.15 308.711 1271.45 318.019C1267.75 327.327 1262.56 334.666 1255.88 340.036C1250.99 343.974 1245.44 347.017 1239.23 349.165C1233.03 351.432 1226.11 352.984 1218.47 353.819C1210.83 354.774 1202.42 355.251 1193.23 355.251H1174.79C1167.51 355.251 1162.38 355.549 1159.4 356.146C1156.41 356.862 1153.97 357.876 1152.06 359.189C1150.15 360.621 1148.66 362.411 1147.58 364.559C1146.51 366.826 1145.97 369.869 1145.97 373.688C1145.97 375.001 1146.03 376.254 1146.15 377.447C1146.27 378.64 1146.39 379.893 1146.51 381.206L1120.38 382.459C1120.02 379.953 1119.72 377.447 1119.48 374.941C1119.36 372.554 1119.3 369.929 1119.3 367.065C1119.3 361.695 1120.38 356.981 1122.52 352.924C1124.67 348.986 1127.54 345.764 1131.12 343.258C1133.5 341.587 1136.19 340.215 1139.17 339.141C1142.15 338.067 1145.85 337.291 1150.27 336.814C1154.68 336.337 1160.17 336.098 1166.74 336.098H1189.65C1200.03 336.098 1209.04 335.382 1216.68 333.95C1224.32 332.518 1230.58 329.893 1235.47 326.074C1240.49 322.255 1244.18 316.826 1246.57 309.785C1249.08 302.744 1250.33 293.675 1250.33 282.577C1250.33 272.672 1249.26 264.737 1247.11 258.77C1244.96 252.684 1242.04 248.269 1238.34 245.524C1234.76 242.779 1230.64 241.407 1225.99 241.407C1223 241.407 1220.32 241.884 1217.93 242.839C1215.66 243.674 1213.64 245.166 1211.85 247.314C1209.82 249.939 1208.44 252.982 1207.73 256.443C1207.13 259.784 1206.83 264.2 1206.83 269.689V325H1180.16V270.763C1180.16 264.2 1179.92 259.068 1179.45 255.369C1179.09 251.67 1178.13 248.686 1176.58 246.419C1175.51 244.868 1174.2 243.674 1172.64 242.839C1171.09 241.884 1169.12 241.407 1166.74 241.407C1164.47 241.407 1162.44 241.825 1160.65 242.66C1158.86 243.495 1157.49 244.748 1156.53 246.419C1154.98 248.686 1153.97 251.67 1153.49 255.369C1153.13 259.068 1152.95 264.2 1152.95 270.763V325H1126.28V265.751C1126.28 259.904 1126.7 254.832 1127.54 250.536C1128.37 246.121 1129.62 242.362 1131.3 239.259C1132.97 236.156 1134.99 233.471 1137.38 231.204C1140.6 228.101 1144.36 225.834 1148.66 224.402C1152.95 222.97 1157.43 222.254 1162.08 222.254C1168.53 222.254 1173.9 223.089 1178.19 224.76C1182.49 226.311 1186.25 228.817 1189.47 232.278C1192.81 235.739 1195.97 240.333 1198.96 246.061L1189.29 243.913C1192.39 239.617 1195.62 235.858 1198.96 232.636C1202.42 229.295 1206.42 226.729 1210.95 224.939C1215.48 223.149 1221.09 222.254 1227.78 222.254ZM1338.88 327.148C1329.93 327.148 1322.06 325.955 1315.25 323.568C1308.45 321.062 1303.14 317.482 1299.32 312.828C1295.5 308.055 1293.59 302.267 1293.59 295.465C1293.59 288.902 1295.5 283.233 1299.32 278.46C1303.26 273.567 1309.47 269.749 1317.94 267.004C1326.41 264.259 1337.51 262.887 1351.23 262.887H1389.18C1396.82 262.887 1403.14 263.185 1408.15 263.782C1413.17 264.379 1417.46 265.393 1421.04 266.825C1424.62 268.138 1427.96 269.928 1431.07 272.195C1434.65 274.701 1437.45 278.042 1439.48 282.219C1441.63 286.276 1442.7 290.93 1442.7 296.181C1442.7 305.847 1439.6 313.425 1433.39 318.914C1427.31 324.403 1418.54 327.148 1407.08 327.148C1404.22 327.148 1400.94 326.969 1397.24 326.611C1393.66 326.372 1390.31 325.835 1387.21 325L1391.51 306.563C1393.18 307.04 1394.85 307.398 1396.52 307.637C1398.19 307.756 1399.98 307.816 1401.89 307.816C1406.9 307.816 1410.72 306.802 1413.35 304.773C1415.97 302.625 1417.28 299.343 1417.28 294.928C1417.28 291.825 1416.45 289.379 1414.78 287.589C1413.23 285.68 1411.02 284.248 1408.15 283.293C1405.41 282.338 1402.25 281.742 1398.67 281.503C1395.09 281.145 1391.39 280.966 1387.57 280.966H1348.01C1343.83 280.966 1339.84 281.205 1336.02 281.682C1332.32 282.04 1329.16 282.875 1326.53 284.188C1324.26 285.381 1322.59 286.873 1321.52 288.663C1320.44 290.453 1319.91 292.541 1319.91 294.928C1319.91 299.463 1321.76 302.804 1325.46 304.952C1329.28 307.1 1334.35 308.174 1340.67 308.174C1345.33 308.174 1349.26 307.458 1352.49 306.026C1355.83 304.475 1358.39 301.849 1360.18 298.15C1361.97 294.331 1362.87 289.081 1362.87 282.398V243.555H1335.84V270.942L1311.85 273.806V224.402H1422.47V243.555H1388.82V282.04C1388.82 290.393 1387.99 297.016 1386.32 301.909C1384.77 306.682 1382.5 310.74 1379.51 314.081C1375.1 318.854 1369.43 322.255 1362.51 324.284C1355.71 326.193 1347.83 327.148 1338.88 327.148ZM1372 206.502C1367.7 206.502 1364.18 205.13 1361.44 202.385C1358.69 199.521 1357.32 195.941 1357.32 191.645C1357.32 187.349 1358.69 183.829 1361.44 181.084C1364.18 178.22 1367.7 176.788 1372 176.788C1376.17 176.788 1379.63 178.22 1382.38 181.084C1385.12 183.829 1386.5 187.349 1386.5 191.645C1386.5 195.941 1385.12 199.521 1382.38 202.385C1379.63 205.13 1376.17 206.502 1372 206.502ZM1502.67 327.148C1493.72 327.148 1485.85 325.955 1479.05 323.568C1472.24 321.062 1466.93 317.482 1463.11 312.828C1459.3 308.055 1457.39 302.267 1457.39 295.465C1457.39 288.902 1459.3 283.233 1463.11 278.46C1467.05 273.567 1473.26 269.749 1481.73 267.004C1490.2 264.259 1501.3 262.887 1515.02 262.887H1552.97C1560.61 262.887 1566.93 263.185 1571.95 263.782C1576.96 264.379 1581.25 265.393 1584.83 266.825C1588.41 268.138 1591.76 269.928 1594.86 272.195C1598.44 274.701 1601.24 278.042 1603.27 282.219C1605.42 286.276 1606.49 290.93 1606.49 296.181C1606.49 305.847 1603.39 313.425 1597.19 318.914C1591.1 324.403 1582.33 327.148 1570.87 327.148C1568.01 327.148 1564.73 326.969 1561.03 326.611C1557.45 326.372 1554.11 325.835 1551 325L1555.3 306.563C1556.97 307.04 1558.64 307.398 1560.31 307.637C1561.98 307.756 1563.77 307.816 1565.68 307.816C1570.69 307.816 1574.51 306.802 1577.14 304.773C1579.76 302.625 1581.08 299.343 1581.08 294.928C1581.08 291.825 1580.24 289.379 1578.57 287.589C1577.02 285.68 1574.81 284.248 1571.95 283.293C1569.2 282.338 1566.04 281.742 1562.46 281.503C1558.88 281.145 1555.18 280.966 1551.36 280.966H1511.8C1507.63 280.966 1503.63 281.205 1499.81 281.682C1496.11 282.04 1492.95 282.875 1490.32 284.188C1488.06 285.381 1486.38 286.873 1485.31 288.663C1484.24 290.453 1483.7 292.541 1483.7 294.928C1483.7 299.463 1485.55 302.804 1489.25 304.952C1493.07 307.1 1498.14 308.174 1504.46 308.174C1509.12 308.174 1513.06 307.458 1516.28 306.026C1519.62 304.475 1522.18 301.849 1523.97 298.15C1525.76 294.331 1526.66 289.081 1526.66 282.398V243.555H1499.63V270.942L1475.64 273.806V224.402H1586.27V243.555H1552.61V282.04C1552.61 290.393 1551.78 297.016 1550.11 301.909C1548.56 306.682 1546.29 310.74 1543.31 314.081C1538.89 318.854 1533.22 322.255 1526.3 324.284C1519.5 326.193 1511.62 327.148 1502.67 327.148ZM1725.36 222.254C1736.45 222.254 1745.46 224.641 1752.39 229.414C1759.31 234.068 1764.38 240.512 1767.6 248.746C1770.94 256.98 1772.61 266.288 1772.61 276.67C1772.61 285.739 1771.54 293.317 1769.39 299.403C1767.36 305.489 1764.08 310.441 1759.55 314.26C1756.32 317.005 1752.68 319.153 1748.63 320.704C1744.57 322.255 1739.68 323.389 1733.95 324.105C1728.34 324.702 1721.36 325 1713.01 325H1627.98V224.402H1654.65V305.847H1687.59V261.455C1687.59 254.056 1688.36 248.03 1689.91 243.376C1691.59 238.722 1693.97 234.844 1697.07 231.741C1700.3 228.638 1704.23 226.311 1708.89 224.76C1713.66 223.089 1719.15 222.254 1725.36 222.254ZM1727.15 241.407C1725.6 241.407 1724.04 241.646 1722.49 242.123C1721.06 242.6 1719.75 243.436 1718.55 244.629C1717 246.18 1715.87 248.328 1715.15 251.073C1714.56 253.698 1714.26 258.054 1714.26 264.14V305.847H1721.06C1727.39 305.847 1732.34 304.952 1735.92 303.162C1739.62 301.253 1742.18 298.15 1743.61 293.854C1745.17 289.558 1745.94 283.83 1745.94 276.67C1745.94 270.107 1745.35 264.2 1744.15 258.949C1742.96 253.579 1740.99 249.343 1738.24 246.24C1735.5 243.018 1731.8 241.407 1727.15 241.407ZM1697.61 206.502C1693.32 206.502 1689.8 205.13 1687.05 202.385C1684.31 199.521 1682.93 195.941 1682.93 191.645C1682.93 187.349 1684.31 183.829 1687.05 181.084C1689.8 178.22 1693.32 176.788 1697.61 176.788C1701.79 176.788 1705.25 178.22 1707.99 181.084C1710.74 183.829 1712.11 187.349 1712.11 191.645C1712.11 195.941 1710.74 199.521 1707.99 202.385C1705.25 205.13 1701.79 206.502 1697.61 206.502Z"/><defs><linearGradient id="paint0_linear_232_3" x1="0" x2="88.064" y1=".777" y2="9.505" gradientUnits="userSpaceOnUse"><stop stop-color="#00E1C3"/><stop offset="1" stop-color="#00D1D5"/></linearGradient><linearGradient id="paint1_linear_232_3" x1="486" x2="546.791" y1="159.371" y2="578.837" gradientUnits="userSpaceOnUse"><stop stop-color="#00E1C3"/><stop offset="1" stop-color="#00D1D5"/></linearGradient></defs></svg>