<svg xmlns="http://www.w3.org/2000/svg" width="1768" height="440" fill="none" viewBox="0 0 1768 440"><path fill="#132636" d="M3 37C3 16.5655 19.5655 0 40 0H1716.65C1741.91 0 1759.74 24.7496 1751.75 48.7101L1629.97 413.71C1624.93 428.814 1610.79 439 1594.87 439H40C19.5655 439 3 422.435 3 402V37Z"/><path fill="#132636" d="M0 37C0 16.5655 16.5655 0 37 0H39V440H37C16.5655 440 0 423.435 0 403V37Z"/><path fill="url(#paint0_linear_232_13)" d="M0 37C0 16.5655 16.5655 0 37 0H39V440H37C16.5655 440 0 423.435 0 403V37Z"/><path fill="#01D8CE" d="M324.112 151.793C326.467 149.355 329.284 147.41 332.398 146.072C335.513 144.735 338.862 144.03 342.252 144.001C345.641 143.972 349.002 144.617 352.139 145.901C355.277 147.184 358.127 149.08 360.523 151.477C362.92 153.873 364.816 156.723 366.099 159.861C367.383 162.998 368.028 166.359 367.999 169.748C367.97 173.138 367.265 176.487 365.928 179.602C364.59 182.716 362.645 185.533 360.207 187.888L350.086 198.009L313.991 161.914L324.112 151.793V151.793ZM295.944 179.962L189 286.905V323H225.095L332.051 216.056L295.931 179.962H295.944Z"/><path fill="#fff" d="M503.011 147.114L512.627 111.789H525.101L509.517 158H501.456L503.011 147.114ZM494.283 111.789L503.899 147.114L505.518 158H497.361L481.873 111.789H494.283ZM547.159 149.653V123.659H557.886V158H547.857L547.159 149.653ZM548.174 142.67L550.967 142.607C550.967 144.913 550.692 147.05 550.142 149.018C549.592 150.965 548.777 152.657 547.698 154.096C546.64 155.535 545.328 156.656 543.763 157.46C542.218 158.243 540.43 158.635 538.399 158.635C536.706 158.635 535.151 158.402 533.733 157.937C532.337 157.45 531.131 156.699 530.115 155.683C529.1 154.646 528.306 153.324 527.735 151.716C527.185 150.087 526.91 148.14 526.91 145.876V123.659H537.605V145.939C537.605 146.701 537.701 147.357 537.891 147.907C538.082 148.457 538.357 148.923 538.716 149.304C539.076 149.663 539.52 149.938 540.049 150.129C540.599 150.298 541.224 150.383 541.922 150.383C543.53 150.383 544.789 150.044 545.699 149.367C546.609 148.69 547.243 147.77 547.603 146.606C547.984 145.442 548.174 144.13 548.174 142.67ZM580.42 158.635C577.627 158.635 575.131 158.201 572.93 157.333C570.73 156.445 568.868 155.228 567.344 153.684C565.842 152.139 564.689 150.362 563.885 148.352C563.102 146.341 562.71 144.215 562.71 141.972V140.766C562.71 138.248 563.06 135.921 563.758 133.784C564.456 131.625 565.493 129.742 566.868 128.134C568.243 126.526 569.968 125.278 572.042 124.389C574.115 123.479 576.527 123.024 579.278 123.024C581.711 123.024 583.89 123.416 585.816 124.199C587.741 124.982 589.371 126.103 590.704 127.563C592.058 129.023 593.084 130.79 593.782 132.863C594.502 134.937 594.861 137.264 594.861 139.846V144.194H566.805V137.497H584.419V136.672C584.441 135.529 584.24 134.556 583.816 133.752C583.414 132.948 582.822 132.334 582.039 131.911C581.256 131.488 580.304 131.276 579.183 131.276C578.019 131.276 577.056 131.53 576.294 132.038C575.554 132.546 574.972 133.244 574.549 134.133C574.147 135 573.861 136.005 573.692 137.148C573.523 138.291 573.438 139.497 573.438 140.766V141.972C573.438 143.242 573.607 144.395 573.946 145.432C574.306 146.468 574.813 147.357 575.469 148.098C576.146 148.817 576.95 149.378 577.881 149.78C578.833 150.182 579.913 150.383 581.119 150.383C582.579 150.383 584.017 150.108 585.435 149.558C586.853 149.007 588.069 148.098 589.085 146.828L593.941 152.604C593.243 153.599 592.248 154.562 590.958 155.493C589.688 156.424 588.165 157.185 586.387 157.778C584.61 158.349 582.621 158.635 580.42 158.635ZM622.093 111.789V158H610.953V111.789H622.093ZM635.994 111.789V120.39H597.369V111.789H635.994ZM658.179 149.653V123.659H668.907V158H658.877L658.179 149.653ZM659.195 142.67L661.988 142.607C661.988 144.913 661.713 147.05 661.163 149.018C660.612 150.965 659.798 152.657 658.719 154.096C657.661 155.535 656.349 156.656 654.783 157.46C653.239 158.243 651.451 158.635 649.419 158.635C647.727 158.635 646.172 158.402 644.754 157.937C643.357 157.45 642.151 156.699 641.136 155.683C640.12 154.646 639.327 153.324 638.755 151.716C638.205 150.087 637.93 148.14 637.93 145.876V123.659H648.626V145.939C648.626 146.701 648.721 147.357 648.912 147.907C649.102 148.457 649.377 148.923 649.737 149.304C650.097 149.663 650.541 149.938 651.07 150.129C651.62 150.298 652.244 150.383 652.942 150.383C654.55 150.383 655.809 150.044 656.719 149.367C657.629 148.69 658.264 147.77 658.624 146.606C659.004 145.442 659.195 144.13 659.195 142.67ZM674.905 109.25H685.601V149.558L684.49 158H674.905V109.25ZM706.675 140.449V141.115C706.675 143.718 706.411 146.088 705.882 148.225C705.353 150.362 704.538 152.213 703.438 153.779C702.338 155.323 700.952 156.519 699.28 157.365C697.609 158.212 695.63 158.635 693.345 158.635C691.272 158.635 689.494 158.19 688.013 157.302C686.532 156.392 685.294 155.144 684.3 153.557C683.305 151.949 682.501 150.097 681.888 148.002C681.274 145.887 680.787 143.623 680.428 141.21V140.417C680.787 138.026 681.274 135.783 681.888 133.688C682.501 131.573 683.305 129.721 684.3 128.134C685.294 126.526 686.521 125.278 687.981 124.389C689.463 123.479 691.229 123.024 693.282 123.024C695.588 123.024 697.577 123.458 699.249 124.326C700.941 125.193 702.338 126.41 703.438 127.976C704.538 129.541 705.353 131.382 705.882 133.498C706.411 135.614 706.675 137.931 706.675 140.449ZM695.979 141.115V140.449C695.979 139.2 695.905 138.026 695.757 136.926C695.609 135.826 695.345 134.852 694.964 134.006C694.583 133.16 694.043 132.493 693.345 132.006C692.647 131.52 691.737 131.276 690.616 131.276C689.473 131.276 688.51 131.467 687.728 131.848C686.966 132.229 686.352 132.779 685.887 133.498C685.442 134.196 685.125 135.064 684.935 136.101C684.744 137.116 684.66 138.269 684.681 139.56V142.067C684.638 143.824 684.797 145.326 685.157 146.574C685.516 147.823 686.141 148.775 687.029 149.431C687.918 150.087 689.135 150.415 690.679 150.415C691.822 150.415 692.742 150.192 693.44 149.748C694.16 149.304 694.699 148.669 695.059 147.844C695.419 147.019 695.662 146.035 695.789 144.892C695.916 143.75 695.979 142.491 695.979 141.115ZM728.067 158.635C725.274 158.635 722.777 158.201 720.577 157.333C718.376 156.445 716.514 155.228 714.991 153.684C713.488 152.139 712.335 150.362 711.531 148.352C710.748 146.341 710.357 144.215 710.357 141.972V140.766C710.357 138.248 710.706 135.921 711.404 133.784C712.103 131.625 713.139 129.742 714.515 128.134C715.89 126.526 717.614 125.278 719.688 124.389C721.762 123.479 724.174 123.024 726.924 123.024C729.358 123.024 731.537 123.416 733.462 124.199C735.388 124.982 737.017 126.103 738.35 127.563C739.704 129.023 740.73 130.79 741.429 132.863C742.148 134.937 742.508 137.264 742.508 139.846V144.194H714.451V137.497H732.066V136.672C732.087 135.529 731.886 134.556 731.463 133.752C731.061 132.948 730.468 132.334 729.686 131.911C728.903 131.488 727.951 131.276 726.829 131.276C725.665 131.276 724.703 131.53 723.941 132.038C723.2 132.546 722.618 133.244 722.195 134.133C721.793 135 721.508 136.005 721.338 137.148C721.169 138.291 721.084 139.497 721.084 140.766V141.972C721.084 143.242 721.254 144.395 721.592 145.432C721.952 146.468 722.46 147.357 723.116 148.098C723.793 148.817 724.597 149.378 725.528 149.78C726.48 150.182 727.559 150.383 728.765 150.383C730.225 150.383 731.664 150.108 733.082 149.558C734.499 149.007 735.716 148.098 736.731 146.828L741.587 152.604C740.889 153.599 739.895 154.562 738.604 155.493C737.334 156.424 735.811 157.185 734.034 157.778C732.256 158.349 730.267 158.635 728.067 158.635Z"/><path fill="#fff" d="M534.626 327.148C525.676 327.148 517.8 325.955 510.998 323.568C504.196 321.062 498.886 317.482 495.067 312.828C491.248 308.055 489.339 302.267 489.339 295.465C489.339 288.902 491.248 283.233 495.067 278.46C499.005 273.567 505.21 269.749 513.683 267.004C522.275 264.259 533.433 262.887 547.156 262.887H577.049C588.982 262.887 599.543 264.319 608.732 267.183C617.921 270.047 625.14 274.761 630.391 281.324C635.761 287.768 638.446 296.539 638.446 307.637C638.446 315.752 636.716 322.613 633.255 328.222C629.914 333.95 625.081 338.902 618.756 343.079C614.818 345.704 610.045 347.912 604.436 349.702C598.947 351.611 592.443 352.984 584.925 353.819C577.526 354.774 568.934 355.251 559.149 355.251H545.187C537.908 355.251 532.717 355.549 529.614 356.146C526.631 356.862 524.184 357.876 522.275 359.189C520.366 360.621 518.874 362.411 517.8 364.559C516.726 366.826 516.189 369.869 516.189 373.688C516.189 375.001 516.249 376.254 516.368 377.447C516.487 378.64 516.607 379.893 516.726 381.206L490.592 382.459C490.234 379.953 489.936 377.447 489.697 374.941C489.578 372.554 489.518 369.929 489.518 367.065C489.518 361.695 490.592 356.981 492.74 352.924C494.888 348.986 497.752 345.764 501.332 343.258C503.719 341.587 506.404 340.215 509.387 339.141C512.37 338.067 516.07 337.291 520.485 336.814C524.9 336.337 530.39 336.098 536.953 336.098H553.063C563.445 336.098 571.977 335.68 578.66 334.845C585.343 334.129 590.713 332.936 594.77 331.265C598.947 329.594 602.348 327.387 604.973 324.642C607.36 322.255 609.15 319.511 610.343 316.408C611.536 313.186 612.133 309.546 612.133 305.489C612.133 300.238 610.999 296.002 608.732 292.78C606.584 289.558 603.66 287.112 599.961 285.441C596.381 283.651 592.383 282.458 587.968 281.861C583.672 281.264 579.376 280.966 575.08 280.966H543.755C539.578 280.966 535.581 281.205 531.762 281.682C528.063 282.04 524.9 282.875 522.275 284.188C520.008 285.381 518.337 286.873 517.263 288.663C516.189 290.453 515.652 292.541 515.652 294.928C515.652 299.343 517.502 302.625 521.201 304.773C525.02 306.921 530.091 307.995 536.416 307.995C541.07 307.995 545.008 307.279 548.23 305.847C551.571 304.415 554.137 301.849 555.927 298.15C557.717 294.331 558.612 289.081 558.612 282.398V243.555H531.583V270.942L507.597 273.806V224.402H618.398V243.555H584.567V282.04C584.567 290.393 583.732 297.016 582.061 301.909C580.51 306.682 578.242 310.74 575.259 314.081C570.963 318.854 565.354 322.255 558.433 324.284C551.512 326.193 543.576 327.148 534.626 327.148ZM614.659 172.671C624.802 172.671 633.692 173.745 641.33 175.893C648.967 177.922 655.53 180.905 661.02 184.843C666.628 188.781 671.282 193.733 674.982 199.7C678.681 205.547 681.426 212.827 683.216 221.538C685.125 230.13 686.08 240.631 686.08 253.042V325H659.409V256.98C659.409 247.314 658.872 238.841 657.798 231.562C656.724 224.163 654.874 217.839 652.249 212.588C649.743 207.337 646.163 203.041 641.509 199.7C638.287 197.313 634.587 195.523 630.411 194.33C626.115 193.017 621.341 192.361 616.091 192.361C605.112 192.361 596.639 194.509 590.673 198.805C584.706 202.982 581.723 208.889 581.723 216.526C581.723 219.629 582.081 222.672 582.797 225.655C583.513 228.638 584.467 231.443 585.661 234.068H560.422C559.467 231.92 558.572 229.056 557.737 225.476C556.782 221.777 556.305 218.435 556.305 215.452C556.305 205.547 558.811 197.492 563.823 191.287C568.835 184.962 575.756 180.308 584.587 177.325C593.298 174.222 603.322 172.671 614.659 172.671ZM714.472 325V224.402H741.143V305.847H830.285V325H714.472ZM772.11 206.502C767.814 206.502 764.294 205.13 761.549 202.385C758.804 199.521 757.432 195.941 757.432 191.645C757.432 187.349 758.804 183.829 761.549 181.084C764.294 178.22 767.814 176.788 772.11 176.788C776.287 176.788 779.747 178.22 782.492 181.084C785.237 183.829 786.609 187.349 786.609 191.645C786.609 195.941 785.237 199.521 782.492 202.385C779.747 205.13 776.287 206.502 772.11 206.502ZM847.498 325V224.402H874.169V305.847H963.311V325H847.498ZM980.525 325V224.402H1097.41V243.555H1059.82V266.646C1063.04 264.617 1066.56 263.066 1070.38 261.992C1074.2 260.799 1078.5 260.202 1083.27 260.202C1091.03 260.202 1097.23 261.574 1101.89 264.319C1106.54 267.064 1109.88 270.584 1111.91 274.88C1113.94 279.057 1114.95 283.353 1114.95 287.768C1114.95 291.706 1114.42 295.167 1113.34 298.15C1112.27 301.133 1111.02 303.699 1109.58 305.847H1157.56V325H1033.15V305.847H1083.45C1084.64 304.534 1085.78 302.685 1086.85 300.298C1087.92 297.911 1088.46 295.226 1088.46 292.243C1088.46 287.35 1087.27 284.009 1084.88 282.219C1082.5 280.31 1079.39 279.355 1075.57 279.355C1072.95 279.355 1070.26 279.892 1067.52 280.966C1064.89 281.921 1062.33 283.293 1059.82 285.083V296.36H1033.15V243.555H1007.2V325H980.525ZM1124.08 325L1118.35 305.847H1137.15V224.402H1163.82V325H1124.08ZM1072.35 206.502C1068.06 206.502 1064.54 205.13 1061.79 202.385C1059.05 199.521 1057.67 195.941 1057.67 191.645C1057.67 187.349 1059.05 183.829 1061.79 181.084C1064.54 178.22 1068.06 176.788 1072.35 176.788C1076.53 176.788 1079.99 178.22 1082.73 181.084C1085.48 183.829 1086.85 187.349 1086.85 191.645C1086.85 195.941 1085.48 199.521 1082.73 202.385C1079.99 205.13 1076.53 206.502 1072.35 206.502ZM1230.7 327.148C1221.75 327.148 1213.87 325.955 1207.07 323.568C1200.27 321.062 1194.96 317.482 1191.14 312.828C1187.32 308.055 1185.41 302.267 1185.41 295.465C1185.41 288.902 1187.32 283.233 1191.14 278.46C1195.08 273.567 1201.28 269.749 1209.76 267.004C1218.23 264.259 1229.33 262.887 1243.05 262.887H1281C1288.63 262.887 1294.96 263.185 1299.97 263.782C1304.98 264.379 1309.28 265.393 1312.86 266.825C1316.44 268.138 1319.78 269.928 1322.88 272.195C1326.46 274.701 1329.27 278.042 1331.3 282.219C1333.44 286.276 1334.52 290.93 1334.52 296.181C1334.52 305.847 1331.42 313.425 1325.21 318.914C1319.12 324.403 1310.35 327.148 1298.9 327.148C1296.03 327.148 1292.75 326.969 1289.05 326.611C1285.47 326.372 1282.13 325.835 1279.03 325L1283.32 306.563C1284.99 307.04 1286.67 307.398 1288.34 307.637C1290.01 307.756 1291.8 307.816 1293.71 307.816C1298.72 307.816 1302.54 306.802 1305.16 304.773C1307.79 302.625 1309.1 299.343 1309.1 294.928C1309.1 291.825 1308.26 289.379 1306.59 287.589C1305.04 285.68 1302.84 284.248 1299.97 283.293C1297.23 282.338 1294.06 281.742 1290.48 281.503C1286.9 281.145 1283.2 280.966 1279.39 280.966H1239.83C1235.65 280.966 1231.65 281.205 1227.83 281.682C1224.13 282.04 1220.97 282.875 1218.35 284.188C1216.08 285.381 1214.41 286.873 1213.34 288.663C1212.26 290.453 1211.72 292.541 1211.72 294.928C1211.72 299.463 1213.57 302.804 1217.27 304.952C1221.09 307.1 1226.16 308.174 1232.49 308.174C1237.14 308.174 1241.08 307.458 1244.3 306.026C1247.64 304.475 1250.21 301.849 1252 298.15C1253.79 294.331 1254.68 289.081 1254.68 282.398V243.555H1227.66V270.942L1203.67 273.806V224.402H1314.29V243.555H1280.64V282.04C1280.64 290.393 1279.8 297.016 1278.13 301.909C1276.58 306.682 1274.31 310.74 1271.33 314.081C1266.92 318.854 1261.25 322.255 1254.33 324.284C1247.52 326.193 1239.65 327.148 1230.7 327.148ZM1391.09 327.148C1382.86 327.148 1375.64 325.477 1369.43 322.136C1363.34 318.795 1358.57 313.783 1355.11 307.1C1351.65 300.298 1349.92 291.825 1349.92 281.682C1349.92 272.135 1351.53 263.663 1354.75 256.264C1358.09 248.865 1362.57 242.66 1368.18 237.648C1373.91 232.517 1380.47 228.698 1387.87 226.192C1395.27 223.567 1403.14 222.254 1411.5 222.254C1417.82 222.254 1423.49 222.851 1428.5 224.044C1433.51 225.237 1438.29 227.027 1442.82 229.414C1447.47 231.801 1452.25 234.784 1457.14 238.364L1446.4 259.486C1442.34 254.474 1437.39 250.297 1431.54 246.956C1425.82 243.495 1418.83 241.765 1410.6 241.765C1403.32 241.765 1396.88 243.495 1391.27 246.956C1385.78 250.417 1381.42 255.309 1378.2 261.634C1375.1 267.959 1373.55 275.417 1373.55 284.009C1373.55 289.976 1374.2 294.809 1375.52 298.508C1376.83 302.088 1378.68 304.713 1381.07 306.384C1383.57 308.055 1386.55 308.89 1390.02 308.89C1392.64 308.89 1394.91 308.353 1396.82 307.279C1398.73 306.205 1400.16 304.654 1401.11 302.625C1402.19 300.596 1402.72 298.09 1402.72 295.107C1402.72 290.572 1401.47 287.112 1398.97 284.725C1396.46 282.219 1393.12 280.966 1388.94 280.966C1383.93 280.966 1379.45 282.458 1375.52 285.441C1371.58 288.305 1368 291.467 1364.78 294.928L1360.84 277.744C1365.25 273.567 1370.27 270.047 1375.87 267.183C1381.48 264.319 1388.05 262.887 1395.56 262.887C1405.11 262.887 1412.87 265.572 1418.83 270.942C1424.8 276.312 1427.78 283.949 1427.78 293.854C1427.78 300.775 1426.41 306.742 1423.67 311.754C1420.92 316.647 1416.81 320.465 1411.32 323.21C1405.95 325.835 1399.2 327.148 1391.09 327.148ZM1443.54 325V243.913L1447.12 239.259L1447.3 224.402H1549.15V243.555H1523.55V325H1496.88V243.555H1470.21V325H1443.54ZM1447.12 206.502C1442.82 206.502 1439.3 205.13 1436.56 202.385C1433.81 199.521 1432.44 195.941 1432.44 191.645C1432.44 187.349 1433.81 183.829 1436.56 181.084C1439.3 178.22 1442.82 176.788 1447.12 176.788C1451.29 176.788 1454.75 178.22 1457.5 181.084C1460.24 183.829 1461.62 187.349 1461.62 191.645C1461.62 195.941 1460.24 199.521 1457.5 202.385C1454.75 205.13 1451.29 206.502 1447.12 206.502Z"/><path fill="url(#paint1_linear_232_13)" d="M534.626 327.148C525.676 327.148 517.8 325.955 510.998 323.568C504.196 321.062 498.886 317.482 495.067 312.828C491.248 308.055 489.339 302.267 489.339 295.465C489.339 288.902 491.248 283.233 495.067 278.46C499.005 273.567 505.21 269.749 513.683 267.004C522.275 264.259 533.433 262.887 547.156 262.887H577.049C588.982 262.887 599.543 264.319 608.732 267.183C617.921 270.047 625.14 274.761 630.391 281.324C635.761 287.768 638.446 296.539 638.446 307.637C638.446 315.752 636.716 322.613 633.255 328.222C629.914 333.95 625.081 338.902 618.756 343.079C614.818 345.704 610.045 347.912 604.436 349.702C598.947 351.611 592.443 352.984 584.925 353.819C577.526 354.774 568.934 355.251 559.149 355.251H545.187C537.908 355.251 532.717 355.549 529.614 356.146C526.631 356.862 524.184 357.876 522.275 359.189C520.366 360.621 518.874 362.411 517.8 364.559C516.726 366.826 516.189 369.869 516.189 373.688C516.189 375.001 516.249 376.254 516.368 377.447C516.487 378.64 516.607 379.893 516.726 381.206L490.592 382.459C490.234 379.953 489.936 377.447 489.697 374.941C489.578 372.554 489.518 369.929 489.518 367.065C489.518 361.695 490.592 356.981 492.74 352.924C494.888 348.986 497.752 345.764 501.332 343.258C503.719 341.587 506.404 340.215 509.387 339.141C512.37 338.067 516.07 337.291 520.485 336.814C524.9 336.337 530.39 336.098 536.953 336.098H553.063C563.445 336.098 571.977 335.68 578.66 334.845C585.343 334.129 590.713 332.936 594.77 331.265C598.947 329.594 602.348 327.387 604.973 324.642C607.36 322.255 609.15 319.511 610.343 316.408C611.536 313.186 612.133 309.546 612.133 305.489C612.133 300.238 610.999 296.002 608.732 292.78C606.584 289.558 603.66 287.112 599.961 285.441C596.381 283.651 592.383 282.458 587.968 281.861C583.672 281.264 579.376 280.966 575.08 280.966H543.755C539.578 280.966 535.581 281.205 531.762 281.682C528.063 282.04 524.9 282.875 522.275 284.188C520.008 285.381 518.337 286.873 517.263 288.663C516.189 290.453 515.652 292.541 515.652 294.928C515.652 299.343 517.502 302.625 521.201 304.773C525.02 306.921 530.091 307.995 536.416 307.995C541.07 307.995 545.008 307.279 548.23 305.847C551.571 304.415 554.137 301.849 555.927 298.15C557.717 294.331 558.612 289.081 558.612 282.398V243.555H531.583V270.942L507.597 273.806V224.402H618.398V243.555H584.567V282.04C584.567 290.393 583.732 297.016 582.061 301.909C580.51 306.682 578.242 310.74 575.259 314.081C570.963 318.854 565.354 322.255 558.433 324.284C551.512 326.193 543.576 327.148 534.626 327.148ZM614.659 172.671C624.802 172.671 633.692 173.745 641.33 175.893C648.967 177.922 655.53 180.905 661.02 184.843C666.628 188.781 671.282 193.733 674.982 199.7C678.681 205.547 681.426 212.827 683.216 221.538C685.125 230.13 686.08 240.631 686.08 253.042V325H659.409V256.98C659.409 247.314 658.872 238.841 657.798 231.562C656.724 224.163 654.874 217.839 652.249 212.588C649.743 207.337 646.163 203.041 641.509 199.7C638.287 197.313 634.587 195.523 630.411 194.33C626.115 193.017 621.341 192.361 616.091 192.361C605.112 192.361 596.639 194.509 590.673 198.805C584.706 202.982 581.723 208.889 581.723 216.526C581.723 219.629 582.081 222.672 582.797 225.655C583.513 228.638 584.467 231.443 585.661 234.068H560.422C559.467 231.92 558.572 229.056 557.737 225.476C556.782 221.777 556.305 218.435 556.305 215.452C556.305 205.547 558.811 197.492 563.823 191.287C568.835 184.962 575.756 180.308 584.587 177.325C593.298 174.222 603.322 172.671 614.659 172.671ZM714.472 325V224.402H741.143V305.847H830.285V325H714.472ZM772.11 206.502C767.814 206.502 764.294 205.13 761.549 202.385C758.804 199.521 757.432 195.941 757.432 191.645C757.432 187.349 758.804 183.829 761.549 181.084C764.294 178.22 767.814 176.788 772.11 176.788C776.287 176.788 779.747 178.22 782.492 181.084C785.237 183.829 786.609 187.349 786.609 191.645C786.609 195.941 785.237 199.521 782.492 202.385C779.747 205.13 776.287 206.502 772.11 206.502ZM847.498 325V224.402H874.169V305.847H963.311V325H847.498ZM980.525 325V224.402H1097.41V243.555H1059.82V266.646C1063.04 264.617 1066.56 263.066 1070.38 261.992C1074.2 260.799 1078.5 260.202 1083.27 260.202C1091.03 260.202 1097.23 261.574 1101.89 264.319C1106.54 267.064 1109.88 270.584 1111.91 274.88C1113.94 279.057 1114.95 283.353 1114.95 287.768C1114.95 291.706 1114.42 295.167 1113.34 298.15C1112.27 301.133 1111.02 303.699 1109.58 305.847H1157.56V325H1033.15V305.847H1083.45C1084.64 304.534 1085.78 302.685 1086.85 300.298C1087.92 297.911 1088.46 295.226 1088.46 292.243C1088.46 287.35 1087.27 284.009 1084.88 282.219C1082.5 280.31 1079.39 279.355 1075.57 279.355C1072.95 279.355 1070.26 279.892 1067.52 280.966C1064.89 281.921 1062.33 283.293 1059.82 285.083V296.36H1033.15V243.555H1007.2V325H980.525ZM1124.08 325L1118.35 305.847H1137.15V224.402H1163.82V325H1124.08ZM1072.35 206.502C1068.06 206.502 1064.54 205.13 1061.79 202.385C1059.05 199.521 1057.67 195.941 1057.67 191.645C1057.67 187.349 1059.05 183.829 1061.79 181.084C1064.54 178.22 1068.06 176.788 1072.35 176.788C1076.53 176.788 1079.99 178.22 1082.73 181.084C1085.48 183.829 1086.85 187.349 1086.85 191.645C1086.85 195.941 1085.48 199.521 1082.73 202.385C1079.99 205.13 1076.53 206.502 1072.35 206.502ZM1230.7 327.148C1221.75 327.148 1213.87 325.955 1207.07 323.568C1200.27 321.062 1194.96 317.482 1191.14 312.828C1187.32 308.055 1185.41 302.267 1185.41 295.465C1185.41 288.902 1187.32 283.233 1191.14 278.46C1195.08 273.567 1201.28 269.749 1209.76 267.004C1218.23 264.259 1229.33 262.887 1243.05 262.887H1281C1288.63 262.887 1294.96 263.185 1299.97 263.782C1304.98 264.379 1309.28 265.393 1312.86 266.825C1316.44 268.138 1319.78 269.928 1322.88 272.195C1326.46 274.701 1329.27 278.042 1331.3 282.219C1333.44 286.276 1334.52 290.93 1334.52 296.181C1334.52 305.847 1331.42 313.425 1325.21 318.914C1319.12 324.403 1310.35 327.148 1298.9 327.148C1296.03 327.148 1292.75 326.969 1289.05 326.611C1285.47 326.372 1282.13 325.835 1279.03 325L1283.32 306.563C1284.99 307.04 1286.67 307.398 1288.34 307.637C1290.01 307.756 1291.8 307.816 1293.71 307.816C1298.72 307.816 1302.54 306.802 1305.16 304.773C1307.79 302.625 1309.1 299.343 1309.1 294.928C1309.1 291.825 1308.26 289.379 1306.59 287.589C1305.04 285.68 1302.84 284.248 1299.97 283.293C1297.23 282.338 1294.06 281.742 1290.48 281.503C1286.9 281.145 1283.2 280.966 1279.39 280.966H1239.83C1235.65 280.966 1231.65 281.205 1227.83 281.682C1224.13 282.04 1220.97 282.875 1218.35 284.188C1216.08 285.381 1214.41 286.873 1213.34 288.663C1212.26 290.453 1211.72 292.541 1211.72 294.928C1211.72 299.463 1213.57 302.804 1217.27 304.952C1221.09 307.1 1226.16 308.174 1232.49 308.174C1237.14 308.174 1241.08 307.458 1244.3 306.026C1247.64 304.475 1250.21 301.849 1252 298.15C1253.79 294.331 1254.68 289.081 1254.68 282.398V243.555H1227.66V270.942L1203.67 273.806V224.402H1314.29V243.555H1280.64V282.04C1280.64 290.393 1279.8 297.016 1278.13 301.909C1276.58 306.682 1274.31 310.74 1271.33 314.081C1266.92 318.854 1261.25 322.255 1254.33 324.284C1247.52 326.193 1239.65 327.148 1230.7 327.148ZM1391.09 327.148C1382.86 327.148 1375.64 325.477 1369.43 322.136C1363.34 318.795 1358.57 313.783 1355.11 307.1C1351.65 300.298 1349.92 291.825 1349.92 281.682C1349.92 272.135 1351.53 263.663 1354.75 256.264C1358.09 248.865 1362.57 242.66 1368.18 237.648C1373.91 232.517 1380.47 228.698 1387.87 226.192C1395.27 223.567 1403.14 222.254 1411.5 222.254C1417.82 222.254 1423.49 222.851 1428.5 224.044C1433.51 225.237 1438.29 227.027 1442.82 229.414C1447.47 231.801 1452.25 234.784 1457.14 238.364L1446.4 259.486C1442.34 254.474 1437.39 250.297 1431.54 246.956C1425.82 243.495 1418.83 241.765 1410.6 241.765C1403.32 241.765 1396.88 243.495 1391.27 246.956C1385.78 250.417 1381.42 255.309 1378.2 261.634C1375.1 267.959 1373.55 275.417 1373.55 284.009C1373.55 289.976 1374.2 294.809 1375.52 298.508C1376.83 302.088 1378.68 304.713 1381.07 306.384C1383.57 308.055 1386.55 308.89 1390.02 308.89C1392.64 308.89 1394.91 308.353 1396.82 307.279C1398.73 306.205 1400.16 304.654 1401.11 302.625C1402.19 300.596 1402.72 298.09 1402.72 295.107C1402.72 290.572 1401.47 287.112 1398.97 284.725C1396.46 282.219 1393.12 280.966 1388.94 280.966C1383.93 280.966 1379.45 282.458 1375.52 285.441C1371.58 288.305 1368 291.467 1364.78 294.928L1360.84 277.744C1365.25 273.567 1370.27 270.047 1375.87 267.183C1381.48 264.319 1388.05 262.887 1395.56 262.887C1405.11 262.887 1412.87 265.572 1418.83 270.942C1424.8 276.312 1427.78 283.949 1427.78 293.854C1427.78 300.775 1426.41 306.742 1423.67 311.754C1420.92 316.647 1416.81 320.465 1411.32 323.21C1405.95 325.835 1399.2 327.148 1391.09 327.148ZM1443.54 325V243.913L1447.12 239.259L1447.3 224.402H1549.15V243.555H1523.55V325H1496.88V243.555H1470.21V325H1443.54ZM1447.12 206.502C1442.82 206.502 1439.3 205.13 1436.56 202.385C1433.81 199.521 1432.44 195.941 1432.44 191.645C1432.44 187.349 1433.81 183.829 1436.56 181.084C1439.3 178.22 1442.82 176.788 1447.12 176.788C1451.29 176.788 1454.75 178.22 1457.5 181.084C1460.24 183.829 1461.62 187.349 1461.62 191.645C1461.62 195.941 1460.24 199.521 1457.5 202.385C1454.75 205.13 1451.29 206.502 1447.12 206.502Z"/><defs><linearGradient id="paint0_linear_232_13" x1="0" x2="88.064" y1=".777" y2="9.505" gradientUnits="userSpaceOnUse"><stop stop-color="#00E1C3"/><stop offset="1" stop-color="#00D1D5"/></linearGradient><linearGradient id="paint1_linear_232_13" x1="482" x2="554.866" y1="159.371" y2="574.868" gradientUnits="userSpaceOnUse"><stop stop-color="#00E1C3"/><stop offset="1" stop-color="#00D1D5"/></linearGradient></defs></svg>