<svg xmlns="http://www.w3.org/2000/svg" width="1331" height="440" fill="none" viewBox="0 0 1331 440"><path fill="#132636" d="M1328 37C1328 16.5655 1311.43 0 1291 0H47.4363C23.3503 0 5.68531 22.6476 11.5497 46.0087L103.177 411.009C107.307 427.463 122.099 439 139.063 439H1291C1311.43 439 1328 422.435 1328 402V37Z"/><path fill="#132636" d="M1331 37C1331 16.5655 1314.43 0 1294 0H1292V440H1294C1314.43 440 1331 423.435 1331 403V37Z"/><path fill="url(#paint0_linear_227_23)" d="M1331 37C1331 16.5655 1314.43 0 1294 0H1292V440H1294C1314.43 440 1331 423.435 1331 403V37Z"/><path fill="#fff" d="M596.011 134.114L605.627 98.7891H618.101L602.517 145H594.456L596.011 134.114ZM587.283 98.7891L596.899 134.114L598.518 145H590.361L574.873 98.7891H587.283ZM640.159 136.653V110.659H650.886V145H640.857L640.159 136.653ZM641.174 129.67L643.967 129.607C643.967 131.913 643.692 134.05 643.142 136.018C642.592 137.965 641.777 139.657 640.698 141.096C639.64 142.535 638.328 143.656 636.763 144.46C635.218 145.243 633.43 145.635 631.399 145.635C629.706 145.635 628.151 145.402 626.733 144.937C625.337 144.45 624.131 143.699 623.115 142.683C622.1 141.646 621.306 140.324 620.735 138.716C620.185 137.087 619.91 135.14 619.91 132.876V110.659H630.605V132.939C630.605 133.701 630.701 134.357 630.891 134.907C631.082 135.457 631.357 135.923 631.716 136.304C632.076 136.663 632.52 136.938 633.049 137.129C633.599 137.298 634.224 137.383 634.922 137.383C636.53 137.383 637.789 137.044 638.699 136.367C639.609 135.69 640.243 134.77 640.603 133.606C640.984 132.442 641.174 131.13 641.174 129.67ZM673.42 145.635C670.627 145.635 668.131 145.201 665.93 144.333C663.73 143.445 661.868 142.228 660.344 140.684C658.842 139.139 657.689 137.362 656.885 135.352C656.102 133.341 655.71 131.215 655.71 128.972V127.766C655.71 125.248 656.06 122.921 656.758 120.784C657.456 118.625 658.493 116.742 659.868 115.134C661.243 113.526 662.968 112.278 665.042 111.389C667.115 110.479 669.527 110.024 672.278 110.024C674.711 110.024 676.89 110.416 678.816 111.199C680.741 111.982 682.371 113.103 683.704 114.563C685.058 116.023 686.084 117.79 686.782 119.863C687.502 121.937 687.861 124.264 687.861 126.846V131.194H659.805V124.497H677.419V123.672C677.441 122.529 677.24 121.556 676.816 120.752C676.414 119.948 675.822 119.334 675.039 118.911C674.256 118.488 673.304 118.276 672.183 118.276C671.019 118.276 670.056 118.53 669.294 119.038C668.554 119.546 667.972 120.244 667.549 121.133C667.147 122 666.861 123.005 666.692 124.148C666.523 125.291 666.438 126.497 666.438 127.766V128.972C666.438 130.242 666.607 131.395 666.946 132.432C667.306 133.468 667.813 134.357 668.469 135.098C669.146 135.817 669.95 136.378 670.881 136.78C671.833 137.182 672.913 137.383 674.119 137.383C675.579 137.383 677.017 137.108 678.435 136.558C679.853 136.007 681.069 135.098 682.085 133.828L686.941 139.604C686.243 140.599 685.248 141.562 683.958 142.493C682.688 143.424 681.165 144.185 679.387 144.778C677.61 145.349 675.621 145.635 673.42 145.635ZM715.093 98.7891V145H703.953V98.7891H715.093ZM728.994 98.7891V107.39H690.369V98.7891H728.994ZM751.179 136.653V110.659H761.907V145H751.877L751.179 136.653ZM752.195 129.67L754.988 129.607C754.988 131.913 754.713 134.05 754.163 136.018C753.612 137.965 752.798 139.657 751.719 141.096C750.661 142.535 749.349 143.656 747.783 144.46C746.239 145.243 744.451 145.635 742.419 145.635C740.727 145.635 739.172 145.402 737.754 144.937C736.357 144.45 735.151 143.699 734.136 142.683C733.12 141.646 732.327 140.324 731.755 138.716C731.205 137.087 730.93 135.14 730.93 132.876V110.659H741.626V132.939C741.626 133.701 741.721 134.357 741.912 134.907C742.102 135.457 742.377 135.923 742.737 136.304C743.097 136.663 743.541 136.938 744.07 137.129C744.62 137.298 745.244 137.383 745.942 137.383C747.55 137.383 748.809 137.044 749.719 136.367C750.629 135.69 751.264 134.77 751.624 133.606C752.004 132.442 752.195 131.13 752.195 129.67ZM767.905 96.25H778.601V136.558L777.49 145H767.905V96.25ZM799.675 127.449V128.115C799.675 130.718 799.411 133.088 798.882 135.225C798.353 137.362 797.538 139.213 796.438 140.779C795.338 142.323 793.952 143.519 792.28 144.365C790.609 145.212 788.63 145.635 786.345 145.635C784.272 145.635 782.494 145.19 781.013 144.302C779.532 143.392 778.294 142.144 777.3 140.557C776.305 138.949 775.501 137.097 774.888 135.002C774.274 132.887 773.787 130.623 773.428 128.21V127.417C773.787 125.026 774.274 122.783 774.888 120.688C775.501 118.573 776.305 116.721 777.3 115.134C778.294 113.526 779.521 112.278 780.981 111.389C782.463 110.479 784.229 110.024 786.282 110.024C788.588 110.024 790.577 110.458 792.249 111.326C793.941 112.193 795.338 113.41 796.438 114.976C797.538 116.541 798.353 118.382 798.882 120.498C799.411 122.614 799.675 124.931 799.675 127.449ZM788.979 128.115V127.449C788.979 126.2 788.905 125.026 788.757 123.926C788.609 122.826 788.345 121.852 787.964 121.006C787.583 120.16 787.043 119.493 786.345 119.006C785.647 118.52 784.737 118.276 783.616 118.276C782.473 118.276 781.51 118.467 780.728 118.848C779.966 119.229 779.352 119.779 778.887 120.498C778.442 121.196 778.125 122.064 777.935 123.101C777.744 124.116 777.66 125.269 777.681 126.56V129.067C777.638 130.824 777.797 132.326 778.157 133.574C778.516 134.823 779.141 135.775 780.029 136.431C780.918 137.087 782.135 137.415 783.679 137.415C784.822 137.415 785.742 137.192 786.44 136.748C787.16 136.304 787.699 135.669 788.059 134.844C788.419 134.019 788.662 133.035 788.789 131.892C788.916 130.75 788.979 129.491 788.979 128.115ZM821.067 145.635C818.274 145.635 815.777 145.201 813.577 144.333C811.376 143.445 809.514 142.228 807.991 140.684C806.488 139.139 805.335 137.362 804.531 135.352C803.748 133.341 803.357 131.215 803.357 128.972V127.766C803.357 125.248 803.706 122.921 804.404 120.784C805.103 118.625 806.139 116.742 807.515 115.134C808.89 113.526 810.614 112.278 812.688 111.389C814.762 110.479 817.174 110.024 819.924 110.024C822.358 110.024 824.537 110.416 826.462 111.199C828.388 111.982 830.017 113.103 831.35 114.563C832.704 116.023 833.73 117.79 834.429 119.863C835.148 121.937 835.508 124.264 835.508 126.846V131.194H807.451V124.497H825.066V123.672C825.087 122.529 824.886 121.556 824.463 120.752C824.061 119.948 823.468 119.334 822.686 118.911C821.903 118.488 820.951 118.276 819.829 118.276C818.665 118.276 817.703 118.53 816.941 119.038C816.2 119.546 815.618 120.244 815.195 121.133C814.793 122 814.508 123.005 814.338 124.148C814.169 125.291 814.084 126.497 814.084 127.766V128.972C814.084 130.242 814.254 131.395 814.592 132.432C814.952 133.468 815.46 134.357 816.116 135.098C816.793 135.817 817.597 136.378 818.528 136.78C819.48 137.182 820.559 137.383 821.765 137.383C823.225 137.383 824.664 137.108 826.082 136.558C827.499 136.007 828.716 135.098 829.731 133.828L834.587 139.604C833.889 140.599 832.895 141.562 831.604 142.493C830.334 143.424 828.811 144.185 827.034 144.778C825.256 145.349 823.267 145.635 821.067 145.635Z"/><path fill="#fff" d="M341.584 249.158V312H242.208V203.534H292.727C309.974 203.534 322.414 207.088 330.047 214.197C337.739 221.247 341.584 232.901 341.584 249.158ZM265.807 290.849H317.898V251.867C317.898 241.962 316.034 234.969 312.305 230.891C308.576 226.754 302.049 224.685 292.727 224.685H265.807V290.849ZM391.142 203.534V261.132H367.543V203.534H391.142ZM498.821 249.158V312H475.135V248.983C475.135 239.951 473.183 233.658 469.279 230.104C465.434 226.491 458.937 224.685 449.789 224.685H413.429V203.534H451.187C462.666 203.534 471.872 205.078 478.806 208.166C485.798 211.196 490.868 216.061 494.014 222.762C497.219 229.405 498.821 238.203 498.821 249.158ZM547.854 177.75V192.084C547.854 195.988 547.067 199.979 545.494 204.058C543.979 208.137 541.998 211.983 539.551 215.595C537.162 219.15 534.598 222.15 531.859 224.598L518.924 217.605C520.788 214.284 522.478 210.613 523.993 206.593C525.566 202.514 526.353 197.649 526.353 191.997V177.75H547.854ZM656.233 296.792V312H564.548V290.849H623.282L557.556 203.534H585.874L619 248.458C622.845 246.594 625.613 243.797 627.303 240.068C629.051 236.339 630.274 230.891 630.974 223.724L632.896 203.534H657.107L655.271 223.898C654.514 231.939 653.232 238.232 651.426 242.777C649.619 247.206 647.027 250.964 643.647 254.052C640.267 257.14 635.635 259.879 629.75 262.268L656.233 296.792ZM704.566 203.534V261.132H680.968V203.534H704.566ZM802.807 252.392C802.807 243.069 800.68 236.135 796.426 231.59C792.173 226.987 785.472 224.685 776.324 224.685H756.134V248.109H777.373V269.26H732.273V203.534H776.499C793.629 203.534 806.274 207.525 814.431 215.508C822.589 223.491 826.667 235.902 826.667 252.741V259.908C826.667 294.636 808.808 312 773.09 312H733.234V290.849H772.565C782.646 290.849 790.192 288.256 795.203 283.07C800.272 277.884 802.807 270.105 802.807 259.733V252.392Z"/><path fill="url(#paint1_linear_227_23)" d="M341.584 249.158V312H242.208V203.534H292.727C309.974 203.534 322.414 207.088 330.047 214.197C337.739 221.247 341.584 232.901 341.584 249.158ZM265.807 290.849H317.898V251.867C317.898 241.962 316.034 234.969 312.305 230.891C308.576 226.754 302.049 224.685 292.727 224.685H265.807V290.849ZM391.142 203.534V261.132H367.543V203.534H391.142ZM498.821 249.158V312H475.135V248.983C475.135 239.951 473.183 233.658 469.279 230.104C465.434 226.491 458.937 224.685 449.789 224.685H413.429V203.534H451.187C462.666 203.534 471.872 205.078 478.806 208.166C485.798 211.196 490.868 216.061 494.014 222.762C497.219 229.405 498.821 238.203 498.821 249.158ZM547.854 177.75V192.084C547.854 195.988 547.067 199.979 545.494 204.058C543.979 208.137 541.998 211.983 539.551 215.595C537.162 219.15 534.598 222.15 531.859 224.598L518.924 217.605C520.788 214.284 522.478 210.613 523.993 206.593C525.566 202.514 526.353 197.649 526.353 191.997V177.75H547.854ZM656.233 296.792V312H564.548V290.849H623.282L557.556 203.534H585.874L619 248.458C622.845 246.594 625.613 243.797 627.303 240.068C629.051 236.339 630.274 230.891 630.974 223.724L632.896 203.534H657.107L655.271 223.898C654.514 231.939 653.232 238.232 651.426 242.777C649.619 247.206 647.027 250.964 643.647 254.052C640.267 257.14 635.635 259.879 629.75 262.268L656.233 296.792ZM704.566 203.534V261.132H680.968V203.534H704.566ZM802.807 252.392C802.807 243.069 800.68 236.135 796.426 231.59C792.173 226.987 785.472 224.685 776.324 224.685H756.134V248.109H777.373V269.26H732.273V203.534H776.499C793.629 203.534 806.274 207.525 814.431 215.508C822.589 223.491 826.667 235.902 826.667 252.741V259.908C826.667 294.636 808.808 312 773.09 312H733.234V290.849H772.565C782.646 290.849 790.192 288.256 795.203 283.07C800.272 277.884 802.807 270.105 802.807 259.733V252.392Z"/><path fill="url(#paint2_linear_227_23)" d="M1101.24 233.663C1111.42 227.819 1111.41 213.178 1101.24 207.336L1066.73 187.542L1104.7 169.89L1157.07 199.927C1172.98 209.055 1172.98 231.945 1157.07 241.073L1102.2 272.542L1064.23 254.89L1101.24 233.663Z"/><path fill="url(#paint3_linear_227_23)" d="M985.282 253.804V273.916C985.287 285.595 997.961 292.901 1008.12 287.076L1029.93 274.562L1067.9 292.214L986.679 338.803C970.808 347.906 951 336.485 951 318.23L951 237.866L985.282 253.804Z"/><path fill="url(#paint4_linear_227_23)" d="M1070.4 150.218L1032.43 167.87L1008.1 153.916C997.948 148.104 985.282 155.413 985.282 167.09V189.789L951 205.726L951 122.77C951 104.515 970.808 93.0937 986.679 102.197L1070.4 150.218Z"/><defs><linearGradient id="paint0_linear_227_23" x1="1331" x2="1242.94" y1=".777" y2="9.505" gradientUnits="userSpaceOnUse"><stop stop-color="#00E1C3"/><stop offset="1" stop-color="#00D1D5"/></linearGradient><linearGradient id="paint1_linear_227_23" x1="227" x2="347.449" y1="146.371" y2="537.56" gradientUnits="userSpaceOnUse"><stop stop-color="#00E1C3"/><stop offset="1" stop-color="#00D1D5"/></linearGradient><linearGradient id="paint2_linear_227_23" x1="951" x2="1198.79" y1="99.429" y2="347.973" gradientUnits="userSpaceOnUse"><stop stop-color="#00E1C3"/><stop offset="1" stop-color="#00D1D5"/></linearGradient><linearGradient id="paint3_linear_227_23" x1="951" x2="1198.79" y1="99.429" y2="347.973" gradientUnits="userSpaceOnUse"><stop stop-color="#00E1C3"/><stop offset="1" stop-color="#00D1D5"/></linearGradient><linearGradient id="paint4_linear_227_23" x1="951" x2="1198.79" y1="99.429" y2="347.973" gradientUnits="userSpaceOnUse"><stop stop-color="#00E1C3"/><stop offset="1" stop-color="#00D1D5"/></linearGradient></defs></svg>