<svg xmlns="http://www.w3.org/2000/svg" width="1334" height="440" fill="none" viewBox="0 0 1334 440"><path fill="#132636" d="M1331 37C1331 16.5655 1314.43 0 1294 0H47.4624C23.3683 0 5.7018 22.6619 11.5807 46.0279L103.415 411.028C107.552 427.473 122.339 439 139.297 439H1294C1314.43 439 1331 422.435 1331 402V37Z"/><path fill="#132636" d="M1334 37C1334 16.5655 1317.43 0 1297 0H1295V440H1297C1317.43 440 1334 423.435 1334 403V37Z"/><path fill="url(#paint0_linear_227_3)" d="M1334 37C1334 16.5655 1317.43 0 1297 0H1295V440H1297C1317.43 440 1334 423.435 1334 403V37Z"/><path fill="#fff" d="M604.011 134.114L613.627 98.7891H626.101L610.517 145H602.456L604.011 134.114ZM595.283 98.7891L604.899 134.114L606.518 145H598.361L582.873 98.7891H595.283ZM648.159 136.653V110.659H658.886V145H648.857L648.159 136.653ZM649.174 129.67L651.967 129.607C651.967 131.913 651.692 134.05 651.142 136.018C650.592 137.965 649.777 139.657 648.698 141.096C647.64 142.535 646.328 143.656 644.763 144.46C643.218 145.243 641.43 145.635 639.399 145.635C637.706 145.635 636.151 145.402 634.733 144.937C633.337 144.45 632.131 143.699 631.115 142.683C630.1 141.646 629.306 140.324 628.735 138.716C628.185 137.087 627.91 135.14 627.91 132.876V110.659H638.605V132.939C638.605 133.701 638.701 134.357 638.891 134.907C639.082 135.457 639.357 135.923 639.716 136.304C640.076 136.663 640.52 136.938 641.049 137.129C641.599 137.298 642.224 137.383 642.922 137.383C644.53 137.383 645.789 137.044 646.699 136.367C647.609 135.69 648.243 134.77 648.603 133.606C648.984 132.442 649.174 131.13 649.174 129.67ZM681.42 145.635C678.627 145.635 676.131 145.201 673.93 144.333C671.73 143.445 669.868 142.228 668.344 140.684C666.842 139.139 665.689 137.362 664.885 135.352C664.102 133.341 663.71 131.215 663.71 128.972V127.766C663.71 125.248 664.06 122.921 664.758 120.784C665.456 118.625 666.493 116.742 667.868 115.134C669.243 113.526 670.968 112.278 673.042 111.389C675.115 110.479 677.527 110.024 680.278 110.024C682.711 110.024 684.89 110.416 686.816 111.199C688.741 111.982 690.371 113.103 691.704 114.563C693.058 116.023 694.084 117.79 694.782 119.863C695.502 121.937 695.861 124.264 695.861 126.846V131.194H667.805V124.497H685.419V123.672C685.441 122.529 685.24 121.556 684.816 120.752C684.414 119.948 683.822 119.334 683.039 118.911C682.256 118.488 681.304 118.276 680.183 118.276C679.019 118.276 678.056 118.53 677.294 119.038C676.554 119.546 675.972 120.244 675.549 121.133C675.147 122 674.861 123.005 674.692 124.148C674.523 125.291 674.438 126.497 674.438 127.766V128.972C674.438 130.242 674.607 131.395 674.946 132.432C675.306 133.468 675.813 134.357 676.469 135.098C677.146 135.817 677.95 136.378 678.881 136.78C679.833 137.182 680.913 137.383 682.119 137.383C683.579 137.383 685.017 137.108 686.435 136.558C687.853 136.007 689.069 135.098 690.085 133.828L694.941 139.604C694.243 140.599 693.248 141.562 691.958 142.493C690.688 143.424 689.165 144.185 687.387 144.778C685.61 145.349 683.621 145.635 681.42 145.635ZM723.093 98.7891V145H711.953V98.7891H723.093ZM736.994 98.7891V107.39H698.369V98.7891H736.994ZM759.179 136.653V110.659H769.907V145H759.877L759.179 136.653ZM760.195 129.67L762.988 129.607C762.988 131.913 762.713 134.05 762.163 136.018C761.612 137.965 760.798 139.657 759.719 141.096C758.661 142.535 757.349 143.656 755.783 144.46C754.239 145.243 752.451 145.635 750.419 145.635C748.727 145.635 747.172 145.402 745.754 144.937C744.357 144.45 743.151 143.699 742.136 142.683C741.12 141.646 740.327 140.324 739.755 138.716C739.205 137.087 738.93 135.14 738.93 132.876V110.659H749.626V132.939C749.626 133.701 749.721 134.357 749.912 134.907C750.102 135.457 750.377 135.923 750.737 136.304C751.097 136.663 751.541 136.938 752.07 137.129C752.62 137.298 753.244 137.383 753.942 137.383C755.55 137.383 756.809 137.044 757.719 136.367C758.629 135.69 759.264 134.77 759.624 133.606C760.004 132.442 760.195 131.13 760.195 129.67ZM775.905 96.25H786.601V136.558L785.49 145H775.905V96.25ZM807.675 127.449V128.115C807.675 130.718 807.411 133.088 806.882 135.225C806.353 137.362 805.538 139.213 804.438 140.779C803.338 142.323 801.952 143.519 800.28 144.365C798.609 145.212 796.63 145.635 794.345 145.635C792.272 145.635 790.494 145.19 789.013 144.302C787.532 143.392 786.294 142.144 785.3 140.557C784.305 138.949 783.501 137.097 782.888 135.002C782.274 132.887 781.787 130.623 781.428 128.21V127.417C781.787 125.026 782.274 122.783 782.888 120.688C783.501 118.573 784.305 116.721 785.3 115.134C786.294 113.526 787.521 112.278 788.981 111.389C790.463 110.479 792.229 110.024 794.282 110.024C796.588 110.024 798.577 110.458 800.249 111.326C801.941 112.193 803.338 113.41 804.438 114.976C805.538 116.541 806.353 118.382 806.882 120.498C807.411 122.614 807.675 124.931 807.675 127.449ZM796.979 128.115V127.449C796.979 126.2 796.905 125.026 796.757 123.926C796.609 122.826 796.345 121.852 795.964 121.006C795.583 120.16 795.043 119.493 794.345 119.006C793.647 118.52 792.737 118.276 791.616 118.276C790.473 118.276 789.51 118.467 788.728 118.848C787.966 119.229 787.352 119.779 786.887 120.498C786.442 121.196 786.125 122.064 785.935 123.101C785.744 124.116 785.66 125.269 785.681 126.56V129.067C785.638 130.824 785.797 132.326 786.157 133.574C786.516 134.823 787.141 135.775 788.029 136.431C788.918 137.087 790.135 137.415 791.679 137.415C792.822 137.415 793.742 137.192 794.44 136.748C795.16 136.304 795.699 135.669 796.059 134.844C796.419 134.019 796.662 133.035 796.789 131.892C796.916 130.75 796.979 129.491 796.979 128.115ZM829.067 145.635C826.274 145.635 823.777 145.201 821.577 144.333C819.376 143.445 817.514 142.228 815.991 140.684C814.488 139.139 813.335 137.362 812.531 135.352C811.748 133.341 811.357 131.215 811.357 128.972V127.766C811.357 125.248 811.706 122.921 812.404 120.784C813.103 118.625 814.139 116.742 815.515 115.134C816.89 113.526 818.614 112.278 820.688 111.389C822.762 110.479 825.174 110.024 827.924 110.024C830.358 110.024 832.537 110.416 834.462 111.199C836.388 111.982 838.017 113.103 839.35 114.563C840.704 116.023 841.73 117.79 842.429 119.863C843.148 121.937 843.508 124.264 843.508 126.846V131.194H815.451V124.497H833.066V123.672C833.087 122.529 832.886 121.556 832.463 120.752C832.061 119.948 831.468 119.334 830.686 118.911C829.903 118.488 828.951 118.276 827.829 118.276C826.665 118.276 825.703 118.53 824.941 119.038C824.2 119.546 823.618 120.244 823.195 121.133C822.793 122 822.508 123.005 822.338 124.148C822.169 125.291 822.084 126.497 822.084 127.766V128.972C822.084 130.242 822.254 131.395 822.592 132.432C822.952 133.468 823.46 134.357 824.116 135.098C824.793 135.817 825.597 136.378 826.528 136.78C827.48 137.182 828.559 137.383 829.765 137.383C831.225 137.383 832.664 137.108 834.082 136.558C835.499 136.007 836.716 135.098 837.731 133.828L842.587 139.604C841.889 140.599 840.895 141.562 839.604 142.493C838.334 143.424 836.811 144.185 835.034 144.778C833.256 145.349 831.267 145.635 829.067 145.635Z"/><path fill="#fff" d="M447.718 249.158V312H424.032V248.983C424.032 240.068 422.139 233.804 418.351 230.191C414.564 226.521 407.979 224.685 398.598 224.685H354.285V203.534H400.084C411.563 203.534 420.769 205.078 427.703 208.166C434.695 211.254 439.765 216.149 442.911 222.85C446.116 229.492 447.718 238.262 447.718 249.158ZM379.632 246.099V312H356.033V246.099H379.632ZM542.462 224.685V312H518.864V224.685H460.129V203.534H555.922V224.685H542.462ZM654.949 249.158V312H631.263V248.983C631.263 239.951 629.311 233.658 625.407 230.104C621.562 226.491 615.065 224.685 605.917 224.685H569.557V203.534H607.315C618.794 203.534 628 205.078 634.934 208.166C641.926 211.196 646.996 216.061 650.142 222.762C653.347 229.405 654.949 238.203 654.949 249.158ZM708.09 203.534V312H684.491V203.534H708.09ZM830.016 249.158V312H806.33V248.983C806.33 240.068 804.436 233.804 800.649 230.191C796.861 226.521 790.277 224.685 780.896 224.685H736.583V203.534H782.382C793.861 203.534 803.067 205.078 810.001 208.166C816.993 211.254 822.062 216.149 825.209 222.85C828.414 229.492 830.016 238.262 830.016 249.158ZM761.93 246.099V312H738.331V246.099H761.93Z"/><path fill="url(#paint1_linear_227_3)" d="M447.718 249.158V312H424.032V248.983C424.032 240.068 422.139 233.804 418.351 230.191C414.564 226.521 407.979 224.685 398.598 224.685H354.285V203.534H400.084C411.563 203.534 420.769 205.078 427.703 208.166C434.695 211.254 439.765 216.149 442.911 222.85C446.116 229.492 447.718 238.262 447.718 249.158ZM379.632 246.099V312H356.033V246.099H379.632ZM542.462 224.685V312H518.864V224.685H460.129V203.534H555.922V224.685H542.462ZM654.949 249.158V312H631.263V248.983C631.263 239.951 629.311 233.658 625.407 230.104C621.562 226.491 615.065 224.685 605.917 224.685H569.557V203.534H607.315C618.794 203.534 628 205.078 634.934 208.166C641.926 211.196 646.996 216.061 650.142 222.762C653.347 229.405 654.949 238.203 654.949 249.158ZM708.09 203.534V312H684.491V203.534H708.09ZM830.016 249.158V312H806.33V248.983C806.33 240.068 804.436 233.804 800.649 230.191C796.861 226.521 790.277 224.685 780.896 224.685H736.583V203.534H782.382C793.861 203.534 803.067 205.078 810.001 208.166C816.993 211.254 822.062 216.149 825.209 222.85C828.414 229.492 830.016 238.262 830.016 249.158ZM761.93 246.099V312H738.331V246.099H761.93Z"/><path fill="#01D8CE" d="M976.156 312C971.581 312 967.578 310.284 964.147 306.853C960.716 303.422 959 299.419 959 294.844V253.955H976.156V294.844H1124.84V253.955H1142V294.844C1142 299.419 1140.28 303.422 1136.85 306.853C1133.42 310.284 1129.42 312 1124.84 312H976.156ZM1050.5 268.252L995.314 213.066L1007.61 200.77L1041.92 235.083V129H1059.08V235.083L1093.39 200.77L1105.69 213.066L1050.5 268.252Z"/><defs><linearGradient id="paint0_linear_227_3" x1="1334" x2="1245.94" y1=".777" y2="9.505" gradientUnits="userSpaceOnUse"><stop stop-color="#00E1C3"/><stop offset="1" stop-color="#00D1D5"/></linearGradient><linearGradient id="paint1_linear_227_3" x1="341" x2="481.14" y1="146.371" y2="522.422" gradientUnits="userSpaceOnUse"><stop stop-color="#00E1C3"/><stop offset="1" stop-color="#00D1D5"/></linearGradient></defs></svg>