<svg xmlns="http://www.w3.org/2000/svg" width="1334" height="440" fill="none" viewBox="0 0 1334 440"><path fill="#132636" d="M1330.72 37C1330.72 16.5655 1314.16 0 1293.72 0H47.4594C23.366 0 5.69972 22.6606 11.5773 46.0261L103.392 411.026C107.529 427.472 122.317 439 139.275 439H1293.72C1314.16 439 1330.72 422.435 1330.72 402V37Z"/><path fill="#132636" d="M1334 37C1334 16.5655 1317.43 0 1297 0H1291.43V440H1297C1317.43 440 1334 423.435 1334 403V37Z"/><path fill="url(#paint0_linear_227_13)" d="M1334 37C1334 16.5655 1317.43 0 1297 0H1291.43V440H1297C1317.43 440 1334 423.435 1334 403V37Z"/><path fill="#fff" d="M608.011 148.114L617.627 112.789H630.101L614.517 159H606.456L608.011 148.114ZM599.283 112.789L608.899 148.114L610.518 159H602.361L586.873 112.789H599.283ZM652.159 150.653V124.659H662.886V159H652.857L652.159 150.653ZM653.174 143.67L655.967 143.607C655.967 145.913 655.692 148.05 655.142 150.018C654.592 151.965 653.777 153.657 652.698 155.096C651.64 156.535 650.328 157.656 648.763 158.46C647.218 159.243 645.43 159.635 643.399 159.635C641.706 159.635 640.151 159.402 638.733 158.937C637.337 158.45 636.131 157.699 635.115 156.683C634.1 155.646 633.306 154.324 632.735 152.716C632.185 151.087 631.91 149.14 631.91 146.876V124.659H642.605V146.939C642.605 147.701 642.701 148.357 642.891 148.907C643.082 149.457 643.357 149.923 643.716 150.304C644.076 150.663 644.52 150.938 645.049 151.129C645.599 151.298 646.224 151.383 646.922 151.383C648.53 151.383 649.789 151.044 650.699 150.367C651.609 149.69 652.243 148.77 652.603 147.606C652.984 146.442 653.174 145.13 653.174 143.67ZM685.42 159.635C682.627 159.635 680.131 159.201 677.93 158.333C675.73 157.445 673.868 156.228 672.344 154.684C670.842 153.139 669.689 151.362 668.885 149.352C668.102 147.341 667.71 145.215 667.71 142.972V141.766C667.71 139.248 668.06 136.921 668.758 134.784C669.456 132.625 670.493 130.742 671.868 129.134C673.243 127.526 674.968 126.278 677.042 125.389C679.115 124.479 681.527 124.024 684.278 124.024C686.711 124.024 688.89 124.416 690.816 125.199C692.741 125.982 694.371 127.103 695.704 128.563C697.058 130.023 698.084 131.79 698.782 133.863C699.502 135.937 699.861 138.264 699.861 140.846V145.194H671.805V138.497H689.419V137.672C689.441 136.529 689.24 135.556 688.816 134.752C688.414 133.948 687.822 133.334 687.039 132.911C686.256 132.488 685.304 132.276 684.183 132.276C683.019 132.276 682.056 132.53 681.294 133.038C680.554 133.546 679.972 134.244 679.549 135.133C679.147 136 678.861 137.005 678.692 138.148C678.523 139.291 678.438 140.497 678.438 141.766V142.972C678.438 144.242 678.607 145.395 678.946 146.432C679.306 147.468 679.813 148.357 680.469 149.098C681.146 149.817 681.95 150.378 682.881 150.78C683.833 151.182 684.913 151.383 686.119 151.383C687.579 151.383 689.017 151.108 690.435 150.558C691.853 150.007 693.069 149.098 694.085 147.828L698.941 153.604C698.243 154.599 697.248 155.562 695.958 156.493C694.688 157.424 693.165 158.185 691.387 158.778C689.61 159.349 687.621 159.635 685.42 159.635ZM727.093 112.789V159H715.953V112.789H727.093ZM740.994 112.789V121.39H702.369V112.789H740.994ZM763.179 150.653V124.659H773.907V159H763.877L763.179 150.653ZM764.195 143.67L766.988 143.607C766.988 145.913 766.713 148.05 766.163 150.018C765.612 151.965 764.798 153.657 763.719 155.096C762.661 156.535 761.349 157.656 759.783 158.46C758.239 159.243 756.451 159.635 754.419 159.635C752.727 159.635 751.172 159.402 749.754 158.937C748.357 158.45 747.151 157.699 746.136 156.683C745.12 155.646 744.327 154.324 743.755 152.716C743.205 151.087 742.93 149.14 742.93 146.876V124.659H753.626V146.939C753.626 147.701 753.721 148.357 753.912 148.907C754.102 149.457 754.377 149.923 754.737 150.304C755.097 150.663 755.541 150.938 756.07 151.129C756.62 151.298 757.244 151.383 757.942 151.383C759.55 151.383 760.809 151.044 761.719 150.367C762.629 149.69 763.264 148.77 763.624 147.606C764.004 146.442 764.195 145.13 764.195 143.67ZM779.905 110.25H790.601V150.558L789.49 159H779.905V110.25ZM811.675 141.449V142.115C811.675 144.718 811.411 147.088 810.882 149.225C810.353 151.362 809.538 153.213 808.438 154.779C807.338 156.323 805.952 157.519 804.28 158.365C802.609 159.212 800.63 159.635 798.345 159.635C796.272 159.635 794.494 159.19 793.013 158.302C791.532 157.392 790.294 156.144 789.3 154.557C788.305 152.949 787.501 151.097 786.888 149.002C786.274 146.887 785.787 144.623 785.428 142.21V141.417C785.787 139.026 786.274 136.783 786.888 134.688C787.501 132.573 788.305 130.721 789.3 129.134C790.294 127.526 791.521 126.278 792.981 125.389C794.463 124.479 796.229 124.024 798.282 124.024C800.588 124.024 802.577 124.458 804.249 125.326C805.941 126.193 807.338 127.41 808.438 128.976C809.538 130.541 810.353 132.382 810.882 134.498C811.411 136.614 811.675 138.931 811.675 141.449ZM800.979 142.115V141.449C800.979 140.2 800.905 139.026 800.757 137.926C800.609 136.826 800.345 135.852 799.964 135.006C799.583 134.16 799.043 133.493 798.345 133.006C797.647 132.52 796.737 132.276 795.616 132.276C794.473 132.276 793.51 132.467 792.728 132.848C791.966 133.229 791.352 133.779 790.887 134.498C790.442 135.196 790.125 136.064 789.935 137.101C789.744 138.116 789.66 139.269 789.681 140.56V143.067C789.638 144.824 789.797 146.326 790.157 147.574C790.516 148.823 791.141 149.775 792.029 150.431C792.918 151.087 794.135 151.415 795.679 151.415C796.822 151.415 797.742 151.192 798.44 150.748C799.16 150.304 799.699 149.669 800.059 148.844C800.419 148.019 800.662 147.035 800.789 145.892C800.916 144.75 800.979 143.491 800.979 142.115ZM833.067 159.635C830.274 159.635 827.777 159.201 825.577 158.333C823.376 157.445 821.514 156.228 819.991 154.684C818.488 153.139 817.335 151.362 816.531 149.352C815.748 147.341 815.357 145.215 815.357 142.972V141.766C815.357 139.248 815.706 136.921 816.404 134.784C817.103 132.625 818.139 130.742 819.515 129.134C820.89 127.526 822.614 126.278 824.688 125.389C826.762 124.479 829.174 124.024 831.924 124.024C834.358 124.024 836.537 124.416 838.462 125.199C840.388 125.982 842.017 127.103 843.35 128.563C844.704 130.023 845.73 131.79 846.429 133.863C847.148 135.937 847.508 138.264 847.508 140.846V145.194H819.451V138.497H837.066V137.672C837.087 136.529 836.886 135.556 836.463 134.752C836.061 133.948 835.468 133.334 834.686 132.911C833.903 132.488 832.951 132.276 831.829 132.276C830.665 132.276 829.703 132.53 828.941 133.038C828.2 133.546 827.618 134.244 827.195 135.133C826.793 136 826.508 137.005 826.338 138.148C826.169 139.291 826.084 140.497 826.084 141.766V142.972C826.084 144.242 826.254 145.395 826.592 146.432C826.952 147.468 827.46 148.357 828.116 149.098C828.793 149.817 829.597 150.378 830.528 150.78C831.48 151.182 832.559 151.383 833.765 151.383C835.225 151.383 836.664 151.108 838.082 150.558C839.499 150.007 840.716 149.098 841.731 147.828L846.587 153.604C845.889 154.599 844.895 155.562 843.604 156.493C842.334 157.424 840.811 158.185 839.034 158.778C837.256 159.349 835.267 159.635 833.067 159.635Z"/><path fill="#fff" d="M296.089 308.694C293.759 314.696 290.175 319.095 285.339 321.892C280.503 324.631 273.481 326 264.275 326H258.332V304.849H259.817C263.838 304.849 267.043 304.091 269.432 302.576C271.762 301.061 273.423 298.76 274.414 295.671C275.404 292.525 275.899 287.776 275.899 281.425V238.685H259.293V217.534H320.125C336.906 217.534 348.939 221.088 356.222 228.197C363.564 235.247 367.235 246.959 367.235 263.333V326H343.549V263.682C343.549 254.359 341.655 247.862 337.868 244.191C334.08 240.521 327.7 238.685 318.727 238.685H299.498V284.484C299.498 294.564 298.362 302.634 296.089 308.694ZM420.288 217.534V326H396.689V217.534H420.288ZM474.303 217.534V275.132H450.704V217.534H474.303ZM552.353 260.273V326H495.804V304.849H528.754V264.818C528.754 256.952 528.23 251.329 527.181 247.95C526.132 244.628 524.384 242.269 521.937 240.87C519.49 239.413 515.906 238.685 511.187 238.685H500.786V217.534H515.644C525.666 217.534 533.154 218.874 538.106 221.554C543.059 224.235 546.672 228.634 548.944 234.752C551.217 240.87 552.353 249.377 552.353 260.273ZM655.925 273.908C655.925 308.636 638.211 326 602.784 326H573.767V304.849H601.473C611.903 304.849 619.624 302.227 624.635 296.982C629.646 291.738 632.151 283.756 632.151 273.034V270.674C632.151 259.778 629.646 251.737 624.635 246.551C619.624 241.307 612.02 238.685 601.823 238.685H573.767V217.534H604.008C638.619 217.534 655.925 234.839 655.925 269.451V273.908ZM704.695 217.534V326H681.097V217.534H704.695ZM762.993 308.694C760.662 314.696 757.078 319.095 752.242 321.892C747.406 324.631 740.385 326 731.178 326H725.235V304.849H726.721C730.741 304.849 733.946 304.091 736.335 302.576C738.666 301.061 740.326 298.76 741.317 295.671C742.307 292.525 742.803 287.776 742.803 281.425V238.685H726.196V217.534H787.028C803.81 217.534 815.842 221.088 823.125 228.197C830.467 235.247 834.138 246.959 834.138 263.333V326H810.452V263.682C810.452 254.359 808.558 247.862 804.771 244.191C800.984 240.521 794.603 238.685 785.63 238.685H766.401V284.484C766.401 294.564 765.265 302.634 762.993 308.694Z"/><path fill="url(#paint1_linear_227_13)" d="M296.089 308.694C293.759 314.696 290.175 319.095 285.339 321.892C280.503 324.631 273.481 326 264.275 326H258.332V304.849H259.817C263.838 304.849 267.043 304.091 269.432 302.576C271.762 301.061 273.423 298.76 274.414 295.671C275.404 292.525 275.899 287.776 275.899 281.425V238.685H259.293V217.534H320.125C336.906 217.534 348.939 221.088 356.222 228.197C363.564 235.247 367.235 246.959 367.235 263.333V326H343.549V263.682C343.549 254.359 341.655 247.862 337.868 244.191C334.08 240.521 327.7 238.685 318.727 238.685H299.498V284.484C299.498 294.564 298.362 302.634 296.089 308.694ZM420.288 217.534V326H396.689V217.534H420.288ZM474.303 217.534V275.132H450.704V217.534H474.303ZM552.353 260.273V326H495.804V304.849H528.754V264.818C528.754 256.952 528.23 251.329 527.181 247.95C526.132 244.628 524.384 242.269 521.937 240.87C519.49 239.413 515.906 238.685 511.187 238.685H500.786V217.534H515.644C525.666 217.534 533.154 218.874 538.106 221.554C543.059 224.235 546.672 228.634 548.944 234.752C551.217 240.87 552.353 249.377 552.353 260.273ZM655.925 273.908C655.925 308.636 638.211 326 602.784 326H573.767V304.849H601.473C611.903 304.849 619.624 302.227 624.635 296.982C629.646 291.738 632.151 283.756 632.151 273.034V270.674C632.151 259.778 629.646 251.737 624.635 246.551C619.624 241.307 612.02 238.685 601.823 238.685H573.767V217.534H604.008C638.619 217.534 655.925 234.839 655.925 269.451V273.908ZM704.695 217.534V326H681.097V217.534H704.695ZM762.993 308.694C760.662 314.696 757.078 319.095 752.242 321.892C747.406 324.631 740.385 326 731.178 326H725.235V304.849H726.721C730.741 304.849 733.946 304.091 736.335 302.576C738.666 301.061 740.326 298.76 741.317 295.671C742.307 292.525 742.803 287.776 742.803 281.425V238.685H726.196V217.534H787.028C803.81 217.534 815.842 221.088 823.125 228.197C830.467 235.247 834.138 246.959 834.138 263.333V326H810.452V263.682C810.452 254.359 808.558 247.862 804.771 244.191C800.984 240.521 794.603 238.685 785.63 238.685H766.401V284.484C766.401 294.564 765.265 302.634 762.993 308.694Z"/><path fill="#01D8CE" d="M1098.11 152.793C1100.47 150.355 1103.28 148.41 1106.4 147.072C1109.51 145.735 1112.86 145.03 1116.25 145.001C1119.64 144.972 1123 145.617 1126.14 146.901C1129.28 148.184 1132.13 150.08 1134.52 152.477C1136.92 154.873 1138.82 157.723 1140.1 160.861C1141.38 163.998 1142.03 167.359 1142 170.748C1141.97 174.138 1141.27 177.487 1139.93 180.602C1138.59 183.716 1136.65 186.533 1134.21 188.888L1124.09 199.009L1087.99 162.914L1098.11 152.793V152.793ZM1069.94 180.962L963 287.905V324H999.095L1106.05 217.056L1069.93 180.962H1069.94Z"/><defs><linearGradient id="paint0_linear_227_13" x1="1334" x2="1238.04" y1=".777" y2="11.158" gradientUnits="userSpaceOnUse"><stop stop-color="#00E1C3"/><stop offset="1" stop-color="#00D1D5"/></linearGradient><linearGradient id="paint1_linear_227_13" x1="253" x2="375.773" y1="160.371" y2="549.957" gradientUnits="userSpaceOnUse"><stop stop-color="#00E1C3"/><stop offset="1" stop-color="#00D1D5"/></linearGradient></defs></svg>