<svg xmlns="http://www.w3.org/2000/svg" width="1428" height="440" fill="none" viewBox="0 0 1428 440"><path fill="#132636" d="M3 37C3 16.5655 19.5655 0 40 0H1379.71C1404.06 0 1421.77 23.1129 1415.44 46.6236L1317.12 411.624C1312.77 427.776 1298.12 439 1281.39 439H40C19.5655 439 3 422.435 3 402V37Z"/><path fill="#132636" d="M0 37C0 16.5655 16.5655 0 37 0H39V440H37C16.5655 440 0 423.435 0 403V37Z"/><path fill="url(#paint0_linear_230_54)" d="M0 37C0 16.5655 16.5655 0 37 0H39V440H37C16.5655 440 0 423.435 0 403V37Z"/><path fill="url(#paint1_linear_230_54)" d="M339.24 239.163C349.416 233.319 349.415 218.678 339.238 212.836L304.727 193.042L342.697 175.39L395.065 205.427C410.978 214.555 410.978 237.445 395.065 246.573L340.201 278.042L302.231 260.39L339.24 239.163Z"/><path fill="url(#paint2_linear_230_54)" d="M223.282 259.304V279.416C223.287 291.095 235.961 298.401 246.117 292.576L267.934 280.062L305.904 297.714L224.679 344.303C208.808 353.406 189 341.985 189 323.73L189 243.366L223.282 259.304Z"/><path fill="url(#paint3_linear_230_54)" d="M308.401 155.718L270.431 173.37L246.103 159.416C235.948 153.604 223.282 160.913 223.282 172.59V195.289L189 211.226L189 128.27C189 110.015 208.808 98.5937 224.679 107.697L308.401 155.718Z"/><path fill="#fff" d="M542.011 147.114L551.627 111.789H564.101L548.517 158H540.456L542.011 147.114ZM533.283 111.789L542.899 147.114L544.518 158H536.361L520.873 111.789H533.283ZM586.159 149.653V123.659H596.886V158H586.857L586.159 149.653ZM587.174 142.67L589.967 142.607C589.967 144.913 589.692 147.05 589.142 149.018C588.592 150.965 587.777 152.657 586.698 154.096C585.64 155.535 584.328 156.656 582.763 157.46C581.218 158.243 579.43 158.635 577.399 158.635C575.706 158.635 574.151 158.402 572.733 157.937C571.337 157.45 570.131 156.699 569.115 155.683C568.1 154.646 567.306 153.324 566.735 151.716C566.185 150.087 565.91 148.14 565.91 145.876V123.659H576.605V145.939C576.605 146.701 576.701 147.357 576.891 147.907C577.082 148.457 577.357 148.923 577.716 149.304C578.076 149.663 578.52 149.938 579.049 150.129C579.599 150.298 580.224 150.383 580.922 150.383C582.53 150.383 583.789 150.044 584.699 149.367C585.609 148.69 586.243 147.77 586.603 146.606C586.984 145.442 587.174 144.13 587.174 142.67ZM619.42 158.635C616.627 158.635 614.131 158.201 611.93 157.333C609.73 156.445 607.868 155.228 606.344 153.684C604.842 152.139 603.689 150.362 602.885 148.352C602.102 146.341 601.71 144.215 601.71 141.972V140.766C601.71 138.248 602.06 135.921 602.758 133.784C603.456 131.625 604.493 129.742 605.868 128.134C607.243 126.526 608.968 125.278 611.042 124.389C613.115 123.479 615.527 123.024 618.278 123.024C620.711 123.024 622.89 123.416 624.816 124.199C626.741 124.982 628.371 126.103 629.704 127.563C631.058 129.023 632.084 130.79 632.782 132.863C633.502 134.937 633.861 137.264 633.861 139.846V144.194H605.805V137.497H623.419V136.672C623.441 135.529 623.24 134.556 622.816 133.752C622.414 132.948 621.822 132.334 621.039 131.911C620.256 131.488 619.304 131.276 618.183 131.276C617.019 131.276 616.056 131.53 615.294 132.038C614.554 132.546 613.972 133.244 613.549 134.133C613.147 135 612.861 136.005 612.692 137.148C612.523 138.291 612.438 139.497 612.438 140.766V141.972C612.438 143.242 612.607 144.395 612.946 145.432C613.306 146.468 613.813 147.357 614.469 148.098C615.146 148.817 615.95 149.378 616.881 149.78C617.833 150.182 618.913 150.383 620.119 150.383C621.579 150.383 623.017 150.108 624.435 149.558C625.853 149.007 627.069 148.098 628.085 146.828L632.941 152.604C632.243 153.599 631.248 154.562 629.958 155.493C628.688 156.424 627.165 157.185 625.387 157.778C623.61 158.349 621.621 158.635 619.42 158.635ZM661.093 111.789V158H649.953V111.789H661.093ZM674.994 111.789V120.39H636.369V111.789H674.994ZM697.179 149.653V123.659H707.907V158H697.877L697.179 149.653ZM698.195 142.67L700.988 142.607C700.988 144.913 700.713 147.05 700.163 149.018C699.612 150.965 698.798 152.657 697.719 154.096C696.661 155.535 695.349 156.656 693.783 157.46C692.239 158.243 690.451 158.635 688.419 158.635C686.727 158.635 685.172 158.402 683.754 157.937C682.357 157.45 681.151 156.699 680.136 155.683C679.12 154.646 678.327 153.324 677.755 151.716C677.205 150.087 676.93 148.14 676.93 145.876V123.659H687.626V145.939C687.626 146.701 687.721 147.357 687.912 147.907C688.102 148.457 688.377 148.923 688.737 149.304C689.097 149.663 689.541 149.938 690.07 150.129C690.62 150.298 691.244 150.383 691.942 150.383C693.55 150.383 694.809 150.044 695.719 149.367C696.629 148.69 697.264 147.77 697.624 146.606C698.004 145.442 698.195 144.13 698.195 142.67ZM713.905 109.25H724.601V149.558L723.49 158H713.905V109.25ZM745.675 140.449V141.115C745.675 143.718 745.411 146.088 744.882 148.225C744.353 150.362 743.538 152.213 742.438 153.779C741.338 155.323 739.952 156.519 738.28 157.365C736.609 158.212 734.63 158.635 732.345 158.635C730.272 158.635 728.494 158.19 727.013 157.302C725.532 156.392 724.294 155.144 723.3 153.557C722.305 151.949 721.501 150.097 720.888 148.002C720.274 145.887 719.787 143.623 719.428 141.21V140.417C719.787 138.026 720.274 135.783 720.888 133.688C721.501 131.573 722.305 129.721 723.3 128.134C724.294 126.526 725.521 125.278 726.981 124.389C728.463 123.479 730.229 123.024 732.282 123.024C734.588 123.024 736.577 123.458 738.249 124.326C739.941 125.193 741.338 126.41 742.438 127.976C743.538 129.541 744.353 131.382 744.882 133.498C745.411 135.614 745.675 137.931 745.675 140.449ZM734.979 141.115V140.449C734.979 139.2 734.905 138.026 734.757 136.926C734.609 135.826 734.345 134.852 733.964 134.006C733.583 133.16 733.043 132.493 732.345 132.006C731.647 131.52 730.737 131.276 729.616 131.276C728.473 131.276 727.51 131.467 726.728 131.848C725.966 132.229 725.352 132.779 724.887 133.498C724.442 134.196 724.125 135.064 723.935 136.101C723.744 137.116 723.66 138.269 723.681 139.56V142.067C723.638 143.824 723.797 145.326 724.157 146.574C724.516 147.823 725.141 148.775 726.029 149.431C726.918 150.087 728.135 150.415 729.679 150.415C730.822 150.415 731.742 150.192 732.44 149.748C733.16 149.304 733.699 148.669 734.059 147.844C734.419 147.019 734.662 146.035 734.789 144.892C734.916 143.75 734.979 142.491 734.979 141.115ZM767.067 158.635C764.274 158.635 761.777 158.201 759.577 157.333C757.376 156.445 755.514 155.228 753.991 153.684C752.488 152.139 751.335 150.362 750.531 148.352C749.748 146.341 749.357 144.215 749.357 141.972V140.766C749.357 138.248 749.706 135.921 750.404 133.784C751.103 131.625 752.139 129.742 753.515 128.134C754.89 126.526 756.614 125.278 758.688 124.389C760.762 123.479 763.174 123.024 765.924 123.024C768.358 123.024 770.537 123.416 772.462 124.199C774.388 124.982 776.017 126.103 777.35 127.563C778.704 129.023 779.73 130.79 780.429 132.863C781.148 134.937 781.508 137.264 781.508 139.846V144.194H753.451V137.497H771.066V136.672C771.087 135.529 770.886 134.556 770.463 133.752C770.061 132.948 769.468 132.334 768.686 131.911C767.903 131.488 766.951 131.276 765.829 131.276C764.665 131.276 763.703 131.53 762.941 132.038C762.2 132.546 761.618 133.244 761.195 134.133C760.793 135 760.508 136.005 760.338 137.148C760.169 138.291 760.084 139.497 760.084 140.766V141.972C760.084 143.242 760.254 144.395 760.592 145.432C760.952 146.468 761.46 147.357 762.116 148.098C762.793 148.817 763.597 149.378 764.528 149.78C765.48 150.182 766.559 150.383 767.765 150.383C769.225 150.383 770.664 150.108 772.082 149.558C773.499 149.007 774.716 148.098 775.731 146.828L780.587 152.604C779.889 153.599 778.895 154.562 777.604 155.493C776.334 156.424 774.811 157.185 773.034 157.778C771.256 158.349 769.267 158.635 767.067 158.635Z"/><path fill="#fff" d="M561.38 182.742V310H530.702V182.742H561.38ZM610.85 235.708V259.307H552.64V235.708H610.85ZM615.832 182.742V206.428H552.64V182.742H615.832ZM680.509 287.013V215.431H710.051V310H682.432L680.509 287.013ZM683.306 267.785L690.998 267.61C690.998 273.961 690.24 279.846 688.725 285.265C687.21 290.626 684.967 295.287 681.995 299.25C679.082 303.212 675.469 306.3 671.157 308.514C666.904 310.67 661.98 311.748 656.386 311.748C651.725 311.748 647.442 311.107 643.538 309.825C639.692 308.485 636.371 306.417 633.574 303.62C630.777 300.764 628.592 297.123 627.019 292.694C625.504 288.208 624.747 282.847 624.747 276.612V215.431H654.201V276.787C654.201 278.885 654.463 280.691 654.988 282.206C655.512 283.721 656.27 285.003 657.26 286.052C658.251 287.042 659.474 287.8 660.931 288.324C662.446 288.79 664.165 289.023 666.088 289.023C670.516 289.023 673.983 288.091 676.489 286.227C678.994 284.362 680.742 281.827 681.733 278.623C682.782 275.418 683.306 271.805 683.306 267.785ZM755.238 235.621V310H725.784V215.431H753.403L755.238 235.621ZM751.742 259.481L744.837 259.656C744.837 252.431 745.711 245.992 747.459 240.34C749.208 234.63 751.684 229.794 754.889 225.832C758.093 221.869 761.91 218.868 766.338 216.829C770.825 214.731 775.807 213.683 781.284 213.683C785.654 213.683 789.646 214.324 793.258 215.605C796.929 216.887 800.076 218.956 802.698 221.811C805.378 224.666 807.417 228.454 808.816 233.173C810.273 237.835 811.001 243.603 811.001 250.479V310H781.372V250.392C781.372 246.604 780.847 243.72 779.798 241.739C778.75 239.699 777.235 238.301 775.253 237.543C773.272 236.786 770.854 236.407 767.999 236.407C764.969 236.407 762.405 236.99 760.308 238.155C758.21 239.321 756.52 240.952 755.238 243.05C754.015 245.089 753.111 247.507 752.529 250.304C752.004 253.101 751.742 256.16 751.742 259.481ZM867.288 289.023C870.027 289.023 872.357 288.528 874.28 287.538C876.261 286.489 877.747 285.032 878.738 283.167C879.787 281.245 880.282 278.943 880.224 276.263H907.93C907.988 283.371 906.24 289.606 902.686 294.967C899.19 300.269 894.412 304.406 888.352 307.378C882.35 310.291 875.562 311.748 867.987 311.748C860.587 311.748 854.119 310.554 848.584 308.165C843.049 305.717 838.416 302.338 834.687 298.026C831.016 293.656 828.248 288.557 826.384 282.73C824.577 276.904 823.674 270.582 823.674 263.764V261.754C823.674 254.937 824.577 248.614 826.384 242.788C828.248 236.903 831.016 231.804 834.687 227.492C838.416 223.122 843.019 219.743 848.497 217.354C854.032 214.906 860.471 213.683 867.812 213.683C875.679 213.683 882.613 215.168 888.614 218.14C894.674 221.112 899.423 225.424 902.861 231.076C906.299 236.728 907.988 243.574 907.93 251.615H880.224C880.282 248.76 879.845 246.196 878.913 243.924C877.98 241.651 876.524 239.845 874.542 238.505C872.62 237.106 870.143 236.407 867.113 236.407C864.083 236.407 861.636 237.077 859.771 238.417C857.907 239.758 856.479 241.622 855.489 244.011C854.556 246.342 853.916 249.022 853.566 252.052C853.275 255.082 853.129 258.316 853.129 261.754V263.764C853.129 267.26 853.275 270.552 853.566 273.641C853.916 276.671 854.586 279.351 855.576 281.682C856.567 283.954 857.994 285.76 859.859 287.101C861.723 288.382 864.2 289.023 867.288 289.023ZM970.335 215.431V235.883H913.349V215.431H970.335ZM925.323 191.919H954.778V279.147C954.778 281.653 955.069 283.604 955.652 285.003C956.235 286.343 957.225 287.305 958.624 287.887C960.08 288.412 962.003 288.674 964.392 288.674C966.082 288.674 967.48 288.645 968.587 288.586C969.694 288.47 970.743 288.324 971.734 288.149V309.213C969.228 310.029 966.606 310.641 963.868 311.049C961.129 311.515 958.216 311.748 955.127 311.748C948.834 311.748 943.445 310.757 938.958 308.776C934.53 306.795 931.15 303.678 928.819 299.424C926.489 295.171 925.323 289.635 925.323 282.818V191.919ZM1013.16 215.431V310H983.621V215.431H1013.16ZM981.873 191.045C981.873 186.85 983.388 183.412 986.417 180.732C989.447 178.052 993.381 176.711 998.217 176.711C1003.05 176.711 1006.99 178.052 1010.02 180.732C1013.05 183.412 1014.56 186.85 1014.56 191.045C1014.56 195.241 1013.05 198.679 1010.02 201.359C1006.99 204.039 1003.05 205.379 998.217 205.379C993.381 205.379 989.447 204.039 986.417 201.359C983.388 198.679 981.873 195.241 981.873 191.045ZM1077.14 311.748C1069.45 311.748 1062.57 310.554 1056.51 308.165C1050.45 305.717 1045.33 302.367 1041.13 298.113C1036.99 293.86 1033.82 288.965 1031.6 283.43C1029.45 277.894 1028.37 272.038 1028.37 265.862V262.541C1028.37 255.607 1029.33 249.197 1031.25 243.312C1033.18 237.369 1036.03 232.183 1039.82 227.754C1043.61 223.326 1048.36 219.888 1054.07 217.441C1059.78 214.935 1066.42 213.683 1073.99 213.683C1080.7 213.683 1086.7 214.761 1092 216.917C1097.3 219.072 1101.79 222.161 1105.46 226.181C1109.19 230.202 1112.01 235.067 1113.94 240.777C1115.92 246.488 1116.91 252.897 1116.91 260.006V271.98H1039.65V253.538H1088.15V251.266C1088.21 248.119 1087.66 245.439 1086.49 243.225C1085.39 241.01 1083.75 239.321 1081.6 238.155C1079.44 236.99 1076.82 236.407 1073.73 236.407C1070.53 236.407 1067.88 237.106 1065.78 238.505C1063.74 239.903 1062.14 241.826 1060.97 244.273C1059.86 246.662 1059.08 249.43 1058.61 252.577C1058.15 255.723 1057.91 259.044 1057.91 262.541V265.862C1057.91 269.358 1058.38 272.534 1059.31 275.389C1060.3 278.244 1061.7 280.691 1063.51 282.73C1065.37 284.712 1067.59 286.256 1070.15 287.363C1072.77 288.47 1075.74 289.023 1079.06 289.023C1083.08 289.023 1087.05 288.266 1090.95 286.751C1094.85 285.236 1098.21 282.73 1101 279.234L1114.37 295.142C1112.45 297.88 1109.71 300.531 1106.16 303.095C1102.66 305.659 1098.47 307.757 1093.57 309.388C1088.68 310.961 1083.2 311.748 1077.14 311.748ZM1178.44 283.43C1178.44 281.798 1177.89 280.4 1176.78 279.234C1175.73 278.011 1173.87 276.904 1171.19 275.913C1168.51 274.864 1164.75 273.815 1159.91 272.767C1155.31 271.776 1150.97 270.465 1146.89 268.833C1142.87 267.202 1139.34 265.221 1136.31 262.89C1133.28 260.559 1130.89 257.792 1129.15 254.587C1127.46 251.382 1126.61 247.711 1126.61 243.574C1126.61 239.554 1127.46 235.766 1129.15 232.212C1130.89 228.599 1133.43 225.424 1136.75 222.685C1140.13 219.888 1144.24 217.703 1149.07 216.13C1153.91 214.498 1159.42 213.683 1165.59 213.683C1174.1 213.683 1181.44 214.994 1187.62 217.616C1193.79 220.18 1198.54 223.792 1201.86 228.454C1205.24 233.057 1206.93 238.388 1206.93 244.448H1177.48C1177.48 242.059 1177.07 240.02 1176.26 238.33C1175.5 236.64 1174.25 235.358 1172.5 234.484C1170.75 233.552 1168.42 233.086 1165.5 233.086C1163.47 233.086 1161.6 233.465 1159.91 234.222C1158.28 234.98 1156.97 236.028 1155.98 237.369C1154.99 238.709 1154.49 240.282 1154.49 242.088C1154.49 243.37 1154.78 244.536 1155.37 245.584C1156.01 246.575 1156.97 247.507 1158.25 248.381C1159.53 249.197 1161.16 249.955 1163.15 250.654C1165.13 251.295 1167.52 251.877 1170.31 252.402C1176.66 253.567 1182.61 255.228 1188.14 257.384C1193.68 259.54 1198.16 262.599 1201.6 266.561C1205.1 270.523 1206.85 275.855 1206.85 282.556C1206.85 286.751 1205.88 290.626 1203.96 294.18C1202.04 297.676 1199.27 300.764 1195.66 303.445C1192.05 306.067 1187.71 308.106 1182.64 309.563C1177.57 311.02 1171.86 311.748 1165.5 311.748C1156.47 311.748 1148.84 310.146 1142.61 306.941C1136.37 303.678 1131.65 299.599 1128.45 294.705C1125.3 289.752 1123.73 284.741 1123.73 279.671H1151.17C1151.29 282.585 1151.99 284.974 1153.27 286.838C1154.61 288.703 1156.39 290.072 1158.6 290.946C1160.81 291.82 1163.38 292.257 1166.29 292.257C1168.97 292.257 1171.19 291.879 1172.93 291.121C1174.74 290.364 1176.11 289.344 1177.04 288.062C1177.97 286.722 1178.44 285.178 1178.44 283.43Z"/><path fill="url(#paint4_linear_230_54)" d="M561.38 182.742V310H530.702V182.742H561.38ZM610.85 235.708V259.307H552.64V235.708H610.85ZM615.832 182.742V206.428H552.64V182.742H615.832ZM680.509 287.013V215.431H710.051V310H682.432L680.509 287.013ZM683.306 267.785L690.998 267.61C690.998 273.961 690.24 279.846 688.725 285.265C687.21 290.626 684.967 295.287 681.995 299.25C679.082 303.212 675.469 306.3 671.157 308.514C666.904 310.67 661.98 311.748 656.386 311.748C651.725 311.748 647.442 311.107 643.538 309.825C639.692 308.485 636.371 306.417 633.574 303.62C630.777 300.764 628.592 297.123 627.019 292.694C625.504 288.208 624.747 282.847 624.747 276.612V215.431H654.201V276.787C654.201 278.885 654.463 280.691 654.988 282.206C655.512 283.721 656.27 285.003 657.26 286.052C658.251 287.042 659.474 287.8 660.931 288.324C662.446 288.79 664.165 289.023 666.088 289.023C670.516 289.023 673.983 288.091 676.489 286.227C678.994 284.362 680.742 281.827 681.733 278.623C682.782 275.418 683.306 271.805 683.306 267.785ZM755.238 235.621V310H725.784V215.431H753.403L755.238 235.621ZM751.742 259.481L744.837 259.656C744.837 252.431 745.711 245.992 747.459 240.34C749.208 234.63 751.684 229.794 754.889 225.832C758.093 221.869 761.91 218.868 766.338 216.829C770.825 214.731 775.807 213.683 781.284 213.683C785.654 213.683 789.646 214.324 793.258 215.605C796.929 216.887 800.076 218.956 802.698 221.811C805.378 224.666 807.417 228.454 808.816 233.173C810.273 237.835 811.001 243.603 811.001 250.479V310H781.372V250.392C781.372 246.604 780.847 243.72 779.798 241.739C778.75 239.699 777.235 238.301 775.253 237.543C773.272 236.786 770.854 236.407 767.999 236.407C764.969 236.407 762.405 236.99 760.308 238.155C758.21 239.321 756.52 240.952 755.238 243.05C754.015 245.089 753.111 247.507 752.529 250.304C752.004 253.101 751.742 256.16 751.742 259.481ZM867.288 289.023C870.027 289.023 872.357 288.528 874.28 287.538C876.261 286.489 877.747 285.032 878.738 283.167C879.787 281.245 880.282 278.943 880.224 276.263H907.93C907.988 283.371 906.24 289.606 902.686 294.967C899.19 300.269 894.412 304.406 888.352 307.378C882.35 310.291 875.562 311.748 867.987 311.748C860.587 311.748 854.119 310.554 848.584 308.165C843.049 305.717 838.416 302.338 834.687 298.026C831.016 293.656 828.248 288.557 826.384 282.73C824.577 276.904 823.674 270.582 823.674 263.764V261.754C823.674 254.937 824.577 248.614 826.384 242.788C828.248 236.903 831.016 231.804 834.687 227.492C838.416 223.122 843.019 219.743 848.497 217.354C854.032 214.906 860.471 213.683 867.812 213.683C875.679 213.683 882.613 215.168 888.614 218.14C894.674 221.112 899.423 225.424 902.861 231.076C906.299 236.728 907.988 243.574 907.93 251.615H880.224C880.282 248.76 879.845 246.196 878.913 243.924C877.98 241.651 876.524 239.845 874.542 238.505C872.62 237.106 870.143 236.407 867.113 236.407C864.083 236.407 861.636 237.077 859.771 238.417C857.907 239.758 856.479 241.622 855.489 244.011C854.556 246.342 853.916 249.022 853.566 252.052C853.275 255.082 853.129 258.316 853.129 261.754V263.764C853.129 267.26 853.275 270.552 853.566 273.641C853.916 276.671 854.586 279.351 855.576 281.682C856.567 283.954 857.994 285.76 859.859 287.101C861.723 288.382 864.2 289.023 867.288 289.023ZM970.335 215.431V235.883H913.349V215.431H970.335ZM925.323 191.919H954.778V279.147C954.778 281.653 955.069 283.604 955.652 285.003C956.235 286.343 957.225 287.305 958.624 287.887C960.08 288.412 962.003 288.674 964.392 288.674C966.082 288.674 967.48 288.645 968.587 288.586C969.694 288.47 970.743 288.324 971.734 288.149V309.213C969.228 310.029 966.606 310.641 963.868 311.049C961.129 311.515 958.216 311.748 955.127 311.748C948.834 311.748 943.445 310.757 938.958 308.776C934.53 306.795 931.15 303.678 928.819 299.424C926.489 295.171 925.323 289.635 925.323 282.818V191.919ZM1013.16 215.431V310H983.621V215.431H1013.16ZM981.873 191.045C981.873 186.85 983.388 183.412 986.417 180.732C989.447 178.052 993.381 176.711 998.217 176.711C1003.05 176.711 1006.99 178.052 1010.02 180.732C1013.05 183.412 1014.56 186.85 1014.56 191.045C1014.56 195.241 1013.05 198.679 1010.02 201.359C1006.99 204.039 1003.05 205.379 998.217 205.379C993.381 205.379 989.447 204.039 986.417 201.359C983.388 198.679 981.873 195.241 981.873 191.045ZM1077.14 311.748C1069.45 311.748 1062.57 310.554 1056.51 308.165C1050.45 305.717 1045.33 302.367 1041.13 298.113C1036.99 293.86 1033.82 288.965 1031.6 283.43C1029.45 277.894 1028.37 272.038 1028.37 265.862V262.541C1028.37 255.607 1029.33 249.197 1031.25 243.312C1033.18 237.369 1036.03 232.183 1039.82 227.754C1043.61 223.326 1048.36 219.888 1054.07 217.441C1059.78 214.935 1066.42 213.683 1073.99 213.683C1080.7 213.683 1086.7 214.761 1092 216.917C1097.3 219.072 1101.79 222.161 1105.46 226.181C1109.19 230.202 1112.01 235.067 1113.94 240.777C1115.92 246.488 1116.91 252.897 1116.91 260.006V271.98H1039.65V253.538H1088.15V251.266C1088.21 248.119 1087.66 245.439 1086.49 243.225C1085.39 241.01 1083.75 239.321 1081.6 238.155C1079.44 236.99 1076.82 236.407 1073.73 236.407C1070.53 236.407 1067.88 237.106 1065.78 238.505C1063.74 239.903 1062.14 241.826 1060.97 244.273C1059.86 246.662 1059.08 249.43 1058.61 252.577C1058.15 255.723 1057.91 259.044 1057.91 262.541V265.862C1057.91 269.358 1058.38 272.534 1059.31 275.389C1060.3 278.244 1061.7 280.691 1063.51 282.73C1065.37 284.712 1067.59 286.256 1070.15 287.363C1072.77 288.47 1075.74 289.023 1079.06 289.023C1083.08 289.023 1087.05 288.266 1090.95 286.751C1094.85 285.236 1098.21 282.73 1101 279.234L1114.37 295.142C1112.45 297.88 1109.71 300.531 1106.16 303.095C1102.66 305.659 1098.47 307.757 1093.57 309.388C1088.68 310.961 1083.2 311.748 1077.14 311.748ZM1178.44 283.43C1178.44 281.798 1177.89 280.4 1176.78 279.234C1175.73 278.011 1173.87 276.904 1171.19 275.913C1168.51 274.864 1164.75 273.815 1159.91 272.767C1155.31 271.776 1150.97 270.465 1146.89 268.833C1142.87 267.202 1139.34 265.221 1136.31 262.89C1133.28 260.559 1130.89 257.792 1129.15 254.587C1127.46 251.382 1126.61 247.711 1126.61 243.574C1126.61 239.554 1127.46 235.766 1129.15 232.212C1130.89 228.599 1133.43 225.424 1136.75 222.685C1140.13 219.888 1144.24 217.703 1149.07 216.13C1153.91 214.498 1159.42 213.683 1165.59 213.683C1174.1 213.683 1181.44 214.994 1187.62 217.616C1193.79 220.18 1198.54 223.792 1201.86 228.454C1205.24 233.057 1206.93 238.388 1206.93 244.448H1177.48C1177.48 242.059 1177.07 240.02 1176.26 238.33C1175.5 236.64 1174.25 235.358 1172.5 234.484C1170.75 233.552 1168.42 233.086 1165.5 233.086C1163.47 233.086 1161.6 233.465 1159.91 234.222C1158.28 234.98 1156.97 236.028 1155.98 237.369C1154.99 238.709 1154.49 240.282 1154.49 242.088C1154.49 243.37 1154.78 244.536 1155.37 245.584C1156.01 246.575 1156.97 247.507 1158.25 248.381C1159.53 249.197 1161.16 249.955 1163.15 250.654C1165.13 251.295 1167.52 251.877 1170.31 252.402C1176.66 253.567 1182.61 255.228 1188.14 257.384C1193.68 259.54 1198.16 262.599 1201.6 266.561C1205.1 270.523 1206.85 275.855 1206.85 282.556C1206.85 286.751 1205.88 290.626 1203.96 294.18C1202.04 297.676 1199.27 300.764 1195.66 303.445C1192.05 306.067 1187.71 308.106 1182.64 309.563C1177.57 311.02 1171.86 311.748 1165.5 311.748C1156.47 311.748 1148.84 310.146 1142.61 306.941C1136.37 303.678 1131.65 299.599 1128.45 294.705C1125.3 289.752 1123.73 284.741 1123.73 279.671H1151.17C1151.29 282.585 1151.99 284.974 1153.27 286.838C1154.61 288.703 1156.39 290.072 1158.6 290.946C1160.81 291.82 1163.38 292.257 1166.29 292.257C1168.97 292.257 1171.19 291.879 1172.93 291.121C1174.74 290.364 1176.11 289.344 1177.04 288.062C1177.97 286.722 1178.44 285.178 1178.44 283.43Z"/><defs><linearGradient id="paint0_linear_230_54" x1="0" x2="88.064" y1=".777" y2="9.505" gradientUnits="userSpaceOnUse"><stop stop-color="#00E1C3"/><stop offset="1" stop-color="#00D1D5"/></linearGradient><linearGradient id="paint1_linear_230_54" x1="189" x2="436.787" y1="104.929" y2="353.473" gradientUnits="userSpaceOnUse"><stop stop-color="#00E1C3"/><stop offset="1" stop-color="#00D1D5"/></linearGradient><linearGradient id="paint2_linear_230_54" x1="189" x2="436.787" y1="104.929" y2="353.473" gradientUnits="userSpaceOnUse"><stop stop-color="#00E1C3"/><stop offset="1" stop-color="#00D1D5"/></linearGradient><linearGradient id="paint3_linear_230_54" x1="189" x2="436.787" y1="104.929" y2="353.473" gradientUnits="userSpaceOnUse"><stop stop-color="#00E1C3"/><stop offset="1" stop-color="#00D1D5"/></linearGradient><linearGradient id="paint4_linear_230_54" x1="521" x2="629.266" y1="144.371" y2="543.262" gradientUnits="userSpaceOnUse"><stop stop-color="#00E1C3"/><stop offset="1" stop-color="#00D1D5"/></linearGradient></defs></svg>