<svg xmlns="http://www.w3.org/2000/svg" width="1566" height="440" fill="none" viewBox="0 0 1566 440"><path fill="#132636" d="M3 37C3 16.5655 19.5655 0 40 0H1516.49C1541.21 0 1558.98 23.7765 1551.97 47.4838L1444.13 412.484C1439.48 428.208 1425.04 439 1408.65 439H39.9999C19.5654 439 3 422.435 3 402V37Z"/><path fill="#132636" d="M0 37C0 16.5655 16.5655 0 37 0H39V440H37C16.5655 440 0 423.435 0 403V37Z"/><path fill="url(#paint0_linear_230_34)" d="M0 37C0 16.5655 16.5655 0 37 0H39V440H37C16.5655 440 0 423.435 0 403V37Z"/><g clip-path="url(#clip0_230_34)"><path fill="#01D8CE" d="M206.156 317.5C201.581 317.5 197.578 315.784 194.147 312.353C190.716 308.922 189 304.919 189 300.344V259.455H206.156V300.344H354.844V259.455H372V300.344C372 304.919 370.284 308.922 366.853 312.353C363.422 315.784 359.419 317.5 354.844 317.5H206.156ZM280.5 273.752L225.314 218.566L237.609 206.27L271.922 240.583V134.5H289.078V240.583L323.391 206.27L335.686 218.566L280.5 273.752Z"/></g><path fill="#fff" d="M507.011 147.114L516.627 111.789H529.101L513.517 158H505.456L507.011 147.114ZM498.283 111.789L507.899 147.114L509.518 158H501.361L485.873 111.789H498.283ZM551.159 149.653V123.659H561.886V158H551.857L551.159 149.653ZM552.174 142.67L554.967 142.607C554.967 144.913 554.692 147.05 554.142 149.018C553.592 150.965 552.777 152.657 551.698 154.096C550.64 155.535 549.328 156.656 547.763 157.46C546.218 158.243 544.43 158.635 542.399 158.635C540.706 158.635 539.151 158.402 537.733 157.937C536.337 157.45 535.131 156.699 534.115 155.683C533.1 154.646 532.306 153.324 531.735 151.716C531.185 150.087 530.91 148.14 530.91 145.876V123.659H541.605V145.939C541.605 146.701 541.701 147.357 541.891 147.907C542.082 148.457 542.357 148.923 542.716 149.304C543.076 149.663 543.52 149.938 544.049 150.129C544.599 150.298 545.224 150.383 545.922 150.383C547.53 150.383 548.789 150.044 549.699 149.367C550.609 148.69 551.243 147.77 551.603 146.606C551.984 145.442 552.174 144.13 552.174 142.67ZM584.42 158.635C581.627 158.635 579.131 158.201 576.93 157.333C574.73 156.445 572.868 155.228 571.344 153.684C569.842 152.139 568.689 150.362 567.885 148.352C567.102 146.341 566.71 144.215 566.71 141.972V140.766C566.71 138.248 567.06 135.921 567.758 133.784C568.456 131.625 569.493 129.742 570.868 128.134C572.243 126.526 573.968 125.278 576.042 124.389C578.115 123.479 580.527 123.024 583.278 123.024C585.711 123.024 587.89 123.416 589.816 124.199C591.741 124.982 593.371 126.103 594.704 127.563C596.058 129.023 597.084 130.79 597.782 132.863C598.502 134.937 598.861 137.264 598.861 139.846V144.194H570.805V137.497H588.419V136.672C588.441 135.529 588.24 134.556 587.816 133.752C587.414 132.948 586.822 132.334 586.039 131.911C585.256 131.488 584.304 131.276 583.183 131.276C582.019 131.276 581.056 131.53 580.294 132.038C579.554 132.546 578.972 133.244 578.549 134.133C578.147 135 577.861 136.005 577.692 137.148C577.523 138.291 577.438 139.497 577.438 140.766V141.972C577.438 143.242 577.607 144.395 577.946 145.432C578.306 146.468 578.813 147.357 579.469 148.098C580.146 148.817 580.95 149.378 581.881 149.78C582.833 150.182 583.913 150.383 585.119 150.383C586.579 150.383 588.017 150.108 589.435 149.558C590.853 149.007 592.069 148.098 593.085 146.828L597.941 152.604C597.243 153.599 596.248 154.562 594.958 155.493C593.688 156.424 592.165 157.185 590.387 157.778C588.61 158.349 586.621 158.635 584.42 158.635ZM626.093 111.789V158H614.953V111.789H626.093ZM639.994 111.789V120.39H601.369V111.789H639.994ZM662.179 149.653V123.659H672.907V158H662.877L662.179 149.653ZM663.195 142.67L665.988 142.607C665.988 144.913 665.713 147.05 665.163 149.018C664.612 150.965 663.798 152.657 662.719 154.096C661.661 155.535 660.349 156.656 658.783 157.46C657.239 158.243 655.451 158.635 653.419 158.635C651.727 158.635 650.172 158.402 648.754 157.937C647.357 157.45 646.151 156.699 645.136 155.683C644.12 154.646 643.327 153.324 642.755 151.716C642.205 150.087 641.93 148.14 641.93 145.876V123.659H652.626V145.939C652.626 146.701 652.721 147.357 652.912 147.907C653.102 148.457 653.377 148.923 653.737 149.304C654.097 149.663 654.541 149.938 655.07 150.129C655.62 150.298 656.244 150.383 656.942 150.383C658.55 150.383 659.809 150.044 660.719 149.367C661.629 148.69 662.264 147.77 662.624 146.606C663.004 145.442 663.195 144.13 663.195 142.67ZM678.905 109.25H689.601V149.558L688.49 158H678.905V109.25ZM710.675 140.449V141.115C710.675 143.718 710.411 146.088 709.882 148.225C709.353 150.362 708.538 152.213 707.438 153.779C706.338 155.323 704.952 156.519 703.28 157.365C701.609 158.212 699.63 158.635 697.345 158.635C695.272 158.635 693.494 158.19 692.013 157.302C690.532 156.392 689.294 155.144 688.3 153.557C687.305 151.949 686.501 150.097 685.888 148.002C685.274 145.887 684.787 143.623 684.428 141.21V140.417C684.787 138.026 685.274 135.783 685.888 133.688C686.501 131.573 687.305 129.721 688.3 128.134C689.294 126.526 690.521 125.278 691.981 124.389C693.463 123.479 695.229 123.024 697.282 123.024C699.588 123.024 701.577 123.458 703.249 124.326C704.941 125.193 706.338 126.41 707.438 127.976C708.538 129.541 709.353 131.382 709.882 133.498C710.411 135.614 710.675 137.931 710.675 140.449ZM699.979 141.115V140.449C699.979 139.2 699.905 138.026 699.757 136.926C699.609 135.826 699.345 134.852 698.964 134.006C698.583 133.16 698.043 132.493 697.345 132.006C696.647 131.52 695.737 131.276 694.616 131.276C693.473 131.276 692.51 131.467 691.728 131.848C690.966 132.229 690.352 132.779 689.887 133.498C689.442 134.196 689.125 135.064 688.935 136.101C688.744 137.116 688.66 138.269 688.681 139.56V142.067C688.638 143.824 688.797 145.326 689.157 146.574C689.516 147.823 690.141 148.775 691.029 149.431C691.918 150.087 693.135 150.415 694.679 150.415C695.822 150.415 696.742 150.192 697.44 149.748C698.16 149.304 698.699 148.669 699.059 147.844C699.419 147.019 699.662 146.035 699.789 144.892C699.916 143.75 699.979 142.491 699.979 141.115ZM732.067 158.635C729.274 158.635 726.777 158.201 724.577 157.333C722.376 156.445 720.514 155.228 718.991 153.684C717.488 152.139 716.335 150.362 715.531 148.352C714.748 146.341 714.357 144.215 714.357 141.972V140.766C714.357 138.248 714.706 135.921 715.404 133.784C716.103 131.625 717.139 129.742 718.515 128.134C719.89 126.526 721.614 125.278 723.688 124.389C725.762 123.479 728.174 123.024 730.924 123.024C733.358 123.024 735.537 123.416 737.462 124.199C739.388 124.982 741.017 126.103 742.35 127.563C743.704 129.023 744.73 130.79 745.429 132.863C746.148 134.937 746.508 137.264 746.508 139.846V144.194H718.451V137.497H736.066V136.672C736.087 135.529 735.886 134.556 735.463 133.752C735.061 132.948 734.468 132.334 733.686 131.911C732.903 131.488 731.951 131.276 730.829 131.276C729.665 131.276 728.703 131.53 727.941 132.038C727.2 132.546 726.618 133.244 726.195 134.133C725.793 135 725.508 136.005 725.338 137.148C725.169 138.291 725.084 139.497 725.084 140.766V141.972C725.084 143.242 725.254 144.395 725.592 145.432C725.952 146.468 726.46 147.357 727.116 148.098C727.793 148.817 728.597 149.378 729.528 149.78C730.48 150.182 731.559 150.383 732.765 150.383C734.225 150.383 735.664 150.108 737.082 149.558C738.499 149.007 739.716 148.098 740.731 146.828L745.587 152.604C744.889 153.599 743.895 154.562 742.604 155.493C741.334 156.424 739.811 157.185 738.034 157.778C736.256 158.349 734.267 158.635 732.067 158.635Z"/><path fill="#fff" d="M528.303 182.742V310H497.712V182.742H528.303ZM577.423 235.621V310H547.968V215.431H575.587L577.423 235.621ZM573.927 259.481L567.022 259.656C567.022 252.431 567.896 245.992 569.644 240.34C571.392 234.63 573.868 229.794 577.073 225.832C580.278 221.869 584.095 218.868 588.523 216.829C593.01 214.731 597.992 213.683 603.469 213.683C607.839 213.683 611.83 214.324 615.443 215.605C619.114 216.887 622.26 218.956 624.882 221.811C627.563 224.666 629.602 228.454 631 233.173C632.457 237.835 633.186 243.603 633.186 250.479V310H603.556V250.392C603.556 246.604 603.032 243.72 601.983 241.739C600.934 239.699 599.419 238.301 597.438 237.543C595.457 236.786 593.039 236.407 590.184 236.407C587.154 236.407 584.59 236.99 582.492 238.155C580.395 239.321 578.705 240.952 577.423 243.05C576.199 245.089 575.296 247.507 574.713 250.304C574.189 253.101 573.927 256.16 573.927 259.481ZM699.087 283.43C699.087 281.798 698.533 280.4 697.426 279.234C696.377 278.011 694.513 276.904 691.833 275.913C689.152 274.864 685.394 273.815 680.558 272.767C675.954 271.776 671.613 270.465 667.535 268.833C663.514 267.202 659.989 265.221 656.959 262.89C653.929 260.559 651.54 257.792 649.792 254.587C648.102 251.382 647.257 247.711 647.257 243.574C647.257 239.554 648.102 235.766 649.792 232.212C651.54 228.599 654.075 225.424 657.396 222.685C660.776 219.888 664.883 217.703 669.72 216.13C674.556 214.498 680.062 213.683 686.239 213.683C694.746 213.683 702.088 214.994 708.264 217.616C714.441 220.18 719.189 223.792 722.511 228.454C725.89 233.057 727.58 238.388 727.58 244.448H698.125C698.125 242.059 697.718 240.02 696.902 238.33C696.144 236.64 694.892 235.358 693.144 234.484C691.396 233.552 689.065 233.086 686.151 233.086C684.112 233.086 682.247 233.465 680.558 234.222C678.926 234.98 677.615 236.028 676.625 237.369C675.634 238.709 675.139 240.282 675.139 242.088C675.139 243.37 675.43 244.536 676.013 245.584C676.654 246.575 677.615 247.507 678.897 248.381C680.179 249.197 681.81 249.955 683.792 250.654C685.773 251.295 688.162 251.877 690.958 252.402C697.31 253.567 703.253 255.228 708.789 257.384C714.324 259.54 718.811 262.599 722.249 266.561C725.745 270.523 727.493 275.855 727.493 282.556C727.493 286.751 726.531 290.626 724.608 294.18C722.686 297.676 719.918 300.764 716.305 303.445C712.693 306.067 708.352 308.106 703.282 309.563C698.213 311.02 692.503 311.748 686.151 311.748C677.12 311.748 669.487 310.146 663.252 306.941C657.017 303.678 652.298 299.599 649.093 294.705C645.946 289.752 644.373 284.741 644.373 279.671H671.817C671.934 282.585 672.633 284.974 673.915 286.838C675.255 288.703 677.032 290.072 679.247 290.946C681.461 291.82 684.025 292.257 686.938 292.257C689.618 292.257 691.833 291.879 693.581 291.121C695.387 290.364 696.756 289.344 697.688 288.062C698.621 286.722 699.087 285.178 699.087 283.43ZM791.122 215.431V235.883H734.135V215.431H791.122ZM746.109 191.919H775.564V279.147C775.564 281.653 775.855 283.604 776.438 285.003C777.021 286.343 778.011 287.305 779.41 287.887C780.866 288.412 782.789 288.674 785.178 288.674C786.868 288.674 788.266 288.645 789.374 288.586C790.481 288.47 791.529 288.324 792.52 288.149V309.213C790.014 310.029 787.392 310.641 784.654 311.049C781.915 311.515 779.002 311.748 775.914 311.748C769.621 311.748 764.231 310.757 759.744 308.776C755.316 306.795 751.936 303.678 749.605 299.424C747.275 295.171 746.109 289.635 746.109 282.818V191.919ZM851.954 286.227V247.245C851.954 244.565 851.575 242.263 850.817 240.34C850.06 238.417 848.865 236.932 847.234 235.883C845.602 234.776 843.417 234.222 840.679 234.222C838.465 234.222 836.571 234.601 834.998 235.358C833.424 236.116 832.23 237.252 831.414 238.767C830.598 240.282 830.19 242.205 830.19 244.536H800.736C800.736 240.166 801.697 236.116 803.62 232.387C805.601 228.599 808.398 225.307 812.011 222.51C815.682 219.713 820.052 217.557 825.121 216.042C830.249 214.469 835.959 213.683 842.252 213.683C849.769 213.683 856.469 214.935 862.354 217.441C868.298 219.946 872.988 223.705 876.426 228.716C879.864 233.669 881.583 239.903 881.583 247.42V286.139C881.583 292.316 881.933 297.006 882.632 300.211C883.331 303.357 884.322 306.125 885.604 308.514V310H856.062C854.663 307.087 853.614 303.532 852.915 299.337C852.274 295.083 851.954 290.713 851.954 286.227ZM855.537 252.227L855.712 267.959H842.689C839.95 267.959 837.62 268.338 835.697 269.096C833.832 269.853 832.317 270.902 831.152 272.242C830.045 273.524 829.229 274.981 828.705 276.612C828.238 278.244 828.005 279.963 828.005 281.769C828.005 283.517 828.413 285.09 829.229 286.489C830.103 287.829 831.268 288.878 832.725 289.635C834.182 290.393 835.813 290.771 837.62 290.771C840.883 290.771 843.65 290.16 845.923 288.936C848.254 287.654 850.031 286.11 851.254 284.304C852.478 282.497 853.09 280.808 853.09 279.234L859.558 291.296C858.392 293.627 857.052 295.986 855.537 298.375C854.08 300.764 852.245 302.979 850.031 305.018C847.875 306.999 845.224 308.631 842.077 309.913C838.931 311.136 835.114 311.748 830.627 311.748C824.801 311.748 819.44 310.554 814.545 308.165C809.709 305.776 805.834 302.454 802.921 298.201C800.007 293.889 798.551 288.936 798.551 283.342C798.551 278.448 799.425 274.078 801.173 270.232C802.979 266.386 805.689 263.123 809.301 260.443C812.914 257.763 817.517 255.723 823.111 254.325C828.705 252.926 835.289 252.227 842.864 252.227H855.537ZM929.042 175.75V310H899.5V175.75H929.042ZM978.337 175.75V310H948.795V175.75H978.337ZM1042.32 311.748C1034.62 311.748 1027.75 310.554 1021.69 308.165C1015.63 305.717 1010.5 302.367 1006.31 298.113C1002.17 293.86 998.993 288.965 996.779 283.43C994.623 277.894 993.545 272.038 993.545 265.862V262.541C993.545 255.607 994.507 249.197 996.43 243.312C998.353 237.369 1001.21 232.183 1005 227.754C1008.78 223.326 1013.53 219.888 1019.24 217.441C1024.95 214.935 1031.59 213.683 1039.17 213.683C1045.87 213.683 1051.87 214.761 1057.17 216.917C1062.48 219.072 1066.96 222.161 1070.63 226.181C1074.36 230.202 1077.19 235.067 1079.11 240.777C1081.09 246.488 1082.08 252.897 1082.08 260.006V271.98H1004.82V253.538H1053.33V251.266C1053.39 248.119 1052.83 245.439 1051.67 243.225C1050.56 241.01 1048.93 239.321 1046.77 238.155C1044.62 236.99 1042 236.407 1038.91 236.407C1035.7 236.407 1033.05 237.106 1030.95 238.505C1028.91 239.903 1027.31 241.826 1026.15 244.273C1025.04 246.662 1024.25 249.43 1023.79 252.577C1023.32 255.723 1023.09 259.044 1023.09 262.541V265.862C1023.09 269.358 1023.55 272.534 1024.49 275.389C1025.48 278.244 1026.87 280.691 1028.68 282.73C1030.55 284.712 1032.76 286.256 1035.32 287.363C1037.95 288.47 1040.92 289.023 1044.24 289.023C1048.26 289.023 1052.22 288.266 1056.13 286.751C1060.03 285.236 1063.38 282.73 1066.18 279.234L1079.55 295.142C1077.63 297.88 1074.89 300.531 1071.33 303.095C1067.84 305.659 1063.64 307.757 1058.75 309.388C1053.85 310.961 1048.38 311.748 1042.32 311.748ZM1123.77 238.854V310H1094.32V215.431H1121.85L1123.77 238.854ZM1151.74 214.731L1151.22 242.088C1150.05 241.972 1148.48 241.826 1146.5 241.651C1144.52 241.477 1142.86 241.389 1141.52 241.389C1138.08 241.389 1135.11 241.797 1132.6 242.613C1130.16 243.37 1128.12 244.536 1126.48 246.109C1124.91 247.624 1123.75 249.547 1122.99 251.877C1122.29 254.208 1121.97 256.918 1122.03 260.006L1116.7 256.51C1116.7 250.159 1117.31 244.39 1118.53 239.204C1119.81 233.96 1121.62 229.444 1123.95 225.657C1126.28 221.811 1129.11 218.868 1132.43 216.829C1135.75 214.731 1139.48 213.683 1143.62 213.683C1145.07 213.683 1146.5 213.77 1147.9 213.945C1149.35 214.12 1150.64 214.382 1151.74 214.731ZM1205.93 311.748C1198.24 311.748 1191.37 310.554 1185.31 308.165C1179.25 305.717 1174.12 302.367 1169.92 298.113C1165.79 293.86 1162.61 288.965 1160.4 283.43C1158.24 277.894 1157.16 272.038 1157.16 265.862V262.541C1157.16 255.607 1158.12 249.197 1160.05 243.312C1161.97 237.369 1164.82 232.183 1168.61 227.754C1172.4 223.326 1177.15 219.888 1182.86 217.441C1188.57 214.935 1195.21 213.683 1202.79 213.683C1209.49 213.683 1215.49 214.761 1220.79 216.917C1226.09 219.072 1230.58 222.161 1234.25 226.181C1237.98 230.202 1240.81 235.067 1242.73 240.777C1244.71 246.488 1245.7 252.897 1245.7 260.006V271.98H1168.44V253.538H1216.95V251.266C1217 248.119 1216.45 245.439 1215.29 243.225C1214.18 241.01 1212.55 239.321 1210.39 238.155C1208.23 236.99 1205.61 236.407 1202.52 236.407C1199.32 236.407 1196.67 237.106 1194.57 238.505C1192.53 239.903 1190.93 241.826 1189.76 244.273C1188.66 246.662 1187.87 249.43 1187.4 252.577C1186.94 255.723 1186.7 259.044 1186.7 262.541V265.862C1186.7 269.358 1187.17 272.534 1188.1 275.389C1189.09 278.244 1190.49 280.691 1192.3 282.73C1194.16 284.712 1196.38 286.256 1198.94 287.363C1201.56 288.47 1204.53 289.023 1207.86 289.023C1211.88 289.023 1215.84 288.266 1219.74 286.751C1223.65 285.236 1227 282.73 1229.79 279.234L1243.17 295.142C1241.24 297.88 1238.51 300.531 1234.95 303.095C1231.45 305.659 1227.26 307.757 1222.36 309.388C1217.47 310.961 1211.99 311.748 1205.93 311.748ZM1286.61 235.621V310H1257.15V215.431H1284.77L1286.61 235.621ZM1283.11 259.481L1276.2 259.656C1276.2 252.431 1277.08 245.992 1278.83 240.34C1280.57 234.63 1283.05 229.794 1286.26 225.832C1289.46 221.869 1293.28 218.868 1297.71 216.829C1302.19 214.731 1307.17 213.683 1312.65 213.683C1317.02 213.683 1321.01 214.324 1324.63 215.605C1328.3 216.887 1331.44 218.956 1334.06 221.811C1336.75 224.666 1338.78 228.454 1340.18 233.173C1341.64 237.835 1342.37 243.603 1342.37 250.479V310H1312.74V250.392C1312.74 246.604 1312.21 243.72 1311.17 241.739C1310.12 239.699 1308.6 238.301 1306.62 237.543C1304.64 236.786 1302.22 236.407 1299.37 236.407C1296.34 236.407 1293.77 236.99 1291.67 238.155C1289.58 239.321 1287.89 240.952 1286.61 243.05C1285.38 245.089 1284.48 247.507 1283.9 250.304C1283.37 253.101 1283.11 256.16 1283.11 259.481Z"/><path fill="url(#paint1_linear_230_34)" d="M528.303 182.742V310H497.712V182.742H528.303ZM577.423 235.621V310H547.968V215.431H575.587L577.423 235.621ZM573.927 259.481L567.022 259.656C567.022 252.431 567.896 245.992 569.644 240.34C571.392 234.63 573.868 229.794 577.073 225.832C580.278 221.869 584.095 218.868 588.523 216.829C593.01 214.731 597.992 213.683 603.469 213.683C607.839 213.683 611.83 214.324 615.443 215.605C619.114 216.887 622.26 218.956 624.882 221.811C627.563 224.666 629.602 228.454 631 233.173C632.457 237.835 633.186 243.603 633.186 250.479V310H603.556V250.392C603.556 246.604 603.032 243.72 601.983 241.739C600.934 239.699 599.419 238.301 597.438 237.543C595.457 236.786 593.039 236.407 590.184 236.407C587.154 236.407 584.59 236.99 582.492 238.155C580.395 239.321 578.705 240.952 577.423 243.05C576.199 245.089 575.296 247.507 574.713 250.304C574.189 253.101 573.927 256.16 573.927 259.481ZM699.087 283.43C699.087 281.798 698.533 280.4 697.426 279.234C696.377 278.011 694.513 276.904 691.833 275.913C689.152 274.864 685.394 273.815 680.558 272.767C675.954 271.776 671.613 270.465 667.535 268.833C663.514 267.202 659.989 265.221 656.959 262.89C653.929 260.559 651.54 257.792 649.792 254.587C648.102 251.382 647.257 247.711 647.257 243.574C647.257 239.554 648.102 235.766 649.792 232.212C651.54 228.599 654.075 225.424 657.396 222.685C660.776 219.888 664.883 217.703 669.72 216.13C674.556 214.498 680.062 213.683 686.239 213.683C694.746 213.683 702.088 214.994 708.264 217.616C714.441 220.18 719.189 223.792 722.511 228.454C725.89 233.057 727.58 238.388 727.58 244.448H698.125C698.125 242.059 697.718 240.02 696.902 238.33C696.144 236.64 694.892 235.358 693.144 234.484C691.396 233.552 689.065 233.086 686.151 233.086C684.112 233.086 682.247 233.465 680.558 234.222C678.926 234.98 677.615 236.028 676.625 237.369C675.634 238.709 675.139 240.282 675.139 242.088C675.139 243.37 675.43 244.536 676.013 245.584C676.654 246.575 677.615 247.507 678.897 248.381C680.179 249.197 681.81 249.955 683.792 250.654C685.773 251.295 688.162 251.877 690.958 252.402C697.31 253.567 703.253 255.228 708.789 257.384C714.324 259.54 718.811 262.599 722.249 266.561C725.745 270.523 727.493 275.855 727.493 282.556C727.493 286.751 726.531 290.626 724.608 294.18C722.686 297.676 719.918 300.764 716.305 303.445C712.693 306.067 708.352 308.106 703.282 309.563C698.213 311.02 692.503 311.748 686.151 311.748C677.12 311.748 669.487 310.146 663.252 306.941C657.017 303.678 652.298 299.599 649.093 294.705C645.946 289.752 644.373 284.741 644.373 279.671H671.817C671.934 282.585 672.633 284.974 673.915 286.838C675.255 288.703 677.032 290.072 679.247 290.946C681.461 291.82 684.025 292.257 686.938 292.257C689.618 292.257 691.833 291.879 693.581 291.121C695.387 290.364 696.756 289.344 697.688 288.062C698.621 286.722 699.087 285.178 699.087 283.43ZM791.122 215.431V235.883H734.135V215.431H791.122ZM746.109 191.919H775.564V279.147C775.564 281.653 775.855 283.604 776.438 285.003C777.021 286.343 778.011 287.305 779.41 287.887C780.866 288.412 782.789 288.674 785.178 288.674C786.868 288.674 788.266 288.645 789.374 288.586C790.481 288.47 791.529 288.324 792.52 288.149V309.213C790.014 310.029 787.392 310.641 784.654 311.049C781.915 311.515 779.002 311.748 775.914 311.748C769.621 311.748 764.231 310.757 759.744 308.776C755.316 306.795 751.936 303.678 749.605 299.424C747.275 295.171 746.109 289.635 746.109 282.818V191.919ZM851.954 286.227V247.245C851.954 244.565 851.575 242.263 850.817 240.34C850.06 238.417 848.865 236.932 847.234 235.883C845.602 234.776 843.417 234.222 840.679 234.222C838.465 234.222 836.571 234.601 834.998 235.358C833.424 236.116 832.23 237.252 831.414 238.767C830.598 240.282 830.19 242.205 830.19 244.536H800.736C800.736 240.166 801.697 236.116 803.62 232.387C805.601 228.599 808.398 225.307 812.011 222.51C815.682 219.713 820.052 217.557 825.121 216.042C830.249 214.469 835.959 213.683 842.252 213.683C849.769 213.683 856.469 214.935 862.354 217.441C868.298 219.946 872.988 223.705 876.426 228.716C879.864 233.669 881.583 239.903 881.583 247.42V286.139C881.583 292.316 881.933 297.006 882.632 300.211C883.331 303.357 884.322 306.125 885.604 308.514V310H856.062C854.663 307.087 853.614 303.532 852.915 299.337C852.274 295.083 851.954 290.713 851.954 286.227ZM855.537 252.227L855.712 267.959H842.689C839.95 267.959 837.62 268.338 835.697 269.096C833.832 269.853 832.317 270.902 831.152 272.242C830.045 273.524 829.229 274.981 828.705 276.612C828.238 278.244 828.005 279.963 828.005 281.769C828.005 283.517 828.413 285.09 829.229 286.489C830.103 287.829 831.268 288.878 832.725 289.635C834.182 290.393 835.813 290.771 837.62 290.771C840.883 290.771 843.65 290.16 845.923 288.936C848.254 287.654 850.031 286.11 851.254 284.304C852.478 282.497 853.09 280.808 853.09 279.234L859.558 291.296C858.392 293.627 857.052 295.986 855.537 298.375C854.08 300.764 852.245 302.979 850.031 305.018C847.875 306.999 845.224 308.631 842.077 309.913C838.931 311.136 835.114 311.748 830.627 311.748C824.801 311.748 819.44 310.554 814.545 308.165C809.709 305.776 805.834 302.454 802.921 298.201C800.007 293.889 798.551 288.936 798.551 283.342C798.551 278.448 799.425 274.078 801.173 270.232C802.979 266.386 805.689 263.123 809.301 260.443C812.914 257.763 817.517 255.723 823.111 254.325C828.705 252.926 835.289 252.227 842.864 252.227H855.537ZM929.042 175.75V310H899.5V175.75H929.042ZM978.337 175.75V310H948.795V175.75H978.337ZM1042.32 311.748C1034.62 311.748 1027.75 310.554 1021.69 308.165C1015.63 305.717 1010.5 302.367 1006.31 298.113C1002.17 293.86 998.993 288.965 996.779 283.43C994.623 277.894 993.545 272.038 993.545 265.862V262.541C993.545 255.607 994.507 249.197 996.43 243.312C998.353 237.369 1001.21 232.183 1005 227.754C1008.78 223.326 1013.53 219.888 1019.24 217.441C1024.95 214.935 1031.59 213.683 1039.17 213.683C1045.87 213.683 1051.87 214.761 1057.17 216.917C1062.48 219.072 1066.96 222.161 1070.63 226.181C1074.36 230.202 1077.19 235.067 1079.11 240.777C1081.09 246.488 1082.08 252.897 1082.08 260.006V271.98H1004.82V253.538H1053.33V251.266C1053.39 248.119 1052.83 245.439 1051.67 243.225C1050.56 241.01 1048.93 239.321 1046.77 238.155C1044.62 236.99 1042 236.407 1038.91 236.407C1035.7 236.407 1033.05 237.106 1030.95 238.505C1028.91 239.903 1027.31 241.826 1026.15 244.273C1025.04 246.662 1024.25 249.43 1023.79 252.577C1023.32 255.723 1023.09 259.044 1023.09 262.541V265.862C1023.09 269.358 1023.55 272.534 1024.49 275.389C1025.48 278.244 1026.87 280.691 1028.68 282.73C1030.55 284.712 1032.76 286.256 1035.32 287.363C1037.95 288.47 1040.92 289.023 1044.24 289.023C1048.26 289.023 1052.22 288.266 1056.13 286.751C1060.03 285.236 1063.38 282.73 1066.18 279.234L1079.55 295.142C1077.63 297.88 1074.89 300.531 1071.33 303.095C1067.84 305.659 1063.64 307.757 1058.75 309.388C1053.85 310.961 1048.38 311.748 1042.32 311.748ZM1123.77 238.854V310H1094.32V215.431H1121.85L1123.77 238.854ZM1151.74 214.731L1151.22 242.088C1150.05 241.972 1148.48 241.826 1146.5 241.651C1144.52 241.477 1142.86 241.389 1141.52 241.389C1138.08 241.389 1135.11 241.797 1132.6 242.613C1130.16 243.37 1128.12 244.536 1126.48 246.109C1124.91 247.624 1123.75 249.547 1122.99 251.877C1122.29 254.208 1121.97 256.918 1122.03 260.006L1116.7 256.51C1116.7 250.159 1117.31 244.39 1118.53 239.204C1119.81 233.96 1121.62 229.444 1123.95 225.657C1126.28 221.811 1129.11 218.868 1132.43 216.829C1135.75 214.731 1139.48 213.683 1143.62 213.683C1145.07 213.683 1146.5 213.77 1147.9 213.945C1149.35 214.12 1150.64 214.382 1151.74 214.731ZM1205.93 311.748C1198.24 311.748 1191.37 310.554 1185.31 308.165C1179.25 305.717 1174.12 302.367 1169.92 298.113C1165.79 293.86 1162.61 288.965 1160.4 283.43C1158.24 277.894 1157.16 272.038 1157.16 265.862V262.541C1157.16 255.607 1158.12 249.197 1160.05 243.312C1161.97 237.369 1164.82 232.183 1168.61 227.754C1172.4 223.326 1177.15 219.888 1182.86 217.441C1188.57 214.935 1195.21 213.683 1202.79 213.683C1209.49 213.683 1215.49 214.761 1220.79 216.917C1226.09 219.072 1230.58 222.161 1234.25 226.181C1237.98 230.202 1240.81 235.067 1242.73 240.777C1244.71 246.488 1245.7 252.897 1245.7 260.006V271.98H1168.44V253.538H1216.95V251.266C1217 248.119 1216.45 245.439 1215.29 243.225C1214.18 241.01 1212.55 239.321 1210.39 238.155C1208.23 236.99 1205.61 236.407 1202.52 236.407C1199.32 236.407 1196.67 237.106 1194.57 238.505C1192.53 239.903 1190.93 241.826 1189.76 244.273C1188.66 246.662 1187.87 249.43 1187.4 252.577C1186.94 255.723 1186.7 259.044 1186.7 262.541V265.862C1186.7 269.358 1187.17 272.534 1188.1 275.389C1189.09 278.244 1190.49 280.691 1192.3 282.73C1194.16 284.712 1196.38 286.256 1198.94 287.363C1201.56 288.47 1204.53 289.023 1207.86 289.023C1211.88 289.023 1215.84 288.266 1219.74 286.751C1223.65 285.236 1227 282.73 1229.79 279.234L1243.17 295.142C1241.24 297.88 1238.51 300.531 1234.95 303.095C1231.45 305.659 1227.26 307.757 1222.36 309.388C1217.47 310.961 1211.99 311.748 1205.93 311.748ZM1286.61 235.621V310H1257.15V215.431H1284.77L1286.61 235.621ZM1283.11 259.481L1276.2 259.656C1276.2 252.431 1277.08 245.992 1278.83 240.34C1280.57 234.63 1283.05 229.794 1286.26 225.832C1289.46 221.869 1293.28 218.868 1297.71 216.829C1302.19 214.731 1307.17 213.683 1312.65 213.683C1317.02 213.683 1321.01 214.324 1324.63 215.605C1328.3 216.887 1331.44 218.956 1334.06 221.811C1336.75 224.666 1338.78 228.454 1340.18 233.173C1341.64 237.835 1342.37 243.603 1342.37 250.479V310H1312.74V250.392C1312.74 246.604 1312.21 243.72 1311.17 241.739C1310.12 239.699 1308.6 238.301 1306.62 237.543C1304.64 236.786 1302.22 236.407 1299.37 236.407C1296.34 236.407 1293.77 236.99 1291.67 238.155C1289.58 239.321 1287.89 240.952 1286.61 243.05C1285.38 245.089 1284.48 247.507 1283.9 250.304C1283.37 253.101 1283.11 256.16 1283.11 259.481Z"/><defs><linearGradient id="paint0_linear_230_34" x1="0" x2="88.064" y1=".777" y2="9.505" gradientUnits="userSpaceOnUse"><stop stop-color="#00E1C3"/><stop offset="1" stop-color="#00D1D5"/></linearGradient><linearGradient id="paint1_linear_230_34" x1="486" x2="574.807" y1="144.371" y2="553.364" gradientUnits="userSpaceOnUse"><stop stop-color="#00E1C3"/><stop offset="1" stop-color="#00D1D5"/></linearGradient><clipPath id="clip0_230_34"><rect width="183" height="183" fill="#fff" transform="translate(189 134.5)"/></clipPath></defs></svg>