<svg xmlns="http://www.w3.org/2000/svg" xmlns:xlink="http://www.w3.org/1999/xlink" width="100%" height="100%" version="1.1" viewBox="0 0 512 512" xml:space="preserve" style="fill-rule:evenodd;clip-rule:evenodd;stroke-linejoin:round;stroke-miterlimit:2"><g><path d="M318.761,269.869C329.456,263.716 329.456,248.285 318.761,242.132L280.096,219.886L319.969,201.293L336.714,210.927L390.951,242.132C401.646,248.285 401.646,263.716 390.951,269.869L336.732,301.062L336.714,301.073L318.643,311.47L278.77,292.877L318.761,269.869ZM197,294.468L197,312.264C197.005,324.563 210.308,332.258 220.971,326.13L220.979,326.126L240.637,314.816L280.509,333.409L238.932,357.33L238.904,357.346L184.979,388.371C174.312,394.508 161,386.808 161,374.502L161,277.681L197,294.468ZM281.835,179.354L241.962,197.947L220.979,185.874L220.966,185.867C210.302,179.744 197,187.442 197,199.743L197,218.913L161,235.7L161,137.498C161,125.192 174.312,117.492 184.979,123.629L238.925,154.666L238.932,154.67L281.835,179.354Z" transform="matrix(1.84351,0,0,1.84351,-236.17,-215.938)" style="fill:#fff"/></g></svg>