<svg xmlns="http://www.w3.org/2000/svg" xmlns:xlink="http://www.w3.org/1999/xlink" width="100%" height="100%" version="1.1" viewBox="0 0 512 512" xml:space="preserve" style="fill-rule:evenodd;clip-rule:evenodd;stroke-linejoin:round;stroke-miterlimit:2"><g><path d="M157.768,142.391C168.454,136.236 168.454,120.814 157.766,114.66L157.761,114.658L121.527,93.811L161.399,75.218L175.714,83.453L175.736,83.466L216.392,106.857C233.102,116.471 233.102,140.582 216.392,150.196L175.743,173.582L175.714,173.599L158.778,183.343L118.905,164.75L157.761,142.395L157.768,142.391ZM36,163.605L36,184.79C36.005,197.092 49.314,204.788 59.979,198.652L82.89,185.471L122.763,204.063L77.932,229.856L77.903,229.873L37.467,253.137C20.801,262.726 0,250.695 0,231.467L0,146.818L36,163.605ZM125.384,54.497L85.512,73.09L59.979,58.4L59.964,58.392C49.3,52.27 36,59.968 36,72.269L36,96.178L0,112.965L0,25.585C0,6.357 20.801,-5.673 37.467,3.916L77.917,27.187L77.932,27.196L125.384,54.497Z" transform="matrix(1.99234,0,0,1.99234,52.4337,-0.543689)" style="fill:#fff"/></g></svg>