<svg xmlns="http://www.w3.org/2000/svg" width="1419" height="440" fill="none" viewBox="0 0 1419 440"><path fill="#132636" d="M3 37C3 16.5655 19.5655 0 40 0H1370.79C1395.12 0 1412.82 23.0696 1406.54 46.5669L1308.84 411.567C1304.51 427.747 1289.84 439 1273.09 439H40.0001C19.5655 439 3 422.435 3 402V37Z"/><path fill="#132636" d="M0 37C0 16.5655 16.5655 0 37 0H39V440H37C16.5655 440 0 423.435 0 403V37Z"/><path fill="url(#paint0_linear_272_14)" d="M0 37C0 16.5655 16.5655 0 37 0H39V440H37C16.5655 440 0 423.435 0 403V37Z"/><g clip-path="url(#clip0_272_14)"><path fill="#01D8CE" d="M324.112 144.293C326.467 141.855 329.284 139.91 332.398 138.572C335.513 137.235 338.862 136.53 342.252 136.501C345.641 136.472 349.002 137.117 352.139 138.401C355.277 139.684 358.127 141.58 360.523 143.977C362.92 146.373 364.816 149.223 366.099 152.361C367.383 155.498 368.028 158.859 367.999 162.248C367.97 165.638 367.265 168.987 365.928 172.102C364.59 175.216 362.645 178.033 360.207 180.388L350.086 190.509L313.991 154.414L324.112 144.293V144.293ZM295.944 172.462L189 279.405V315.5H225.095L332.051 208.556L295.931 172.462H295.944Z"/></g><path fill="#fff" d="M503.011 147.114L512.627 111.789H525.101L509.517 158H501.456L503.011 147.114ZM494.283 111.789L503.899 147.114L505.518 158H497.361L481.873 111.789H494.283ZM547.159 149.653V123.659H557.886V158H547.857L547.159 149.653ZM548.174 142.67L550.967 142.607C550.967 144.913 550.692 147.05 550.142 149.018C549.592 150.965 548.777 152.657 547.698 154.096C546.64 155.535 545.328 156.656 543.763 157.46C542.218 158.243 540.43 158.635 538.399 158.635C536.706 158.635 535.151 158.402 533.733 157.937C532.337 157.45 531.131 156.699 530.115 155.683C529.1 154.646 528.306 153.324 527.735 151.716C527.185 150.087 526.91 148.14 526.91 145.876V123.659H537.605V145.939C537.605 146.701 537.701 147.357 537.891 147.907C538.082 148.457 538.357 148.923 538.716 149.304C539.076 149.663 539.52 149.938 540.049 150.129C540.599 150.298 541.224 150.383 541.922 150.383C543.53 150.383 544.789 150.044 545.699 149.367C546.609 148.69 547.243 147.77 547.603 146.606C547.984 145.442 548.174 144.13 548.174 142.67ZM580.42 158.635C577.627 158.635 575.131 158.201 572.93 157.333C570.73 156.445 568.868 155.228 567.344 153.684C565.842 152.139 564.689 150.362 563.885 148.352C563.102 146.341 562.71 144.215 562.71 141.972V140.766C562.71 138.248 563.06 135.921 563.758 133.784C564.456 131.625 565.493 129.742 566.868 128.134C568.243 126.526 569.968 125.278 572.042 124.389C574.115 123.479 576.527 123.024 579.278 123.024C581.711 123.024 583.89 123.416 585.816 124.199C587.741 124.982 589.371 126.103 590.704 127.563C592.058 129.023 593.084 130.79 593.782 132.863C594.502 134.937 594.861 137.264 594.861 139.846V144.194H566.805V137.497H584.419V136.672C584.441 135.529 584.24 134.556 583.816 133.752C583.414 132.948 582.822 132.334 582.039 131.911C581.256 131.488 580.304 131.276 579.183 131.276C578.019 131.276 577.056 131.53 576.294 132.038C575.554 132.546 574.972 133.244 574.549 134.133C574.147 135 573.861 136.005 573.692 137.148C573.523 138.291 573.438 139.497 573.438 140.766V141.972C573.438 143.242 573.607 144.395 573.946 145.432C574.306 146.468 574.813 147.357 575.469 148.098C576.146 148.817 576.95 149.378 577.881 149.78C578.833 150.182 579.913 150.383 581.119 150.383C582.579 150.383 584.017 150.108 585.435 149.558C586.853 149.007 588.069 148.098 589.085 146.828L593.941 152.604C593.243 153.599 592.248 154.562 590.958 155.493C589.688 156.424 588.165 157.185 586.387 157.778C584.61 158.349 582.621 158.635 580.42 158.635ZM622.093 111.789V158H610.953V111.789H622.093ZM635.994 111.789V120.39H597.369V111.789H635.994ZM658.179 149.653V123.659H668.907V158H658.877L658.179 149.653ZM659.195 142.67L661.988 142.607C661.988 144.913 661.713 147.05 661.163 149.018C660.612 150.965 659.798 152.657 658.719 154.096C657.661 155.535 656.349 156.656 654.783 157.46C653.239 158.243 651.451 158.635 649.419 158.635C647.727 158.635 646.172 158.402 644.754 157.937C643.357 157.45 642.151 156.699 641.136 155.683C640.12 154.646 639.327 153.324 638.755 151.716C638.205 150.087 637.93 148.14 637.93 145.876V123.659H648.626V145.939C648.626 146.701 648.721 147.357 648.912 147.907C649.102 148.457 649.377 148.923 649.737 149.304C650.097 149.663 650.541 149.938 651.07 150.129C651.62 150.298 652.244 150.383 652.942 150.383C654.55 150.383 655.809 150.044 656.719 149.367C657.629 148.69 658.264 147.77 658.624 146.606C659.004 145.442 659.195 144.13 659.195 142.67ZM674.905 109.25H685.601V149.558L684.49 158H674.905V109.25ZM706.675 140.449V141.115C706.675 143.718 706.411 146.088 705.882 148.225C705.353 150.362 704.538 152.213 703.438 153.779C702.338 155.323 700.952 156.519 699.28 157.365C697.609 158.212 695.63 158.635 693.345 158.635C691.272 158.635 689.494 158.19 688.013 157.302C686.532 156.392 685.294 155.144 684.3 153.557C683.305 151.949 682.501 150.097 681.888 148.002C681.274 145.887 680.787 143.623 680.428 141.21V140.417C680.787 138.026 681.274 135.783 681.888 133.688C682.501 131.573 683.305 129.721 684.3 128.134C685.294 126.526 686.521 125.278 687.981 124.389C689.463 123.479 691.229 123.024 693.282 123.024C695.588 123.024 697.577 123.458 699.249 124.326C700.941 125.193 702.338 126.41 703.438 127.976C704.538 129.541 705.353 131.382 705.882 133.498C706.411 135.614 706.675 137.931 706.675 140.449ZM695.979 141.115V140.449C695.979 139.2 695.905 138.026 695.757 136.926C695.609 135.826 695.345 134.852 694.964 134.006C694.583 133.16 694.043 132.493 693.345 132.006C692.647 131.52 691.737 131.276 690.616 131.276C689.473 131.276 688.51 131.467 687.728 131.848C686.966 132.229 686.352 132.779 685.887 133.498C685.442 134.196 685.125 135.064 684.935 136.101C684.744 137.116 684.66 138.269 684.681 139.56V142.067C684.638 143.824 684.797 145.326 685.157 146.574C685.516 147.823 686.141 148.775 687.029 149.431C687.918 150.087 689.135 150.415 690.679 150.415C691.822 150.415 692.742 150.192 693.44 149.748C694.16 149.304 694.699 148.669 695.059 147.844C695.419 147.019 695.662 146.035 695.789 144.892C695.916 143.75 695.979 142.491 695.979 141.115ZM728.067 158.635C725.274 158.635 722.777 158.201 720.577 157.333C718.376 156.445 716.514 155.228 714.991 153.684C713.488 152.139 712.335 150.362 711.531 148.352C710.748 146.341 710.357 144.215 710.357 141.972V140.766C710.357 138.248 710.706 135.921 711.404 133.784C712.103 131.625 713.139 129.742 714.515 128.134C715.89 126.526 717.614 125.278 719.688 124.389C721.762 123.479 724.174 123.024 726.924 123.024C729.358 123.024 731.537 123.416 733.462 124.199C735.388 124.982 737.017 126.103 738.35 127.563C739.704 129.023 740.73 130.79 741.429 132.863C742.148 134.937 742.508 137.264 742.508 139.846V144.194H714.451V137.497H732.066V136.672C732.087 135.529 731.886 134.556 731.463 133.752C731.061 132.948 730.468 132.334 729.686 131.911C728.903 131.488 727.951 131.276 726.829 131.276C725.665 131.276 724.703 131.53 723.941 132.038C723.2 132.546 722.618 133.244 722.195 134.133C721.793 135 721.508 136.005 721.338 137.148C721.169 138.291 721.084 139.497 721.084 140.766V141.972C721.084 143.242 721.254 144.395 721.592 145.432C721.952 146.468 722.46 147.357 723.116 148.098C723.793 148.817 724.597 149.378 725.528 149.78C726.48 150.182 727.559 150.383 728.765 150.383C730.225 150.383 731.664 150.108 733.082 149.558C734.499 149.007 735.716 148.098 736.731 146.828L741.587 152.604C740.889 153.599 739.895 154.562 738.604 155.493C737.334 156.424 735.811 157.185 734.034 157.778C732.256 158.349 730.267 158.635 728.067 158.635Z"/><path fill="#fff" d="M598.507 182.742V310H567.829V206.428H522.118V310H491.527V182.742H598.507ZM680.491 215.431V238.155H633.643V215.431H680.491ZM700.855 215.431V310H671.401V215.431H700.855ZM626.214 215.431H654.969L652.347 264.114C651.998 270.873 651.211 276.787 649.987 281.856C648.822 286.926 647.249 291.267 645.268 294.879C643.345 298.434 641.043 301.347 638.363 303.62C635.682 305.834 632.653 307.465 629.273 308.514C625.893 309.505 622.222 310 618.26 310H609.345L608.908 287.45L612.055 287.101C613.628 286.926 615.026 286.401 616.25 285.527C617.474 284.653 618.552 283.43 619.484 281.856C620.416 280.283 621.203 278.273 621.844 275.826C622.543 273.378 623.097 270.494 623.504 267.173C623.971 263.852 624.291 260.035 624.466 255.723L626.214 215.431ZM766.145 286.227V247.245C766.145 244.565 765.766 242.263 765.009 240.34C764.251 238.417 763.057 236.932 761.425 235.883C759.794 234.776 757.609 234.222 754.87 234.222C752.656 234.222 750.762 234.601 749.189 235.358C747.616 236.116 746.421 237.252 745.605 238.767C744.79 240.282 744.382 242.205 744.382 244.536H714.927C714.927 240.166 715.889 236.116 717.812 232.387C719.793 228.599 722.59 225.307 726.202 222.51C729.873 219.713 734.243 217.557 739.312 216.042C744.44 214.469 750.15 213.683 756.443 213.683C763.96 213.683 770.661 214.935 776.546 217.441C782.489 219.946 787.18 223.705 790.618 228.716C794.056 233.669 795.774 239.903 795.774 247.42V286.139C795.774 292.316 796.124 297.006 796.823 300.211C797.522 303.357 798.513 306.125 799.795 308.514V310H770.253C768.854 307.087 767.806 303.532 767.106 299.337C766.465 295.083 766.145 290.713 766.145 286.227ZM769.729 252.227L769.903 267.959H756.88C754.142 267.959 751.811 268.338 749.888 269.096C748.024 269.853 746.509 270.902 745.343 272.242C744.236 273.524 743.42 274.981 742.896 276.612C742.43 278.244 742.197 279.963 742.197 281.769C742.197 283.517 742.605 285.09 743.42 286.489C744.294 287.829 745.46 288.878 746.917 289.635C748.373 290.393 750.005 290.771 751.811 290.771C755.074 290.771 757.842 290.16 760.114 288.936C762.445 287.654 764.222 286.11 765.446 284.304C766.669 282.497 767.281 280.808 767.281 279.234L773.749 291.296C772.584 293.627 771.243 295.986 769.729 298.375C768.272 300.764 766.436 302.979 764.222 305.018C762.066 306.999 759.415 308.631 756.269 309.913C753.122 311.136 749.306 311.748 744.819 311.748C738.992 311.748 733.631 310.554 728.737 308.165C723.901 305.776 720.026 302.454 717.112 298.201C714.199 293.889 712.742 288.936 712.742 283.342C712.742 278.448 713.616 274.078 715.364 270.232C717.171 266.386 719.88 263.123 723.493 260.443C727.105 257.763 731.708 255.723 737.302 254.325C742.896 252.926 749.48 252.227 757.055 252.227H769.729ZM877.496 252.314V274.952H830.298V252.314H877.496ZM841.049 215.431V310H811.594V215.431H841.049ZM896.375 215.431V310H866.833V215.431H896.375ZM908.96 263.677V261.841C908.96 254.907 909.951 248.527 911.932 242.7C913.913 236.815 916.827 231.717 920.672 227.405C924.518 223.093 929.267 219.743 934.919 217.354C940.571 214.906 947.097 213.683 954.497 213.683C961.955 213.683 968.511 214.906 974.163 217.354C979.873 219.743 984.651 223.093 988.497 227.405C992.342 231.717 995.256 236.815 997.237 242.7C999.218 248.527 1000.21 254.907 1000.21 261.841V263.677C1000.21 270.552 999.218 276.933 997.237 282.818C995.256 288.645 992.342 293.743 988.497 298.113C984.651 302.425 979.902 305.776 974.25 308.165C968.598 310.554 962.072 311.748 954.672 311.748C947.272 311.748 940.717 310.554 935.006 308.165C929.296 305.776 924.518 302.425 920.672 298.113C916.827 293.743 913.913 288.645 911.932 282.818C909.951 276.933 908.96 270.552 908.96 263.677ZM938.415 261.841V263.677C938.415 267.231 938.677 270.552 939.202 273.641C939.726 276.729 940.6 279.438 941.824 281.769C943.047 284.042 944.708 285.819 946.806 287.101C948.903 288.382 951.525 289.023 954.672 289.023C957.76 289.023 960.324 288.382 962.363 287.101C964.461 285.819 966.122 284.042 967.345 281.769C968.569 279.438 969.443 276.729 969.967 273.641C970.492 270.552 970.754 267.231 970.754 263.677V261.841C970.754 258.403 970.492 255.17 969.967 252.14C969.443 249.051 968.569 246.342 967.345 244.011C966.122 241.622 964.461 239.758 962.363 238.417C960.266 237.077 957.644 236.407 954.497 236.407C951.409 236.407 948.816 237.077 946.718 238.417C944.679 239.758 943.047 241.622 941.824 244.011C940.6 246.342 939.726 249.051 939.202 252.14C938.677 255.17 938.415 258.403 938.415 261.841ZM1062 271.456H1032.98L1032.81 253.276H1056.93C1059.32 253.276 1061.22 253.014 1062.61 252.489C1064.07 251.965 1065.09 251.178 1065.67 250.129C1066.31 249.022 1066.63 247.711 1066.63 246.196C1066.63 244.681 1066.4 243.399 1065.94 242.351C1065.53 241.302 1064.86 240.457 1063.92 239.816C1063.05 239.175 1061.94 238.709 1060.6 238.417C1059.26 238.126 1057.69 237.98 1055.88 237.98H1044.78V310H1015.33V215.431H1055.88C1062.12 215.431 1067.71 215.984 1072.67 217.091C1077.62 218.14 1081.81 219.772 1085.25 221.986C1088.75 224.142 1091.43 226.88 1093.29 230.202C1095.16 233.523 1096.09 237.427 1096.09 241.914C1096.09 244.827 1095.39 247.566 1093.99 250.129C1092.59 252.693 1090.52 254.966 1087.79 256.947C1085.11 258.928 1081.78 260.559 1077.82 261.841C1073.86 263.065 1069.31 263.822 1064.19 264.114L1062 271.456ZM1062 310H1026.6L1035.61 287.45H1062C1064.45 287.45 1066.43 287.159 1067.95 286.576C1069.46 285.993 1070.57 285.119 1071.27 283.954C1071.97 282.789 1072.32 281.361 1072.32 279.671C1072.32 278.04 1072.02 276.612 1071.44 275.389C1070.86 274.165 1069.81 273.204 1068.29 272.504C1066.84 271.805 1064.74 271.456 1062 271.456H1038.93L1039.1 253.276H1064.01L1070.31 260.705C1077.65 261.113 1083.62 262.366 1088.22 264.463C1092.88 266.561 1096.29 269.212 1098.45 272.417C1100.66 275.622 1101.77 279.147 1101.77 282.993C1101.77 287.479 1100.9 291.412 1099.15 294.792C1097.46 298.172 1094.92 300.998 1091.54 303.27C1088.16 305.484 1084 307.174 1079.05 308.339C1074.15 309.446 1068.47 310 1062 310ZM1159.63 311.748C1151.94 311.748 1145.06 310.554 1139 308.165C1132.94 305.717 1127.82 302.367 1123.62 298.113C1119.48 293.86 1116.31 288.965 1114.09 283.43C1111.94 277.894 1110.86 272.038 1110.86 265.862V262.541C1110.86 255.607 1111.82 249.197 1113.74 243.312C1115.67 237.369 1118.52 232.183 1122.31 227.754C1126.1 223.326 1130.85 219.888 1136.56 217.441C1142.27 214.935 1148.91 213.683 1156.48 213.683C1163.18 213.683 1169.19 214.761 1174.49 216.917C1179.79 219.072 1184.28 222.161 1187.95 226.181C1191.68 230.202 1194.5 235.067 1196.43 240.777C1198.41 246.488 1199.4 252.897 1199.4 260.006V271.98H1122.13V253.538H1170.64V251.266C1170.7 248.119 1170.15 245.439 1168.98 243.225C1167.88 241.01 1166.24 239.321 1164.09 238.155C1161.93 236.99 1159.31 236.407 1156.22 236.407C1153.02 236.407 1150.37 237.106 1148.27 238.505C1146.23 239.903 1144.63 241.826 1143.46 244.273C1142.35 246.662 1141.57 249.43 1141.1 252.577C1140.63 255.723 1140.4 259.044 1140.4 262.541V265.862C1140.4 269.358 1140.87 272.534 1141.8 275.389C1142.79 278.244 1144.19 280.691 1146 282.73C1147.86 284.712 1150.07 286.256 1152.64 287.363C1155.26 288.47 1158.23 289.023 1161.55 289.023C1165.57 289.023 1169.54 288.266 1173.44 286.751C1177.34 285.236 1180.69 282.73 1183.49 279.234L1196.86 295.142C1194.94 297.88 1192.2 300.531 1188.65 303.095C1185.15 305.659 1180.96 307.757 1176.06 309.388C1171.17 310.961 1165.69 311.748 1159.63 311.748Z"/><path fill="url(#paint1_linear_272_14)" d="M598.507 182.742V310H567.829V206.428H522.118V310H491.527V182.742H598.507ZM680.491 215.431V238.155H633.643V215.431H680.491ZM700.855 215.431V310H671.401V215.431H700.855ZM626.214 215.431H654.969L652.347 264.114C651.998 270.873 651.211 276.787 649.987 281.856C648.822 286.926 647.249 291.267 645.268 294.879C643.345 298.434 641.043 301.347 638.363 303.62C635.682 305.834 632.653 307.465 629.273 308.514C625.893 309.505 622.222 310 618.26 310H609.345L608.908 287.45L612.055 287.101C613.628 286.926 615.026 286.401 616.25 285.527C617.474 284.653 618.552 283.43 619.484 281.856C620.416 280.283 621.203 278.273 621.844 275.826C622.543 273.378 623.097 270.494 623.504 267.173C623.971 263.852 624.291 260.035 624.466 255.723L626.214 215.431ZM766.145 286.227V247.245C766.145 244.565 765.766 242.263 765.009 240.34C764.251 238.417 763.057 236.932 761.425 235.883C759.794 234.776 757.609 234.222 754.87 234.222C752.656 234.222 750.762 234.601 749.189 235.358C747.616 236.116 746.421 237.252 745.605 238.767C744.79 240.282 744.382 242.205 744.382 244.536H714.927C714.927 240.166 715.889 236.116 717.812 232.387C719.793 228.599 722.59 225.307 726.202 222.51C729.873 219.713 734.243 217.557 739.312 216.042C744.44 214.469 750.15 213.683 756.443 213.683C763.96 213.683 770.661 214.935 776.546 217.441C782.489 219.946 787.18 223.705 790.618 228.716C794.056 233.669 795.774 239.903 795.774 247.42V286.139C795.774 292.316 796.124 297.006 796.823 300.211C797.522 303.357 798.513 306.125 799.795 308.514V310H770.253C768.854 307.087 767.806 303.532 767.106 299.337C766.465 295.083 766.145 290.713 766.145 286.227ZM769.729 252.227L769.903 267.959H756.88C754.142 267.959 751.811 268.338 749.888 269.096C748.024 269.853 746.509 270.902 745.343 272.242C744.236 273.524 743.42 274.981 742.896 276.612C742.43 278.244 742.197 279.963 742.197 281.769C742.197 283.517 742.605 285.09 743.42 286.489C744.294 287.829 745.46 288.878 746.917 289.635C748.373 290.393 750.005 290.771 751.811 290.771C755.074 290.771 757.842 290.16 760.114 288.936C762.445 287.654 764.222 286.11 765.446 284.304C766.669 282.497 767.281 280.808 767.281 279.234L773.749 291.296C772.584 293.627 771.243 295.986 769.729 298.375C768.272 300.764 766.436 302.979 764.222 305.018C762.066 306.999 759.415 308.631 756.269 309.913C753.122 311.136 749.306 311.748 744.819 311.748C738.992 311.748 733.631 310.554 728.737 308.165C723.901 305.776 720.026 302.454 717.112 298.201C714.199 293.889 712.742 288.936 712.742 283.342C712.742 278.448 713.616 274.078 715.364 270.232C717.171 266.386 719.88 263.123 723.493 260.443C727.105 257.763 731.708 255.723 737.302 254.325C742.896 252.926 749.48 252.227 757.055 252.227H769.729ZM877.496 252.314V274.952H830.298V252.314H877.496ZM841.049 215.431V310H811.594V215.431H841.049ZM896.375 215.431V310H866.833V215.431H896.375ZM908.96 263.677V261.841C908.96 254.907 909.951 248.527 911.932 242.7C913.913 236.815 916.827 231.717 920.672 227.405C924.518 223.093 929.267 219.743 934.919 217.354C940.571 214.906 947.097 213.683 954.497 213.683C961.955 213.683 968.511 214.906 974.163 217.354C979.873 219.743 984.651 223.093 988.497 227.405C992.342 231.717 995.256 236.815 997.237 242.7C999.218 248.527 1000.21 254.907 1000.21 261.841V263.677C1000.21 270.552 999.218 276.933 997.237 282.818C995.256 288.645 992.342 293.743 988.497 298.113C984.651 302.425 979.902 305.776 974.25 308.165C968.598 310.554 962.072 311.748 954.672 311.748C947.272 311.748 940.717 310.554 935.006 308.165C929.296 305.776 924.518 302.425 920.672 298.113C916.827 293.743 913.913 288.645 911.932 282.818C909.951 276.933 908.96 270.552 908.96 263.677ZM938.415 261.841V263.677C938.415 267.231 938.677 270.552 939.202 273.641C939.726 276.729 940.6 279.438 941.824 281.769C943.047 284.042 944.708 285.819 946.806 287.101C948.903 288.382 951.525 289.023 954.672 289.023C957.76 289.023 960.324 288.382 962.363 287.101C964.461 285.819 966.122 284.042 967.345 281.769C968.569 279.438 969.443 276.729 969.967 273.641C970.492 270.552 970.754 267.231 970.754 263.677V261.841C970.754 258.403 970.492 255.17 969.967 252.14C969.443 249.051 968.569 246.342 967.345 244.011C966.122 241.622 964.461 239.758 962.363 238.417C960.266 237.077 957.644 236.407 954.497 236.407C951.409 236.407 948.816 237.077 946.718 238.417C944.679 239.758 943.047 241.622 941.824 244.011C940.6 246.342 939.726 249.051 939.202 252.14C938.677 255.17 938.415 258.403 938.415 261.841ZM1062 271.456H1032.98L1032.81 253.276H1056.93C1059.32 253.276 1061.22 253.014 1062.61 252.489C1064.07 251.965 1065.09 251.178 1065.67 250.129C1066.31 249.022 1066.63 247.711 1066.63 246.196C1066.63 244.681 1066.4 243.399 1065.94 242.351C1065.53 241.302 1064.86 240.457 1063.92 239.816C1063.05 239.175 1061.94 238.709 1060.6 238.417C1059.26 238.126 1057.69 237.98 1055.88 237.98H1044.78V310H1015.33V215.431H1055.88C1062.12 215.431 1067.71 215.984 1072.67 217.091C1077.62 218.14 1081.81 219.772 1085.25 221.986C1088.75 224.142 1091.43 226.88 1093.29 230.202C1095.16 233.523 1096.09 237.427 1096.09 241.914C1096.09 244.827 1095.39 247.566 1093.99 250.129C1092.59 252.693 1090.52 254.966 1087.79 256.947C1085.11 258.928 1081.78 260.559 1077.82 261.841C1073.86 263.065 1069.31 263.822 1064.19 264.114L1062 271.456ZM1062 310H1026.6L1035.61 287.45H1062C1064.45 287.45 1066.43 287.159 1067.95 286.576C1069.46 285.993 1070.57 285.119 1071.27 283.954C1071.97 282.789 1072.32 281.361 1072.32 279.671C1072.32 278.04 1072.02 276.612 1071.44 275.389C1070.86 274.165 1069.81 273.204 1068.29 272.504C1066.84 271.805 1064.74 271.456 1062 271.456H1038.93L1039.1 253.276H1064.01L1070.31 260.705C1077.65 261.113 1083.62 262.366 1088.22 264.463C1092.88 266.561 1096.29 269.212 1098.45 272.417C1100.66 275.622 1101.77 279.147 1101.77 282.993C1101.77 287.479 1100.9 291.412 1099.15 294.792C1097.46 298.172 1094.92 300.998 1091.54 303.27C1088.16 305.484 1084 307.174 1079.05 308.339C1074.15 309.446 1068.47 310 1062 310ZM1159.63 311.748C1151.94 311.748 1145.06 310.554 1139 308.165C1132.94 305.717 1127.82 302.367 1123.62 298.113C1119.48 293.86 1116.31 288.965 1114.09 283.43C1111.94 277.894 1110.86 272.038 1110.86 265.862V262.541C1110.86 255.607 1111.82 249.197 1113.74 243.312C1115.67 237.369 1118.52 232.183 1122.31 227.754C1126.1 223.326 1130.85 219.888 1136.56 217.441C1142.27 214.935 1148.91 213.683 1156.48 213.683C1163.18 213.683 1169.19 214.761 1174.49 216.917C1179.79 219.072 1184.28 222.161 1187.95 226.181C1191.68 230.202 1194.5 235.067 1196.43 240.777C1198.41 246.488 1199.4 252.897 1199.4 260.006V271.98H1122.13V253.538H1170.64V251.266C1170.7 248.119 1170.15 245.439 1168.98 243.225C1167.88 241.01 1166.24 239.321 1164.09 238.155C1161.93 236.99 1159.31 236.407 1156.22 236.407C1153.02 236.407 1150.37 237.106 1148.27 238.505C1146.23 239.903 1144.63 241.826 1143.46 244.273C1142.35 246.662 1141.57 249.43 1141.1 252.577C1140.63 255.723 1140.4 259.044 1140.4 262.541V265.862C1140.4 269.358 1140.87 272.534 1141.8 275.389C1142.79 278.244 1144.19 280.691 1146 282.73C1147.86 284.712 1150.07 286.256 1152.64 287.363C1155.26 288.47 1158.23 289.023 1161.55 289.023C1165.57 289.023 1169.54 288.266 1173.44 286.751C1177.34 285.236 1180.69 282.73 1183.49 279.234L1196.86 295.142C1194.94 297.88 1192.2 300.531 1188.65 303.095C1185.15 305.659 1180.96 307.757 1176.06 309.388C1171.17 310.961 1165.69 311.748 1159.63 311.748Z"/><defs><linearGradient id="paint0_linear_272_14" x1="0" x2="88.064" y1=".777" y2="9.505" gradientUnits="userSpaceOnUse"><stop stop-color="#00E1C3"/><stop offset="1" stop-color="#00D1D5"/></linearGradient><linearGradient id="paint1_linear_272_14" x1="482" x2="586.35" y1="144.371" y2="545.501" gradientUnits="userSpaceOnUse"><stop stop-color="#00E1C3"/><stop offset="1" stop-color="#00D1D5"/></linearGradient><clipPath id="clip0_272_14"><rect width="179" height="179" fill="#fff" transform="translate(189 136.5)"/></clipPath></defs></svg>