<svg xmlns="http://www.w3.org/2000/svg" width="1443" height="440" fill="none" viewBox="0 0 1443 440"><path fill="#132636" d="M3 37C3 16.5655 19.5655 0 40 0H1394.58C1418.97 0 1436.69 23.1849 1430.28 46.718L1330.93 411.718C1326.54 427.824 1311.92 439 1295.23 439H40C19.5654 439 3 422.435 3 402V37Z"/><path fill="#132636" d="M0 37C0 16.5655 16.5655 0 37 0H39V440H37C16.5655 440 0 423.435 0 403V37Z"/><path fill="url(#paint0_linear_232_53)" d="M0 37C0 16.5655 16.5655 0 37 0H39V440H37C16.5655 440 0 423.435 0 403V37Z"/><path fill="url(#paint1_linear_232_53)" d="M339.24 239.163C349.416 233.319 349.415 218.678 339.238 212.836L304.727 193.042L342.697 175.39L395.065 205.427C410.978 214.555 410.978 237.445 395.065 246.573L340.201 278.042L302.231 260.39L339.24 239.163Z"/><path fill="url(#paint2_linear_232_53)" d="M223.282 259.304V279.416C223.287 291.095 235.961 298.401 246.117 292.576L267.934 280.062L305.904 297.714L224.679 344.303C208.808 353.406 189 341.985 189 323.73L189 243.366L223.282 259.304Z"/><path fill="url(#paint3_linear_232_53)" d="M308.401 155.718L270.431 173.37L246.103 159.416C235.948 153.604 223.282 160.913 223.282 172.59V195.289L189 211.226L189 128.27C189 110.015 208.808 98.5937 224.679 107.697L308.401 155.718Z"/><path fill="#fff" d="M542.011 147.114L551.627 111.789H564.101L548.517 158H540.456L542.011 147.114ZM533.283 111.789L542.899 147.114L544.518 158H536.361L520.873 111.789H533.283ZM586.159 149.653V123.659H596.886V158H586.857L586.159 149.653ZM587.174 142.67L589.967 142.607C589.967 144.913 589.692 147.05 589.142 149.018C588.592 150.965 587.777 152.657 586.698 154.096C585.64 155.535 584.328 156.656 582.763 157.46C581.218 158.243 579.43 158.635 577.399 158.635C575.706 158.635 574.151 158.402 572.733 157.937C571.337 157.45 570.131 156.699 569.115 155.683C568.1 154.646 567.306 153.324 566.735 151.716C566.185 150.087 565.91 148.14 565.91 145.876V123.659H576.605V145.939C576.605 146.701 576.701 147.357 576.891 147.907C577.082 148.457 577.357 148.923 577.716 149.304C578.076 149.663 578.52 149.938 579.049 150.129C579.599 150.298 580.224 150.383 580.922 150.383C582.53 150.383 583.789 150.044 584.699 149.367C585.609 148.69 586.243 147.77 586.603 146.606C586.984 145.442 587.174 144.13 587.174 142.67ZM619.42 158.635C616.627 158.635 614.131 158.201 611.93 157.333C609.73 156.445 607.868 155.228 606.344 153.684C604.842 152.139 603.689 150.362 602.885 148.352C602.102 146.341 601.71 144.215 601.71 141.972V140.766C601.71 138.248 602.06 135.921 602.758 133.784C603.456 131.625 604.493 129.742 605.868 128.134C607.243 126.526 608.968 125.278 611.042 124.389C613.115 123.479 615.527 123.024 618.278 123.024C620.711 123.024 622.89 123.416 624.816 124.199C626.741 124.982 628.371 126.103 629.704 127.563C631.058 129.023 632.084 130.79 632.782 132.863C633.502 134.937 633.861 137.264 633.861 139.846V144.194H605.805V137.497H623.419V136.672C623.441 135.529 623.24 134.556 622.816 133.752C622.414 132.948 621.822 132.334 621.039 131.911C620.256 131.488 619.304 131.276 618.183 131.276C617.019 131.276 616.056 131.53 615.294 132.038C614.554 132.546 613.972 133.244 613.549 134.133C613.147 135 612.861 136.005 612.692 137.148C612.523 138.291 612.438 139.497 612.438 140.766V141.972C612.438 143.242 612.607 144.395 612.946 145.432C613.306 146.468 613.813 147.357 614.469 148.098C615.146 148.817 615.95 149.378 616.881 149.78C617.833 150.182 618.913 150.383 620.119 150.383C621.579 150.383 623.017 150.108 624.435 149.558C625.853 149.007 627.069 148.098 628.085 146.828L632.941 152.604C632.243 153.599 631.248 154.562 629.958 155.493C628.688 156.424 627.165 157.185 625.387 157.778C623.61 158.349 621.621 158.635 619.42 158.635ZM661.093 111.789V158H649.953V111.789H661.093ZM674.994 111.789V120.39H636.369V111.789H674.994ZM697.179 149.653V123.659H707.907V158H697.877L697.179 149.653ZM698.195 142.67L700.988 142.607C700.988 144.913 700.713 147.05 700.163 149.018C699.612 150.965 698.798 152.657 697.719 154.096C696.661 155.535 695.349 156.656 693.783 157.46C692.239 158.243 690.451 158.635 688.419 158.635C686.727 158.635 685.172 158.402 683.754 157.937C682.357 157.45 681.151 156.699 680.136 155.683C679.12 154.646 678.327 153.324 677.755 151.716C677.205 150.087 676.93 148.14 676.93 145.876V123.659H687.626V145.939C687.626 146.701 687.721 147.357 687.912 147.907C688.102 148.457 688.377 148.923 688.737 149.304C689.097 149.663 689.541 149.938 690.07 150.129C690.62 150.298 691.244 150.383 691.942 150.383C693.55 150.383 694.809 150.044 695.719 149.367C696.629 148.69 697.264 147.77 697.624 146.606C698.004 145.442 698.195 144.13 698.195 142.67ZM713.905 109.25H724.601V149.558L723.49 158H713.905V109.25ZM745.675 140.449V141.115C745.675 143.718 745.411 146.088 744.882 148.225C744.353 150.362 743.538 152.213 742.438 153.779C741.338 155.323 739.952 156.519 738.28 157.365C736.609 158.212 734.63 158.635 732.345 158.635C730.272 158.635 728.494 158.19 727.013 157.302C725.532 156.392 724.294 155.144 723.3 153.557C722.305 151.949 721.501 150.097 720.888 148.002C720.274 145.887 719.787 143.623 719.428 141.21V140.417C719.787 138.026 720.274 135.783 720.888 133.688C721.501 131.573 722.305 129.721 723.3 128.134C724.294 126.526 725.521 125.278 726.981 124.389C728.463 123.479 730.229 123.024 732.282 123.024C734.588 123.024 736.577 123.458 738.249 124.326C739.941 125.193 741.338 126.41 742.438 127.976C743.538 129.541 744.353 131.382 744.882 133.498C745.411 135.614 745.675 137.931 745.675 140.449ZM734.979 141.115V140.449C734.979 139.2 734.905 138.026 734.757 136.926C734.609 135.826 734.345 134.852 733.964 134.006C733.583 133.16 733.043 132.493 732.345 132.006C731.647 131.52 730.737 131.276 729.616 131.276C728.473 131.276 727.51 131.467 726.728 131.848C725.966 132.229 725.352 132.779 724.887 133.498C724.442 134.196 724.125 135.064 723.935 136.101C723.744 137.116 723.66 138.269 723.681 139.56V142.067C723.638 143.824 723.797 145.326 724.157 146.574C724.516 147.823 725.141 148.775 726.029 149.431C726.918 150.087 728.135 150.415 729.679 150.415C730.822 150.415 731.742 150.192 732.44 149.748C733.16 149.304 733.699 148.669 734.059 147.844C734.419 147.019 734.662 146.035 734.789 144.892C734.916 143.75 734.979 142.491 734.979 141.115ZM767.067 158.635C764.274 158.635 761.777 158.201 759.577 157.333C757.376 156.445 755.514 155.228 753.991 153.684C752.488 152.139 751.335 150.362 750.531 148.352C749.748 146.341 749.357 144.215 749.357 141.972V140.766C749.357 138.248 749.706 135.921 750.404 133.784C751.103 131.625 752.139 129.742 753.515 128.134C754.89 126.526 756.614 125.278 758.688 124.389C760.762 123.479 763.174 123.024 765.924 123.024C768.358 123.024 770.537 123.416 772.462 124.199C774.388 124.982 776.017 126.103 777.35 127.563C778.704 129.023 779.73 130.79 780.429 132.863C781.148 134.937 781.508 137.264 781.508 139.846V144.194H753.451V137.497H771.066V136.672C771.087 135.529 770.886 134.556 770.463 133.752C770.061 132.948 769.468 132.334 768.686 131.911C767.903 131.488 766.951 131.276 765.829 131.276C764.665 131.276 763.703 131.53 762.941 132.038C762.2 132.546 761.618 133.244 761.195 134.133C760.793 135 760.508 136.005 760.338 137.148C760.169 138.291 760.084 139.497 760.084 140.766V141.972C760.084 143.242 760.254 144.395 760.592 145.432C760.952 146.468 761.46 147.357 762.116 148.098C762.793 148.817 763.597 149.378 764.528 149.78C765.48 150.182 766.559 150.383 767.765 150.383C769.225 150.383 770.664 150.108 772.082 149.558C773.499 149.007 774.716 148.098 775.731 146.828L780.587 152.604C779.889 153.599 778.895 154.562 777.604 155.493C776.334 156.424 774.811 157.185 773.034 157.778C771.256 158.349 769.267 158.635 767.067 158.635Z"/><path fill="#fff" d="M603.071 266.911H633.662C633.254 275.767 630.865 283.575 626.495 290.334C622.125 297.094 616.065 302.367 608.315 306.154C600.624 309.883 591.534 311.748 581.045 311.748C572.538 311.748 564.934 310.32 558.233 307.465C551.591 304.61 545.939 300.502 541.277 295.142C536.674 289.781 533.149 283.284 530.702 275.651C528.313 268.018 527.118 259.423 527.118 249.867V242.962C527.118 233.406 528.371 224.812 530.876 217.179C533.44 209.487 537.053 202.961 541.714 197.601C546.434 192.182 552.086 188.045 558.67 185.189C565.255 182.334 572.567 180.907 580.608 180.907C591.679 180.907 601.031 182.888 608.665 186.85C616.298 190.812 622.212 196.26 626.407 203.194C630.603 210.07 633.079 217.907 633.836 226.706H603.246C603.129 221.928 602.313 217.936 600.798 214.731C599.283 211.468 596.894 209.021 593.631 207.39C590.368 205.758 586.027 204.942 580.608 204.942C576.821 204.942 573.529 205.642 570.732 207.04C567.935 208.438 565.604 210.653 563.74 213.683C561.875 216.713 560.477 220.646 559.544 225.482C558.67 230.26 558.233 236.028 558.233 242.788V249.867C558.233 256.626 558.641 262.395 559.457 267.173C560.273 271.951 561.584 275.855 563.39 278.885C565.196 281.915 567.527 284.158 570.382 285.615C573.296 287.013 576.85 287.712 581.045 287.712C585.707 287.712 589.64 286.984 592.845 285.527C596.049 284.012 598.526 281.74 600.274 278.71C602.022 275.622 602.954 271.689 603.071 266.911ZM677.887 215.431V310H648.345V215.431H677.887ZM646.597 191.045C646.597 186.85 648.112 183.412 651.142 180.732C654.172 178.052 658.105 176.711 662.941 176.711C667.778 176.711 671.711 178.052 674.741 180.732C677.771 183.412 679.286 186.85 679.286 191.045C679.286 195.241 677.771 198.679 674.741 201.359C671.711 204.039 667.778 205.379 662.941 205.379C658.105 205.379 654.172 204.039 651.142 201.359C648.112 198.679 646.597 195.241 646.597 191.045ZM725.784 238.854V310H696.329V215.431H723.861L725.784 238.854ZM753.752 214.731L753.228 242.088C752.063 241.972 750.489 241.826 748.508 241.651C746.527 241.477 744.867 241.389 743.526 241.389C740.089 241.389 737.117 241.797 734.611 242.613C732.164 243.37 730.125 244.536 728.493 246.109C726.92 247.624 725.755 249.547 724.997 251.877C724.298 254.208 723.977 256.918 724.036 260.006L718.704 256.51C718.704 250.159 719.316 244.39 720.54 239.204C721.821 233.96 723.628 229.444 725.958 225.657C728.289 221.811 731.115 218.868 734.437 216.829C737.758 214.731 741.487 213.683 745.624 213.683C747.081 213.683 748.508 213.77 749.907 213.945C751.363 214.12 752.645 214.382 753.752 214.731ZM795.006 215.431V310H765.464V215.431H795.006ZM763.716 191.045C763.716 186.85 765.231 183.412 768.261 180.732C771.291 178.052 775.224 176.711 780.061 176.711C784.897 176.711 788.83 178.052 791.86 180.732C794.89 183.412 796.405 186.85 796.405 191.045C796.405 195.241 794.89 198.679 791.86 201.359C788.83 204.039 784.897 205.379 780.061 205.379C775.224 205.379 771.291 204.039 768.261 201.359C765.231 198.679 763.716 195.241 763.716 191.045ZM870.697 243.749V266.561H818.168V243.749H870.697ZM933.714 289.023C936.452 289.023 938.783 288.528 940.706 287.538C942.687 286.489 944.173 285.032 945.164 283.167C946.212 281.245 946.708 278.943 946.649 276.263H974.356C974.414 283.371 972.666 289.606 969.112 294.967C965.616 300.269 960.838 304.406 954.778 307.378C948.776 310.291 941.988 311.748 934.413 311.748C927.013 311.748 920.545 310.554 915.01 308.165C909.474 305.717 904.842 302.338 901.113 298.026C897.442 293.656 894.674 288.557 892.81 282.73C891.003 276.904 890.1 270.582 890.1 263.764V261.754C890.1 254.937 891.003 248.614 892.81 242.788C894.674 236.903 897.442 231.804 901.113 227.492C904.842 223.122 909.445 219.743 914.922 217.354C920.458 214.906 926.896 213.683 934.238 213.683C942.104 213.683 949.038 215.168 955.04 218.14C961.1 221.112 965.849 225.424 969.287 231.076C972.724 236.728 974.414 243.574 974.356 251.615H946.649C946.708 248.76 946.271 246.196 945.338 243.924C944.406 241.651 942.949 239.845 940.968 238.505C939.045 237.106 936.569 236.407 933.539 236.407C930.509 236.407 928.062 237.077 926.197 238.417C924.333 239.758 922.905 241.622 921.915 244.011C920.982 246.342 920.341 249.022 919.992 252.052C919.7 255.082 919.555 258.316 919.555 261.754V263.764C919.555 267.26 919.7 270.552 919.992 273.641C920.341 276.671 921.011 279.351 922.002 281.682C922.993 283.954 924.42 285.76 926.285 287.101C928.149 288.382 930.626 289.023 933.714 289.023ZM1018.06 215.431V310H988.515V215.431H1018.06ZM986.767 191.045C986.767 186.85 988.282 183.412 991.312 180.732C994.342 178.052 998.275 176.711 1003.11 176.711C1007.95 176.711 1011.88 178.052 1014.91 180.732C1017.94 183.412 1019.46 186.85 1019.46 191.045C1019.46 195.241 1017.94 198.679 1014.91 201.359C1011.88 204.039 1007.95 205.379 1003.11 205.379C998.275 205.379 994.342 204.039 991.312 201.359C988.282 198.679 986.767 195.241 986.767 191.045ZM1065.95 238.854V310H1036.5V215.431H1064.03L1065.95 238.854ZM1093.92 214.731L1093.4 242.088C1092.23 241.972 1090.66 241.826 1088.68 241.651C1086.7 241.477 1085.04 241.389 1083.7 241.389C1080.26 241.389 1077.29 241.797 1074.78 242.613C1072.33 243.37 1070.29 244.536 1068.66 246.109C1067.09 247.624 1065.92 249.547 1065.17 251.877C1064.47 254.208 1064.15 256.918 1064.21 260.006L1058.87 256.51C1058.87 250.159 1059.49 244.39 1060.71 239.204C1061.99 233.96 1063.8 229.444 1066.13 225.657C1068.46 221.811 1071.29 218.868 1074.61 216.829C1077.93 214.731 1081.66 213.683 1085.79 213.683C1087.25 213.683 1088.68 213.77 1090.08 213.945C1091.53 214.12 1092.82 214.382 1093.92 214.731ZM1135.18 215.431V310H1105.63V215.431H1135.18ZM1103.89 191.045C1103.89 186.85 1105.4 183.412 1108.43 180.732C1111.46 178.052 1115.39 176.711 1120.23 176.711C1125.07 176.711 1129 178.052 1132.03 180.732C1135.06 183.412 1136.57 186.85 1136.57 191.045C1136.57 195.241 1135.06 198.679 1132.03 201.359C1129 204.039 1125.07 205.379 1120.23 205.379C1115.39 205.379 1111.46 204.039 1108.43 201.359C1105.4 198.679 1103.89 195.241 1103.89 191.045Z"/><path fill="url(#paint4_linear_232_53)" d="M603.071 266.911H633.662C633.254 275.767 630.865 283.575 626.495 290.334C622.125 297.094 616.065 302.367 608.315 306.154C600.624 309.883 591.534 311.748 581.045 311.748C572.538 311.748 564.934 310.32 558.233 307.465C551.591 304.61 545.939 300.502 541.277 295.142C536.674 289.781 533.149 283.284 530.702 275.651C528.313 268.018 527.118 259.423 527.118 249.867V242.962C527.118 233.406 528.371 224.812 530.876 217.179C533.44 209.487 537.053 202.961 541.714 197.601C546.434 192.182 552.086 188.045 558.67 185.189C565.255 182.334 572.567 180.907 580.608 180.907C591.679 180.907 601.031 182.888 608.665 186.85C616.298 190.812 622.212 196.26 626.407 203.194C630.603 210.07 633.079 217.907 633.836 226.706H603.246C603.129 221.928 602.313 217.936 600.798 214.731C599.283 211.468 596.894 209.021 593.631 207.39C590.368 205.758 586.027 204.942 580.608 204.942C576.821 204.942 573.529 205.642 570.732 207.04C567.935 208.438 565.604 210.653 563.74 213.683C561.875 216.713 560.477 220.646 559.544 225.482C558.67 230.26 558.233 236.028 558.233 242.788V249.867C558.233 256.626 558.641 262.395 559.457 267.173C560.273 271.951 561.584 275.855 563.39 278.885C565.196 281.915 567.527 284.158 570.382 285.615C573.296 287.013 576.85 287.712 581.045 287.712C585.707 287.712 589.64 286.984 592.845 285.527C596.049 284.012 598.526 281.74 600.274 278.71C602.022 275.622 602.954 271.689 603.071 266.911ZM677.887 215.431V310H648.345V215.431H677.887ZM646.597 191.045C646.597 186.85 648.112 183.412 651.142 180.732C654.172 178.052 658.105 176.711 662.941 176.711C667.778 176.711 671.711 178.052 674.741 180.732C677.771 183.412 679.286 186.85 679.286 191.045C679.286 195.241 677.771 198.679 674.741 201.359C671.711 204.039 667.778 205.379 662.941 205.379C658.105 205.379 654.172 204.039 651.142 201.359C648.112 198.679 646.597 195.241 646.597 191.045ZM725.784 238.854V310H696.329V215.431H723.861L725.784 238.854ZM753.752 214.731L753.228 242.088C752.063 241.972 750.489 241.826 748.508 241.651C746.527 241.477 744.867 241.389 743.526 241.389C740.089 241.389 737.117 241.797 734.611 242.613C732.164 243.37 730.125 244.536 728.493 246.109C726.92 247.624 725.755 249.547 724.997 251.877C724.298 254.208 723.977 256.918 724.036 260.006L718.704 256.51C718.704 250.159 719.316 244.39 720.54 239.204C721.821 233.96 723.628 229.444 725.958 225.657C728.289 221.811 731.115 218.868 734.437 216.829C737.758 214.731 741.487 213.683 745.624 213.683C747.081 213.683 748.508 213.77 749.907 213.945C751.363 214.12 752.645 214.382 753.752 214.731ZM795.006 215.431V310H765.464V215.431H795.006ZM763.716 191.045C763.716 186.85 765.231 183.412 768.261 180.732C771.291 178.052 775.224 176.711 780.061 176.711C784.897 176.711 788.83 178.052 791.86 180.732C794.89 183.412 796.405 186.85 796.405 191.045C796.405 195.241 794.89 198.679 791.86 201.359C788.83 204.039 784.897 205.379 780.061 205.379C775.224 205.379 771.291 204.039 768.261 201.359C765.231 198.679 763.716 195.241 763.716 191.045ZM870.697 243.749V266.561H818.168V243.749H870.697ZM933.714 289.023C936.452 289.023 938.783 288.528 940.706 287.538C942.687 286.489 944.173 285.032 945.164 283.167C946.212 281.245 946.708 278.943 946.649 276.263H974.356C974.414 283.371 972.666 289.606 969.112 294.967C965.616 300.269 960.838 304.406 954.778 307.378C948.776 310.291 941.988 311.748 934.413 311.748C927.013 311.748 920.545 310.554 915.01 308.165C909.474 305.717 904.842 302.338 901.113 298.026C897.442 293.656 894.674 288.557 892.81 282.73C891.003 276.904 890.1 270.582 890.1 263.764V261.754C890.1 254.937 891.003 248.614 892.81 242.788C894.674 236.903 897.442 231.804 901.113 227.492C904.842 223.122 909.445 219.743 914.922 217.354C920.458 214.906 926.896 213.683 934.238 213.683C942.104 213.683 949.038 215.168 955.04 218.14C961.1 221.112 965.849 225.424 969.287 231.076C972.724 236.728 974.414 243.574 974.356 251.615H946.649C946.708 248.76 946.271 246.196 945.338 243.924C944.406 241.651 942.949 239.845 940.968 238.505C939.045 237.106 936.569 236.407 933.539 236.407C930.509 236.407 928.062 237.077 926.197 238.417C924.333 239.758 922.905 241.622 921.915 244.011C920.982 246.342 920.341 249.022 919.992 252.052C919.7 255.082 919.555 258.316 919.555 261.754V263.764C919.555 267.26 919.7 270.552 919.992 273.641C920.341 276.671 921.011 279.351 922.002 281.682C922.993 283.954 924.42 285.76 926.285 287.101C928.149 288.382 930.626 289.023 933.714 289.023ZM1018.06 215.431V310H988.515V215.431H1018.06ZM986.767 191.045C986.767 186.85 988.282 183.412 991.312 180.732C994.342 178.052 998.275 176.711 1003.11 176.711C1007.95 176.711 1011.88 178.052 1014.91 180.732C1017.94 183.412 1019.46 186.85 1019.46 191.045C1019.46 195.241 1017.94 198.679 1014.91 201.359C1011.88 204.039 1007.95 205.379 1003.11 205.379C998.275 205.379 994.342 204.039 991.312 201.359C988.282 198.679 986.767 195.241 986.767 191.045ZM1065.95 238.854V310H1036.5V215.431H1064.03L1065.95 238.854ZM1093.92 214.731L1093.4 242.088C1092.23 241.972 1090.66 241.826 1088.68 241.651C1086.7 241.477 1085.04 241.389 1083.7 241.389C1080.26 241.389 1077.29 241.797 1074.78 242.613C1072.33 243.37 1070.29 244.536 1068.66 246.109C1067.09 247.624 1065.92 249.547 1065.17 251.877C1064.47 254.208 1064.15 256.918 1064.21 260.006L1058.87 256.51C1058.87 250.159 1059.49 244.39 1060.71 239.204C1061.99 233.96 1063.8 229.444 1066.13 225.657C1068.46 221.811 1071.29 218.868 1074.61 216.829C1077.93 214.731 1081.66 213.683 1085.79 213.683C1087.25 213.683 1088.68 213.77 1090.08 213.945C1091.53 214.12 1092.82 214.382 1093.92 214.731ZM1135.18 215.431V310H1105.63V215.431H1135.18ZM1103.89 191.045C1103.89 186.85 1105.4 183.412 1108.43 180.732C1111.46 178.052 1115.39 176.711 1120.23 176.711C1125.07 176.711 1129 178.052 1132.03 180.732C1135.06 183.412 1136.57 186.85 1136.57 191.045C1136.57 195.241 1135.06 198.679 1132.03 201.359C1129 204.039 1125.07 205.379 1120.23 205.379C1115.39 205.379 1111.46 204.039 1108.43 201.359C1105.4 198.679 1103.89 195.241 1103.89 191.045Z"/><defs><linearGradient id="paint0_linear_232_53" x1="0" x2="88.064" y1=".777" y2="9.505" gradientUnits="userSpaceOnUse"><stop stop-color="#00E1C3"/><stop offset="1" stop-color="#00D1D5"/></linearGradient><linearGradient id="paint1_linear_232_53" x1="189" x2="436.787" y1="104.929" y2="353.473" gradientUnits="userSpaceOnUse"><stop stop-color="#00E1C3"/><stop offset="1" stop-color="#00D1D5"/></linearGradient><linearGradient id="paint2_linear_232_53" x1="189" x2="436.787" y1="104.929" y2="353.473" gradientUnits="userSpaceOnUse"><stop stop-color="#00E1C3"/><stop offset="1" stop-color="#00D1D5"/></linearGradient><linearGradient id="paint3_linear_232_53" x1="189" x2="436.787" y1="104.929" y2="353.473" gradientUnits="userSpaceOnUse"><stop stop-color="#00E1C3"/><stop offset="1" stop-color="#00D1D5"/></linearGradient><linearGradient id="paint4_linear_232_53" x1="521" x2="639.043" y1="144.371" y2="537.173" gradientUnits="userSpaceOnUse"><stop stop-color="#00E1C3"/><stop offset="1" stop-color="#00D1D5"/></linearGradient></defs></svg>