<svg xmlns="http://www.w3.org/2000/svg" width="1348" height="440" fill="none" viewBox="0 0 1348 440"><path fill="#132636" d="M3.11304 37C3.11304 16.5655 19.6785 0 40.113 0H1300.42C1324.55 0 1342.22 22.7285 1336.28 46.1164L1243.48 411.116C1239.31 427.518 1224.55 439 1207.62 439H40.1131C19.6785 439 3.11304 422.435 3.11304 402V37Z"/><path fill="#132636" d="M0 37C0 16.5655 16.5655 0 37 0H40.4711V440H37C16.5655 440 0 423.435 0 403V37Z"/><path fill="url(#paint0_linear_232_33)" d="M0 37C0 16.5655 16.5655 0 37 0H40.4711V440H37C16.5655 440 0 423.435 0 403V37Z"/><g clip-path="url(#clip0_232_33)"><path fill="#01D8CE" d="M206.156 317.5C201.581 317.5 197.578 315.784 194.147 312.353C190.716 308.922 189 304.919 189 300.344V259.455H206.156V300.344H354.844V259.455H372V300.344C372 304.919 370.284 308.922 366.853 312.353C363.422 315.784 359.419 317.5 354.844 317.5H206.156ZM280.5 273.752L225.314 218.566L237.609 206.27L271.922 240.583V134.5H289.078V240.583L323.391 206.27L335.686 218.566L280.5 273.752Z"/></g><path fill="#fff" d="M507.011 147.114L516.627 111.789H529.101L513.517 158H505.456L507.011 147.114ZM498.283 111.789L507.899 147.114L509.518 158H501.361L485.873 111.789H498.283ZM551.159 149.653V123.659H561.886V158H551.857L551.159 149.653ZM552.174 142.67L554.967 142.607C554.967 144.913 554.692 147.05 554.142 149.018C553.592 150.965 552.777 152.657 551.698 154.096C550.64 155.535 549.328 156.656 547.763 157.46C546.218 158.243 544.43 158.635 542.399 158.635C540.706 158.635 539.151 158.402 537.733 157.937C536.337 157.45 535.131 156.699 534.115 155.683C533.1 154.646 532.306 153.324 531.735 151.716C531.185 150.087 530.91 148.14 530.91 145.876V123.659H541.605V145.939C541.605 146.701 541.701 147.357 541.891 147.907C542.082 148.457 542.357 148.923 542.716 149.304C543.076 149.663 543.52 149.938 544.049 150.129C544.599 150.298 545.224 150.383 545.922 150.383C547.53 150.383 548.789 150.044 549.699 149.367C550.609 148.69 551.243 147.77 551.603 146.606C551.984 145.442 552.174 144.13 552.174 142.67ZM584.42 158.635C581.627 158.635 579.131 158.201 576.93 157.333C574.73 156.445 572.868 155.228 571.344 153.684C569.842 152.139 568.689 150.362 567.885 148.352C567.102 146.341 566.71 144.215 566.71 141.972V140.766C566.71 138.248 567.06 135.921 567.758 133.784C568.456 131.625 569.493 129.742 570.868 128.134C572.243 126.526 573.968 125.278 576.042 124.389C578.115 123.479 580.527 123.024 583.278 123.024C585.711 123.024 587.89 123.416 589.816 124.199C591.741 124.982 593.371 126.103 594.704 127.563C596.058 129.023 597.084 130.79 597.782 132.863C598.502 134.937 598.861 137.264 598.861 139.846V144.194H570.805V137.497H588.419V136.672C588.441 135.529 588.24 134.556 587.816 133.752C587.414 132.948 586.822 132.334 586.039 131.911C585.256 131.488 584.304 131.276 583.183 131.276C582.019 131.276 581.056 131.53 580.294 132.038C579.554 132.546 578.972 133.244 578.549 134.133C578.147 135 577.861 136.005 577.692 137.148C577.523 138.291 577.438 139.497 577.438 140.766V141.972C577.438 143.242 577.607 144.395 577.946 145.432C578.306 146.468 578.813 147.357 579.469 148.098C580.146 148.817 580.95 149.378 581.881 149.78C582.833 150.182 583.913 150.383 585.119 150.383C586.579 150.383 588.017 150.108 589.435 149.558C590.853 149.007 592.069 148.098 593.085 146.828L597.941 152.604C597.243 153.599 596.248 154.562 594.958 155.493C593.688 156.424 592.165 157.185 590.387 157.778C588.61 158.349 586.621 158.635 584.42 158.635ZM626.093 111.789V158H614.953V111.789H626.093ZM639.994 111.789V120.39H601.369V111.789H639.994ZM662.179 149.653V123.659H672.907V158H662.877L662.179 149.653ZM663.195 142.67L665.988 142.607C665.988 144.913 665.713 147.05 665.163 149.018C664.612 150.965 663.798 152.657 662.719 154.096C661.661 155.535 660.349 156.656 658.783 157.46C657.239 158.243 655.451 158.635 653.419 158.635C651.727 158.635 650.172 158.402 648.754 157.937C647.357 157.45 646.151 156.699 645.136 155.683C644.12 154.646 643.327 153.324 642.755 151.716C642.205 150.087 641.93 148.14 641.93 145.876V123.659H652.626V145.939C652.626 146.701 652.721 147.357 652.912 147.907C653.102 148.457 653.377 148.923 653.737 149.304C654.097 149.663 654.541 149.938 655.07 150.129C655.62 150.298 656.244 150.383 656.942 150.383C658.55 150.383 659.809 150.044 660.719 149.367C661.629 148.69 662.264 147.77 662.624 146.606C663.004 145.442 663.195 144.13 663.195 142.67ZM678.905 109.25H689.601V149.558L688.49 158H678.905V109.25ZM710.675 140.449V141.115C710.675 143.718 710.411 146.088 709.882 148.225C709.353 150.362 708.538 152.213 707.438 153.779C706.338 155.323 704.952 156.519 703.28 157.365C701.609 158.212 699.63 158.635 697.345 158.635C695.272 158.635 693.494 158.19 692.013 157.302C690.532 156.392 689.294 155.144 688.3 153.557C687.305 151.949 686.501 150.097 685.888 148.002C685.274 145.887 684.787 143.623 684.428 141.21V140.417C684.787 138.026 685.274 135.783 685.888 133.688C686.501 131.573 687.305 129.721 688.3 128.134C689.294 126.526 690.521 125.278 691.981 124.389C693.463 123.479 695.229 123.024 697.282 123.024C699.588 123.024 701.577 123.458 703.249 124.326C704.941 125.193 706.338 126.41 707.438 127.976C708.538 129.541 709.353 131.382 709.882 133.498C710.411 135.614 710.675 137.931 710.675 140.449ZM699.979 141.115V140.449C699.979 139.2 699.905 138.026 699.757 136.926C699.609 135.826 699.345 134.852 698.964 134.006C698.583 133.16 698.043 132.493 697.345 132.006C696.647 131.52 695.737 131.276 694.616 131.276C693.473 131.276 692.51 131.467 691.728 131.848C690.966 132.229 690.352 132.779 689.887 133.498C689.442 134.196 689.125 135.064 688.935 136.101C688.744 137.116 688.66 138.269 688.681 139.56V142.067C688.638 143.824 688.797 145.326 689.157 146.574C689.516 147.823 690.141 148.775 691.029 149.431C691.918 150.087 693.135 150.415 694.679 150.415C695.822 150.415 696.742 150.192 697.44 149.748C698.16 149.304 698.699 148.669 699.059 147.844C699.419 147.019 699.662 146.035 699.789 144.892C699.916 143.75 699.979 142.491 699.979 141.115ZM732.067 158.635C729.274 158.635 726.777 158.201 724.577 157.333C722.376 156.445 720.514 155.228 718.991 153.684C717.488 152.139 716.335 150.362 715.531 148.352C714.748 146.341 714.357 144.215 714.357 141.972V140.766C714.357 138.248 714.706 135.921 715.404 133.784C716.103 131.625 717.139 129.742 718.515 128.134C719.89 126.526 721.614 125.278 723.688 124.389C725.762 123.479 728.174 123.024 730.924 123.024C733.358 123.024 735.537 123.416 737.462 124.199C739.388 124.982 741.017 126.103 742.35 127.563C743.704 129.023 744.73 130.79 745.429 132.863C746.148 134.937 746.508 137.264 746.508 139.846V144.194H718.451V137.497H736.066V136.672C736.087 135.529 735.886 134.556 735.463 133.752C735.061 132.948 734.468 132.334 733.686 131.911C732.903 131.488 731.951 131.276 730.829 131.276C729.665 131.276 728.703 131.53 727.941 132.038C727.2 132.546 726.618 133.244 726.195 134.133C725.793 135 725.508 136.005 725.338 137.148C725.169 138.291 725.084 139.497 725.084 140.766V141.972C725.084 143.242 725.254 144.395 725.592 145.432C725.952 146.468 726.46 147.357 727.116 148.098C727.793 148.817 728.597 149.378 729.528 149.78C730.48 150.182 731.559 150.383 732.765 150.383C734.225 150.383 735.664 150.108 737.082 149.558C738.499 149.007 739.716 148.098 740.731 146.828L745.587 152.604C744.889 153.599 743.895 154.562 742.604 155.493C741.334 156.424 739.811 157.185 738.034 157.778C736.256 158.349 734.267 158.635 732.067 158.635Z"/><path fill="#fff" d="M546.482 266.823H514.843V243.137H546.482C550.794 243.137 554.29 242.409 556.971 240.952C559.651 239.495 561.603 237.485 562.827 234.921C564.109 232.299 564.75 229.357 564.75 226.094C564.75 222.598 564.109 219.364 562.827 216.392C561.603 213.42 559.651 211.031 556.971 209.225C554.29 207.361 550.794 206.428 546.482 206.428H526.38V310H495.702V182.742H546.482C556.679 182.742 565.449 184.607 572.791 188.336C580.191 192.065 585.872 197.193 589.834 203.719C593.796 210.187 595.777 217.587 595.777 225.919C595.777 234.135 593.796 241.302 589.834 247.42C585.872 253.538 580.191 258.316 572.791 261.754C565.449 265.133 556.679 266.823 546.482 266.823ZM658.969 286.227V247.245C658.969 244.565 658.59 242.263 657.833 240.34C657.076 238.417 655.881 236.932 654.25 235.883C652.618 234.776 650.433 234.222 647.694 234.222C645.48 234.222 643.586 234.601 642.013 235.358C640.44 236.116 639.245 237.252 638.43 238.767C637.614 240.282 637.206 242.205 637.206 244.536H607.751C607.751 240.166 608.713 236.116 610.636 232.387C612.617 228.599 615.414 225.307 619.026 222.51C622.697 219.713 627.067 217.557 632.137 216.042C637.264 214.469 642.975 213.683 649.268 213.683C656.784 213.683 663.485 214.935 669.37 217.441C675.313 219.946 680.004 223.705 683.442 228.716C686.88 233.669 688.599 239.903 688.599 247.42V286.139C688.599 292.316 688.948 297.006 689.647 300.211C690.347 303.357 691.337 306.125 692.619 308.514V310H663.077C661.679 307.087 660.63 303.532 659.931 299.337C659.29 295.083 658.969 290.713 658.969 286.227ZM662.553 252.227L662.728 267.959H649.705C646.966 267.959 644.635 268.338 642.712 269.096C640.848 269.853 639.333 270.902 638.167 272.242C637.06 273.524 636.245 274.981 635.72 276.612C635.254 278.244 635.021 279.963 635.021 281.769C635.021 283.517 635.429 285.09 636.245 286.489C637.119 287.829 638.284 288.878 639.741 289.635C641.197 290.393 642.829 290.771 644.635 290.771C647.898 290.771 650.666 290.16 652.938 288.936C655.269 287.654 657.046 286.11 658.27 284.304C659.494 282.497 660.105 280.808 660.105 279.234L666.573 291.296C665.408 293.627 664.068 295.986 662.553 298.375C661.096 300.764 659.261 302.979 657.046 305.018C654.89 306.999 652.239 308.631 649.093 309.913C645.946 311.136 642.13 311.748 637.643 311.748C631.816 311.748 626.456 310.554 621.561 308.165C616.725 305.776 612.85 302.454 609.937 298.201C607.023 293.889 605.566 288.936 605.566 283.342C605.566 278.448 606.44 274.078 608.188 270.232C609.995 266.386 612.704 263.123 616.317 260.443C619.93 257.763 624.533 255.723 630.126 254.325C635.72 252.926 642.305 252.227 649.879 252.227H662.553ZM754.5 283.43C754.5 281.798 753.946 280.4 752.839 279.234C751.791 278.011 749.926 276.904 747.246 275.913C744.565 274.864 740.807 273.815 735.971 272.767C731.368 271.776 727.027 270.465 722.948 268.833C718.927 267.202 715.402 265.221 712.372 262.89C709.342 260.559 706.953 257.792 705.205 254.587C703.515 251.382 702.67 247.711 702.67 243.574C702.67 239.554 703.515 235.766 705.205 232.212C706.953 228.599 709.488 225.424 712.809 222.685C716.189 219.888 720.297 217.703 725.133 216.13C729.969 214.498 735.475 213.683 741.652 213.683C750.159 213.683 757.501 214.994 763.677 217.616C769.854 220.18 774.603 223.792 777.924 228.454C781.303 233.057 782.993 238.388 782.993 244.448H753.539C753.539 242.059 753.131 240.02 752.315 238.33C751.557 236.64 750.305 235.358 748.557 234.484C746.809 233.552 744.478 233.086 741.564 233.086C739.525 233.086 737.66 233.465 735.971 234.222C734.339 234.98 733.028 236.028 732.038 237.369C731.047 238.709 730.552 240.282 730.552 242.088C730.552 243.37 730.843 244.536 731.426 245.584C732.067 246.575 733.028 247.507 734.31 248.381C735.592 249.197 737.223 249.955 739.205 250.654C741.186 251.295 743.575 251.877 746.372 252.402C752.723 253.567 758.666 255.228 764.202 257.384C769.737 259.54 774.224 262.599 777.662 266.561C781.158 270.523 782.906 275.855 782.906 282.556C782.906 286.751 781.944 290.626 780.021 294.18C778.099 297.676 775.331 300.764 771.718 303.445C768.106 306.067 763.765 308.106 758.695 309.563C753.626 311.02 747.916 311.748 741.564 311.748C732.533 311.748 724.9 310.146 718.665 306.941C712.43 303.678 707.711 299.599 704.506 294.705C701.359 289.752 699.786 284.741 699.786 279.671H727.23C727.347 282.585 728.046 284.974 729.328 286.838C730.668 288.703 732.445 290.072 734.66 290.946C736.874 291.82 739.438 292.257 742.351 292.257C745.031 292.257 747.246 291.879 748.994 291.121C750.8 290.364 752.169 289.344 753.102 288.062C754.034 286.722 754.5 285.178 754.5 283.43ZM845.835 286.227V247.245C845.835 244.565 845.457 242.263 844.699 240.34C843.942 238.417 842.747 236.932 841.116 235.883C839.484 234.776 837.299 234.222 834.561 234.222C832.346 234.222 830.453 234.601 828.879 235.358C827.306 236.116 826.112 237.252 825.296 238.767C824.48 240.282 824.072 242.205 824.072 244.536H794.618C794.618 240.166 795.579 236.116 797.502 232.387C799.483 228.599 802.28 225.307 805.893 222.51C809.563 219.713 813.934 217.557 819.003 216.042C824.131 214.469 829.841 213.683 836.134 213.683C843.65 213.683 850.351 214.935 856.236 217.441C862.18 219.946 866.87 223.705 870.308 228.716C873.746 233.669 875.465 239.903 875.465 247.42V286.139C875.465 292.316 875.814 297.006 876.514 300.211C877.213 303.357 878.203 306.125 879.485 308.514V310H849.943C848.545 307.087 847.496 303.532 846.797 299.337C846.156 295.083 845.835 290.713 845.835 286.227ZM849.419 252.227L849.594 267.959H836.571C833.832 267.959 831.501 268.338 829.579 269.096C827.714 269.853 826.199 270.902 825.034 272.242C823.927 273.524 823.111 274.981 822.586 276.612C822.12 278.244 821.887 279.963 821.887 281.769C821.887 283.517 822.295 285.09 823.111 286.489C823.985 287.829 825.15 288.878 826.607 289.635C828.064 290.393 829.695 290.771 831.501 290.771C834.764 290.771 837.532 290.16 839.805 288.936C842.135 287.654 843.913 286.11 845.136 284.304C846.36 282.497 846.972 280.808 846.972 279.234L853.439 291.296C852.274 293.627 850.934 295.986 849.419 298.375C847.962 300.764 846.127 302.979 843.913 305.018C841.757 306.999 839.105 308.631 835.959 309.913C832.812 311.136 828.996 311.748 824.509 311.748C818.682 311.748 813.322 310.554 808.427 308.165C803.591 305.776 799.716 302.454 796.803 298.201C793.889 293.889 792.433 288.936 792.433 283.342C792.433 278.448 793.307 274.078 795.055 270.232C796.861 266.386 799.57 263.123 803.183 260.443C806.796 257.763 811.399 255.723 816.993 254.325C822.586 252.926 829.171 252.227 836.746 252.227H849.419ZM920.739 235.621V310H891.285V215.431H918.904L920.739 235.621ZM917.243 259.481L910.338 259.656C910.338 252.431 911.212 245.992 912.96 240.34C914.708 234.63 917.185 229.794 920.39 225.832C923.594 221.869 927.411 218.868 931.839 216.829C936.326 214.731 941.308 213.683 946.785 213.683C951.155 213.683 955.147 214.324 958.759 215.605C962.43 216.887 965.577 218.956 968.199 221.811C970.879 224.666 972.918 228.454 974.317 233.173C975.774 237.835 976.502 243.603 976.502 250.479V310H946.873V250.392C946.873 246.604 946.348 243.72 945.299 241.739C944.25 239.699 942.736 238.301 940.754 237.543C938.773 236.786 936.355 236.407 933.5 236.407C930.47 236.407 927.906 236.99 925.809 238.155C923.711 239.321 922.021 240.952 920.739 243.05C919.516 245.089 918.612 247.507 918.03 250.304C917.505 253.101 917.243 256.16 917.243 259.481ZM1052.28 215.431H1079.02V306.329C1079.02 315.069 1077.01 322.469 1072.99 328.529C1068.97 334.647 1063.35 339.28 1056.13 342.426C1048.96 345.631 1040.57 347.233 1030.95 347.233C1026.7 347.233 1022.36 346.68 1017.93 345.573C1013.5 344.524 1009.37 342.951 1005.52 340.853C1001.67 338.755 998.44 336.162 995.818 333.074L1008.14 315.769C1010.53 318.449 1013.53 320.721 1017.14 322.586C1020.76 324.509 1025.01 325.47 1029.9 325.47C1034.16 325.47 1037.71 324.713 1040.57 323.198C1043.48 321.683 1045.7 319.469 1047.21 316.555C1048.73 313.7 1049.48 310.233 1049.48 306.154V237.806L1052.28 215.431ZM989.438 263.852V262.016C989.438 254.849 990.312 248.323 992.06 242.438C993.866 236.495 996.43 231.396 999.751 227.143C1003.13 222.831 1007.21 219.509 1011.99 217.179C1016.77 214.848 1022.16 213.683 1028.16 213.683C1034.62 213.683 1039.93 214.935 1044.06 217.441C1048.26 219.888 1051.61 223.326 1054.12 227.754C1056.68 232.183 1058.66 237.369 1060.06 243.312C1061.52 249.197 1062.74 255.548 1063.73 262.366V264.551C1062.74 270.96 1061.37 277.02 1059.62 282.73C1057.93 288.382 1055.72 293.394 1052.98 297.764C1050.24 302.134 1046.8 305.572 1042.67 308.077C1038.59 310.524 1033.69 311.748 1027.98 311.748C1022.04 311.748 1016.68 310.554 1011.9 308.165C1007.18 305.776 1003.13 302.425 999.751 298.113C996.43 293.801 993.866 288.732 992.06 282.905C990.312 277.078 989.438 270.727 989.438 263.852ZM1018.89 262.016V263.852C1018.89 267.406 1019.21 270.698 1019.85 273.728C1020.55 276.758 1021.6 279.438 1023 281.769C1024.4 284.042 1026.12 285.819 1028.16 287.101C1030.25 288.382 1032.7 289.023 1035.5 289.023C1039.75 289.023 1043.19 288.12 1045.81 286.314C1048.43 284.508 1050.33 281.944 1051.49 278.623C1052.66 275.301 1053.15 271.397 1052.98 266.911V260.006C1053.1 256.16 1052.83 252.781 1052.19 249.867C1051.55 246.896 1050.53 244.419 1049.13 242.438C1047.79 240.457 1045.99 238.971 1043.71 237.98C1041.5 236.932 1038.82 236.407 1035.67 236.407C1032.93 236.407 1030.52 237.048 1028.42 238.33C1026.32 239.612 1024.57 241.418 1023.17 243.749C1021.78 246.021 1020.7 248.731 1019.94 251.877C1019.24 254.966 1018.89 258.345 1018.89 262.016Z"/><path fill="url(#paint1_linear_232_33)" d="M546.482 266.823H514.843V243.137H546.482C550.794 243.137 554.29 242.409 556.971 240.952C559.651 239.495 561.603 237.485 562.827 234.921C564.109 232.299 564.75 229.357 564.75 226.094C564.75 222.598 564.109 219.364 562.827 216.392C561.603 213.42 559.651 211.031 556.971 209.225C554.29 207.361 550.794 206.428 546.482 206.428H526.38V310H495.702V182.742H546.482C556.679 182.742 565.449 184.607 572.791 188.336C580.191 192.065 585.872 197.193 589.834 203.719C593.796 210.187 595.777 217.587 595.777 225.919C595.777 234.135 593.796 241.302 589.834 247.42C585.872 253.538 580.191 258.316 572.791 261.754C565.449 265.133 556.679 266.823 546.482 266.823ZM658.969 286.227V247.245C658.969 244.565 658.59 242.263 657.833 240.34C657.076 238.417 655.881 236.932 654.25 235.883C652.618 234.776 650.433 234.222 647.694 234.222C645.48 234.222 643.586 234.601 642.013 235.358C640.44 236.116 639.245 237.252 638.43 238.767C637.614 240.282 637.206 242.205 637.206 244.536H607.751C607.751 240.166 608.713 236.116 610.636 232.387C612.617 228.599 615.414 225.307 619.026 222.51C622.697 219.713 627.067 217.557 632.137 216.042C637.264 214.469 642.975 213.683 649.268 213.683C656.784 213.683 663.485 214.935 669.37 217.441C675.313 219.946 680.004 223.705 683.442 228.716C686.88 233.669 688.599 239.903 688.599 247.42V286.139C688.599 292.316 688.948 297.006 689.647 300.211C690.347 303.357 691.337 306.125 692.619 308.514V310H663.077C661.679 307.087 660.63 303.532 659.931 299.337C659.29 295.083 658.969 290.713 658.969 286.227ZM662.553 252.227L662.728 267.959H649.705C646.966 267.959 644.635 268.338 642.712 269.096C640.848 269.853 639.333 270.902 638.167 272.242C637.06 273.524 636.245 274.981 635.72 276.612C635.254 278.244 635.021 279.963 635.021 281.769C635.021 283.517 635.429 285.09 636.245 286.489C637.119 287.829 638.284 288.878 639.741 289.635C641.197 290.393 642.829 290.771 644.635 290.771C647.898 290.771 650.666 290.16 652.938 288.936C655.269 287.654 657.046 286.11 658.27 284.304C659.494 282.497 660.105 280.808 660.105 279.234L666.573 291.296C665.408 293.627 664.068 295.986 662.553 298.375C661.096 300.764 659.261 302.979 657.046 305.018C654.89 306.999 652.239 308.631 649.093 309.913C645.946 311.136 642.13 311.748 637.643 311.748C631.816 311.748 626.456 310.554 621.561 308.165C616.725 305.776 612.85 302.454 609.937 298.201C607.023 293.889 605.566 288.936 605.566 283.342C605.566 278.448 606.44 274.078 608.188 270.232C609.995 266.386 612.704 263.123 616.317 260.443C619.93 257.763 624.533 255.723 630.126 254.325C635.72 252.926 642.305 252.227 649.879 252.227H662.553ZM754.5 283.43C754.5 281.798 753.946 280.4 752.839 279.234C751.791 278.011 749.926 276.904 747.246 275.913C744.565 274.864 740.807 273.815 735.971 272.767C731.368 271.776 727.027 270.465 722.948 268.833C718.927 267.202 715.402 265.221 712.372 262.89C709.342 260.559 706.953 257.792 705.205 254.587C703.515 251.382 702.67 247.711 702.67 243.574C702.67 239.554 703.515 235.766 705.205 232.212C706.953 228.599 709.488 225.424 712.809 222.685C716.189 219.888 720.297 217.703 725.133 216.13C729.969 214.498 735.475 213.683 741.652 213.683C750.159 213.683 757.501 214.994 763.677 217.616C769.854 220.18 774.603 223.792 777.924 228.454C781.303 233.057 782.993 238.388 782.993 244.448H753.539C753.539 242.059 753.131 240.02 752.315 238.33C751.557 236.64 750.305 235.358 748.557 234.484C746.809 233.552 744.478 233.086 741.564 233.086C739.525 233.086 737.66 233.465 735.971 234.222C734.339 234.98 733.028 236.028 732.038 237.369C731.047 238.709 730.552 240.282 730.552 242.088C730.552 243.37 730.843 244.536 731.426 245.584C732.067 246.575 733.028 247.507 734.31 248.381C735.592 249.197 737.223 249.955 739.205 250.654C741.186 251.295 743.575 251.877 746.372 252.402C752.723 253.567 758.666 255.228 764.202 257.384C769.737 259.54 774.224 262.599 777.662 266.561C781.158 270.523 782.906 275.855 782.906 282.556C782.906 286.751 781.944 290.626 780.021 294.18C778.099 297.676 775.331 300.764 771.718 303.445C768.106 306.067 763.765 308.106 758.695 309.563C753.626 311.02 747.916 311.748 741.564 311.748C732.533 311.748 724.9 310.146 718.665 306.941C712.43 303.678 707.711 299.599 704.506 294.705C701.359 289.752 699.786 284.741 699.786 279.671H727.23C727.347 282.585 728.046 284.974 729.328 286.838C730.668 288.703 732.445 290.072 734.66 290.946C736.874 291.82 739.438 292.257 742.351 292.257C745.031 292.257 747.246 291.879 748.994 291.121C750.8 290.364 752.169 289.344 753.102 288.062C754.034 286.722 754.5 285.178 754.5 283.43ZM845.835 286.227V247.245C845.835 244.565 845.457 242.263 844.699 240.34C843.942 238.417 842.747 236.932 841.116 235.883C839.484 234.776 837.299 234.222 834.561 234.222C832.346 234.222 830.453 234.601 828.879 235.358C827.306 236.116 826.112 237.252 825.296 238.767C824.48 240.282 824.072 242.205 824.072 244.536H794.618C794.618 240.166 795.579 236.116 797.502 232.387C799.483 228.599 802.28 225.307 805.893 222.51C809.563 219.713 813.934 217.557 819.003 216.042C824.131 214.469 829.841 213.683 836.134 213.683C843.65 213.683 850.351 214.935 856.236 217.441C862.18 219.946 866.87 223.705 870.308 228.716C873.746 233.669 875.465 239.903 875.465 247.42V286.139C875.465 292.316 875.814 297.006 876.514 300.211C877.213 303.357 878.203 306.125 879.485 308.514V310H849.943C848.545 307.087 847.496 303.532 846.797 299.337C846.156 295.083 845.835 290.713 845.835 286.227ZM849.419 252.227L849.594 267.959H836.571C833.832 267.959 831.501 268.338 829.579 269.096C827.714 269.853 826.199 270.902 825.034 272.242C823.927 273.524 823.111 274.981 822.586 276.612C822.12 278.244 821.887 279.963 821.887 281.769C821.887 283.517 822.295 285.09 823.111 286.489C823.985 287.829 825.15 288.878 826.607 289.635C828.064 290.393 829.695 290.771 831.501 290.771C834.764 290.771 837.532 290.16 839.805 288.936C842.135 287.654 843.913 286.11 845.136 284.304C846.36 282.497 846.972 280.808 846.972 279.234L853.439 291.296C852.274 293.627 850.934 295.986 849.419 298.375C847.962 300.764 846.127 302.979 843.913 305.018C841.757 306.999 839.105 308.631 835.959 309.913C832.812 311.136 828.996 311.748 824.509 311.748C818.682 311.748 813.322 310.554 808.427 308.165C803.591 305.776 799.716 302.454 796.803 298.201C793.889 293.889 792.433 288.936 792.433 283.342C792.433 278.448 793.307 274.078 795.055 270.232C796.861 266.386 799.57 263.123 803.183 260.443C806.796 257.763 811.399 255.723 816.993 254.325C822.586 252.926 829.171 252.227 836.746 252.227H849.419ZM920.739 235.621V310H891.285V215.431H918.904L920.739 235.621ZM917.243 259.481L910.338 259.656C910.338 252.431 911.212 245.992 912.96 240.34C914.708 234.63 917.185 229.794 920.39 225.832C923.594 221.869 927.411 218.868 931.839 216.829C936.326 214.731 941.308 213.683 946.785 213.683C951.155 213.683 955.147 214.324 958.759 215.605C962.43 216.887 965.577 218.956 968.199 221.811C970.879 224.666 972.918 228.454 974.317 233.173C975.774 237.835 976.502 243.603 976.502 250.479V310H946.873V250.392C946.873 246.604 946.348 243.72 945.299 241.739C944.25 239.699 942.736 238.301 940.754 237.543C938.773 236.786 936.355 236.407 933.5 236.407C930.47 236.407 927.906 236.99 925.809 238.155C923.711 239.321 922.021 240.952 920.739 243.05C919.516 245.089 918.612 247.507 918.03 250.304C917.505 253.101 917.243 256.16 917.243 259.481ZM1052.28 215.431H1079.02V306.329C1079.02 315.069 1077.01 322.469 1072.99 328.529C1068.97 334.647 1063.35 339.28 1056.13 342.426C1048.96 345.631 1040.57 347.233 1030.95 347.233C1026.7 347.233 1022.36 346.68 1017.93 345.573C1013.5 344.524 1009.37 342.951 1005.52 340.853C1001.67 338.755 998.44 336.162 995.818 333.074L1008.14 315.769C1010.53 318.449 1013.53 320.721 1017.14 322.586C1020.76 324.509 1025.01 325.47 1029.9 325.47C1034.16 325.47 1037.71 324.713 1040.57 323.198C1043.48 321.683 1045.7 319.469 1047.21 316.555C1048.73 313.7 1049.48 310.233 1049.48 306.154V237.806L1052.28 215.431ZM989.438 263.852V262.016C989.438 254.849 990.312 248.323 992.06 242.438C993.866 236.495 996.43 231.396 999.751 227.143C1003.13 222.831 1007.21 219.509 1011.99 217.179C1016.77 214.848 1022.16 213.683 1028.16 213.683C1034.62 213.683 1039.93 214.935 1044.06 217.441C1048.26 219.888 1051.61 223.326 1054.12 227.754C1056.68 232.183 1058.66 237.369 1060.06 243.312C1061.52 249.197 1062.74 255.548 1063.73 262.366V264.551C1062.74 270.96 1061.37 277.02 1059.62 282.73C1057.93 288.382 1055.72 293.394 1052.98 297.764C1050.24 302.134 1046.8 305.572 1042.67 308.077C1038.59 310.524 1033.69 311.748 1027.98 311.748C1022.04 311.748 1016.68 310.554 1011.9 308.165C1007.18 305.776 1003.13 302.425 999.751 298.113C996.43 293.801 993.866 288.732 992.06 282.905C990.312 277.078 989.438 270.727 989.438 263.852ZM1018.89 262.016V263.852C1018.89 267.406 1019.21 270.698 1019.85 273.728C1020.55 276.758 1021.6 279.438 1023 281.769C1024.4 284.042 1026.12 285.819 1028.16 287.101C1030.25 288.382 1032.7 289.023 1035.5 289.023C1039.75 289.023 1043.19 288.12 1045.81 286.314C1048.43 284.508 1050.33 281.944 1051.49 278.623C1052.66 275.301 1053.15 271.397 1052.98 266.911V260.006C1053.1 256.16 1052.83 252.781 1052.19 249.867C1051.55 246.896 1050.53 244.419 1049.13 242.438C1047.79 240.457 1045.99 238.971 1043.71 237.98C1041.5 236.932 1038.82 236.407 1035.67 236.407C1032.93 236.407 1030.52 237.048 1028.42 238.33C1026.32 239.612 1024.57 241.418 1023.17 243.749C1021.78 246.021 1020.7 248.731 1019.94 251.877C1019.24 254.966 1018.89 258.345 1018.89 262.016Z"/><defs><linearGradient id="paint0_linear_232_33" x1="0" x2="91.318" y1=".777" y2="10.168" gradientUnits="userSpaceOnUse"><stop stop-color="#00E1C3"/><stop offset="1" stop-color="#00D1D5"/></linearGradient><linearGradient id="paint1_linear_232_33" x1="486" x2="600.664" y1="144.371" y2="539.361" gradientUnits="userSpaceOnUse"><stop stop-color="#00E1C3"/><stop offset="1" stop-color="#00D1D5"/></linearGradient><clipPath id="clip0_232_33"><rect width="183" height="183" fill="#fff" transform="translate(189 134.5)"/></clipPath></defs></svg>