<svg width="1219" height="440" viewBox="0 0 1219 440" fill="none" xmlns="http://www.w3.org/2000/svg">
<path d="M3 37C3 16.5655 19.5655 0 40 0H1172.53C1196.31 0 1213.92 22.1121 1208.59 45.2887L1124.69 410.289C1120.83 427.092 1105.87 439 1088.63 439H40C19.5655 439 3 422.435 3 402V37Z" fill="#132636"/>
<path d="M0 37C0 16.5655 16.5655 0 37 0H39V440H37C16.5655 440 0 423.435 0 403V37Z" fill="#132636"/>
<path d="M0 37C0 16.5655 16.5655 0 37 0H39V440H37C16.5655 440 0 423.435 0 403V37Z" fill="url(#paint0_linear_232_33)"/>
<g clip-path="url(#clip0_232_33)">
<path d="M206.156 317.5C201.581 317.5 197.578 315.784 194.147 312.353C190.716 308.922 189 304.919 189 300.344V259.455H206.156V300.344H354.844V259.455H372V300.344C372 304.919 370.284 308.922 366.853 312.353C363.422 315.784 359.419 317.5 354.844 317.5H206.156ZM280.5 273.752L225.314 218.566L237.609 206.27L271.922 240.583V134.5H289.078V240.583L323.391 206.27L335.686 218.566L280.5 273.752Z" fill="#01D8CE"/>
</g>
<path d="M507.011 147.114L516.627 111.789H529.101L513.517 158H505.456L507.011 147.114ZM498.283 111.789L507.899 147.114L509.518 158H501.361L485.873 111.789H498.283ZM551.159 149.653V123.659H561.886V158H551.857L551.159 149.653ZM552.174 142.67L554.967 142.607C554.967 144.913 554.692 147.05 554.142 149.018C553.592 150.965 552.777 152.657 551.698 154.096C550.64 155.535 549.328 156.656 547.763 157.46C546.218 158.243 544.43 158.635 542.399 158.635C540.706 158.635 539.151 158.402 537.733 157.937C536.337 157.45 535.131 156.699 534.115 155.683C533.1 154.646 532.306 153.324 531.735 151.716C531.185 150.087 530.91 148.14 530.91 145.876V123.659H541.605V145.939C541.605 146.701 541.701 147.357 541.891 147.907C542.082 148.457 542.357 148.923 542.716 149.304C543.076 149.663 543.52 149.938 544.049 150.129C544.599 150.298 545.224 150.383 545.922 150.383C547.53 150.383 548.789 150.044 549.699 149.367C550.609 148.69 551.243 147.77 551.603 146.606C551.984 145.442 552.174 144.13 552.174 142.67ZM584.42 158.635C581.627 158.635 579.131 158.201 576.93 157.333C574.73 156.445 572.868 155.228 571.344 153.684C569.842 152.139 568.689 150.362 567.885 148.352C567.102 146.341 566.71 144.215 566.71 141.972V140.766C566.71 138.248 567.06 135.921 567.758 133.784C568.456 131.625 569.493 129.742 570.868 128.134C572.243 126.526 573.968 125.278 576.042 124.389C578.115 123.479 580.527 123.024 583.278 123.024C585.711 123.024 587.89 123.416 589.816 124.199C591.741 124.982 593.371 126.103 594.704 127.563C596.058 129.023 597.084 130.79 597.782 132.863C598.502 134.937 598.861 137.264 598.861 139.846V144.194H570.805V137.497H588.419V136.672C588.441 135.529 588.24 134.556 587.816 133.752C587.414 132.948 586.822 132.334 586.039 131.911C585.256 131.488 584.304 131.276 583.183 131.276C582.019 131.276 581.056 131.53 580.294 132.038C579.554 132.546 578.972 133.244 578.549 134.133C578.147 135 577.861 136.005 577.692 137.148C577.523 138.291 577.438 139.497 577.438 140.766V141.972C577.438 143.242 577.607 144.395 577.946 145.432C578.306 146.468 578.813 147.357 579.469 148.098C580.146 148.817 580.95 149.378 581.881 149.78C582.833 150.182 583.913 150.383 585.119 150.383C586.579 150.383 588.017 150.108 589.435 149.558C590.853 149.007 592.069 148.098 593.085 146.828L597.941 152.604C597.243 153.599 596.248 154.562 594.958 155.493C593.688 156.424 592.165 157.185 590.387 157.778C588.61 158.349 586.621 158.635 584.42 158.635ZM626.093 111.789V158H614.953V111.789H626.093ZM639.994 111.789V120.39H601.369V111.789H639.994ZM662.179 149.653V123.659H672.907V158H662.877L662.179 149.653ZM663.195 142.67L665.988 142.607C665.988 144.913 665.713 147.05 665.163 149.018C664.612 150.965 663.798 152.657 662.719 154.096C661.661 155.535 660.349 156.656 658.783 157.46C657.239 158.243 655.451 158.635 653.419 158.635C651.727 158.635 650.172 158.402 648.754 157.937C647.357 157.45 646.151 156.699 645.136 155.683C644.12 154.646 643.327 153.324 642.755 151.716C642.205 150.087 641.93 148.14 641.93 145.876V123.659H652.626V145.939C652.626 146.701 652.721 147.357 652.912 147.907C653.102 148.457 653.377 148.923 653.737 149.304C654.097 149.663 654.541 149.938 655.07 150.129C655.62 150.298 656.244 150.383 656.942 150.383C658.55 150.383 659.809 150.044 660.719 149.367C661.629 148.69 662.264 147.77 662.624 146.606C663.004 145.442 663.195 144.13 663.195 142.67ZM678.905 109.25H689.601V149.558L688.49 158H678.905V109.25ZM710.675 140.449V141.115C710.675 143.718 710.411 146.088 709.882 148.225C709.353 150.362 708.538 152.213 707.438 153.779C706.338 155.323 704.952 156.519 703.28 157.365C701.609 158.212 699.63 158.635 697.345 158.635C695.272 158.635 693.494 158.19 692.013 157.302C690.532 156.392 689.294 155.144 688.3 153.557C687.305 151.949 686.501 150.097 685.888 148.002C685.274 145.887 684.787 143.623 684.428 141.21V140.417C684.787 138.026 685.274 135.783 685.888 133.688C686.501 131.573 687.305 129.721 688.3 128.134C689.294 126.526 690.521 125.278 691.981 124.389C693.463 123.479 695.229 123.024 697.282 123.024C699.588 123.024 701.577 123.458 703.249 124.326C704.941 125.193 706.338 126.41 707.438 127.976C708.538 129.541 709.353 131.382 709.882 133.498C710.411 135.614 710.675 137.931 710.675 140.449ZM699.979 141.115V140.449C699.979 139.2 699.905 138.026 699.757 136.926C699.609 135.826 699.345 134.852 698.964 134.006C698.583 133.16 698.043 132.493 697.345 132.006C696.647 131.52 695.737 131.276 694.616 131.276C693.473 131.276 692.51 131.467 691.728 131.848C690.966 132.229 690.352 132.779 689.887 133.498C689.442 134.196 689.125 135.064 688.935 136.101C688.744 137.116 688.66 138.269 688.681 139.56V142.067C688.638 143.824 688.797 145.326 689.157 146.574C689.516 147.823 690.141 148.775 691.029 149.431C691.918 150.087 693.135 150.415 694.679 150.415C695.822 150.415 696.742 150.192 697.44 149.748C698.16 149.304 698.699 148.669 699.059 147.844C699.419 147.019 699.662 146.035 699.789 144.892C699.916 143.75 699.979 142.491 699.979 141.115ZM732.067 158.635C729.274 158.635 726.777 158.201 724.577 157.333C722.376 156.445 720.514 155.228 718.991 153.684C717.488 152.139 716.335 150.362 715.531 148.352C714.748 146.341 714.357 144.215 714.357 141.972V140.766C714.357 138.248 714.706 135.921 715.404 133.784C716.103 131.625 717.139 129.742 718.515 128.134C719.89 126.526 721.614 125.278 723.688 124.389C725.762 123.479 728.174 123.024 730.924 123.024C733.358 123.024 735.537 123.416 737.462 124.199C739.388 124.982 741.017 126.103 742.35 127.563C743.704 129.023 744.73 130.79 745.429 132.863C746.148 134.937 746.508 137.264 746.508 139.846V144.194H718.451V137.497H736.066V136.672C736.087 135.529 735.886 134.556 735.463 133.752C735.061 132.948 734.468 132.334 733.686 131.911C732.903 131.488 731.951 131.276 730.829 131.276C729.665 131.276 728.703 131.53 727.941 132.038C727.2 132.546 726.618 133.244 726.195 134.133C725.793 135 725.508 136.005 725.338 137.148C725.169 138.291 725.084 139.497 725.084 140.766V141.972C725.084 143.242 725.254 144.395 725.592 145.432C725.952 146.468 726.46 147.357 727.116 148.098C727.793 148.817 728.597 149.378 729.528 149.78C730.48 150.182 731.559 150.383 732.765 150.383C734.225 150.383 735.664 150.108 737.082 149.558C738.499 149.007 739.716 148.098 740.731 146.828L745.587 152.604C744.889 153.599 743.895 154.562 742.604 155.493C741.334 156.424 739.811 157.185 738.034 157.778C736.256 158.349 734.267 158.635 732.067 158.635Z" fill="white"/>
<path d="M546.482 266.823H514.843V243.137H546.482C550.794 243.137 554.29 242.409 556.971 240.952C559.651 239.495 561.603 237.485 562.827 234.921C564.109 232.299 564.75 229.357 564.75 226.094C564.75 222.598 564.109 219.364 562.827 216.392C561.603 213.42 559.651 211.031 556.971 209.225C554.29 207.361 550.794 206.428 546.482 206.428H526.38V310H495.702V182.742H546.482C556.679 182.742 565.449 184.607 572.791 188.336C580.191 192.065 585.872 197.193 589.834 203.719C593.796 210.187 595.777 217.587 595.777 225.919C595.777 234.135 593.796 241.302 589.834 247.42C585.872 253.538 580.191 258.316 572.791 261.754C565.449 265.133 556.679 266.823 546.482 266.823ZM655.473 311.748C647.782 311.748 640.906 310.554 634.846 308.165C628.786 305.717 623.659 302.367 619.463 298.113C615.326 293.86 612.151 288.965 609.937 283.43C607.781 277.894 606.703 272.038 606.703 265.862V262.541C606.703 255.607 607.664 249.197 609.587 243.312C611.51 237.369 614.365 232.183 618.152 227.754C621.94 223.326 626.689 219.888 632.399 217.441C638.109 214.935 644.752 213.683 652.327 213.683C659.028 213.683 665.029 214.761 670.332 216.917C675.634 219.072 680.121 222.161 683.792 226.181C687.521 230.202 690.347 235.067 692.27 240.777C694.251 246.488 695.241 252.897 695.241 260.006V271.98H617.978V253.538H666.486V251.266C666.544 248.119 665.991 245.439 664.825 243.225C663.718 241.01 662.087 239.321 659.931 238.155C657.775 236.99 655.153 236.407 652.064 236.407C648.86 236.407 646.208 237.106 644.111 238.505C642.071 239.903 640.469 241.826 639.304 244.273C638.197 246.662 637.41 249.43 636.944 252.577C636.478 255.723 636.245 259.044 636.245 262.541V265.862C636.245 269.358 636.711 272.534 637.643 275.389C638.634 278.244 640.032 280.691 641.838 282.73C643.703 284.712 645.917 286.256 648.481 287.363C651.103 288.47 654.075 289.023 657.396 289.023C661.417 289.023 665.379 288.266 669.283 286.751C673.187 285.236 676.537 282.73 679.334 279.234L692.707 295.142C690.784 297.88 688.045 300.531 684.491 303.095C680.995 305.659 676.799 307.757 671.905 309.388C667.01 310.961 661.533 311.748 655.473 311.748ZM738.331 175.75V310H708.789V175.75H738.331ZM805.63 286.227V247.245C805.63 244.565 805.252 242.263 804.494 240.34C803.737 238.417 802.542 236.932 800.911 235.883C799.279 234.776 797.094 234.222 794.355 234.222C792.141 234.222 790.248 234.601 788.674 235.358C787.101 236.116 785.907 237.252 785.091 238.767C784.275 240.282 783.867 242.205 783.867 244.536H754.413C754.413 240.166 755.374 236.116 757.297 232.387C759.278 228.599 762.075 225.307 765.688 222.51C769.358 219.713 773.729 217.557 778.798 216.042C783.925 214.469 789.636 213.683 795.929 213.683C803.445 213.683 810.146 214.935 816.031 217.441C821.975 219.946 826.665 223.705 830.103 228.716C833.541 233.669 835.26 239.903 835.26 247.42V286.139C835.26 292.316 835.609 297.006 836.309 300.211C837.008 303.357 837.998 306.125 839.28 308.514V310H809.738C808.34 307.087 807.291 303.532 806.592 299.337C805.951 295.083 805.63 290.713 805.63 286.227ZM809.214 252.227L809.389 267.959H796.366C793.627 267.959 791.296 268.338 789.374 269.096C787.509 269.853 785.994 270.902 784.829 272.242C783.722 273.524 782.906 274.981 782.381 276.612C781.915 278.244 781.682 279.963 781.682 281.769C781.682 283.517 782.09 285.09 782.906 286.489C783.78 287.829 784.945 288.878 786.402 289.635C787.859 290.393 789.49 290.771 791.296 290.771C794.559 290.771 797.327 290.16 799.6 288.936C801.93 287.654 803.708 286.11 804.931 284.304C806.155 282.497 806.767 280.808 806.767 279.234L813.234 291.296C812.069 293.627 810.729 295.986 809.214 298.375C807.757 300.764 805.922 302.979 803.708 305.018C801.552 306.999 798.9 308.631 795.754 309.913C792.607 311.136 788.791 311.748 784.304 311.748C778.477 311.748 773.117 310.554 768.222 308.165C763.386 305.776 759.511 302.454 756.598 298.201C753.684 293.889 752.228 288.936 752.228 283.342C752.228 278.448 753.102 274.078 754.85 270.232C756.656 266.386 759.365 263.123 762.978 260.443C766.591 257.763 771.194 255.723 776.788 254.325C782.381 252.926 788.966 252.227 796.541 252.227H809.214ZM880.534 235.621V310H851.08V215.431H878.699L880.534 235.621ZM877.038 259.481L870.133 259.656C870.133 252.431 871.007 245.992 872.755 240.34C874.503 234.63 876.98 229.794 880.185 225.832C883.389 221.869 887.206 218.868 891.634 216.829C896.121 214.731 901.103 213.683 906.58 213.683C910.95 213.683 914.942 214.324 918.554 215.605C922.225 216.887 925.372 218.956 927.994 221.811C930.674 224.666 932.713 228.454 934.112 233.173C935.569 237.835 936.297 243.603 936.297 250.479V310H906.667V250.392C906.667 246.604 906.143 243.72 905.094 241.739C904.045 239.699 902.53 238.301 900.549 237.543C898.568 236.786 896.15 236.407 893.295 236.407C890.265 236.407 887.701 236.99 885.604 238.155C883.506 239.321 881.816 240.952 880.534 243.05C879.311 245.089 878.407 247.507 877.825 250.304C877.3 253.101 877.038 256.16 877.038 259.481Z" fill="white"/>
<path d="M546.482 266.823H514.843V243.137H546.482C550.794 243.137 554.29 242.409 556.971 240.952C559.651 239.495 561.603 237.485 562.827 234.921C564.109 232.299 564.75 229.357 564.75 226.094C564.75 222.598 564.109 219.364 562.827 216.392C561.603 213.42 559.651 211.031 556.971 209.225C554.29 207.361 550.794 206.428 546.482 206.428H526.38V310H495.702V182.742H546.482C556.679 182.742 565.449 184.607 572.791 188.336C580.191 192.065 585.872 197.193 589.834 203.719C593.796 210.187 595.777 217.587 595.777 225.919C595.777 234.135 593.796 241.302 589.834 247.42C585.872 253.538 580.191 258.316 572.791 261.754C565.449 265.133 556.679 266.823 546.482 266.823ZM655.473 311.748C647.782 311.748 640.906 310.554 634.846 308.165C628.786 305.717 623.659 302.367 619.463 298.113C615.326 293.86 612.151 288.965 609.937 283.43C607.781 277.894 606.703 272.038 606.703 265.862V262.541C606.703 255.607 607.664 249.197 609.587 243.312C611.51 237.369 614.365 232.183 618.152 227.754C621.94 223.326 626.689 219.888 632.399 217.441C638.109 214.935 644.752 213.683 652.327 213.683C659.028 213.683 665.029 214.761 670.332 216.917C675.634 219.072 680.121 222.161 683.792 226.181C687.521 230.202 690.347 235.067 692.27 240.777C694.251 246.488 695.241 252.897 695.241 260.006V271.98H617.978V253.538H666.486V251.266C666.544 248.119 665.991 245.439 664.825 243.225C663.718 241.01 662.087 239.321 659.931 238.155C657.775 236.99 655.153 236.407 652.064 236.407C648.86 236.407 646.208 237.106 644.111 238.505C642.071 239.903 640.469 241.826 639.304 244.273C638.197 246.662 637.41 249.43 636.944 252.577C636.478 255.723 636.245 259.044 636.245 262.541V265.862C636.245 269.358 636.711 272.534 637.643 275.389C638.634 278.244 640.032 280.691 641.838 282.73C643.703 284.712 645.917 286.256 648.481 287.363C651.103 288.47 654.075 289.023 657.396 289.023C661.417 289.023 665.379 288.266 669.283 286.751C673.187 285.236 676.537 282.73 679.334 279.234L692.707 295.142C690.784 297.88 688.045 300.531 684.491 303.095C680.995 305.659 676.799 307.757 671.905 309.388C667.01 310.961 661.533 311.748 655.473 311.748ZM738.331 175.75V310H708.789V175.75H738.331ZM805.63 286.227V247.245C805.63 244.565 805.252 242.263 804.494 240.34C803.737 238.417 802.542 236.932 800.911 235.883C799.279 234.776 797.094 234.222 794.355 234.222C792.141 234.222 790.248 234.601 788.674 235.358C787.101 236.116 785.907 237.252 785.091 238.767C784.275 240.282 783.867 242.205 783.867 244.536H754.413C754.413 240.166 755.374 236.116 757.297 232.387C759.278 228.599 762.075 225.307 765.688 222.51C769.358 219.713 773.729 217.557 778.798 216.042C783.925 214.469 789.636 213.683 795.929 213.683C803.445 213.683 810.146 214.935 816.031 217.441C821.975 219.946 826.665 223.705 830.103 228.716C833.541 233.669 835.26 239.903 835.26 247.42V286.139C835.26 292.316 835.609 297.006 836.309 300.211C837.008 303.357 837.998 306.125 839.28 308.514V310H809.738C808.34 307.087 807.291 303.532 806.592 299.337C805.951 295.083 805.63 290.713 805.63 286.227ZM809.214 252.227L809.389 267.959H796.366C793.627 267.959 791.296 268.338 789.374 269.096C787.509 269.853 785.994 270.902 784.829 272.242C783.722 273.524 782.906 274.981 782.381 276.612C781.915 278.244 781.682 279.963 781.682 281.769C781.682 283.517 782.09 285.09 782.906 286.489C783.78 287.829 784.945 288.878 786.402 289.635C787.859 290.393 789.49 290.771 791.296 290.771C794.559 290.771 797.327 290.16 799.6 288.936C801.93 287.654 803.708 286.11 804.931 284.304C806.155 282.497 806.767 280.808 806.767 279.234L813.234 291.296C812.069 293.627 810.729 295.986 809.214 298.375C807.757 300.764 805.922 302.979 803.708 305.018C801.552 306.999 798.9 308.631 795.754 309.913C792.607 311.136 788.791 311.748 784.304 311.748C778.477 311.748 773.117 310.554 768.222 308.165C763.386 305.776 759.511 302.454 756.598 298.201C753.684 293.889 752.228 288.936 752.228 283.342C752.228 278.448 753.102 274.078 754.85 270.232C756.656 266.386 759.365 263.123 762.978 260.443C766.591 257.763 771.194 255.723 776.788 254.325C782.381 252.926 788.966 252.227 796.541 252.227H809.214ZM880.534 235.621V310H851.08V215.431H878.699L880.534 235.621ZM877.038 259.481L870.133 259.656C870.133 252.431 871.007 245.992 872.755 240.34C874.503 234.63 876.98 229.794 880.185 225.832C883.389 221.869 887.206 218.868 891.634 216.829C896.121 214.731 901.103 213.683 906.58 213.683C910.95 213.683 914.942 214.324 918.554 215.605C922.225 216.887 925.372 218.956 927.994 221.811C930.674 224.666 932.713 228.454 934.112 233.173C935.569 237.835 936.297 243.603 936.297 250.479V310H906.667V250.392C906.667 246.604 906.143 243.72 905.094 241.739C904.045 239.699 902.53 238.301 900.549 237.543C898.568 236.786 896.15 236.407 893.295 236.407C890.265 236.407 887.701 236.99 885.604 238.155C883.506 239.321 881.816 240.952 880.534 243.05C879.311 245.089 878.407 247.507 877.825 250.304C877.3 253.101 877.038 256.16 877.038 259.481Z" fill="url(#paint1_linear_232_33)"/>
<defs>
<linearGradient id="paint0_linear_232_33" x1="2.96126e-07" y1="0.777258" x2="88.064" y2="9.50464" gradientUnits="userSpaceOnUse">
<stop stop-color="#00E1C3"/>
<stop offset="1" stop-color="#00D1D5"/>
</linearGradient>
<linearGradient id="paint1_linear_232_33" x1="486" y1="144.371" x2="626.35" y2="520.24" gradientUnits="userSpaceOnUse">
<stop stop-color="#00E1C3"/>
<stop offset="1" stop-color="#00D1D5"/>
</linearGradient>
<clipPath id="clip0_232_33">
<rect width="183" height="183" fill="white" transform="translate(189 134.5)"/>
</clipPath>
</defs>
</svg>
