<svg width="1299" height="440" viewBox="0 0 1299 440" fill="none" xmlns="http://www.w3.org/2000/svg">
<path d="M3 37C3 16.5655 19.5655 0 40 0H1251.84C1275.84 0 1293.49 22.4944 1287.78 45.8041L1198.36 410.804C1194.3 427.358 1179.47 439 1162.42 439H39.9999C19.5654 439 3 422.435 3 402V37Z" fill="#132636"/>
<path d="M0 37C0 16.5655 16.5655 0 37 0H39V440H37C16.5655 440 0 423.435 0 403V37Z" fill="#132636"/>
<path d="M0 37C0 16.5655 16.5655 0 37 0H39V440H37C16.5655 440 0 423.435 0 403V37Z" fill="url(#paint0_linear_232_43)"/>
<g clip-path="url(#clip0_232_43)">
<path d="M324.112 144.293C326.467 141.855 329.284 139.91 332.398 138.572C335.513 137.235 338.862 136.53 342.252 136.501C345.641 136.472 349.002 137.117 352.139 138.401C355.277 139.684 358.127 141.58 360.523 143.977C362.92 146.373 364.816 149.223 366.099 152.361C367.383 155.498 368.028 158.859 367.999 162.248C367.97 165.638 367.265 168.987 365.928 172.102C364.59 175.216 362.645 178.033 360.207 180.388L350.086 190.509L313.991 154.414L324.112 144.293V144.293ZM295.944 172.462L189 279.405V315.5H225.095L332.051 208.556L295.931 172.462H295.944Z" fill="#01D8CE"/>
</g>
<path d="M503.011 147.114L512.627 111.789H525.101L509.517 158H501.456L503.011 147.114ZM494.283 111.789L503.899 147.114L505.518 158H497.361L481.873 111.789H494.283ZM547.159 149.653V123.659H557.886V158H547.857L547.159 149.653ZM548.174 142.67L550.967 142.607C550.967 144.913 550.692 147.05 550.142 149.018C549.592 150.965 548.777 152.657 547.698 154.096C546.64 155.535 545.328 156.656 543.763 157.46C542.218 158.243 540.43 158.635 538.399 158.635C536.706 158.635 535.151 158.402 533.733 157.937C532.337 157.45 531.131 156.699 530.115 155.683C529.1 154.646 528.306 153.324 527.735 151.716C527.185 150.087 526.91 148.14 526.91 145.876V123.659H537.605V145.939C537.605 146.701 537.701 147.357 537.891 147.907C538.082 148.457 538.357 148.923 538.716 149.304C539.076 149.663 539.52 149.938 540.049 150.129C540.599 150.298 541.224 150.383 541.922 150.383C543.53 150.383 544.789 150.044 545.699 149.367C546.609 148.69 547.243 147.77 547.603 146.606C547.984 145.442 548.174 144.13 548.174 142.67ZM580.42 158.635C577.627 158.635 575.131 158.201 572.93 157.333C570.73 156.445 568.868 155.228 567.344 153.684C565.842 152.139 564.689 150.362 563.885 148.352C563.102 146.341 562.71 144.215 562.71 141.972V140.766C562.71 138.248 563.06 135.921 563.758 133.784C564.456 131.625 565.493 129.742 566.868 128.134C568.243 126.526 569.968 125.278 572.042 124.389C574.115 123.479 576.527 123.024 579.278 123.024C581.711 123.024 583.89 123.416 585.816 124.199C587.741 124.982 589.371 126.103 590.704 127.563C592.058 129.023 593.084 130.79 593.782 132.863C594.502 134.937 594.861 137.264 594.861 139.846V144.194H566.805V137.497H584.419V136.672C584.441 135.529 584.24 134.556 583.816 133.752C583.414 132.948 582.822 132.334 582.039 131.911C581.256 131.488 580.304 131.276 579.183 131.276C578.019 131.276 577.056 131.53 576.294 132.038C575.554 132.546 574.972 133.244 574.549 134.133C574.147 135 573.861 136.005 573.692 137.148C573.523 138.291 573.438 139.497 573.438 140.766V141.972C573.438 143.242 573.607 144.395 573.946 145.432C574.306 146.468 574.813 147.357 575.469 148.098C576.146 148.817 576.95 149.378 577.881 149.78C578.833 150.182 579.913 150.383 581.119 150.383C582.579 150.383 584.017 150.108 585.435 149.558C586.853 149.007 588.069 148.098 589.085 146.828L593.941 152.604C593.243 153.599 592.248 154.562 590.958 155.493C589.688 156.424 588.165 157.185 586.387 157.778C584.61 158.349 582.621 158.635 580.42 158.635ZM622.093 111.789V158H610.953V111.789H622.093ZM635.994 111.789V120.39H597.369V111.789H635.994ZM658.179 149.653V123.659H668.907V158H658.877L658.179 149.653ZM659.195 142.67L661.988 142.607C661.988 144.913 661.713 147.05 661.163 149.018C660.612 150.965 659.798 152.657 658.719 154.096C657.661 155.535 656.349 156.656 654.783 157.46C653.239 158.243 651.451 158.635 649.419 158.635C647.727 158.635 646.172 158.402 644.754 157.937C643.357 157.45 642.151 156.699 641.136 155.683C640.12 154.646 639.327 153.324 638.755 151.716C638.205 150.087 637.93 148.14 637.93 145.876V123.659H648.626V145.939C648.626 146.701 648.721 147.357 648.912 147.907C649.102 148.457 649.377 148.923 649.737 149.304C650.097 149.663 650.541 149.938 651.07 150.129C651.62 150.298 652.244 150.383 652.942 150.383C654.55 150.383 655.809 150.044 656.719 149.367C657.629 148.69 658.264 147.77 658.624 146.606C659.004 145.442 659.195 144.13 659.195 142.67ZM674.905 109.25H685.601V149.558L684.49 158H674.905V109.25ZM706.675 140.449V141.115C706.675 143.718 706.411 146.088 705.882 148.225C705.353 150.362 704.538 152.213 703.438 153.779C702.338 155.323 700.952 156.519 699.28 157.365C697.609 158.212 695.63 158.635 693.345 158.635C691.272 158.635 689.494 158.19 688.013 157.302C686.532 156.392 685.294 155.144 684.3 153.557C683.305 151.949 682.501 150.097 681.888 148.002C681.274 145.887 680.787 143.623 680.428 141.21V140.417C680.787 138.026 681.274 135.783 681.888 133.688C682.501 131.573 683.305 129.721 684.3 128.134C685.294 126.526 686.521 125.278 687.981 124.389C689.463 123.479 691.229 123.024 693.282 123.024C695.588 123.024 697.577 123.458 699.249 124.326C700.941 125.193 702.338 126.41 703.438 127.976C704.538 129.541 705.353 131.382 705.882 133.498C706.411 135.614 706.675 137.931 706.675 140.449ZM695.979 141.115V140.449C695.979 139.2 695.905 138.026 695.757 136.926C695.609 135.826 695.345 134.852 694.964 134.006C694.583 133.16 694.043 132.493 693.345 132.006C692.647 131.52 691.737 131.276 690.616 131.276C689.473 131.276 688.51 131.467 687.728 131.848C686.966 132.229 686.352 132.779 685.887 133.498C685.442 134.196 685.125 135.064 684.935 136.101C684.744 137.116 684.66 138.269 684.681 139.56V142.067C684.638 143.824 684.797 145.326 685.157 146.574C685.516 147.823 686.141 148.775 687.029 149.431C687.918 150.087 689.135 150.415 690.679 150.415C691.822 150.415 692.742 150.192 693.44 149.748C694.16 149.304 694.699 148.669 695.059 147.844C695.419 147.019 695.662 146.035 695.789 144.892C695.916 143.75 695.979 142.491 695.979 141.115ZM728.067 158.635C725.274 158.635 722.777 158.201 720.577 157.333C718.376 156.445 716.514 155.228 714.991 153.684C713.488 152.139 712.335 150.362 711.531 148.352C710.748 146.341 710.357 144.215 710.357 141.972V140.766C710.357 138.248 710.706 135.921 711.404 133.784C712.103 131.625 713.139 129.742 714.515 128.134C715.89 126.526 717.614 125.278 719.688 124.389C721.762 123.479 724.174 123.024 726.924 123.024C729.358 123.024 731.537 123.416 733.462 124.199C735.388 124.982 737.017 126.103 738.35 127.563C739.704 129.023 740.73 130.79 741.429 132.863C742.148 134.937 742.508 137.264 742.508 139.846V144.194H714.451V137.497H732.066V136.672C732.087 135.529 731.886 134.556 731.463 133.752C731.061 132.948 730.468 132.334 729.686 131.911C728.903 131.488 727.951 131.276 726.829 131.276C725.665 131.276 724.703 131.53 723.941 132.038C723.2 132.546 722.618 133.244 722.195 134.133C721.793 135 721.508 136.005 721.338 137.148C721.169 138.291 721.084 139.497 721.084 140.766V141.972C721.084 143.242 721.254 144.395 721.592 145.432C721.952 146.468 722.46 147.357 723.116 148.098C723.793 148.817 724.597 149.378 725.528 149.78C726.48 150.182 727.559 150.383 728.765 150.383C730.225 150.383 731.664 150.108 733.082 149.558C734.499 149.007 735.716 148.098 736.731 146.828L741.587 152.604C740.889 153.599 739.895 154.562 738.604 155.493C737.334 156.424 735.811 157.185 734.034 157.778C732.256 158.349 730.267 158.635 728.067 158.635Z" fill="white"/>
<path d="M542.482 266.823H510.843V243.137H542.482C546.794 243.137 550.29 242.409 552.971 240.952C555.651 239.495 557.603 237.485 558.827 234.921C560.109 232.299 560.75 229.357 560.75 226.094C560.75 222.598 560.109 219.364 558.827 216.392C557.603 213.42 555.651 211.031 552.971 209.225C550.29 207.361 546.794 206.428 542.482 206.428H522.38V310H491.702V182.742H542.482C552.679 182.742 561.449 184.607 568.791 188.336C576.191 192.065 581.872 197.193 585.834 203.719C589.796 210.187 591.777 217.587 591.777 225.919C591.777 234.135 589.796 241.302 585.834 247.42C581.872 253.538 576.191 258.316 568.791 261.754C561.449 265.133 552.679 266.823 542.482 266.823ZM654.969 286.227V247.245C654.969 244.565 654.59 242.263 653.833 240.34C653.076 238.417 651.881 236.932 650.25 235.883C648.618 234.776 646.433 234.222 643.694 234.222C641.48 234.222 639.586 234.601 638.013 235.358C636.44 236.116 635.245 237.252 634.43 238.767C633.614 240.282 633.206 242.205 633.206 244.536H603.751C603.751 240.166 604.713 236.116 606.636 232.387C608.617 228.599 611.414 225.307 615.026 222.51C618.697 219.713 623.067 217.557 628.137 216.042C633.264 214.469 638.975 213.683 645.268 213.683C652.784 213.683 659.485 214.935 665.37 217.441C671.313 219.946 676.004 223.705 679.442 228.716C682.88 233.669 684.599 239.903 684.599 247.42V286.139C684.599 292.316 684.948 297.006 685.647 300.211C686.347 303.357 687.337 306.125 688.619 308.514V310H659.077C657.679 307.087 656.63 303.532 655.931 299.337C655.29 295.083 654.969 290.713 654.969 286.227ZM658.553 252.227L658.728 267.959H645.705C642.966 267.959 640.635 268.338 638.712 269.096C636.848 269.853 635.333 270.902 634.167 272.242C633.06 273.524 632.245 274.981 631.72 276.612C631.254 278.244 631.021 279.963 631.021 281.769C631.021 283.517 631.429 285.09 632.245 286.489C633.119 287.829 634.284 288.878 635.741 289.635C637.197 290.393 638.829 290.771 640.635 290.771C643.898 290.771 646.666 290.16 648.938 288.936C651.269 287.654 653.046 286.11 654.27 284.304C655.494 282.497 656.105 280.808 656.105 279.234L662.573 291.296C661.408 293.627 660.068 295.986 658.553 298.375C657.096 300.764 655.261 302.979 653.046 305.018C650.89 306.999 648.239 308.631 645.093 309.913C641.946 311.136 638.13 311.748 633.643 311.748C627.816 311.748 622.456 310.554 617.561 308.165C612.725 305.776 608.85 302.454 605.937 298.201C603.023 293.889 601.566 288.936 601.566 283.342C601.566 278.448 602.44 274.078 604.188 270.232C605.995 266.386 608.704 263.123 612.317 260.443C615.93 257.763 620.533 255.723 626.126 254.325C631.72 252.926 638.305 252.227 645.879 252.227H658.553ZM750.5 283.43C750.5 281.798 749.946 280.4 748.839 279.234C747.791 278.011 745.926 276.904 743.246 275.913C740.565 274.864 736.807 273.815 731.971 272.767C727.368 271.776 723.027 270.465 718.948 268.833C714.927 267.202 711.402 265.221 708.372 262.89C705.342 260.559 702.953 257.792 701.205 254.587C699.515 251.382 698.67 247.711 698.67 243.574C698.67 239.554 699.515 235.766 701.205 232.212C702.953 228.599 705.488 225.424 708.809 222.685C712.189 219.888 716.297 217.703 721.133 216.13C725.969 214.498 731.475 213.683 737.652 213.683C746.159 213.683 753.501 214.994 759.677 217.616C765.854 220.18 770.603 223.792 773.924 228.454C777.303 233.057 778.993 238.388 778.993 244.448H749.539C749.539 242.059 749.131 240.02 748.315 238.33C747.557 236.64 746.305 235.358 744.557 234.484C742.809 233.552 740.478 233.086 737.564 233.086C735.525 233.086 733.66 233.465 731.971 234.222C730.339 234.98 729.028 236.028 728.038 237.369C727.047 238.709 726.552 240.282 726.552 242.088C726.552 243.37 726.843 244.536 727.426 245.584C728.067 246.575 729.028 247.507 730.31 248.381C731.592 249.197 733.223 249.955 735.205 250.654C737.186 251.295 739.575 251.877 742.372 252.402C748.723 253.567 754.666 255.228 760.202 257.384C765.737 259.54 770.224 262.599 773.662 266.561C777.158 270.523 778.906 275.855 778.906 282.556C778.906 286.751 777.944 290.626 776.021 294.18C774.099 297.676 771.331 300.764 767.718 303.445C764.106 306.067 759.765 308.106 754.695 309.563C749.626 311.02 743.916 311.748 737.564 311.748C728.533 311.748 720.9 310.146 714.665 306.941C708.43 303.678 703.711 299.599 700.506 294.705C697.359 289.752 695.786 284.741 695.786 279.671H723.23C723.347 282.585 724.046 284.974 725.328 286.838C726.668 288.703 728.445 290.072 730.66 290.946C732.874 291.82 735.438 292.257 738.351 292.257C741.031 292.257 743.246 291.879 744.994 291.121C746.8 290.364 748.169 289.344 749.102 288.062C750.034 286.722 750.5 285.178 750.5 283.43ZM841.835 286.227V247.245C841.835 244.565 841.457 242.263 840.699 240.34C839.942 238.417 838.747 236.932 837.116 235.883C835.484 234.776 833.299 234.222 830.561 234.222C828.346 234.222 826.453 234.601 824.879 235.358C823.306 236.116 822.112 237.252 821.296 238.767C820.48 240.282 820.072 242.205 820.072 244.536H790.618C790.618 240.166 791.579 236.116 793.502 232.387C795.483 228.599 798.28 225.307 801.893 222.51C805.563 219.713 809.934 217.557 815.003 216.042C820.131 214.469 825.841 213.683 832.134 213.683C839.65 213.683 846.351 214.935 852.236 217.441C858.18 219.946 862.87 223.705 866.308 228.716C869.746 233.669 871.465 239.903 871.465 247.42V286.139C871.465 292.316 871.814 297.006 872.514 300.211C873.213 303.357 874.203 306.125 875.485 308.514V310H845.943C844.545 307.087 843.496 303.532 842.797 299.337C842.156 295.083 841.835 290.713 841.835 286.227ZM845.419 252.227L845.594 267.959H832.571C829.832 267.959 827.501 268.338 825.579 269.096C823.714 269.853 822.199 270.902 821.034 272.242C819.927 273.524 819.111 274.981 818.586 276.612C818.12 278.244 817.887 279.963 817.887 281.769C817.887 283.517 818.295 285.09 819.111 286.489C819.985 287.829 821.15 288.878 822.607 289.635C824.064 290.393 825.695 290.771 827.501 290.771C830.764 290.771 833.532 290.16 835.805 288.936C838.135 287.654 839.913 286.11 841.136 284.304C842.36 282.497 842.972 280.808 842.972 279.234L849.439 291.296C848.274 293.627 846.934 295.986 845.419 298.375C843.962 300.764 842.127 302.979 839.913 305.018C837.757 306.999 835.105 308.631 831.959 309.913C828.812 311.136 824.996 311.748 820.509 311.748C814.682 311.748 809.322 310.554 804.427 308.165C799.591 305.776 795.716 302.454 792.803 298.201C789.889 293.889 788.433 288.936 788.433 283.342C788.433 278.448 789.307 274.078 791.055 270.232C792.861 266.386 795.57 263.123 799.183 260.443C802.796 257.763 807.399 255.723 812.993 254.325C818.586 252.926 825.171 252.227 832.746 252.227H845.419ZM916.739 235.621V310H887.285V215.431H914.904L916.739 235.621ZM913.243 259.481L906.338 259.656C906.338 252.431 907.212 245.992 908.96 240.34C910.708 234.63 913.185 229.794 916.39 225.832C919.594 221.869 923.411 218.868 927.839 216.829C932.326 214.731 937.308 213.683 942.785 213.683C947.155 213.683 951.147 214.324 954.759 215.605C958.43 216.887 961.577 218.956 964.199 221.811C966.879 224.666 968.918 228.454 970.317 233.173C971.774 237.835 972.502 243.603 972.502 250.479V310H942.873V250.392C942.873 246.604 942.348 243.72 941.299 241.739C940.25 239.699 938.736 238.301 936.754 237.543C934.773 236.786 932.355 236.407 929.5 236.407C926.47 236.407 923.906 236.99 921.809 238.155C919.711 239.321 918.021 240.952 916.739 243.05C915.516 245.089 914.612 247.507 914.03 250.304C913.505 253.101 913.243 256.16 913.243 259.481ZM1048.28 215.431H1075.02V306.329C1075.02 315.069 1073.01 322.469 1068.99 328.529C1064.97 334.647 1059.35 339.28 1052.13 342.426C1044.96 345.631 1036.57 347.233 1026.95 347.233C1022.7 347.233 1018.36 346.68 1013.93 345.573C1009.5 344.524 1005.37 342.951 1001.52 340.853C997.674 338.755 994.44 336.162 991.818 333.074L1004.14 315.769C1006.53 318.449 1009.53 320.721 1013.14 322.586C1016.76 324.509 1021.01 325.47 1025.9 325.47C1030.16 325.47 1033.71 324.713 1036.57 323.198C1039.48 321.683 1041.7 319.469 1043.21 316.555C1044.73 313.7 1045.48 310.233 1045.48 306.154V237.806L1048.28 215.431ZM985.438 263.852V262.016C985.438 254.849 986.312 248.323 988.06 242.438C989.866 236.495 992.43 231.396 995.751 227.143C999.131 222.831 1003.21 219.509 1007.99 217.179C1012.77 214.848 1018.16 213.683 1024.16 213.683C1030.62 213.683 1035.93 214.935 1040.06 217.441C1044.26 219.888 1047.61 223.326 1050.12 227.754C1052.68 232.183 1054.66 237.369 1056.06 243.312C1057.52 249.197 1058.74 255.548 1059.73 262.366V264.551C1058.74 270.96 1057.37 277.02 1055.62 282.73C1053.93 288.382 1051.72 293.394 1048.98 297.764C1046.24 302.134 1042.8 305.572 1038.67 308.077C1034.59 310.524 1029.69 311.748 1023.98 311.748C1018.04 311.748 1012.68 310.554 1007.9 308.165C1003.18 305.776 999.131 302.425 995.751 298.113C992.43 293.801 989.866 288.732 988.06 282.905C986.312 277.078 985.438 270.727 985.438 263.852ZM1014.89 262.016V263.852C1014.89 267.406 1015.21 270.698 1015.85 273.728C1016.55 276.758 1017.6 279.438 1019 281.769C1020.4 284.042 1022.12 285.819 1024.16 287.101C1026.25 288.382 1028.7 289.023 1031.5 289.023C1035.75 289.023 1039.19 288.12 1041.81 286.314C1044.43 284.508 1046.33 281.944 1047.49 278.623C1048.66 275.301 1049.15 271.397 1048.98 266.911V260.006C1049.1 256.16 1048.83 252.781 1048.19 249.867C1047.55 246.896 1046.53 244.419 1045.13 242.438C1043.79 240.457 1041.99 238.971 1039.71 237.98C1037.5 236.932 1034.82 236.407 1031.67 236.407C1028.93 236.407 1026.52 237.048 1024.42 238.33C1022.32 239.612 1020.57 241.418 1019.17 243.749C1017.78 246.021 1016.7 248.731 1015.94 251.877C1015.24 254.966 1014.89 258.345 1014.89 262.016Z" fill="white"/>
<path d="M542.482 266.823H510.843V243.137H542.482C546.794 243.137 550.29 242.409 552.971 240.952C555.651 239.495 557.603 237.485 558.827 234.921C560.109 232.299 560.75 229.357 560.75 226.094C560.75 222.598 560.109 219.364 558.827 216.392C557.603 213.42 555.651 211.031 552.971 209.225C550.29 207.361 546.794 206.428 542.482 206.428H522.38V310H491.702V182.742H542.482C552.679 182.742 561.449 184.607 568.791 188.336C576.191 192.065 581.872 197.193 585.834 203.719C589.796 210.187 591.777 217.587 591.777 225.919C591.777 234.135 589.796 241.302 585.834 247.42C581.872 253.538 576.191 258.316 568.791 261.754C561.449 265.133 552.679 266.823 542.482 266.823ZM654.969 286.227V247.245C654.969 244.565 654.59 242.263 653.833 240.34C653.076 238.417 651.881 236.932 650.25 235.883C648.618 234.776 646.433 234.222 643.694 234.222C641.48 234.222 639.586 234.601 638.013 235.358C636.44 236.116 635.245 237.252 634.43 238.767C633.614 240.282 633.206 242.205 633.206 244.536H603.751C603.751 240.166 604.713 236.116 606.636 232.387C608.617 228.599 611.414 225.307 615.026 222.51C618.697 219.713 623.067 217.557 628.137 216.042C633.264 214.469 638.975 213.683 645.268 213.683C652.784 213.683 659.485 214.935 665.37 217.441C671.313 219.946 676.004 223.705 679.442 228.716C682.88 233.669 684.599 239.903 684.599 247.42V286.139C684.599 292.316 684.948 297.006 685.647 300.211C686.347 303.357 687.337 306.125 688.619 308.514V310H659.077C657.679 307.087 656.63 303.532 655.931 299.337C655.29 295.083 654.969 290.713 654.969 286.227ZM658.553 252.227L658.728 267.959H645.705C642.966 267.959 640.635 268.338 638.712 269.096C636.848 269.853 635.333 270.902 634.167 272.242C633.06 273.524 632.245 274.981 631.72 276.612C631.254 278.244 631.021 279.963 631.021 281.769C631.021 283.517 631.429 285.09 632.245 286.489C633.119 287.829 634.284 288.878 635.741 289.635C637.197 290.393 638.829 290.771 640.635 290.771C643.898 290.771 646.666 290.16 648.938 288.936C651.269 287.654 653.046 286.11 654.27 284.304C655.494 282.497 656.105 280.808 656.105 279.234L662.573 291.296C661.408 293.627 660.068 295.986 658.553 298.375C657.096 300.764 655.261 302.979 653.046 305.018C650.89 306.999 648.239 308.631 645.093 309.913C641.946 311.136 638.13 311.748 633.643 311.748C627.816 311.748 622.456 310.554 617.561 308.165C612.725 305.776 608.85 302.454 605.937 298.201C603.023 293.889 601.566 288.936 601.566 283.342C601.566 278.448 602.44 274.078 604.188 270.232C605.995 266.386 608.704 263.123 612.317 260.443C615.93 257.763 620.533 255.723 626.126 254.325C631.72 252.926 638.305 252.227 645.879 252.227H658.553ZM750.5 283.43C750.5 281.798 749.946 280.4 748.839 279.234C747.791 278.011 745.926 276.904 743.246 275.913C740.565 274.864 736.807 273.815 731.971 272.767C727.368 271.776 723.027 270.465 718.948 268.833C714.927 267.202 711.402 265.221 708.372 262.89C705.342 260.559 702.953 257.792 701.205 254.587C699.515 251.382 698.67 247.711 698.67 243.574C698.67 239.554 699.515 235.766 701.205 232.212C702.953 228.599 705.488 225.424 708.809 222.685C712.189 219.888 716.297 217.703 721.133 216.13C725.969 214.498 731.475 213.683 737.652 213.683C746.159 213.683 753.501 214.994 759.677 217.616C765.854 220.18 770.603 223.792 773.924 228.454C777.303 233.057 778.993 238.388 778.993 244.448H749.539C749.539 242.059 749.131 240.02 748.315 238.33C747.557 236.64 746.305 235.358 744.557 234.484C742.809 233.552 740.478 233.086 737.564 233.086C735.525 233.086 733.66 233.465 731.971 234.222C730.339 234.98 729.028 236.028 728.038 237.369C727.047 238.709 726.552 240.282 726.552 242.088C726.552 243.37 726.843 244.536 727.426 245.584C728.067 246.575 729.028 247.507 730.31 248.381C731.592 249.197 733.223 249.955 735.205 250.654C737.186 251.295 739.575 251.877 742.372 252.402C748.723 253.567 754.666 255.228 760.202 257.384C765.737 259.54 770.224 262.599 773.662 266.561C777.158 270.523 778.906 275.855 778.906 282.556C778.906 286.751 777.944 290.626 776.021 294.18C774.099 297.676 771.331 300.764 767.718 303.445C764.106 306.067 759.765 308.106 754.695 309.563C749.626 311.02 743.916 311.748 737.564 311.748C728.533 311.748 720.9 310.146 714.665 306.941C708.43 303.678 703.711 299.599 700.506 294.705C697.359 289.752 695.786 284.741 695.786 279.671H723.23C723.347 282.585 724.046 284.974 725.328 286.838C726.668 288.703 728.445 290.072 730.66 290.946C732.874 291.82 735.438 292.257 738.351 292.257C741.031 292.257 743.246 291.879 744.994 291.121C746.8 290.364 748.169 289.344 749.102 288.062C750.034 286.722 750.5 285.178 750.5 283.43ZM841.835 286.227V247.245C841.835 244.565 841.457 242.263 840.699 240.34C839.942 238.417 838.747 236.932 837.116 235.883C835.484 234.776 833.299 234.222 830.561 234.222C828.346 234.222 826.453 234.601 824.879 235.358C823.306 236.116 822.112 237.252 821.296 238.767C820.48 240.282 820.072 242.205 820.072 244.536H790.618C790.618 240.166 791.579 236.116 793.502 232.387C795.483 228.599 798.28 225.307 801.893 222.51C805.563 219.713 809.934 217.557 815.003 216.042C820.131 214.469 825.841 213.683 832.134 213.683C839.65 213.683 846.351 214.935 852.236 217.441C858.18 219.946 862.87 223.705 866.308 228.716C869.746 233.669 871.465 239.903 871.465 247.42V286.139C871.465 292.316 871.814 297.006 872.514 300.211C873.213 303.357 874.203 306.125 875.485 308.514V310H845.943C844.545 307.087 843.496 303.532 842.797 299.337C842.156 295.083 841.835 290.713 841.835 286.227ZM845.419 252.227L845.594 267.959H832.571C829.832 267.959 827.501 268.338 825.579 269.096C823.714 269.853 822.199 270.902 821.034 272.242C819.927 273.524 819.111 274.981 818.586 276.612C818.12 278.244 817.887 279.963 817.887 281.769C817.887 283.517 818.295 285.09 819.111 286.489C819.985 287.829 821.15 288.878 822.607 289.635C824.064 290.393 825.695 290.771 827.501 290.771C830.764 290.771 833.532 290.16 835.805 288.936C838.135 287.654 839.913 286.11 841.136 284.304C842.36 282.497 842.972 280.808 842.972 279.234L849.439 291.296C848.274 293.627 846.934 295.986 845.419 298.375C843.962 300.764 842.127 302.979 839.913 305.018C837.757 306.999 835.105 308.631 831.959 309.913C828.812 311.136 824.996 311.748 820.509 311.748C814.682 311.748 809.322 310.554 804.427 308.165C799.591 305.776 795.716 302.454 792.803 298.201C789.889 293.889 788.433 288.936 788.433 283.342C788.433 278.448 789.307 274.078 791.055 270.232C792.861 266.386 795.57 263.123 799.183 260.443C802.796 257.763 807.399 255.723 812.993 254.325C818.586 252.926 825.171 252.227 832.746 252.227H845.419ZM916.739 235.621V310H887.285V215.431H914.904L916.739 235.621ZM913.243 259.481L906.338 259.656C906.338 252.431 907.212 245.992 908.96 240.34C910.708 234.63 913.185 229.794 916.39 225.832C919.594 221.869 923.411 218.868 927.839 216.829C932.326 214.731 937.308 213.683 942.785 213.683C947.155 213.683 951.147 214.324 954.759 215.605C958.43 216.887 961.577 218.956 964.199 221.811C966.879 224.666 968.918 228.454 970.317 233.173C971.774 237.835 972.502 243.603 972.502 250.479V310H942.873V250.392C942.873 246.604 942.348 243.72 941.299 241.739C940.25 239.699 938.736 238.301 936.754 237.543C934.773 236.786 932.355 236.407 929.5 236.407C926.47 236.407 923.906 236.99 921.809 238.155C919.711 239.321 918.021 240.952 916.739 243.05C915.516 245.089 914.612 247.507 914.03 250.304C913.505 253.101 913.243 256.16 913.243 259.481ZM1048.28 215.431H1075.02V306.329C1075.02 315.069 1073.01 322.469 1068.99 328.529C1064.97 334.647 1059.35 339.28 1052.13 342.426C1044.96 345.631 1036.57 347.233 1026.95 347.233C1022.7 347.233 1018.36 346.68 1013.93 345.573C1009.5 344.524 1005.37 342.951 1001.52 340.853C997.674 338.755 994.44 336.162 991.818 333.074L1004.14 315.769C1006.53 318.449 1009.53 320.721 1013.14 322.586C1016.76 324.509 1021.01 325.47 1025.9 325.47C1030.16 325.47 1033.71 324.713 1036.57 323.198C1039.48 321.683 1041.7 319.469 1043.21 316.555C1044.73 313.7 1045.48 310.233 1045.48 306.154V237.806L1048.28 215.431ZM985.438 263.852V262.016C985.438 254.849 986.312 248.323 988.06 242.438C989.866 236.495 992.43 231.396 995.751 227.143C999.131 222.831 1003.21 219.509 1007.99 217.179C1012.77 214.848 1018.16 213.683 1024.16 213.683C1030.62 213.683 1035.93 214.935 1040.06 217.441C1044.26 219.888 1047.61 223.326 1050.12 227.754C1052.68 232.183 1054.66 237.369 1056.06 243.312C1057.52 249.197 1058.74 255.548 1059.73 262.366V264.551C1058.74 270.96 1057.37 277.02 1055.62 282.73C1053.93 288.382 1051.72 293.394 1048.98 297.764C1046.24 302.134 1042.8 305.572 1038.67 308.077C1034.59 310.524 1029.69 311.748 1023.98 311.748C1018.04 311.748 1012.68 310.554 1007.9 308.165C1003.18 305.776 999.131 302.425 995.751 298.113C992.43 293.801 989.866 288.732 988.06 282.905C986.312 277.078 985.438 270.727 985.438 263.852ZM1014.89 262.016V263.852C1014.89 267.406 1015.21 270.698 1015.85 273.728C1016.55 276.758 1017.6 279.438 1019 281.769C1020.4 284.042 1022.12 285.819 1024.16 287.101C1026.25 288.382 1028.7 289.023 1031.5 289.023C1035.75 289.023 1039.19 288.12 1041.81 286.314C1044.43 284.508 1046.33 281.944 1047.49 278.623C1048.66 275.301 1049.15 271.397 1048.98 266.911V260.006C1049.1 256.16 1048.83 252.781 1048.19 249.867C1047.55 246.896 1046.53 244.419 1045.13 242.438C1043.79 240.457 1041.99 238.971 1039.71 237.98C1037.5 236.932 1034.82 236.407 1031.67 236.407C1028.93 236.407 1026.52 237.048 1024.42 238.33C1022.32 239.612 1020.57 241.418 1019.17 243.749C1017.78 246.021 1016.7 248.731 1015.94 251.877C1015.24 254.966 1014.89 258.345 1014.89 262.016Z" fill="url(#paint1_linear_232_43)"/>
<defs>
<linearGradient id="paint0_linear_232_43" x1="2.96126e-07" y1="0.777258" x2="88.064" y2="9.50464" gradientUnits="userSpaceOnUse">
<stop stop-color="#00E1C3"/>
<stop offset="1" stop-color="#00D1D5"/>
</linearGradient>
<linearGradient id="paint1_linear_232_43" x1="482" y1="144.371" x2="603.767" y2="534.656" gradientUnits="userSpaceOnUse">
<stop stop-color="#00E1C3"/>
<stop offset="1" stop-color="#00D1D5"/>
</linearGradient>
<clipPath id="clip0_232_43">
<rect width="179" height="179" fill="white" transform="translate(189 136.5)"/>
</clipPath>
</defs>
</svg>
