<svg xmlns="http://www.w3.org/2000/svg" width="1219" height="440" fill="none" viewBox="0 0 1219 440"><path fill="#132636" d="M3 37C3 16.5655 19.5655 0 40 0H1172.53C1196.31 0 1213.92 22.1121 1208.59 45.2887L1124.69 410.289C1120.83 427.092 1105.87 439 1088.63 439H40C19.5655 439 3 422.435 3 402V37Z"/><path fill="#132636" d="M0 37C0 16.5655 16.5655 0 37 0H39V440H37C16.5655 440 0 423.435 0 403V37Z"/><path fill="url(#paint0_linear_232_43)" d="M0 37C0 16.5655 16.5655 0 37 0H39V440H37C16.5655 440 0 423.435 0 403V37Z"/><g clip-path="url(#clip0_232_43)"><path fill="#01D8CE" d="M324.112 144.293C326.467 141.855 329.284 139.91 332.398 138.572C335.513 137.235 338.862 136.53 342.252 136.501C345.641 136.472 349.002 137.117 352.139 138.401C355.277 139.684 358.127 141.58 360.523 143.977C362.92 146.373 364.816 149.223 366.099 152.361C367.383 155.498 368.028 158.859 367.999 162.248C367.97 165.638 367.265 168.987 365.928 172.102C364.59 175.216 362.645 178.033 360.207 180.388L350.086 190.509L313.991 154.414L324.112 144.293V144.293ZM295.944 172.462L189 279.405V315.5H225.095L332.051 208.556L295.931 172.462H295.944Z"/></g><path fill="#fff" d="M503.011 147.114L512.627 111.789H525.101L509.517 158H501.456L503.011 147.114ZM494.283 111.789L503.899 147.114L505.518 158H497.361L481.873 111.789H494.283ZM547.159 149.653V123.659H557.886V158H547.857L547.159 149.653ZM548.174 142.67L550.967 142.607C550.967 144.913 550.692 147.05 550.142 149.018C549.592 150.965 548.777 152.657 547.698 154.096C546.64 155.535 545.328 156.656 543.763 157.46C542.218 158.243 540.43 158.635 538.399 158.635C536.706 158.635 535.151 158.402 533.733 157.937C532.337 157.45 531.131 156.699 530.115 155.683C529.1 154.646 528.306 153.324 527.735 151.716C527.185 150.087 526.91 148.14 526.91 145.876V123.659H537.605V145.939C537.605 146.701 537.701 147.357 537.891 147.907C538.082 148.457 538.357 148.923 538.716 149.304C539.076 149.663 539.52 149.938 540.049 150.129C540.599 150.298 541.224 150.383 541.922 150.383C543.53 150.383 544.789 150.044 545.699 149.367C546.609 148.69 547.243 147.77 547.603 146.606C547.984 145.442 548.174 144.13 548.174 142.67ZM580.42 158.635C577.627 158.635 575.131 158.201 572.93 157.333C570.73 156.445 568.868 155.228 567.344 153.684C565.842 152.139 564.689 150.362 563.885 148.352C563.102 146.341 562.71 144.215 562.71 141.972V140.766C562.71 138.248 563.06 135.921 563.758 133.784C564.456 131.625 565.493 129.742 566.868 128.134C568.243 126.526 569.968 125.278 572.042 124.389C574.115 123.479 576.527 123.024 579.278 123.024C581.711 123.024 583.89 123.416 585.816 124.199C587.741 124.982 589.371 126.103 590.704 127.563C592.058 129.023 593.084 130.79 593.782 132.863C594.502 134.937 594.861 137.264 594.861 139.846V144.194H566.805V137.497H584.419V136.672C584.441 135.529 584.24 134.556 583.816 133.752C583.414 132.948 582.822 132.334 582.039 131.911C581.256 131.488 580.304 131.276 579.183 131.276C578.019 131.276 577.056 131.53 576.294 132.038C575.554 132.546 574.972 133.244 574.549 134.133C574.147 135 573.861 136.005 573.692 137.148C573.523 138.291 573.438 139.497 573.438 140.766V141.972C573.438 143.242 573.607 144.395 573.946 145.432C574.306 146.468 574.813 147.357 575.469 148.098C576.146 148.817 576.95 149.378 577.881 149.78C578.833 150.182 579.913 150.383 581.119 150.383C582.579 150.383 584.017 150.108 585.435 149.558C586.853 149.007 588.069 148.098 589.085 146.828L593.941 152.604C593.243 153.599 592.248 154.562 590.958 155.493C589.688 156.424 588.165 157.185 586.387 157.778C584.61 158.349 582.621 158.635 580.42 158.635ZM622.093 111.789V158H610.953V111.789H622.093ZM635.994 111.789V120.39H597.369V111.789H635.994ZM658.179 149.653V123.659H668.907V158H658.877L658.179 149.653ZM659.195 142.67L661.988 142.607C661.988 144.913 661.713 147.05 661.163 149.018C660.612 150.965 659.798 152.657 658.719 154.096C657.661 155.535 656.349 156.656 654.783 157.46C653.239 158.243 651.451 158.635 649.419 158.635C647.727 158.635 646.172 158.402 644.754 157.937C643.357 157.45 642.151 156.699 641.136 155.683C640.12 154.646 639.327 153.324 638.755 151.716C638.205 150.087 637.93 148.14 637.93 145.876V123.659H648.626V145.939C648.626 146.701 648.721 147.357 648.912 147.907C649.102 148.457 649.377 148.923 649.737 149.304C650.097 149.663 650.541 149.938 651.07 150.129C651.62 150.298 652.244 150.383 652.942 150.383C654.55 150.383 655.809 150.044 656.719 149.367C657.629 148.69 658.264 147.77 658.624 146.606C659.004 145.442 659.195 144.13 659.195 142.67ZM674.905 109.25H685.601V149.558L684.49 158H674.905V109.25ZM706.675 140.449V141.115C706.675 143.718 706.411 146.088 705.882 148.225C705.353 150.362 704.538 152.213 703.438 153.779C702.338 155.323 700.952 156.519 699.28 157.365C697.609 158.212 695.63 158.635 693.345 158.635C691.272 158.635 689.494 158.19 688.013 157.302C686.532 156.392 685.294 155.144 684.3 153.557C683.305 151.949 682.501 150.097 681.888 148.002C681.274 145.887 680.787 143.623 680.428 141.21V140.417C680.787 138.026 681.274 135.783 681.888 133.688C682.501 131.573 683.305 129.721 684.3 128.134C685.294 126.526 686.521 125.278 687.981 124.389C689.463 123.479 691.229 123.024 693.282 123.024C695.588 123.024 697.577 123.458 699.249 124.326C700.941 125.193 702.338 126.41 703.438 127.976C704.538 129.541 705.353 131.382 705.882 133.498C706.411 135.614 706.675 137.931 706.675 140.449ZM695.979 141.115V140.449C695.979 139.2 695.905 138.026 695.757 136.926C695.609 135.826 695.345 134.852 694.964 134.006C694.583 133.16 694.043 132.493 693.345 132.006C692.647 131.52 691.737 131.276 690.616 131.276C689.473 131.276 688.51 131.467 687.728 131.848C686.966 132.229 686.352 132.779 685.887 133.498C685.442 134.196 685.125 135.064 684.935 136.101C684.744 137.116 684.66 138.269 684.681 139.56V142.067C684.638 143.824 684.797 145.326 685.157 146.574C685.516 147.823 686.141 148.775 687.029 149.431C687.918 150.087 689.135 150.415 690.679 150.415C691.822 150.415 692.742 150.192 693.44 149.748C694.16 149.304 694.699 148.669 695.059 147.844C695.419 147.019 695.662 146.035 695.789 144.892C695.916 143.75 695.979 142.491 695.979 141.115ZM728.067 158.635C725.274 158.635 722.777 158.201 720.577 157.333C718.376 156.445 716.514 155.228 714.991 153.684C713.488 152.139 712.335 150.362 711.531 148.352C710.748 146.341 710.357 144.215 710.357 141.972V140.766C710.357 138.248 710.706 135.921 711.404 133.784C712.103 131.625 713.139 129.742 714.515 128.134C715.89 126.526 717.614 125.278 719.688 124.389C721.762 123.479 724.174 123.024 726.924 123.024C729.358 123.024 731.537 123.416 733.462 124.199C735.388 124.982 737.017 126.103 738.35 127.563C739.704 129.023 740.73 130.79 741.429 132.863C742.148 134.937 742.508 137.264 742.508 139.846V144.194H714.451V137.497H732.066V136.672C732.087 135.529 731.886 134.556 731.463 133.752C731.061 132.948 730.468 132.334 729.686 131.911C728.903 131.488 727.951 131.276 726.829 131.276C725.665 131.276 724.703 131.53 723.941 132.038C723.2 132.546 722.618 133.244 722.195 134.133C721.793 135 721.508 136.005 721.338 137.148C721.169 138.291 721.084 139.497 721.084 140.766V141.972C721.084 143.242 721.254 144.395 721.592 145.432C721.952 146.468 722.46 147.357 723.116 148.098C723.793 148.817 724.597 149.378 725.528 149.78C726.48 150.182 727.559 150.383 728.765 150.383C730.225 150.383 731.664 150.108 733.082 149.558C734.499 149.007 735.716 148.098 736.731 146.828L741.587 152.604C740.889 153.599 739.895 154.562 738.604 155.493C737.334 156.424 735.811 157.185 734.034 157.778C732.256 158.349 730.267 158.635 728.067 158.635Z"/><path fill="#fff" d="M542.482 266.823H510.843V243.137H542.482C546.794 243.137 550.29 242.409 552.971 240.952C555.651 239.495 557.603 237.485 558.827 234.921C560.109 232.299 560.75 229.357 560.75 226.094C560.75 222.598 560.109 219.364 558.827 216.392C557.603 213.42 555.651 211.031 552.971 209.225C550.29 207.361 546.794 206.428 542.482 206.428H522.38V310H491.702V182.742H542.482C552.679 182.742 561.449 184.607 568.791 188.336C576.191 192.065 581.872 197.193 585.834 203.719C589.796 210.187 591.777 217.587 591.777 225.919C591.777 234.135 589.796 241.302 585.834 247.42C581.872 253.538 576.191 258.316 568.791 261.754C561.449 265.133 552.679 266.823 542.482 266.823ZM651.473 311.748C643.782 311.748 636.906 310.554 630.846 308.165C624.786 305.717 619.659 302.367 615.463 298.113C611.326 293.86 608.151 288.965 605.937 283.43C603.781 277.894 602.703 272.038 602.703 265.862V262.541C602.703 255.607 603.664 249.197 605.587 243.312C607.51 237.369 610.365 232.183 614.152 227.754C617.94 223.326 622.689 219.888 628.399 217.441C634.109 214.935 640.752 213.683 648.327 213.683C655.028 213.683 661.029 214.761 666.332 216.917C671.634 219.072 676.121 222.161 679.792 226.181C683.521 230.202 686.347 235.067 688.27 240.777C690.251 246.488 691.241 252.897 691.241 260.006V271.98H613.978V253.538H662.486V251.266C662.544 248.119 661.991 245.439 660.825 243.225C659.718 241.01 658.087 239.321 655.931 238.155C653.775 236.99 651.153 236.407 648.064 236.407C644.86 236.407 642.208 237.106 640.111 238.505C638.071 239.903 636.469 241.826 635.304 244.273C634.197 246.662 633.41 249.43 632.944 252.577C632.478 255.723 632.245 259.044 632.245 262.541V265.862C632.245 269.358 632.711 272.534 633.643 275.389C634.634 278.244 636.032 280.691 637.838 282.73C639.703 284.712 641.917 286.256 644.481 287.363C647.103 288.47 650.075 289.023 653.396 289.023C657.417 289.023 661.379 288.266 665.283 286.751C669.187 285.236 672.537 282.73 675.334 279.234L688.707 295.142C686.784 297.88 684.045 300.531 680.491 303.095C676.995 305.659 672.799 307.757 667.905 309.388C663.01 310.961 657.533 311.748 651.473 311.748ZM734.331 175.75V310H704.789V175.75H734.331ZM801.63 286.227V247.245C801.63 244.565 801.252 242.263 800.494 240.34C799.737 238.417 798.542 236.932 796.911 235.883C795.279 234.776 793.094 234.222 790.355 234.222C788.141 234.222 786.248 234.601 784.674 235.358C783.101 236.116 781.907 237.252 781.091 238.767C780.275 240.282 779.867 242.205 779.867 244.536H750.413C750.413 240.166 751.374 236.116 753.297 232.387C755.278 228.599 758.075 225.307 761.688 222.51C765.358 219.713 769.729 217.557 774.798 216.042C779.925 214.469 785.636 213.683 791.929 213.683C799.445 213.683 806.146 214.935 812.031 217.441C817.975 219.946 822.665 223.705 826.103 228.716C829.541 233.669 831.26 239.903 831.26 247.42V286.139C831.26 292.316 831.609 297.006 832.309 300.211C833.008 303.357 833.998 306.125 835.28 308.514V310H805.738C804.34 307.087 803.291 303.532 802.592 299.337C801.951 295.083 801.63 290.713 801.63 286.227ZM805.214 252.227L805.389 267.959H792.366C789.627 267.959 787.296 268.338 785.374 269.096C783.509 269.853 781.994 270.902 780.829 272.242C779.722 273.524 778.906 274.981 778.381 276.612C777.915 278.244 777.682 279.963 777.682 281.769C777.682 283.517 778.09 285.09 778.906 286.489C779.78 287.829 780.945 288.878 782.402 289.635C783.859 290.393 785.49 290.771 787.296 290.771C790.559 290.771 793.327 290.16 795.6 288.936C797.93 287.654 799.708 286.11 800.931 284.304C802.155 282.497 802.767 280.808 802.767 279.234L809.234 291.296C808.069 293.627 806.729 295.986 805.214 298.375C803.757 300.764 801.922 302.979 799.708 305.018C797.552 306.999 794.9 308.631 791.754 309.913C788.607 311.136 784.791 311.748 780.304 311.748C774.477 311.748 769.117 310.554 764.222 308.165C759.386 305.776 755.511 302.454 752.598 298.201C749.684 293.889 748.228 288.936 748.228 283.342C748.228 278.448 749.102 274.078 750.85 270.232C752.656 266.386 755.365 263.123 758.978 260.443C762.591 257.763 767.194 255.723 772.788 254.325C778.381 252.926 784.966 252.227 792.541 252.227H805.214ZM876.534 235.621V310H847.08V215.431H874.699L876.534 235.621ZM873.038 259.481L866.133 259.656C866.133 252.431 867.007 245.992 868.755 240.34C870.503 234.63 872.98 229.794 876.185 225.832C879.389 221.869 883.206 218.868 887.634 216.829C892.121 214.731 897.103 213.683 902.58 213.683C906.95 213.683 910.942 214.324 914.554 215.605C918.225 216.887 921.372 218.956 923.994 221.811C926.674 224.666 928.713 228.454 930.112 233.173C931.569 237.835 932.297 243.603 932.297 250.479V310H902.667V250.392C902.667 246.604 902.143 243.72 901.094 241.739C900.045 239.699 898.53 238.301 896.549 237.543C894.568 236.786 892.15 236.407 889.295 236.407C886.265 236.407 883.701 236.99 881.604 238.155C879.506 239.321 877.816 240.952 876.534 243.05C875.311 245.089 874.407 247.507 873.825 250.304C873.3 253.101 873.038 256.16 873.038 259.481Z"/><path fill="url(#paint1_linear_232_43)" d="M542.482 266.823H510.843V243.137H542.482C546.794 243.137 550.29 242.409 552.971 240.952C555.651 239.495 557.603 237.485 558.827 234.921C560.109 232.299 560.75 229.357 560.75 226.094C560.75 222.598 560.109 219.364 558.827 216.392C557.603 213.42 555.651 211.031 552.971 209.225C550.29 207.361 546.794 206.428 542.482 206.428H522.38V310H491.702V182.742H542.482C552.679 182.742 561.449 184.607 568.791 188.336C576.191 192.065 581.872 197.193 585.834 203.719C589.796 210.187 591.777 217.587 591.777 225.919C591.777 234.135 589.796 241.302 585.834 247.42C581.872 253.538 576.191 258.316 568.791 261.754C561.449 265.133 552.679 266.823 542.482 266.823ZM651.473 311.748C643.782 311.748 636.906 310.554 630.846 308.165C624.786 305.717 619.659 302.367 615.463 298.113C611.326 293.86 608.151 288.965 605.937 283.43C603.781 277.894 602.703 272.038 602.703 265.862V262.541C602.703 255.607 603.664 249.197 605.587 243.312C607.51 237.369 610.365 232.183 614.152 227.754C617.94 223.326 622.689 219.888 628.399 217.441C634.109 214.935 640.752 213.683 648.327 213.683C655.028 213.683 661.029 214.761 666.332 216.917C671.634 219.072 676.121 222.161 679.792 226.181C683.521 230.202 686.347 235.067 688.27 240.777C690.251 246.488 691.241 252.897 691.241 260.006V271.98H613.978V253.538H662.486V251.266C662.544 248.119 661.991 245.439 660.825 243.225C659.718 241.01 658.087 239.321 655.931 238.155C653.775 236.99 651.153 236.407 648.064 236.407C644.86 236.407 642.208 237.106 640.111 238.505C638.071 239.903 636.469 241.826 635.304 244.273C634.197 246.662 633.41 249.43 632.944 252.577C632.478 255.723 632.245 259.044 632.245 262.541V265.862C632.245 269.358 632.711 272.534 633.643 275.389C634.634 278.244 636.032 280.691 637.838 282.73C639.703 284.712 641.917 286.256 644.481 287.363C647.103 288.47 650.075 289.023 653.396 289.023C657.417 289.023 661.379 288.266 665.283 286.751C669.187 285.236 672.537 282.73 675.334 279.234L688.707 295.142C686.784 297.88 684.045 300.531 680.491 303.095C676.995 305.659 672.799 307.757 667.905 309.388C663.01 310.961 657.533 311.748 651.473 311.748ZM734.331 175.75V310H704.789V175.75H734.331ZM801.63 286.227V247.245C801.63 244.565 801.252 242.263 800.494 240.34C799.737 238.417 798.542 236.932 796.911 235.883C795.279 234.776 793.094 234.222 790.355 234.222C788.141 234.222 786.248 234.601 784.674 235.358C783.101 236.116 781.907 237.252 781.091 238.767C780.275 240.282 779.867 242.205 779.867 244.536H750.413C750.413 240.166 751.374 236.116 753.297 232.387C755.278 228.599 758.075 225.307 761.688 222.51C765.358 219.713 769.729 217.557 774.798 216.042C779.925 214.469 785.636 213.683 791.929 213.683C799.445 213.683 806.146 214.935 812.031 217.441C817.975 219.946 822.665 223.705 826.103 228.716C829.541 233.669 831.26 239.903 831.26 247.42V286.139C831.26 292.316 831.609 297.006 832.309 300.211C833.008 303.357 833.998 306.125 835.28 308.514V310H805.738C804.34 307.087 803.291 303.532 802.592 299.337C801.951 295.083 801.63 290.713 801.63 286.227ZM805.214 252.227L805.389 267.959H792.366C789.627 267.959 787.296 268.338 785.374 269.096C783.509 269.853 781.994 270.902 780.829 272.242C779.722 273.524 778.906 274.981 778.381 276.612C777.915 278.244 777.682 279.963 777.682 281.769C777.682 283.517 778.09 285.09 778.906 286.489C779.78 287.829 780.945 288.878 782.402 289.635C783.859 290.393 785.49 290.771 787.296 290.771C790.559 290.771 793.327 290.16 795.6 288.936C797.93 287.654 799.708 286.11 800.931 284.304C802.155 282.497 802.767 280.808 802.767 279.234L809.234 291.296C808.069 293.627 806.729 295.986 805.214 298.375C803.757 300.764 801.922 302.979 799.708 305.018C797.552 306.999 794.9 308.631 791.754 309.913C788.607 311.136 784.791 311.748 780.304 311.748C774.477 311.748 769.117 310.554 764.222 308.165C759.386 305.776 755.511 302.454 752.598 298.201C749.684 293.889 748.228 288.936 748.228 283.342C748.228 278.448 749.102 274.078 750.85 270.232C752.656 266.386 755.365 263.123 758.978 260.443C762.591 257.763 767.194 255.723 772.788 254.325C778.381 252.926 784.966 252.227 792.541 252.227H805.214ZM876.534 235.621V310H847.08V215.431H874.699L876.534 235.621ZM873.038 259.481L866.133 259.656C866.133 252.431 867.007 245.992 868.755 240.34C870.503 234.63 872.98 229.794 876.185 225.832C879.389 221.869 883.206 218.868 887.634 216.829C892.121 214.731 897.103 213.683 902.58 213.683C906.95 213.683 910.942 214.324 914.554 215.605C918.225 216.887 921.372 218.956 923.994 221.811C926.674 224.666 928.713 228.454 930.112 233.173C931.569 237.835 932.297 243.603 932.297 250.479V310H902.667V250.392C902.667 246.604 902.143 243.72 901.094 241.739C900.045 239.699 898.53 238.301 896.549 237.543C894.568 236.786 892.15 236.407 889.295 236.407C886.265 236.407 883.701 236.99 881.604 238.155C879.506 239.321 877.816 240.952 876.534 243.05C875.311 245.089 874.407 247.507 873.825 250.304C873.3 253.101 873.038 256.16 873.038 259.481Z"/><defs><linearGradient id="paint0_linear_232_43" x1="0" x2="88.064" y1=".777" y2="9.505" gradientUnits="userSpaceOnUse"><stop stop-color="#00E1C3"/><stop offset="1" stop-color="#00D1D5"/></linearGradient><linearGradient id="paint1_linear_232_43" x1="482" x2="622.35" y1="144.371" y2="520.24" gradientUnits="userSpaceOnUse"><stop stop-color="#00E1C3"/><stop offset="1" stop-color="#00D1D5"/></linearGradient><clipPath id="clip0_232_43"><rect width="179" height="179" fill="#fff" transform="translate(189 136.5)"/></clipPath></defs></svg>