<svg width="512" height="512" viewBox="0 0 512 512" fill="none" xmlns="http://www.w3.org/2000/svg">
    <rect width="512" height="512" fill="url(#paint0_linear_256_29)" />
    <g filter="url(#filter0_b_256_29)">
        <circle cx="256" cy="256" r="200" fill="white" fill-opacity="0.1" />
    </g>
    <path fill-rule="evenodd" clip-rule="evenodd" d="M328.761 269.395C339.456 263.242 339.456 247.811 328.761 241.658L290.096 219.412L329.969 200.819L346.714 210.453L400.951 241.658C411.646 247.811 411.646 263.242 400.951 269.395L346.732 300.588L346.714 300.599L328.643 310.996L288.77 292.403L328.761 269.395ZM207 293.994V311.783V311.79C207.005 324.089 220.308 331.784 230.971 325.656L230.979 325.652L250.637 314.342L290.509 332.935L248.932 356.856L248.904 356.872L194.979 387.897C184.312 394.034 171 386.334 171 374.028L171 311.783L171 277.207L207 293.994ZM291.835 178.88L251.962 197.473L230.979 185.4L230.966 185.393C220.302 179.27 207 186.968 207 199.269V218.439L171 235.226L171 199.269L171 137.024C171 124.718 184.312 117.018 194.979 123.155L248.925 154.192L248.932 154.196L291.835 178.88Z" fill="white" />
    <defs>
        <filter id="filter0_b_256_29" x="-13" y="-13" width="538" height="538" filterUnits="userSpaceOnUse" color-interpolation-filters="sRGB">
            <feFlood flood-opacity="0" result="BackgroundImageFix" />
            <feGaussianBlur in="BackgroundImage" stdDeviation="34.5" />
            <feComposite in2="SourceAlpha" operator="in" result="effect1_backgroundBlur_256_29" />
            <feBlend mode="normal" in="SourceGraphic" in2="effect1_backgroundBlur_256_29" result="shape" />
        </filter>
        <linearGradient id="paint0_linear_256_29" x1="0" y1="0" x2="512" y2="512" gradientUnits="userSpaceOnUse">
            <stop stop-color="#44AA88" />
            <stop offset="1" stop-color="#334455" />
        </linearGradient>
    </defs>
</svg>