<svg xmlns="http://www.w3.org/2000/svg" width="1443" height="440" fill="none" viewBox="0 0 1443 440"><path fill="#132636" d="M3 37C3 16.5655 19.5655 0 40 0H1394.58C1418.97 0 1436.69 23.1849 1430.28 46.718L1330.93 411.718C1326.54 427.824 1311.92 439 1295.23 439H40C19.5654 439 3 422.435 3 402V37Z"/><path fill="#132636" d="M0 37C0 16.5655 16.5655 0 37 0H39V440H37C16.5655 440 0 423.435 0 403V37Z"/><path fill="url(#paint0_linear_201_150)" d="M0 37C0 16.5655 16.5655 0 37 0H39V440H37C16.5655 440 0 423.435 0 403V37Z"/><path fill="url(#paint1_linear_201_150)" d="M339.24 239.163C349.416 233.319 349.415 218.678 339.238 212.836L304.727 193.042L342.697 175.39L395.065 205.427C410.978 214.555 410.978 237.445 395.065 246.573L340.201 278.042L302.231 260.39L339.24 239.163Z"/><path fill="url(#paint2_linear_201_150)" d="M223.282 259.304V279.416C223.287 291.095 235.961 298.401 246.117 292.576L267.934 280.062L305.904 297.714L224.679 344.303C208.808 353.406 189 341.985 189 323.73L189 243.366L223.282 259.304Z"/><path fill="url(#paint3_linear_201_150)" d="M308.401 155.718L270.431 173.37L246.103 159.416C235.948 153.604 223.282 160.913 223.282 172.59V195.289L189 211.226L189 128.27C189 110.015 208.808 98.5937 224.679 107.697L308.401 155.718Z"/><path fill="#fff" d="M542.011 147.114L551.627 111.789H564.101L548.517 158H540.456L542.011 147.114ZM533.283 111.789L542.899 147.114L544.518 158H536.361L520.873 111.789H533.283ZM586.159 149.653V123.659H596.886V158H586.857L586.159 149.653ZM587.174 142.67L589.967 142.607C589.967 144.913 589.692 147.05 589.142 149.018C588.592 150.965 587.777 152.657 586.698 154.096C585.64 155.535 584.328 156.656 582.763 157.46C581.218 158.243 579.43 158.635 577.399 158.635C575.706 158.635 574.151 158.402 572.733 157.937C571.337 157.45 570.131 156.699 569.115 155.683C568.1 154.646 567.306 153.324 566.735 151.716C566.185 150.087 565.91 148.14 565.91 145.876V123.659H576.605V145.939C576.605 146.701 576.701 147.357 576.891 147.907C577.082 148.457 577.357 148.923 577.716 149.304C578.076 149.663 578.52 149.938 579.049 150.129C579.599 150.298 580.224 150.383 580.922 150.383C582.53 150.383 583.789 150.044 584.699 149.367C585.609 148.69 586.243 147.77 586.603 146.606C586.984 145.442 587.174 144.13 587.174 142.67ZM619.42 158.635C616.627 158.635 614.131 158.201 611.93 157.333C609.73 156.445 607.868 155.228 606.344 153.684C604.842 152.139 603.689 150.362 602.885 148.352C602.102 146.341 601.71 144.215 601.71 141.972V140.766C601.71 138.248 602.06 135.921 602.758 133.784C603.456 131.625 604.493 129.742 605.868 128.134C607.243 126.526 608.968 125.278 611.042 124.389C613.115 123.479 615.527 123.024 618.278 123.024C620.711 123.024 622.89 123.416 624.816 124.199C626.741 124.982 628.371 126.103 629.704 127.563C631.058 129.023 632.084 130.79 632.782 132.863C633.502 134.937 633.861 137.264 633.861 139.846V144.194H605.805V137.497H623.419V136.672C623.441 135.529 623.24 134.556 622.816 133.752C622.414 132.948 621.822 132.334 621.039 131.911C620.256 131.488 619.304 131.276 618.183 131.276C617.019 131.276 616.056 131.53 615.294 132.038C614.554 132.546 613.972 133.244 613.549 134.133C613.147 135 612.861 136.005 612.692 137.148C612.523 138.291 612.438 139.497 612.438 140.766V141.972C612.438 143.242 612.607 144.395 612.946 145.432C613.306 146.468 613.813 147.357 614.469 148.098C615.146 148.817 615.95 149.378 616.881 149.78C617.833 150.182 618.913 150.383 620.119 150.383C621.579 150.383 623.017 150.108 624.435 149.558C625.853 149.007 627.069 148.098 628.085 146.828L632.941 152.604C632.243 153.599 631.248 154.562 629.958 155.493C628.688 156.424 627.165 157.185 625.387 157.778C623.61 158.349 621.621 158.635 619.42 158.635ZM661.093 111.789V158H649.953V111.789H661.093ZM674.994 111.789V120.39H636.369V111.789H674.994ZM697.179 149.653V123.659H707.907V158H697.877L697.179 149.653ZM698.195 142.67L700.988 142.607C700.988 144.913 700.713 147.05 700.163 149.018C699.612 150.965 698.798 152.657 697.719 154.096C696.661 155.535 695.349 156.656 693.783 157.46C692.239 158.243 690.451 158.635 688.419 158.635C686.727 158.635 685.172 158.402 683.754 157.937C682.357 157.45 681.151 156.699 680.136 155.683C679.12 154.646 678.327 153.324 677.755 151.716C677.205 150.087 676.93 148.14 676.93 145.876V123.659H687.626V145.939C687.626 146.701 687.721 147.357 687.912 147.907C688.102 148.457 688.377 148.923 688.737 149.304C689.097 149.663 689.541 149.938 690.07 150.129C690.62 150.298 691.244 150.383 691.942 150.383C693.55 150.383 694.809 150.044 695.719 149.367C696.629 148.69 697.264 147.77 697.624 146.606C698.004 145.442 698.195 144.13 698.195 142.67ZM713.905 109.25H724.601V149.558L723.49 158H713.905V109.25ZM745.675 140.449V141.115C745.675 143.718 745.411 146.088 744.882 148.225C744.353 150.362 743.538 152.213 742.438 153.779C741.338 155.323 739.952 156.519 738.28 157.365C736.609 158.212 734.63 158.635 732.345 158.635C730.272 158.635 728.494 158.19 727.013 157.302C725.532 156.392 724.294 155.144 723.3 153.557C722.305 151.949 721.501 150.097 720.888 148.002C720.274 145.887 719.787 143.623 719.428 141.21V140.417C719.787 138.026 720.274 135.783 720.888 133.688C721.501 131.573 722.305 129.721 723.3 128.134C724.294 126.526 725.521 125.278 726.981 124.389C728.463 123.479 730.229 123.024 732.282 123.024C734.588 123.024 736.577 123.458 738.249 124.326C739.941 125.193 741.338 126.41 742.438 127.976C743.538 129.541 744.353 131.382 744.882 133.498C745.411 135.614 745.675 137.931 745.675 140.449ZM734.979 141.115V140.449C734.979 139.2 734.905 138.026 734.757 136.926C734.609 135.826 734.345 134.852 733.964 134.006C733.583 133.16 733.043 132.493 732.345 132.006C731.647 131.52 730.737 131.276 729.616 131.276C728.473 131.276 727.51 131.467 726.728 131.848C725.966 132.229 725.352 132.779 724.887 133.498C724.442 134.196 724.125 135.064 723.935 136.101C723.744 137.116 723.66 138.269 723.681 139.56V142.067C723.638 143.824 723.797 145.326 724.157 146.574C724.516 147.823 725.141 148.775 726.029 149.431C726.918 150.087 728.135 150.415 729.679 150.415C730.822 150.415 731.742 150.192 732.44 149.748C733.16 149.304 733.699 148.669 734.059 147.844C734.419 147.019 734.662 146.035 734.789 144.892C734.916 143.75 734.979 142.491 734.979 141.115ZM767.067 158.635C764.274 158.635 761.777 158.201 759.577 157.333C757.376 156.445 755.514 155.228 753.991 153.684C752.488 152.139 751.335 150.362 750.531 148.352C749.748 146.341 749.357 144.215 749.357 141.972V140.766C749.357 138.248 749.706 135.921 750.404 133.784C751.103 131.625 752.139 129.742 753.515 128.134C754.89 126.526 756.614 125.278 758.688 124.389C760.762 123.479 763.174 123.024 765.924 123.024C768.358 123.024 770.537 123.416 772.462 124.199C774.388 124.982 776.017 126.103 777.35 127.563C778.704 129.023 779.73 130.79 780.429 132.863C781.148 134.937 781.508 137.264 781.508 139.846V144.194H753.451V137.497H771.066V136.672C771.087 135.529 770.886 134.556 770.463 133.752C770.061 132.948 769.468 132.334 768.686 131.911C767.903 131.488 766.951 131.276 765.829 131.276C764.665 131.276 763.703 131.53 762.941 132.038C762.2 132.546 761.618 133.244 761.195 134.133C760.793 135 760.508 136.005 760.338 137.148C760.169 138.291 760.084 139.497 760.084 140.766V141.972C760.084 143.242 760.254 144.395 760.592 145.432C760.952 146.468 761.46 147.357 762.116 148.098C762.793 148.817 763.597 149.378 764.528 149.78C765.48 150.182 766.559 150.383 767.765 150.383C769.225 150.383 770.664 150.108 772.082 149.558C773.499 149.007 774.716 148.098 775.731 146.828L780.587 152.604C779.889 153.599 778.895 154.562 777.604 155.493C776.334 156.424 774.811 157.185 773.034 157.778C771.256 158.349 769.267 158.635 767.067 158.635Z"/><path fill="#fff" d="M561.38 182.742V310H530.702V182.742H561.38ZM610.85 235.708V259.307H552.64V235.708H610.85ZM615.832 182.742V206.428H552.64V182.742H615.832ZM671.07 311.748C663.378 311.748 656.503 310.554 650.443 308.165C644.383 305.717 639.255 302.367 635.06 298.113C630.923 293.86 627.747 288.965 625.533 283.43C623.377 277.894 622.299 272.038 622.299 265.862V262.541C622.299 255.607 623.261 249.197 625.184 243.312C627.106 237.369 629.962 232.183 633.749 227.754C637.536 223.326 642.285 219.888 647.996 217.441C653.706 214.935 660.348 213.683 667.923 213.683C674.624 213.683 680.626 214.761 685.928 216.917C691.231 219.072 695.717 222.161 699.388 226.181C703.117 230.202 705.943 235.067 707.866 240.777C709.847 246.488 710.838 252.897 710.838 260.006V271.98H633.574V253.538H682.083V251.266C682.141 248.119 681.587 245.439 680.422 243.225C679.315 241.01 677.683 239.321 675.527 238.155C673.371 236.99 670.749 236.407 667.661 236.407C664.456 236.407 661.805 237.106 659.708 238.505C657.668 239.903 656.066 241.826 654.9 244.273C653.793 246.662 653.007 249.43 652.541 252.577C652.074 255.723 651.841 259.044 651.841 262.541V265.862C651.841 269.358 652.307 272.534 653.24 275.389C654.23 278.244 655.629 280.691 657.435 282.73C659.3 284.712 661.514 286.256 664.078 287.363C666.7 288.47 669.671 289.023 672.993 289.023C677.013 289.023 680.975 288.266 684.879 286.751C688.783 285.236 692.134 282.73 694.931 279.234L708.303 295.142C706.38 297.88 703.642 300.531 700.087 303.095C696.591 305.659 692.396 307.757 687.501 309.388C682.607 310.961 677.13 311.748 671.07 311.748ZM771.932 286.227V247.245C771.932 244.565 771.553 242.263 770.796 240.34C770.038 238.417 768.844 236.932 767.212 235.883C765.581 234.776 763.396 234.222 760.657 234.222C758.443 234.222 756.549 234.601 754.976 235.358C753.403 236.116 752.208 237.252 751.393 238.767C750.577 240.282 750.169 242.205 750.169 244.536H720.714C720.714 240.166 721.676 236.116 723.599 232.387C725.58 228.599 728.377 225.307 731.989 222.51C735.66 219.713 740.03 217.557 745.1 216.042C750.227 214.469 755.938 213.683 762.23 213.683C769.747 213.683 776.448 214.935 782.333 217.441C788.276 219.946 792.967 223.705 796.405 228.716C799.843 233.669 801.562 239.903 801.562 247.42V286.139C801.562 292.316 801.911 297.006 802.61 300.211C803.31 303.357 804.3 306.125 805.582 308.514V310H776.04C774.642 307.087 773.593 303.532 772.894 299.337C772.253 295.083 771.932 290.713 771.932 286.227ZM775.516 252.227L775.69 267.959H762.667C759.929 267.959 757.598 268.338 755.675 269.096C753.811 269.853 752.296 270.902 751.13 272.242C750.023 273.524 749.208 274.981 748.683 276.612C748.217 278.244 747.984 279.963 747.984 281.769C747.984 283.517 748.392 285.09 749.208 286.489C750.082 287.829 751.247 288.878 752.704 289.635C754.16 290.393 755.792 290.771 757.598 290.771C760.861 290.771 763.629 290.16 765.901 288.936C768.232 287.654 770.009 286.11 771.233 284.304C772.457 282.497 773.068 280.808 773.068 279.234L779.536 291.296C778.371 293.627 777.031 295.986 775.516 298.375C774.059 300.764 772.223 302.979 770.009 305.018C767.853 306.999 765.202 308.631 762.056 309.913C758.909 311.136 755.093 311.748 750.606 311.748C744.779 311.748 739.418 310.554 734.524 308.165C729.688 305.776 725.813 302.454 722.899 298.201C719.986 293.889 718.529 288.936 718.529 283.342C718.529 278.448 719.403 274.078 721.151 270.232C722.958 266.386 725.667 263.123 729.28 260.443C732.892 257.763 737.496 255.723 743.089 254.325C748.683 252.926 755.267 252.227 762.842 252.227H775.516ZM867.725 215.431V235.883H810.739V215.431H867.725ZM822.713 191.919H852.167V279.147C852.167 281.653 852.459 283.604 853.042 285.003C853.624 286.343 854.615 287.305 856.013 287.887C857.47 288.412 859.393 288.674 861.782 288.674C863.472 288.674 864.87 288.645 865.977 288.586C867.084 288.47 868.133 288.324 869.124 288.149V309.213C866.618 310.029 863.996 310.641 861.257 311.049C858.519 311.515 855.605 311.748 852.517 311.748C846.224 311.748 840.834 310.757 836.348 308.776C831.919 306.795 828.54 303.678 826.209 299.424C823.878 295.171 822.713 289.635 822.713 282.818V191.919ZM934.675 287.013V215.431H964.217V310H936.598L934.675 287.013ZM937.472 267.785L945.164 267.61C945.164 273.961 944.406 279.846 942.891 285.265C941.376 290.626 939.133 295.287 936.161 299.25C933.248 303.212 929.635 306.3 925.323 308.514C921.07 310.67 916.146 311.748 910.552 311.748C905.891 311.748 901.608 311.107 897.704 309.825C893.858 308.485 890.537 306.417 887.74 303.62C884.943 300.764 882.758 297.123 881.185 292.694C879.67 288.208 878.913 282.847 878.913 276.612V215.431H908.367V276.787C908.367 278.885 908.629 280.691 909.154 282.206C909.678 283.721 910.436 285.003 911.426 286.052C912.417 287.042 913.64 287.8 915.097 288.324C916.612 288.79 918.331 289.023 920.254 289.023C924.682 289.023 928.149 288.091 930.655 286.227C933.16 284.362 934.908 281.827 935.899 278.623C936.948 275.418 937.472 271.805 937.472 267.785ZM1010.19 238.854V310H980.736V215.431H1008.27L1010.19 238.854ZM1038.16 214.731L1037.64 242.088C1036.47 241.972 1034.9 241.826 1032.92 241.651C1030.93 241.477 1029.27 241.389 1027.93 241.389C1024.5 241.389 1021.52 241.797 1019.02 242.613C1016.57 243.37 1014.53 244.536 1012.9 246.109C1011.33 247.624 1010.16 249.547 1009.4 251.877C1008.71 254.208 1008.38 256.918 1008.44 260.006L1003.11 256.51C1003.11 250.159 1003.72 244.39 1004.95 239.204C1006.23 233.96 1008.03 229.444 1010.37 225.657C1012.7 221.811 1015.52 218.868 1018.84 216.829C1022.17 214.731 1025.89 213.683 1030.03 213.683C1031.49 213.683 1032.92 213.77 1034.31 213.945C1035.77 214.12 1037.05 214.382 1038.16 214.731ZM1092.35 311.748C1084.66 311.748 1077.78 310.554 1071.72 308.165C1065.66 305.717 1060.53 302.367 1056.34 298.113C1052.2 293.86 1049.03 288.965 1046.81 283.43C1044.66 277.894 1043.58 272.038 1043.58 265.862V262.541C1043.58 255.607 1044.54 249.197 1046.46 243.312C1048.39 237.369 1051.24 232.183 1055.03 227.754C1058.82 223.326 1063.56 219.888 1069.27 217.441C1074.99 214.935 1081.63 213.683 1089.2 213.683C1095.9 213.683 1101.91 214.761 1107.21 216.917C1112.51 219.072 1117 222.161 1120.67 226.181C1124.4 230.202 1127.22 235.067 1129.15 240.777C1131.13 246.488 1132.12 252.897 1132.12 260.006V271.98H1054.85V253.538H1103.36V251.266C1103.42 248.119 1102.87 245.439 1101.7 243.225C1100.59 241.01 1098.96 239.321 1096.81 238.155C1094.65 236.99 1092.03 236.407 1088.94 236.407C1085.74 236.407 1083.08 237.106 1080.99 238.505C1078.95 239.903 1077.35 241.826 1076.18 244.273C1075.07 246.662 1074.29 249.43 1073.82 252.577C1073.35 255.723 1073.12 259.044 1073.12 262.541V265.862C1073.12 269.358 1073.59 272.534 1074.52 275.389C1075.51 278.244 1076.91 280.691 1078.71 282.73C1080.58 284.712 1082.79 286.256 1085.36 287.363C1087.98 288.47 1090.95 289.023 1094.27 289.023C1098.29 289.023 1102.25 288.266 1106.16 286.751C1110.06 285.236 1113.41 282.73 1116.21 279.234L1129.58 295.142C1127.66 297.88 1124.92 300.531 1121.37 303.095C1117.87 305.659 1113.68 307.757 1108.78 309.388C1103.89 310.961 1098.41 311.748 1092.35 311.748ZM1193.65 283.43C1193.65 281.798 1193.09 280.4 1191.99 279.234C1190.94 278.011 1189.07 276.904 1186.39 275.913C1183.71 274.864 1179.96 273.815 1175.12 272.767C1170.52 271.776 1166.17 270.465 1162.1 268.833C1158.08 267.202 1154.55 265.221 1151.52 262.89C1148.49 260.559 1146.1 257.792 1144.35 254.587C1142.66 251.382 1141.82 247.711 1141.82 243.574C1141.82 239.554 1142.66 235.766 1144.35 232.212C1146.1 228.599 1148.64 225.424 1151.96 222.685C1155.34 219.888 1159.44 217.703 1164.28 216.13C1169.12 214.498 1174.62 213.683 1180.8 213.683C1189.31 213.683 1196.65 214.994 1202.83 217.616C1209 220.18 1213.75 223.792 1217.07 228.454C1220.45 233.057 1222.14 238.388 1222.14 244.448H1192.69C1192.69 242.059 1192.28 240.02 1191.46 238.33C1190.71 236.64 1189.45 235.358 1187.71 234.484C1185.96 233.552 1183.63 233.086 1180.71 233.086C1178.67 233.086 1176.81 233.465 1175.12 234.222C1173.49 234.98 1172.18 236.028 1171.19 237.369C1170.2 238.709 1169.7 240.282 1169.7 242.088C1169.7 243.37 1169.99 244.536 1170.57 245.584C1171.22 246.575 1172.18 247.507 1173.46 248.381C1174.74 249.197 1176.37 249.955 1178.35 250.654C1180.33 251.295 1182.72 251.877 1185.52 252.402C1191.87 253.567 1197.81 255.228 1203.35 257.384C1208.89 259.54 1213.37 262.599 1216.81 266.561C1220.31 270.523 1222.05 275.855 1222.05 282.556C1222.05 286.751 1221.09 290.626 1219.17 294.18C1217.25 297.676 1214.48 300.764 1210.87 303.445C1207.25 306.067 1202.91 308.106 1197.84 309.563C1192.77 311.02 1187.06 311.748 1180.71 311.748C1171.68 311.748 1164.05 310.146 1157.81 306.941C1151.58 303.678 1146.86 299.599 1143.65 294.705C1140.51 289.752 1138.93 284.741 1138.93 279.671H1166.38C1166.5 282.585 1167.19 284.974 1168.48 286.838C1169.82 288.703 1171.59 290.072 1173.81 290.946C1176.02 291.82 1178.59 292.257 1181.5 292.257C1184.18 292.257 1186.39 291.879 1188.14 291.121C1189.95 290.364 1191.32 289.344 1192.25 288.062C1193.18 286.722 1193.65 285.178 1193.65 283.43Z"/><path fill="url(#paint4_linear_201_150)" d="M561.38 182.742V310H530.702V182.742H561.38ZM610.85 235.708V259.307H552.64V235.708H610.85ZM615.832 182.742V206.428H552.64V182.742H615.832ZM671.07 311.748C663.378 311.748 656.503 310.554 650.443 308.165C644.383 305.717 639.255 302.367 635.06 298.113C630.923 293.86 627.747 288.965 625.533 283.43C623.377 277.894 622.299 272.038 622.299 265.862V262.541C622.299 255.607 623.261 249.197 625.184 243.312C627.106 237.369 629.962 232.183 633.749 227.754C637.536 223.326 642.285 219.888 647.996 217.441C653.706 214.935 660.348 213.683 667.923 213.683C674.624 213.683 680.626 214.761 685.928 216.917C691.231 219.072 695.717 222.161 699.388 226.181C703.117 230.202 705.943 235.067 707.866 240.777C709.847 246.488 710.838 252.897 710.838 260.006V271.98H633.574V253.538H682.083V251.266C682.141 248.119 681.587 245.439 680.422 243.225C679.315 241.01 677.683 239.321 675.527 238.155C673.371 236.99 670.749 236.407 667.661 236.407C664.456 236.407 661.805 237.106 659.708 238.505C657.668 239.903 656.066 241.826 654.9 244.273C653.793 246.662 653.007 249.43 652.541 252.577C652.074 255.723 651.841 259.044 651.841 262.541V265.862C651.841 269.358 652.307 272.534 653.24 275.389C654.23 278.244 655.629 280.691 657.435 282.73C659.3 284.712 661.514 286.256 664.078 287.363C666.7 288.47 669.671 289.023 672.993 289.023C677.013 289.023 680.975 288.266 684.879 286.751C688.783 285.236 692.134 282.73 694.931 279.234L708.303 295.142C706.38 297.88 703.642 300.531 700.087 303.095C696.591 305.659 692.396 307.757 687.501 309.388C682.607 310.961 677.13 311.748 671.07 311.748ZM771.932 286.227V247.245C771.932 244.565 771.553 242.263 770.796 240.34C770.038 238.417 768.844 236.932 767.212 235.883C765.581 234.776 763.396 234.222 760.657 234.222C758.443 234.222 756.549 234.601 754.976 235.358C753.403 236.116 752.208 237.252 751.393 238.767C750.577 240.282 750.169 242.205 750.169 244.536H720.714C720.714 240.166 721.676 236.116 723.599 232.387C725.58 228.599 728.377 225.307 731.989 222.51C735.66 219.713 740.03 217.557 745.1 216.042C750.227 214.469 755.938 213.683 762.23 213.683C769.747 213.683 776.448 214.935 782.333 217.441C788.276 219.946 792.967 223.705 796.405 228.716C799.843 233.669 801.562 239.903 801.562 247.42V286.139C801.562 292.316 801.911 297.006 802.61 300.211C803.31 303.357 804.3 306.125 805.582 308.514V310H776.04C774.642 307.087 773.593 303.532 772.894 299.337C772.253 295.083 771.932 290.713 771.932 286.227ZM775.516 252.227L775.69 267.959H762.667C759.929 267.959 757.598 268.338 755.675 269.096C753.811 269.853 752.296 270.902 751.13 272.242C750.023 273.524 749.208 274.981 748.683 276.612C748.217 278.244 747.984 279.963 747.984 281.769C747.984 283.517 748.392 285.09 749.208 286.489C750.082 287.829 751.247 288.878 752.704 289.635C754.16 290.393 755.792 290.771 757.598 290.771C760.861 290.771 763.629 290.16 765.901 288.936C768.232 287.654 770.009 286.11 771.233 284.304C772.457 282.497 773.068 280.808 773.068 279.234L779.536 291.296C778.371 293.627 777.031 295.986 775.516 298.375C774.059 300.764 772.223 302.979 770.009 305.018C767.853 306.999 765.202 308.631 762.056 309.913C758.909 311.136 755.093 311.748 750.606 311.748C744.779 311.748 739.418 310.554 734.524 308.165C729.688 305.776 725.813 302.454 722.899 298.201C719.986 293.889 718.529 288.936 718.529 283.342C718.529 278.448 719.403 274.078 721.151 270.232C722.958 266.386 725.667 263.123 729.28 260.443C732.892 257.763 737.496 255.723 743.089 254.325C748.683 252.926 755.267 252.227 762.842 252.227H775.516ZM867.725 215.431V235.883H810.739V215.431H867.725ZM822.713 191.919H852.167V279.147C852.167 281.653 852.459 283.604 853.042 285.003C853.624 286.343 854.615 287.305 856.013 287.887C857.47 288.412 859.393 288.674 861.782 288.674C863.472 288.674 864.87 288.645 865.977 288.586C867.084 288.47 868.133 288.324 869.124 288.149V309.213C866.618 310.029 863.996 310.641 861.257 311.049C858.519 311.515 855.605 311.748 852.517 311.748C846.224 311.748 840.834 310.757 836.348 308.776C831.919 306.795 828.54 303.678 826.209 299.424C823.878 295.171 822.713 289.635 822.713 282.818V191.919ZM934.675 287.013V215.431H964.217V310H936.598L934.675 287.013ZM937.472 267.785L945.164 267.61C945.164 273.961 944.406 279.846 942.891 285.265C941.376 290.626 939.133 295.287 936.161 299.25C933.248 303.212 929.635 306.3 925.323 308.514C921.07 310.67 916.146 311.748 910.552 311.748C905.891 311.748 901.608 311.107 897.704 309.825C893.858 308.485 890.537 306.417 887.74 303.62C884.943 300.764 882.758 297.123 881.185 292.694C879.67 288.208 878.913 282.847 878.913 276.612V215.431H908.367V276.787C908.367 278.885 908.629 280.691 909.154 282.206C909.678 283.721 910.436 285.003 911.426 286.052C912.417 287.042 913.64 287.8 915.097 288.324C916.612 288.79 918.331 289.023 920.254 289.023C924.682 289.023 928.149 288.091 930.655 286.227C933.16 284.362 934.908 281.827 935.899 278.623C936.948 275.418 937.472 271.805 937.472 267.785ZM1010.19 238.854V310H980.736V215.431H1008.27L1010.19 238.854ZM1038.16 214.731L1037.64 242.088C1036.47 241.972 1034.9 241.826 1032.92 241.651C1030.93 241.477 1029.27 241.389 1027.93 241.389C1024.5 241.389 1021.52 241.797 1019.02 242.613C1016.57 243.37 1014.53 244.536 1012.9 246.109C1011.33 247.624 1010.16 249.547 1009.4 251.877C1008.71 254.208 1008.38 256.918 1008.44 260.006L1003.11 256.51C1003.11 250.159 1003.72 244.39 1004.95 239.204C1006.23 233.96 1008.03 229.444 1010.37 225.657C1012.7 221.811 1015.52 218.868 1018.84 216.829C1022.17 214.731 1025.89 213.683 1030.03 213.683C1031.49 213.683 1032.92 213.77 1034.31 213.945C1035.77 214.12 1037.05 214.382 1038.16 214.731ZM1092.35 311.748C1084.66 311.748 1077.78 310.554 1071.72 308.165C1065.66 305.717 1060.53 302.367 1056.34 298.113C1052.2 293.86 1049.03 288.965 1046.81 283.43C1044.66 277.894 1043.58 272.038 1043.58 265.862V262.541C1043.58 255.607 1044.54 249.197 1046.46 243.312C1048.39 237.369 1051.24 232.183 1055.03 227.754C1058.82 223.326 1063.56 219.888 1069.27 217.441C1074.99 214.935 1081.63 213.683 1089.2 213.683C1095.9 213.683 1101.91 214.761 1107.21 216.917C1112.51 219.072 1117 222.161 1120.67 226.181C1124.4 230.202 1127.22 235.067 1129.15 240.777C1131.13 246.488 1132.12 252.897 1132.12 260.006V271.98H1054.85V253.538H1103.36V251.266C1103.42 248.119 1102.87 245.439 1101.7 243.225C1100.59 241.01 1098.96 239.321 1096.81 238.155C1094.65 236.99 1092.03 236.407 1088.94 236.407C1085.74 236.407 1083.08 237.106 1080.99 238.505C1078.95 239.903 1077.35 241.826 1076.18 244.273C1075.07 246.662 1074.29 249.43 1073.82 252.577C1073.35 255.723 1073.12 259.044 1073.12 262.541V265.862C1073.12 269.358 1073.59 272.534 1074.52 275.389C1075.51 278.244 1076.91 280.691 1078.71 282.73C1080.58 284.712 1082.79 286.256 1085.36 287.363C1087.98 288.47 1090.95 289.023 1094.27 289.023C1098.29 289.023 1102.25 288.266 1106.16 286.751C1110.06 285.236 1113.41 282.73 1116.21 279.234L1129.58 295.142C1127.66 297.88 1124.92 300.531 1121.37 303.095C1117.87 305.659 1113.68 307.757 1108.78 309.388C1103.89 310.961 1098.41 311.748 1092.35 311.748ZM1193.65 283.43C1193.65 281.798 1193.09 280.4 1191.99 279.234C1190.94 278.011 1189.07 276.904 1186.39 275.913C1183.71 274.864 1179.96 273.815 1175.12 272.767C1170.52 271.776 1166.17 270.465 1162.1 268.833C1158.08 267.202 1154.55 265.221 1151.52 262.89C1148.49 260.559 1146.1 257.792 1144.35 254.587C1142.66 251.382 1141.82 247.711 1141.82 243.574C1141.82 239.554 1142.66 235.766 1144.35 232.212C1146.1 228.599 1148.64 225.424 1151.96 222.685C1155.34 219.888 1159.44 217.703 1164.28 216.13C1169.12 214.498 1174.62 213.683 1180.8 213.683C1189.31 213.683 1196.65 214.994 1202.83 217.616C1209 220.18 1213.75 223.792 1217.07 228.454C1220.45 233.057 1222.14 238.388 1222.14 244.448H1192.69C1192.69 242.059 1192.28 240.02 1191.46 238.33C1190.71 236.64 1189.45 235.358 1187.71 234.484C1185.96 233.552 1183.63 233.086 1180.71 233.086C1178.67 233.086 1176.81 233.465 1175.12 234.222C1173.49 234.98 1172.18 236.028 1171.19 237.369C1170.2 238.709 1169.7 240.282 1169.7 242.088C1169.7 243.37 1169.99 244.536 1170.57 245.584C1171.22 246.575 1172.18 247.507 1173.46 248.381C1174.74 249.197 1176.37 249.955 1178.35 250.654C1180.33 251.295 1182.72 251.877 1185.52 252.402C1191.87 253.567 1197.81 255.228 1203.35 257.384C1208.89 259.54 1213.37 262.599 1216.81 266.561C1220.31 270.523 1222.05 275.855 1222.05 282.556C1222.05 286.751 1221.09 290.626 1219.17 294.18C1217.25 297.676 1214.48 300.764 1210.87 303.445C1207.25 306.067 1202.91 308.106 1197.84 309.563C1192.77 311.02 1187.06 311.748 1180.71 311.748C1171.68 311.748 1164.05 310.146 1157.81 306.941C1151.58 303.678 1146.86 299.599 1143.65 294.705C1140.51 289.752 1138.93 284.741 1138.93 279.671H1166.38C1166.5 282.585 1167.19 284.974 1168.48 286.838C1169.82 288.703 1171.59 290.072 1173.81 290.946C1176.02 291.82 1178.59 292.257 1181.5 292.257C1184.18 292.257 1186.39 291.879 1188.14 291.121C1189.95 290.364 1191.32 289.344 1192.25 288.062C1193.18 286.722 1193.65 285.178 1193.65 283.43Z"/><defs><linearGradient id="paint0_linear_201_150" x1="0" x2="88.064" y1=".777" y2="9.505" gradientUnits="userSpaceOnUse"><stop stop-color="#00E1C3"/><stop offset="1" stop-color="#00D1D5"/></linearGradient><linearGradient id="paint1_linear_201_150" x1="189" x2="436.787" y1="104.929" y2="353.473" gradientUnits="userSpaceOnUse"><stop stop-color="#00E1C3"/><stop offset="1" stop-color="#00D1D5"/></linearGradient><linearGradient id="paint2_linear_201_150" x1="189" x2="436.787" y1="104.929" y2="353.473" gradientUnits="userSpaceOnUse"><stop stop-color="#00E1C3"/><stop offset="1" stop-color="#00D1D5"/></linearGradient><linearGradient id="paint3_linear_201_150" x1="189" x2="436.787" y1="104.929" y2="353.473" gradientUnits="userSpaceOnUse"><stop stop-color="#00E1C3"/><stop offset="1" stop-color="#00D1D5"/></linearGradient><linearGradient id="paint4_linear_201_150" x1="521" x2="627.275" y1="144.371" y2="544.414" gradientUnits="userSpaceOnUse"><stop stop-color="#00E1C3"/><stop offset="1" stop-color="#00D1D5"/></linearGradient></defs></svg>