<svg xmlns="http://www.w3.org/2000/svg" width="1222" height="440" fill="none" viewBox="0 0 1222 440"><path fill="#132636" d="M3 37C3 16.5655 19.5655 0 40 0H1175.5C1199.29 0 1216.9 22.1264 1211.56 45.3082L1127.45 410.308C1123.58 427.102 1108.63 439 1091.4 439H40C19.5655 439 3 422.435 3 402V37Z"/><path fill="#132636" d="M0 37C0 16.5655 16.5655 0 37 0H39V440H37C16.5655 440 0 423.435 0 403V37Z"/><path fill="url(#paint0_linear_201_120)" d="M0 37C0 16.5655 16.5655 0 37 0H39V440H37C16.5655 440 0 423.435 0 403V37Z"/><g clip-path="url(#clip0_201_120)"><path fill="#01D8CE" d="M332.415 138.881C334.915 136.293 337.905 134.229 341.21 132.809C344.516 131.389 348.072 130.641 351.669 130.61C355.267 130.579 358.835 131.264 362.165 132.627C365.495 133.989 368.52 136.001 371.064 138.545C373.608 141.089 375.62 144.114 376.982 147.444C378.345 150.774 379.03 154.342 378.999 157.94C378.968 161.538 378.22 165.093 376.8 168.399C375.38 171.704 373.316 174.694 370.728 177.194L359.985 187.937L321.672 149.624L332.415 138.881V138.881ZM302.516 168.781L189 282.296V320.609H227.313L340.842 207.093L302.502 168.781H302.516Z"/></g><path fill="#fff" d="M514.011 147.114L523.627 111.789H536.101L520.517 158H512.456L514.011 147.114ZM505.283 111.789L514.899 147.114L516.518 158H508.361L492.873 111.789H505.283ZM558.159 149.653V123.659H568.886V158H558.857L558.159 149.653ZM559.174 142.67L561.967 142.607C561.967 144.913 561.692 147.05 561.142 149.018C560.592 150.965 559.777 152.657 558.698 154.096C557.64 155.535 556.328 156.656 554.763 157.46C553.218 158.243 551.43 158.635 549.399 158.635C547.706 158.635 546.151 158.402 544.733 157.937C543.337 157.45 542.131 156.699 541.115 155.683C540.1 154.646 539.306 153.324 538.735 151.716C538.185 150.087 537.91 148.14 537.91 145.876V123.659H548.605V145.939C548.605 146.701 548.701 147.357 548.891 147.907C549.082 148.457 549.357 148.923 549.716 149.304C550.076 149.663 550.52 149.938 551.049 150.129C551.599 150.298 552.224 150.383 552.922 150.383C554.53 150.383 555.789 150.044 556.699 149.367C557.609 148.69 558.243 147.77 558.603 146.606C558.984 145.442 559.174 144.13 559.174 142.67ZM591.42 158.635C588.627 158.635 586.131 158.201 583.93 157.333C581.73 156.445 579.868 155.228 578.344 153.684C576.842 152.139 575.689 150.362 574.885 148.352C574.102 146.341 573.71 144.215 573.71 141.972V140.766C573.71 138.248 574.06 135.921 574.758 133.784C575.456 131.625 576.493 129.742 577.868 128.134C579.243 126.526 580.968 125.278 583.042 124.389C585.115 123.479 587.527 123.024 590.278 123.024C592.711 123.024 594.89 123.416 596.816 124.199C598.741 124.982 600.371 126.103 601.704 127.563C603.058 129.023 604.084 130.79 604.782 132.863C605.502 134.937 605.861 137.264 605.861 139.846V144.194H577.805V137.497H595.419V136.672C595.441 135.529 595.24 134.556 594.816 133.752C594.414 132.948 593.822 132.334 593.039 131.911C592.256 131.488 591.304 131.276 590.183 131.276C589.019 131.276 588.056 131.53 587.294 132.038C586.554 132.546 585.972 133.244 585.549 134.133C585.147 135 584.861 136.005 584.692 137.148C584.523 138.291 584.438 139.497 584.438 140.766V141.972C584.438 143.242 584.607 144.395 584.946 145.432C585.306 146.468 585.813 147.357 586.469 148.098C587.146 148.817 587.95 149.378 588.881 149.78C589.833 150.182 590.913 150.383 592.119 150.383C593.579 150.383 595.017 150.108 596.435 149.558C597.853 149.007 599.069 148.098 600.085 146.828L604.941 152.604C604.243 153.599 603.248 154.562 601.958 155.493C600.688 156.424 599.165 157.185 597.387 157.778C595.61 158.349 593.621 158.635 591.42 158.635ZM633.093 111.789V158H621.953V111.789H633.093ZM646.994 111.789V120.39H608.369V111.789H646.994ZM669.179 149.653V123.659H679.907V158H669.877L669.179 149.653ZM670.195 142.67L672.988 142.607C672.988 144.913 672.713 147.05 672.163 149.018C671.612 150.965 670.798 152.657 669.719 154.096C668.661 155.535 667.349 156.656 665.783 157.46C664.239 158.243 662.451 158.635 660.419 158.635C658.727 158.635 657.172 158.402 655.754 157.937C654.357 157.45 653.151 156.699 652.136 155.683C651.12 154.646 650.327 153.324 649.755 151.716C649.205 150.087 648.93 148.14 648.93 145.876V123.659H659.626V145.939C659.626 146.701 659.721 147.357 659.912 147.907C660.102 148.457 660.377 148.923 660.737 149.304C661.097 149.663 661.541 149.938 662.07 150.129C662.62 150.298 663.244 150.383 663.942 150.383C665.55 150.383 666.809 150.044 667.719 149.367C668.629 148.69 669.264 147.77 669.624 146.606C670.004 145.442 670.195 144.13 670.195 142.67ZM685.905 109.25H696.601V149.558L695.49 158H685.905V109.25ZM717.675 140.449V141.115C717.675 143.718 717.411 146.088 716.882 148.225C716.353 150.362 715.538 152.213 714.438 153.779C713.338 155.323 711.952 156.519 710.28 157.365C708.609 158.212 706.63 158.635 704.345 158.635C702.272 158.635 700.494 158.19 699.013 157.302C697.532 156.392 696.294 155.144 695.3 153.557C694.305 151.949 693.501 150.097 692.888 148.002C692.274 145.887 691.787 143.623 691.428 141.21V140.417C691.787 138.026 692.274 135.783 692.888 133.688C693.501 131.573 694.305 129.721 695.3 128.134C696.294 126.526 697.521 125.278 698.981 124.389C700.463 123.479 702.229 123.024 704.282 123.024C706.588 123.024 708.577 123.458 710.249 124.326C711.941 125.193 713.338 126.41 714.438 127.976C715.538 129.541 716.353 131.382 716.882 133.498C717.411 135.614 717.675 137.931 717.675 140.449ZM706.979 141.115V140.449C706.979 139.2 706.905 138.026 706.757 136.926C706.609 135.826 706.345 134.852 705.964 134.006C705.583 133.16 705.043 132.493 704.345 132.006C703.647 131.52 702.737 131.276 701.616 131.276C700.473 131.276 699.51 131.467 698.728 131.848C697.966 132.229 697.352 132.779 696.887 133.498C696.442 134.196 696.125 135.064 695.935 136.101C695.744 137.116 695.66 138.269 695.681 139.56V142.067C695.638 143.824 695.797 145.326 696.157 146.574C696.516 147.823 697.141 148.775 698.029 149.431C698.918 150.087 700.135 150.415 701.679 150.415C702.822 150.415 703.742 150.192 704.44 149.748C705.16 149.304 705.699 148.669 706.059 147.844C706.419 147.019 706.662 146.035 706.789 144.892C706.916 143.75 706.979 142.491 706.979 141.115ZM739.067 158.635C736.274 158.635 733.777 158.201 731.577 157.333C729.376 156.445 727.514 155.228 725.991 153.684C724.488 152.139 723.335 150.362 722.531 148.352C721.748 146.341 721.357 144.215 721.357 141.972V140.766C721.357 138.248 721.706 135.921 722.404 133.784C723.103 131.625 724.139 129.742 725.515 128.134C726.89 126.526 728.614 125.278 730.688 124.389C732.762 123.479 735.174 123.024 737.924 123.024C740.358 123.024 742.537 123.416 744.462 124.199C746.388 124.982 748.017 126.103 749.35 127.563C750.704 129.023 751.73 130.79 752.429 132.863C753.148 134.937 753.508 137.264 753.508 139.846V144.194H725.451V137.497H743.066V136.672C743.087 135.529 742.886 134.556 742.463 133.752C742.061 132.948 741.468 132.334 740.686 131.911C739.903 131.488 738.951 131.276 737.829 131.276C736.665 131.276 735.703 131.53 734.941 132.038C734.2 132.546 733.618 133.244 733.195 134.133C732.793 135 732.508 136.005 732.338 137.148C732.169 138.291 732.084 139.497 732.084 140.766V141.972C732.084 143.242 732.254 144.395 732.592 145.432C732.952 146.468 733.46 147.357 734.116 148.098C734.793 148.817 735.597 149.378 736.528 149.78C737.48 150.182 738.559 150.383 739.765 150.383C741.225 150.383 742.664 150.108 744.082 149.558C745.499 149.007 746.716 148.098 747.731 146.828L752.587 152.604C751.889 153.599 750.895 154.562 749.604 155.493C748.334 156.424 746.811 157.185 745.034 157.778C743.256 158.349 741.267 158.635 739.067 158.635Z"/><path fill="#fff" d="M553.482 266.823H521.843V243.137H553.482C557.794 243.137 561.29 242.409 563.971 240.952C566.651 239.495 568.603 237.485 569.827 234.921C571.109 232.299 571.75 229.357 571.75 226.094C571.75 222.598 571.109 219.364 569.827 216.392C568.603 213.42 566.651 211.031 563.971 209.225C561.29 207.361 557.794 206.428 553.482 206.428H533.38V310H502.702V182.742H553.482C563.679 182.742 572.449 184.607 579.791 188.336C587.191 192.065 592.872 197.193 596.834 203.719C600.796 210.187 602.777 217.587 602.777 225.919C602.777 234.135 600.796 241.302 596.834 247.42C592.872 253.538 587.191 258.316 579.791 261.754C572.449 265.133 563.679 266.823 553.482 266.823ZM649.013 175.75V310H619.471V175.75H649.013ZM716.313 286.227V247.245C716.313 244.565 715.934 242.263 715.177 240.34C714.419 238.417 713.225 236.932 711.593 235.883C709.962 234.776 707.777 234.222 705.038 234.222C702.824 234.222 700.93 234.601 699.357 235.358C697.784 236.116 696.589 237.252 695.773 238.767C694.958 240.282 694.55 242.205 694.55 244.536H665.095C665.095 240.166 666.057 236.116 667.979 232.387C669.961 228.599 672.757 225.307 676.37 222.51C680.041 219.713 684.411 217.557 689.48 216.042C694.608 214.469 700.318 213.683 706.611 213.683C714.128 213.683 720.829 214.935 726.714 217.441C732.657 219.946 737.348 223.705 740.786 228.716C744.223 233.669 745.942 239.903 745.942 247.42V286.139C745.942 292.316 746.292 297.006 746.991 300.211C747.69 303.357 748.681 306.125 749.963 308.514V310H720.421C719.022 307.087 717.974 303.532 717.274 299.337C716.633 295.083 716.313 290.713 716.313 286.227ZM719.896 252.227L720.071 267.959H707.048C704.31 267.959 701.979 268.338 700.056 269.096C698.192 269.853 696.677 270.902 695.511 272.242C694.404 273.524 693.588 274.981 693.064 276.612C692.598 278.244 692.365 279.963 692.365 281.769C692.365 283.517 692.773 285.09 693.588 286.489C694.462 287.829 695.628 288.878 697.084 289.635C698.541 290.393 700.173 290.771 701.979 290.771C705.242 290.771 708.01 290.16 710.282 288.936C712.613 287.654 714.39 286.11 715.614 284.304C716.837 282.497 717.449 280.808 717.449 279.234L723.917 291.296C722.752 293.627 721.411 295.986 719.896 298.375C718.44 300.764 716.604 302.979 714.39 305.018C712.234 306.999 709.583 308.631 706.437 309.913C703.29 311.136 699.473 311.748 694.987 311.748C689.16 311.748 683.799 310.554 678.905 308.165C674.069 305.776 670.194 302.454 667.28 298.201C664.367 293.889 662.91 288.936 662.91 283.342C662.91 278.448 663.784 274.078 665.532 270.232C667.339 266.386 670.048 263.123 673.661 260.443C677.273 257.763 681.876 255.723 687.47 254.325C693.064 252.926 699.648 252.227 707.223 252.227H719.896ZM791.217 235.621V310H761.762V215.431H789.381L791.217 235.621ZM787.721 259.481L780.816 259.656C780.816 252.431 781.69 245.992 783.438 240.34C785.186 234.63 787.662 229.794 790.867 225.832C794.072 221.869 797.889 218.868 802.317 216.829C806.804 214.731 811.785 213.683 817.263 213.683C821.633 213.683 825.624 214.324 829.237 215.605C832.908 216.887 836.054 218.956 838.676 221.811C841.357 224.666 843.396 228.454 844.794 233.173C846.251 237.835 846.979 243.603 846.979 250.479V310H817.35V250.392C817.35 246.604 816.826 243.72 815.777 241.739C814.728 239.699 813.213 238.301 811.232 237.543C809.251 236.786 806.833 236.407 803.978 236.407C800.948 236.407 798.384 236.99 796.286 238.155C794.188 239.321 792.499 240.952 791.217 243.05C789.993 245.089 789.09 247.507 788.507 250.304C787.983 253.101 787.721 256.16 787.721 259.481ZM912.881 283.43C912.881 281.798 912.327 280.4 911.22 279.234C910.171 278.011 908.307 276.904 905.626 275.913C902.946 274.864 899.188 273.815 894.352 272.767C889.748 271.776 885.407 270.465 881.329 268.833C877.308 267.202 873.783 265.221 870.753 262.89C867.723 260.559 865.334 257.792 863.586 254.587C861.896 251.382 861.051 247.711 861.051 243.574C861.051 239.554 861.896 235.766 863.586 232.212C865.334 228.599 867.869 225.424 871.19 222.685C874.569 219.888 878.677 217.703 883.514 216.13C888.35 214.498 893.856 213.683 900.033 213.683C908.54 213.683 915.882 214.994 922.058 217.616C928.235 220.18 932.983 223.792 936.305 228.454C939.684 233.057 941.374 238.388 941.374 244.448H911.919C911.919 242.059 911.512 240.02 910.696 238.33C909.938 236.64 908.686 235.358 906.938 234.484C905.189 233.552 902.859 233.086 899.945 233.086C897.906 233.086 896.041 233.465 894.352 234.222C892.72 234.98 891.409 236.028 890.418 237.369C889.428 238.709 888.933 240.282 888.933 242.088C888.933 243.37 889.224 244.536 889.807 245.584C890.448 246.575 891.409 247.507 892.691 248.381C893.973 249.197 895.604 249.955 897.585 250.654C899.567 251.295 901.956 251.877 904.752 252.402C911.104 253.567 917.047 255.228 922.583 257.384C928.118 259.54 932.605 262.599 936.042 266.561C939.539 270.523 941.287 275.855 941.287 282.556C941.287 286.751 940.325 290.626 938.402 294.18C936.479 297.676 933.712 300.764 930.099 303.445C926.486 306.067 922.146 308.106 917.076 309.563C912.007 311.02 906.297 311.748 899.945 311.748C890.914 311.748 883.281 310.146 877.046 306.941C870.811 303.678 866.091 299.599 862.887 294.705C859.74 289.752 858.167 284.741 858.167 279.671H885.611C885.728 282.585 886.427 284.974 887.709 286.838C889.049 288.703 890.826 290.072 893.041 290.946C895.255 291.82 897.819 292.257 900.732 292.257C903.412 292.257 905.626 291.879 907.375 291.121C909.181 290.364 910.55 289.344 911.482 288.062C912.415 286.722 912.881 285.178 912.881 283.43Z"/><path fill="url(#paint1_linear_201_120)" d="M553.482 266.823H521.843V243.137H553.482C557.794 243.137 561.29 242.409 563.971 240.952C566.651 239.495 568.603 237.485 569.827 234.921C571.109 232.299 571.75 229.357 571.75 226.094C571.75 222.598 571.109 219.364 569.827 216.392C568.603 213.42 566.651 211.031 563.971 209.225C561.29 207.361 557.794 206.428 553.482 206.428H533.38V310H502.702V182.742H553.482C563.679 182.742 572.449 184.607 579.791 188.336C587.191 192.065 592.872 197.193 596.834 203.719C600.796 210.187 602.777 217.587 602.777 225.919C602.777 234.135 600.796 241.302 596.834 247.42C592.872 253.538 587.191 258.316 579.791 261.754C572.449 265.133 563.679 266.823 553.482 266.823ZM649.013 175.75V310H619.471V175.75H649.013ZM716.313 286.227V247.245C716.313 244.565 715.934 242.263 715.177 240.34C714.419 238.417 713.225 236.932 711.593 235.883C709.962 234.776 707.777 234.222 705.038 234.222C702.824 234.222 700.93 234.601 699.357 235.358C697.784 236.116 696.589 237.252 695.773 238.767C694.958 240.282 694.55 242.205 694.55 244.536H665.095C665.095 240.166 666.057 236.116 667.979 232.387C669.961 228.599 672.757 225.307 676.37 222.51C680.041 219.713 684.411 217.557 689.48 216.042C694.608 214.469 700.318 213.683 706.611 213.683C714.128 213.683 720.829 214.935 726.714 217.441C732.657 219.946 737.348 223.705 740.786 228.716C744.223 233.669 745.942 239.903 745.942 247.42V286.139C745.942 292.316 746.292 297.006 746.991 300.211C747.69 303.357 748.681 306.125 749.963 308.514V310H720.421C719.022 307.087 717.974 303.532 717.274 299.337C716.633 295.083 716.313 290.713 716.313 286.227ZM719.896 252.227L720.071 267.959H707.048C704.31 267.959 701.979 268.338 700.056 269.096C698.192 269.853 696.677 270.902 695.511 272.242C694.404 273.524 693.588 274.981 693.064 276.612C692.598 278.244 692.365 279.963 692.365 281.769C692.365 283.517 692.773 285.09 693.588 286.489C694.462 287.829 695.628 288.878 697.084 289.635C698.541 290.393 700.173 290.771 701.979 290.771C705.242 290.771 708.01 290.16 710.282 288.936C712.613 287.654 714.39 286.11 715.614 284.304C716.837 282.497 717.449 280.808 717.449 279.234L723.917 291.296C722.752 293.627 721.411 295.986 719.896 298.375C718.44 300.764 716.604 302.979 714.39 305.018C712.234 306.999 709.583 308.631 706.437 309.913C703.29 311.136 699.473 311.748 694.987 311.748C689.16 311.748 683.799 310.554 678.905 308.165C674.069 305.776 670.194 302.454 667.28 298.201C664.367 293.889 662.91 288.936 662.91 283.342C662.91 278.448 663.784 274.078 665.532 270.232C667.339 266.386 670.048 263.123 673.661 260.443C677.273 257.763 681.876 255.723 687.47 254.325C693.064 252.926 699.648 252.227 707.223 252.227H719.896ZM791.217 235.621V310H761.762V215.431H789.381L791.217 235.621ZM787.721 259.481L780.816 259.656C780.816 252.431 781.69 245.992 783.438 240.34C785.186 234.63 787.662 229.794 790.867 225.832C794.072 221.869 797.889 218.868 802.317 216.829C806.804 214.731 811.785 213.683 817.263 213.683C821.633 213.683 825.624 214.324 829.237 215.605C832.908 216.887 836.054 218.956 838.676 221.811C841.357 224.666 843.396 228.454 844.794 233.173C846.251 237.835 846.979 243.603 846.979 250.479V310H817.35V250.392C817.35 246.604 816.826 243.72 815.777 241.739C814.728 239.699 813.213 238.301 811.232 237.543C809.251 236.786 806.833 236.407 803.978 236.407C800.948 236.407 798.384 236.99 796.286 238.155C794.188 239.321 792.499 240.952 791.217 243.05C789.993 245.089 789.09 247.507 788.507 250.304C787.983 253.101 787.721 256.16 787.721 259.481ZM912.881 283.43C912.881 281.798 912.327 280.4 911.22 279.234C910.171 278.011 908.307 276.904 905.626 275.913C902.946 274.864 899.188 273.815 894.352 272.767C889.748 271.776 885.407 270.465 881.329 268.833C877.308 267.202 873.783 265.221 870.753 262.89C867.723 260.559 865.334 257.792 863.586 254.587C861.896 251.382 861.051 247.711 861.051 243.574C861.051 239.554 861.896 235.766 863.586 232.212C865.334 228.599 867.869 225.424 871.19 222.685C874.569 219.888 878.677 217.703 883.514 216.13C888.35 214.498 893.856 213.683 900.033 213.683C908.54 213.683 915.882 214.994 922.058 217.616C928.235 220.18 932.983 223.792 936.305 228.454C939.684 233.057 941.374 238.388 941.374 244.448H911.919C911.919 242.059 911.512 240.02 910.696 238.33C909.938 236.64 908.686 235.358 906.938 234.484C905.189 233.552 902.859 233.086 899.945 233.086C897.906 233.086 896.041 233.465 894.352 234.222C892.72 234.98 891.409 236.028 890.418 237.369C889.428 238.709 888.933 240.282 888.933 242.088C888.933 243.37 889.224 244.536 889.807 245.584C890.448 246.575 891.409 247.507 892.691 248.381C893.973 249.197 895.604 249.955 897.585 250.654C899.567 251.295 901.956 251.877 904.752 252.402C911.104 253.567 917.047 255.228 922.583 257.384C928.118 259.54 932.605 262.599 936.042 266.561C939.539 270.523 941.287 275.855 941.287 282.556C941.287 286.751 940.325 290.626 938.402 294.18C936.479 297.676 933.712 300.764 930.099 303.445C926.486 306.067 922.146 308.106 917.076 309.563C912.007 311.02 906.297 311.748 899.945 311.748C890.914 311.748 883.281 310.146 877.046 306.941C870.811 303.678 866.091 299.599 862.887 294.705C859.74 289.752 858.167 284.741 858.167 279.671H885.611C885.728 282.585 886.427 284.974 887.709 286.838C889.049 288.703 890.826 290.072 893.041 290.946C895.255 291.82 897.819 292.257 900.732 292.257C903.412 292.257 905.626 291.879 907.375 291.121C909.181 290.364 910.55 289.344 911.482 288.062C912.415 286.722 912.881 285.178 912.881 283.43Z"/><defs><linearGradient id="paint0_linear_201_120" x1="0" x2="88.064" y1=".777" y2="9.505" gradientUnits="userSpaceOnUse"><stop stop-color="#00E1C3"/><stop offset="1" stop-color="#00D1D5"/></linearGradient><linearGradient id="paint1_linear_201_120" x1="493" x2="644.287" y1="144.371" y2="510.059" gradientUnits="userSpaceOnUse"><stop stop-color="#00E1C3"/><stop offset="1" stop-color="#00D1D5"/></linearGradient><clipPath id="clip0_201_120"><rect width="190" height="190" fill="#fff" transform="translate(189 131)"/></clipPath></defs></svg>