<svg xmlns="http://www.w3.org/2000/svg" width="238" height="270" fill="none" viewBox="0 0 238 270"><path fill="#000" fill-rule="evenodd" d="M157.761 148.395C168.456 142.242 168.456 126.811 157.761 120.658L119.096 98.412L158.969 79.8191L175.714 89.4534L229.951 120.658C240.646 126.811 240.646 142.242 229.951 148.395L175.732 179.588L175.714 179.599L157.643 189.996L117.77 171.403L157.761 148.395ZM36 172.994V190.783V190.79C36.0047 203.089 49.3079 210.784 59.9714 204.656L59.979 204.652L79.6367 193.342L119.509 211.935L77.9318 235.856L77.9038 235.872L23.979 266.897C13.3124 273.034 0 265.334 0 253.028L2.73036e-06 190.783L4.24704e-06 156.207L36 172.994ZM120.835 57.8797L80.9624 76.4726L59.979 64.4002L59.9661 64.3927C49.3016 58.2695 36 65.9676 36 78.2687V97.4389L6.08852e-06 114.226L7.66578e-06 78.2687L1.03961e-05 16.0238C1.09359e-05 3.71778 13.3124 -3.98159 23.979 2.15528L77.9253 33.1923L77.9318 33.196L120.835 57.8797Z" clip-rule="evenodd"/></svg>