<svg xmlns="http://www.w3.org/2000/svg" width="1547" height="440" fill="none" viewBox="0 0 1547 440"><path fill="#132636" d="M3 37C3 16.5655 19.5655 0 40 0H1497.66C1522.33 0 1540.09 23.685 1533.18 47.3665L1426.65 412.366C1422.04 428.15 1407.57 439 1391.13 439H40C19.5655 439 3 422.435 3 402V37Z"/><path fill="#132636" d="M0 37C0 16.5655 16.5655 0 37 0H39V440H37C16.5655 440 0 423.435 0 403V37Z"/><path fill="url(#paint0_linear_331_112)" d="M0 37C0 16.5655 16.5655 0 37 0H39V440H37C16.5655 440 0 423.435 0 403V37Z"/><path fill="url(#paint1_linear_331_112)" d="M339.24 244.163C349.416 238.319 349.415 223.678 339.238 217.836L304.727 198.042L342.697 180.39L395.065 210.427C410.978 219.555 410.978 242.445 395.065 251.573L340.201 283.042L302.231 265.39L339.24 244.163Z"/><path fill="url(#paint2_linear_331_112)" d="M223.282 264.304V284.416C223.287 296.095 235.961 303.401 246.117 297.576L267.934 285.062L305.904 302.714L224.679 349.303C208.808 358.406 189 346.985 189 328.73L189 248.366L223.282 264.304Z"/><path fill="url(#paint3_linear_331_112)" d="M308.401 160.718L270.431 178.37L246.103 164.416C235.948 158.604 223.282 165.913 223.282 177.59V200.289L189 216.226L189 133.27C189 115.015 208.808 103.594 224.679 112.697L308.401 160.718Z"/><path fill="#fff" d="M542.011 147.114L551.627 111.789H564.101L548.517 158H540.456L542.011 147.114ZM533.283 111.789L542.899 147.114L544.518 158H536.361L520.873 111.789H533.283ZM586.159 149.653V123.659H596.886V158H586.857L586.159 149.653ZM587.174 142.67L589.967 142.607C589.967 144.913 589.692 147.05 589.142 149.018C588.592 150.965 587.777 152.657 586.698 154.096C585.64 155.535 584.328 156.656 582.763 157.46C581.218 158.243 579.43 158.635 577.399 158.635C575.706 158.635 574.151 158.402 572.733 157.937C571.337 157.45 570.131 156.699 569.115 155.683C568.1 154.646 567.306 153.324 566.735 151.716C566.185 150.087 565.91 148.14 565.91 145.876V123.659H576.605V145.939C576.605 146.701 576.701 147.357 576.891 147.907C577.082 148.457 577.357 148.923 577.716 149.304C578.076 149.663 578.52 149.938 579.049 150.129C579.599 150.298 580.224 150.383 580.922 150.383C582.53 150.383 583.789 150.044 584.699 149.367C585.609 148.69 586.243 147.77 586.603 146.606C586.984 145.442 587.174 144.13 587.174 142.67ZM619.42 158.635C616.627 158.635 614.131 158.201 611.93 157.333C609.73 156.445 607.868 155.228 606.344 153.684C604.842 152.139 603.689 150.362 602.885 148.352C602.102 146.341 601.71 144.215 601.71 141.972V140.766C601.71 138.248 602.06 135.921 602.758 133.784C603.456 131.625 604.493 129.742 605.868 128.134C607.243 126.526 608.968 125.278 611.042 124.389C613.115 123.479 615.527 123.024 618.278 123.024C620.711 123.024 622.89 123.416 624.816 124.199C626.741 124.982 628.371 126.103 629.704 127.563C631.058 129.023 632.084 130.79 632.782 132.863C633.502 134.937 633.861 137.264 633.861 139.846V144.194H605.805V137.497H623.419V136.672C623.441 135.529 623.24 134.556 622.816 133.752C622.414 132.948 621.822 132.334 621.039 131.911C620.256 131.488 619.304 131.276 618.183 131.276C617.019 131.276 616.056 131.53 615.294 132.038C614.554 132.546 613.972 133.244 613.549 134.133C613.147 135 612.861 136.005 612.692 137.148C612.523 138.291 612.438 139.497 612.438 140.766V141.972C612.438 143.242 612.607 144.395 612.946 145.432C613.306 146.468 613.813 147.357 614.469 148.098C615.146 148.817 615.95 149.378 616.881 149.78C617.833 150.182 618.913 150.383 620.119 150.383C621.579 150.383 623.017 150.108 624.435 149.558C625.853 149.007 627.069 148.098 628.085 146.828L632.941 152.604C632.243 153.599 631.248 154.562 629.958 155.493C628.688 156.424 627.165 157.185 625.387 157.778C623.61 158.349 621.621 158.635 619.42 158.635ZM661.093 111.789V158H649.953V111.789H661.093ZM674.994 111.789V120.39H636.369V111.789H674.994ZM697.179 149.653V123.659H707.907V158H697.877L697.179 149.653ZM698.195 142.67L700.988 142.607C700.988 144.913 700.713 147.05 700.163 149.018C699.612 150.965 698.798 152.657 697.719 154.096C696.661 155.535 695.349 156.656 693.783 157.46C692.239 158.243 690.451 158.635 688.419 158.635C686.727 158.635 685.172 158.402 683.754 157.937C682.357 157.45 681.151 156.699 680.136 155.683C679.12 154.646 678.327 153.324 677.755 151.716C677.205 150.087 676.93 148.14 676.93 145.876V123.659H687.626V145.939C687.626 146.701 687.721 147.357 687.912 147.907C688.102 148.457 688.377 148.923 688.737 149.304C689.097 149.663 689.541 149.938 690.07 150.129C690.62 150.298 691.244 150.383 691.942 150.383C693.55 150.383 694.809 150.044 695.719 149.367C696.629 148.69 697.264 147.77 697.624 146.606C698.004 145.442 698.195 144.13 698.195 142.67ZM713.905 109.25H724.601V149.558L723.49 158H713.905V109.25ZM745.675 140.449V141.115C745.675 143.718 745.411 146.088 744.882 148.225C744.353 150.362 743.538 152.213 742.438 153.779C741.338 155.323 739.952 156.519 738.28 157.365C736.609 158.212 734.63 158.635 732.345 158.635C730.272 158.635 728.494 158.19 727.013 157.302C725.532 156.392 724.294 155.144 723.3 153.557C722.305 151.949 721.501 150.097 720.888 148.002C720.274 145.887 719.787 143.623 719.428 141.21V140.417C719.787 138.026 720.274 135.783 720.888 133.688C721.501 131.573 722.305 129.721 723.3 128.134C724.294 126.526 725.521 125.278 726.981 124.389C728.463 123.479 730.229 123.024 732.282 123.024C734.588 123.024 736.577 123.458 738.249 124.326C739.941 125.193 741.338 126.41 742.438 127.976C743.538 129.541 744.353 131.382 744.882 133.498C745.411 135.614 745.675 137.931 745.675 140.449ZM734.979 141.115V140.449C734.979 139.2 734.905 138.026 734.757 136.926C734.609 135.826 734.345 134.852 733.964 134.006C733.583 133.16 733.043 132.493 732.345 132.006C731.647 131.52 730.737 131.276 729.616 131.276C728.473 131.276 727.51 131.467 726.728 131.848C725.966 132.229 725.352 132.779 724.887 133.498C724.442 134.196 724.125 135.064 723.935 136.101C723.744 137.116 723.66 138.269 723.681 139.56V142.067C723.638 143.824 723.797 145.326 724.157 146.574C724.516 147.823 725.141 148.775 726.029 149.431C726.918 150.087 728.135 150.415 729.679 150.415C730.822 150.415 731.742 150.192 732.44 149.748C733.16 149.304 733.699 148.669 734.059 147.844C734.419 147.019 734.662 146.035 734.789 144.892C734.916 143.75 734.979 142.491 734.979 141.115ZM767.067 158.635C764.274 158.635 761.777 158.201 759.577 157.333C757.376 156.445 755.514 155.228 753.991 153.684C752.488 152.139 751.335 150.362 750.531 148.352C749.748 146.341 749.357 144.215 749.357 141.972V140.766C749.357 138.248 749.706 135.921 750.404 133.784C751.103 131.625 752.139 129.742 753.515 128.134C754.89 126.526 756.614 125.278 758.688 124.389C760.762 123.479 763.174 123.024 765.924 123.024C768.358 123.024 770.537 123.416 772.462 124.199C774.388 124.982 776.017 126.103 777.35 127.563C778.704 129.023 779.73 130.79 780.429 132.863C781.148 134.937 781.508 137.264 781.508 139.846V144.194H753.451V137.497H771.066V136.672C771.087 135.529 770.886 134.556 770.463 133.752C770.061 132.948 769.468 132.334 768.686 131.911C767.903 131.488 766.951 131.276 765.829 131.276C764.665 131.276 763.703 131.53 762.941 132.038C762.2 132.546 761.618 133.244 761.195 134.133C760.793 135 760.508 136.005 760.338 137.148C760.169 138.291 760.084 139.497 760.084 140.766V141.972C760.084 143.242 760.254 144.395 760.592 145.432C760.952 146.468 761.46 147.357 762.116 148.098C762.793 148.817 763.597 149.378 764.528 149.78C765.48 150.182 766.559 150.383 767.765 150.383C769.225 150.383 770.664 150.108 772.082 149.558C773.499 149.007 774.716 148.098 775.731 146.828L780.587 152.604C779.889 153.599 778.895 154.562 777.604 155.493C776.334 156.424 774.811 157.185 773.034 157.778C771.256 158.349 769.267 158.635 767.067 158.635Z"/><path fill="#fff" d="M592.32 192.742V320H561.642V192.742H592.32ZM630.603 192.742V216.428H524.234V192.742H630.603ZM674.304 225.431V320H644.762V225.431H674.304ZM646.073 215.03L663.378 187.585H694.494L670.108 215.03H646.073ZM722.2 245.621V320H692.746V225.431H720.365L722.2 245.621ZM718.704 269.481L711.799 269.656C711.799 262.431 712.673 255.992 714.421 250.34C716.169 244.63 718.646 239.794 721.851 235.832C725.055 231.869 728.872 228.868 733.3 226.829C737.787 224.731 742.769 223.683 748.246 223.683C752.616 223.683 756.608 224.324 760.22 225.605C763.891 226.887 767.038 228.956 769.66 231.811C772.34 234.666 774.379 238.454 775.778 243.173C777.235 247.835 777.963 253.603 777.963 260.479V320H748.333V260.392C748.333 256.604 747.809 253.72 746.76 251.739C745.711 249.699 744.196 248.301 742.215 247.543C740.234 246.786 737.816 246.407 734.961 246.407C731.931 246.407 729.367 246.99 727.27 248.155C725.172 249.321 723.482 250.952 722.2 253.05C720.977 255.089 720.073 257.507 719.491 260.304C718.966 263.101 718.704 266.16 718.704 269.481ZM823.15 185.75V320H793.695V185.75H823.15ZM819.654 269.481L812.749 269.656C812.749 263.014 813.565 256.896 815.196 251.302C816.828 245.708 819.159 240.843 822.188 236.706C825.218 232.569 828.86 229.364 833.114 227.091C837.367 224.819 842.087 223.683 847.273 223.683C851.934 223.683 856.188 224.353 860.034 225.693C863.938 227.033 867.288 229.189 870.085 232.161C872.94 235.132 875.125 239.007 876.64 243.785C878.213 248.563 879 254.39 879 261.266V320H849.371V261.091C849.371 257.245 848.817 254.273 847.71 252.176C846.661 250.02 845.146 248.534 843.165 247.718C841.184 246.844 838.766 246.407 835.911 246.407C832.473 246.407 829.676 246.99 827.52 248.155C825.364 249.321 823.703 250.952 822.538 253.05C821.431 255.089 820.674 257.507 820.266 260.304C819.858 263.101 819.654 266.16 819.654 269.481ZM968.85 245.621V320H939.395V225.431H967.014L968.85 245.621ZM965.354 269.481L958.449 269.656C958.449 262.431 959.323 255.992 961.071 250.34C962.819 244.63 965.295 239.794 968.5 235.832C971.705 231.869 975.521 228.868 979.95 226.829C984.436 224.731 989.418 223.683 994.896 223.683C999.266 223.683 1003.26 224.324 1006.87 225.605C1010.54 226.887 1013.69 228.956 1016.31 231.811C1018.99 234.666 1021.03 238.454 1022.43 243.173C1023.88 247.835 1024.61 253.603 1024.61 260.479V320H994.983V260.392C994.983 256.604 994.458 253.72 993.41 251.739C992.361 249.699 990.846 248.301 988.865 247.543C986.884 246.786 984.465 246.407 981.61 246.407C978.58 246.407 976.017 246.99 973.919 248.155C971.821 249.321 970.132 250.952 968.85 253.05C967.626 255.089 966.723 257.507 966.14 260.304C965.616 263.101 965.354 266.16 965.354 269.481ZM1090.08 296.227V257.245C1090.08 254.565 1089.7 252.263 1088.94 250.34C1088.18 248.417 1086.99 246.932 1085.36 245.883C1083.73 244.776 1081.54 244.222 1078.8 244.222C1076.59 244.222 1074.69 244.601 1073.12 245.358C1071.55 246.116 1070.35 247.252 1069.54 248.767C1068.72 250.282 1068.31 252.205 1068.31 254.536H1038.86C1038.86 250.166 1039.82 246.116 1041.74 242.387C1043.72 238.599 1046.52 235.307 1050.13 232.51C1053.8 229.713 1058.17 227.557 1063.24 226.042C1068.37 224.469 1074.08 223.683 1080.38 223.683C1087.89 223.683 1094.59 224.935 1100.48 227.441C1106.42 229.946 1111.11 233.705 1114.55 238.716C1117.99 243.669 1119.71 249.903 1119.71 257.42V296.139C1119.71 302.316 1120.06 307.006 1120.75 310.211C1121.45 313.357 1122.44 316.125 1123.73 318.514V320H1094.18C1092.79 317.087 1091.74 313.532 1091.04 309.337C1090.4 305.083 1090.08 300.713 1090.08 296.227ZM1093.66 262.227L1093.83 277.959H1080.81C1078.07 277.959 1075.74 278.338 1073.82 279.096C1071.96 279.853 1070.44 280.902 1069.27 282.242C1068.17 283.524 1067.35 284.981 1066.83 286.612C1066.36 288.244 1066.13 289.963 1066.13 291.769C1066.13 293.517 1066.54 295.09 1067.35 296.489C1068.23 297.829 1069.39 298.878 1070.85 299.635C1072.3 300.393 1073.94 300.771 1075.74 300.771C1079.01 300.771 1081.77 300.16 1084.05 298.936C1086.38 297.654 1088.15 296.11 1089.38 294.304C1090.6 292.497 1091.21 290.808 1091.21 289.234L1097.68 301.296C1096.52 303.627 1095.18 305.986 1093.66 308.375C1092.2 310.764 1090.37 312.979 1088.15 315.018C1086 316.999 1083.35 318.631 1080.2 319.913C1077.05 321.136 1073.24 321.748 1068.75 321.748C1062.92 321.748 1057.56 320.554 1052.67 318.165C1047.83 315.776 1043.96 312.454 1041.04 308.201C1038.13 303.889 1036.67 298.936 1036.67 293.342C1036.67 288.448 1037.55 284.078 1039.3 280.232C1041.1 276.386 1043.81 273.123 1047.42 270.443C1051.04 267.763 1055.64 265.723 1061.23 264.325C1066.83 262.926 1073.41 262.227 1080.99 262.227H1093.66ZM1091.65 185.575H1111.84C1111.84 190.819 1110.5 195.481 1107.82 199.56C1105.2 203.58 1101.47 206.727 1096.63 208.999C1091.8 211.271 1086.09 212.408 1079.5 212.408C1069.54 212.408 1061.64 209.931 1055.81 204.979C1049.99 199.967 1047.07 193.5 1047.07 185.575H1067.18C1067.18 188.43 1068.11 190.994 1069.97 193.267C1071.84 195.539 1075.01 196.675 1079.5 196.675C1083.99 196.675 1087.13 195.539 1088.94 193.267C1090.75 190.994 1091.65 188.43 1091.65 185.575ZM1164.98 245.621V320H1135.53V225.431H1163.15L1164.98 245.621ZM1161.48 269.481L1154.58 269.656C1154.58 262.431 1155.45 255.992 1157.2 250.34C1158.95 244.63 1161.43 239.794 1164.63 235.832C1167.84 231.869 1171.65 228.868 1176.08 226.829C1180.57 224.731 1185.55 223.683 1191.03 223.683C1195.4 223.683 1199.39 224.324 1203 225.605C1206.67 226.887 1209.82 228.956 1212.44 231.811C1215.12 234.666 1217.16 238.454 1218.56 243.173C1220.01 247.835 1220.74 253.603 1220.74 260.479V320H1191.11V260.392C1191.11 256.604 1190.59 253.72 1189.54 251.739C1188.49 249.699 1186.98 248.301 1185 247.543C1183.01 246.786 1180.6 246.407 1177.74 246.407C1174.71 246.407 1172.15 246.99 1170.05 248.155C1167.95 249.321 1166.26 250.952 1164.98 253.05C1163.76 255.089 1162.85 257.507 1162.27 260.304C1161.75 263.101 1161.48 266.16 1161.48 269.481ZM1296.52 225.431H1323.27V316.329C1323.27 325.069 1321.26 332.469 1317.24 338.529C1313.21 344.647 1307.59 349.28 1300.37 352.426C1293.2 355.631 1284.81 357.233 1275.19 357.233C1270.94 357.233 1266.6 356.68 1262.17 355.573C1257.74 354.524 1253.61 352.951 1249.76 350.853C1245.92 348.755 1242.68 346.162 1240.06 343.074L1252.38 325.769C1254.77 328.449 1257.77 330.721 1261.39 332.586C1265 334.509 1269.25 335.47 1274.15 335.47C1278.4 335.47 1281.95 334.713 1284.81 333.198C1287.72 331.683 1289.94 329.469 1291.45 326.555C1292.97 323.7 1293.72 320.233 1293.72 316.154V247.806L1296.52 225.431ZM1233.68 273.852V272.016C1233.68 264.849 1234.55 258.323 1236.3 252.438C1238.11 246.495 1240.67 241.396 1243.99 237.143C1247.37 232.831 1251.45 229.509 1256.23 227.179C1261.01 224.848 1266.4 223.683 1272.4 223.683C1278.87 223.683 1284.17 224.935 1288.31 227.441C1292.5 229.888 1295.85 233.326 1298.36 237.754C1300.92 242.183 1302.9 247.369 1304.3 253.312C1305.76 259.197 1306.98 265.548 1307.97 272.366V274.551C1306.98 280.96 1305.61 287.02 1303.86 292.73C1302.17 298.382 1299.96 303.394 1297.22 307.764C1294.48 312.134 1291.04 315.572 1286.91 318.077C1282.83 320.524 1277.93 321.748 1272.22 321.748C1266.28 321.748 1260.92 320.554 1256.14 318.165C1251.42 315.776 1247.37 312.425 1243.99 308.113C1240.67 303.801 1238.11 298.732 1236.3 292.905C1234.55 287.078 1233.68 280.727 1233.68 273.852ZM1263.13 272.016V273.852C1263.13 277.406 1263.45 280.698 1264.09 283.728C1264.79 286.758 1265.84 289.438 1267.24 291.769C1268.64 294.042 1270.36 295.819 1272.4 297.101C1274.5 298.382 1276.94 299.023 1279.74 299.023C1283.99 299.023 1287.43 298.12 1290.05 296.314C1292.68 294.508 1294.57 291.944 1295.73 288.623C1296.9 285.301 1297.4 281.397 1297.22 276.911V270.006C1297.34 266.16 1297.07 262.781 1296.43 259.867C1295.79 256.896 1294.77 254.419 1293.37 252.438C1292.03 250.457 1290.23 248.971 1287.96 247.98C1285.74 246.932 1283.06 246.407 1279.91 246.407C1277.18 246.407 1274.76 247.048 1272.66 248.33C1270.56 249.612 1268.81 251.418 1267.42 253.749C1266.02 256.021 1264.94 258.731 1264.18 261.877C1263.48 264.966 1263.13 268.345 1263.13 272.016Z"/><path fill="url(#paint4_linear_331_112)" d="M592.32 192.742V320H561.642V192.742H592.32ZM630.603 192.742V216.428H524.234V192.742H630.603ZM674.304 225.431V320H644.762V225.431H674.304ZM646.073 215.03L663.378 187.585H694.494L670.108 215.03H646.073ZM722.2 245.621V320H692.746V225.431H720.365L722.2 245.621ZM718.704 269.481L711.799 269.656C711.799 262.431 712.673 255.992 714.421 250.34C716.169 244.63 718.646 239.794 721.851 235.832C725.055 231.869 728.872 228.868 733.3 226.829C737.787 224.731 742.769 223.683 748.246 223.683C752.616 223.683 756.608 224.324 760.22 225.605C763.891 226.887 767.038 228.956 769.66 231.811C772.34 234.666 774.379 238.454 775.778 243.173C777.235 247.835 777.963 253.603 777.963 260.479V320H748.333V260.392C748.333 256.604 747.809 253.72 746.76 251.739C745.711 249.699 744.196 248.301 742.215 247.543C740.234 246.786 737.816 246.407 734.961 246.407C731.931 246.407 729.367 246.99 727.27 248.155C725.172 249.321 723.482 250.952 722.2 253.05C720.977 255.089 720.073 257.507 719.491 260.304C718.966 263.101 718.704 266.16 718.704 269.481ZM823.15 185.75V320H793.695V185.75H823.15ZM819.654 269.481L812.749 269.656C812.749 263.014 813.565 256.896 815.196 251.302C816.828 245.708 819.159 240.843 822.188 236.706C825.218 232.569 828.86 229.364 833.114 227.091C837.367 224.819 842.087 223.683 847.273 223.683C851.934 223.683 856.188 224.353 860.034 225.693C863.938 227.033 867.288 229.189 870.085 232.161C872.94 235.132 875.125 239.007 876.64 243.785C878.213 248.563 879 254.39 879 261.266V320H849.371V261.091C849.371 257.245 848.817 254.273 847.71 252.176C846.661 250.02 845.146 248.534 843.165 247.718C841.184 246.844 838.766 246.407 835.911 246.407C832.473 246.407 829.676 246.99 827.52 248.155C825.364 249.321 823.703 250.952 822.538 253.05C821.431 255.089 820.674 257.507 820.266 260.304C819.858 263.101 819.654 266.16 819.654 269.481ZM968.85 245.621V320H939.395V225.431H967.014L968.85 245.621ZM965.354 269.481L958.449 269.656C958.449 262.431 959.323 255.992 961.071 250.34C962.819 244.63 965.295 239.794 968.5 235.832C971.705 231.869 975.521 228.868 979.95 226.829C984.436 224.731 989.418 223.683 994.896 223.683C999.266 223.683 1003.26 224.324 1006.87 225.605C1010.54 226.887 1013.69 228.956 1016.31 231.811C1018.99 234.666 1021.03 238.454 1022.43 243.173C1023.88 247.835 1024.61 253.603 1024.61 260.479V320H994.983V260.392C994.983 256.604 994.458 253.72 993.41 251.739C992.361 249.699 990.846 248.301 988.865 247.543C986.884 246.786 984.465 246.407 981.61 246.407C978.58 246.407 976.017 246.99 973.919 248.155C971.821 249.321 970.132 250.952 968.85 253.05C967.626 255.089 966.723 257.507 966.14 260.304C965.616 263.101 965.354 266.16 965.354 269.481ZM1090.08 296.227V257.245C1090.08 254.565 1089.7 252.263 1088.94 250.34C1088.18 248.417 1086.99 246.932 1085.36 245.883C1083.73 244.776 1081.54 244.222 1078.8 244.222C1076.59 244.222 1074.69 244.601 1073.12 245.358C1071.55 246.116 1070.35 247.252 1069.54 248.767C1068.72 250.282 1068.31 252.205 1068.31 254.536H1038.86C1038.86 250.166 1039.82 246.116 1041.74 242.387C1043.72 238.599 1046.52 235.307 1050.13 232.51C1053.8 229.713 1058.17 227.557 1063.24 226.042C1068.37 224.469 1074.08 223.683 1080.38 223.683C1087.89 223.683 1094.59 224.935 1100.48 227.441C1106.42 229.946 1111.11 233.705 1114.55 238.716C1117.99 243.669 1119.71 249.903 1119.71 257.42V296.139C1119.71 302.316 1120.06 307.006 1120.75 310.211C1121.45 313.357 1122.44 316.125 1123.73 318.514V320H1094.18C1092.79 317.087 1091.74 313.532 1091.04 309.337C1090.4 305.083 1090.08 300.713 1090.08 296.227ZM1093.66 262.227L1093.83 277.959H1080.81C1078.07 277.959 1075.74 278.338 1073.82 279.096C1071.96 279.853 1070.44 280.902 1069.27 282.242C1068.17 283.524 1067.35 284.981 1066.83 286.612C1066.36 288.244 1066.13 289.963 1066.13 291.769C1066.13 293.517 1066.54 295.09 1067.35 296.489C1068.23 297.829 1069.39 298.878 1070.85 299.635C1072.3 300.393 1073.94 300.771 1075.74 300.771C1079.01 300.771 1081.77 300.16 1084.05 298.936C1086.38 297.654 1088.15 296.11 1089.38 294.304C1090.6 292.497 1091.21 290.808 1091.21 289.234L1097.68 301.296C1096.52 303.627 1095.18 305.986 1093.66 308.375C1092.2 310.764 1090.37 312.979 1088.15 315.018C1086 316.999 1083.35 318.631 1080.2 319.913C1077.05 321.136 1073.24 321.748 1068.75 321.748C1062.92 321.748 1057.56 320.554 1052.67 318.165C1047.83 315.776 1043.96 312.454 1041.04 308.201C1038.13 303.889 1036.67 298.936 1036.67 293.342C1036.67 288.448 1037.55 284.078 1039.3 280.232C1041.1 276.386 1043.81 273.123 1047.42 270.443C1051.04 267.763 1055.64 265.723 1061.23 264.325C1066.83 262.926 1073.41 262.227 1080.99 262.227H1093.66ZM1091.65 185.575H1111.84C1111.84 190.819 1110.5 195.481 1107.82 199.56C1105.2 203.58 1101.47 206.727 1096.63 208.999C1091.8 211.271 1086.09 212.408 1079.5 212.408C1069.54 212.408 1061.64 209.931 1055.81 204.979C1049.99 199.967 1047.07 193.5 1047.07 185.575H1067.18C1067.18 188.43 1068.11 190.994 1069.97 193.267C1071.84 195.539 1075.01 196.675 1079.5 196.675C1083.99 196.675 1087.13 195.539 1088.94 193.267C1090.75 190.994 1091.65 188.43 1091.65 185.575ZM1164.98 245.621V320H1135.53V225.431H1163.15L1164.98 245.621ZM1161.48 269.481L1154.58 269.656C1154.58 262.431 1155.45 255.992 1157.2 250.34C1158.95 244.63 1161.43 239.794 1164.63 235.832C1167.84 231.869 1171.65 228.868 1176.08 226.829C1180.57 224.731 1185.55 223.683 1191.03 223.683C1195.4 223.683 1199.39 224.324 1203 225.605C1206.67 226.887 1209.82 228.956 1212.44 231.811C1215.12 234.666 1217.16 238.454 1218.56 243.173C1220.01 247.835 1220.74 253.603 1220.74 260.479V320H1191.11V260.392C1191.11 256.604 1190.59 253.72 1189.54 251.739C1188.49 249.699 1186.98 248.301 1185 247.543C1183.01 246.786 1180.6 246.407 1177.74 246.407C1174.71 246.407 1172.15 246.99 1170.05 248.155C1167.95 249.321 1166.26 250.952 1164.98 253.05C1163.76 255.089 1162.85 257.507 1162.27 260.304C1161.75 263.101 1161.48 266.16 1161.48 269.481ZM1296.52 225.431H1323.27V316.329C1323.27 325.069 1321.26 332.469 1317.24 338.529C1313.21 344.647 1307.59 349.28 1300.37 352.426C1293.2 355.631 1284.81 357.233 1275.19 357.233C1270.94 357.233 1266.6 356.68 1262.17 355.573C1257.74 354.524 1253.61 352.951 1249.76 350.853C1245.92 348.755 1242.68 346.162 1240.06 343.074L1252.38 325.769C1254.77 328.449 1257.77 330.721 1261.39 332.586C1265 334.509 1269.25 335.47 1274.15 335.47C1278.4 335.47 1281.95 334.713 1284.81 333.198C1287.72 331.683 1289.94 329.469 1291.45 326.555C1292.97 323.7 1293.72 320.233 1293.72 316.154V247.806L1296.52 225.431ZM1233.68 273.852V272.016C1233.68 264.849 1234.55 258.323 1236.3 252.438C1238.11 246.495 1240.67 241.396 1243.99 237.143C1247.37 232.831 1251.45 229.509 1256.23 227.179C1261.01 224.848 1266.4 223.683 1272.4 223.683C1278.87 223.683 1284.17 224.935 1288.31 227.441C1292.5 229.888 1295.85 233.326 1298.36 237.754C1300.92 242.183 1302.9 247.369 1304.3 253.312C1305.76 259.197 1306.98 265.548 1307.97 272.366V274.551C1306.98 280.96 1305.61 287.02 1303.86 292.73C1302.17 298.382 1299.96 303.394 1297.22 307.764C1294.48 312.134 1291.04 315.572 1286.91 318.077C1282.83 320.524 1277.93 321.748 1272.22 321.748C1266.28 321.748 1260.92 320.554 1256.14 318.165C1251.42 315.776 1247.37 312.425 1243.99 308.113C1240.67 303.801 1238.11 298.732 1236.3 292.905C1234.55 287.078 1233.68 280.727 1233.68 273.852ZM1263.13 272.016V273.852C1263.13 277.406 1263.45 280.698 1264.09 283.728C1264.79 286.758 1265.84 289.438 1267.24 291.769C1268.64 294.042 1270.36 295.819 1272.4 297.101C1274.5 298.382 1276.94 299.023 1279.74 299.023C1283.99 299.023 1287.43 298.12 1290.05 296.314C1292.68 294.508 1294.57 291.944 1295.73 288.623C1296.9 285.301 1297.4 281.397 1297.22 276.911V270.006C1297.34 266.16 1297.07 262.781 1296.43 259.867C1295.79 256.896 1294.77 254.419 1293.37 252.438C1292.03 250.457 1290.23 248.971 1287.96 247.98C1285.74 246.932 1283.06 246.407 1279.91 246.407C1277.18 246.407 1274.76 247.048 1272.66 248.33C1270.56 249.612 1268.81 251.418 1267.42 253.749C1266.02 256.021 1264.94 258.731 1264.18 261.877C1263.48 264.966 1263.13 268.345 1263.13 272.016Z"/><defs><linearGradient id="paint0_linear_331_112" x1="0" x2="88.064" y1=".777" y2="9.505" gradientUnits="userSpaceOnUse"><stop stop-color="#00E1C3"/><stop offset="1" stop-color="#00D1D5"/></linearGradient><linearGradient id="paint1_linear_331_112" x1="189" x2="436.787" y1="109.929" y2="358.473" gradientUnits="userSpaceOnUse"><stop stop-color="#00E1C3"/><stop offset="1" stop-color="#00D1D5"/></linearGradient><linearGradient id="paint2_linear_331_112" x1="189" x2="436.787" y1="109.929" y2="358.473" gradientUnits="userSpaceOnUse"><stop stop-color="#00E1C3"/><stop offset="1" stop-color="#00D1D5"/></linearGradient><linearGradient id="paint3_linear_331_112" x1="189" x2="436.787" y1="109.929" y2="358.473" gradientUnits="userSpaceOnUse"><stop stop-color="#00E1C3"/><stop offset="1" stop-color="#00D1D5"/></linearGradient><linearGradient id="paint4_linear_331_112" x1="521" x2="615.137" y1="154.371" y2="560.846" gradientUnits="userSpaceOnUse"><stop stop-color="#00E1C3"/><stop offset="1" stop-color="#00D1D5"/></linearGradient></defs></svg>