<svg xmlns="http://www.w3.org/2000/svg" width="1280" height="440" fill="none" viewBox="0 0 1280 440"><path fill="#132636" d="M3 37C3 16.5655 19.5655 0 40 0H1233.01C1256.95 0 1274.59 22.4035 1268.97 45.6822L1180.86 410.682C1176.85 427.295 1161.99 439 1144.9 439H40C19.5655 439 3 422.435 3 402V37Z"/><path fill="#132636" d="M0 37C0 16.5655 16.5655 0 37 0H39V440H37C16.5655 440 0 423.435 0 403V37Z"/><path fill="url(#paint0_linear_331_92)" d="M0 37C0 16.5655 16.5655 0 37 0H39V440H37C16.5655 440 0 423.435 0 403V37Z"/><g clip-path="url(#clip0_331_92)"><path fill="#01D8CE" d="M206.156 322.5C201.581 322.5 197.578 320.784 194.147 317.353C190.716 313.922 189 309.919 189 305.344V264.455H206.156V305.344H354.844V264.455H372V305.344C372 309.919 370.284 313.922 366.853 317.353C363.422 320.784 359.419 322.5 354.844 322.5H206.156ZM280.5 278.752L225.314 223.566L237.609 211.27L271.922 245.583V139.5H289.078V245.583L323.391 211.27L335.686 223.566L280.5 278.752Z"/></g><path fill="#fff" d="M507.011 147.114L516.627 111.789H529.101L513.517 158H505.456L507.011 147.114ZM498.283 111.789L507.899 147.114L509.518 158H501.361L485.873 111.789H498.283ZM551.159 149.653V123.659H561.886V158H551.857L551.159 149.653ZM552.174 142.67L554.967 142.607C554.967 144.913 554.692 147.05 554.142 149.018C553.592 150.965 552.777 152.657 551.698 154.096C550.64 155.535 549.328 156.656 547.763 157.46C546.218 158.243 544.43 158.635 542.399 158.635C540.706 158.635 539.151 158.402 537.733 157.937C536.337 157.45 535.131 156.699 534.115 155.683C533.1 154.646 532.306 153.324 531.735 151.716C531.185 150.087 530.91 148.14 530.91 145.876V123.659H541.605V145.939C541.605 146.701 541.701 147.357 541.891 147.907C542.082 148.457 542.357 148.923 542.716 149.304C543.076 149.663 543.52 149.938 544.049 150.129C544.599 150.298 545.224 150.383 545.922 150.383C547.53 150.383 548.789 150.044 549.699 149.367C550.609 148.69 551.243 147.77 551.603 146.606C551.984 145.442 552.174 144.13 552.174 142.67ZM584.42 158.635C581.627 158.635 579.131 158.201 576.93 157.333C574.73 156.445 572.868 155.228 571.344 153.684C569.842 152.139 568.689 150.362 567.885 148.352C567.102 146.341 566.71 144.215 566.71 141.972V140.766C566.71 138.248 567.06 135.921 567.758 133.784C568.456 131.625 569.493 129.742 570.868 128.134C572.243 126.526 573.968 125.278 576.042 124.389C578.115 123.479 580.527 123.024 583.278 123.024C585.711 123.024 587.89 123.416 589.816 124.199C591.741 124.982 593.371 126.103 594.704 127.563C596.058 129.023 597.084 130.79 597.782 132.863C598.502 134.937 598.861 137.264 598.861 139.846V144.194H570.805V137.497H588.419V136.672C588.441 135.529 588.24 134.556 587.816 133.752C587.414 132.948 586.822 132.334 586.039 131.911C585.256 131.488 584.304 131.276 583.183 131.276C582.019 131.276 581.056 131.53 580.294 132.038C579.554 132.546 578.972 133.244 578.549 134.133C578.147 135 577.861 136.005 577.692 137.148C577.523 138.291 577.438 139.497 577.438 140.766V141.972C577.438 143.242 577.607 144.395 577.946 145.432C578.306 146.468 578.813 147.357 579.469 148.098C580.146 148.817 580.95 149.378 581.881 149.78C582.833 150.182 583.913 150.383 585.119 150.383C586.579 150.383 588.017 150.108 589.435 149.558C590.853 149.007 592.069 148.098 593.085 146.828L597.941 152.604C597.243 153.599 596.248 154.562 594.958 155.493C593.688 156.424 592.165 157.185 590.387 157.778C588.61 158.349 586.621 158.635 584.42 158.635ZM626.093 111.789V158H614.953V111.789H626.093ZM639.994 111.789V120.39H601.369V111.789H639.994ZM662.179 149.653V123.659H672.907V158H662.877L662.179 149.653ZM663.195 142.67L665.988 142.607C665.988 144.913 665.713 147.05 665.163 149.018C664.612 150.965 663.798 152.657 662.719 154.096C661.661 155.535 660.349 156.656 658.783 157.46C657.239 158.243 655.451 158.635 653.419 158.635C651.727 158.635 650.172 158.402 648.754 157.937C647.357 157.45 646.151 156.699 645.136 155.683C644.12 154.646 643.327 153.324 642.755 151.716C642.205 150.087 641.93 148.14 641.93 145.876V123.659H652.626V145.939C652.626 146.701 652.721 147.357 652.912 147.907C653.102 148.457 653.377 148.923 653.737 149.304C654.097 149.663 654.541 149.938 655.07 150.129C655.62 150.298 656.244 150.383 656.942 150.383C658.55 150.383 659.809 150.044 660.719 149.367C661.629 148.69 662.264 147.77 662.624 146.606C663.004 145.442 663.195 144.13 663.195 142.67ZM678.905 109.25H689.601V149.558L688.49 158H678.905V109.25ZM710.675 140.449V141.115C710.675 143.718 710.411 146.088 709.882 148.225C709.353 150.362 708.538 152.213 707.438 153.779C706.338 155.323 704.952 156.519 703.28 157.365C701.609 158.212 699.63 158.635 697.345 158.635C695.272 158.635 693.494 158.19 692.013 157.302C690.532 156.392 689.294 155.144 688.3 153.557C687.305 151.949 686.501 150.097 685.888 148.002C685.274 145.887 684.787 143.623 684.428 141.21V140.417C684.787 138.026 685.274 135.783 685.888 133.688C686.501 131.573 687.305 129.721 688.3 128.134C689.294 126.526 690.521 125.278 691.981 124.389C693.463 123.479 695.229 123.024 697.282 123.024C699.588 123.024 701.577 123.458 703.249 124.326C704.941 125.193 706.338 126.41 707.438 127.976C708.538 129.541 709.353 131.382 709.882 133.498C710.411 135.614 710.675 137.931 710.675 140.449ZM699.979 141.115V140.449C699.979 139.2 699.905 138.026 699.757 136.926C699.609 135.826 699.345 134.852 698.964 134.006C698.583 133.16 698.043 132.493 697.345 132.006C696.647 131.52 695.737 131.276 694.616 131.276C693.473 131.276 692.51 131.467 691.728 131.848C690.966 132.229 690.352 132.779 689.887 133.498C689.442 134.196 689.125 135.064 688.935 136.101C688.744 137.116 688.66 138.269 688.681 139.56V142.067C688.638 143.824 688.797 145.326 689.157 146.574C689.516 147.823 690.141 148.775 691.029 149.431C691.918 150.087 693.135 150.415 694.679 150.415C695.822 150.415 696.742 150.192 697.44 149.748C698.16 149.304 698.699 148.669 699.059 147.844C699.419 147.019 699.662 146.035 699.789 144.892C699.916 143.75 699.979 142.491 699.979 141.115ZM732.067 158.635C729.274 158.635 726.777 158.201 724.577 157.333C722.376 156.445 720.514 155.228 718.991 153.684C717.488 152.139 716.335 150.362 715.531 148.352C714.748 146.341 714.357 144.215 714.357 141.972V140.766C714.357 138.248 714.706 135.921 715.404 133.784C716.103 131.625 717.139 129.742 718.515 128.134C719.89 126.526 721.614 125.278 723.688 124.389C725.762 123.479 728.174 123.024 730.924 123.024C733.358 123.024 735.537 123.416 737.462 124.199C739.388 124.982 741.017 126.103 742.35 127.563C743.704 129.023 744.73 130.79 745.429 132.863C746.148 134.937 746.508 137.264 746.508 139.846V144.194H718.451V137.497H736.066V136.672C736.087 135.529 735.886 134.556 735.463 133.752C735.061 132.948 734.468 132.334 733.686 131.911C732.903 131.488 731.951 131.276 730.829 131.276C729.665 131.276 728.703 131.53 727.941 132.038C727.2 132.546 726.618 133.244 726.195 134.133C725.793 135 725.508 136.005 725.338 137.148C725.169 138.291 725.084 139.497 725.084 140.766V141.972C725.084 143.242 725.254 144.395 725.592 145.432C725.952 146.468 726.46 147.357 727.116 148.098C727.793 148.817 728.597 149.378 729.528 149.78C730.48 150.182 731.559 150.383 732.765 150.383C734.225 150.383 735.664 150.108 737.082 149.558C738.499 149.007 739.716 148.098 740.731 146.828L745.587 152.604C744.889 153.599 743.895 154.562 742.604 155.493C741.334 156.424 739.811 157.185 738.034 157.778C736.256 158.349 734.267 158.635 732.067 158.635Z"/><path fill="#fff" d="M568.071 276.911H598.662C598.254 285.767 595.865 293.575 591.495 300.334C587.125 307.094 581.065 312.367 573.315 316.154C565.624 319.883 556.534 321.748 546.045 321.748C537.538 321.748 529.934 320.32 523.233 317.465C516.591 314.61 510.939 310.502 506.277 305.142C501.674 299.781 498.149 293.284 495.702 285.651C493.313 278.018 492.118 269.423 492.118 259.867V252.962C492.118 243.406 493.371 234.812 495.876 227.179C498.44 219.487 502.053 212.961 506.714 207.601C511.434 202.182 517.086 198.045 523.67 195.189C530.255 192.334 537.567 190.907 545.608 190.907C556.679 190.907 566.031 192.888 573.665 196.85C581.298 200.812 587.212 206.26 591.407 213.194C595.603 220.07 598.079 227.907 598.836 236.706H568.246C568.129 231.928 567.313 227.936 565.798 224.731C564.283 221.468 561.894 219.021 558.631 217.39C555.368 215.758 551.027 214.942 545.608 214.942C541.821 214.942 538.529 215.642 535.732 217.04C532.935 218.438 530.604 220.653 528.74 223.683C526.875 226.713 525.477 230.646 524.544 235.482C523.67 240.26 523.233 246.028 523.233 252.788V259.867C523.233 266.626 523.641 272.395 524.457 277.173C525.273 281.951 526.584 285.855 528.39 288.885C530.196 291.915 532.527 294.158 535.382 295.615C538.296 297.013 541.85 297.712 546.045 297.712C550.707 297.712 554.64 296.984 557.845 295.527C561.049 294.012 563.526 291.74 565.274 288.71C567.022 285.622 567.954 281.689 568.071 276.911ZM660.892 296.227V257.245C660.892 254.565 660.513 252.263 659.756 250.34C658.998 248.417 657.804 246.932 656.172 245.883C654.541 244.776 652.356 244.222 649.617 244.222C647.403 244.222 645.509 244.601 643.936 245.358C642.363 246.116 641.168 247.252 640.353 248.767C639.537 250.282 639.129 252.205 639.129 254.536H609.674C609.674 250.166 610.636 246.116 612.559 242.387C614.54 238.599 617.337 235.307 620.949 232.51C624.62 229.713 628.99 227.557 634.06 226.042C639.187 224.469 644.897 223.683 651.19 223.683C658.707 223.683 665.408 224.935 671.293 227.441C677.236 229.946 681.927 233.705 685.365 238.716C688.803 243.669 690.521 249.903 690.521 257.42V296.139C690.521 302.316 690.871 307.006 691.57 310.211C692.27 313.357 693.26 316.125 694.542 318.514V320H665C663.602 317.087 662.553 313.532 661.854 309.337C661.213 305.083 660.892 300.713 660.892 296.227ZM664.476 262.227L664.65 277.959H651.627C648.889 277.959 646.558 278.338 644.635 279.096C642.771 279.853 641.256 280.902 640.09 282.242C638.983 283.524 638.167 284.981 637.643 286.612C637.177 288.244 636.944 289.963 636.944 291.769C636.944 293.517 637.352 295.09 638.167 296.489C639.042 297.829 640.207 298.878 641.664 299.635C643.12 300.393 644.752 300.771 646.558 300.771C649.821 300.771 652.589 300.16 654.861 298.936C657.192 297.654 658.969 296.11 660.193 294.304C661.417 292.497 662.028 290.808 662.028 289.234L668.496 301.296C667.331 303.627 665.991 305.986 664.476 308.375C663.019 310.764 661.183 312.979 658.969 315.018C656.813 316.999 654.162 318.631 651.016 319.913C647.869 321.136 644.053 321.748 639.566 321.748C633.739 321.748 628.378 320.554 623.484 318.165C618.648 315.776 614.773 312.454 611.859 308.201C608.946 303.889 607.489 298.936 607.489 293.342C607.489 288.448 608.363 284.078 610.111 280.232C611.918 276.386 614.627 273.123 618.24 270.443C621.852 267.763 626.456 265.723 632.049 264.325C637.643 262.926 644.227 262.227 651.802 262.227H664.476ZM646.82 185.75L664.213 213.194H640.353L615.705 185.75H646.82ZM737.981 225.431V320H708.439V225.431H737.981ZM706.691 201.045C706.691 196.85 708.206 193.412 711.236 190.732C714.266 188.052 718.199 186.711 723.035 186.711C727.871 186.711 731.805 188.052 734.834 190.732C737.864 193.412 739.379 196.85 739.379 201.045C739.379 205.241 737.864 208.679 734.834 211.359C731.805 214.039 727.871 215.379 723.035 215.379C718.199 215.379 714.266 214.039 711.236 211.359C708.206 208.679 706.691 205.241 706.691 201.045ZM855.1 298.324V185.75H884.729V320H858.159L855.1 298.324ZM797.065 273.852V272.016C797.065 264.849 797.852 258.323 799.425 252.438C800.998 246.495 803.329 241.396 806.417 237.143C809.505 232.831 813.351 229.509 817.954 227.179C822.557 224.848 827.86 223.683 833.861 223.683C839.222 223.683 843.913 224.935 847.933 227.441C851.954 229.888 855.391 233.326 858.247 237.754C861.102 242.183 863.432 247.369 865.239 253.312C867.045 259.197 868.414 265.548 869.347 272.366V274.551C868.414 280.96 867.045 287.02 865.239 292.73C863.432 298.382 861.102 303.394 858.247 307.764C855.391 312.134 851.924 315.572 847.846 318.077C843.825 320.524 839.105 321.748 833.687 321.748C827.685 321.748 822.382 320.554 817.779 318.165C813.234 315.776 809.418 312.425 806.33 308.113C803.3 303.801 800.998 298.732 799.425 292.905C797.852 287.078 797.065 280.727 797.065 273.852ZM826.52 272.016V273.852C826.52 277.406 826.753 280.698 827.219 283.728C827.685 286.758 828.472 289.438 829.579 291.769C830.744 294.042 832.259 295.819 834.124 297.101C836.046 298.382 838.406 299.023 841.203 299.023C844.991 299.023 848.108 298.12 850.555 296.314C853.061 294.508 854.896 291.944 856.062 288.623C857.285 285.301 857.81 281.397 857.635 276.911V270.006C857.751 266.16 857.489 262.781 856.848 259.867C856.207 256.896 855.188 254.419 853.789 252.438C852.449 250.457 850.73 248.971 848.632 247.98C846.593 246.932 844.175 246.407 841.378 246.407C838.639 246.407 836.309 247.048 834.386 248.33C832.521 249.612 831.006 251.418 829.841 253.749C828.675 256.021 827.831 258.731 827.306 261.877C826.782 264.966 826.52 268.345 826.52 272.016ZM896.966 197.112V213.806H833.075V197.112H896.966ZM965.402 296.227V257.245C965.402 254.565 965.023 252.263 964.266 250.34C963.508 248.417 962.314 246.932 960.682 245.883C959.051 244.776 956.866 244.222 954.127 244.222C951.913 244.222 950.019 244.601 948.446 245.358C946.873 246.116 945.678 247.252 944.862 248.767C944.047 250.282 943.639 252.205 943.639 254.536H914.184C914.184 250.166 915.146 246.116 917.068 242.387C919.049 238.599 921.846 235.307 925.459 232.51C929.13 229.713 933.5 227.557 938.569 226.042C943.697 224.469 949.407 223.683 955.7 223.683C963.217 223.683 969.918 224.935 975.803 227.441C981.746 229.946 986.437 233.705 989.875 238.716C993.312 243.669 995.031 249.903 995.031 257.42V296.139C995.031 302.316 995.381 307.006 996.08 310.211C996.779 313.357 997.77 316.125 999.052 318.514V320H969.51C968.111 317.087 967.062 313.532 966.363 309.337C965.722 305.083 965.402 300.713 965.402 296.227ZM968.985 262.227L969.16 277.959H956.137C953.399 277.959 951.068 278.338 949.145 279.096C947.28 279.853 945.765 280.902 944.6 282.242C943.493 283.524 942.677 284.981 942.153 286.612C941.687 288.244 941.454 289.963 941.454 291.769C941.454 293.517 941.861 295.09 942.677 296.489C943.551 297.829 944.717 298.878 946.173 299.635C947.63 300.393 949.262 300.771 951.068 300.771C954.331 300.771 957.099 300.16 959.371 298.936C961.702 297.654 963.479 296.11 964.703 294.304C965.926 292.497 966.538 290.808 966.538 289.234L973.006 301.296C971.84 303.627 970.5 305.986 968.985 308.375C967.529 310.764 965.693 312.979 963.479 315.018C961.323 316.999 958.672 318.631 955.525 319.913C952.379 321.136 948.562 321.748 944.076 321.748C938.249 321.748 932.888 320.554 927.994 318.165C923.157 315.776 919.283 312.454 916.369 308.201C913.456 303.889 911.999 298.936 911.999 293.342C911.999 288.448 912.873 284.078 914.621 280.232C916.427 276.386 919.137 273.123 922.75 270.443C926.362 267.763 930.965 265.723 936.559 264.325C942.153 262.926 948.737 262.227 956.312 262.227H968.985ZM966.975 185.575H987.165C987.165 190.819 985.825 195.481 983.145 199.56C980.522 203.58 976.793 206.727 971.957 208.999C967.121 211.271 961.41 212.408 954.826 212.408C944.862 212.408 936.967 209.931 931.14 204.979C925.313 199.967 922.4 193.5 922.4 185.575H942.502C942.502 188.43 943.435 190.994 945.299 193.267C947.164 195.539 950.34 196.675 954.826 196.675C959.313 196.675 962.459 195.539 964.266 193.267C966.072 190.994 966.975 188.43 966.975 185.575ZM932.276 338.18C932.276 334.451 933.791 331.333 936.821 328.828C939.851 326.38 943.784 325.157 948.621 325.157C953.457 325.157 957.39 326.38 960.42 328.828C963.45 331.333 964.965 334.451 964.965 338.18C964.965 341.909 963.45 344.997 960.42 347.444C957.39 349.95 953.457 351.203 948.621 351.203C943.784 351.203 939.851 349.95 936.821 347.444C933.791 344.997 932.276 341.909 932.276 338.18ZM1061.19 225.431V245.883H1004.21V225.431H1061.19ZM1016.18 201.919H1045.64V289.147C1045.64 291.653 1045.93 293.604 1046.51 295.003C1047.09 296.343 1048.08 297.305 1049.48 297.887C1050.94 298.412 1052.86 298.674 1055.25 298.674C1056.94 298.674 1058.34 298.645 1059.45 298.586C1060.55 298.47 1061.6 298.324 1062.59 298.149V319.213C1060.09 320.029 1057.47 320.641 1054.73 321.049C1051.99 321.515 1049.08 321.748 1045.99 321.748C1039.69 321.748 1034.3 320.757 1029.82 318.776C1025.39 316.795 1022.01 313.678 1019.68 309.424C1017.35 305.171 1016.18 299.635 1016.18 292.818V201.919Z"/><path fill="url(#paint1_linear_331_92)" d="M568.071 276.911H598.662C598.254 285.767 595.865 293.575 591.495 300.334C587.125 307.094 581.065 312.367 573.315 316.154C565.624 319.883 556.534 321.748 546.045 321.748C537.538 321.748 529.934 320.32 523.233 317.465C516.591 314.61 510.939 310.502 506.277 305.142C501.674 299.781 498.149 293.284 495.702 285.651C493.313 278.018 492.118 269.423 492.118 259.867V252.962C492.118 243.406 493.371 234.812 495.876 227.179C498.44 219.487 502.053 212.961 506.714 207.601C511.434 202.182 517.086 198.045 523.67 195.189C530.255 192.334 537.567 190.907 545.608 190.907C556.679 190.907 566.031 192.888 573.665 196.85C581.298 200.812 587.212 206.26 591.407 213.194C595.603 220.07 598.079 227.907 598.836 236.706H568.246C568.129 231.928 567.313 227.936 565.798 224.731C564.283 221.468 561.894 219.021 558.631 217.39C555.368 215.758 551.027 214.942 545.608 214.942C541.821 214.942 538.529 215.642 535.732 217.04C532.935 218.438 530.604 220.653 528.74 223.683C526.875 226.713 525.477 230.646 524.544 235.482C523.67 240.26 523.233 246.028 523.233 252.788V259.867C523.233 266.626 523.641 272.395 524.457 277.173C525.273 281.951 526.584 285.855 528.39 288.885C530.196 291.915 532.527 294.158 535.382 295.615C538.296 297.013 541.85 297.712 546.045 297.712C550.707 297.712 554.64 296.984 557.845 295.527C561.049 294.012 563.526 291.74 565.274 288.71C567.022 285.622 567.954 281.689 568.071 276.911ZM660.892 296.227V257.245C660.892 254.565 660.513 252.263 659.756 250.34C658.998 248.417 657.804 246.932 656.172 245.883C654.541 244.776 652.356 244.222 649.617 244.222C647.403 244.222 645.509 244.601 643.936 245.358C642.363 246.116 641.168 247.252 640.353 248.767C639.537 250.282 639.129 252.205 639.129 254.536H609.674C609.674 250.166 610.636 246.116 612.559 242.387C614.54 238.599 617.337 235.307 620.949 232.51C624.62 229.713 628.99 227.557 634.06 226.042C639.187 224.469 644.897 223.683 651.19 223.683C658.707 223.683 665.408 224.935 671.293 227.441C677.236 229.946 681.927 233.705 685.365 238.716C688.803 243.669 690.521 249.903 690.521 257.42V296.139C690.521 302.316 690.871 307.006 691.57 310.211C692.27 313.357 693.26 316.125 694.542 318.514V320H665C663.602 317.087 662.553 313.532 661.854 309.337C661.213 305.083 660.892 300.713 660.892 296.227ZM664.476 262.227L664.65 277.959H651.627C648.889 277.959 646.558 278.338 644.635 279.096C642.771 279.853 641.256 280.902 640.09 282.242C638.983 283.524 638.167 284.981 637.643 286.612C637.177 288.244 636.944 289.963 636.944 291.769C636.944 293.517 637.352 295.09 638.167 296.489C639.042 297.829 640.207 298.878 641.664 299.635C643.12 300.393 644.752 300.771 646.558 300.771C649.821 300.771 652.589 300.16 654.861 298.936C657.192 297.654 658.969 296.11 660.193 294.304C661.417 292.497 662.028 290.808 662.028 289.234L668.496 301.296C667.331 303.627 665.991 305.986 664.476 308.375C663.019 310.764 661.183 312.979 658.969 315.018C656.813 316.999 654.162 318.631 651.016 319.913C647.869 321.136 644.053 321.748 639.566 321.748C633.739 321.748 628.378 320.554 623.484 318.165C618.648 315.776 614.773 312.454 611.859 308.201C608.946 303.889 607.489 298.936 607.489 293.342C607.489 288.448 608.363 284.078 610.111 280.232C611.918 276.386 614.627 273.123 618.24 270.443C621.852 267.763 626.456 265.723 632.049 264.325C637.643 262.926 644.227 262.227 651.802 262.227H664.476ZM646.82 185.75L664.213 213.194H640.353L615.705 185.75H646.82ZM737.981 225.431V320H708.439V225.431H737.981ZM706.691 201.045C706.691 196.85 708.206 193.412 711.236 190.732C714.266 188.052 718.199 186.711 723.035 186.711C727.871 186.711 731.805 188.052 734.834 190.732C737.864 193.412 739.379 196.85 739.379 201.045C739.379 205.241 737.864 208.679 734.834 211.359C731.805 214.039 727.871 215.379 723.035 215.379C718.199 215.379 714.266 214.039 711.236 211.359C708.206 208.679 706.691 205.241 706.691 201.045ZM855.1 298.324V185.75H884.729V320H858.159L855.1 298.324ZM797.065 273.852V272.016C797.065 264.849 797.852 258.323 799.425 252.438C800.998 246.495 803.329 241.396 806.417 237.143C809.505 232.831 813.351 229.509 817.954 227.179C822.557 224.848 827.86 223.683 833.861 223.683C839.222 223.683 843.913 224.935 847.933 227.441C851.954 229.888 855.391 233.326 858.247 237.754C861.102 242.183 863.432 247.369 865.239 253.312C867.045 259.197 868.414 265.548 869.347 272.366V274.551C868.414 280.96 867.045 287.02 865.239 292.73C863.432 298.382 861.102 303.394 858.247 307.764C855.391 312.134 851.924 315.572 847.846 318.077C843.825 320.524 839.105 321.748 833.687 321.748C827.685 321.748 822.382 320.554 817.779 318.165C813.234 315.776 809.418 312.425 806.33 308.113C803.3 303.801 800.998 298.732 799.425 292.905C797.852 287.078 797.065 280.727 797.065 273.852ZM826.52 272.016V273.852C826.52 277.406 826.753 280.698 827.219 283.728C827.685 286.758 828.472 289.438 829.579 291.769C830.744 294.042 832.259 295.819 834.124 297.101C836.046 298.382 838.406 299.023 841.203 299.023C844.991 299.023 848.108 298.12 850.555 296.314C853.061 294.508 854.896 291.944 856.062 288.623C857.285 285.301 857.81 281.397 857.635 276.911V270.006C857.751 266.16 857.489 262.781 856.848 259.867C856.207 256.896 855.188 254.419 853.789 252.438C852.449 250.457 850.73 248.971 848.632 247.98C846.593 246.932 844.175 246.407 841.378 246.407C838.639 246.407 836.309 247.048 834.386 248.33C832.521 249.612 831.006 251.418 829.841 253.749C828.675 256.021 827.831 258.731 827.306 261.877C826.782 264.966 826.52 268.345 826.52 272.016ZM896.966 197.112V213.806H833.075V197.112H896.966ZM965.402 296.227V257.245C965.402 254.565 965.023 252.263 964.266 250.34C963.508 248.417 962.314 246.932 960.682 245.883C959.051 244.776 956.866 244.222 954.127 244.222C951.913 244.222 950.019 244.601 948.446 245.358C946.873 246.116 945.678 247.252 944.862 248.767C944.047 250.282 943.639 252.205 943.639 254.536H914.184C914.184 250.166 915.146 246.116 917.068 242.387C919.049 238.599 921.846 235.307 925.459 232.51C929.13 229.713 933.5 227.557 938.569 226.042C943.697 224.469 949.407 223.683 955.7 223.683C963.217 223.683 969.918 224.935 975.803 227.441C981.746 229.946 986.437 233.705 989.875 238.716C993.312 243.669 995.031 249.903 995.031 257.42V296.139C995.031 302.316 995.381 307.006 996.08 310.211C996.779 313.357 997.77 316.125 999.052 318.514V320H969.51C968.111 317.087 967.062 313.532 966.363 309.337C965.722 305.083 965.402 300.713 965.402 296.227ZM968.985 262.227L969.16 277.959H956.137C953.399 277.959 951.068 278.338 949.145 279.096C947.28 279.853 945.765 280.902 944.6 282.242C943.493 283.524 942.677 284.981 942.153 286.612C941.687 288.244 941.454 289.963 941.454 291.769C941.454 293.517 941.861 295.09 942.677 296.489C943.551 297.829 944.717 298.878 946.173 299.635C947.63 300.393 949.262 300.771 951.068 300.771C954.331 300.771 957.099 300.16 959.371 298.936C961.702 297.654 963.479 296.11 964.703 294.304C965.926 292.497 966.538 290.808 966.538 289.234L973.006 301.296C971.84 303.627 970.5 305.986 968.985 308.375C967.529 310.764 965.693 312.979 963.479 315.018C961.323 316.999 958.672 318.631 955.525 319.913C952.379 321.136 948.562 321.748 944.076 321.748C938.249 321.748 932.888 320.554 927.994 318.165C923.157 315.776 919.283 312.454 916.369 308.201C913.456 303.889 911.999 298.936 911.999 293.342C911.999 288.448 912.873 284.078 914.621 280.232C916.427 276.386 919.137 273.123 922.75 270.443C926.362 267.763 930.965 265.723 936.559 264.325C942.153 262.926 948.737 262.227 956.312 262.227H968.985ZM966.975 185.575H987.165C987.165 190.819 985.825 195.481 983.145 199.56C980.522 203.58 976.793 206.727 971.957 208.999C967.121 211.271 961.41 212.408 954.826 212.408C944.862 212.408 936.967 209.931 931.14 204.979C925.313 199.967 922.4 193.5 922.4 185.575H942.502C942.502 188.43 943.435 190.994 945.299 193.267C947.164 195.539 950.34 196.675 954.826 196.675C959.313 196.675 962.459 195.539 964.266 193.267C966.072 190.994 966.975 188.43 966.975 185.575ZM932.276 338.18C932.276 334.451 933.791 331.333 936.821 328.828C939.851 326.38 943.784 325.157 948.621 325.157C953.457 325.157 957.39 326.38 960.42 328.828C963.45 331.333 964.965 334.451 964.965 338.18C964.965 341.909 963.45 344.997 960.42 347.444C957.39 349.95 953.457 351.203 948.621 351.203C943.784 351.203 939.851 349.95 936.821 347.444C933.791 344.997 932.276 341.909 932.276 338.18ZM1061.19 225.431V245.883H1004.21V225.431H1061.19ZM1016.18 201.919H1045.64V289.147C1045.64 291.653 1045.93 293.604 1046.51 295.003C1047.09 296.343 1048.08 297.305 1049.48 297.887C1050.94 298.412 1052.86 298.674 1055.25 298.674C1056.94 298.674 1058.34 298.645 1059.45 298.586C1060.55 298.47 1061.6 298.324 1062.59 298.149V319.213C1060.09 320.029 1057.47 320.641 1054.73 321.049C1051.99 321.515 1049.08 321.748 1045.99 321.748C1039.69 321.748 1034.3 320.757 1029.82 318.776C1025.39 316.795 1022.01 313.678 1019.68 309.424C1017.35 305.171 1016.18 299.635 1016.18 292.818V201.919Z"/><defs><linearGradient id="paint0_linear_331_92" x1="0" x2="88.064" y1=".777" y2="9.505" gradientUnits="userSpaceOnUse"><stop stop-color="#00E1C3"/><stop offset="1" stop-color="#00D1D5"/></linearGradient><linearGradient id="paint1_linear_331_92" x1="486" x2="611.701" y1="154.371" y2="541.871" gradientUnits="userSpaceOnUse"><stop stop-color="#00E1C3"/><stop offset="1" stop-color="#00D1D5"/></linearGradient><clipPath id="clip0_331_92"><rect width="183" height="183" fill="#fff" transform="translate(189 139.5)"/></clipPath></defs></svg>