<svg xmlns="http://www.w3.org/2000/svg" width="1443" height="440" fill="none" viewBox="0 0 1443 440"><path fill="#132636" d="M3 37C3 16.5655 19.5655 0 40 0H1394.58C1418.97 0 1436.69 23.1849 1430.28 46.718L1330.93 411.718C1326.54 427.824 1311.92 439 1295.23 439H39.9999C19.5654 439 3 422.435 3 402V37Z"/><path fill="#132636" d="M0 37C0 16.5655 16.5655 0 37 0H39V440H37C16.5655 440 0 423.435 0 403V37Z"/><path fill="url(#paint0_linear_331_102)" d="M0 37C0 16.5655 16.5655 0 37 0H39V440H37C16.5655 440 0 423.435 0 403V37Z"/><g clip-path="url(#clip0_331_102)"><path fill="#01D8CE" d="M324.112 149.293C326.467 146.855 329.284 144.91 332.398 143.572C335.513 142.235 338.862 141.53 342.252 141.501C345.641 141.472 349.002 142.117 352.139 143.401C355.277 144.684 358.127 146.58 360.523 148.977C362.92 151.373 364.816 154.223 366.099 157.361C367.383 160.498 368.028 163.859 367.999 167.248C367.97 170.638 367.265 173.987 365.928 177.102C364.59 180.216 362.645 183.033 360.207 185.388L350.086 195.509L313.991 159.414L324.112 149.293V149.293ZM295.944 177.462L189 284.405V320.5H225.095L332.051 213.556L295.931 177.462H295.944Z"/></g><path fill="#fff" d="M503.011 147.114L512.627 111.789H525.101L509.517 158H501.456L503.011 147.114ZM494.283 111.789L503.899 147.114L505.518 158H497.361L481.873 111.789H494.283ZM547.159 149.653V123.659H557.886V158H547.857L547.159 149.653ZM548.174 142.67L550.967 142.607C550.967 144.913 550.692 147.05 550.142 149.018C549.592 150.965 548.777 152.657 547.698 154.096C546.64 155.535 545.328 156.656 543.763 157.46C542.218 158.243 540.43 158.635 538.399 158.635C536.706 158.635 535.151 158.402 533.733 157.937C532.337 157.45 531.131 156.699 530.115 155.683C529.1 154.646 528.306 153.324 527.735 151.716C527.185 150.087 526.91 148.14 526.91 145.876V123.659H537.605V145.939C537.605 146.701 537.701 147.357 537.891 147.907C538.082 148.457 538.357 148.923 538.716 149.304C539.076 149.663 539.52 149.938 540.049 150.129C540.599 150.298 541.224 150.383 541.922 150.383C543.53 150.383 544.789 150.044 545.699 149.367C546.609 148.69 547.243 147.77 547.603 146.606C547.984 145.442 548.174 144.13 548.174 142.67ZM580.42 158.635C577.627 158.635 575.131 158.201 572.93 157.333C570.73 156.445 568.868 155.228 567.344 153.684C565.842 152.139 564.689 150.362 563.885 148.352C563.102 146.341 562.71 144.215 562.71 141.972V140.766C562.71 138.248 563.06 135.921 563.758 133.784C564.456 131.625 565.493 129.742 566.868 128.134C568.243 126.526 569.968 125.278 572.042 124.389C574.115 123.479 576.527 123.024 579.278 123.024C581.711 123.024 583.89 123.416 585.816 124.199C587.741 124.982 589.371 126.103 590.704 127.563C592.058 129.023 593.084 130.79 593.782 132.863C594.502 134.937 594.861 137.264 594.861 139.846V144.194H566.805V137.497H584.419V136.672C584.441 135.529 584.24 134.556 583.816 133.752C583.414 132.948 582.822 132.334 582.039 131.911C581.256 131.488 580.304 131.276 579.183 131.276C578.019 131.276 577.056 131.53 576.294 132.038C575.554 132.546 574.972 133.244 574.549 134.133C574.147 135 573.861 136.005 573.692 137.148C573.523 138.291 573.438 139.497 573.438 140.766V141.972C573.438 143.242 573.607 144.395 573.946 145.432C574.306 146.468 574.813 147.357 575.469 148.098C576.146 148.817 576.95 149.378 577.881 149.78C578.833 150.182 579.913 150.383 581.119 150.383C582.579 150.383 584.017 150.108 585.435 149.558C586.853 149.007 588.069 148.098 589.085 146.828L593.941 152.604C593.243 153.599 592.248 154.562 590.958 155.493C589.688 156.424 588.165 157.185 586.387 157.778C584.61 158.349 582.621 158.635 580.42 158.635ZM622.093 111.789V158H610.953V111.789H622.093ZM635.994 111.789V120.39H597.369V111.789H635.994ZM658.179 149.653V123.659H668.907V158H658.877L658.179 149.653ZM659.195 142.67L661.988 142.607C661.988 144.913 661.713 147.05 661.163 149.018C660.612 150.965 659.798 152.657 658.719 154.096C657.661 155.535 656.349 156.656 654.783 157.46C653.239 158.243 651.451 158.635 649.419 158.635C647.727 158.635 646.172 158.402 644.754 157.937C643.357 157.45 642.151 156.699 641.136 155.683C640.12 154.646 639.327 153.324 638.755 151.716C638.205 150.087 637.93 148.14 637.93 145.876V123.659H648.626V145.939C648.626 146.701 648.721 147.357 648.912 147.907C649.102 148.457 649.377 148.923 649.737 149.304C650.097 149.663 650.541 149.938 651.07 150.129C651.62 150.298 652.244 150.383 652.942 150.383C654.55 150.383 655.809 150.044 656.719 149.367C657.629 148.69 658.264 147.77 658.624 146.606C659.004 145.442 659.195 144.13 659.195 142.67ZM674.905 109.25H685.601V149.558L684.49 158H674.905V109.25ZM706.675 140.449V141.115C706.675 143.718 706.411 146.088 705.882 148.225C705.353 150.362 704.538 152.213 703.438 153.779C702.338 155.323 700.952 156.519 699.28 157.365C697.609 158.212 695.63 158.635 693.345 158.635C691.272 158.635 689.494 158.19 688.013 157.302C686.532 156.392 685.294 155.144 684.3 153.557C683.305 151.949 682.501 150.097 681.888 148.002C681.274 145.887 680.787 143.623 680.428 141.21V140.417C680.787 138.026 681.274 135.783 681.888 133.688C682.501 131.573 683.305 129.721 684.3 128.134C685.294 126.526 686.521 125.278 687.981 124.389C689.463 123.479 691.229 123.024 693.282 123.024C695.588 123.024 697.577 123.458 699.249 124.326C700.941 125.193 702.338 126.41 703.438 127.976C704.538 129.541 705.353 131.382 705.882 133.498C706.411 135.614 706.675 137.931 706.675 140.449ZM695.979 141.115V140.449C695.979 139.2 695.905 138.026 695.757 136.926C695.609 135.826 695.345 134.852 694.964 134.006C694.583 133.16 694.043 132.493 693.345 132.006C692.647 131.52 691.737 131.276 690.616 131.276C689.473 131.276 688.51 131.467 687.728 131.848C686.966 132.229 686.352 132.779 685.887 133.498C685.442 134.196 685.125 135.064 684.935 136.101C684.744 137.116 684.66 138.269 684.681 139.56V142.067C684.638 143.824 684.797 145.326 685.157 146.574C685.516 147.823 686.141 148.775 687.029 149.431C687.918 150.087 689.135 150.415 690.679 150.415C691.822 150.415 692.742 150.192 693.44 149.748C694.16 149.304 694.699 148.669 695.059 147.844C695.419 147.019 695.662 146.035 695.789 144.892C695.916 143.75 695.979 142.491 695.979 141.115ZM728.067 158.635C725.274 158.635 722.777 158.201 720.577 157.333C718.376 156.445 716.514 155.228 714.991 153.684C713.488 152.139 712.335 150.362 711.531 148.352C710.748 146.341 710.357 144.215 710.357 141.972V140.766C710.357 138.248 710.706 135.921 711.404 133.784C712.103 131.625 713.139 129.742 714.515 128.134C715.89 126.526 717.614 125.278 719.688 124.389C721.762 123.479 724.174 123.024 726.924 123.024C729.358 123.024 731.537 123.416 733.462 124.199C735.388 124.982 737.017 126.103 738.35 127.563C739.704 129.023 740.73 130.79 741.429 132.863C742.148 134.937 742.508 137.264 742.508 139.846V144.194H714.451V137.497H732.066V136.672C732.087 135.529 731.886 134.556 731.463 133.752C731.061 132.948 730.468 132.334 729.686 131.911C728.903 131.488 727.951 131.276 726.829 131.276C725.665 131.276 724.703 131.53 723.941 132.038C723.2 132.546 722.618 133.244 722.195 134.133C721.793 135 721.508 136.005 721.338 137.148C721.169 138.291 721.084 139.497 721.084 140.766V141.972C721.084 143.242 721.254 144.395 721.592 145.432C721.952 146.468 722.46 147.357 723.116 148.098C723.793 148.817 724.597 149.378 725.528 149.78C726.48 150.182 727.559 150.383 728.765 150.383C730.225 150.383 731.664 150.108 733.082 149.558C734.499 149.007 735.716 148.098 736.731 146.828L741.587 152.604C740.889 153.599 739.895 154.562 738.604 155.493C737.334 156.424 735.811 157.185 734.034 157.778C732.256 158.349 730.267 158.635 728.067 158.635Z"/><path fill="#fff" d="M522.38 192.742V320H491.702V192.742H522.38ZM598.333 192.742L549.038 257.245L520.195 288.797L514.601 260.654L533.043 232.685L560.487 192.742H598.333ZM562.061 320L529.197 262.664L553.058 245.096L598.333 320H562.061ZM648.327 321.748C640.635 321.748 633.76 320.554 627.7 318.165C621.64 315.717 616.512 312.367 612.317 308.113C608.18 303.86 605.004 298.965 602.79 293.43C600.634 287.894 599.556 282.038 599.556 275.862V272.541C599.556 265.607 600.518 259.197 602.44 253.312C604.363 247.369 607.218 242.183 611.006 237.754C614.793 233.326 619.542 229.888 625.252 227.441C630.963 224.935 637.605 223.683 645.18 223.683C651.881 223.683 657.883 224.761 663.185 226.917C668.487 229.072 672.974 232.161 676.645 236.181C680.374 240.202 683.2 245.067 685.123 250.777C687.104 256.488 688.095 262.897 688.095 270.006V281.98H610.831V263.538H659.339V261.266C659.398 258.119 658.844 255.439 657.679 253.225C656.572 251.01 654.94 249.321 652.784 248.155C650.628 246.99 648.006 246.407 644.918 246.407C641.713 246.407 639.062 247.106 636.964 248.505C634.925 249.903 633.323 251.826 632.157 254.273C631.05 256.662 630.264 259.43 629.797 262.577C629.331 265.723 629.098 269.044 629.098 272.541V275.862C629.098 279.358 629.564 282.534 630.497 285.389C631.487 288.244 632.886 290.691 634.692 292.73C636.556 294.712 638.771 296.256 641.334 297.363C643.957 298.47 646.928 299.023 650.25 299.023C654.27 299.023 658.232 298.266 662.136 296.751C666.04 295.236 669.391 292.73 672.188 289.234L685.56 305.142C683.637 307.88 680.899 310.531 677.344 313.095C673.848 315.659 669.653 317.757 664.758 319.388C659.864 320.961 654.387 321.748 648.327 321.748ZM608.996 213.457L633.381 194.403H647.715L672.275 213.457H653.134L640.548 203.318L628.049 213.457H608.996ZM665.895 203.143L681.19 179.107H702.254L681.277 203.143H665.895ZM773.487 185.75V320H744.032V185.75H773.487ZM769.991 269.481L763.086 269.656C763.086 263.014 763.902 256.896 765.533 251.302C767.165 245.708 769.495 240.843 772.525 236.706C775.555 232.569 779.197 229.364 783.451 227.091C787.704 224.819 792.424 223.683 797.61 223.683C802.271 223.683 806.525 224.353 810.371 225.693C814.275 227.033 817.625 229.189 820.422 232.161C823.277 235.132 825.462 239.007 826.977 243.785C828.55 248.563 829.337 254.39 829.337 261.266V320H799.708V261.091C799.708 257.245 799.154 254.273 798.047 252.176C796.998 250.02 795.483 248.534 793.502 247.718C791.521 246.844 789.103 246.407 786.248 246.407C782.81 246.407 780.013 246.99 777.857 248.155C775.701 249.321 774.04 250.952 772.875 253.05C771.768 255.089 771.01 257.507 770.603 260.304C770.195 263.101 769.991 266.16 769.991 269.481ZM842.01 273.677V271.841C842.01 264.907 843.001 258.527 844.982 252.7C846.963 246.815 849.876 241.717 853.722 237.405C857.568 233.093 862.317 229.743 867.969 227.354C873.621 224.906 880.147 223.683 887.547 223.683C895.005 223.683 901.56 224.906 907.212 227.354C912.923 229.743 917.701 233.093 921.546 237.405C925.392 241.717 928.306 246.815 930.287 252.7C932.268 258.527 933.258 264.907 933.258 271.841V273.677C933.258 280.552 932.268 286.933 930.287 292.818C928.306 298.645 925.392 303.743 921.546 308.113C917.701 312.425 912.952 315.776 907.3 318.165C901.648 320.554 895.122 321.748 887.722 321.748C880.322 321.748 873.766 320.554 868.056 318.165C862.346 315.776 857.568 312.425 853.722 308.113C849.876 303.743 846.963 298.645 844.982 292.818C843.001 286.933 842.01 280.552 842.01 273.677ZM871.465 271.841V273.677C871.465 277.231 871.727 280.552 872.251 283.641C872.776 286.729 873.65 289.438 874.874 291.769C876.097 294.042 877.758 295.819 879.855 297.101C881.953 298.382 884.575 299.023 887.722 299.023C890.81 299.023 893.374 298.382 895.413 297.101C897.511 295.819 899.171 294.042 900.395 291.769C901.619 289.438 902.493 286.729 903.017 283.641C903.542 280.552 903.804 277.231 903.804 273.677V271.841C903.804 268.403 903.542 265.17 903.017 262.14C902.493 259.051 901.619 256.342 900.395 254.011C899.171 251.622 897.511 249.758 895.413 248.417C893.315 247.077 890.693 246.407 887.547 246.407C884.459 246.407 881.866 247.077 879.768 248.417C877.729 249.758 876.097 251.622 874.874 254.011C873.65 256.342 872.776 259.051 872.251 262.14C871.727 265.17 871.465 268.403 871.465 271.841ZM995.489 296.227V257.245C995.489 254.565 995.11 252.263 994.353 250.34C993.595 248.417 992.401 246.932 990.769 245.883C989.138 244.776 986.952 244.222 984.214 244.222C982 244.222 980.106 244.601 978.533 245.358C976.959 246.116 975.765 247.252 974.949 248.767C974.133 250.282 973.726 252.205 973.726 254.536H944.271C944.271 250.166 945.232 246.116 947.155 242.387C949.136 238.599 951.933 235.307 955.546 232.51C959.217 229.713 963.587 227.557 968.656 226.042C973.784 224.469 979.494 223.683 985.787 223.683C993.304 223.683 1000 224.935 1005.89 227.441C1011.83 229.946 1016.52 233.705 1019.96 238.716C1023.4 243.669 1025.12 249.903 1025.12 257.42V296.139C1025.12 302.316 1025.47 307.006 1026.17 310.211C1026.87 313.357 1027.86 316.125 1029.14 318.514V320H999.597C998.198 317.087 997.149 313.532 996.45 309.337C995.809 305.083 995.489 300.713 995.489 296.227ZM999.072 262.227L999.247 277.959H986.224C983.486 277.959 981.155 278.338 979.232 279.096C977.367 279.853 975.852 280.902 974.687 282.242C973.58 283.524 972.764 284.981 972.24 286.612C971.774 288.244 971.541 289.963 971.541 291.769C971.541 293.517 971.948 295.09 972.764 296.489C973.638 297.829 974.804 298.878 976.26 299.635C977.717 300.393 979.348 300.771 981.155 300.771C984.418 300.771 987.186 300.16 989.458 298.936C991.789 297.654 993.566 296.11 994.79 294.304C996.013 292.497 996.625 290.808 996.625 289.234L1003.09 301.296C1001.93 303.627 1000.59 305.986 999.072 308.375C997.616 310.764 995.78 312.979 993.566 315.018C991.41 316.999 988.759 318.631 985.612 319.913C982.466 321.136 978.649 321.748 974.163 321.748C968.336 321.748 962.975 320.554 958.081 318.165C953.244 315.776 949.369 312.454 946.456 308.201C943.543 303.889 942.086 298.936 942.086 293.342C942.086 288.448 942.96 284.078 944.708 280.232C946.514 276.386 949.224 273.123 952.836 270.443C956.449 267.763 961.052 265.723 966.646 264.325C972.24 262.926 978.824 262.227 986.399 262.227H999.072ZM962.363 338.18C962.363 334.451 963.878 331.333 966.908 328.828C969.938 326.38 973.871 325.157 978.708 325.157C983.544 325.157 987.477 326.38 990.507 328.828C993.537 331.333 995.052 334.451 995.052 338.18C995.052 341.909 993.537 344.997 990.507 347.444C987.477 349.95 983.544 351.203 978.708 351.203C973.871 351.203 969.938 349.95 966.908 347.444C963.878 344.997 962.363 341.909 962.363 338.18ZM1081.41 299.023C1084.14 299.023 1086.47 298.528 1088.4 297.538C1090.38 296.489 1091.86 295.032 1092.85 293.167C1093.9 291.245 1094.4 288.943 1094.34 286.263H1122.05C1122.11 293.371 1120.36 299.606 1116.8 304.967C1113.31 310.269 1108.53 314.406 1102.47 317.378C1096.47 320.291 1089.68 321.748 1082.1 321.748C1074.7 321.748 1068.24 320.554 1062.7 318.165C1057.17 315.717 1052.53 312.338 1048.8 308.026C1045.13 303.656 1042.37 298.557 1040.5 292.73C1038.69 286.904 1037.79 280.582 1037.79 273.764V271.754C1037.79 264.937 1038.69 258.614 1040.5 252.788C1042.37 246.903 1045.13 241.804 1048.8 237.492C1052.53 233.122 1057.14 229.743 1062.61 227.354C1068.15 224.906 1074.59 223.683 1081.93 223.683C1089.8 223.683 1096.73 225.168 1102.73 228.14C1108.79 231.112 1113.54 235.424 1116.98 241.076C1120.42 246.728 1122.11 253.574 1122.05 261.615H1094.34C1094.4 258.76 1093.96 256.196 1093.03 253.924C1092.1 251.651 1090.64 249.845 1088.66 248.505C1086.74 247.106 1084.26 246.407 1081.23 246.407C1078.2 246.407 1075.75 247.077 1073.89 248.417C1072.02 249.758 1070.6 251.622 1069.61 254.011C1068.67 256.342 1068.03 259.022 1067.68 262.052C1067.39 265.082 1067.25 268.316 1067.25 271.754V273.764C1067.25 277.26 1067.39 280.552 1067.68 283.641C1068.03 286.671 1068.7 289.351 1069.69 291.682C1070.68 293.954 1072.11 295.76 1073.98 297.101C1075.84 298.382 1078.32 299.023 1081.41 299.023ZM1163.48 185.75V320H1134.02V185.75H1163.48ZM1159.98 269.481L1153.08 269.656C1153.08 263.014 1153.89 256.896 1155.52 251.302C1157.15 245.708 1159.48 240.843 1162.51 236.706C1165.54 232.569 1169.19 229.364 1173.44 227.091C1177.69 224.819 1182.41 223.683 1187.6 223.683C1192.26 223.683 1196.51 224.353 1200.36 225.693C1204.26 227.033 1207.61 229.189 1210.41 232.161C1213.27 235.132 1215.45 239.007 1216.97 243.785C1218.54 248.563 1219.33 254.39 1219.33 261.266V320H1189.7V261.091C1189.7 257.245 1189.14 254.273 1188.04 252.176C1186.99 250.02 1185.47 248.534 1183.49 247.718C1181.51 246.844 1179.09 246.407 1176.24 246.407C1172.8 246.407 1170 246.99 1167.85 248.155C1165.69 249.321 1164.03 250.952 1162.86 253.05C1161.76 255.089 1161 257.507 1160.59 260.304C1160.18 263.101 1159.98 266.16 1159.98 269.481Z"/><path fill="url(#paint1_linear_331_102)" d="M522.38 192.742V320H491.702V192.742H522.38ZM598.333 192.742L549.038 257.245L520.195 288.797L514.601 260.654L533.043 232.685L560.487 192.742H598.333ZM562.061 320L529.197 262.664L553.058 245.096L598.333 320H562.061ZM648.327 321.748C640.635 321.748 633.76 320.554 627.7 318.165C621.64 315.717 616.512 312.367 612.317 308.113C608.18 303.86 605.004 298.965 602.79 293.43C600.634 287.894 599.556 282.038 599.556 275.862V272.541C599.556 265.607 600.518 259.197 602.44 253.312C604.363 247.369 607.218 242.183 611.006 237.754C614.793 233.326 619.542 229.888 625.252 227.441C630.963 224.935 637.605 223.683 645.18 223.683C651.881 223.683 657.883 224.761 663.185 226.917C668.487 229.072 672.974 232.161 676.645 236.181C680.374 240.202 683.2 245.067 685.123 250.777C687.104 256.488 688.095 262.897 688.095 270.006V281.98H610.831V263.538H659.339V261.266C659.398 258.119 658.844 255.439 657.679 253.225C656.572 251.01 654.94 249.321 652.784 248.155C650.628 246.99 648.006 246.407 644.918 246.407C641.713 246.407 639.062 247.106 636.964 248.505C634.925 249.903 633.323 251.826 632.157 254.273C631.05 256.662 630.264 259.43 629.797 262.577C629.331 265.723 629.098 269.044 629.098 272.541V275.862C629.098 279.358 629.564 282.534 630.497 285.389C631.487 288.244 632.886 290.691 634.692 292.73C636.556 294.712 638.771 296.256 641.334 297.363C643.957 298.47 646.928 299.023 650.25 299.023C654.27 299.023 658.232 298.266 662.136 296.751C666.04 295.236 669.391 292.73 672.188 289.234L685.56 305.142C683.637 307.88 680.899 310.531 677.344 313.095C673.848 315.659 669.653 317.757 664.758 319.388C659.864 320.961 654.387 321.748 648.327 321.748ZM608.996 213.457L633.381 194.403H647.715L672.275 213.457H653.134L640.548 203.318L628.049 213.457H608.996ZM665.895 203.143L681.19 179.107H702.254L681.277 203.143H665.895ZM773.487 185.75V320H744.032V185.75H773.487ZM769.991 269.481L763.086 269.656C763.086 263.014 763.902 256.896 765.533 251.302C767.165 245.708 769.495 240.843 772.525 236.706C775.555 232.569 779.197 229.364 783.451 227.091C787.704 224.819 792.424 223.683 797.61 223.683C802.271 223.683 806.525 224.353 810.371 225.693C814.275 227.033 817.625 229.189 820.422 232.161C823.277 235.132 825.462 239.007 826.977 243.785C828.55 248.563 829.337 254.39 829.337 261.266V320H799.708V261.091C799.708 257.245 799.154 254.273 798.047 252.176C796.998 250.02 795.483 248.534 793.502 247.718C791.521 246.844 789.103 246.407 786.248 246.407C782.81 246.407 780.013 246.99 777.857 248.155C775.701 249.321 774.04 250.952 772.875 253.05C771.768 255.089 771.01 257.507 770.603 260.304C770.195 263.101 769.991 266.16 769.991 269.481ZM842.01 273.677V271.841C842.01 264.907 843.001 258.527 844.982 252.7C846.963 246.815 849.876 241.717 853.722 237.405C857.568 233.093 862.317 229.743 867.969 227.354C873.621 224.906 880.147 223.683 887.547 223.683C895.005 223.683 901.56 224.906 907.212 227.354C912.923 229.743 917.701 233.093 921.546 237.405C925.392 241.717 928.306 246.815 930.287 252.7C932.268 258.527 933.258 264.907 933.258 271.841V273.677C933.258 280.552 932.268 286.933 930.287 292.818C928.306 298.645 925.392 303.743 921.546 308.113C917.701 312.425 912.952 315.776 907.3 318.165C901.648 320.554 895.122 321.748 887.722 321.748C880.322 321.748 873.766 320.554 868.056 318.165C862.346 315.776 857.568 312.425 853.722 308.113C849.876 303.743 846.963 298.645 844.982 292.818C843.001 286.933 842.01 280.552 842.01 273.677ZM871.465 271.841V273.677C871.465 277.231 871.727 280.552 872.251 283.641C872.776 286.729 873.65 289.438 874.874 291.769C876.097 294.042 877.758 295.819 879.855 297.101C881.953 298.382 884.575 299.023 887.722 299.023C890.81 299.023 893.374 298.382 895.413 297.101C897.511 295.819 899.171 294.042 900.395 291.769C901.619 289.438 902.493 286.729 903.017 283.641C903.542 280.552 903.804 277.231 903.804 273.677V271.841C903.804 268.403 903.542 265.17 903.017 262.14C902.493 259.051 901.619 256.342 900.395 254.011C899.171 251.622 897.511 249.758 895.413 248.417C893.315 247.077 890.693 246.407 887.547 246.407C884.459 246.407 881.866 247.077 879.768 248.417C877.729 249.758 876.097 251.622 874.874 254.011C873.65 256.342 872.776 259.051 872.251 262.14C871.727 265.17 871.465 268.403 871.465 271.841ZM995.489 296.227V257.245C995.489 254.565 995.11 252.263 994.353 250.34C993.595 248.417 992.401 246.932 990.769 245.883C989.138 244.776 986.952 244.222 984.214 244.222C982 244.222 980.106 244.601 978.533 245.358C976.959 246.116 975.765 247.252 974.949 248.767C974.133 250.282 973.726 252.205 973.726 254.536H944.271C944.271 250.166 945.232 246.116 947.155 242.387C949.136 238.599 951.933 235.307 955.546 232.51C959.217 229.713 963.587 227.557 968.656 226.042C973.784 224.469 979.494 223.683 985.787 223.683C993.304 223.683 1000 224.935 1005.89 227.441C1011.83 229.946 1016.52 233.705 1019.96 238.716C1023.4 243.669 1025.12 249.903 1025.12 257.42V296.139C1025.12 302.316 1025.47 307.006 1026.17 310.211C1026.87 313.357 1027.86 316.125 1029.14 318.514V320H999.597C998.198 317.087 997.149 313.532 996.45 309.337C995.809 305.083 995.489 300.713 995.489 296.227ZM999.072 262.227L999.247 277.959H986.224C983.486 277.959 981.155 278.338 979.232 279.096C977.367 279.853 975.852 280.902 974.687 282.242C973.58 283.524 972.764 284.981 972.24 286.612C971.774 288.244 971.541 289.963 971.541 291.769C971.541 293.517 971.948 295.09 972.764 296.489C973.638 297.829 974.804 298.878 976.26 299.635C977.717 300.393 979.348 300.771 981.155 300.771C984.418 300.771 987.186 300.16 989.458 298.936C991.789 297.654 993.566 296.11 994.79 294.304C996.013 292.497 996.625 290.808 996.625 289.234L1003.09 301.296C1001.93 303.627 1000.59 305.986 999.072 308.375C997.616 310.764 995.78 312.979 993.566 315.018C991.41 316.999 988.759 318.631 985.612 319.913C982.466 321.136 978.649 321.748 974.163 321.748C968.336 321.748 962.975 320.554 958.081 318.165C953.244 315.776 949.369 312.454 946.456 308.201C943.543 303.889 942.086 298.936 942.086 293.342C942.086 288.448 942.96 284.078 944.708 280.232C946.514 276.386 949.224 273.123 952.836 270.443C956.449 267.763 961.052 265.723 966.646 264.325C972.24 262.926 978.824 262.227 986.399 262.227H999.072ZM962.363 338.18C962.363 334.451 963.878 331.333 966.908 328.828C969.938 326.38 973.871 325.157 978.708 325.157C983.544 325.157 987.477 326.38 990.507 328.828C993.537 331.333 995.052 334.451 995.052 338.18C995.052 341.909 993.537 344.997 990.507 347.444C987.477 349.95 983.544 351.203 978.708 351.203C973.871 351.203 969.938 349.95 966.908 347.444C963.878 344.997 962.363 341.909 962.363 338.18ZM1081.41 299.023C1084.14 299.023 1086.47 298.528 1088.4 297.538C1090.38 296.489 1091.86 295.032 1092.85 293.167C1093.9 291.245 1094.4 288.943 1094.34 286.263H1122.05C1122.11 293.371 1120.36 299.606 1116.8 304.967C1113.31 310.269 1108.53 314.406 1102.47 317.378C1096.47 320.291 1089.68 321.748 1082.1 321.748C1074.7 321.748 1068.24 320.554 1062.7 318.165C1057.17 315.717 1052.53 312.338 1048.8 308.026C1045.13 303.656 1042.37 298.557 1040.5 292.73C1038.69 286.904 1037.79 280.582 1037.79 273.764V271.754C1037.79 264.937 1038.69 258.614 1040.5 252.788C1042.37 246.903 1045.13 241.804 1048.8 237.492C1052.53 233.122 1057.14 229.743 1062.61 227.354C1068.15 224.906 1074.59 223.683 1081.93 223.683C1089.8 223.683 1096.73 225.168 1102.73 228.14C1108.79 231.112 1113.54 235.424 1116.98 241.076C1120.42 246.728 1122.11 253.574 1122.05 261.615H1094.34C1094.4 258.76 1093.96 256.196 1093.03 253.924C1092.1 251.651 1090.64 249.845 1088.66 248.505C1086.74 247.106 1084.26 246.407 1081.23 246.407C1078.2 246.407 1075.75 247.077 1073.89 248.417C1072.02 249.758 1070.6 251.622 1069.61 254.011C1068.67 256.342 1068.03 259.022 1067.68 262.052C1067.39 265.082 1067.25 268.316 1067.25 271.754V273.764C1067.25 277.26 1067.39 280.552 1067.68 283.641C1068.03 286.671 1068.7 289.351 1069.69 291.682C1070.68 293.954 1072.11 295.76 1073.98 297.101C1075.84 298.382 1078.32 299.023 1081.41 299.023ZM1163.48 185.75V320H1134.02V185.75H1163.48ZM1159.98 269.481L1153.08 269.656C1153.08 263.014 1153.89 256.896 1155.52 251.302C1157.15 245.708 1159.48 240.843 1162.51 236.706C1165.54 232.569 1169.19 229.364 1173.44 227.091C1177.69 224.819 1182.41 223.683 1187.6 223.683C1192.26 223.683 1196.51 224.353 1200.36 225.693C1204.26 227.033 1207.61 229.189 1210.41 232.161C1213.27 235.132 1215.45 239.007 1216.97 243.785C1218.54 248.563 1219.33 254.39 1219.33 261.266V320H1189.7V261.091C1189.7 257.245 1189.14 254.273 1188.04 252.176C1186.99 250.02 1185.47 248.534 1183.49 247.718C1181.51 246.844 1179.09 246.407 1176.24 246.407C1172.8 246.407 1170 246.99 1167.85 248.155C1165.69 249.321 1164.03 250.952 1162.86 253.05C1161.76 255.089 1161 257.507 1160.59 260.304C1160.18 263.101 1159.98 266.16 1159.98 269.481Z"/><defs><linearGradient id="paint0_linear_331_102" x1="0" x2="88.064" y1=".777" y2="9.505" gradientUnits="userSpaceOnUse"><stop stop-color="#00E1C3"/><stop offset="1" stop-color="#00D1D5"/></linearGradient><linearGradient id="paint1_linear_331_102" x1="482" x2="583.4" y1="154.371" y2="557.117" gradientUnits="userSpaceOnUse"><stop stop-color="#00E1C3"/><stop offset="1" stop-color="#00D1D5"/></linearGradient><clipPath id="clip0_331_102"><rect width="179" height="179" fill="#fff" transform="translate(189 141.5)"/></clipPath></defs></svg>