<svg xmlns="http://www.w3.org/2000/svg" width="1963" height="440" fill="none" viewBox="0 0 1963 440"><path fill="#132636" d="M3 37C3 16.5655 19.5655 0 40 0H1909.83C1935.61 0 1953.48 25.6884 1944.53 49.8546L1881.68 219.5L1809.3 414.855C1803.92 429.367 1790.08 439 1774.6 439H40C19.5654 439 3 422.435 3 402V37Z"/><path fill="#132636" d="M0 37C0 16.5655 16.5655 0 37 0H39V440H37C16.5655 440 0 423.435 0 403V37Z"/><path fill="url(#paint0_linear_203_26)" d="M0 37C0 16.5655 16.5655 0 37 0H39V440H37C16.5655 440 0 423.435 0 403V37Z"/><path fill="url(#paint1_linear_203_26)" d="M339.24 239.163C349.416 233.319 349.415 218.678 339.238 212.836L304.727 193.042L342.697 175.39L395.065 205.427C410.978 214.555 410.978 237.445 395.065 246.573L340.201 278.042L302.231 260.39L339.24 239.163Z"/><path fill="url(#paint2_linear_203_26)" d="M223.282 259.304V279.416C223.287 291.095 235.961 298.401 246.117 292.576L267.934 280.062L305.904 297.714L224.679 344.303C208.808 353.406 189 341.985 189 323.73L189 243.366L223.282 259.304Z"/><path fill="url(#paint3_linear_203_26)" d="M308.401 155.718L270.431 173.37L246.103 159.416C235.948 153.604 223.282 160.913 223.282 172.59V195.289L189 211.226L189 128.27C189 110.015 208.808 98.5937 224.679 107.697L308.401 155.718Z"/><path fill="#fff" d="M542.011 147.114L551.627 111.789H564.101L548.517 158H540.456L542.011 147.114ZM533.283 111.789L542.899 147.114L544.518 158H536.361L520.873 111.789H533.283ZM586.159 149.653V123.659H596.886V158H586.857L586.159 149.653ZM587.174 142.67L589.967 142.607C589.967 144.913 589.692 147.05 589.142 149.018C588.592 150.965 587.777 152.657 586.698 154.096C585.64 155.535 584.328 156.656 582.763 157.46C581.218 158.243 579.43 158.635 577.399 158.635C575.706 158.635 574.151 158.402 572.733 157.937C571.337 157.45 570.131 156.699 569.115 155.683C568.1 154.646 567.306 153.324 566.735 151.716C566.185 150.087 565.91 148.14 565.91 145.876V123.659H576.605V145.939C576.605 146.701 576.701 147.357 576.891 147.907C577.082 148.457 577.357 148.923 577.716 149.304C578.076 149.663 578.52 149.938 579.049 150.129C579.599 150.298 580.224 150.383 580.922 150.383C582.53 150.383 583.789 150.044 584.699 149.367C585.609 148.69 586.243 147.77 586.603 146.606C586.984 145.442 587.174 144.13 587.174 142.67ZM619.42 158.635C616.627 158.635 614.131 158.201 611.93 157.333C609.73 156.445 607.868 155.228 606.344 153.684C604.842 152.139 603.689 150.362 602.885 148.352C602.102 146.341 601.71 144.215 601.71 141.972V140.766C601.71 138.248 602.06 135.921 602.758 133.784C603.456 131.625 604.493 129.742 605.868 128.134C607.243 126.526 608.968 125.278 611.042 124.389C613.115 123.479 615.527 123.024 618.278 123.024C620.711 123.024 622.89 123.416 624.816 124.199C626.741 124.982 628.371 126.103 629.704 127.563C631.058 129.023 632.084 130.79 632.782 132.863C633.502 134.937 633.861 137.264 633.861 139.846V144.194H605.805V137.497H623.419V136.672C623.441 135.529 623.24 134.556 622.816 133.752C622.414 132.948 621.822 132.334 621.039 131.911C620.256 131.488 619.304 131.276 618.183 131.276C617.019 131.276 616.056 131.53 615.294 132.038C614.554 132.546 613.972 133.244 613.549 134.133C613.147 135 612.861 136.005 612.692 137.148C612.523 138.291 612.438 139.497 612.438 140.766V141.972C612.438 143.242 612.607 144.395 612.946 145.432C613.306 146.468 613.813 147.357 614.469 148.098C615.146 148.817 615.95 149.378 616.881 149.78C617.833 150.182 618.913 150.383 620.119 150.383C621.579 150.383 623.017 150.108 624.435 149.558C625.853 149.007 627.069 148.098 628.085 146.828L632.941 152.604C632.243 153.599 631.248 154.562 629.958 155.493C628.688 156.424 627.165 157.185 625.387 157.778C623.61 158.349 621.621 158.635 619.42 158.635ZM661.093 111.789V158H649.953V111.789H661.093ZM674.994 111.789V120.39H636.369V111.789H674.994ZM697.179 149.653V123.659H707.907V158H697.877L697.179 149.653ZM698.195 142.67L700.988 142.607C700.988 144.913 700.713 147.05 700.163 149.018C699.612 150.965 698.798 152.657 697.719 154.096C696.661 155.535 695.349 156.656 693.783 157.46C692.239 158.243 690.451 158.635 688.419 158.635C686.727 158.635 685.172 158.402 683.754 157.937C682.357 157.45 681.151 156.699 680.136 155.683C679.12 154.646 678.327 153.324 677.755 151.716C677.205 150.087 676.93 148.14 676.93 145.876V123.659H687.626V145.939C687.626 146.701 687.721 147.357 687.912 147.907C688.102 148.457 688.377 148.923 688.737 149.304C689.097 149.663 689.541 149.938 690.07 150.129C690.62 150.298 691.244 150.383 691.942 150.383C693.55 150.383 694.809 150.044 695.719 149.367C696.629 148.69 697.264 147.77 697.624 146.606C698.004 145.442 698.195 144.13 698.195 142.67ZM713.905 109.25H724.601V149.558L723.49 158H713.905V109.25ZM745.675 140.449V141.115C745.675 143.718 745.411 146.088 744.882 148.225C744.353 150.362 743.538 152.213 742.438 153.779C741.338 155.323 739.952 156.519 738.28 157.365C736.609 158.212 734.63 158.635 732.345 158.635C730.272 158.635 728.494 158.19 727.013 157.302C725.532 156.392 724.294 155.144 723.3 153.557C722.305 151.949 721.501 150.097 720.888 148.002C720.274 145.887 719.787 143.623 719.428 141.21V140.417C719.787 138.026 720.274 135.783 720.888 133.688C721.501 131.573 722.305 129.721 723.3 128.134C724.294 126.526 725.521 125.278 726.981 124.389C728.463 123.479 730.229 123.024 732.282 123.024C734.588 123.024 736.577 123.458 738.249 124.326C739.941 125.193 741.338 126.41 742.438 127.976C743.538 129.541 744.353 131.382 744.882 133.498C745.411 135.614 745.675 137.931 745.675 140.449ZM734.979 141.115V140.449C734.979 139.2 734.905 138.026 734.757 136.926C734.609 135.826 734.345 134.852 733.964 134.006C733.583 133.16 733.043 132.493 732.345 132.006C731.647 131.52 730.737 131.276 729.616 131.276C728.473 131.276 727.51 131.467 726.728 131.848C725.966 132.229 725.352 132.779 724.887 133.498C724.442 134.196 724.125 135.064 723.935 136.101C723.744 137.116 723.66 138.269 723.681 139.56V142.067C723.638 143.824 723.797 145.326 724.157 146.574C724.516 147.823 725.141 148.775 726.029 149.431C726.918 150.087 728.135 150.415 729.679 150.415C730.822 150.415 731.742 150.192 732.44 149.748C733.16 149.304 733.699 148.669 734.059 147.844C734.419 147.019 734.662 146.035 734.789 144.892C734.916 143.75 734.979 142.491 734.979 141.115ZM767.067 158.635C764.274 158.635 761.777 158.201 759.577 157.333C757.376 156.445 755.514 155.228 753.991 153.684C752.488 152.139 751.335 150.362 750.531 148.352C749.748 146.341 749.357 144.215 749.357 141.972V140.766C749.357 138.248 749.706 135.921 750.404 133.784C751.103 131.625 752.139 129.742 753.515 128.134C754.89 126.526 756.614 125.278 758.688 124.389C760.762 123.479 763.174 123.024 765.924 123.024C768.358 123.024 770.537 123.416 772.462 124.199C774.388 124.982 776.017 126.103 777.35 127.563C778.704 129.023 779.73 130.79 780.429 132.863C781.148 134.937 781.508 137.264 781.508 139.846V144.194H753.451V137.497H771.066V136.672C771.087 135.529 770.886 134.556 770.463 133.752C770.061 132.948 769.468 132.334 768.686 131.911C767.903 131.488 766.951 131.276 765.829 131.276C764.665 131.276 763.703 131.53 762.941 132.038C762.2 132.546 761.618 133.244 761.195 134.133C760.793 135 760.508 136.005 760.338 137.148C760.169 138.291 760.084 139.497 760.084 140.766V141.972C760.084 143.242 760.254 144.395 760.592 145.432C760.952 146.468 761.46 147.357 762.116 148.098C762.793 148.817 763.597 149.378 764.528 149.78C765.48 150.182 766.559 150.383 767.765 150.383C769.225 150.383 770.664 150.108 772.082 149.558C773.499 149.007 774.716 148.098 775.731 146.828L780.587 152.604C779.889 153.599 778.895 154.562 777.604 155.493C776.334 156.424 774.811 157.185 773.034 157.778C771.256 158.349 769.267 158.635 767.067 158.635Z"/><path fill="#fff" d="M603.071 266.911H633.662C633.254 275.767 630.865 283.575 626.495 290.334C622.125 297.094 616.065 302.367 608.315 306.154C600.624 309.883 591.534 311.748 581.045 311.748C572.538 311.748 564.934 310.32 558.233 307.465C551.591 304.61 545.939 300.502 541.277 295.142C536.674 289.781 533.149 283.284 530.702 275.651C528.313 268.018 527.118 259.423 527.118 249.867V242.962C527.118 233.406 528.371 224.812 530.876 217.179C533.44 209.487 537.053 202.961 541.714 197.601C546.434 192.182 552.086 188.045 558.67 185.189C565.255 182.334 572.567 180.907 580.608 180.907C591.679 180.907 601.031 182.888 608.665 186.85C616.298 190.812 622.212 196.26 626.407 203.194C630.603 210.07 633.079 217.907 633.836 226.706H603.246C603.129 221.928 602.313 217.936 600.798 214.731C599.283 211.468 596.894 209.021 593.631 207.39C590.368 205.758 586.027 204.942 580.608 204.942C576.821 204.942 573.529 205.642 570.732 207.04C567.935 208.438 565.604 210.653 563.74 213.683C561.875 216.713 560.477 220.646 559.544 225.482C558.67 230.26 558.233 236.028 558.233 242.788V249.867C558.233 256.626 558.641 262.395 559.457 267.173C560.273 271.951 561.584 275.855 563.39 278.885C565.196 281.915 567.527 284.158 570.382 285.615C573.296 287.013 576.85 287.712 581.045 287.712C585.707 287.712 589.64 286.984 592.845 285.527C596.049 284.012 598.526 281.74 600.274 278.71C602.022 275.622 602.954 271.689 603.071 266.911ZM695.892 286.227V247.245C695.892 244.565 695.513 242.263 694.756 240.34C693.998 238.417 692.804 236.932 691.172 235.883C689.541 234.776 687.356 234.222 684.617 234.222C682.403 234.222 680.509 234.601 678.936 235.358C677.363 236.116 676.168 237.252 675.353 238.767C674.537 240.282 674.129 242.205 674.129 244.536H644.674C644.674 240.166 645.636 236.116 647.559 232.387C649.54 228.599 652.337 225.307 655.949 222.51C659.62 219.713 663.99 217.557 669.06 216.042C674.187 214.469 679.897 213.683 686.19 213.683C693.707 213.683 700.408 214.935 706.293 217.441C712.236 219.946 716.927 223.705 720.365 228.716C723.803 233.669 725.521 239.903 725.521 247.42V286.139C725.521 292.316 725.871 297.006 726.57 300.211C727.27 303.357 728.26 306.125 729.542 308.514V310H700C698.602 307.087 697.553 303.532 696.854 299.337C696.213 295.083 695.892 290.713 695.892 286.227ZM699.476 252.227L699.65 267.959H686.627C683.889 267.959 681.558 268.338 679.635 269.096C677.771 269.853 676.256 270.902 675.09 272.242C673.983 273.524 673.167 274.981 672.643 276.612C672.177 278.244 671.944 279.963 671.944 281.769C671.944 283.517 672.352 285.09 673.167 286.489C674.042 287.829 675.207 288.878 676.664 289.635C678.12 290.393 679.752 290.771 681.558 290.771C684.821 290.771 687.589 290.16 689.861 288.936C692.192 287.654 693.969 286.11 695.193 284.304C696.417 282.497 697.028 280.808 697.028 279.234L703.496 291.296C702.331 293.627 700.991 295.986 699.476 298.375C698.019 300.764 696.183 302.979 693.969 305.018C691.813 306.999 689.162 308.631 686.016 309.913C682.869 311.136 679.053 311.748 674.566 311.748C668.739 311.748 663.378 310.554 658.484 308.165C653.648 305.776 649.773 302.454 646.859 298.201C643.946 293.889 642.489 288.936 642.489 283.342C642.489 278.448 643.363 274.078 645.111 270.232C646.918 266.386 649.627 263.123 653.24 260.443C656.852 257.763 661.456 255.723 667.049 254.325C672.643 252.926 679.227 252.227 686.802 252.227H699.476ZM771.583 238.854V310H742.128V215.431H769.66L771.583 238.854ZM799.551 214.731L799.027 242.088C797.861 241.972 796.288 241.826 794.307 241.651C792.326 241.477 790.665 241.389 789.325 241.389C785.887 241.389 782.916 241.797 780.41 242.613C777.963 243.37 775.924 244.536 774.292 246.109C772.719 247.624 771.553 249.547 770.796 251.877C770.097 254.208 769.776 256.918 769.834 260.006L764.503 256.51C764.503 250.159 765.115 244.39 766.338 239.204C767.62 233.96 769.427 229.444 771.757 225.657C774.088 221.811 776.914 218.868 780.235 216.829C783.557 214.731 787.286 213.683 791.423 213.683C792.88 213.683 794.307 213.77 795.706 213.945C797.162 214.12 798.444 214.382 799.551 214.731ZM856.188 286.227V247.245C856.188 244.565 855.809 242.263 855.052 240.34C854.294 238.417 853.1 236.932 851.468 235.883C849.837 234.776 847.652 234.222 844.913 234.222C842.699 234.222 840.805 234.601 839.232 235.358C837.659 236.116 836.464 237.252 835.648 238.767C834.833 240.282 834.425 242.205 834.425 244.536H804.97C804.97 240.166 805.932 236.116 807.854 232.387C809.836 228.599 812.632 225.307 816.245 222.51C819.916 219.713 824.286 217.557 829.355 216.042C834.483 214.469 840.193 213.683 846.486 213.683C854.003 213.683 860.704 214.935 866.589 217.441C872.532 219.946 877.223 223.705 880.661 228.716C884.098 233.669 885.817 239.903 885.817 247.42V286.139C885.817 292.316 886.167 297.006 886.866 300.211C887.565 303.357 888.556 306.125 889.838 308.514V310H860.296C858.897 307.087 857.849 303.532 857.149 299.337C856.508 295.083 856.188 290.713 856.188 286.227ZM859.771 252.227L859.946 267.959H846.923C844.185 267.959 841.854 268.338 839.931 269.096C838.067 269.853 836.552 270.902 835.386 272.242C834.279 273.524 833.463 274.981 832.939 276.612C832.473 278.244 832.24 279.963 832.24 281.769C832.24 283.517 832.648 285.09 833.463 286.489C834.337 287.829 835.503 288.878 836.959 289.635C838.416 290.393 840.048 290.771 841.854 290.771C845.117 290.771 847.885 290.16 850.157 288.936C852.488 287.654 854.265 286.11 855.489 284.304C856.712 282.497 857.324 280.808 857.324 279.234L863.792 291.296C862.627 293.627 861.286 295.986 859.771 298.375C858.315 300.764 856.479 302.979 854.265 305.018C852.109 306.999 849.458 308.631 846.312 309.913C843.165 311.136 839.348 311.748 834.862 311.748C829.035 311.748 823.674 310.554 818.78 308.165C813.944 305.776 810.069 302.454 807.155 298.201C804.242 293.889 802.785 288.936 802.785 283.342C802.785 278.448 803.659 274.078 805.407 270.232C807.214 266.386 809.923 263.123 813.536 260.443C817.148 257.763 821.751 255.723 827.345 254.325C832.939 252.926 839.523 252.227 847.098 252.227H859.771ZM942.104 289.023C944.843 289.023 947.174 288.528 949.097 287.538C951.078 286.489 952.564 285.032 953.554 283.167C954.603 281.245 955.098 278.943 955.04 276.263H982.747C982.805 283.371 981.057 289.606 977.502 294.967C974.006 300.269 969.228 304.406 963.168 307.378C957.167 310.291 950.379 311.748 942.804 311.748C935.404 311.748 928.936 310.554 923.4 308.165C917.865 305.717 913.233 302.338 909.503 298.026C905.833 293.656 903.065 288.557 901.2 282.73C899.394 276.904 898.491 270.582 898.491 263.764V261.754C898.491 254.937 899.394 248.614 901.2 242.788C903.065 236.903 905.833 231.804 909.503 227.492C913.233 223.122 917.836 219.743 923.313 217.354C928.848 214.906 935.287 213.683 942.629 213.683C950.495 213.683 957.429 215.168 963.431 218.14C969.491 221.112 974.239 225.424 977.677 231.076C981.115 236.728 982.805 243.574 982.747 251.615H955.04C955.098 248.76 954.661 246.196 953.729 243.924C952.797 241.651 951.34 239.845 949.359 238.505C947.436 237.106 944.96 236.407 941.93 236.407C938.9 236.407 936.452 237.077 934.588 238.417C932.723 239.758 931.296 241.622 930.305 244.011C929.373 246.342 928.732 249.022 928.382 252.052C928.091 255.082 927.945 258.316 927.945 261.754V263.764C927.945 267.26 928.091 270.552 928.382 273.641C928.732 276.671 929.402 279.351 930.393 281.682C931.383 283.954 932.811 285.76 934.675 287.101C936.54 288.382 939.016 289.023 942.104 289.023ZM1045.15 215.431V235.883H988.166V215.431H1045.15ZM1000.14 191.919H1029.59V279.147C1029.59 281.653 1029.89 283.604 1030.47 285.003C1031.05 286.343 1032.04 287.305 1033.44 287.887C1034.9 288.412 1036.82 288.674 1039.21 288.674C1040.9 288.674 1042.3 288.645 1043.4 288.586C1044.51 288.47 1045.56 288.324 1046.55 288.149V309.213C1044.04 310.029 1041.42 310.641 1038.68 311.049C1035.95 311.515 1033.03 311.748 1029.94 311.748C1023.65 311.748 1018.26 310.757 1013.77 308.776C1009.35 306.795 1005.97 303.678 1003.64 299.424C1001.31 295.171 1000.14 289.635 1000.14 282.818V191.919ZM1102.66 311.748C1094.97 311.748 1088.1 310.554 1082.04 308.165C1075.98 305.717 1070.85 302.367 1066.65 298.113C1062.52 293.86 1059.34 288.965 1057.13 283.43C1054.97 277.894 1053.89 272.038 1053.89 265.862V262.541C1053.89 255.607 1054.85 249.197 1056.78 243.312C1058.7 237.369 1061.55 232.183 1065.34 227.754C1069.13 223.326 1073.88 219.888 1079.59 217.441C1085.3 214.935 1091.94 213.683 1099.52 213.683C1106.22 213.683 1112.22 214.761 1117.52 216.917C1122.82 219.072 1127.31 222.161 1130.98 226.181C1134.71 230.202 1137.54 235.067 1139.46 240.777C1141.44 246.488 1142.43 252.897 1142.43 260.006V271.98H1065.17V253.538H1113.68V251.266C1113.73 248.119 1113.18 245.439 1112.01 243.225C1110.91 241.01 1109.28 239.321 1107.12 238.155C1104.96 236.99 1102.34 236.407 1099.25 236.407C1096.05 236.407 1093.4 237.106 1091.3 238.505C1089.26 239.903 1087.66 241.826 1086.49 244.273C1085.39 246.662 1084.6 249.43 1084.13 252.577C1083.67 255.723 1083.43 259.044 1083.43 262.541V265.862C1083.43 269.358 1083.9 272.534 1084.83 275.389C1085.82 278.244 1087.22 280.691 1089.03 282.73C1090.89 284.712 1093.11 286.256 1095.67 287.363C1098.29 288.47 1101.26 289.023 1104.59 289.023C1108.61 289.023 1112.57 288.266 1116.47 286.751C1120.38 285.236 1123.73 282.73 1126.52 279.234L1139.9 295.142C1137.97 297.88 1135.23 300.531 1131.68 303.095C1128.18 305.659 1123.99 307.757 1119.09 309.388C1114.2 310.961 1108.72 311.748 1102.66 311.748ZM1184.12 238.854V310H1154.67V215.431H1182.2L1184.12 238.854ZM1212.09 214.731L1211.57 242.088C1210.4 241.972 1208.83 241.826 1206.85 241.651C1204.87 241.477 1203.2 241.389 1201.86 241.389C1198.43 241.389 1195.45 241.797 1192.95 242.613C1190.5 243.37 1188.46 244.536 1186.83 246.109C1185.26 247.624 1184.09 249.547 1183.33 251.877C1182.64 254.208 1182.32 256.918 1182.37 260.006L1177.04 256.51C1177.04 250.159 1177.65 244.39 1178.88 239.204C1180.16 233.96 1181.97 229.444 1184.3 225.657C1186.63 221.811 1189.45 218.868 1192.77 216.829C1196.1 214.731 1199.82 213.683 1203.96 213.683C1205.42 213.683 1206.85 213.77 1208.24 213.945C1209.7 214.12 1210.98 214.382 1212.09 214.731ZM1254.31 215.431V310H1224.76V215.431H1254.31ZM1226.07 205.03L1243.38 177.585H1274.5L1250.11 205.03H1226.07ZM1322.83 283.43C1322.83 281.798 1322.28 280.4 1321.17 279.234C1320.12 278.011 1318.26 276.904 1315.57 275.913C1312.89 274.864 1309.14 273.815 1304.3 272.767C1299.7 271.776 1295.36 270.465 1291.28 268.833C1287.26 267.202 1283.73 265.221 1280.7 262.89C1277.67 260.559 1275.28 257.792 1273.53 254.587C1271.84 251.382 1271 247.711 1271 243.574C1271 239.554 1271.84 235.766 1273.53 232.212C1275.28 228.599 1277.82 225.424 1281.14 222.685C1284.52 219.888 1288.63 217.703 1293.46 216.13C1298.3 214.498 1303.8 213.683 1309.98 213.683C1318.49 213.683 1325.83 214.994 1332.01 217.616C1338.18 220.18 1342.93 223.792 1346.25 228.454C1349.63 233.057 1351.32 238.388 1351.32 244.448H1321.87C1321.87 242.059 1321.46 240.02 1320.64 238.33C1319.89 236.64 1318.63 235.358 1316.89 234.484C1315.14 233.552 1312.81 233.086 1309.89 233.086C1307.85 233.086 1305.99 233.465 1304.3 234.222C1302.67 234.98 1301.36 236.028 1300.37 237.369C1299.38 238.709 1298.88 240.282 1298.88 242.088C1298.88 243.37 1299.17 244.536 1299.75 245.584C1300.4 246.575 1301.36 247.507 1302.64 248.381C1303.92 249.197 1305.55 249.955 1307.53 250.654C1309.51 251.295 1311.9 251.877 1314.7 252.402C1321.05 253.567 1327 255.228 1332.53 257.384C1338.07 259.54 1342.55 262.599 1345.99 266.561C1349.49 270.523 1351.23 275.855 1351.23 282.556C1351.23 286.751 1350.27 290.626 1348.35 294.18C1346.43 297.676 1343.66 300.764 1340.05 303.445C1336.43 306.067 1332.09 308.106 1327.02 309.563C1321.96 311.02 1316.24 311.748 1309.89 311.748C1300.86 311.748 1293.23 310.146 1286.99 306.941C1280.76 303.678 1276.04 299.599 1272.83 294.705C1269.69 289.752 1268.12 284.741 1268.12 279.671H1295.56C1295.68 282.585 1296.38 284.974 1297.66 286.838C1299 288.703 1300.77 290.072 1302.99 290.946C1305.2 291.82 1307.77 292.257 1310.68 292.257C1313.36 292.257 1315.57 291.879 1317.32 291.121C1319.13 290.364 1320.5 289.344 1321.43 288.062C1322.36 286.722 1322.83 285.178 1322.83 283.43ZM1414.86 215.431V235.883H1357.88V215.431H1414.86ZM1369.85 191.919H1399.31V279.147C1399.31 281.653 1399.6 283.604 1400.18 285.003C1400.76 286.343 1401.75 287.305 1403.15 287.887C1404.61 288.412 1406.53 288.674 1408.92 288.674C1410.61 288.674 1412.01 288.645 1413.12 288.586C1414.22 288.47 1415.27 288.324 1416.26 288.149V309.213C1413.76 310.029 1411.13 310.641 1408.4 311.049C1405.66 311.515 1402.74 311.748 1399.66 311.748C1393.36 311.748 1387.97 310.757 1383.49 308.776C1379.06 306.795 1375.68 303.678 1373.35 299.424C1371.02 295.171 1369.85 289.635 1369.85 282.818V191.919ZM1457.69 215.431V310H1428.15V215.431H1457.69ZM1426.4 191.045C1426.4 186.85 1427.92 183.412 1430.95 180.732C1433.98 178.052 1437.91 176.711 1442.75 176.711C1447.58 176.711 1451.51 178.052 1454.54 180.732C1457.57 183.412 1459.09 186.85 1459.09 191.045C1459.09 195.241 1457.57 198.679 1454.54 201.359C1451.51 204.039 1447.58 205.379 1442.75 205.379C1437.91 205.379 1433.98 204.039 1430.95 201.359C1427.92 198.679 1426.4 195.241 1426.4 191.045ZM1515.81 289.023C1518.55 289.023 1520.88 288.528 1522.81 287.538C1524.79 286.489 1526.27 285.032 1527.26 283.167C1528.31 281.245 1528.81 278.943 1528.75 276.263H1556.46C1556.51 283.371 1554.77 289.606 1551.21 294.967C1547.72 300.269 1542.94 304.406 1536.88 307.378C1530.88 310.291 1524.09 311.748 1516.51 311.748C1509.11 311.748 1502.64 310.554 1497.11 308.165C1491.57 305.717 1486.94 302.338 1483.21 298.026C1479.54 293.656 1476.77 288.557 1474.91 282.73C1473.1 276.904 1472.2 270.582 1472.2 263.764V261.754C1472.2 254.937 1473.1 248.614 1474.91 242.788C1476.77 236.903 1479.54 231.804 1483.21 227.492C1486.94 223.122 1491.54 219.743 1497.02 217.354C1502.56 214.906 1509 213.683 1516.34 213.683C1524.2 213.683 1531.14 215.168 1537.14 218.14C1543.2 221.112 1547.95 225.424 1551.39 231.076C1554.82 236.728 1556.51 243.574 1556.46 251.615H1528.75C1528.81 248.76 1528.37 246.196 1527.44 243.924C1526.51 241.651 1525.05 239.845 1523.07 238.505C1521.15 237.106 1518.67 236.407 1515.64 236.407C1512.61 236.407 1510.16 237.077 1508.3 238.417C1506.43 239.758 1505 241.622 1504.01 244.011C1503.08 246.342 1502.44 249.022 1502.09 252.052C1501.8 255.082 1501.65 258.316 1501.65 261.754V263.764C1501.65 267.26 1501.8 270.552 1502.09 273.641C1502.44 276.671 1503.11 279.351 1504.1 281.682C1505.09 283.954 1506.52 285.76 1508.38 287.101C1510.25 288.382 1512.73 289.023 1515.81 289.023ZM1618.16 286.227V247.245C1618.16 244.565 1617.78 242.263 1617.03 240.34C1616.27 238.417 1615.07 236.932 1613.44 235.883C1611.81 234.776 1609.63 234.222 1606.89 234.222C1604.67 234.222 1602.78 234.601 1601.21 235.358C1599.63 236.116 1598.44 237.252 1597.62 238.767C1596.81 240.282 1596.4 242.205 1596.4 244.536H1566.94C1566.94 240.166 1567.91 236.116 1569.83 232.387C1571.81 228.599 1574.61 225.307 1578.22 222.51C1581.89 219.713 1586.26 217.557 1591.33 216.042C1596.46 214.469 1602.17 213.683 1608.46 213.683C1615.98 213.683 1622.68 214.935 1628.56 217.441C1634.51 219.946 1639.2 223.705 1642.63 228.716C1646.07 233.669 1647.79 239.903 1647.79 247.42V286.139C1647.79 292.316 1648.14 297.006 1648.84 300.211C1649.54 303.357 1650.53 306.125 1651.81 308.514V310H1622.27C1620.87 307.087 1619.82 303.532 1619.12 299.337C1618.48 295.083 1618.16 290.713 1618.16 286.227ZM1621.75 252.227L1621.92 267.959H1608.9C1606.16 267.959 1603.83 268.338 1601.9 269.096C1600.04 269.853 1598.53 270.902 1597.36 272.242C1596.25 273.524 1595.44 274.981 1594.91 276.612C1594.45 278.244 1594.21 279.963 1594.21 281.769C1594.21 283.517 1594.62 285.09 1595.44 286.489C1596.31 287.829 1597.48 288.878 1598.93 289.635C1600.39 290.393 1602.02 290.771 1603.83 290.771C1607.09 290.771 1609.86 290.16 1612.13 288.936C1614.46 287.654 1616.24 286.11 1617.46 284.304C1618.69 282.497 1619.3 280.808 1619.3 279.234L1625.77 291.296C1624.6 293.627 1623.26 295.986 1621.75 298.375C1620.29 300.764 1618.45 302.979 1616.24 305.018C1614.08 306.999 1611.43 308.631 1608.29 309.913C1605.14 311.136 1601.32 311.748 1596.84 311.748C1591.01 311.748 1585.65 310.554 1580.75 308.165C1575.92 305.776 1572.04 302.454 1569.13 298.201C1566.22 293.889 1564.76 288.936 1564.76 283.342C1564.76 278.448 1565.63 274.078 1567.38 270.232C1569.19 266.386 1571.9 263.123 1575.51 260.443C1579.12 257.763 1583.73 255.723 1589.32 254.325C1594.91 252.926 1601.5 252.227 1609.07 252.227H1621.75ZM1713.69 283.43C1713.69 281.798 1713.14 280.4 1712.03 279.234C1710.98 278.011 1709.12 276.904 1706.44 275.913C1703.76 274.864 1700 273.815 1695.16 272.767C1690.56 271.776 1686.22 270.465 1682.14 268.833C1678.12 267.202 1674.59 265.221 1671.56 262.89C1668.53 260.559 1666.15 257.792 1664.4 254.587C1662.71 251.382 1661.86 247.711 1661.86 243.574C1661.86 239.554 1662.71 235.766 1664.4 232.212C1666.15 228.599 1668.68 225.424 1672 222.685C1675.38 219.888 1679.49 217.703 1684.33 216.13C1689.16 214.498 1694.67 213.683 1700.84 213.683C1709.35 213.683 1716.69 214.994 1722.87 217.616C1729.05 220.18 1733.79 223.792 1737.12 228.454C1740.5 233.057 1742.19 238.388 1742.19 244.448H1712.73C1712.73 242.059 1712.32 240.02 1711.51 238.33C1710.75 236.64 1709.5 235.358 1707.75 234.484C1706 233.552 1703.67 233.086 1700.76 233.086C1698.72 233.086 1696.85 233.465 1695.16 234.222C1693.53 234.98 1692.22 236.028 1691.23 237.369C1690.24 238.709 1689.74 240.282 1689.74 242.088C1689.74 243.37 1690.04 244.536 1690.62 245.584C1691.26 246.575 1692.22 247.507 1693.5 248.381C1694.78 249.197 1696.42 249.955 1698.4 250.654C1700.38 251.295 1702.77 251.877 1705.56 252.402C1711.92 253.567 1717.86 255.228 1723.39 257.384C1728.93 259.54 1733.42 262.599 1736.85 266.561C1740.35 270.523 1742.1 275.855 1742.1 282.556C1742.1 286.751 1741.14 290.626 1739.21 294.18C1737.29 297.676 1734.52 300.764 1730.91 303.445C1727.3 306.067 1722.96 308.106 1717.89 309.563C1712.82 311.02 1707.11 311.748 1700.76 311.748C1691.73 311.748 1684.09 310.146 1677.86 306.941C1671.62 303.678 1666.9 299.599 1663.7 294.705C1660.55 289.752 1658.98 284.741 1658.98 279.671H1686.42C1686.54 282.585 1687.24 284.974 1688.52 286.838C1689.86 288.703 1691.64 290.072 1693.85 290.946C1696.07 291.82 1698.63 292.257 1701.54 292.257C1704.22 292.257 1706.44 291.879 1708.19 291.121C1709.99 290.364 1711.36 289.344 1712.29 288.062C1713.23 286.722 1713.69 285.178 1713.69 283.43Z"/><path fill="url(#paint4_linear_203_26)" d="M603.071 266.911H633.662C633.254 275.767 630.865 283.575 626.495 290.334C622.125 297.094 616.065 302.367 608.315 306.154C600.624 309.883 591.534 311.748 581.045 311.748C572.538 311.748 564.934 310.32 558.233 307.465C551.591 304.61 545.939 300.502 541.277 295.142C536.674 289.781 533.149 283.284 530.702 275.651C528.313 268.018 527.118 259.423 527.118 249.867V242.962C527.118 233.406 528.371 224.812 530.876 217.179C533.44 209.487 537.053 202.961 541.714 197.601C546.434 192.182 552.086 188.045 558.67 185.189C565.255 182.334 572.567 180.907 580.608 180.907C591.679 180.907 601.031 182.888 608.665 186.85C616.298 190.812 622.212 196.26 626.407 203.194C630.603 210.07 633.079 217.907 633.836 226.706H603.246C603.129 221.928 602.313 217.936 600.798 214.731C599.283 211.468 596.894 209.021 593.631 207.39C590.368 205.758 586.027 204.942 580.608 204.942C576.821 204.942 573.529 205.642 570.732 207.04C567.935 208.438 565.604 210.653 563.74 213.683C561.875 216.713 560.477 220.646 559.544 225.482C558.67 230.26 558.233 236.028 558.233 242.788V249.867C558.233 256.626 558.641 262.395 559.457 267.173C560.273 271.951 561.584 275.855 563.39 278.885C565.196 281.915 567.527 284.158 570.382 285.615C573.296 287.013 576.85 287.712 581.045 287.712C585.707 287.712 589.64 286.984 592.845 285.527C596.049 284.012 598.526 281.74 600.274 278.71C602.022 275.622 602.954 271.689 603.071 266.911ZM695.892 286.227V247.245C695.892 244.565 695.513 242.263 694.756 240.34C693.998 238.417 692.804 236.932 691.172 235.883C689.541 234.776 687.356 234.222 684.617 234.222C682.403 234.222 680.509 234.601 678.936 235.358C677.363 236.116 676.168 237.252 675.353 238.767C674.537 240.282 674.129 242.205 674.129 244.536H644.674C644.674 240.166 645.636 236.116 647.559 232.387C649.54 228.599 652.337 225.307 655.949 222.51C659.62 219.713 663.99 217.557 669.06 216.042C674.187 214.469 679.897 213.683 686.19 213.683C693.707 213.683 700.408 214.935 706.293 217.441C712.236 219.946 716.927 223.705 720.365 228.716C723.803 233.669 725.521 239.903 725.521 247.42V286.139C725.521 292.316 725.871 297.006 726.57 300.211C727.27 303.357 728.26 306.125 729.542 308.514V310H700C698.602 307.087 697.553 303.532 696.854 299.337C696.213 295.083 695.892 290.713 695.892 286.227ZM699.476 252.227L699.65 267.959H686.627C683.889 267.959 681.558 268.338 679.635 269.096C677.771 269.853 676.256 270.902 675.09 272.242C673.983 273.524 673.167 274.981 672.643 276.612C672.177 278.244 671.944 279.963 671.944 281.769C671.944 283.517 672.352 285.09 673.167 286.489C674.042 287.829 675.207 288.878 676.664 289.635C678.12 290.393 679.752 290.771 681.558 290.771C684.821 290.771 687.589 290.16 689.861 288.936C692.192 287.654 693.969 286.11 695.193 284.304C696.417 282.497 697.028 280.808 697.028 279.234L703.496 291.296C702.331 293.627 700.991 295.986 699.476 298.375C698.019 300.764 696.183 302.979 693.969 305.018C691.813 306.999 689.162 308.631 686.016 309.913C682.869 311.136 679.053 311.748 674.566 311.748C668.739 311.748 663.378 310.554 658.484 308.165C653.648 305.776 649.773 302.454 646.859 298.201C643.946 293.889 642.489 288.936 642.489 283.342C642.489 278.448 643.363 274.078 645.111 270.232C646.918 266.386 649.627 263.123 653.24 260.443C656.852 257.763 661.456 255.723 667.049 254.325C672.643 252.926 679.227 252.227 686.802 252.227H699.476ZM771.583 238.854V310H742.128V215.431H769.66L771.583 238.854ZM799.551 214.731L799.027 242.088C797.861 241.972 796.288 241.826 794.307 241.651C792.326 241.477 790.665 241.389 789.325 241.389C785.887 241.389 782.916 241.797 780.41 242.613C777.963 243.37 775.924 244.536 774.292 246.109C772.719 247.624 771.553 249.547 770.796 251.877C770.097 254.208 769.776 256.918 769.834 260.006L764.503 256.51C764.503 250.159 765.115 244.39 766.338 239.204C767.62 233.96 769.427 229.444 771.757 225.657C774.088 221.811 776.914 218.868 780.235 216.829C783.557 214.731 787.286 213.683 791.423 213.683C792.88 213.683 794.307 213.77 795.706 213.945C797.162 214.12 798.444 214.382 799.551 214.731ZM856.188 286.227V247.245C856.188 244.565 855.809 242.263 855.052 240.34C854.294 238.417 853.1 236.932 851.468 235.883C849.837 234.776 847.652 234.222 844.913 234.222C842.699 234.222 840.805 234.601 839.232 235.358C837.659 236.116 836.464 237.252 835.648 238.767C834.833 240.282 834.425 242.205 834.425 244.536H804.97C804.97 240.166 805.932 236.116 807.854 232.387C809.836 228.599 812.632 225.307 816.245 222.51C819.916 219.713 824.286 217.557 829.355 216.042C834.483 214.469 840.193 213.683 846.486 213.683C854.003 213.683 860.704 214.935 866.589 217.441C872.532 219.946 877.223 223.705 880.661 228.716C884.098 233.669 885.817 239.903 885.817 247.42V286.139C885.817 292.316 886.167 297.006 886.866 300.211C887.565 303.357 888.556 306.125 889.838 308.514V310H860.296C858.897 307.087 857.849 303.532 857.149 299.337C856.508 295.083 856.188 290.713 856.188 286.227ZM859.771 252.227L859.946 267.959H846.923C844.185 267.959 841.854 268.338 839.931 269.096C838.067 269.853 836.552 270.902 835.386 272.242C834.279 273.524 833.463 274.981 832.939 276.612C832.473 278.244 832.24 279.963 832.24 281.769C832.24 283.517 832.648 285.09 833.463 286.489C834.337 287.829 835.503 288.878 836.959 289.635C838.416 290.393 840.048 290.771 841.854 290.771C845.117 290.771 847.885 290.16 850.157 288.936C852.488 287.654 854.265 286.11 855.489 284.304C856.712 282.497 857.324 280.808 857.324 279.234L863.792 291.296C862.627 293.627 861.286 295.986 859.771 298.375C858.315 300.764 856.479 302.979 854.265 305.018C852.109 306.999 849.458 308.631 846.312 309.913C843.165 311.136 839.348 311.748 834.862 311.748C829.035 311.748 823.674 310.554 818.78 308.165C813.944 305.776 810.069 302.454 807.155 298.201C804.242 293.889 802.785 288.936 802.785 283.342C802.785 278.448 803.659 274.078 805.407 270.232C807.214 266.386 809.923 263.123 813.536 260.443C817.148 257.763 821.751 255.723 827.345 254.325C832.939 252.926 839.523 252.227 847.098 252.227H859.771ZM942.104 289.023C944.843 289.023 947.174 288.528 949.097 287.538C951.078 286.489 952.564 285.032 953.554 283.167C954.603 281.245 955.098 278.943 955.04 276.263H982.747C982.805 283.371 981.057 289.606 977.502 294.967C974.006 300.269 969.228 304.406 963.168 307.378C957.167 310.291 950.379 311.748 942.804 311.748C935.404 311.748 928.936 310.554 923.4 308.165C917.865 305.717 913.233 302.338 909.503 298.026C905.833 293.656 903.065 288.557 901.2 282.73C899.394 276.904 898.491 270.582 898.491 263.764V261.754C898.491 254.937 899.394 248.614 901.2 242.788C903.065 236.903 905.833 231.804 909.503 227.492C913.233 223.122 917.836 219.743 923.313 217.354C928.848 214.906 935.287 213.683 942.629 213.683C950.495 213.683 957.429 215.168 963.431 218.14C969.491 221.112 974.239 225.424 977.677 231.076C981.115 236.728 982.805 243.574 982.747 251.615H955.04C955.098 248.76 954.661 246.196 953.729 243.924C952.797 241.651 951.34 239.845 949.359 238.505C947.436 237.106 944.96 236.407 941.93 236.407C938.9 236.407 936.452 237.077 934.588 238.417C932.723 239.758 931.296 241.622 930.305 244.011C929.373 246.342 928.732 249.022 928.382 252.052C928.091 255.082 927.945 258.316 927.945 261.754V263.764C927.945 267.26 928.091 270.552 928.382 273.641C928.732 276.671 929.402 279.351 930.393 281.682C931.383 283.954 932.811 285.76 934.675 287.101C936.54 288.382 939.016 289.023 942.104 289.023ZM1045.15 215.431V235.883H988.166V215.431H1045.15ZM1000.14 191.919H1029.59V279.147C1029.59 281.653 1029.89 283.604 1030.47 285.003C1031.05 286.343 1032.04 287.305 1033.44 287.887C1034.9 288.412 1036.82 288.674 1039.21 288.674C1040.9 288.674 1042.3 288.645 1043.4 288.586C1044.51 288.47 1045.56 288.324 1046.55 288.149V309.213C1044.04 310.029 1041.42 310.641 1038.68 311.049C1035.95 311.515 1033.03 311.748 1029.94 311.748C1023.65 311.748 1018.26 310.757 1013.77 308.776C1009.35 306.795 1005.97 303.678 1003.64 299.424C1001.31 295.171 1000.14 289.635 1000.14 282.818V191.919ZM1102.66 311.748C1094.97 311.748 1088.1 310.554 1082.04 308.165C1075.98 305.717 1070.85 302.367 1066.65 298.113C1062.52 293.86 1059.34 288.965 1057.13 283.43C1054.97 277.894 1053.89 272.038 1053.89 265.862V262.541C1053.89 255.607 1054.85 249.197 1056.78 243.312C1058.7 237.369 1061.55 232.183 1065.34 227.754C1069.13 223.326 1073.88 219.888 1079.59 217.441C1085.3 214.935 1091.94 213.683 1099.52 213.683C1106.22 213.683 1112.22 214.761 1117.52 216.917C1122.82 219.072 1127.31 222.161 1130.98 226.181C1134.71 230.202 1137.54 235.067 1139.46 240.777C1141.44 246.488 1142.43 252.897 1142.43 260.006V271.98H1065.17V253.538H1113.68V251.266C1113.73 248.119 1113.18 245.439 1112.01 243.225C1110.91 241.01 1109.28 239.321 1107.12 238.155C1104.96 236.99 1102.34 236.407 1099.25 236.407C1096.05 236.407 1093.4 237.106 1091.3 238.505C1089.26 239.903 1087.66 241.826 1086.49 244.273C1085.39 246.662 1084.6 249.43 1084.13 252.577C1083.67 255.723 1083.43 259.044 1083.43 262.541V265.862C1083.43 269.358 1083.9 272.534 1084.83 275.389C1085.82 278.244 1087.22 280.691 1089.03 282.73C1090.89 284.712 1093.11 286.256 1095.67 287.363C1098.29 288.47 1101.26 289.023 1104.59 289.023C1108.61 289.023 1112.57 288.266 1116.47 286.751C1120.38 285.236 1123.73 282.73 1126.52 279.234L1139.9 295.142C1137.97 297.88 1135.23 300.531 1131.68 303.095C1128.18 305.659 1123.99 307.757 1119.09 309.388C1114.2 310.961 1108.72 311.748 1102.66 311.748ZM1184.12 238.854V310H1154.67V215.431H1182.2L1184.12 238.854ZM1212.09 214.731L1211.57 242.088C1210.4 241.972 1208.83 241.826 1206.85 241.651C1204.87 241.477 1203.2 241.389 1201.86 241.389C1198.43 241.389 1195.45 241.797 1192.95 242.613C1190.5 243.37 1188.46 244.536 1186.83 246.109C1185.26 247.624 1184.09 249.547 1183.33 251.877C1182.64 254.208 1182.32 256.918 1182.37 260.006L1177.04 256.51C1177.04 250.159 1177.65 244.39 1178.88 239.204C1180.16 233.96 1181.97 229.444 1184.3 225.657C1186.63 221.811 1189.45 218.868 1192.77 216.829C1196.1 214.731 1199.82 213.683 1203.96 213.683C1205.42 213.683 1206.85 213.77 1208.24 213.945C1209.7 214.12 1210.98 214.382 1212.09 214.731ZM1254.31 215.431V310H1224.76V215.431H1254.31ZM1226.07 205.03L1243.38 177.585H1274.5L1250.11 205.03H1226.07ZM1322.83 283.43C1322.83 281.798 1322.28 280.4 1321.17 279.234C1320.12 278.011 1318.26 276.904 1315.57 275.913C1312.89 274.864 1309.14 273.815 1304.3 272.767C1299.7 271.776 1295.36 270.465 1291.28 268.833C1287.26 267.202 1283.73 265.221 1280.7 262.89C1277.67 260.559 1275.28 257.792 1273.53 254.587C1271.84 251.382 1271 247.711 1271 243.574C1271 239.554 1271.84 235.766 1273.53 232.212C1275.28 228.599 1277.82 225.424 1281.14 222.685C1284.52 219.888 1288.63 217.703 1293.46 216.13C1298.3 214.498 1303.8 213.683 1309.98 213.683C1318.49 213.683 1325.83 214.994 1332.01 217.616C1338.18 220.18 1342.93 223.792 1346.25 228.454C1349.63 233.057 1351.32 238.388 1351.32 244.448H1321.87C1321.87 242.059 1321.46 240.02 1320.64 238.33C1319.89 236.64 1318.63 235.358 1316.89 234.484C1315.14 233.552 1312.81 233.086 1309.89 233.086C1307.85 233.086 1305.99 233.465 1304.3 234.222C1302.67 234.98 1301.36 236.028 1300.37 237.369C1299.38 238.709 1298.88 240.282 1298.88 242.088C1298.88 243.37 1299.17 244.536 1299.75 245.584C1300.4 246.575 1301.36 247.507 1302.64 248.381C1303.92 249.197 1305.55 249.955 1307.53 250.654C1309.51 251.295 1311.9 251.877 1314.7 252.402C1321.05 253.567 1327 255.228 1332.53 257.384C1338.07 259.54 1342.55 262.599 1345.99 266.561C1349.49 270.523 1351.23 275.855 1351.23 282.556C1351.23 286.751 1350.27 290.626 1348.35 294.18C1346.43 297.676 1343.66 300.764 1340.05 303.445C1336.43 306.067 1332.09 308.106 1327.02 309.563C1321.96 311.02 1316.24 311.748 1309.89 311.748C1300.86 311.748 1293.23 310.146 1286.99 306.941C1280.76 303.678 1276.04 299.599 1272.83 294.705C1269.69 289.752 1268.12 284.741 1268.12 279.671H1295.56C1295.68 282.585 1296.38 284.974 1297.66 286.838C1299 288.703 1300.77 290.072 1302.99 290.946C1305.2 291.82 1307.77 292.257 1310.68 292.257C1313.36 292.257 1315.57 291.879 1317.32 291.121C1319.13 290.364 1320.5 289.344 1321.43 288.062C1322.36 286.722 1322.83 285.178 1322.83 283.43ZM1414.86 215.431V235.883H1357.88V215.431H1414.86ZM1369.85 191.919H1399.31V279.147C1399.31 281.653 1399.6 283.604 1400.18 285.003C1400.76 286.343 1401.75 287.305 1403.15 287.887C1404.61 288.412 1406.53 288.674 1408.92 288.674C1410.61 288.674 1412.01 288.645 1413.12 288.586C1414.22 288.47 1415.27 288.324 1416.26 288.149V309.213C1413.76 310.029 1411.13 310.641 1408.4 311.049C1405.66 311.515 1402.74 311.748 1399.66 311.748C1393.36 311.748 1387.97 310.757 1383.49 308.776C1379.06 306.795 1375.68 303.678 1373.35 299.424C1371.02 295.171 1369.85 289.635 1369.85 282.818V191.919ZM1457.69 215.431V310H1428.15V215.431H1457.69ZM1426.4 191.045C1426.4 186.85 1427.92 183.412 1430.95 180.732C1433.98 178.052 1437.91 176.711 1442.75 176.711C1447.58 176.711 1451.51 178.052 1454.54 180.732C1457.57 183.412 1459.09 186.85 1459.09 191.045C1459.09 195.241 1457.57 198.679 1454.54 201.359C1451.51 204.039 1447.58 205.379 1442.75 205.379C1437.91 205.379 1433.98 204.039 1430.95 201.359C1427.92 198.679 1426.4 195.241 1426.4 191.045ZM1515.81 289.023C1518.55 289.023 1520.88 288.528 1522.81 287.538C1524.79 286.489 1526.27 285.032 1527.26 283.167C1528.31 281.245 1528.81 278.943 1528.75 276.263H1556.46C1556.51 283.371 1554.77 289.606 1551.21 294.967C1547.72 300.269 1542.94 304.406 1536.88 307.378C1530.88 310.291 1524.09 311.748 1516.51 311.748C1509.11 311.748 1502.64 310.554 1497.11 308.165C1491.57 305.717 1486.94 302.338 1483.21 298.026C1479.54 293.656 1476.77 288.557 1474.91 282.73C1473.1 276.904 1472.2 270.582 1472.2 263.764V261.754C1472.2 254.937 1473.1 248.614 1474.91 242.788C1476.77 236.903 1479.54 231.804 1483.21 227.492C1486.94 223.122 1491.54 219.743 1497.02 217.354C1502.56 214.906 1509 213.683 1516.34 213.683C1524.2 213.683 1531.14 215.168 1537.14 218.14C1543.2 221.112 1547.95 225.424 1551.39 231.076C1554.82 236.728 1556.51 243.574 1556.46 251.615H1528.75C1528.81 248.76 1528.37 246.196 1527.44 243.924C1526.51 241.651 1525.05 239.845 1523.07 238.505C1521.15 237.106 1518.67 236.407 1515.64 236.407C1512.61 236.407 1510.16 237.077 1508.3 238.417C1506.43 239.758 1505 241.622 1504.01 244.011C1503.08 246.342 1502.44 249.022 1502.09 252.052C1501.8 255.082 1501.65 258.316 1501.65 261.754V263.764C1501.65 267.26 1501.8 270.552 1502.09 273.641C1502.44 276.671 1503.11 279.351 1504.1 281.682C1505.09 283.954 1506.52 285.76 1508.38 287.101C1510.25 288.382 1512.73 289.023 1515.81 289.023ZM1618.16 286.227V247.245C1618.16 244.565 1617.78 242.263 1617.03 240.34C1616.27 238.417 1615.07 236.932 1613.44 235.883C1611.81 234.776 1609.63 234.222 1606.89 234.222C1604.67 234.222 1602.78 234.601 1601.21 235.358C1599.63 236.116 1598.44 237.252 1597.62 238.767C1596.81 240.282 1596.4 242.205 1596.4 244.536H1566.94C1566.94 240.166 1567.91 236.116 1569.83 232.387C1571.81 228.599 1574.61 225.307 1578.22 222.51C1581.89 219.713 1586.26 217.557 1591.33 216.042C1596.46 214.469 1602.17 213.683 1608.46 213.683C1615.98 213.683 1622.68 214.935 1628.56 217.441C1634.51 219.946 1639.2 223.705 1642.63 228.716C1646.07 233.669 1647.79 239.903 1647.79 247.42V286.139C1647.79 292.316 1648.14 297.006 1648.84 300.211C1649.54 303.357 1650.53 306.125 1651.81 308.514V310H1622.27C1620.87 307.087 1619.82 303.532 1619.12 299.337C1618.48 295.083 1618.16 290.713 1618.16 286.227ZM1621.75 252.227L1621.92 267.959H1608.9C1606.16 267.959 1603.83 268.338 1601.9 269.096C1600.04 269.853 1598.53 270.902 1597.36 272.242C1596.25 273.524 1595.44 274.981 1594.91 276.612C1594.45 278.244 1594.21 279.963 1594.21 281.769C1594.21 283.517 1594.62 285.09 1595.44 286.489C1596.31 287.829 1597.48 288.878 1598.93 289.635C1600.39 290.393 1602.02 290.771 1603.83 290.771C1607.09 290.771 1609.86 290.16 1612.13 288.936C1614.46 287.654 1616.24 286.11 1617.46 284.304C1618.69 282.497 1619.3 280.808 1619.3 279.234L1625.77 291.296C1624.6 293.627 1623.26 295.986 1621.75 298.375C1620.29 300.764 1618.45 302.979 1616.24 305.018C1614.08 306.999 1611.43 308.631 1608.29 309.913C1605.14 311.136 1601.32 311.748 1596.84 311.748C1591.01 311.748 1585.65 310.554 1580.75 308.165C1575.92 305.776 1572.04 302.454 1569.13 298.201C1566.22 293.889 1564.76 288.936 1564.76 283.342C1564.76 278.448 1565.63 274.078 1567.38 270.232C1569.19 266.386 1571.9 263.123 1575.51 260.443C1579.12 257.763 1583.73 255.723 1589.32 254.325C1594.91 252.926 1601.5 252.227 1609.07 252.227H1621.75ZM1713.69 283.43C1713.69 281.798 1713.14 280.4 1712.03 279.234C1710.98 278.011 1709.12 276.904 1706.44 275.913C1703.76 274.864 1700 273.815 1695.16 272.767C1690.56 271.776 1686.22 270.465 1682.14 268.833C1678.12 267.202 1674.59 265.221 1671.56 262.89C1668.53 260.559 1666.15 257.792 1664.4 254.587C1662.71 251.382 1661.86 247.711 1661.86 243.574C1661.86 239.554 1662.71 235.766 1664.4 232.212C1666.15 228.599 1668.68 225.424 1672 222.685C1675.38 219.888 1679.49 217.703 1684.33 216.13C1689.16 214.498 1694.67 213.683 1700.84 213.683C1709.35 213.683 1716.69 214.994 1722.87 217.616C1729.05 220.18 1733.79 223.792 1737.12 228.454C1740.5 233.057 1742.19 238.388 1742.19 244.448H1712.73C1712.73 242.059 1712.32 240.02 1711.51 238.33C1710.75 236.64 1709.5 235.358 1707.75 234.484C1706 233.552 1703.67 233.086 1700.76 233.086C1698.72 233.086 1696.85 233.465 1695.16 234.222C1693.53 234.98 1692.22 236.028 1691.23 237.369C1690.24 238.709 1689.74 240.282 1689.74 242.088C1689.74 243.37 1690.04 244.536 1690.62 245.584C1691.26 246.575 1692.22 247.507 1693.5 248.381C1694.78 249.197 1696.42 249.955 1698.4 250.654C1700.38 251.295 1702.77 251.877 1705.56 252.402C1711.92 253.567 1717.86 255.228 1723.39 257.384C1728.93 259.54 1733.42 262.599 1736.85 266.561C1740.35 270.523 1742.1 275.855 1742.1 282.556C1742.1 286.751 1741.14 290.626 1739.21 294.18C1737.29 297.676 1734.52 300.764 1730.91 303.445C1727.3 306.067 1722.96 308.106 1717.89 309.563C1712.82 311.02 1707.11 311.748 1700.76 311.748C1691.73 311.748 1684.09 310.146 1677.86 306.941C1671.62 303.678 1666.9 299.599 1663.7 294.705C1660.55 289.752 1658.98 284.741 1658.98 279.671H1686.42C1686.54 282.585 1687.24 284.974 1688.52 286.838C1689.86 288.703 1691.64 290.072 1693.85 290.946C1696.07 291.82 1698.63 292.257 1701.54 292.257C1704.22 292.257 1706.44 291.879 1708.19 291.121C1709.99 290.364 1711.36 289.344 1712.29 288.062C1713.23 286.722 1713.69 285.178 1713.69 283.43Z"/><defs><linearGradient id="paint0_linear_203_26" x1="0" x2="88.064" y1=".777" y2="9.505" gradientUnits="userSpaceOnUse"><stop stop-color="#00E1C3"/><stop offset="1" stop-color="#00D1D5"/></linearGradient><linearGradient id="paint1_linear_203_26" x1="189" x2="436.787" y1="104.929" y2="353.473" gradientUnits="userSpaceOnUse"><stop stop-color="#00E1C3"/><stop offset="1" stop-color="#00D1D5"/></linearGradient><linearGradient id="paint2_linear_203_26" x1="189" x2="436.787" y1="104.929" y2="353.473" gradientUnits="userSpaceOnUse"><stop stop-color="#00E1C3"/><stop offset="1" stop-color="#00D1D5"/></linearGradient><linearGradient id="paint3_linear_203_26" x1="189" x2="436.787" y1="104.929" y2="353.473" gradientUnits="userSpaceOnUse"><stop stop-color="#00E1C3"/><stop offset="1" stop-color="#00D1D5"/></linearGradient><linearGradient id="paint4_linear_203_26" x1="521" x2="585.057" y1="144.371" y2="562.842" gradientUnits="userSpaceOnUse"><stop stop-color="#00E1C3"/><stop offset="1" stop-color="#00D1D5"/></linearGradient></defs></svg>