<svg xmlns="http://www.w3.org/2000/svg" width="1225" height="440" fill="none" viewBox="0 0 1225 440"><path fill="#132636" d="M3 37C3 16.5655 19.5655 0 40 0H1178.48C1202.28 0 1219.89 22.1407 1214.53 45.3276L1130.22 410.328C1126.34 427.112 1111.39 439 1094.17 439H40C19.5655 439 3 422.435 3 402V37Z"/><path fill="#132636" d="M0 37C0 16.5655 16.5655 0 37 0H39V440H37C16.5655 440 0 423.435 0 403V37Z"/><path fill="url(#paint0_linear_209_137)" d="M0 37C0 16.5655 16.5655 0 37 0H39V440H37C16.5655 440 0 423.435 0 403V37Z"/><path fill="url(#paint1_linear_209_137)" d="M339.24 246.663C349.416 240.819 349.415 226.178 339.238 220.336L304.727 200.542L342.697 182.89L395.065 212.927C410.978 222.055 410.978 244.945 395.065 254.073L340.201 285.542L302.231 267.89L339.24 246.663Z"/><path fill="url(#paint2_linear_209_137)" d="M223.282 266.804V286.916C223.287 298.595 235.961 305.901 246.117 300.076L267.934 287.562L305.904 305.214L224.679 351.803C208.808 360.906 189 349.485 189 331.23L189 250.866L223.282 266.804Z"/><path fill="url(#paint3_linear_209_137)" d="M308.401 163.218L270.431 180.87L246.103 166.916C235.948 161.104 223.282 168.413 223.282 180.09V202.789L189 218.726L189 135.77C189 117.515 208.808 106.094 224.679 115.197L308.401 163.218Z"/><path fill="#fff" d="M542.011 147.114L551.627 111.789H564.101L548.517 158H540.456L542.011 147.114ZM533.283 111.789L542.899 147.114L544.518 158H536.361L520.873 111.789H533.283ZM586.159 149.653V123.659H596.886V158H586.857L586.159 149.653ZM587.174 142.67L589.967 142.607C589.967 144.913 589.692 147.05 589.142 149.018C588.592 150.965 587.777 152.657 586.698 154.096C585.64 155.535 584.328 156.656 582.763 157.46C581.218 158.243 579.43 158.635 577.399 158.635C575.706 158.635 574.151 158.402 572.733 157.937C571.337 157.45 570.131 156.699 569.115 155.683C568.1 154.646 567.306 153.324 566.735 151.716C566.185 150.087 565.91 148.14 565.91 145.876V123.659H576.605V145.939C576.605 146.701 576.701 147.357 576.891 147.907C577.082 148.457 577.357 148.923 577.716 149.304C578.076 149.663 578.52 149.938 579.049 150.129C579.599 150.298 580.224 150.383 580.922 150.383C582.53 150.383 583.789 150.044 584.699 149.367C585.609 148.69 586.243 147.77 586.603 146.606C586.984 145.442 587.174 144.13 587.174 142.67ZM619.42 158.635C616.627 158.635 614.131 158.201 611.93 157.333C609.73 156.445 607.868 155.228 606.344 153.684C604.842 152.139 603.689 150.362 602.885 148.352C602.102 146.341 601.71 144.215 601.71 141.972V140.766C601.71 138.248 602.06 135.921 602.758 133.784C603.456 131.625 604.493 129.742 605.868 128.134C607.243 126.526 608.968 125.278 611.042 124.389C613.115 123.479 615.527 123.024 618.278 123.024C620.711 123.024 622.89 123.416 624.816 124.199C626.741 124.982 628.371 126.103 629.704 127.563C631.058 129.023 632.084 130.79 632.782 132.863C633.502 134.937 633.861 137.264 633.861 139.846V144.194H605.805V137.497H623.419V136.672C623.441 135.529 623.24 134.556 622.816 133.752C622.414 132.948 621.822 132.334 621.039 131.911C620.256 131.488 619.304 131.276 618.183 131.276C617.019 131.276 616.056 131.53 615.294 132.038C614.554 132.546 613.972 133.244 613.549 134.133C613.147 135 612.861 136.005 612.692 137.148C612.523 138.291 612.438 139.497 612.438 140.766V141.972C612.438 143.242 612.607 144.395 612.946 145.432C613.306 146.468 613.813 147.357 614.469 148.098C615.146 148.817 615.95 149.378 616.881 149.78C617.833 150.182 618.913 150.383 620.119 150.383C621.579 150.383 623.017 150.108 624.435 149.558C625.853 149.007 627.069 148.098 628.085 146.828L632.941 152.604C632.243 153.599 631.248 154.562 629.958 155.493C628.688 156.424 627.165 157.185 625.387 157.778C623.61 158.349 621.621 158.635 619.42 158.635ZM661.093 111.789V158H649.953V111.789H661.093ZM674.994 111.789V120.39H636.369V111.789H674.994ZM697.179 149.653V123.659H707.907V158H697.877L697.179 149.653ZM698.195 142.67L700.988 142.607C700.988 144.913 700.713 147.05 700.163 149.018C699.612 150.965 698.798 152.657 697.719 154.096C696.661 155.535 695.349 156.656 693.783 157.46C692.239 158.243 690.451 158.635 688.419 158.635C686.727 158.635 685.172 158.402 683.754 157.937C682.357 157.45 681.151 156.699 680.136 155.683C679.12 154.646 678.327 153.324 677.755 151.716C677.205 150.087 676.93 148.14 676.93 145.876V123.659H687.626V145.939C687.626 146.701 687.721 147.357 687.912 147.907C688.102 148.457 688.377 148.923 688.737 149.304C689.097 149.663 689.541 149.938 690.07 150.129C690.62 150.298 691.244 150.383 691.942 150.383C693.55 150.383 694.809 150.044 695.719 149.367C696.629 148.69 697.264 147.77 697.624 146.606C698.004 145.442 698.195 144.13 698.195 142.67ZM713.905 109.25H724.601V149.558L723.49 158H713.905V109.25ZM745.675 140.449V141.115C745.675 143.718 745.411 146.088 744.882 148.225C744.353 150.362 743.538 152.213 742.438 153.779C741.338 155.323 739.952 156.519 738.28 157.365C736.609 158.212 734.63 158.635 732.345 158.635C730.272 158.635 728.494 158.19 727.013 157.302C725.532 156.392 724.294 155.144 723.3 153.557C722.305 151.949 721.501 150.097 720.888 148.002C720.274 145.887 719.787 143.623 719.428 141.21V140.417C719.787 138.026 720.274 135.783 720.888 133.688C721.501 131.573 722.305 129.721 723.3 128.134C724.294 126.526 725.521 125.278 726.981 124.389C728.463 123.479 730.229 123.024 732.282 123.024C734.588 123.024 736.577 123.458 738.249 124.326C739.941 125.193 741.338 126.41 742.438 127.976C743.538 129.541 744.353 131.382 744.882 133.498C745.411 135.614 745.675 137.931 745.675 140.449ZM734.979 141.115V140.449C734.979 139.2 734.905 138.026 734.757 136.926C734.609 135.826 734.345 134.852 733.964 134.006C733.583 133.16 733.043 132.493 732.345 132.006C731.647 131.52 730.737 131.276 729.616 131.276C728.473 131.276 727.51 131.467 726.728 131.848C725.966 132.229 725.352 132.779 724.887 133.498C724.442 134.196 724.125 135.064 723.935 136.101C723.744 137.116 723.66 138.269 723.681 139.56V142.067C723.638 143.824 723.797 145.326 724.157 146.574C724.516 147.823 725.141 148.775 726.029 149.431C726.918 150.087 728.135 150.415 729.679 150.415C730.822 150.415 731.742 150.192 732.44 149.748C733.16 149.304 733.699 148.669 734.059 147.844C734.419 147.019 734.662 146.035 734.789 144.892C734.916 143.75 734.979 142.491 734.979 141.115ZM767.067 158.635C764.274 158.635 761.777 158.201 759.577 157.333C757.376 156.445 755.514 155.228 753.991 153.684C752.488 152.139 751.335 150.362 750.531 148.352C749.748 146.341 749.357 144.215 749.357 141.972V140.766C749.357 138.248 749.706 135.921 750.404 133.784C751.103 131.625 752.139 129.742 753.515 128.134C754.89 126.526 756.614 125.278 758.688 124.389C760.762 123.479 763.174 123.024 765.924 123.024C768.358 123.024 770.537 123.416 772.462 124.199C774.388 124.982 776.017 126.103 777.35 127.563C778.704 129.023 779.73 130.79 780.429 132.863C781.148 134.937 781.508 137.264 781.508 139.846V144.194H753.451V137.497H771.066V136.672C771.087 135.529 770.886 134.556 770.463 133.752C770.061 132.948 769.468 132.334 768.686 131.911C767.903 131.488 766.951 131.276 765.829 131.276C764.665 131.276 763.703 131.53 762.941 132.038C762.2 132.546 761.618 133.244 761.195 134.133C760.793 135 760.508 136.005 760.338 137.148C760.169 138.291 760.084 139.497 760.084 140.766V141.972C760.084 143.242 760.254 144.395 760.592 145.432C760.952 146.468 761.46 147.357 762.116 148.098C762.793 148.817 763.597 149.378 764.528 149.78C765.48 150.182 766.559 150.383 767.765 150.383C769.225 150.383 770.664 150.108 772.082 149.558C773.499 149.007 774.716 148.098 775.731 146.828L780.587 152.604C779.889 153.599 778.895 154.562 777.604 155.493C776.334 156.424 774.811 157.185 773.034 157.778C771.256 158.349 769.267 158.635 767.067 158.635Z"/><path fill="#fff" d="M583.292 264.319V280.966H693.019V264.319H583.292ZM597.791 298.329C606.383 304.057 617.302 312.828 622.314 318.735L633.77 304.236C628.4 298.687 617.123 290.632 608.71 285.441L597.791 298.329ZM656.145 257.696C661.694 261.455 668.496 267.362 671.718 271.3L682.816 261.097C679.415 257.159 672.255 251.789 666.527 248.209L656.145 257.696ZM595.106 272.911C593.853 293.854 590.631 314.439 572.373 326.611C576.848 329.833 582.039 336.456 584.545 340.931C606.92 325.179 611.932 300.298 614.08 272.911H595.106ZM625.894 173.208C625.894 261.992 635.56 341.11 674.94 341.289C688.902 341.289 694.093 335.919 697.315 315.334C693.019 313.365 687.112 309.785 683.353 305.668C682.458 319.988 680.847 323.21 676.372 323.21C654.892 323.21 642.899 255.011 644.51 173.208H625.894ZM666.885 280.608C657.04 301.73 637.529 318.198 611.932 327.148C615.512 330.728 620.882 337.172 623.209 340.931C650.238 330.37 672.255 312.291 684.606 287.231L666.885 280.608ZM641.825 206.681C648.985 212.767 657.935 221.359 662.052 227.266L670.286 213.841C666.169 208.471 657.219 200.416 649.701 195.046L641.825 206.681ZM675.298 227.445C679.236 236.216 682.816 247.851 683.89 255.011L696.778 249.641C695.704 242.66 691.587 231.562 687.291 222.97L675.298 227.445ZM645.047 237.111L648.09 252.505C659.546 251.073 672.255 249.462 685.322 247.672L684.964 234.068C669.928 235.321 655.787 236.395 645.047 237.111ZM661.515 174.103C658.83 183.053 653.639 195.583 649.343 203.638L660.799 208.829C665.811 201.49 671.897 190.213 677.625 180.01L661.515 174.103ZM676.551 193.256C669.928 207.397 658.114 226.908 648.627 238.901L659.725 245.166C669.57 233.71 681.742 215.452 691.408 200.416L676.551 193.256ZM579.175 206.681C586.514 212.767 595.464 221.359 599.402 227.266L607.636 213.841C603.698 208.471 594.569 200.416 587.23 195.046L579.175 206.681ZM609.784 229.593C613.185 238.543 616.228 249.999 616.944 257.338L629.832 252.505C629.116 245.524 625.715 234.247 621.777 225.655L609.784 229.593ZM580.428 239.975L583.292 255.727C594.927 254.474 607.994 253.042 621.24 251.431L620.882 236.932C605.667 238.185 591.347 239.259 580.428 239.975ZM599.044 174.103C596.18 183.053 590.989 196.12 586.872 204.354L598.328 209.366C603.161 202.027 609.068 190.213 614.975 180.189L599.044 174.103ZM614.08 193.256C606.92 208.292 594.569 228.877 584.545 241.407L595.643 247.493C606.025 235.5 618.734 216.347 628.758 200.416L614.08 193.256ZM528.876 210.082V229.772H583.471V210.082H528.876ZM548.029 173.029V341.11H567.182V173.029H548.029ZM547.671 223.686C543.912 246.419 534.962 274.701 524.58 290.095C527.623 294.928 531.919 302.983 533.709 308.353C545.344 290.095 554.473 255.548 558.769 227.445L547.671 223.686ZM566.287 235.679L558.411 243.555C562.886 251.968 572.552 272.911 576.132 283.472L586.335 268.615C583.65 263.424 569.867 240.512 566.287 235.679ZM732.399 172.134C728.64 186.454 721.301 205.428 714.857 217.6L733.473 222.433C740.275 210.977 748.33 193.435 754.774 176.967L732.399 172.134ZM705.37 208.829L706.981 229.235C727.387 227.982 754.953 226.371 781.266 224.402L781.445 205.786C753.7 207.039 724.702 208.292 705.37 208.829ZM715.931 237.648V340.931H735.8V255.369H772.853V237.648H715.931ZM762.65 237.648V318.914C762.65 321.241 761.934 321.778 759.786 321.778C757.459 321.957 750.299 321.957 744.034 321.599C746.719 326.79 749.762 335.024 750.836 340.752C761.755 340.752 769.81 340.394 776.075 337.172C782.161 333.95 783.951 328.58 783.951 319.451V237.648H762.65ZM725.06 264.677V280.608H774.643V264.677H725.06ZM725.06 290.99V306.921H774.643V290.99H725.06ZM797.913 173.745V227.803C797.913 247.672 803.104 253.758 824.226 253.758C828.343 253.758 844.453 253.758 848.928 253.758C865.575 253.758 871.303 247.314 873.63 224.044C867.723 222.791 858.952 219.569 854.477 216.168C853.761 231.92 852.687 234.605 846.78 234.605C843.021 234.605 830.133 234.605 827.269 234.605C820.467 234.605 819.393 233.71 819.393 227.445V173.745H797.913ZM851.613 184.306C839.799 191.108 821.362 199.163 804.715 204.354C807.042 208.471 809.906 214.915 810.801 219.211C828.522 214.378 849.286 207.576 865.217 199.879L851.613 184.306ZM797.913 257.338V313.902C797.913 333.771 803.283 339.857 824.405 339.857C828.701 339.857 845.348 339.857 849.823 339.857C867.007 339.857 872.735 332.697 875.062 307.458C869.155 306.205 860.563 302.804 856.088 299.582C855.193 317.84 854.119 321.062 847.854 321.062C843.916 321.062 830.491 321.062 827.448 321.062C820.467 321.062 819.214 320.346 819.214 313.723V257.338H797.913ZM853.045 264.856C840.873 272.732 821.72 281.503 804.357 287.052C806.505 291.169 809.548 297.971 810.622 302.088C829.059 296.897 850.718 289.379 867.007 280.608L853.045 264.856ZM756.743 191.824C765.335 205.249 773.927 223.149 776.97 234.605L796.481 226.729C793.08 214.915 783.772 197.91 775.001 185.022L756.743 191.824Z"/><path fill="url(#paint4_linear_209_137)" d="M583.292 264.319V280.966H693.019V264.319H583.292ZM597.791 298.329C606.383 304.057 617.302 312.828 622.314 318.735L633.77 304.236C628.4 298.687 617.123 290.632 608.71 285.441L597.791 298.329ZM656.145 257.696C661.694 261.455 668.496 267.362 671.718 271.3L682.816 261.097C679.415 257.159 672.255 251.789 666.527 248.209L656.145 257.696ZM595.106 272.911C593.853 293.854 590.631 314.439 572.373 326.611C576.848 329.833 582.039 336.456 584.545 340.931C606.92 325.179 611.932 300.298 614.08 272.911H595.106ZM625.894 173.208C625.894 261.992 635.56 341.11 674.94 341.289C688.902 341.289 694.093 335.919 697.315 315.334C693.019 313.365 687.112 309.785 683.353 305.668C682.458 319.988 680.847 323.21 676.372 323.21C654.892 323.21 642.899 255.011 644.51 173.208H625.894ZM666.885 280.608C657.04 301.73 637.529 318.198 611.932 327.148C615.512 330.728 620.882 337.172 623.209 340.931C650.238 330.37 672.255 312.291 684.606 287.231L666.885 280.608ZM641.825 206.681C648.985 212.767 657.935 221.359 662.052 227.266L670.286 213.841C666.169 208.471 657.219 200.416 649.701 195.046L641.825 206.681ZM675.298 227.445C679.236 236.216 682.816 247.851 683.89 255.011L696.778 249.641C695.704 242.66 691.587 231.562 687.291 222.97L675.298 227.445ZM645.047 237.111L648.09 252.505C659.546 251.073 672.255 249.462 685.322 247.672L684.964 234.068C669.928 235.321 655.787 236.395 645.047 237.111ZM661.515 174.103C658.83 183.053 653.639 195.583 649.343 203.638L660.799 208.829C665.811 201.49 671.897 190.213 677.625 180.01L661.515 174.103ZM676.551 193.256C669.928 207.397 658.114 226.908 648.627 238.901L659.725 245.166C669.57 233.71 681.742 215.452 691.408 200.416L676.551 193.256ZM579.175 206.681C586.514 212.767 595.464 221.359 599.402 227.266L607.636 213.841C603.698 208.471 594.569 200.416 587.23 195.046L579.175 206.681ZM609.784 229.593C613.185 238.543 616.228 249.999 616.944 257.338L629.832 252.505C629.116 245.524 625.715 234.247 621.777 225.655L609.784 229.593ZM580.428 239.975L583.292 255.727C594.927 254.474 607.994 253.042 621.24 251.431L620.882 236.932C605.667 238.185 591.347 239.259 580.428 239.975ZM599.044 174.103C596.18 183.053 590.989 196.12 586.872 204.354L598.328 209.366C603.161 202.027 609.068 190.213 614.975 180.189L599.044 174.103ZM614.08 193.256C606.92 208.292 594.569 228.877 584.545 241.407L595.643 247.493C606.025 235.5 618.734 216.347 628.758 200.416L614.08 193.256ZM528.876 210.082V229.772H583.471V210.082H528.876ZM548.029 173.029V341.11H567.182V173.029H548.029ZM547.671 223.686C543.912 246.419 534.962 274.701 524.58 290.095C527.623 294.928 531.919 302.983 533.709 308.353C545.344 290.095 554.473 255.548 558.769 227.445L547.671 223.686ZM566.287 235.679L558.411 243.555C562.886 251.968 572.552 272.911 576.132 283.472L586.335 268.615C583.65 263.424 569.867 240.512 566.287 235.679ZM732.399 172.134C728.64 186.454 721.301 205.428 714.857 217.6L733.473 222.433C740.275 210.977 748.33 193.435 754.774 176.967L732.399 172.134ZM705.37 208.829L706.981 229.235C727.387 227.982 754.953 226.371 781.266 224.402L781.445 205.786C753.7 207.039 724.702 208.292 705.37 208.829ZM715.931 237.648V340.931H735.8V255.369H772.853V237.648H715.931ZM762.65 237.648V318.914C762.65 321.241 761.934 321.778 759.786 321.778C757.459 321.957 750.299 321.957 744.034 321.599C746.719 326.79 749.762 335.024 750.836 340.752C761.755 340.752 769.81 340.394 776.075 337.172C782.161 333.95 783.951 328.58 783.951 319.451V237.648H762.65ZM725.06 264.677V280.608H774.643V264.677H725.06ZM725.06 290.99V306.921H774.643V290.99H725.06ZM797.913 173.745V227.803C797.913 247.672 803.104 253.758 824.226 253.758C828.343 253.758 844.453 253.758 848.928 253.758C865.575 253.758 871.303 247.314 873.63 224.044C867.723 222.791 858.952 219.569 854.477 216.168C853.761 231.92 852.687 234.605 846.78 234.605C843.021 234.605 830.133 234.605 827.269 234.605C820.467 234.605 819.393 233.71 819.393 227.445V173.745H797.913ZM851.613 184.306C839.799 191.108 821.362 199.163 804.715 204.354C807.042 208.471 809.906 214.915 810.801 219.211C828.522 214.378 849.286 207.576 865.217 199.879L851.613 184.306ZM797.913 257.338V313.902C797.913 333.771 803.283 339.857 824.405 339.857C828.701 339.857 845.348 339.857 849.823 339.857C867.007 339.857 872.735 332.697 875.062 307.458C869.155 306.205 860.563 302.804 856.088 299.582C855.193 317.84 854.119 321.062 847.854 321.062C843.916 321.062 830.491 321.062 827.448 321.062C820.467 321.062 819.214 320.346 819.214 313.723V257.338H797.913ZM853.045 264.856C840.873 272.732 821.72 281.503 804.357 287.052C806.505 291.169 809.548 297.971 810.622 302.088C829.059 296.897 850.718 289.379 867.007 280.608L853.045 264.856ZM756.743 191.824C765.335 205.249 773.927 223.149 776.97 234.605L796.481 226.729C793.08 214.915 783.772 197.91 775.001 185.022L756.743 191.824Z"/><defs><linearGradient id="paint0_linear_209_137" x1="0" x2="88.064" y1=".777" y2="9.505" gradientUnits="userSpaceOnUse"><stop stop-color="#00E1C3"/><stop offset="1" stop-color="#00D1D5"/></linearGradient><linearGradient id="paint1_linear_209_137" x1="189" x2="436.787" y1="112.429" y2="360.973" gradientUnits="userSpaceOnUse"><stop stop-color="#00E1C3"/><stop offset="1" stop-color="#00D1D5"/></linearGradient><linearGradient id="paint2_linear_209_137" x1="189" x2="436.787" y1="112.429" y2="360.973" gradientUnits="userSpaceOnUse"><stop stop-color="#00E1C3"/><stop offset="1" stop-color="#00D1D5"/></linearGradient><linearGradient id="paint3_linear_209_137" x1="189" x2="436.787" y1="112.429" y2="360.973" gradientUnits="userSpaceOnUse"><stop stop-color="#00E1C3"/><stop offset="1" stop-color="#00D1D5"/></linearGradient><linearGradient id="paint4_linear_209_137" x1="521" x2="697.194" y1="159.371" y2="495.208" gradientUnits="userSpaceOnUse"><stop stop-color="#00E1C3"/><stop offset="1" stop-color="#00D1D5"/></linearGradient></defs></svg>