<svg xmlns="http://www.w3.org/2000/svg" width="1785" height="440" fill="none" viewBox="0 0 1785 440"><path fill="#132636" d="M3 37C3 16.5655 19.5655 0 40 0H1733.49C1758.8 0 1776.64 24.8315 1768.56 48.8115L1645.61 413.811C1640.54 428.863 1626.42 439 1610.54 439H40C19.5655 439 3 422.435 3 402V37Z"/><path fill="#132636" d="M0 37C0 16.5655 16.5655 0 37 0H39V440H37C16.5655 440 0 423.435 0 403V37Z"/><path fill="url(#paint0_linear_209_117)" d="M0 37C0 16.5655 16.5655 0 37 0H39V440H37C16.5655 440 0 423.435 0 403V37Z"/><path fill="#01D8CE" d="M206.156 325C201.581 325 197.578 323.284 194.147 319.853C190.716 316.422 189 312.419 189 307.844V266.955H206.156V307.844H354.844V266.955H372V307.844C372 312.419 370.284 316.422 366.853 319.853C363.422 323.284 359.419 325 354.844 325H206.156ZM280.5 281.252L225.314 226.066L237.609 213.77L271.922 248.083V142H289.078V248.083L323.391 213.77L335.686 226.066L280.5 281.252Z"/><path fill="#fff" d="M507.011 147.114L516.627 111.789H529.101L513.517 158H505.456L507.011 147.114ZM498.283 111.789L507.899 147.114L509.518 158H501.361L485.873 111.789H498.283ZM551.159 149.653V123.659H561.886V158H551.857L551.159 149.653ZM552.174 142.67L554.967 142.607C554.967 144.913 554.692 147.05 554.142 149.018C553.592 150.965 552.777 152.657 551.698 154.096C550.64 155.535 549.328 156.656 547.763 157.46C546.218 158.243 544.43 158.635 542.399 158.635C540.706 158.635 539.151 158.402 537.733 157.937C536.337 157.45 535.131 156.699 534.115 155.683C533.1 154.646 532.306 153.324 531.735 151.716C531.185 150.087 530.91 148.14 530.91 145.876V123.659H541.605V145.939C541.605 146.701 541.701 147.357 541.891 147.907C542.082 148.457 542.357 148.923 542.716 149.304C543.076 149.663 543.52 149.938 544.049 150.129C544.599 150.298 545.224 150.383 545.922 150.383C547.53 150.383 548.789 150.044 549.699 149.367C550.609 148.69 551.243 147.77 551.603 146.606C551.984 145.442 552.174 144.13 552.174 142.67ZM584.42 158.635C581.627 158.635 579.131 158.201 576.93 157.333C574.73 156.445 572.868 155.228 571.344 153.684C569.842 152.139 568.689 150.362 567.885 148.352C567.102 146.341 566.71 144.215 566.71 141.972V140.766C566.71 138.248 567.06 135.921 567.758 133.784C568.456 131.625 569.493 129.742 570.868 128.134C572.243 126.526 573.968 125.278 576.042 124.389C578.115 123.479 580.527 123.024 583.278 123.024C585.711 123.024 587.89 123.416 589.816 124.199C591.741 124.982 593.371 126.103 594.704 127.563C596.058 129.023 597.084 130.79 597.782 132.863C598.502 134.937 598.861 137.264 598.861 139.846V144.194H570.805V137.497H588.419V136.672C588.441 135.529 588.24 134.556 587.816 133.752C587.414 132.948 586.822 132.334 586.039 131.911C585.256 131.488 584.304 131.276 583.183 131.276C582.019 131.276 581.056 131.53 580.294 132.038C579.554 132.546 578.972 133.244 578.549 134.133C578.147 135 577.861 136.005 577.692 137.148C577.523 138.291 577.438 139.497 577.438 140.766V141.972C577.438 143.242 577.607 144.395 577.946 145.432C578.306 146.468 578.813 147.357 579.469 148.098C580.146 148.817 580.95 149.378 581.881 149.78C582.833 150.182 583.913 150.383 585.119 150.383C586.579 150.383 588.017 150.108 589.435 149.558C590.853 149.007 592.069 148.098 593.085 146.828L597.941 152.604C597.243 153.599 596.248 154.562 594.958 155.493C593.688 156.424 592.165 157.185 590.387 157.778C588.61 158.349 586.621 158.635 584.42 158.635ZM626.093 111.789V158H614.953V111.789H626.093ZM639.994 111.789V120.39H601.369V111.789H639.994ZM662.179 149.653V123.659H672.907V158H662.877L662.179 149.653ZM663.195 142.67L665.988 142.607C665.988 144.913 665.713 147.05 665.163 149.018C664.612 150.965 663.798 152.657 662.719 154.096C661.661 155.535 660.349 156.656 658.783 157.46C657.239 158.243 655.451 158.635 653.419 158.635C651.727 158.635 650.172 158.402 648.754 157.937C647.357 157.45 646.151 156.699 645.136 155.683C644.12 154.646 643.327 153.324 642.755 151.716C642.205 150.087 641.93 148.14 641.93 145.876V123.659H652.626V145.939C652.626 146.701 652.721 147.357 652.912 147.907C653.102 148.457 653.377 148.923 653.737 149.304C654.097 149.663 654.541 149.938 655.07 150.129C655.62 150.298 656.244 150.383 656.942 150.383C658.55 150.383 659.809 150.044 660.719 149.367C661.629 148.69 662.264 147.77 662.624 146.606C663.004 145.442 663.195 144.13 663.195 142.67ZM678.905 109.25H689.601V149.558L688.49 158H678.905V109.25ZM710.675 140.449V141.115C710.675 143.718 710.411 146.088 709.882 148.225C709.353 150.362 708.538 152.213 707.438 153.779C706.338 155.323 704.952 156.519 703.28 157.365C701.609 158.212 699.63 158.635 697.345 158.635C695.272 158.635 693.494 158.19 692.013 157.302C690.532 156.392 689.294 155.144 688.3 153.557C687.305 151.949 686.501 150.097 685.888 148.002C685.274 145.887 684.787 143.623 684.428 141.21V140.417C684.787 138.026 685.274 135.783 685.888 133.688C686.501 131.573 687.305 129.721 688.3 128.134C689.294 126.526 690.521 125.278 691.981 124.389C693.463 123.479 695.229 123.024 697.282 123.024C699.588 123.024 701.577 123.458 703.249 124.326C704.941 125.193 706.338 126.41 707.438 127.976C708.538 129.541 709.353 131.382 709.882 133.498C710.411 135.614 710.675 137.931 710.675 140.449ZM699.979 141.115V140.449C699.979 139.2 699.905 138.026 699.757 136.926C699.609 135.826 699.345 134.852 698.964 134.006C698.583 133.16 698.043 132.493 697.345 132.006C696.647 131.52 695.737 131.276 694.616 131.276C693.473 131.276 692.51 131.467 691.728 131.848C690.966 132.229 690.352 132.779 689.887 133.498C689.442 134.196 689.125 135.064 688.935 136.101C688.744 137.116 688.66 138.269 688.681 139.56V142.067C688.638 143.824 688.797 145.326 689.157 146.574C689.516 147.823 690.141 148.775 691.029 149.431C691.918 150.087 693.135 150.415 694.679 150.415C695.822 150.415 696.742 150.192 697.44 149.748C698.16 149.304 698.699 148.669 699.059 147.844C699.419 147.019 699.662 146.035 699.789 144.892C699.916 143.75 699.979 142.491 699.979 141.115ZM732.067 158.635C729.274 158.635 726.777 158.201 724.577 157.333C722.376 156.445 720.514 155.228 718.991 153.684C717.488 152.139 716.335 150.362 715.531 148.352C714.748 146.341 714.357 144.215 714.357 141.972V140.766C714.357 138.248 714.706 135.921 715.404 133.784C716.103 131.625 717.139 129.742 718.515 128.134C719.89 126.526 721.614 125.278 723.688 124.389C725.762 123.479 728.174 123.024 730.924 123.024C733.358 123.024 735.537 123.416 737.462 124.199C739.388 124.982 741.017 126.103 742.35 127.563C743.704 129.023 744.73 130.79 745.429 132.863C746.148 134.937 746.508 137.264 746.508 139.846V144.194H718.451V137.497H736.066V136.672C736.087 135.529 735.886 134.556 735.463 133.752C735.061 132.948 734.468 132.334 733.686 131.911C732.903 131.488 731.951 131.276 730.829 131.276C729.665 131.276 728.703 131.53 727.941 132.038C727.2 132.546 726.618 133.244 726.195 134.133C725.793 135 725.508 136.005 725.338 137.148C725.169 138.291 725.084 139.497 725.084 140.766V141.972C725.084 143.242 725.254 144.395 725.592 145.432C725.952 146.468 726.46 147.357 727.116 148.098C727.793 148.817 728.597 149.378 729.528 149.78C730.48 150.182 731.559 150.383 732.765 150.383C734.225 150.383 735.664 150.108 737.082 149.558C738.499 149.007 739.716 148.098 740.731 146.828L745.587 152.604C744.889 153.599 743.895 154.562 742.604 155.493C741.334 156.424 739.811 157.185 738.034 157.778C736.256 158.349 734.267 158.635 732.067 158.635Z"/><path fill="#fff" d="M497.098 255.548L508.196 278.102C536.478 269.689 565.476 256.264 585.703 244.271C606.825 231.562 628.663 214.736 644.952 198.268L625.62 180.01C613.985 194.151 593.579 212.051 575.321 223.328C555.273 235.679 529.139 247.314 497.098 255.548ZM571.562 234.963V309.606C571.562 317.482 570.846 328.759 570.13 333.055H598.591C597.338 328.58 596.98 317.482 596.98 309.606V228.877L571.562 234.963ZM708.139 188.96L691.134 207.039C704.201 215.989 726.755 235.5 736.063 245.524L754.321 226.908C743.76 215.989 720.49 197.373 708.139 188.96ZM685.585 308.174L700.8 331.802C725.86 327.506 748.951 317.661 767.209 306.742C796.028 289.379 819.835 264.677 833.26 240.333L819.477 215.273C808.021 239.438 784.751 266.646 754.142 284.904C736.779 295.107 713.688 304.236 685.585 308.174ZM989.611 203.817L975.112 192.898C971.353 194.151 964.372 195.046 956.496 195.046C948.62 195.046 902.796 195.046 893.309 195.046C888.118 195.046 877.02 194.509 872.187 193.793V219.39C876.125 219.032 885.97 218.137 893.309 218.137C901.006 218.137 946.651 218.137 954.169 218.137C950.052 230.846 939.133 248.567 927.319 261.992C910.493 280.608 882.927 302.446 853.929 313.186L872.545 332.518C900.29 319.451 927.319 297.255 947.367 274.164C962.761 256.264 976.007 231.92 983.346 214.915C984.957 211.156 988.179 205.786 989.611 203.817ZM949.694 259.307L932.868 275.954C952.021 293.317 971.532 314.618 984.778 333.055L1005.18 315.334C993.549 301.014 968.131 274.343 949.694 259.307ZM1075.53 307.995C1075.53 314.976 1074.99 325.895 1073.74 332.876H1101.84C1100.95 325.537 1100.23 313.007 1100.23 307.995C1100.23 294.749 1100.05 224.76 1100.05 205.07C1100.05 197.552 1100.95 189.855 1101.66 183.411H1073.74C1074.99 189.855 1075.53 198.626 1075.53 205.07C1075.53 220.106 1075.53 294.212 1075.53 307.995ZM1094.86 229.772V255.548C1114.37 261.992 1144.45 273.448 1164.85 284.009L1174.88 259.128C1157.33 250.536 1118.67 236.395 1094.86 229.772ZM1214.79 242.123V270.405C1221.59 269.868 1233.59 269.331 1243.61 269.331C1264.73 269.331 1323.62 269.331 1339.91 269.331C1347.43 269.331 1356.56 270.226 1360.86 270.405V242.123C1356.02 242.481 1348.15 243.376 1339.73 243.376C1323.8 243.376 1264.73 243.376 1243.61 243.376C1234.3 243.376 1221.42 242.66 1214.79 242.123ZM1467.36 321.062L1482.4 333.413C1484.19 332.16 1486.34 330.191 1490.09 328.222C1510.32 318.019 1535.92 298.687 1550.78 279.355L1537.17 259.486C1525 276.849 1507.46 290.99 1492.78 297.255C1492.78 286.336 1492.78 218.137 1492.78 203.817C1492.78 195.762 1494.03 188.602 1494.03 188.244H1467.54C1467.54 188.602 1468.79 195.583 1468.79 203.638C1468.79 218.137 1468.79 298.508 1468.79 307.995C1468.79 312.828 1468.26 317.661 1467.36 321.062ZM1384.48 318.556L1406.32 333.055C1421.72 319.451 1432.81 301.73 1438.36 281.682C1443.02 263.603 1443.55 225.834 1443.55 204.533C1443.55 197.194 1444.81 189.139 1444.81 188.423H1418.49C1419.57 192.898 1420.28 197.552 1420.28 204.891C1420.28 226.371 1420.11 260.381 1414.91 275.596C1410.08 290.99 1400.42 307.458 1384.48 318.556Z"/><path fill="url(#paint1_linear_209_117)" d="M497.098 255.548L508.196 278.102C536.478 269.689 565.476 256.264 585.703 244.271C606.825 231.562 628.663 214.736 644.952 198.268L625.62 180.01C613.985 194.151 593.579 212.051 575.321 223.328C555.273 235.679 529.139 247.314 497.098 255.548ZM571.562 234.963V309.606C571.562 317.482 570.846 328.759 570.13 333.055H598.591C597.338 328.58 596.98 317.482 596.98 309.606V228.877L571.562 234.963ZM708.139 188.96L691.134 207.039C704.201 215.989 726.755 235.5 736.063 245.524L754.321 226.908C743.76 215.989 720.49 197.373 708.139 188.96ZM685.585 308.174L700.8 331.802C725.86 327.506 748.951 317.661 767.209 306.742C796.028 289.379 819.835 264.677 833.26 240.333L819.477 215.273C808.021 239.438 784.751 266.646 754.142 284.904C736.779 295.107 713.688 304.236 685.585 308.174ZM989.611 203.817L975.112 192.898C971.353 194.151 964.372 195.046 956.496 195.046C948.62 195.046 902.796 195.046 893.309 195.046C888.118 195.046 877.02 194.509 872.187 193.793V219.39C876.125 219.032 885.97 218.137 893.309 218.137C901.006 218.137 946.651 218.137 954.169 218.137C950.052 230.846 939.133 248.567 927.319 261.992C910.493 280.608 882.927 302.446 853.929 313.186L872.545 332.518C900.29 319.451 927.319 297.255 947.367 274.164C962.761 256.264 976.007 231.92 983.346 214.915C984.957 211.156 988.179 205.786 989.611 203.817ZM949.694 259.307L932.868 275.954C952.021 293.317 971.532 314.618 984.778 333.055L1005.18 315.334C993.549 301.014 968.131 274.343 949.694 259.307ZM1075.53 307.995C1075.53 314.976 1074.99 325.895 1073.74 332.876H1101.84C1100.95 325.537 1100.23 313.007 1100.23 307.995C1100.23 294.749 1100.05 224.76 1100.05 205.07C1100.05 197.552 1100.95 189.855 1101.66 183.411H1073.74C1074.99 189.855 1075.53 198.626 1075.53 205.07C1075.53 220.106 1075.53 294.212 1075.53 307.995ZM1094.86 229.772V255.548C1114.37 261.992 1144.45 273.448 1164.85 284.009L1174.88 259.128C1157.33 250.536 1118.67 236.395 1094.86 229.772ZM1214.79 242.123V270.405C1221.59 269.868 1233.59 269.331 1243.61 269.331C1264.73 269.331 1323.62 269.331 1339.91 269.331C1347.43 269.331 1356.56 270.226 1360.86 270.405V242.123C1356.02 242.481 1348.15 243.376 1339.73 243.376C1323.8 243.376 1264.73 243.376 1243.61 243.376C1234.3 243.376 1221.42 242.66 1214.79 242.123ZM1467.36 321.062L1482.4 333.413C1484.19 332.16 1486.34 330.191 1490.09 328.222C1510.32 318.019 1535.92 298.687 1550.78 279.355L1537.17 259.486C1525 276.849 1507.46 290.99 1492.78 297.255C1492.78 286.336 1492.78 218.137 1492.78 203.817C1492.78 195.762 1494.03 188.602 1494.03 188.244H1467.54C1467.54 188.602 1468.79 195.583 1468.79 203.638C1468.79 218.137 1468.79 298.508 1468.79 307.995C1468.79 312.828 1468.26 317.661 1467.36 321.062ZM1384.48 318.556L1406.32 333.055C1421.72 319.451 1432.81 301.73 1438.36 281.682C1443.02 263.603 1443.55 225.834 1443.55 204.533C1443.55 197.194 1444.81 189.139 1444.81 188.423H1418.49C1419.57 192.898 1420.28 197.552 1420.28 204.891C1420.28 226.371 1420.11 260.381 1414.91 275.596C1410.08 290.99 1400.42 307.458 1384.48 318.556Z"/><defs><linearGradient id="paint0_linear_209_117" x1="0" x2="88.064" y1=".777" y2="9.505" gradientUnits="userSpaceOnUse"><stop stop-color="#00E1C3"/><stop offset="1" stop-color="#00D1D5"/></linearGradient><linearGradient id="paint1_linear_209_117" x1="486" x2="558.866" y1="159.371" y2="574.868" gradientUnits="userSpaceOnUse"><stop stop-color="#00E1C3"/><stop offset="1" stop-color="#00D1D5"/></linearGradient></defs></svg>