<svg xmlns="http://www.w3.org/2000/svg" width="2381" height="512" fill="none" viewBox="0 0 2381 512"><rect width="512" height="512" fill="url(#paint0_linear_209_44)" rx="100"/><path fill="url(#paint1_linear_209_44)" fill-rule="evenodd" d="M327.768 269.391C338.454 263.236 338.454 247.814 327.766 241.66L327.761 241.658L291.527 220.81L331.399 202.218L345.714 210.453L345.736 210.466L386.392 233.857C403.102 243.471 403.102 267.582 386.392 277.196L345.743 300.582L345.714 300.599L328.778 310.343L288.905 291.75L327.761 269.395L327.768 269.391ZM206 290.605V311.783V311.79C206.005 324.092 219.314 331.788 229.979 325.652L252.89 312.471L292.763 331.063L247.932 356.856L247.903 356.873L207.467 380.137C190.801 389.725 170 377.695 170 358.467L170 311.783L170 273.818L206 290.605ZM295.384 181.497L255.512 200.09L229.979 185.4L229.964 185.392C219.3 179.27 206 186.968 206 199.269V223.177L170 239.965L170 199.269L170 152.585C170 133.357 190.801 121.327 207.467 130.915L247.917 154.187L247.932 154.196L295.384 181.497Z" clip-rule="evenodd"/><path fill="#213547" d="M767.5 203.5L747.75 211.75C754.5 221.5 762 236.25 767.25 246.5L787.25 237.75C782.5 228.5 773.75 212.75 767.5 203.5ZM797 192.25L777.25 200.5C784 210 792.25 224.5 797.25 235L817.25 226.25C812.75 217.5 803.5 201.75 797 192.25ZM659.5 214.5H622.75C623.75 222 624.5 234.75 624.5 240.5C624.5 256 624.5 347.75 624.5 376.5C624.5 398.25 637.25 410 658.75 414C669.5 415.75 684.75 416.75 701 416.75C728.5 416.75 766.25 415.25 790 411.75V375.25C769.25 380.75 729 383.75 702.75 383.75C691.75 383.75 681.5 383.5 674 382.25C662.75 380.25 657.75 377.5 657.75 366.5C657.75 347.75 657.75 255.75 657.75 240.5C657.75 233.25 658.5 222 659.5 214.5ZM643 291.25L643.25 324C677.25 316 726.25 301.25 755.75 290C764 286.75 775.25 282 784.75 278L771.5 246.5C761.5 252.25 753 256.25 744.25 260C718 270.75 675.25 284.25 643 291.25ZM1022.5 287L998.5 275.25C995.25 277 985 278 980 278C968 278 928.5 278 915.75 278C909.25 278 897.75 277.25 891 276.25V309.25C898.25 308.75 908.25 308.25 916 308.25C923.25 308.25 971.75 308.25 983.75 308.25C982.5 325 975 373.25 971.75 389.75H1006.25C1009.25 371.75 1017.75 315 1020.25 297.5C1020.5 294.75 1021.5 290.25 1022.5 287ZM868.25 377.5V410.25C877.5 409.75 884 409.5 892.75 409.5C905.5 409.5 1011.5 409.5 1024.5 409.5C1031 409.5 1043.25 409.75 1048.5 410V377.75C1042 378.5 1030.25 379 1024 379C1011.75 379 907.75 379 892.75 379C884.25 379 874.75 378.25 868.25 377.5ZM1105.75 290.25V329.75C1115.25 329 1132 328.25 1146 328.25C1175.5 328.25 1257.75 328.25 1280.5 328.25C1291 328.25 1303.75 329.5 1309.75 329.75V290.25C1303 290.75 1292 292 1280.25 292C1258 292 1175.5 292 1146 292C1133 292 1115 291 1105.75 290.25ZM1371 226.5L1379 255.5C1400.75 255 1437.5 254 1466 250C1485.25 247.25 1505.25 244 1520.75 240C1524.75 239 1531.5 237.25 1540 235L1519.25 207.5C1506.75 213.5 1481.5 219 1456.25 222.75C1428.75 226.75 1390.25 227 1371 226.5ZM1381.75 399L1413.75 420.5C1462 391.5 1478.5 348.75 1478.5 298.25C1478.5 298.25 1478.5 265 1478.5 243.5L1445.75 247.25C1445.75 282.75 1445.75 299 1445.75 299C1445.75 345.75 1426 378.75 1381.75 399ZM1352.25 286.5V318.75C1358.75 318.25 1368 317.75 1375.75 317.75C1390.5 317.75 1526.5 317.75 1542.25 317.75C1549.25 317.75 1557.5 318.25 1564.25 318.75V286.5C1558.75 287 1547 287.75 1541.75 287.75C1525 287.75 1391.25 287.75 1375.5 287.75C1367.5 287.75 1359.25 287 1352.25 286.5ZM1772.5 287L1748.5 275.25C1745.25 277 1735 278 1730 278C1718 278 1678.5 278 1665.75 278C1659.25 278 1647.75 277.25 1641 276.25V309.25C1648.25 308.75 1658.25 308.25 1666 308.25C1673.25 308.25 1721.75 308.25 1733.75 308.25C1732.5 325 1725 373.25 1721.75 389.75H1756.25C1759.25 371.75 1767.75 315 1770.25 297.5C1770.5 294.75 1771.5 290.25 1772.5 287ZM1618.25 377.5V410.25C1627.5 409.75 1634 409.5 1642.75 409.5C1655.5 409.5 1761.5 409.5 1774.5 409.5C1781 409.5 1793.25 409.75 1798.5 410V377.75C1792 378.5 1780.25 379 1774 379C1761.75 379 1657.75 379 1642.75 379C1634.25 379 1624.75 378.25 1618.25 377.5ZM1855.75 290.25V329.75C1865.25 329 1882 328.25 1896 328.25C1925.5 328.25 2007.75 328.25 2030.5 328.25C2041 328.25 2053.75 329.5 2059.75 329.75V290.25C2053 290.75 2042 292 2030.25 292C2008 292 1925.5 292 1896 292C1883 292 1865 291 1855.75 290.25ZM2257.86 195.5L2237.11 204C2243.61 214 2251.11 226.75 2256.11 237.25L2276.86 228.5C2272.36 219.25 2264.11 205 2257.86 195.5ZM2292.61 189L2271.86 197.5C2278.86 206.75 2286.61 220.75 2291.86 231L2312.61 222.25C2307.86 213.25 2299.11 198.25 2292.61 189ZM2283.61 242.5L2258.86 226.75C2252.36 228.5 2244.36 228.75 2239.36 228.75C2225.36 228.75 2142.36 228.75 2123.61 228.75C2115.36 228.75 2101.36 227.5 2093.86 226.5V262C2100.36 261.5 2112.36 260.75 2123.61 260.75C2142.36 260.75 2225.11 260.75 2240.11 260.75C2236.86 282.25 2227.36 310.75 2210.61 331.5C2190.61 356.75 2162.36 378.5 2112.86 390L2140.11 420C2184.61 405.75 2217.86 381 2240.61 351C2261.36 323.25 2272.36 284.25 2278.11 259.75C2279.36 254.5 2281.36 247.25 2283.61 242.5Z"/><path fill="#213547" d="M629.777 170H606.096L583.488 99.9805H606.193L616.887 143.096C617.733 146.579 618.205 149.183 618.303 150.908H618.791C618.986 148.727 619.491 146.025 620.305 142.803L630.705 99.9805H652.678L629.777 170ZM690.031 170V162.285H689.836C688.111 164.661 686.548 166.403 685.148 167.51C683.781 168.617 682.219 169.512 680.461 170.195C678.736 170.879 676.717 171.221 674.406 171.221C668.938 171.221 664.771 169.447 661.906 165.898C659.042 162.35 657.609 157.109 657.609 150.176V120H678.41V148.613C678.41 153.529 680.249 155.986 683.928 155.986C685.946 155.986 687.46 155.319 688.469 153.984C689.51 152.65 690.031 150.762 690.031 148.32V120H710.832V170H690.031ZM738.713 150.908C739.071 153.057 740.308 154.749 742.424 155.986C744.54 157.191 747.339 157.793 750.822 157.793C755.673 157.793 760.262 156.865 764.592 155.01V168.193C759.546 170.212 753.426 171.221 746.232 171.221C737.508 171.221 730.721 168.991 725.871 164.531C721.021 160.072 718.596 153.936 718.596 146.123C718.596 140.752 719.654 136.016 721.77 131.914C723.918 127.812 727.076 124.606 731.242 122.295C735.441 119.951 740.064 118.779 745.109 118.779C750.285 118.779 754.712 119.788 758.391 121.807C762.069 123.825 764.852 126.657 766.74 130.303C768.661 133.949 769.621 138.213 769.621 143.096V150.908H738.713ZM751.213 140.02C751.213 134.258 749.146 131.377 745.012 131.377C743.286 131.377 741.838 132.174 740.666 133.77C739.494 135.332 738.811 137.415 738.615 140.02H751.213ZM814.152 116.484V170H792.961V116.484H773.381V99.9805H833.977V116.484H814.152ZM872.355 170V162.285H872.16C870.435 164.661 868.872 166.403 867.473 167.51C866.105 168.617 864.543 169.512 862.785 170.195C861.06 170.879 859.042 171.221 856.73 171.221C851.262 171.221 847.095 169.447 844.23 165.898C841.366 162.35 839.934 157.109 839.934 150.176V120H860.734V148.613C860.734 153.529 862.574 155.986 866.252 155.986C868.27 155.986 869.784 155.319 870.793 153.984C871.835 152.65 872.355 150.762 872.355 148.32V120H893.156V170H872.355ZM959.514 143.486C959.514 148.955 958.602 153.805 956.779 158.037C954.989 162.236 952.434 165.492 949.113 167.803C945.793 170.081 942.033 171.221 937.834 171.221C934.611 171.221 931.844 170.635 929.533 169.463C927.255 168.258 925.448 166.712 924.113 164.824H923.918V170H903.117V95.9766H923.918V126.787H924.113C925.741 124.313 927.938 122.36 930.705 120.928C933.505 119.495 936.581 118.779 939.934 118.779C946.249 118.779 951.083 120.879 954.436 125.078C957.821 129.277 959.514 135.413 959.514 143.486ZM938.42 144.121C938.42 140.768 937.769 138.245 936.467 136.553C935.197 134.86 933.358 134.014 930.949 134.014C928.833 134.014 927.059 134.909 925.627 136.699C924.227 138.457 923.527 140.752 923.527 143.584V146.611C923.527 149.476 924.162 151.755 925.432 153.447C926.701 155.14 928.41 155.986 930.559 155.986C933.065 155.986 935.002 154.961 936.369 152.91C937.736 150.827 938.42 147.897 938.42 144.121ZM985.295 150.908C985.653 153.057 986.89 154.749 989.006 155.986C991.122 157.191 993.921 157.793 997.404 157.793C1002.25 157.793 1006.84 156.865 1011.17 155.01V168.193C1006.13 170.212 1000.01 171.221 992.814 171.221C984.09 171.221 977.303 168.991 972.453 164.531C967.603 160.072 965.178 153.936 965.178 146.123C965.178 140.752 966.236 136.016 968.352 131.914C970.5 127.812 973.658 124.606 977.824 122.295C982.023 119.951 986.646 118.779 991.691 118.779C996.867 118.779 1001.29 119.788 1004.97 121.807C1008.65 123.825 1011.43 126.657 1013.32 130.303C1015.24 133.949 1016.2 138.213 1016.2 143.096V150.908H985.295ZM997.795 140.02C997.795 134.258 995.728 131.377 991.594 131.377C989.868 131.377 988.42 132.174 987.248 133.77C986.076 135.332 985.393 137.415 985.197 140.02H997.795Z"/><defs><linearGradient id="paint0_linear_209_44" x1="0" x2="512" y1="0" y2="512" gradientUnits="userSpaceOnUse"><stop stop-color="#1B3245"/><stop offset="1" stop-color="#0C2028"/></linearGradient><linearGradient id="paint1_linear_209_44" x1="170" x2="431" y1="128" y2="389" gradientUnits="userSpaceOnUse"><stop stop-color="#00E1C3"/><stop offset="1" stop-color="#00D1D5"/></linearGradient></defs></svg>