<?xml version="1.0" encoding="UTF-8" standalone="no"?>
<svg
   width="1814.0405"
   height="440"
   fill="none"
   viewBox="0 0 1814.0405 440"
   version="1.1"
   id="svg47"
   xmlns="http://www.w3.org/2000/svg"
   xmlns:svg="http://www.w3.org/2000/svg">
  <path
     fill="#132636"
     d="M 3,37 C 3,16.5655 24.000116,0 49.904971,0 H 1767.1086 c 30.9193,0 53.383,23.1849 45.257,46.718 l -125.9462,365 C 1680.8542,427.824 1662.3204,439 1641.1625,439 H 49.904971 C 23.99999,439 3,422.435 3,402 Z"
     id="path2"
     style="stroke-width:1.12592" />
  <path
     fill="#132636"
     d="M 0,37 C 0,16.5655 16.5655,0 37,0 h 2 V 440 H 37 C 16.5655,440 0,423.435 0,403 Z"
     id="path4" />
  <path
     fill="url(#paint0_linear_201_150)"
     d="M 0,37 C 0,16.5655 16.5655,0 37,0 h 2 V 440 H 37 C 16.5655,440 0,423.435 0,403 Z"
     id="path6"
     style="fill:url(#paint0_linear_201_150)" />
  <path
     fill="url(#paint1_linear_201_150)"
     d="m 339.24,239.163 c 10.176,-5.844 10.175,-20.485 -0.002,-26.327 l -34.511,-19.794 37.97,-17.652 52.368,30.037 c 15.913,9.128 15.913,32.018 0,41.146 l -54.864,31.469 -37.97,-17.652 z"
     id="path8"
     style="fill:url(#paint1_linear_201_150)" />
  <path
     fill="url(#paint2_linear_201_150)"
     d="m 223.282,259.304 v 20.112 c 0.005,11.679 12.679,18.985 22.835,13.16 l 21.817,-12.514 37.97,17.652 -81.225,46.589 C 208.808,353.406 189,341.985 189,323.73 v -80.364 z"
     id="path10"
     style="fill:url(#paint2_linear_201_150)" />
  <path
     fill="url(#paint3_linear_201_150)"
     d="m 308.401,155.718 -37.97,17.652 -24.328,-13.954 c -10.155,-5.812 -22.821,1.497 -22.821,13.174 v 22.699 L 189,211.226 V 128.27 c 0,-18.255 19.808,-29.6763 35.679,-20.573 z"
     id="path12"
     style="fill:url(#paint3_linear_201_150)" />
  <path
     id="path1306"
     d="m 1586.1052,219.39318 h 29.3104 v 93.8281 h -29.3104 v -54.63189 l -25.7551,54.63189 h -29.3971 v -93.8281 h 29.3971 v 54.45846 z m -65.4716,22.37306 h -29.5706 v 71.45504 h -29.3972 v -71.45504 h -29.137 v -22.37306 h 88.1048 z m -134.7586,50.64289 q 6.1569,0 9.5389,-3.29525 3.3819,-3.38198 3.2952,-9.36547 h 27.4027 q 0,15.43568 -11.0998,25.32145 -11.0131,9.88577 -28.4433,9.88577 -20.4653,0 -32.2588,-12.83416 -11.7936,-12.83416 -11.7936,-35.55409 v -1.21404 q 0,-14.22163 5.2031,-25.06129 5.2897,-10.92638 15.1755,-16.73644 9.8858,-5.89678 23.4136,-5.89678 18.2974,0 29.0503,10.14593 10.753,10.14592 10.753,27.48938 h -27.4027 q 0,-7.28426 -3.5554,-11.18653 -3.5554,-3.90228 -9.5389,-3.90228 -11.36,0 -13.2677,14.48179 -0.6071,4.59601 -0.6071,12.66072 0,14.13492 3.382,19.59811 3.382,5.46318 10.753,5.46318 z m -143.0836,-26.96907 q 0,-14.0482 5.4632,-24.97458 5.4632,-11.01309 15.6958,-16.90987 10.2327,-5.89678 24.0207,-5.89678 21.0723,0 33.2127,13.09431 12.1404,13.0076 12.1404,35.46737 v 1.04061 q 0,21.93947 -12.2271,34.86035 -12.1404,12.83416 -32.9526,12.83416 -20.0316,0 -32.1721,-11.96699 -12.1404,-12.0537 -13.0943,-32.6057 z m 29.2237,1.82106 q 0,13.00759 4.0757,19.0778 4.0758,6.07021 12.0537,6.07021 15.6092,0 15.956,-24.02068 v -2.94839 q 0,-25.23473 -16.1294,-25.23473 -14.6552,0 -15.8693,21.76604 z m -41.5376,45.96016 h -29.3104 v -34.77363 h -25.5816 v 34.77363 h -29.2237 v -93.8281 h 29.2237 v 36.59469 h 25.5816 v -36.59469 h 29.3104 z m -99.5514,0 h -29.3105 v -34.77363 h -25.5816 v 34.77363 h -29.2237 v -93.8281 h 29.2237 v 36.59469 h 25.5816 v -36.59469 h 29.3105 z m -134.84538,1.73435 q -21.5926,0 -34.94706,-12.83416 -13.35446,-12.92088 -13.35446,-33.55959 v -2.42808 q 0,-14.39507 5.28975,-25.40817 5.37647,-11.01309 15.60911,-16.99659 10.23264,-6.07021 24.28084,-6.07021 19.7715,0 31.2182,12.31386 11.4467,12.22714 11.4467,34.16661 v 11.35996 h -58.10058 q 1.56092,7.89128 6.85067,12.40058 5.28975,4.50929 13.70133,4.50929 13.87478,0 21.67928,-9.71233 l 13.3545,15.78254 q -5.4632,7.54441 -15.5224,12.05371 -9.9725,4.42258 -21.50588,4.42258 z m -3.29525,-74.7503 q -12.83416,0 -15.26225,16.99659 h 29.48388 v -2.25465 q 0.1734,-7.0241 -3.5554,-10.83966 -3.72885,-3.90228 -10.66623,-3.90228 z m -95.38902,-15.60911 q 18.38407,0 29.13701,12.0537 10.83966,12.0537 10.83966,32.86585 v 1.21404 q 0,13.18103 -5.46319,23.32695 -5.46319,10.05921 -15.78254,15.5224 -10.23264,5.46319 -24.02069,5.46319 -20.81215,0 -33.21272,-13.35447 -12.31386,-13.35446 -12.31386,-36.76812 v -2.77496 q 0.17344,-32.08539 10.57951,-50.46946 10.40608,-18.38406 31.82525,-23.15351 9.62562,-2.16794 12.574,-4.16243 3.03511,-2.08122 3.03511,-6.41708 h 23.50038 q 0,10.83966 -3.38197,16.47628 -3.29526,5.63663 -10.57951,9.36547 -7.19754,3.64212 -20.29185,6.07021 -10.31935,1.90778 -15.95598,8.15142 -5.5499,6.15693 -7.5444,17.25674 11.70683,-10.66622 27.05579,-10.66622 z m -5.46319,22.54649 q -16.04269,0 -16.04269,22.19963 v 1.38747 q 0,21.76604 16.21613,21.76604 15.69583,0 16.0427,-20.81215 v -2.77495 q 0,-21.76604 -16.21614,-21.76604 z m -147.24592,18.29735 q 0,-14.0482 5.46319,-24.97458 5.46319,-11.01309 15.69583,-16.90987 10.23264,-5.89678 24.02068,-5.89678 21.0723,0 33.21272,13.09431 12.14042,13.0076 12.14042,35.46737 v 1.04061 q 0,21.93947 -12.22713,34.86035 -12.14042,12.83416 -32.95257,12.83416 -20.03169,0 -32.17211,-11.96699 -12.14042,-12.0537 -13.09431,-32.6057 z m 29.22372,1.82106 q 0,13.00759 4.07572,19.0778 4.07571,6.07021 12.0537,6.07021 15.60911,0 15.95598,-24.02068 v -2.94839 q 0,-25.23473 -16.12942,-25.23473 -14.65522,0 -15.86926,21.76604 z m -78.13228,25.14801 q 6.15693,0 9.53891,-3.29525 3.38197,-3.38198 3.29525,-9.36547 h 27.40266 q 0,15.43568 -11.09981,25.32145 -11.01309,9.88577 -28.44327,9.88577 -20.46528,0 -32.25883,-12.83416 -11.79355,-12.83416 -11.79355,-35.55409 v -1.21404 q 0,-14.22163 5.20304,-25.06129 5.28975,-10.92638 15.17552,-16.73644 9.88577,-5.89678 23.41367,-5.89678 18.29735,0 29.05029,10.14593 10.75294,10.14592 10.75294,27.48938 h -27.40266 q 0,-7.28426 -3.55541,-11.18653 -3.5554,-3.90228 -9.5389,-3.90228 -11.35996,0 -13.26774,14.48179 -0.60702,4.59601 -0.60702,12.66072 0,14.13492 3.38197,19.59811 3.38198,5.46318 10.75294,5.46318 z m -54.02486,-39.71651 q 0,18.47078 -6.85067,32.69241 -6.85066,14.22164 -19.51139,21.93948 -12.574,7.63112 -28.70342,7.63112 -16.12941,0 -28.6167,-7.37097 -12.48729,-7.45769 -19.51139,-21.24574 -6.93739,-13.78804 -7.28425,-31.6518 v -7.11082 q 0,-18.5575 6.76394,-32.69242 6.85067,-14.22163 19.51139,-21.93947 12.74744,-7.71784 28.96358,-7.71784 16.04269,0 28.6167,7.63112 12.57401,7.63112 19.51139,21.76604 7.0241,14.0482 7.11082,32.25883 z m -30.95807,-5.28976 q 0,-18.81765 -6.33037,-28.52998 -6.24364,-9.79906 -17.95047,-9.79906 -22.89337,0 -24.19413,34.34005 l -0.0867,9.27875 q 0,18.5575 6.15692,28.52998 6.15693,9.97249 18.29735,9.97249 11.5334,0 17.77704,-9.79905 6.24365,-9.79905 6.33037,-28.18312 z"
     style="font-weight:900;font-size:177.597px;font-family:Roboto;-inkscape-font-specification:'Roboto Heavy';fill:#00e1c3;stroke:#000000;stroke-width:0.208122;stroke-linejoin:round" />
  <path
     fill="#ffffff"
     d="m 542.011,147.114 9.616,-35.325 h 12.474 L 548.517,158 h -8.061 z m -8.728,-35.325 9.616,35.325 1.619,10.886 h -8.157 l -15.488,-46.211 z m 52.876,37.864 v -25.994 h 10.727 V 158 h -10.029 z m 1.015,-6.983 2.793,-0.063 c 0,2.306 -0.275,4.443 -0.825,6.411 -0.55,1.947 -1.365,3.639 -2.444,5.078 -1.058,1.439 -2.37,2.56 -3.935,3.364 -1.545,0.783 -3.333,1.175 -5.364,1.175 -1.693,0 -3.248,-0.233 -4.666,-0.698 -1.396,-0.487 -2.602,-1.238 -3.618,-2.254 -1.015,-1.037 -1.809,-2.359 -2.38,-3.967 -0.55,-1.629 -0.825,-3.576 -0.825,-5.84 v -22.217 h 10.695 v 22.28 c 0,0.762 0.096,1.418 0.286,1.968 0.191,0.55 0.466,1.016 0.825,1.397 0.36,0.359 0.804,0.634 1.333,0.825 0.55,0.169 1.175,0.254 1.873,0.254 1.608,0 2.867,-0.339 3.777,-1.016 0.91,-0.677 1.544,-1.597 1.904,-2.761 0.381,-1.164 0.571,-2.476 0.571,-3.936 z m 32.246,15.965 c -2.793,0 -5.289,-0.434 -7.49,-1.302 -2.2,-0.888 -4.062,-2.105 -5.586,-3.649 -1.502,-1.545 -2.655,-3.322 -3.459,-5.332 -0.783,-2.011 -1.175,-4.137 -1.175,-6.38 v -1.206 c 0,-2.518 0.35,-4.845 1.048,-6.982 0.698,-2.159 1.735,-4.042 3.11,-5.65 1.375,-1.608 3.1,-2.856 5.174,-3.745 2.073,-0.91 4.485,-1.365 7.236,-1.365 2.433,0 4.612,0.392 6.538,1.175 1.925,0.783 3.555,1.904 4.888,3.364 1.354,1.46 2.38,3.227 3.078,5.3 0.72,2.074 1.079,4.401 1.079,6.983 v 4.348 h -28.056 v -6.697 h 17.614 v -0.825 c 0.022,-1.143 -0.179,-2.116 -0.603,-2.92 -0.402,-0.804 -0.994,-1.418 -1.777,-1.841 -0.783,-0.423 -1.735,-0.635 -2.856,-0.635 -1.164,0 -2.127,0.254 -2.889,0.762 -0.74,0.508 -1.322,1.206 -1.745,2.095 -0.402,0.867 -0.688,1.872 -0.857,3.015 -0.169,1.143 -0.254,2.349 -0.254,3.618 v 1.206 c 0,1.27 0.169,2.423 0.508,3.46 0.36,1.036 0.867,1.925 1.523,2.666 0.677,0.719 1.481,1.28 2.412,1.682 0.952,0.402 2.032,0.603 3.238,0.603 1.46,0 2.898,-0.275 4.316,-0.825 1.418,-0.551 2.634,-1.46 3.65,-2.73 l 4.856,5.776 c -0.698,0.995 -1.693,1.958 -2.983,2.889 -1.27,0.931 -2.793,1.692 -4.571,2.285 -1.777,0.571 -3.766,0.857 -5.967,0.857 z m 41.673,-46.846 V 158 h -11.14 v -46.211 z m 13.901,0 v 8.601 h -38.625 v -8.601 z m 22.185,37.864 v -25.994 h 10.728 V 158 h -10.03 z m 1.016,-6.983 2.793,-0.063 c 0,2.306 -0.275,4.443 -0.825,6.411 -0.551,1.947 -1.365,3.639 -2.444,5.078 -1.058,1.439 -2.37,2.56 -3.936,3.364 -1.544,0.783 -3.332,1.175 -5.364,1.175 -1.692,0 -3.247,-0.233 -4.665,-0.698 -1.397,-0.487 -2.603,-1.238 -3.618,-2.254 -1.016,-1.037 -1.809,-2.359 -2.381,-3.967 -0.55,-1.629 -0.825,-3.576 -0.825,-5.84 v -22.217 h 10.696 v 22.28 c 0,0.762 0.095,1.418 0.286,1.968 0.19,0.55 0.465,1.016 0.825,1.397 0.36,0.359 0.804,0.634 1.333,0.825 0.55,0.169 1.174,0.254 1.872,0.254 1.608,0 2.867,-0.339 3.777,-1.016 0.91,-0.677 1.545,-1.597 1.905,-2.761 0.38,-1.164 0.571,-2.476 0.571,-3.936 z m 15.71,-33.42 h 10.696 v 40.308 L 723.49,158 h -9.585 z m 31.77,31.199 v 0.666 c 0,2.603 -0.264,4.973 -0.793,7.11 -0.529,2.137 -1.344,3.988 -2.444,5.554 -1.1,1.544 -2.486,2.74 -4.158,3.586 -1.671,0.847 -3.65,1.27 -5.935,1.27 -2.073,0 -3.851,-0.445 -5.332,-1.333 -1.481,-0.91 -2.719,-2.158 -3.713,-3.745 -0.995,-1.608 -1.799,-3.46 -2.412,-5.555 -0.614,-2.115 -1.101,-4.379 -1.46,-6.792 v -0.793 c 0.359,-2.391 0.846,-4.634 1.46,-6.729 0.613,-2.115 1.417,-3.967 2.412,-5.554 0.994,-1.608 2.221,-2.856 3.681,-3.745 1.482,-0.91 3.248,-1.365 5.301,-1.365 2.306,0 4.295,0.434 5.967,1.302 1.692,0.867 3.089,2.084 4.189,3.65 1.1,1.565 1.915,3.406 2.444,5.522 0.529,2.116 0.793,4.433 0.793,6.951 z m -10.696,0.666 v -0.666 c 0,-1.249 -0.074,-2.423 -0.222,-3.523 -0.148,-1.1 -0.412,-2.074 -0.793,-2.92 -0.381,-0.846 -0.921,-1.513 -1.619,-2 -0.698,-0.486 -1.608,-0.73 -2.729,-0.73 -1.143,0 -2.106,0.191 -2.888,0.572 -0.762,0.381 -1.376,0.931 -1.841,1.65 -0.445,0.698 -0.762,1.566 -0.952,2.603 -0.191,1.015 -0.275,2.168 -0.254,3.459 v 2.507 c -0.043,1.757 0.116,3.259 0.476,4.507 0.359,1.249 0.984,2.201 1.872,2.857 0.889,0.656 2.106,0.984 3.65,0.984 1.143,0 2.063,-0.223 2.761,-0.667 0.72,-0.444 1.259,-1.079 1.619,-1.904 0.36,-0.825 0.603,-1.809 0.73,-2.952 0.127,-1.142 0.19,-2.401 0.19,-3.777 z m 32.088,17.52 c -2.793,0 -5.29,-0.434 -7.49,-1.302 -2.201,-0.888 -4.063,-2.105 -5.586,-3.649 -1.503,-1.545 -2.656,-3.322 -3.46,-5.332 -0.783,-2.011 -1.174,-4.137 -1.174,-6.38 v -1.206 c 0,-2.518 0.349,-4.845 1.047,-6.982 0.699,-2.159 1.735,-4.042 3.111,-5.65 1.375,-1.608 3.099,-2.856 5.173,-3.745 2.074,-0.91 4.486,-1.365 7.236,-1.365 2.434,0 4.613,0.392 6.538,1.175 1.926,0.783 3.555,1.904 4.888,3.364 1.354,1.46 2.38,3.227 3.079,5.3 0.719,2.074 1.079,4.401 1.079,6.983 v 4.348 h -28.057 v -6.697 h 17.615 v -0.825 c 0.021,-1.143 -0.18,-2.116 -0.603,-2.92 -0.402,-0.804 -0.995,-1.418 -1.777,-1.841 -0.783,-0.423 -1.735,-0.635 -2.857,-0.635 -1.164,0 -2.126,0.254 -2.888,0.762 -0.741,0.508 -1.323,1.206 -1.746,2.095 -0.402,0.867 -0.687,1.872 -0.857,3.015 -0.169,1.143 -0.254,2.349 -0.254,3.618 v 1.206 c 0,1.27 0.17,2.423 0.508,3.46 0.36,1.036 0.868,1.925 1.524,2.666 0.677,0.719 1.481,1.28 2.412,1.682 0.952,0.402 2.031,0.603 3.237,0.603 1.46,0 2.899,-0.275 4.317,-0.825 1.417,-0.551 2.634,-1.46 3.649,-2.73 l 4.856,5.776 c -0.698,0.995 -1.692,1.958 -2.983,2.889 -1.27,0.931 -2.793,1.692 -4.57,2.285 -1.778,0.571 -3.767,0.857 -5.967,0.857 z"
     id="path14" />
  <defs
     id="defs45">
    <linearGradient
       id="paint0_linear_201_150"
       x1="0"
       x2="88.064003"
       y1="0.77700001"
       y2="9.5050001"
       gradientUnits="userSpaceOnUse">
      <stop
         stop-color="#00E1C3"
         id="stop20" />
      <stop
         offset="1"
         stop-color="#00D1D5"
         id="stop22" />
    </linearGradient>
    <linearGradient
       id="paint1_linear_201_150"
       x1="189"
       x2="436.78699"
       y1="104.929"
       y2="353.47299"
       gradientUnits="userSpaceOnUse">
      <stop
         stop-color="#00E1C3"
         id="stop25" />
      <stop
         offset="1"
         stop-color="#00D1D5"
         id="stop27" />
    </linearGradient>
    <linearGradient
       id="paint2_linear_201_150"
       x1="189"
       x2="436.78699"
       y1="104.929"
       y2="353.47299"
       gradientUnits="userSpaceOnUse">
      <stop
         stop-color="#00E1C3"
         id="stop30" />
      <stop
         offset="1"
         stop-color="#00D1D5"
         id="stop32" />
    </linearGradient>
    <linearGradient
       id="paint3_linear_201_150"
       x1="189"
       x2="436.78699"
       y1="104.929"
       y2="353.47299"
       gradientUnits="userSpaceOnUse">
      <stop
         stop-color="#00E1C3"
         id="stop35" />
      <stop
         offset="1"
         stop-color="#00D1D5"
         id="stop37" />
    </linearGradient>
    <linearGradient
       id="paint4_linear_201_150"
       x1="521"
       x2="627.27502"
       y1="144.371"
       y2="544.414"
       gradientUnits="userSpaceOnUse">
      <stop
         stop-color="#00E1C3"
         id="stop40" />
      <stop
         offset="1"
         stop-color="#00D1D5"
         id="stop42" />
    </linearGradient>
  </defs>
</svg>
