<?xml version="1.0" encoding="UTF-8" standalone="no"?>
<svg
   width="1717.7191"
   height="440"
   fill="none"
   viewBox="0 0 1717.7191 440"
   version="1.1"
   id="svg33"
   xmlns="http://www.w3.org/2000/svg"
   xmlns:svg="http://www.w3.org/2000/svg">
  <path
     fill="#132636"
     d="M 3,37 C 3,16.5655 26.542539,0 55.58362,0 H 1665.1114 c 33.7956,0 58.8226,22.1121 51.2477,45.2887 L 1597.1222,410.289 C 1591.6364,427.092 1570.3756,439 1545.8745,439 H 55.58362 C 26.542539,439 3,422.435 3,402 Z"
     id="path2"
     style="stroke-width:1.19213" />
  <path
     fill="#132636"
     d="M 0,37 C 0,16.5655 16.5655,0 37,0 h 2 V 440 H 37 C 16.5655,440 0,423.435 0,403 Z"
     id="path4" />
  <path
     fill="url(#paint0_linear_201_39)"
     d="M 0,37 C 0,16.5655 16.5655,0 37,0 h 2 V 440 H 37 C 16.5655,440 0,423.435 0,403 Z"
     id="path6"
     style="fill:url(#paint0_linear_201_39)" />
  <g
     clip-path="url(#clip0_201_39)"
     id="g10">
    <path
       fill="#01d8ce"
       d="m 206.156,317.5 c -4.575,0 -8.578,-1.716 -12.009,-5.147 C 190.716,308.922 189,304.919 189,300.344 v -40.889 h 17.156 v 40.889 H 354.844 V 259.455 H 372 v 40.889 c 0,4.575 -1.716,8.578 -5.147,12.009 -3.431,3.431 -7.434,5.147 -12.009,5.147 z m 74.344,-43.748 -55.186,-55.186 12.295,-12.296 34.313,34.313 V 134.5 h 17.156 v 106.083 l 34.313,-34.313 12.295,12.296 z"
       id="path8" />
  </g>
  <path
     id="path1147"
     d="m 903.22962,405.64931 q -0.75,-1.37499 -1.33333,-4.04166 -3.875,4.875 -10.83333,4.875 -6.375,0 -10.83333,-3.83333 -4.45833,-3.875 -4.45833,-9.70833 0,-7.33333 5.41666,-11.08333 5.41667,-3.75 15.75,-3.75 h 4.33333 v -2.375 q 0,-6.20833 -5.375,-6.20833 -5,0 -5,4.91666 h -14.04166 q 0,-6.54166 5.54167,-10.62499 5.58333,-4.08333 14.20833,-4.08333 8.62499,0 13.62499,4.20833 5,4.20833 5.125,11.54166 v 19.95833 q 0.0833,6.20833 1.91666,9.49999 v 0.70833 z m -8.79166,-9.16666 q 2.625,0 4.33333,-1.125 1.75,-1.125 2.5,-2.54166 v -7.20833 h -4.08333 q -7.33333,0 -7.33333,6.58333 0,1.91666 1.29166,3.125 1.29167,1.16666 3.29167,1.16666 z m -46.29163,-6.58333 H 843.938 v 15.74999 H 829.85467 V 360.566 H 843.938 v 16.20833 h 4.04167 l 7.16666,-16.20833 h 17.99999 l -13.16666,20.83332 h 0.0417 l 14.45832,24.24999 H 855.438 Z m -66.20831,15.74999 V 360.566 h 19.33332 q 9.29166,0 14.20833,3.25 4.95833,3.25 4.95833,9.37499 0,3.125 -2.16667,5.625 -2.16666,2.45833 -6.33333,3.79167 5.375,0.91666 8.29167,3.58333 2.91666,2.625 2.91666,6.58333 0,6.375 -4.83333,9.625 -4.79166,3.20833 -13.83333,3.24999 z m 14.08332,-18.37499 v 7.625 h 8.20833 q 2.625,0 3.75,-0.91667 1.125,-0.91666 1.125,-2.79166 0,-3.75 -4.33333,-3.91667 z m 0,-8.66666 h 5.79167 q 2.54166,0 3.54166,-0.83333 1.04167,-0.875 1.04167,-2.54167 0,-2.16667 -1.25,-3.04166 -1.25,-0.875 -3.875,-0.875 h -5.25 z m -64.7083,4.08333 q 0,-6.75 2.625,-11.99999 2.625,-5.29167 7.54167,-8.125 4.91666,-2.83333 11.54166,-2.83333 10.12499,0 15.95832,6.29166 5.83334,6.25 5.83334,17.04166 v 0.5 q 0,10.54166 -5.875,16.74999 -5.83333,6.16667 -15.83333,6.16667 -9.625,0 -15.45833,-5.75 -5.83333,-5.79166 -6.29166,-15.66666 z m 14.04166,0.875 q 0,6.25 1.95834,9.16666 1.95833,2.91667 5.79166,2.91667 7.5,0 7.66666,-11.54166 v -1.41667 q 0,-12.12499 -7.74999,-12.12499 -7.04167,0 -7.625,10.45832 z m -19.95832,22.08332 h -14.08333 v -16.70832 h -12.29166 v 16.70832 H 684.97973 V 360.566 h 14.04166 v 17.58333 h 12.29166 V 360.566 h 14.08333 z m -60.04164,0 q -0.75,-1.37499 -1.33333,-4.04166 -3.875,4.875 -10.83333,4.875 -6.37499,0 -10.83333,-3.83333 -4.45833,-3.875 -4.45833,-9.70833 0,-7.33333 5.41667,-11.08333 5.41666,-3.75 15.74999,-3.75 h 4.33333 v -2.375 q 0,-6.20833 -5.375,-6.20833 -4.99999,0 -4.99999,4.91666 h -14.04166 q 0,-6.54166 5.54166,-10.62499 5.58333,-4.08333 14.20833,-4.08333 8.62499,0 13.62499,4.20833 5,4.20833 5.125,11.54166 v 19.95833 q 0.0833,6.20833 1.91667,9.49999 v 0.70833 z m -8.79166,-9.16666 q 2.625,0 4.33333,-1.125 1.75,-1.125 2.5,-2.54166 v -7.20833 h -4.08333 q -7.33333,0 -7.33333,6.58333 0,1.91666 1.29167,3.125 1.29166,1.16666 3.29166,1.16666 z M 634.72976,371.316 h -14.20833 v 34.33331 H 606.39644 V 371.316 h -14 v -10.75 h 42.33332 z m -64.74998,24.33332 q 2.95834,0 4.58334,-1.58333 1.62499,-1.625 1.58333,-4.5 h 13.16666 q 0,7.41666 -5.33333,12.16666 -5.29167,4.75 -13.66666,4.75 -9.83333,0 -15.5,-6.16667 -5.66666,-6.16666 -5.66666,-17.08332 v -0.58334 q 0,-6.83333 2.5,-12.04166 2.54166,-5.25 7.29166,-8.04166 4.75,-2.83333 11.25,-2.83333 8.79166,0 13.95832,4.87499 5.16667,4.875 5.16667,13.20833 h -13.16666 q 0,-3.5 -1.70833,-5.375 -1.70834,-1.87499 -4.58334,-1.87499 -5.45833,0 -6.37499,6.95833 -0.29167,2.20833 -0.29167,6.08333 0,6.79166 1.625,9.41666 1.625,2.625 5.16666,2.625 z M 521.14647,371.316 v 0.0417 l 10.04167,-26.37499 h 15.41666 l -20.41666,48.12498 q -3.29167,7.29167 -7.41667,10.29167 -4.08333,2.95833 -9.58333,3.12499 h -2.95833 l -2.25,-0.0833 -0.25,-11.33333 q 0.5,0.16667 2.91667,0.16667 3.33333,0 5,-1.125 1.70833,-1.16667 2.75,-4.45833 l 0.70833,-2 -21.91666,-42.70832 h 15.54166 z"
     style="font-weight:900;font-size:85.3333px;font-family:Roboto;-inkscape-font-specification:'Roboto Heavy';white-space:pre;shape-inside:url(#rect878);fill:#00e1c3;stroke:#000000;stroke-width:0.1;stroke-linejoin:round"
     transform="matrix(2.26957,0,0,2.26957,-633.33855,-582.72169)" />
  <path
     fill="#ffffff"
     d="m 507.011,147.114 9.616,-35.325 h 12.474 L 513.517,158 h -8.061 z m -8.728,-35.325 9.616,35.325 1.619,10.886 h -8.157 l -15.488,-46.211 z m 52.876,37.864 v -25.994 h 10.727 V 158 h -10.029 z m 1.015,-6.983 2.793,-0.063 c 0,2.306 -0.275,4.443 -0.825,6.411 -0.55,1.947 -1.365,3.639 -2.444,5.078 -1.058,1.439 -2.37,2.56 -3.935,3.364 -1.545,0.783 -3.333,1.175 -5.364,1.175 -1.693,0 -3.248,-0.233 -4.666,-0.698 -1.396,-0.487 -2.602,-1.238 -3.618,-2.254 -1.015,-1.037 -1.809,-2.359 -2.38,-3.967 -0.55,-1.629 -0.825,-3.576 -0.825,-5.84 v -22.217 h 10.695 v 22.28 c 0,0.762 0.096,1.418 0.286,1.968 0.191,0.55 0.466,1.016 0.825,1.397 0.36,0.359 0.804,0.634 1.333,0.825 0.55,0.169 1.175,0.254 1.873,0.254 1.608,0 2.867,-0.339 3.777,-1.016 0.91,-0.677 1.544,-1.597 1.904,-2.761 0.381,-1.164 0.571,-2.476 0.571,-3.936 z m 32.246,15.965 c -2.793,0 -5.289,-0.434 -7.49,-1.302 -2.2,-0.888 -4.062,-2.105 -5.586,-3.649 -1.502,-1.545 -2.655,-3.322 -3.459,-5.332 -0.783,-2.011 -1.175,-4.137 -1.175,-6.38 v -1.206 c 0,-2.518 0.35,-4.845 1.048,-6.982 0.698,-2.159 1.735,-4.042 3.11,-5.65 1.375,-1.608 3.1,-2.856 5.174,-3.745 2.073,-0.91 4.485,-1.365 7.236,-1.365 2.433,0 4.612,0.392 6.538,1.175 1.925,0.783 3.555,1.904 4.888,3.364 1.354,1.46 2.38,3.227 3.078,5.3 0.72,2.074 1.079,4.401 1.079,6.983 v 4.348 h -28.056 v -6.697 h 17.614 v -0.825 c 0.022,-1.143 -0.179,-2.116 -0.603,-2.92 -0.402,-0.804 -0.994,-1.418 -1.777,-1.841 -0.783,-0.423 -1.735,-0.635 -2.856,-0.635 -1.164,0 -2.127,0.254 -2.889,0.762 -0.74,0.508 -1.322,1.206 -1.745,2.095 -0.402,0.867 -0.688,1.872 -0.857,3.015 -0.169,1.143 -0.254,2.349 -0.254,3.618 v 1.206 c 0,1.27 0.169,2.423 0.508,3.46 0.36,1.036 0.867,1.925 1.523,2.666 0.677,0.719 1.481,1.28 2.412,1.682 0.952,0.402 2.032,0.603 3.238,0.603 1.46,0 2.898,-0.275 4.316,-0.825 1.418,-0.551 2.634,-1.46 3.65,-2.73 l 4.856,5.776 c -0.698,0.995 -1.693,1.958 -2.983,2.889 -1.27,0.931 -2.793,1.692 -4.571,2.285 -1.777,0.571 -3.766,0.857 -5.967,0.857 z m 41.673,-46.846 V 158 h -11.14 v -46.211 z m 13.901,0 v 8.601 h -38.625 v -8.601 z m 22.185,37.864 v -25.994 h 10.728 V 158 h -10.03 z m 1.016,-6.983 2.793,-0.063 c 0,2.306 -0.275,4.443 -0.825,6.411 -0.551,1.947 -1.365,3.639 -2.444,5.078 -1.058,1.439 -2.37,2.56 -3.936,3.364 -1.544,0.783 -3.332,1.175 -5.364,1.175 -1.692,0 -3.247,-0.233 -4.665,-0.698 -1.397,-0.487 -2.603,-1.238 -3.618,-2.254 -1.016,-1.037 -1.809,-2.359 -2.381,-3.967 -0.55,-1.629 -0.825,-3.576 -0.825,-5.84 v -22.217 h 10.696 v 22.28 c 0,0.762 0.095,1.418 0.286,1.968 0.19,0.55 0.465,1.016 0.825,1.397 0.36,0.359 0.804,0.634 1.333,0.825 0.55,0.169 1.174,0.254 1.872,0.254 1.608,0 2.867,-0.339 3.777,-1.016 0.91,-0.677 1.545,-1.597 1.905,-2.761 0.38,-1.164 0.571,-2.476 0.571,-3.936 z m 15.71,-33.42 h 10.696 v 40.308 L 688.49,158 h -9.585 z m 31.77,31.199 v 0.666 c 0,2.603 -0.264,4.973 -0.793,7.11 -0.529,2.137 -1.344,3.988 -2.444,5.554 -1.1,1.544 -2.486,2.74 -4.158,3.586 -1.671,0.847 -3.65,1.27 -5.935,1.27 -2.073,0 -3.851,-0.445 -5.332,-1.333 -1.481,-0.91 -2.719,-2.158 -3.713,-3.745 -0.995,-1.608 -1.799,-3.46 -2.412,-5.555 -0.614,-2.115 -1.101,-4.379 -1.46,-6.792 v -0.793 c 0.359,-2.391 0.846,-4.634 1.46,-6.729 0.613,-2.115 1.417,-3.967 2.412,-5.554 0.994,-1.608 2.221,-2.856 3.681,-3.745 1.482,-0.91 3.248,-1.365 5.301,-1.365 2.306,0 4.295,0.434 5.967,1.302 1.692,0.867 3.089,2.084 4.189,3.65 1.1,1.565 1.915,3.406 2.444,5.522 0.529,2.116 0.793,4.433 0.793,6.951 z m -10.696,0.666 v -0.666 c 0,-1.249 -0.074,-2.423 -0.222,-3.523 -0.148,-1.1 -0.412,-2.074 -0.793,-2.92 -0.381,-0.846 -0.921,-1.513 -1.619,-2 -0.698,-0.486 -1.608,-0.73 -2.729,-0.73 -1.143,0 -2.106,0.191 -2.888,0.572 -0.762,0.381 -1.376,0.931 -1.841,1.65 -0.445,0.698 -0.762,1.566 -0.952,2.603 -0.191,1.015 -0.275,2.168 -0.254,3.459 v 2.507 c -0.043,1.757 0.116,3.259 0.476,4.507 0.359,1.249 0.984,2.201 1.872,2.857 0.889,0.656 2.106,0.984 3.65,0.984 1.143,0 2.063,-0.223 2.761,-0.667 0.72,-0.444 1.259,-1.079 1.619,-1.904 0.36,-0.825 0.603,-1.809 0.73,-2.952 0.127,-1.142 0.19,-2.401 0.19,-3.777 z m 32.088,17.52 c -2.793,0 -5.29,-0.434 -7.49,-1.302 -2.201,-0.888 -4.063,-2.105 -5.586,-3.649 -1.503,-1.545 -2.656,-3.322 -3.46,-5.332 -0.783,-2.011 -1.174,-4.137 -1.174,-6.38 v -1.206 c 0,-2.518 0.349,-4.845 1.047,-6.982 0.699,-2.159 1.735,-4.042 3.111,-5.65 1.375,-1.608 3.099,-2.856 5.173,-3.745 2.074,-0.91 4.486,-1.365 7.236,-1.365 2.434,0 4.613,0.392 6.538,1.175 1.926,0.783 3.555,1.904 4.888,3.364 1.354,1.46 2.38,3.227 3.079,5.3 0.719,2.074 1.079,4.401 1.079,6.983 v 4.348 h -28.057 v -6.697 h 17.615 v -0.825 c 0.021,-1.143 -0.18,-2.116 -0.603,-2.92 -0.402,-0.804 -0.995,-1.418 -1.777,-1.841 -0.783,-0.423 -1.735,-0.635 -2.857,-0.635 -1.164,0 -2.126,0.254 -2.888,0.762 -0.741,0.508 -1.323,1.206 -1.746,2.095 -0.402,0.867 -0.687,1.872 -0.857,3.015 -0.169,1.143 -0.254,2.349 -0.254,3.618 v 1.206 c 0,1.27 0.17,2.423 0.508,3.46 0.36,1.036 0.868,1.925 1.524,2.666 0.677,0.719 1.481,1.28 2.412,1.682 0.952,0.402 2.031,0.603 3.237,0.603 1.46,0 2.899,-0.275 4.317,-0.825 1.417,-0.551 2.634,-1.46 3.649,-2.73 l 4.856,5.776 c -0.698,0.995 -1.692,1.958 -2.983,2.889 -1.27,0.931 -2.793,1.692 -4.57,2.285 -1.778,0.571 -3.767,0.857 -5.967,0.857 z"
     id="path12" />
  <defs
     id="defs31">
    <rect
       x="493.0217"
       y="327.18369"
       width="547.01849"
       height="163.70393"
       id="rect878" />
    <linearGradient
       id="paint0_linear_201_39"
       x1="0"
       x2="88.064003"
       y1="0.77700001"
       y2="9.5050001"
       gradientUnits="userSpaceOnUse">
      <stop
         stop-color="#00E1C3"
         id="stop18" />
      <stop
         offset="1"
         stop-color="#00D1D5"
         id="stop20" />
    </linearGradient>
    <linearGradient
       id="paint1_linear_201_39"
       x1="486"
       x2="626.34998"
       y1="144.371"
       y2="520.23999"
       gradientUnits="userSpaceOnUse">
      <stop
         stop-color="#00E1C3"
         id="stop23" />
      <stop
         offset="1"
         stop-color="#00D1D5"
         id="stop25" />
    </linearGradient>
    <clipPath
       id="clip0_201_39">
      <rect
         width="183"
         height="183"
         fill="#ffffff"
         transform="translate(189,134.5)"
         id="rect28"
         x="0"
         y="0" />
    </clipPath>
  </defs>
</svg>
