<?xml version="1.0" encoding="UTF-8" standalone="no"?>
<svg
   width="1209.4749"
   height="440"
   fill="none"
   viewBox="0 0 1209.4748 440"
   version="1.1"
   id="svg33"
   xmlns="http://www.w3.org/2000/svg"
   xmlns:svg="http://www.w3.org/2000/svg">
  <path
     fill="#132636"
     d="M 3,37 C 3,16.5655 19.523792,0 39.906842,0 H 1172.5479 c 23.7301,0 41.2958,22.1264 35.9692,45.3082 L 1124.6189,410.308 C 1120.7586,427.102 1105.8463,439 1088.6596,439 H 39.906842 C 19.523792,439 3,422.435 3,402 Z"
     id="path2"
     style="stroke-width:0.998743" />
  <path
     fill="#132636"
     d="M 0,37 C 0,16.5655 16.5655,0 37,0 h 2 V 440 H 37 C 16.5655,440 0,423.435 0,403 Z"
     id="path4" />
  <path
     fill="url(#paint0_linear_201_120)"
     d="M 0,37 C 0,16.5655 16.5655,0 37,0 h 2 V 440 H 37 C 16.5655,440 0,423.435 0,403 Z"
     id="path6"
     style="fill:url(#paint0_linear_201_120)" />
  <g
     clip-path="url(#clip0_201_120)"
     id="g10">
    <path
       fill="#01d8ce"
       d="m 332.415,138.881 c 2.5,-2.588 5.49,-4.652 8.795,-6.072 3.306,-1.42 6.862,-2.168 10.459,-2.199 3.598,-0.031 7.166,0.654 10.496,2.017 3.33,1.362 6.355,3.374 8.899,5.918 2.544,2.544 4.556,5.569 5.918,8.899 1.363,3.33 2.048,6.898 2.017,10.496 -0.031,3.598 -0.779,7.153 -2.199,10.459 -1.42,3.305 -3.484,6.295 -6.072,8.795 l -10.743,10.743 -38.313,-38.313 z m -29.899,29.9 L 189,282.296 v 38.313 h 38.313 l 113.529,-113.516 -38.34,-38.312 z"
       id="path8" />
  </g>
  <path
     fill="#ffffff"
     d="m 514.011,147.114 9.616,-35.325 h 12.474 L 520.517,158 h -8.061 z m -8.728,-35.325 9.616,35.325 1.619,10.886 h -8.157 l -15.488,-46.211 z m 52.876,37.864 v -25.994 h 10.727 V 158 h -10.029 z m 1.015,-6.983 2.793,-0.063 c 0,2.306 -0.275,4.443 -0.825,6.411 -0.55,1.947 -1.365,3.639 -2.444,5.078 -1.058,1.439 -2.37,2.56 -3.935,3.364 -1.545,0.783 -3.333,1.175 -5.364,1.175 -1.693,0 -3.248,-0.233 -4.666,-0.698 -1.396,-0.487 -2.602,-1.238 -3.618,-2.254 -1.015,-1.037 -1.809,-2.359 -2.38,-3.967 -0.55,-1.629 -0.825,-3.576 -0.825,-5.84 v -22.217 h 10.695 v 22.28 c 0,0.762 0.096,1.418 0.286,1.968 0.191,0.55 0.466,1.016 0.825,1.397 0.36,0.359 0.804,0.634 1.333,0.825 0.55,0.169 1.175,0.254 1.873,0.254 1.608,0 2.867,-0.339 3.777,-1.016 0.91,-0.677 1.544,-1.597 1.904,-2.761 0.381,-1.164 0.571,-2.476 0.571,-3.936 z m 32.246,15.965 c -2.793,0 -5.289,-0.434 -7.49,-1.302 -2.2,-0.888 -4.062,-2.105 -5.586,-3.649 -1.502,-1.545 -2.655,-3.322 -3.459,-5.332 -0.783,-2.011 -1.175,-4.137 -1.175,-6.38 v -1.206 c 0,-2.518 0.35,-4.845 1.048,-6.982 0.698,-2.159 1.735,-4.042 3.11,-5.65 1.375,-1.608 3.1,-2.856 5.174,-3.745 2.073,-0.91 4.485,-1.365 7.236,-1.365 2.433,0 4.612,0.392 6.538,1.175 1.925,0.783 3.555,1.904 4.888,3.364 1.354,1.46 2.38,3.227 3.078,5.3 0.72,2.074 1.079,4.401 1.079,6.983 v 4.348 h -28.056 v -6.697 h 17.614 v -0.825 c 0.022,-1.143 -0.179,-2.116 -0.603,-2.92 -0.402,-0.804 -0.994,-1.418 -1.777,-1.841 -0.783,-0.423 -1.735,-0.635 -2.856,-0.635 -1.164,0 -2.127,0.254 -2.889,0.762 -0.74,0.508 -1.322,1.206 -1.745,2.095 -0.402,0.867 -0.688,1.872 -0.857,3.015 -0.169,1.143 -0.254,2.349 -0.254,3.618 v 1.206 c 0,1.27 0.169,2.423 0.508,3.46 0.36,1.036 0.867,1.925 1.523,2.666 0.677,0.719 1.481,1.28 2.412,1.682 0.952,0.402 2.032,0.603 3.238,0.603 1.46,0 2.898,-0.275 4.316,-0.825 1.418,-0.551 2.634,-1.46 3.65,-2.73 l 4.856,5.776 c -0.698,0.995 -1.693,1.958 -2.983,2.889 -1.27,0.931 -2.793,1.692 -4.571,2.285 -1.777,0.571 -3.766,0.857 -5.967,0.857 z m 41.673,-46.846 V 158 h -11.14 v -46.211 z m 13.901,0 v 8.601 h -38.625 v -8.601 z m 22.185,37.864 v -25.994 h 10.728 V 158 h -10.03 z m 1.016,-6.983 2.793,-0.063 c 0,2.306 -0.275,4.443 -0.825,6.411 -0.551,1.947 -1.365,3.639 -2.444,5.078 -1.058,1.439 -2.37,2.56 -3.936,3.364 -1.544,0.783 -3.332,1.175 -5.364,1.175 -1.692,0 -3.247,-0.233 -4.665,-0.698 -1.397,-0.487 -2.603,-1.238 -3.618,-2.254 -1.016,-1.037 -1.809,-2.359 -2.381,-3.967 -0.55,-1.629 -0.825,-3.576 -0.825,-5.84 v -22.217 h 10.696 v 22.28 c 0,0.762 0.095,1.418 0.286,1.968 0.19,0.55 0.465,1.016 0.825,1.397 0.36,0.359 0.804,0.634 1.333,0.825 0.55,0.169 1.174,0.254 1.872,0.254 1.608,0 2.867,-0.339 3.777,-1.016 0.91,-0.677 1.545,-1.597 1.905,-2.761 0.38,-1.164 0.571,-2.476 0.571,-3.936 z m 15.71,-33.42 h 10.696 v 40.308 L 695.49,158 h -9.585 z m 31.77,31.199 v 0.666 c 0,2.603 -0.264,4.973 -0.793,7.11 -0.529,2.137 -1.344,3.988 -2.444,5.554 -1.1,1.544 -2.486,2.74 -4.158,3.586 -1.671,0.847 -3.65,1.27 -5.935,1.27 -2.073,0 -3.851,-0.445 -5.332,-1.333 -1.481,-0.91 -2.719,-2.158 -3.713,-3.745 -0.995,-1.608 -1.799,-3.46 -2.412,-5.555 -0.614,-2.115 -1.101,-4.379 -1.46,-6.792 v -0.793 c 0.359,-2.391 0.846,-4.634 1.46,-6.729 0.613,-2.115 1.417,-3.967 2.412,-5.554 0.994,-1.608 2.221,-2.856 3.681,-3.745 1.482,-0.91 3.248,-1.365 5.301,-1.365 2.306,0 4.295,0.434 5.967,1.302 1.692,0.867 3.089,2.084 4.189,3.65 1.1,1.565 1.915,3.406 2.444,5.522 0.529,2.116 0.793,4.433 0.793,6.951 z m -10.696,0.666 v -0.666 c 0,-1.249 -0.074,-2.423 -0.222,-3.523 -0.148,-1.1 -0.412,-2.074 -0.793,-2.92 -0.381,-0.846 -0.921,-1.513 -1.619,-2 -0.698,-0.486 -1.608,-0.73 -2.729,-0.73 -1.143,0 -2.106,0.191 -2.888,0.572 -0.762,0.381 -1.376,0.931 -1.841,1.65 -0.445,0.698 -0.762,1.566 -0.952,2.603 -0.191,1.015 -0.275,2.168 -0.254,3.459 v 2.507 c -0.043,1.757 0.116,3.259 0.476,4.507 0.359,1.249 0.984,2.201 1.872,2.857 0.889,0.656 2.106,0.984 3.65,0.984 1.143,0 2.063,-0.223 2.761,-0.667 0.72,-0.444 1.259,-1.079 1.619,-1.904 0.36,-0.825 0.603,-1.809 0.73,-2.952 0.127,-1.142 0.19,-2.401 0.19,-3.777 z m 32.088,17.52 c -2.793,0 -5.29,-0.434 -7.49,-1.302 -2.201,-0.888 -4.063,-2.105 -5.586,-3.649 -1.503,-1.545 -2.656,-3.322 -3.46,-5.332 -0.783,-2.011 -1.174,-4.137 -1.174,-6.38 v -1.206 c 0,-2.518 0.349,-4.845 1.047,-6.982 0.699,-2.159 1.735,-4.042 3.111,-5.65 1.375,-1.608 3.099,-2.856 5.173,-3.745 2.074,-0.91 4.486,-1.365 7.236,-1.365 2.434,0 4.613,0.392 6.538,1.175 1.926,0.783 3.555,1.904 4.888,3.364 1.354,1.46 2.38,3.227 3.079,5.3 0.719,2.074 1.079,4.401 1.079,6.983 v 4.348 h -28.057 v -6.697 h 17.615 v -0.825 c 0.021,-1.143 -0.18,-2.116 -0.603,-2.92 -0.402,-0.804 -0.995,-1.418 -1.777,-1.841 -0.783,-0.423 -1.735,-0.635 -2.857,-0.635 -1.164,0 -2.126,0.254 -2.888,0.762 -0.741,0.508 -1.323,1.206 -1.746,2.095 -0.402,0.867 -0.687,1.872 -0.857,3.015 -0.169,1.143 -0.254,2.349 -0.254,3.618 v 1.206 c 0,1.27 0.17,2.423 0.508,3.46 0.36,1.036 0.868,1.925 1.524,2.666 0.677,0.719 1.481,1.28 2.412,1.682 0.952,0.402 2.031,0.603 3.237,0.603 1.46,0 2.899,-0.275 4.317,-0.825 1.417,-0.551 2.634,-1.46 3.649,-2.73 l 4.856,5.776 c -0.698,0.995 -1.692,1.958 -2.983,2.889 -1.27,0.931 -2.793,1.692 -4.57,2.285 -1.778,0.571 -3.767,0.857 -5.967,0.857 z"
     id="path12" />
  <defs
     id="defs31">
    <linearGradient
       id="paint0_linear_201_120"
       x1="0"
       x2="88.064003"
       y1="0.77700001"
       y2="9.5050001"
       gradientUnits="userSpaceOnUse">
      <stop
         stop-color="#00E1C3"
         id="stop18" />
      <stop
         offset="1"
         stop-color="#00D1D5"
         id="stop20" />
    </linearGradient>
    <linearGradient
       id="paint1_linear_201_120"
       x1="493"
       x2="644.28699"
       y1="144.371"
       y2="510.05899"
       gradientUnits="userSpaceOnUse">
      <stop
         stop-color="#00E1C3"
         id="stop23" />
      <stop
         offset="1"
         stop-color="#00D1D5"
         id="stop25" />
    </linearGradient>
    <clipPath
       id="clip0_201_120">
      <rect
         width="190"
         height="190"
         fill="#ffffff"
         transform="translate(189,131)"
         id="rect28"
         x="0"
         y="0" />
    </clipPath>
  </defs>
  <text
     xml:space="preserve"
     style="font-style:normal;font-variant:normal;font-weight:900;font-stretch:normal;font-size:163.103px;font-family:Roboto;-inkscape-font-specification:'Roboto Heavy';fill:#00e1c3;fill-opacity:1;stroke:#000000;stroke-width:0.191137;stroke-linejoin:round"
     x="496.60214"
     y="307.95596"
     id="text996"><tspan
       id="tspan994"
       x="496.60214"
       y="307.95596"
       style="fill:#00e1c3;fill-opacity:1;stroke-width:0.191137">Планы</tspan></text>
</svg>
