<svg xmlns="http://www.w3.org/2000/svg" width="2168" height="440" fill="none" viewBox="0 0 2168 440"><path fill="#132636" d="M3 37C3 16.5655 19.5655 0 40 0H2112.88C2139.18 0 2157.08 26.6718 2147.12 51.0142L1997.75 416.014C1992.06 429.917 1978.52 439 1963.5 439H39.9999C19.5654 439 3 422.435 3 402V37Z"/><path fill="#132636" d="M0 37C0 16.5655 16.5655 0 37 0H39V440H37C16.5655 440 0 423.435 0 403V37Z"/><path fill="url(#paint0_linear_240_83)" d="M0 37C0 16.5655 16.5655 0 37 0H39V440H37C16.5655 440 0 423.435 0 403V37Z"/><path fill="url(#paint1_linear_240_83)" d="M339.24 239.163C349.416 233.319 349.415 218.678 339.238 212.836L304.727 193.042L342.697 175.39L395.065 205.427C410.978 214.555 410.978 237.445 395.065 246.573L340.201 278.042L302.231 260.39L339.24 239.163Z"/><path fill="url(#paint2_linear_240_83)" d="M223.282 259.304V279.416C223.287 291.095 235.961 298.401 246.117 292.576L267.934 280.062L305.904 297.714L224.679 344.303C208.808 353.406 189 341.985 189 323.73L189 243.366L223.282 259.304Z"/><path fill="url(#paint3_linear_240_83)" d="M308.401 155.718L270.431 173.37L246.103 159.416C235.948 153.604 223.282 160.913 223.282 172.59V195.289L189 211.226L189 128.27C189 110.015 208.808 98.5937 224.679 107.697L308.401 155.718Z"/><path fill="#fff" d="M542.011 147.114L551.627 111.789H564.101L548.517 158H540.456L542.011 147.114ZM533.283 111.789L542.899 147.114L544.518 158H536.361L520.873 111.789H533.283ZM586.159 149.653V123.659H596.886V158H586.857L586.159 149.653ZM587.174 142.67L589.967 142.607C589.967 144.913 589.692 147.05 589.142 149.018C588.592 150.965 587.777 152.657 586.698 154.096C585.64 155.535 584.328 156.656 582.763 157.46C581.218 158.243 579.43 158.635 577.399 158.635C575.706 158.635 574.151 158.402 572.733 157.937C571.337 157.45 570.131 156.699 569.115 155.683C568.1 154.646 567.306 153.324 566.735 151.716C566.185 150.087 565.91 148.14 565.91 145.876V123.659H576.605V145.939C576.605 146.701 576.701 147.357 576.891 147.907C577.082 148.457 577.357 148.923 577.716 149.304C578.076 149.663 578.52 149.938 579.049 150.129C579.599 150.298 580.224 150.383 580.922 150.383C582.53 150.383 583.789 150.044 584.699 149.367C585.609 148.69 586.243 147.77 586.603 146.606C586.984 145.442 587.174 144.13 587.174 142.67ZM619.42 158.635C616.627 158.635 614.131 158.201 611.93 157.333C609.73 156.445 607.868 155.228 606.344 153.684C604.842 152.139 603.689 150.362 602.885 148.352C602.102 146.341 601.71 144.215 601.71 141.972V140.766C601.71 138.248 602.06 135.921 602.758 133.784C603.456 131.625 604.493 129.742 605.868 128.134C607.243 126.526 608.968 125.278 611.042 124.389C613.115 123.479 615.527 123.024 618.278 123.024C620.711 123.024 622.89 123.416 624.816 124.199C626.741 124.982 628.371 126.103 629.704 127.563C631.058 129.023 632.084 130.79 632.782 132.863C633.502 134.937 633.861 137.264 633.861 139.846V144.194H605.805V137.497H623.419V136.672C623.441 135.529 623.24 134.556 622.816 133.752C622.414 132.948 621.822 132.334 621.039 131.911C620.256 131.488 619.304 131.276 618.183 131.276C617.019 131.276 616.056 131.53 615.294 132.038C614.554 132.546 613.972 133.244 613.549 134.133C613.147 135 612.861 136.005 612.692 137.148C612.523 138.291 612.438 139.497 612.438 140.766V141.972C612.438 143.242 612.607 144.395 612.946 145.432C613.306 146.468 613.813 147.357 614.469 148.098C615.146 148.817 615.95 149.378 616.881 149.78C617.833 150.182 618.913 150.383 620.119 150.383C621.579 150.383 623.017 150.108 624.435 149.558C625.853 149.007 627.069 148.098 628.085 146.828L632.941 152.604C632.243 153.599 631.248 154.562 629.958 155.493C628.688 156.424 627.165 157.185 625.387 157.778C623.61 158.349 621.621 158.635 619.42 158.635ZM661.093 111.789V158H649.953V111.789H661.093ZM674.994 111.789V120.39H636.369V111.789H674.994ZM697.179 149.653V123.659H707.907V158H697.877L697.179 149.653ZM698.195 142.67L700.988 142.607C700.988 144.913 700.713 147.05 700.163 149.018C699.612 150.965 698.798 152.657 697.719 154.096C696.661 155.535 695.349 156.656 693.783 157.46C692.239 158.243 690.451 158.635 688.419 158.635C686.727 158.635 685.172 158.402 683.754 157.937C682.357 157.45 681.151 156.699 680.136 155.683C679.12 154.646 678.327 153.324 677.755 151.716C677.205 150.087 676.93 148.14 676.93 145.876V123.659H687.626V145.939C687.626 146.701 687.721 147.357 687.912 147.907C688.102 148.457 688.377 148.923 688.737 149.304C689.097 149.663 689.541 149.938 690.07 150.129C690.62 150.298 691.244 150.383 691.942 150.383C693.55 150.383 694.809 150.044 695.719 149.367C696.629 148.69 697.264 147.77 697.624 146.606C698.004 145.442 698.195 144.13 698.195 142.67ZM713.905 109.25H724.601V149.558L723.49 158H713.905V109.25ZM745.675 140.449V141.115C745.675 143.718 745.411 146.088 744.882 148.225C744.353 150.362 743.538 152.213 742.438 153.779C741.338 155.323 739.952 156.519 738.28 157.365C736.609 158.212 734.63 158.635 732.345 158.635C730.272 158.635 728.494 158.19 727.013 157.302C725.532 156.392 724.294 155.144 723.3 153.557C722.305 151.949 721.501 150.097 720.888 148.002C720.274 145.887 719.787 143.623 719.428 141.21V140.417C719.787 138.026 720.274 135.783 720.888 133.688C721.501 131.573 722.305 129.721 723.3 128.134C724.294 126.526 725.521 125.278 726.981 124.389C728.463 123.479 730.229 123.024 732.282 123.024C734.588 123.024 736.577 123.458 738.249 124.326C739.941 125.193 741.338 126.41 742.438 127.976C743.538 129.541 744.353 131.382 744.882 133.498C745.411 135.614 745.675 137.931 745.675 140.449ZM734.979 141.115V140.449C734.979 139.2 734.905 138.026 734.757 136.926C734.609 135.826 734.345 134.852 733.964 134.006C733.583 133.16 733.043 132.493 732.345 132.006C731.647 131.52 730.737 131.276 729.616 131.276C728.473 131.276 727.51 131.467 726.728 131.848C725.966 132.229 725.352 132.779 724.887 133.498C724.442 134.196 724.125 135.064 723.935 136.101C723.744 137.116 723.66 138.269 723.681 139.56V142.067C723.638 143.824 723.797 145.326 724.157 146.574C724.516 147.823 725.141 148.775 726.029 149.431C726.918 150.087 728.135 150.415 729.679 150.415C730.822 150.415 731.742 150.192 732.44 149.748C733.16 149.304 733.699 148.669 734.059 147.844C734.419 147.019 734.662 146.035 734.789 144.892C734.916 143.75 734.979 142.491 734.979 141.115ZM767.067 158.635C764.274 158.635 761.777 158.201 759.577 157.333C757.376 156.445 755.514 155.228 753.991 153.684C752.488 152.139 751.335 150.362 750.531 148.352C749.748 146.341 749.357 144.215 749.357 141.972V140.766C749.357 138.248 749.706 135.921 750.404 133.784C751.103 131.625 752.139 129.742 753.515 128.134C754.89 126.526 756.614 125.278 758.688 124.389C760.762 123.479 763.174 123.024 765.924 123.024C768.358 123.024 770.537 123.416 772.462 124.199C774.388 124.982 776.017 126.103 777.35 127.563C778.704 129.023 779.73 130.79 780.429 132.863C781.148 134.937 781.508 137.264 781.508 139.846V144.194H753.451V137.497H771.066V136.672C771.087 135.529 770.886 134.556 770.463 133.752C770.061 132.948 769.468 132.334 768.686 131.911C767.903 131.488 766.951 131.276 765.829 131.276C764.665 131.276 763.703 131.53 762.941 132.038C762.2 132.546 761.618 133.244 761.195 134.133C760.793 135 760.508 136.005 760.338 137.148C760.169 138.291 760.084 139.497 760.084 140.766V141.972C760.084 143.242 760.254 144.395 760.592 145.432C760.952 146.468 761.46 147.357 762.116 148.098C762.793 148.817 763.597 149.378 764.528 149.78C765.48 150.182 766.559 150.383 767.765 150.383C769.225 150.383 770.664 150.108 772.082 149.558C773.499 149.007 774.716 148.098 775.731 146.828L780.587 152.604C779.889 153.599 778.895 154.562 777.604 155.493C776.334 156.424 774.811 157.185 773.034 157.778C771.256 158.349 769.267 158.635 767.067 158.635Z"/><path fill="#fff" d="M561.118 182.742V310H530.527V182.742H561.118ZM634.536 182.742L588.824 259.656H555.786L552.115 231.95H573.004L597.477 182.742H634.536ZM602.721 310L572.917 254.325L595.205 233.785L638.906 310H602.721ZM694.319 286.227V247.245C694.319 244.565 693.94 242.263 693.183 240.34C692.425 238.417 691.231 236.932 689.599 235.883C687.968 234.776 685.783 234.222 683.044 234.222C680.83 234.222 678.936 234.601 677.363 235.358C675.79 236.116 674.595 237.252 673.779 238.767C672.964 240.282 672.556 242.205 672.556 244.536H643.101C643.101 240.166 644.062 236.116 645.985 232.387C647.966 228.599 650.763 225.307 654.376 222.51C658.047 219.713 662.417 217.557 667.486 216.042C672.614 214.469 678.324 213.683 684.617 213.683C692.134 213.683 698.835 214.935 704.72 217.441C710.663 219.946 715.354 223.705 718.792 228.716C722.229 233.669 723.948 239.903 723.948 247.42V286.139C723.948 292.316 724.298 297.006 724.997 300.211C725.696 303.357 726.687 306.125 727.969 308.514V310H698.427C697.028 307.087 695.979 303.532 695.28 299.337C694.639 295.083 694.319 290.713 694.319 286.227ZM697.902 252.227L698.077 267.959H685.054C682.316 267.959 679.985 268.338 678.062 269.096C676.197 269.853 674.682 270.902 673.517 272.242C672.41 273.524 671.594 274.981 671.07 276.612C670.604 278.244 670.371 279.963 670.371 281.769C670.371 283.517 670.778 285.09 671.594 286.489C672.468 287.829 673.634 288.878 675.09 289.635C676.547 290.393 678.179 290.771 679.985 290.771C683.248 290.771 686.016 290.16 688.288 288.936C690.619 287.654 692.396 286.11 693.62 284.304C694.843 282.497 695.455 280.808 695.455 279.234L701.923 291.296C700.757 293.627 699.417 295.986 697.902 298.375C696.446 300.764 694.61 302.979 692.396 305.018C690.24 306.999 687.589 308.631 684.442 309.913C681.296 311.136 677.479 311.748 672.993 311.748C667.166 311.748 661.805 310.554 656.911 308.165C652.074 305.776 648.2 302.454 645.286 298.201C642.373 293.889 640.916 288.936 640.916 283.342C640.916 278.448 641.79 274.078 643.538 270.232C645.344 266.386 648.054 263.123 651.667 260.443C655.279 257.763 659.882 255.723 665.476 254.325C671.07 252.926 677.654 252.227 685.229 252.227H697.902ZM770.009 233.61V346.359H740.555V215.431H767.999L770.009 233.61ZM828.044 261.579V263.415C828.044 270.29 827.258 276.671 825.685 282.556C824.111 288.441 821.781 293.568 818.692 297.938C815.604 302.309 811.758 305.717 807.155 308.165C802.61 310.554 797.337 311.748 791.335 311.748C785.683 311.748 780.818 310.495 776.739 307.99C772.66 305.484 769.252 302.017 766.513 297.589C763.775 293.16 761.56 288.091 759.871 282.381C758.181 276.671 756.841 270.64 755.85 264.289V261.929C756.841 255.111 758.181 248.789 759.871 242.962C761.56 237.077 763.775 231.95 766.513 227.58C769.252 223.209 772.631 219.801 776.652 217.354C780.731 214.906 785.596 213.683 791.248 213.683C797.25 213.683 802.523 214.819 807.068 217.091C811.671 219.364 815.517 222.627 818.605 226.88C821.751 231.076 824.111 236.116 825.685 242.001C827.258 247.886 828.044 254.412 828.044 261.579ZM798.59 263.415V261.579C798.59 257.908 798.328 254.558 797.803 251.528C797.279 248.44 796.434 245.759 795.269 243.487C794.161 241.214 792.676 239.466 790.811 238.243C788.946 237.019 786.645 236.407 783.906 236.407C780.76 236.407 778.109 236.903 775.953 237.893C773.855 238.825 772.165 240.282 770.883 242.263C769.66 244.186 768.786 246.604 768.261 249.518C767.795 252.373 767.591 255.723 767.649 259.569V266.736C767.533 271.164 767.97 275.068 768.96 278.448C769.951 281.769 771.67 284.362 774.117 286.227C776.564 288.091 779.886 289.023 784.081 289.023C786.878 289.023 789.209 288.382 791.073 287.101C792.938 285.76 794.424 283.925 795.531 281.594C796.638 279.205 797.424 276.467 797.891 273.378C798.357 270.29 798.59 266.969 798.59 263.415ZM890.275 286.227V247.245C890.275 244.565 889.896 242.263 889.139 240.34C888.381 238.417 887.187 236.932 885.555 235.883C883.924 234.776 881.739 234.222 879 234.222C876.786 234.222 874.892 234.601 873.319 235.358C871.746 236.116 870.551 237.252 869.735 238.767C868.92 240.282 868.512 242.205 868.512 244.536H839.057C839.057 240.166 840.019 236.116 841.941 232.387C843.923 228.599 846.719 225.307 850.332 222.51C854.003 219.713 858.373 217.557 863.442 216.042C868.57 214.469 874.28 213.683 880.573 213.683C888.09 213.683 894.791 214.935 900.676 217.441C906.619 219.946 911.31 223.705 914.748 228.716C918.185 233.669 919.904 239.903 919.904 247.42V286.139C919.904 292.316 920.254 297.006 920.953 300.211C921.652 303.357 922.643 306.125 923.925 308.514V310H894.383C892.984 307.087 891.936 303.532 891.236 299.337C890.595 295.083 890.275 290.713 890.275 286.227ZM893.858 252.227L894.033 267.959H881.01C878.272 267.959 875.941 268.338 874.018 269.096C872.153 269.853 870.639 270.902 869.473 272.242C868.366 273.524 867.55 274.981 867.026 276.612C866.56 278.244 866.327 279.963 866.327 281.769C866.327 283.517 866.735 285.09 867.55 286.489C868.424 287.829 869.59 288.878 871.046 289.635C872.503 290.393 874.135 290.771 875.941 290.771C879.204 290.771 881.972 290.16 884.244 288.936C886.575 287.654 888.352 286.11 889.576 284.304C890.799 282.497 891.411 280.808 891.411 279.234L897.879 291.296C896.714 293.627 895.373 295.986 893.858 298.375C892.402 300.764 890.566 302.979 888.352 305.018C886.196 306.999 883.545 308.631 880.398 309.913C877.252 311.136 873.435 311.748 868.949 311.748C863.122 311.748 857.761 310.554 852.867 308.165C848.03 305.776 844.156 302.454 841.242 298.201C838.329 293.889 836.872 288.936 836.872 283.342C836.872 278.448 837.746 274.078 839.494 270.232C841.3 266.386 844.01 263.123 847.623 260.443C851.235 257.763 855.838 255.723 861.432 254.325C867.026 252.926 873.61 252.227 881.185 252.227H893.858ZM967.713 215.431V310H938.259V215.431H967.713ZM1028.98 215.431L990.176 276.962H963.78L960.459 249.43H976.279L991.225 215.431H1028.98ZM991.836 310L974.094 271.456L1001.45 259.132L1031.78 310H991.836ZM1091.82 215.431V310H1062.28V215.431H1091.82ZM1121.72 215.431V237.98H1032.92V215.431H1121.72ZM1172.93 311.748C1165.24 311.748 1158.37 310.554 1152.31 308.165C1146.25 305.717 1141.12 302.367 1136.92 298.113C1132.79 293.86 1129.61 288.965 1127.4 283.43C1125.24 277.894 1124.16 272.038 1124.16 265.862V262.541C1124.16 255.607 1125.12 249.197 1127.05 243.312C1128.97 237.369 1131.83 232.183 1135.61 227.754C1139.4 223.326 1144.15 219.888 1149.86 217.441C1155.57 214.935 1162.21 213.683 1169.79 213.683C1176.49 213.683 1182.49 214.761 1187.79 216.917C1193.09 219.072 1197.58 222.161 1201.25 226.181C1204.98 230.202 1207.81 235.067 1209.73 240.777C1211.71 246.488 1212.7 252.897 1212.7 260.006V271.98H1135.44V253.538H1183.95V251.266C1184.01 248.119 1183.45 245.439 1182.29 243.225C1181.18 241.01 1179.55 239.321 1177.39 238.155C1175.24 236.99 1172.61 236.407 1169.53 236.407C1166.32 236.407 1163.67 237.106 1161.57 238.505C1159.53 239.903 1157.93 241.826 1156.76 244.273C1155.66 246.662 1154.87 249.43 1154.4 252.577C1153.94 255.723 1153.71 259.044 1153.71 262.541V265.862C1153.71 269.358 1154.17 272.534 1155.1 275.389C1156.09 278.244 1157.49 280.691 1159.3 282.73C1161.16 284.712 1163.38 286.256 1165.94 287.363C1168.56 288.47 1171.54 289.023 1174.86 289.023C1178.88 289.023 1182.84 288.266 1186.74 286.751C1190.65 285.236 1194 282.73 1196.79 279.234L1210.17 295.142C1208.24 297.88 1205.51 300.531 1201.95 303.095C1198.46 305.659 1194.26 307.757 1189.37 309.388C1184.47 310.961 1178.99 311.748 1172.93 311.748ZM1254.39 233.61V346.359H1224.94V215.431H1252.38L1254.39 233.61ZM1312.43 261.579V263.415C1312.43 270.29 1311.64 276.671 1310.07 282.556C1308.5 288.441 1306.16 293.568 1303.08 297.938C1299.99 302.309 1296.14 305.717 1291.54 308.165C1286.99 310.554 1281.72 311.748 1275.72 311.748C1270.07 311.748 1265.2 310.495 1261.12 307.99C1257.04 305.484 1253.64 302.017 1250.9 297.589C1248.16 293.16 1245.94 288.091 1244.25 282.381C1242.56 276.671 1241.22 270.64 1240.23 264.289V261.929C1241.22 255.111 1242.56 248.789 1244.25 242.962C1245.94 237.077 1248.16 231.95 1250.9 227.58C1253.64 223.209 1257.02 219.801 1261.04 217.354C1265.11 214.906 1269.98 213.683 1275.63 213.683C1281.63 213.683 1286.91 214.819 1291.45 217.091C1296.05 219.364 1299.9 222.627 1302.99 226.88C1306.14 231.076 1308.5 236.116 1310.07 242.001C1311.64 247.886 1312.43 254.412 1312.43 261.579ZM1282.97 263.415V261.579C1282.97 257.908 1282.71 254.558 1282.19 251.528C1281.66 248.44 1280.82 245.759 1279.65 243.487C1278.55 241.214 1277.06 239.466 1275.19 238.243C1273.33 237.019 1271.03 236.407 1268.29 236.407C1265.14 236.407 1262.49 236.903 1260.34 237.893C1258.24 238.825 1256.55 240.282 1255.27 242.263C1254.04 244.186 1253.17 246.604 1252.65 249.518C1252.18 252.373 1251.97 255.723 1252.03 259.569V266.736C1251.92 271.164 1252.35 275.068 1253.34 278.448C1254.33 281.769 1256.05 284.362 1258.5 286.227C1260.95 288.091 1264.27 289.023 1268.46 289.023C1271.26 289.023 1273.59 288.382 1275.46 287.101C1277.32 285.76 1278.81 283.925 1279.91 281.594C1281.02 279.205 1281.81 276.467 1282.27 273.378C1282.74 270.29 1282.97 266.969 1282.97 263.415ZM1354.56 270.319L1380.6 215.431H1410.06V310H1380.6V254.937L1354.56 310H1325.01V215.431H1354.56V270.319ZM1465.99 289.023C1468.73 289.023 1471.06 288.528 1472.99 287.538C1474.97 286.489 1476.45 285.032 1477.44 283.167C1478.49 281.245 1478.99 278.943 1478.93 276.263H1506.64C1506.69 283.371 1504.95 289.606 1501.39 294.967C1497.9 300.269 1493.12 304.406 1487.06 307.378C1481.06 310.291 1474.27 311.748 1466.69 311.748C1459.29 311.748 1452.83 310.554 1447.29 308.165C1441.75 305.717 1437.12 302.338 1433.39 298.026C1429.72 293.656 1426.95 288.557 1425.09 282.73C1423.28 276.904 1422.38 270.582 1422.38 263.764V261.754C1422.38 254.937 1423.28 248.614 1425.09 242.788C1426.95 236.903 1429.72 231.804 1433.39 227.492C1437.12 223.122 1441.73 219.743 1447.2 217.354C1452.74 214.906 1459.18 213.683 1466.52 213.683C1474.38 213.683 1481.32 215.168 1487.32 218.14C1493.38 221.112 1498.13 225.424 1501.57 231.076C1505 236.728 1506.69 243.574 1506.64 251.615H1478.93C1478.99 248.76 1478.55 246.196 1477.62 243.924C1476.69 241.651 1475.23 239.845 1473.25 238.505C1471.33 237.106 1468.85 236.407 1465.82 236.407C1462.79 236.407 1460.34 237.077 1458.48 238.417C1456.61 239.758 1455.19 241.622 1454.19 244.011C1453.26 246.342 1452.62 249.022 1452.27 252.052C1451.98 255.082 1451.83 258.316 1451.83 261.754V263.764C1451.83 267.26 1451.98 270.552 1452.27 273.641C1452.62 276.671 1453.29 279.351 1454.28 281.682C1455.27 283.954 1456.7 285.76 1458.56 287.101C1460.43 288.382 1462.91 289.023 1465.99 289.023ZM1572.19 215.431V310H1542.65V215.431H1572.19ZM1602.08 215.431V237.98H1513.28V215.431H1602.08ZM1642.11 270.319L1668.16 215.431H1697.61V310H1668.16V254.937L1642.11 310H1612.57V215.431H1642.11V270.319ZM1745.07 215.431V310H1715.62V215.431H1745.07ZM1806.34 215.431L1767.53 276.962H1741.14L1737.82 249.43H1753.64L1768.58 215.431H1806.34ZM1769.19 310L1751.45 271.456L1778.81 259.132L1809.14 310H1769.19ZM1845.23 270.319L1871.28 215.431H1900.73V310H1871.28V254.937L1845.23 310H1815.69V215.431H1845.23V270.319Z"/><path fill="url(#paint4_linear_240_83)" d="M561.118 182.742V310H530.527V182.742H561.118ZM634.536 182.742L588.824 259.656H555.786L552.115 231.95H573.004L597.477 182.742H634.536ZM602.721 310L572.917 254.325L595.205 233.785L638.906 310H602.721ZM694.319 286.227V247.245C694.319 244.565 693.94 242.263 693.183 240.34C692.425 238.417 691.231 236.932 689.599 235.883C687.968 234.776 685.783 234.222 683.044 234.222C680.83 234.222 678.936 234.601 677.363 235.358C675.79 236.116 674.595 237.252 673.779 238.767C672.964 240.282 672.556 242.205 672.556 244.536H643.101C643.101 240.166 644.062 236.116 645.985 232.387C647.966 228.599 650.763 225.307 654.376 222.51C658.047 219.713 662.417 217.557 667.486 216.042C672.614 214.469 678.324 213.683 684.617 213.683C692.134 213.683 698.835 214.935 704.72 217.441C710.663 219.946 715.354 223.705 718.792 228.716C722.229 233.669 723.948 239.903 723.948 247.42V286.139C723.948 292.316 724.298 297.006 724.997 300.211C725.696 303.357 726.687 306.125 727.969 308.514V310H698.427C697.028 307.087 695.979 303.532 695.28 299.337C694.639 295.083 694.319 290.713 694.319 286.227ZM697.902 252.227L698.077 267.959H685.054C682.316 267.959 679.985 268.338 678.062 269.096C676.197 269.853 674.682 270.902 673.517 272.242C672.41 273.524 671.594 274.981 671.07 276.612C670.604 278.244 670.371 279.963 670.371 281.769C670.371 283.517 670.778 285.09 671.594 286.489C672.468 287.829 673.634 288.878 675.09 289.635C676.547 290.393 678.179 290.771 679.985 290.771C683.248 290.771 686.016 290.16 688.288 288.936C690.619 287.654 692.396 286.11 693.62 284.304C694.843 282.497 695.455 280.808 695.455 279.234L701.923 291.296C700.757 293.627 699.417 295.986 697.902 298.375C696.446 300.764 694.61 302.979 692.396 305.018C690.24 306.999 687.589 308.631 684.442 309.913C681.296 311.136 677.479 311.748 672.993 311.748C667.166 311.748 661.805 310.554 656.911 308.165C652.074 305.776 648.2 302.454 645.286 298.201C642.373 293.889 640.916 288.936 640.916 283.342C640.916 278.448 641.79 274.078 643.538 270.232C645.344 266.386 648.054 263.123 651.667 260.443C655.279 257.763 659.882 255.723 665.476 254.325C671.07 252.926 677.654 252.227 685.229 252.227H697.902ZM770.009 233.61V346.359H740.555V215.431H767.999L770.009 233.61ZM828.044 261.579V263.415C828.044 270.29 827.258 276.671 825.685 282.556C824.111 288.441 821.781 293.568 818.692 297.938C815.604 302.309 811.758 305.717 807.155 308.165C802.61 310.554 797.337 311.748 791.335 311.748C785.683 311.748 780.818 310.495 776.739 307.99C772.66 305.484 769.252 302.017 766.513 297.589C763.775 293.16 761.56 288.091 759.871 282.381C758.181 276.671 756.841 270.64 755.85 264.289V261.929C756.841 255.111 758.181 248.789 759.871 242.962C761.56 237.077 763.775 231.95 766.513 227.58C769.252 223.209 772.631 219.801 776.652 217.354C780.731 214.906 785.596 213.683 791.248 213.683C797.25 213.683 802.523 214.819 807.068 217.091C811.671 219.364 815.517 222.627 818.605 226.88C821.751 231.076 824.111 236.116 825.685 242.001C827.258 247.886 828.044 254.412 828.044 261.579ZM798.59 263.415V261.579C798.59 257.908 798.328 254.558 797.803 251.528C797.279 248.44 796.434 245.759 795.269 243.487C794.161 241.214 792.676 239.466 790.811 238.243C788.946 237.019 786.645 236.407 783.906 236.407C780.76 236.407 778.109 236.903 775.953 237.893C773.855 238.825 772.165 240.282 770.883 242.263C769.66 244.186 768.786 246.604 768.261 249.518C767.795 252.373 767.591 255.723 767.649 259.569V266.736C767.533 271.164 767.97 275.068 768.96 278.448C769.951 281.769 771.67 284.362 774.117 286.227C776.564 288.091 779.886 289.023 784.081 289.023C786.878 289.023 789.209 288.382 791.073 287.101C792.938 285.76 794.424 283.925 795.531 281.594C796.638 279.205 797.424 276.467 797.891 273.378C798.357 270.29 798.59 266.969 798.59 263.415ZM890.275 286.227V247.245C890.275 244.565 889.896 242.263 889.139 240.34C888.381 238.417 887.187 236.932 885.555 235.883C883.924 234.776 881.739 234.222 879 234.222C876.786 234.222 874.892 234.601 873.319 235.358C871.746 236.116 870.551 237.252 869.735 238.767C868.92 240.282 868.512 242.205 868.512 244.536H839.057C839.057 240.166 840.019 236.116 841.941 232.387C843.923 228.599 846.719 225.307 850.332 222.51C854.003 219.713 858.373 217.557 863.442 216.042C868.57 214.469 874.28 213.683 880.573 213.683C888.09 213.683 894.791 214.935 900.676 217.441C906.619 219.946 911.31 223.705 914.748 228.716C918.185 233.669 919.904 239.903 919.904 247.42V286.139C919.904 292.316 920.254 297.006 920.953 300.211C921.652 303.357 922.643 306.125 923.925 308.514V310H894.383C892.984 307.087 891.936 303.532 891.236 299.337C890.595 295.083 890.275 290.713 890.275 286.227ZM893.858 252.227L894.033 267.959H881.01C878.272 267.959 875.941 268.338 874.018 269.096C872.153 269.853 870.639 270.902 869.473 272.242C868.366 273.524 867.55 274.981 867.026 276.612C866.56 278.244 866.327 279.963 866.327 281.769C866.327 283.517 866.735 285.09 867.55 286.489C868.424 287.829 869.59 288.878 871.046 289.635C872.503 290.393 874.135 290.771 875.941 290.771C879.204 290.771 881.972 290.16 884.244 288.936C886.575 287.654 888.352 286.11 889.576 284.304C890.799 282.497 891.411 280.808 891.411 279.234L897.879 291.296C896.714 293.627 895.373 295.986 893.858 298.375C892.402 300.764 890.566 302.979 888.352 305.018C886.196 306.999 883.545 308.631 880.398 309.913C877.252 311.136 873.435 311.748 868.949 311.748C863.122 311.748 857.761 310.554 852.867 308.165C848.03 305.776 844.156 302.454 841.242 298.201C838.329 293.889 836.872 288.936 836.872 283.342C836.872 278.448 837.746 274.078 839.494 270.232C841.3 266.386 844.01 263.123 847.623 260.443C851.235 257.763 855.838 255.723 861.432 254.325C867.026 252.926 873.61 252.227 881.185 252.227H893.858ZM967.713 215.431V310H938.259V215.431H967.713ZM1028.98 215.431L990.176 276.962H963.78L960.459 249.43H976.279L991.225 215.431H1028.98ZM991.836 310L974.094 271.456L1001.45 259.132L1031.78 310H991.836ZM1091.82 215.431V310H1062.28V215.431H1091.82ZM1121.72 215.431V237.98H1032.92V215.431H1121.72ZM1172.93 311.748C1165.24 311.748 1158.37 310.554 1152.31 308.165C1146.25 305.717 1141.12 302.367 1136.92 298.113C1132.79 293.86 1129.61 288.965 1127.4 283.43C1125.24 277.894 1124.16 272.038 1124.16 265.862V262.541C1124.16 255.607 1125.12 249.197 1127.05 243.312C1128.97 237.369 1131.83 232.183 1135.61 227.754C1139.4 223.326 1144.15 219.888 1149.86 217.441C1155.57 214.935 1162.21 213.683 1169.79 213.683C1176.49 213.683 1182.49 214.761 1187.79 216.917C1193.09 219.072 1197.58 222.161 1201.25 226.181C1204.98 230.202 1207.81 235.067 1209.73 240.777C1211.71 246.488 1212.7 252.897 1212.7 260.006V271.98H1135.44V253.538H1183.95V251.266C1184.01 248.119 1183.45 245.439 1182.29 243.225C1181.18 241.01 1179.55 239.321 1177.39 238.155C1175.24 236.99 1172.61 236.407 1169.53 236.407C1166.32 236.407 1163.67 237.106 1161.57 238.505C1159.53 239.903 1157.93 241.826 1156.76 244.273C1155.66 246.662 1154.87 249.43 1154.4 252.577C1153.94 255.723 1153.71 259.044 1153.71 262.541V265.862C1153.71 269.358 1154.17 272.534 1155.1 275.389C1156.09 278.244 1157.49 280.691 1159.3 282.73C1161.16 284.712 1163.38 286.256 1165.94 287.363C1168.56 288.47 1171.54 289.023 1174.86 289.023C1178.88 289.023 1182.84 288.266 1186.74 286.751C1190.65 285.236 1194 282.73 1196.79 279.234L1210.17 295.142C1208.24 297.88 1205.51 300.531 1201.95 303.095C1198.46 305.659 1194.26 307.757 1189.37 309.388C1184.47 310.961 1178.99 311.748 1172.93 311.748ZM1254.39 233.61V346.359H1224.94V215.431H1252.38L1254.39 233.61ZM1312.43 261.579V263.415C1312.43 270.29 1311.64 276.671 1310.07 282.556C1308.5 288.441 1306.16 293.568 1303.08 297.938C1299.99 302.309 1296.14 305.717 1291.54 308.165C1286.99 310.554 1281.72 311.748 1275.72 311.748C1270.07 311.748 1265.2 310.495 1261.12 307.99C1257.04 305.484 1253.64 302.017 1250.9 297.589C1248.16 293.16 1245.94 288.091 1244.25 282.381C1242.56 276.671 1241.22 270.64 1240.23 264.289V261.929C1241.22 255.111 1242.56 248.789 1244.25 242.962C1245.94 237.077 1248.16 231.95 1250.9 227.58C1253.64 223.209 1257.02 219.801 1261.04 217.354C1265.11 214.906 1269.98 213.683 1275.63 213.683C1281.63 213.683 1286.91 214.819 1291.45 217.091C1296.05 219.364 1299.9 222.627 1302.99 226.88C1306.14 231.076 1308.5 236.116 1310.07 242.001C1311.64 247.886 1312.43 254.412 1312.43 261.579ZM1282.97 263.415V261.579C1282.97 257.908 1282.71 254.558 1282.19 251.528C1281.66 248.44 1280.82 245.759 1279.65 243.487C1278.55 241.214 1277.06 239.466 1275.19 238.243C1273.33 237.019 1271.03 236.407 1268.29 236.407C1265.14 236.407 1262.49 236.903 1260.34 237.893C1258.24 238.825 1256.55 240.282 1255.27 242.263C1254.04 244.186 1253.17 246.604 1252.65 249.518C1252.18 252.373 1251.97 255.723 1252.03 259.569V266.736C1251.92 271.164 1252.35 275.068 1253.34 278.448C1254.33 281.769 1256.05 284.362 1258.5 286.227C1260.95 288.091 1264.27 289.023 1268.46 289.023C1271.26 289.023 1273.59 288.382 1275.46 287.101C1277.32 285.76 1278.81 283.925 1279.91 281.594C1281.02 279.205 1281.81 276.467 1282.27 273.378C1282.74 270.29 1282.97 266.969 1282.97 263.415ZM1354.56 270.319L1380.6 215.431H1410.06V310H1380.6V254.937L1354.56 310H1325.01V215.431H1354.56V270.319ZM1465.99 289.023C1468.73 289.023 1471.06 288.528 1472.99 287.538C1474.97 286.489 1476.45 285.032 1477.44 283.167C1478.49 281.245 1478.99 278.943 1478.93 276.263H1506.64C1506.69 283.371 1504.95 289.606 1501.39 294.967C1497.9 300.269 1493.12 304.406 1487.06 307.378C1481.06 310.291 1474.27 311.748 1466.69 311.748C1459.29 311.748 1452.83 310.554 1447.29 308.165C1441.75 305.717 1437.12 302.338 1433.39 298.026C1429.72 293.656 1426.95 288.557 1425.09 282.73C1423.28 276.904 1422.38 270.582 1422.38 263.764V261.754C1422.38 254.937 1423.28 248.614 1425.09 242.788C1426.95 236.903 1429.72 231.804 1433.39 227.492C1437.12 223.122 1441.73 219.743 1447.2 217.354C1452.74 214.906 1459.18 213.683 1466.52 213.683C1474.38 213.683 1481.32 215.168 1487.32 218.14C1493.38 221.112 1498.13 225.424 1501.57 231.076C1505 236.728 1506.69 243.574 1506.64 251.615H1478.93C1478.99 248.76 1478.55 246.196 1477.62 243.924C1476.69 241.651 1475.23 239.845 1473.25 238.505C1471.33 237.106 1468.85 236.407 1465.82 236.407C1462.79 236.407 1460.34 237.077 1458.48 238.417C1456.61 239.758 1455.19 241.622 1454.19 244.011C1453.26 246.342 1452.62 249.022 1452.27 252.052C1451.98 255.082 1451.83 258.316 1451.83 261.754V263.764C1451.83 267.26 1451.98 270.552 1452.27 273.641C1452.62 276.671 1453.29 279.351 1454.28 281.682C1455.27 283.954 1456.7 285.76 1458.56 287.101C1460.43 288.382 1462.91 289.023 1465.99 289.023ZM1572.19 215.431V310H1542.65V215.431H1572.19ZM1602.08 215.431V237.98H1513.28V215.431H1602.08ZM1642.11 270.319L1668.16 215.431H1697.61V310H1668.16V254.937L1642.11 310H1612.57V215.431H1642.11V270.319ZM1745.07 215.431V310H1715.62V215.431H1745.07ZM1806.34 215.431L1767.53 276.962H1741.14L1737.82 249.43H1753.64L1768.58 215.431H1806.34ZM1769.19 310L1751.45 271.456L1778.81 259.132L1809.14 310H1769.19ZM1845.23 270.319L1871.28 215.431H1900.73V310H1871.28V254.937L1845.23 310H1815.69V215.431H1845.23V270.319Z"/><defs><linearGradient id="paint0_linear_240_83" x1="0" x2="88.064" y1=".777" y2="9.505" gradientUnits="userSpaceOnUse"><stop stop-color="#00E1C3"/><stop offset="1" stop-color="#00D1D5"/></linearGradient><linearGradient id="paint1_linear_240_83" x1="189" x2="436.787" y1="104.929" y2="353.473" gradientUnits="userSpaceOnUse"><stop stop-color="#00E1C3"/><stop offset="1" stop-color="#00D1D5"/></linearGradient><linearGradient id="paint2_linear_240_83" x1="189" x2="436.787" y1="104.929" y2="353.473" gradientUnits="userSpaceOnUse"><stop stop-color="#00E1C3"/><stop offset="1" stop-color="#00D1D5"/></linearGradient><linearGradient id="paint3_linear_240_83" x1="189" x2="436.787" y1="104.929" y2="353.473" gradientUnits="userSpaceOnUse"><stop stop-color="#00E1C3"/><stop offset="1" stop-color="#00D1D5"/></linearGradient><linearGradient id="paint4_linear_240_83" x1="521" x2="576.223" y1="144.371" y2="565.404" gradientUnits="userSpaceOnUse"><stop stop-color="#00E1C3"/><stop offset="1" stop-color="#00D1D5"/></linearGradient></defs></svg>