<svg xmlns="http://www.w3.org/2000/svg" width="1308" height="440" fill="none" viewBox="0 0 1308 440"><path fill="#132636" d="M3 37C3 16.5655 19.5655 0 40 0H1260.76C1284.79 0 1302.44 22.5374 1296.69 45.8617L1206.65 410.862C1202.57 427.388 1187.74 439 1170.72 439H40.0001C19.5655 439 3 422.435 3 402V37Z"/><path fill="#132636" d="M0 37C0 16.5655 16.5655 0 37 0H39V440H37C16.5655 440 0 423.435 0 403V37Z"/><path fill="url(#paint0_linear_240_63)" d="M0 37C0 16.5655 16.5655 0 37 0H39V440H37C16.5655 440 0 423.435 0 403V37Z"/><g clip-path="url(#clip0_240_63)"><path fill="#01D8CE" d="M206.156 317.5C201.581 317.5 197.578 315.784 194.147 312.353C190.716 308.922 189 304.919 189 300.344V259.455H206.156V300.344H354.844V259.455H372V300.344C372 304.919 370.284 308.922 366.853 312.353C363.422 315.784 359.419 317.5 354.844 317.5H206.156ZM280.5 273.752L225.314 218.566L237.609 206.27L271.922 240.583V134.5H289.078V240.583L323.391 206.27L335.686 218.566L280.5 273.752Z"/></g><path fill="#fff" d="M507.011 147.114L516.627 111.789H529.101L513.517 158H505.456L507.011 147.114ZM498.283 111.789L507.899 147.114L509.518 158H501.361L485.873 111.789H498.283ZM551.159 149.653V123.659H561.886V158H551.857L551.159 149.653ZM552.174 142.67L554.967 142.607C554.967 144.913 554.692 147.05 554.142 149.018C553.592 150.965 552.777 152.657 551.698 154.096C550.64 155.535 549.328 156.656 547.763 157.46C546.218 158.243 544.43 158.635 542.399 158.635C540.706 158.635 539.151 158.402 537.733 157.937C536.337 157.45 535.131 156.699 534.115 155.683C533.1 154.646 532.306 153.324 531.735 151.716C531.185 150.087 530.91 148.14 530.91 145.876V123.659H541.605V145.939C541.605 146.701 541.701 147.357 541.891 147.907C542.082 148.457 542.357 148.923 542.716 149.304C543.076 149.663 543.52 149.938 544.049 150.129C544.599 150.298 545.224 150.383 545.922 150.383C547.53 150.383 548.789 150.044 549.699 149.367C550.609 148.69 551.243 147.77 551.603 146.606C551.984 145.442 552.174 144.13 552.174 142.67ZM584.42 158.635C581.627 158.635 579.131 158.201 576.93 157.333C574.73 156.445 572.868 155.228 571.344 153.684C569.842 152.139 568.689 150.362 567.885 148.352C567.102 146.341 566.71 144.215 566.71 141.972V140.766C566.71 138.248 567.06 135.921 567.758 133.784C568.456 131.625 569.493 129.742 570.868 128.134C572.243 126.526 573.968 125.278 576.042 124.389C578.115 123.479 580.527 123.024 583.278 123.024C585.711 123.024 587.89 123.416 589.816 124.199C591.741 124.982 593.371 126.103 594.704 127.563C596.058 129.023 597.084 130.79 597.782 132.863C598.502 134.937 598.861 137.264 598.861 139.846V144.194H570.805V137.497H588.419V136.672C588.441 135.529 588.24 134.556 587.816 133.752C587.414 132.948 586.822 132.334 586.039 131.911C585.256 131.488 584.304 131.276 583.183 131.276C582.019 131.276 581.056 131.53 580.294 132.038C579.554 132.546 578.972 133.244 578.549 134.133C578.147 135 577.861 136.005 577.692 137.148C577.523 138.291 577.438 139.497 577.438 140.766V141.972C577.438 143.242 577.607 144.395 577.946 145.432C578.306 146.468 578.813 147.357 579.469 148.098C580.146 148.817 580.95 149.378 581.881 149.78C582.833 150.182 583.913 150.383 585.119 150.383C586.579 150.383 588.017 150.108 589.435 149.558C590.853 149.007 592.069 148.098 593.085 146.828L597.941 152.604C597.243 153.599 596.248 154.562 594.958 155.493C593.688 156.424 592.165 157.185 590.387 157.778C588.61 158.349 586.621 158.635 584.42 158.635ZM626.093 111.789V158H614.953V111.789H626.093ZM639.994 111.789V120.39H601.369V111.789H639.994ZM662.179 149.653V123.659H672.907V158H662.877L662.179 149.653ZM663.195 142.67L665.988 142.607C665.988 144.913 665.713 147.05 665.163 149.018C664.612 150.965 663.798 152.657 662.719 154.096C661.661 155.535 660.349 156.656 658.783 157.46C657.239 158.243 655.451 158.635 653.419 158.635C651.727 158.635 650.172 158.402 648.754 157.937C647.357 157.45 646.151 156.699 645.136 155.683C644.12 154.646 643.327 153.324 642.755 151.716C642.205 150.087 641.93 148.14 641.93 145.876V123.659H652.626V145.939C652.626 146.701 652.721 147.357 652.912 147.907C653.102 148.457 653.377 148.923 653.737 149.304C654.097 149.663 654.541 149.938 655.07 150.129C655.62 150.298 656.244 150.383 656.942 150.383C658.55 150.383 659.809 150.044 660.719 149.367C661.629 148.69 662.264 147.77 662.624 146.606C663.004 145.442 663.195 144.13 663.195 142.67ZM678.905 109.25H689.601V149.558L688.49 158H678.905V109.25ZM710.675 140.449V141.115C710.675 143.718 710.411 146.088 709.882 148.225C709.353 150.362 708.538 152.213 707.438 153.779C706.338 155.323 704.952 156.519 703.28 157.365C701.609 158.212 699.63 158.635 697.345 158.635C695.272 158.635 693.494 158.19 692.013 157.302C690.532 156.392 689.294 155.144 688.3 153.557C687.305 151.949 686.501 150.097 685.888 148.002C685.274 145.887 684.787 143.623 684.428 141.21V140.417C684.787 138.026 685.274 135.783 685.888 133.688C686.501 131.573 687.305 129.721 688.3 128.134C689.294 126.526 690.521 125.278 691.981 124.389C693.463 123.479 695.229 123.024 697.282 123.024C699.588 123.024 701.577 123.458 703.249 124.326C704.941 125.193 706.338 126.41 707.438 127.976C708.538 129.541 709.353 131.382 709.882 133.498C710.411 135.614 710.675 137.931 710.675 140.449ZM699.979 141.115V140.449C699.979 139.2 699.905 138.026 699.757 136.926C699.609 135.826 699.345 134.852 698.964 134.006C698.583 133.16 698.043 132.493 697.345 132.006C696.647 131.52 695.737 131.276 694.616 131.276C693.473 131.276 692.51 131.467 691.728 131.848C690.966 132.229 690.352 132.779 689.887 133.498C689.442 134.196 689.125 135.064 688.935 136.101C688.744 137.116 688.66 138.269 688.681 139.56V142.067C688.638 143.824 688.797 145.326 689.157 146.574C689.516 147.823 690.141 148.775 691.029 149.431C691.918 150.087 693.135 150.415 694.679 150.415C695.822 150.415 696.742 150.192 697.44 149.748C698.16 149.304 698.699 148.669 699.059 147.844C699.419 147.019 699.662 146.035 699.789 144.892C699.916 143.75 699.979 142.491 699.979 141.115ZM732.067 158.635C729.274 158.635 726.777 158.201 724.577 157.333C722.376 156.445 720.514 155.228 718.991 153.684C717.488 152.139 716.335 150.362 715.531 148.352C714.748 146.341 714.357 144.215 714.357 141.972V140.766C714.357 138.248 714.706 135.921 715.404 133.784C716.103 131.625 717.139 129.742 718.515 128.134C719.89 126.526 721.614 125.278 723.688 124.389C725.762 123.479 728.174 123.024 730.924 123.024C733.358 123.024 735.537 123.416 737.462 124.199C739.388 124.982 741.017 126.103 742.35 127.563C743.704 129.023 744.73 130.79 745.429 132.863C746.148 134.937 746.508 137.264 746.508 139.846V144.194H718.451V137.497H736.066V136.672C736.087 135.529 735.886 134.556 735.463 133.752C735.061 132.948 734.468 132.334 733.686 131.911C732.903 131.488 731.951 131.276 730.829 131.276C729.665 131.276 728.703 131.53 727.941 132.038C727.2 132.546 726.618 133.244 726.195 134.133C725.793 135 725.508 136.005 725.338 137.148C725.169 138.291 725.084 139.497 725.084 140.766V141.972C725.084 143.242 725.254 144.395 725.592 145.432C725.952 146.468 726.46 147.357 727.116 148.098C727.793 148.817 728.597 149.378 729.528 149.78C730.48 150.182 731.559 150.383 732.765 150.383C734.225 150.383 735.664 150.108 737.082 149.558C738.499 149.007 739.716 148.098 740.731 146.828L745.587 152.604C744.889 153.599 743.895 154.562 742.604 155.493C741.334 156.424 739.811 157.185 738.034 157.778C736.256 158.349 734.267 158.635 732.067 158.635Z"/><path fill="#fff" d="M524.632 263.065L570.343 182.742H601.021V310H570.343V229.765L524.632 310H493.954V182.742H524.632V263.065ZM683.792 252.314V274.952H636.594V252.314H683.792ZM647.345 215.431V310H617.89V215.431H647.345ZM702.67 215.431V310H673.128V215.431H702.67ZM758.87 289.023C761.609 289.023 763.939 288.528 765.862 287.538C767.843 286.489 769.329 285.032 770.32 283.167C771.369 281.245 771.864 278.943 771.806 276.263H799.512C799.57 283.371 797.822 289.606 794.268 294.967C790.772 300.269 785.994 304.406 779.934 307.378C773.932 310.291 767.144 311.748 759.569 311.748C752.169 311.748 745.701 310.554 740.166 308.165C734.631 305.717 729.998 302.338 726.269 298.026C722.598 293.656 719.83 288.557 717.966 282.73C716.16 276.904 715.256 270.582 715.256 263.764V261.754C715.256 254.937 716.16 248.614 717.966 242.788C719.83 236.903 722.598 231.804 726.269 227.492C729.998 223.122 734.601 219.743 740.079 217.354C745.614 214.906 752.053 213.683 759.395 213.683C767.261 213.683 774.195 215.168 780.196 218.14C786.256 221.112 791.005 225.424 794.443 231.076C797.881 236.728 799.57 243.574 799.512 251.615H771.806C771.864 248.76 771.427 246.196 770.495 243.924C769.562 241.651 768.106 239.845 766.125 238.505C764.202 237.106 761.725 236.407 758.695 236.407C755.665 236.407 753.218 237.077 751.354 238.417C749.489 239.758 748.061 241.622 747.071 244.011C746.139 246.342 745.498 249.022 745.148 252.052C744.857 255.082 744.711 258.316 744.711 261.754V263.764C744.711 267.26 744.857 270.552 745.148 273.641C745.498 276.671 746.168 279.351 747.158 281.682C748.149 283.954 749.576 285.76 751.441 287.101C753.306 288.382 755.782 289.023 758.87 289.023ZM865.064 215.431V310H835.522V215.431H865.064ZM894.956 215.431V237.98H806.155V215.431H894.956ZM953.69 286.227V247.245C953.69 244.565 953.311 242.263 952.554 240.34C951.796 238.417 950.602 236.932 948.97 235.883C947.339 234.776 945.154 234.222 942.415 234.222C940.201 234.222 938.307 234.601 936.734 235.358C935.161 236.116 933.966 237.252 933.15 238.767C932.335 240.282 931.927 242.205 931.927 244.536H902.472C902.472 240.166 903.434 236.116 905.356 232.387C907.338 228.599 910.134 225.307 913.747 222.51C917.418 219.713 921.788 217.557 926.857 216.042C931.985 214.469 937.695 213.683 943.988 213.683C951.505 213.683 958.206 214.935 964.091 217.441C970.034 219.946 974.725 223.705 978.163 228.716C981.6 233.669 983.319 239.903 983.319 247.42V286.139C983.319 292.316 983.669 297.006 984.368 300.211C985.067 303.357 986.058 306.125 987.34 308.514V310H957.798C956.399 307.087 955.351 303.532 954.651 299.337C954.01 295.083 953.69 290.713 953.69 286.227ZM957.273 252.227L957.448 267.959H944.425C941.687 267.959 939.356 268.338 937.433 269.096C935.569 269.853 934.054 270.902 932.888 272.242C931.781 273.524 930.965 274.981 930.441 276.612C929.975 278.244 929.742 279.963 929.742 281.769C929.742 283.517 930.15 285.09 930.965 286.489C931.839 287.829 933.005 288.878 934.461 289.635C935.918 290.393 937.55 290.771 939.356 290.771C942.619 290.771 945.387 290.16 947.659 288.936C949.99 287.654 951.767 286.11 952.991 284.304C954.214 282.497 954.826 280.808 954.826 279.234L961.294 291.296C960.129 293.627 958.788 295.986 957.273 298.375C955.817 300.764 953.981 302.979 951.767 305.018C949.611 306.999 946.96 308.631 943.813 309.913C940.667 311.136 936.85 311.748 932.364 311.748C926.537 311.748 921.176 310.554 916.282 308.165C911.445 305.776 907.571 302.454 904.657 298.201C901.744 293.889 900.287 288.936 900.287 283.342C900.287 278.448 901.161 274.078 902.909 270.232C904.715 266.386 907.425 263.123 911.038 260.443C914.65 257.763 919.253 255.723 924.847 254.325C930.441 252.926 937.025 252.227 944.6 252.227H957.273ZM1063.82 215.431V238.155H1016.97V215.431H1063.82ZM1084.18 215.431V310H1054.73V215.431H1084.18ZM1009.54 215.431H1038.3L1035.67 264.114C1035.32 270.873 1034.54 276.787 1033.31 281.856C1032.15 286.926 1030.57 291.267 1028.59 294.879C1026.67 298.434 1024.37 301.347 1021.69 303.62C1019.01 305.834 1015.98 307.465 1012.6 308.514C1009.22 309.505 1005.55 310 1001.59 310H992.671L992.234 287.45L995.381 287.101C996.954 286.926 998.353 286.401 999.576 285.527C1000.8 284.653 1001.88 283.43 1002.81 281.856C1003.74 280.283 1004.53 278.273 1005.17 275.826C1005.87 273.378 1006.42 270.494 1006.83 267.173C1007.3 263.852 1007.62 260.035 1007.79 255.723L1009.54 215.431Z"/><path fill="url(#paint1_linear_240_63)" d="M524.632 263.065L570.343 182.742H601.021V310H570.343V229.765L524.632 310H493.954V182.742H524.632V263.065ZM683.792 252.314V274.952H636.594V252.314H683.792ZM647.345 215.431V310H617.89V215.431H647.345ZM702.67 215.431V310H673.128V215.431H702.67ZM758.87 289.023C761.609 289.023 763.939 288.528 765.862 287.538C767.843 286.489 769.329 285.032 770.32 283.167C771.369 281.245 771.864 278.943 771.806 276.263H799.512C799.57 283.371 797.822 289.606 794.268 294.967C790.772 300.269 785.994 304.406 779.934 307.378C773.932 310.291 767.144 311.748 759.569 311.748C752.169 311.748 745.701 310.554 740.166 308.165C734.631 305.717 729.998 302.338 726.269 298.026C722.598 293.656 719.83 288.557 717.966 282.73C716.16 276.904 715.256 270.582 715.256 263.764V261.754C715.256 254.937 716.16 248.614 717.966 242.788C719.83 236.903 722.598 231.804 726.269 227.492C729.998 223.122 734.601 219.743 740.079 217.354C745.614 214.906 752.053 213.683 759.395 213.683C767.261 213.683 774.195 215.168 780.196 218.14C786.256 221.112 791.005 225.424 794.443 231.076C797.881 236.728 799.57 243.574 799.512 251.615H771.806C771.864 248.76 771.427 246.196 770.495 243.924C769.562 241.651 768.106 239.845 766.125 238.505C764.202 237.106 761.725 236.407 758.695 236.407C755.665 236.407 753.218 237.077 751.354 238.417C749.489 239.758 748.061 241.622 747.071 244.011C746.139 246.342 745.498 249.022 745.148 252.052C744.857 255.082 744.711 258.316 744.711 261.754V263.764C744.711 267.26 744.857 270.552 745.148 273.641C745.498 276.671 746.168 279.351 747.158 281.682C748.149 283.954 749.576 285.76 751.441 287.101C753.306 288.382 755.782 289.023 758.87 289.023ZM865.064 215.431V310H835.522V215.431H865.064ZM894.956 215.431V237.98H806.155V215.431H894.956ZM953.69 286.227V247.245C953.69 244.565 953.311 242.263 952.554 240.34C951.796 238.417 950.602 236.932 948.97 235.883C947.339 234.776 945.154 234.222 942.415 234.222C940.201 234.222 938.307 234.601 936.734 235.358C935.161 236.116 933.966 237.252 933.15 238.767C932.335 240.282 931.927 242.205 931.927 244.536H902.472C902.472 240.166 903.434 236.116 905.356 232.387C907.338 228.599 910.134 225.307 913.747 222.51C917.418 219.713 921.788 217.557 926.857 216.042C931.985 214.469 937.695 213.683 943.988 213.683C951.505 213.683 958.206 214.935 964.091 217.441C970.034 219.946 974.725 223.705 978.163 228.716C981.6 233.669 983.319 239.903 983.319 247.42V286.139C983.319 292.316 983.669 297.006 984.368 300.211C985.067 303.357 986.058 306.125 987.34 308.514V310H957.798C956.399 307.087 955.351 303.532 954.651 299.337C954.01 295.083 953.69 290.713 953.69 286.227ZM957.273 252.227L957.448 267.959H944.425C941.687 267.959 939.356 268.338 937.433 269.096C935.569 269.853 934.054 270.902 932.888 272.242C931.781 273.524 930.965 274.981 930.441 276.612C929.975 278.244 929.742 279.963 929.742 281.769C929.742 283.517 930.15 285.09 930.965 286.489C931.839 287.829 933.005 288.878 934.461 289.635C935.918 290.393 937.55 290.771 939.356 290.771C942.619 290.771 945.387 290.16 947.659 288.936C949.99 287.654 951.767 286.11 952.991 284.304C954.214 282.497 954.826 280.808 954.826 279.234L961.294 291.296C960.129 293.627 958.788 295.986 957.273 298.375C955.817 300.764 953.981 302.979 951.767 305.018C949.611 306.999 946.96 308.631 943.813 309.913C940.667 311.136 936.85 311.748 932.364 311.748C926.537 311.748 921.176 310.554 916.282 308.165C911.445 305.776 907.571 302.454 904.657 298.201C901.744 293.889 900.287 288.936 900.287 283.342C900.287 278.448 901.161 274.078 902.909 270.232C904.715 266.386 907.425 263.123 911.038 260.443C914.65 257.763 919.253 255.723 924.847 254.325C930.441 252.926 937.025 252.227 944.6 252.227H957.273ZM1063.82 215.431V238.155H1016.97V215.431H1063.82ZM1084.18 215.431V310H1054.73V215.431H1084.18ZM1009.54 215.431H1038.3L1035.67 264.114C1035.32 270.873 1034.54 276.787 1033.31 281.856C1032.15 286.926 1030.57 291.267 1028.59 294.879C1026.67 298.434 1024.37 301.347 1021.69 303.62C1019.01 305.834 1015.98 307.465 1012.6 308.514C1009.22 309.505 1005.55 310 1001.59 310H992.671L992.234 287.45L995.381 287.101C996.954 286.926 998.353 286.401 999.576 285.527C1000.8 284.653 1001.88 283.43 1002.81 281.856C1003.74 280.283 1004.53 278.273 1005.17 275.826C1005.87 273.378 1006.42 270.494 1006.83 267.173C1007.3 263.852 1007.62 260.035 1007.79 255.723L1009.54 215.431Z"/><defs><linearGradient id="paint0_linear_240_63" x1="0" x2="88.064" y1=".777" y2="9.505" gradientUnits="userSpaceOnUse"><stop stop-color="#00E1C3"/><stop offset="1" stop-color="#00D1D5"/></linearGradient><linearGradient id="paint1_linear_240_63" x1="486" x2="606.94" y1="144.371" y2="535.225" gradientUnits="userSpaceOnUse"><stop stop-color="#00E1C3"/><stop offset="1" stop-color="#00D1D5"/></linearGradient><clipPath id="clip0_240_63"><rect width="183" height="183" fill="#fff" transform="translate(189 134.5)"/></clipPath></defs></svg>