<svg xmlns="http://www.w3.org/2000/svg" width="1219" height="440" fill="none" viewBox="0 0 1219 440"><path fill="#132636" d="M3 37C3 16.5655 19.5655 0 40 0H1172.53C1196.31 0 1213.92 22.1121 1208.59 45.2887L1124.69 410.289C1120.83 427.092 1105.87 439 1088.63 439H40C19.5655 439 3 422.435 3 402V37Z"/><path fill="#132636" d="M0 37C0 16.5655 16.5655 0 37 0H39V440H37C16.5655 440 0 423.435 0 403V37Z"/><path fill="url(#paint0_linear_249_202)" d="M0 37C0 16.5655 16.5655 0 37 0H39V440H37C16.5655 440 0 423.435 0 403V37Z"/><path fill="url(#paint1_linear_249_202)" d="M339.24 239.163C349.416 233.319 349.415 218.678 339.238 212.836L304.727 193.042L342.697 175.39L395.065 205.427C410.978 214.555 410.978 237.445 395.065 246.573L340.201 278.042L302.231 260.39L339.24 239.163Z"/><path fill="url(#paint2_linear_249_202)" d="M223.282 259.304V279.416C223.287 291.095 235.961 298.401 246.117 292.576L267.934 280.062L305.904 297.714L224.679 344.303C208.808 353.406 189 341.985 189 323.73L189 243.366L223.282 259.304Z"/><path fill="url(#paint3_linear_249_202)" d="M308.401 155.718L270.431 173.37L246.103 159.416C235.948 153.604 223.282 160.913 223.282 172.59V195.289L189 211.226L189 128.27C189 110.015 208.808 98.5937 224.679 107.697L308.401 155.718Z"/><path fill="#fff" d="M542.011 147.114L551.627 111.789H564.101L548.517 158H540.456L542.011 147.114ZM533.283 111.789L542.899 147.114L544.518 158H536.361L520.873 111.789H533.283ZM586.159 149.653V123.659H596.886V158H586.857L586.159 149.653ZM587.174 142.67L589.967 142.607C589.967 144.913 589.692 147.05 589.142 149.018C588.592 150.965 587.777 152.657 586.698 154.096C585.64 155.535 584.328 156.656 582.763 157.46C581.218 158.243 579.43 158.635 577.399 158.635C575.706 158.635 574.151 158.402 572.733 157.937C571.337 157.45 570.131 156.699 569.115 155.683C568.1 154.646 567.306 153.324 566.735 151.716C566.185 150.087 565.91 148.14 565.91 145.876V123.659H576.605V145.939C576.605 146.701 576.701 147.357 576.891 147.907C577.082 148.457 577.357 148.923 577.716 149.304C578.076 149.663 578.52 149.938 579.049 150.129C579.599 150.298 580.224 150.383 580.922 150.383C582.53 150.383 583.789 150.044 584.699 149.367C585.609 148.69 586.243 147.77 586.603 146.606C586.984 145.442 587.174 144.13 587.174 142.67ZM619.42 158.635C616.627 158.635 614.131 158.201 611.93 157.333C609.73 156.445 607.868 155.228 606.344 153.684C604.842 152.139 603.689 150.362 602.885 148.352C602.102 146.341 601.71 144.215 601.71 141.972V140.766C601.71 138.248 602.06 135.921 602.758 133.784C603.456 131.625 604.493 129.742 605.868 128.134C607.243 126.526 608.968 125.278 611.042 124.389C613.115 123.479 615.527 123.024 618.278 123.024C620.711 123.024 622.89 123.416 624.816 124.199C626.741 124.982 628.371 126.103 629.704 127.563C631.058 129.023 632.084 130.79 632.782 132.863C633.502 134.937 633.861 137.264 633.861 139.846V144.194H605.805V137.497H623.419V136.672C623.441 135.529 623.24 134.556 622.816 133.752C622.414 132.948 621.822 132.334 621.039 131.911C620.256 131.488 619.304 131.276 618.183 131.276C617.019 131.276 616.056 131.53 615.294 132.038C614.554 132.546 613.972 133.244 613.549 134.133C613.147 135 612.861 136.005 612.692 137.148C612.523 138.291 612.438 139.497 612.438 140.766V141.972C612.438 143.242 612.607 144.395 612.946 145.432C613.306 146.468 613.813 147.357 614.469 148.098C615.146 148.817 615.95 149.378 616.881 149.78C617.833 150.182 618.913 150.383 620.119 150.383C621.579 150.383 623.017 150.108 624.435 149.558C625.853 149.007 627.069 148.098 628.085 146.828L632.941 152.604C632.243 153.599 631.248 154.562 629.958 155.493C628.688 156.424 627.165 157.185 625.387 157.778C623.61 158.349 621.621 158.635 619.42 158.635ZM661.093 111.789V158H649.953V111.789H661.093ZM674.994 111.789V120.39H636.369V111.789H674.994ZM697.179 149.653V123.659H707.907V158H697.877L697.179 149.653ZM698.195 142.67L700.988 142.607C700.988 144.913 700.713 147.05 700.163 149.018C699.612 150.965 698.798 152.657 697.719 154.096C696.661 155.535 695.349 156.656 693.783 157.46C692.239 158.243 690.451 158.635 688.419 158.635C686.727 158.635 685.172 158.402 683.754 157.937C682.357 157.45 681.151 156.699 680.136 155.683C679.12 154.646 678.327 153.324 677.755 151.716C677.205 150.087 676.93 148.14 676.93 145.876V123.659H687.626V145.939C687.626 146.701 687.721 147.357 687.912 147.907C688.102 148.457 688.377 148.923 688.737 149.304C689.097 149.663 689.541 149.938 690.07 150.129C690.62 150.298 691.244 150.383 691.942 150.383C693.55 150.383 694.809 150.044 695.719 149.367C696.629 148.69 697.264 147.77 697.624 146.606C698.004 145.442 698.195 144.13 698.195 142.67ZM713.905 109.25H724.601V149.558L723.49 158H713.905V109.25ZM745.675 140.449V141.115C745.675 143.718 745.411 146.088 744.882 148.225C744.353 150.362 743.538 152.213 742.438 153.779C741.338 155.323 739.952 156.519 738.28 157.365C736.609 158.212 734.63 158.635 732.345 158.635C730.272 158.635 728.494 158.19 727.013 157.302C725.532 156.392 724.294 155.144 723.3 153.557C722.305 151.949 721.501 150.097 720.888 148.002C720.274 145.887 719.787 143.623 719.428 141.21V140.417C719.787 138.026 720.274 135.783 720.888 133.688C721.501 131.573 722.305 129.721 723.3 128.134C724.294 126.526 725.521 125.278 726.981 124.389C728.463 123.479 730.229 123.024 732.282 123.024C734.588 123.024 736.577 123.458 738.249 124.326C739.941 125.193 741.338 126.41 742.438 127.976C743.538 129.541 744.353 131.382 744.882 133.498C745.411 135.614 745.675 137.931 745.675 140.449ZM734.979 141.115V140.449C734.979 139.2 734.905 138.026 734.757 136.926C734.609 135.826 734.345 134.852 733.964 134.006C733.583 133.16 733.043 132.493 732.345 132.006C731.647 131.52 730.737 131.276 729.616 131.276C728.473 131.276 727.51 131.467 726.728 131.848C725.966 132.229 725.352 132.779 724.887 133.498C724.442 134.196 724.125 135.064 723.935 136.101C723.744 137.116 723.66 138.269 723.681 139.56V142.067C723.638 143.824 723.797 145.326 724.157 146.574C724.516 147.823 725.141 148.775 726.029 149.431C726.918 150.087 728.135 150.415 729.679 150.415C730.822 150.415 731.742 150.192 732.44 149.748C733.16 149.304 733.699 148.669 734.059 147.844C734.419 147.019 734.662 146.035 734.789 144.892C734.916 143.75 734.979 142.491 734.979 141.115ZM767.067 158.635C764.274 158.635 761.777 158.201 759.577 157.333C757.376 156.445 755.514 155.228 753.991 153.684C752.488 152.139 751.335 150.362 750.531 148.352C749.748 146.341 749.357 144.215 749.357 141.972V140.766C749.357 138.248 749.706 135.921 750.404 133.784C751.103 131.625 752.139 129.742 753.515 128.134C754.89 126.526 756.614 125.278 758.688 124.389C760.762 123.479 763.174 123.024 765.924 123.024C768.358 123.024 770.537 123.416 772.462 124.199C774.388 124.982 776.017 126.103 777.35 127.563C778.704 129.023 779.73 130.79 780.429 132.863C781.148 134.937 781.508 137.264 781.508 139.846V144.194H753.451V137.497H771.066V136.672C771.087 135.529 770.886 134.556 770.463 133.752C770.061 132.948 769.468 132.334 768.686 131.911C767.903 131.488 766.951 131.276 765.829 131.276C764.665 131.276 763.703 131.53 762.941 132.038C762.2 132.546 761.618 133.244 761.195 134.133C760.793 135 760.508 136.005 760.338 137.148C760.169 138.291 760.084 139.497 760.084 140.766V141.972C760.084 143.242 760.254 144.395 760.592 145.432C760.952 146.468 761.46 147.357 762.116 148.098C762.793 148.817 763.597 149.378 764.528 149.78C765.48 150.182 766.559 150.383 767.765 150.383C769.225 150.383 770.664 150.108 772.082 149.558C773.499 149.007 774.716 148.098 775.731 146.828L780.587 152.604C779.889 153.599 778.895 154.562 777.604 155.493C776.334 156.424 774.811 157.185 773.034 157.778C771.256 158.349 769.267 158.635 767.067 158.635Z"/><path fill="#fff" d="M561.38 182.742V310H530.702V182.742H561.38ZM610.85 235.708V259.307H552.64V235.708H610.85ZM615.832 182.742V206.428H552.64V182.742H615.832ZM658.309 215.431V310H628.767V215.431H658.309ZM627.019 191.045C627.019 186.85 628.534 183.412 631.564 180.732C634.594 178.052 638.527 176.711 643.363 176.711C648.2 176.711 652.133 178.052 655.163 180.732C658.193 183.412 659.708 186.85 659.708 191.045C659.708 195.241 658.193 198.679 655.163 201.359C652.133 204.039 648.2 205.379 643.363 205.379C638.527 205.379 634.594 204.039 631.564 201.359C628.534 198.679 627.019 195.241 627.019 191.045ZM726.308 215.431V235.883H669.322V215.431H726.308ZM681.296 191.919H710.75V279.147C710.75 281.653 711.042 283.604 711.625 285.003C712.207 286.343 713.198 287.305 714.596 287.887C716.053 288.412 717.976 288.674 720.365 288.674C722.055 288.674 723.453 288.645 724.56 288.586C725.667 288.47 726.716 288.324 727.707 288.149V309.213C725.201 310.029 722.579 310.641 719.84 311.049C717.102 311.515 714.188 311.748 711.1 311.748C704.807 311.748 699.417 310.757 694.931 308.776C690.502 306.795 687.123 303.678 684.792 299.424C682.461 295.171 681.296 289.635 681.296 282.818V191.919ZM793.258 287.013V215.431H822.8V310H795.181L793.258 287.013ZM796.055 267.785L803.747 267.61C803.747 273.961 802.989 279.846 801.474 285.265C799.959 290.626 797.716 295.287 794.744 299.25C791.831 303.212 788.218 306.3 783.906 308.514C779.653 310.67 774.729 311.748 769.135 311.748C764.474 311.748 760.191 311.107 756.287 309.825C752.441 308.485 749.12 306.417 746.323 303.62C743.526 300.764 741.341 297.123 739.768 292.694C738.253 288.208 737.496 282.847 737.496 276.612V215.431H766.95V276.787C766.95 278.885 767.212 280.691 767.737 282.206C768.261 283.721 769.019 285.003 770.009 286.052C771 287.042 772.223 287.8 773.68 288.324C775.195 288.79 776.914 289.023 778.837 289.023C783.265 289.023 786.732 288.091 789.238 286.227C791.743 284.362 793.491 281.827 794.482 278.623C795.531 275.418 796.055 271.805 796.055 267.785ZM868.774 238.854V310H839.319V215.431H866.851L868.774 238.854ZM896.743 214.731L896.218 242.088C895.053 241.972 893.48 241.826 891.499 241.651C889.517 241.477 887.857 241.389 886.517 241.389C883.079 241.389 880.107 241.797 877.602 242.613C875.154 243.37 873.115 244.536 871.483 246.109C869.91 247.624 868.745 249.547 867.987 251.877C867.288 254.208 866.968 256.918 867.026 260.006L861.694 256.51C861.694 250.159 862.306 244.39 863.53 239.204C864.812 233.96 866.618 229.444 868.949 225.657C871.279 221.811 874.105 218.868 877.427 216.829C880.748 214.731 884.477 213.683 888.614 213.683C890.071 213.683 891.499 213.77 892.897 213.945C894.354 214.12 895.636 214.382 896.743 214.731Z"/><path fill="url(#paint4_linear_249_202)" d="M561.38 182.742V310H530.702V182.742H561.38ZM610.85 235.708V259.307H552.64V235.708H610.85ZM615.832 182.742V206.428H552.64V182.742H615.832ZM658.309 215.431V310H628.767V215.431H658.309ZM627.019 191.045C627.019 186.85 628.534 183.412 631.564 180.732C634.594 178.052 638.527 176.711 643.363 176.711C648.2 176.711 652.133 178.052 655.163 180.732C658.193 183.412 659.708 186.85 659.708 191.045C659.708 195.241 658.193 198.679 655.163 201.359C652.133 204.039 648.2 205.379 643.363 205.379C638.527 205.379 634.594 204.039 631.564 201.359C628.534 198.679 627.019 195.241 627.019 191.045ZM726.308 215.431V235.883H669.322V215.431H726.308ZM681.296 191.919H710.75V279.147C710.75 281.653 711.042 283.604 711.625 285.003C712.207 286.343 713.198 287.305 714.596 287.887C716.053 288.412 717.976 288.674 720.365 288.674C722.055 288.674 723.453 288.645 724.56 288.586C725.667 288.47 726.716 288.324 727.707 288.149V309.213C725.201 310.029 722.579 310.641 719.84 311.049C717.102 311.515 714.188 311.748 711.1 311.748C704.807 311.748 699.417 310.757 694.931 308.776C690.502 306.795 687.123 303.678 684.792 299.424C682.461 295.171 681.296 289.635 681.296 282.818V191.919ZM793.258 287.013V215.431H822.8V310H795.181L793.258 287.013ZM796.055 267.785L803.747 267.61C803.747 273.961 802.989 279.846 801.474 285.265C799.959 290.626 797.716 295.287 794.744 299.25C791.831 303.212 788.218 306.3 783.906 308.514C779.653 310.67 774.729 311.748 769.135 311.748C764.474 311.748 760.191 311.107 756.287 309.825C752.441 308.485 749.12 306.417 746.323 303.62C743.526 300.764 741.341 297.123 739.768 292.694C738.253 288.208 737.496 282.847 737.496 276.612V215.431H766.95V276.787C766.95 278.885 767.212 280.691 767.737 282.206C768.261 283.721 769.019 285.003 770.009 286.052C771 287.042 772.223 287.8 773.68 288.324C775.195 288.79 776.914 289.023 778.837 289.023C783.265 289.023 786.732 288.091 789.238 286.227C791.743 284.362 793.491 281.827 794.482 278.623C795.531 275.418 796.055 271.805 796.055 267.785ZM868.774 238.854V310H839.319V215.431H866.851L868.774 238.854ZM896.743 214.731L896.218 242.088C895.053 241.972 893.48 241.826 891.499 241.651C889.517 241.477 887.857 241.389 886.517 241.389C883.079 241.389 880.107 241.797 877.602 242.613C875.154 243.37 873.115 244.536 871.483 246.109C869.91 247.624 868.745 249.547 867.987 251.877C867.288 254.208 866.968 256.918 867.026 260.006L861.694 256.51C861.694 250.159 862.306 244.39 863.53 239.204C864.812 233.96 866.618 229.444 868.949 225.657C871.279 221.811 874.105 218.868 877.427 216.829C880.748 214.731 884.477 213.683 888.614 213.683C890.071 213.683 891.499 213.77 892.897 213.945C894.354 214.12 895.636 214.382 896.743 214.731Z"/><defs><linearGradient id="paint0_linear_249_202" x1="0" x2="88.064" y1=".777" y2="9.505" gradientUnits="userSpaceOnUse"><stop stop-color="#00E1C3"/><stop offset="1" stop-color="#00D1D5"/></linearGradient><linearGradient id="paint1_linear_249_202" x1="189" x2="436.787" y1="104.929" y2="353.473" gradientUnits="userSpaceOnUse"><stop stop-color="#00E1C3"/><stop offset="1" stop-color="#00D1D5"/></linearGradient><linearGradient id="paint2_linear_249_202" x1="189" x2="436.787" y1="104.929" y2="353.473" gradientUnits="userSpaceOnUse"><stop stop-color="#00E1C3"/><stop offset="1" stop-color="#00D1D5"/></linearGradient><linearGradient id="paint3_linear_249_202" x1="189" x2="436.787" y1="104.929" y2="353.473" gradientUnits="userSpaceOnUse"><stop stop-color="#00E1C3"/><stop offset="1" stop-color="#00D1D5"/></linearGradient><linearGradient id="paint4_linear_249_202" x1="521" x2="691.667" y1="144.371" y2="487.846" gradientUnits="userSpaceOnUse"><stop stop-color="#00E1C3"/><stop offset="1" stop-color="#00D1D5"/></linearGradient></defs></svg>