<svg xmlns="http://www.w3.org/2000/svg" width="1397" height="440" fill="none" viewBox="0 0 1397 440"><path fill="#132636" d="M3 37C3 16.5655 19.5655 0 40 0H1348.99C1373.25 0 1390.95 22.964 1384.77 46.428L1288.58 411.428C1284.3 427.677 1269.61 439 1252.81 439H40C19.5655 439 3 422.435 3 402V37Z"/><path fill="#132636" d="M0 37C0 16.5655 16.5655 0 37 0H39V440H37C16.5655 440 0 423.435 0 403V37Z"/><path fill="url(#paint0_linear_249_192)" d="M0 37C0 16.5655 16.5655 0 37 0H39V440H37C16.5655 440 0 423.435 0 403V37Z"/><g clip-path="url(#clip0_249_192)"><path fill="#01D8CE" d="M324.112 144.293C326.467 141.855 329.284 139.91 332.398 138.572C335.513 137.235 338.862 136.53 342.252 136.501C345.641 136.472 349.002 137.117 352.139 138.401C355.277 139.684 358.127 141.58 360.523 143.977C362.92 146.373 364.816 149.223 366.099 152.361C367.383 155.498 368.028 158.859 367.999 162.248C367.97 165.638 367.265 168.987 365.928 172.102C364.59 175.216 362.645 178.033 360.207 180.388L350.086 190.509L313.991 154.414L324.112 144.293V144.293ZM295.944 172.462L189 279.405V315.5H225.095L332.051 208.556L295.931 172.462H295.944Z"/></g><path fill="#fff" d="M503.011 147.114L512.627 111.789H525.101L509.517 158H501.456L503.011 147.114ZM494.283 111.789L503.899 147.114L505.518 158H497.361L481.873 111.789H494.283ZM547.159 149.653V123.659H557.886V158H547.857L547.159 149.653ZM548.174 142.67L550.967 142.607C550.967 144.913 550.692 147.05 550.142 149.018C549.592 150.965 548.777 152.657 547.698 154.096C546.64 155.535 545.328 156.656 543.763 157.46C542.218 158.243 540.43 158.635 538.399 158.635C536.706 158.635 535.151 158.402 533.733 157.937C532.337 157.45 531.131 156.699 530.115 155.683C529.1 154.646 528.306 153.324 527.735 151.716C527.185 150.087 526.91 148.14 526.91 145.876V123.659H537.605V145.939C537.605 146.701 537.701 147.357 537.891 147.907C538.082 148.457 538.357 148.923 538.716 149.304C539.076 149.663 539.52 149.938 540.049 150.129C540.599 150.298 541.224 150.383 541.922 150.383C543.53 150.383 544.789 150.044 545.699 149.367C546.609 148.69 547.243 147.77 547.603 146.606C547.984 145.442 548.174 144.13 548.174 142.67ZM580.42 158.635C577.627 158.635 575.131 158.201 572.93 157.333C570.73 156.445 568.868 155.228 567.344 153.684C565.842 152.139 564.689 150.362 563.885 148.352C563.102 146.341 562.71 144.215 562.71 141.972V140.766C562.71 138.248 563.06 135.921 563.758 133.784C564.456 131.625 565.493 129.742 566.868 128.134C568.243 126.526 569.968 125.278 572.042 124.389C574.115 123.479 576.527 123.024 579.278 123.024C581.711 123.024 583.89 123.416 585.816 124.199C587.741 124.982 589.371 126.103 590.704 127.563C592.058 129.023 593.084 130.79 593.782 132.863C594.502 134.937 594.861 137.264 594.861 139.846V144.194H566.805V137.497H584.419V136.672C584.441 135.529 584.24 134.556 583.816 133.752C583.414 132.948 582.822 132.334 582.039 131.911C581.256 131.488 580.304 131.276 579.183 131.276C578.019 131.276 577.056 131.53 576.294 132.038C575.554 132.546 574.972 133.244 574.549 134.133C574.147 135 573.861 136.005 573.692 137.148C573.523 138.291 573.438 139.497 573.438 140.766V141.972C573.438 143.242 573.607 144.395 573.946 145.432C574.306 146.468 574.813 147.357 575.469 148.098C576.146 148.817 576.95 149.378 577.881 149.78C578.833 150.182 579.913 150.383 581.119 150.383C582.579 150.383 584.017 150.108 585.435 149.558C586.853 149.007 588.069 148.098 589.085 146.828L593.941 152.604C593.243 153.599 592.248 154.562 590.958 155.493C589.688 156.424 588.165 157.185 586.387 157.778C584.61 158.349 582.621 158.635 580.42 158.635ZM622.093 111.789V158H610.953V111.789H622.093ZM635.994 111.789V120.39H597.369V111.789H635.994ZM658.179 149.653V123.659H668.907V158H658.877L658.179 149.653ZM659.195 142.67L661.988 142.607C661.988 144.913 661.713 147.05 661.163 149.018C660.612 150.965 659.798 152.657 658.719 154.096C657.661 155.535 656.349 156.656 654.783 157.46C653.239 158.243 651.451 158.635 649.419 158.635C647.727 158.635 646.172 158.402 644.754 157.937C643.357 157.45 642.151 156.699 641.136 155.683C640.12 154.646 639.327 153.324 638.755 151.716C638.205 150.087 637.93 148.14 637.93 145.876V123.659H648.626V145.939C648.626 146.701 648.721 147.357 648.912 147.907C649.102 148.457 649.377 148.923 649.737 149.304C650.097 149.663 650.541 149.938 651.07 150.129C651.62 150.298 652.244 150.383 652.942 150.383C654.55 150.383 655.809 150.044 656.719 149.367C657.629 148.69 658.264 147.77 658.624 146.606C659.004 145.442 659.195 144.13 659.195 142.67ZM674.905 109.25H685.601V149.558L684.49 158H674.905V109.25ZM706.675 140.449V141.115C706.675 143.718 706.411 146.088 705.882 148.225C705.353 150.362 704.538 152.213 703.438 153.779C702.338 155.323 700.952 156.519 699.28 157.365C697.609 158.212 695.63 158.635 693.345 158.635C691.272 158.635 689.494 158.19 688.013 157.302C686.532 156.392 685.294 155.144 684.3 153.557C683.305 151.949 682.501 150.097 681.888 148.002C681.274 145.887 680.787 143.623 680.428 141.21V140.417C680.787 138.026 681.274 135.783 681.888 133.688C682.501 131.573 683.305 129.721 684.3 128.134C685.294 126.526 686.521 125.278 687.981 124.389C689.463 123.479 691.229 123.024 693.282 123.024C695.588 123.024 697.577 123.458 699.249 124.326C700.941 125.193 702.338 126.41 703.438 127.976C704.538 129.541 705.353 131.382 705.882 133.498C706.411 135.614 706.675 137.931 706.675 140.449ZM695.979 141.115V140.449C695.979 139.2 695.905 138.026 695.757 136.926C695.609 135.826 695.345 134.852 694.964 134.006C694.583 133.16 694.043 132.493 693.345 132.006C692.647 131.52 691.737 131.276 690.616 131.276C689.473 131.276 688.51 131.467 687.728 131.848C686.966 132.229 686.352 132.779 685.887 133.498C685.442 134.196 685.125 135.064 684.935 136.101C684.744 137.116 684.66 138.269 684.681 139.56V142.067C684.638 143.824 684.797 145.326 685.157 146.574C685.516 147.823 686.141 148.775 687.029 149.431C687.918 150.087 689.135 150.415 690.679 150.415C691.822 150.415 692.742 150.192 693.44 149.748C694.16 149.304 694.699 148.669 695.059 147.844C695.419 147.019 695.662 146.035 695.789 144.892C695.916 143.75 695.979 142.491 695.979 141.115ZM728.067 158.635C725.274 158.635 722.777 158.201 720.577 157.333C718.376 156.445 716.514 155.228 714.991 153.684C713.488 152.139 712.335 150.362 711.531 148.352C710.748 146.341 710.357 144.215 710.357 141.972V140.766C710.357 138.248 710.706 135.921 711.404 133.784C712.103 131.625 713.139 129.742 714.515 128.134C715.89 126.526 717.614 125.278 719.688 124.389C721.762 123.479 724.174 123.024 726.924 123.024C729.358 123.024 731.537 123.416 733.462 124.199C735.388 124.982 737.017 126.103 738.35 127.563C739.704 129.023 740.73 130.79 741.429 132.863C742.148 134.937 742.508 137.264 742.508 139.846V144.194H714.451V137.497H732.066V136.672C732.087 135.529 731.886 134.556 731.463 133.752C731.061 132.948 730.468 132.334 729.686 131.911C728.903 131.488 727.951 131.276 726.829 131.276C725.665 131.276 724.703 131.53 723.941 132.038C723.2 132.546 722.618 133.244 722.195 134.133C721.793 135 721.508 136.005 721.338 137.148C721.169 138.291 721.084 139.497 721.084 140.766V141.972C721.084 143.242 721.254 144.395 721.592 145.432C721.952 146.468 722.46 147.357 723.116 148.098C723.793 148.817 724.597 149.378 725.528 149.78C726.48 150.182 727.559 150.383 728.765 150.383C730.225 150.383 731.664 150.108 733.082 149.558C734.499 149.007 735.716 148.098 736.731 146.828L741.587 152.604C740.889 153.599 739.895 154.562 738.604 155.493C737.334 156.424 735.811 157.185 734.034 157.778C732.256 158.349 730.267 158.635 728.067 158.635Z"/><path fill="#fff" d="M491.702 182.742H541.783C551.572 182.742 560.079 184.199 567.305 187.112C574.53 190.026 580.095 194.338 583.999 200.048C587.961 205.758 589.942 212.809 589.942 221.199C589.942 228.483 588.806 234.572 586.533 239.466C584.261 244.361 581.085 248.41 577.006 251.615C572.986 254.762 568.295 257.355 562.935 259.394L552.883 265.075H510.843L510.668 241.389H541.783C545.687 241.389 548.921 240.69 551.485 239.292C554.049 237.893 555.972 235.912 557.253 233.348C558.594 230.726 559.264 227.609 559.264 223.996C559.264 220.325 558.594 217.179 557.253 214.557C555.913 211.935 553.932 209.924 551.31 208.526C548.746 207.127 545.571 206.428 541.783 206.428H522.38V310H491.702V182.742ZM561.361 310L533.218 253.713L565.731 253.538L594.225 308.689V310H561.361ZM652.872 311.748C645.18 311.748 638.305 310.554 632.245 308.165C626.185 305.717 621.057 302.367 616.862 298.113C612.725 293.86 609.549 288.965 607.335 283.43C605.179 277.894 604.101 272.038 604.101 265.862V262.541C604.101 255.607 605.062 249.197 606.985 243.312C608.908 237.369 611.763 232.183 615.551 227.754C619.338 223.326 624.087 219.888 629.797 217.441C635.508 214.935 642.15 213.683 649.725 213.683C656.426 213.683 662.428 214.761 667.73 216.917C673.032 219.072 677.519 222.161 681.19 226.181C684.919 230.202 687.745 235.067 689.668 240.777C691.649 246.488 692.64 252.897 692.64 260.006V271.98H615.376V253.538H663.884V251.266C663.943 248.119 663.389 245.439 662.224 243.225C661.117 241.01 659.485 239.321 657.329 238.155C655.173 236.99 652.551 236.407 649.463 236.407C646.258 236.407 643.607 237.106 641.509 238.505C639.47 239.903 637.868 241.826 636.702 244.273C635.595 246.662 634.808 249.43 634.342 252.577C633.876 255.723 633.643 259.044 633.643 262.541V265.862C633.643 269.358 634.109 272.534 635.042 275.389C636.032 278.244 637.431 280.691 639.237 282.73C641.101 284.712 643.316 286.256 645.879 287.363C648.501 288.47 651.473 289.023 654.794 289.023C658.815 289.023 662.777 288.266 666.681 286.751C670.585 285.236 673.936 282.73 676.732 279.234L690.105 295.142C688.182 297.88 685.444 300.531 681.889 303.095C678.393 305.659 674.198 307.757 669.303 309.388C664.409 310.961 658.931 311.748 652.872 311.748ZM733.544 235.621V310H704.089V215.431H731.708L733.544 235.621ZM730.048 259.481L723.143 259.656C723.143 252.431 724.017 245.992 725.765 240.34C727.513 234.63 729.99 229.794 733.194 225.832C736.399 221.869 740.216 218.868 744.644 216.829C749.131 214.731 754.113 213.683 759.59 213.683C763.96 213.683 767.951 214.324 771.564 215.605C775.235 216.887 778.381 218.956 781.003 221.811C783.684 224.666 785.723 228.454 787.122 233.173C788.578 237.835 789.307 243.603 789.307 250.479V310H759.677V250.392C759.677 246.604 759.153 243.72 758.104 241.739C757.055 239.699 755.54 238.301 753.559 237.543C751.578 236.786 749.16 236.407 746.305 236.407C743.275 236.407 740.711 236.99 738.613 238.155C736.516 239.321 734.826 240.952 733.544 243.05C732.32 245.089 731.417 247.507 730.834 250.304C730.31 253.101 730.048 256.16 730.048 259.481ZM845.594 289.023C848.332 289.023 850.663 288.528 852.586 287.538C854.567 286.489 856.053 285.032 857.043 283.167C858.092 281.245 858.588 278.943 858.529 276.263H886.236C886.294 283.371 884.546 289.606 880.992 294.967C877.496 300.269 872.718 304.406 866.658 307.378C860.656 310.291 853.868 311.748 846.293 311.748C838.893 311.748 832.425 310.554 826.89 308.165C821.354 305.717 816.722 302.338 812.993 298.026C809.322 293.656 806.554 288.557 804.689 282.73C802.883 276.904 801.98 270.582 801.98 263.764V261.754C801.98 254.937 802.883 248.614 804.689 242.788C806.554 236.903 809.322 231.804 812.993 227.492C816.722 223.122 821.325 219.743 826.802 217.354C832.338 214.906 838.776 213.683 846.118 213.683C853.984 213.683 860.918 215.168 866.92 218.14C872.98 221.112 877.729 225.424 881.167 231.076C884.604 236.728 886.294 243.574 886.236 251.615H858.529C858.588 248.76 858.151 246.196 857.218 243.924C856.286 241.651 854.829 239.845 852.848 238.505C850.925 237.106 848.449 236.407 845.419 236.407C842.389 236.407 839.942 237.077 838.077 238.417C836.213 239.758 834.785 241.622 833.794 244.011C832.862 246.342 832.221 249.022 831.872 252.052C831.58 255.082 831.435 258.316 831.435 261.754V263.764C831.435 267.26 831.58 270.552 831.872 273.641C832.221 276.671 832.891 279.351 833.882 281.682C834.872 283.954 836.3 285.76 838.165 287.101C840.029 288.382 842.506 289.023 845.594 289.023ZM947.942 286.227V247.245C947.942 244.565 947.563 242.263 946.806 240.34C946.048 238.417 944.854 236.932 943.222 235.883C941.591 234.776 939.406 234.222 936.667 234.222C934.453 234.222 932.559 234.601 930.986 235.358C929.413 236.116 928.218 237.252 927.402 238.767C926.587 240.282 926.179 242.205 926.179 244.536H896.724C896.724 240.166 897.686 236.116 899.608 232.387C901.59 228.599 904.386 225.307 907.999 222.51C911.67 219.713 916.04 217.557 921.109 216.042C926.237 214.469 931.947 213.683 938.24 213.683C945.757 213.683 952.458 214.935 958.343 217.441C964.286 219.946 968.977 223.705 972.415 228.716C975.852 233.669 977.571 239.903 977.571 247.42V286.139C977.571 292.316 977.921 297.006 978.62 300.211C979.319 303.357 980.31 306.125 981.592 308.514V310H952.05C950.651 307.087 949.603 303.532 948.903 299.337C948.262 295.083 947.942 290.713 947.942 286.227ZM951.525 252.227L951.7 267.959H938.677C935.939 267.959 933.608 268.338 931.685 269.096C929.82 269.853 928.306 270.902 927.14 272.242C926.033 273.524 925.217 274.981 924.693 276.612C924.227 278.244 923.994 279.963 923.994 281.769C923.994 283.517 924.402 285.09 925.217 286.489C926.091 287.829 927.257 288.878 928.713 289.635C930.17 290.393 931.802 290.771 933.608 290.771C936.871 290.771 939.639 290.16 941.911 288.936C944.242 287.654 946.019 286.11 947.243 284.304C948.466 282.497 949.078 280.808 949.078 279.234L955.546 291.296C954.381 293.627 953.04 295.986 951.525 298.375C950.069 300.764 948.233 302.979 946.019 305.018C943.863 306.999 941.212 308.631 938.065 309.913C934.919 311.136 931.102 311.748 926.616 311.748C920.789 311.748 915.428 310.554 910.534 308.165C905.697 305.776 901.823 302.454 898.909 298.201C895.996 293.889 894.539 288.936 894.539 283.342C894.539 278.448 895.413 274.078 897.161 270.232C898.967 266.386 901.677 263.123 905.29 260.443C908.902 257.763 913.505 255.723 919.099 254.325C924.693 252.926 931.277 252.227 938.852 252.227H951.525ZM1022.85 235.621V310H993.391V215.431H1021.01L1022.85 235.621ZM1019.35 259.481L1012.44 259.656C1012.44 252.431 1013.32 245.992 1015.07 240.34C1016.81 234.63 1019.29 229.794 1022.5 225.832C1025.7 221.869 1029.52 218.868 1033.95 216.829C1038.43 214.731 1043.41 213.683 1048.89 213.683C1053.26 213.683 1057.25 214.324 1060.87 215.605C1064.54 216.887 1067.68 218.956 1070.31 221.811C1072.99 224.666 1075.02 228.454 1076.42 233.173C1077.88 237.835 1078.61 243.603 1078.61 250.479V310H1048.98V250.392C1048.98 246.604 1048.45 243.72 1047.41 241.739C1046.36 239.699 1044.84 238.301 1042.86 237.543C1040.88 236.786 1038.46 236.407 1035.61 236.407C1032.58 236.407 1030.01 236.99 1027.92 238.155C1025.82 239.321 1024.13 240.952 1022.85 243.05C1021.62 245.089 1020.72 247.507 1020.14 250.304C1019.61 253.101 1019.35 256.16 1019.35 259.481ZM1144.07 286.227V247.245C1144.07 244.565 1143.69 242.263 1142.94 240.34C1142.18 238.417 1140.98 236.932 1139.35 235.883C1137.72 234.776 1135.54 234.222 1132.8 234.222C1130.58 234.222 1128.69 234.601 1127.12 235.358C1125.54 236.116 1124.35 237.252 1123.53 238.767C1122.72 240.282 1122.31 242.205 1122.31 244.536H1092.85C1092.85 240.166 1093.82 236.116 1095.74 232.387C1097.72 228.599 1100.52 225.307 1104.13 222.51C1107.8 219.713 1112.17 217.557 1117.24 216.042C1122.37 214.469 1128.08 213.683 1134.37 213.683C1141.89 213.683 1148.59 214.935 1154.47 217.441C1160.42 219.946 1165.11 223.705 1168.55 228.716C1171.98 233.669 1173.7 239.903 1173.7 247.42V286.139C1173.7 292.316 1174.05 297.006 1174.75 300.211C1175.45 303.357 1176.44 306.125 1177.72 308.514V310H1148.18C1146.78 307.087 1145.73 303.532 1145.03 299.337C1144.39 295.083 1144.07 290.713 1144.07 286.227ZM1147.66 252.227L1147.83 267.959H1134.81C1132.07 267.959 1129.74 268.338 1127.82 269.096C1125.95 269.853 1124.44 270.902 1123.27 272.242C1122.16 273.524 1121.35 274.981 1120.82 276.612C1120.36 278.244 1120.12 279.963 1120.12 281.769C1120.12 283.517 1120.53 285.09 1121.35 286.489C1122.22 287.829 1123.39 288.878 1124.84 289.635C1126.3 290.393 1127.93 290.771 1129.74 290.771C1133 290.771 1135.77 290.16 1138.04 288.936C1140.37 287.654 1142.15 286.11 1143.37 284.304C1144.6 282.497 1145.21 280.808 1145.21 279.234L1151.68 291.296C1150.51 293.627 1149.17 295.986 1147.66 298.375C1146.2 300.764 1144.36 302.979 1142.15 305.018C1139.99 306.999 1137.34 308.631 1134.2 309.913C1131.05 311.136 1127.23 311.748 1122.75 311.748C1116.92 311.748 1111.56 310.554 1106.66 308.165C1101.83 305.776 1097.95 302.454 1095.04 298.201C1092.13 293.889 1090.67 288.936 1090.67 283.342C1090.67 278.448 1091.54 274.078 1093.29 270.232C1095.1 266.386 1097.81 263.123 1101.42 260.443C1105.03 257.763 1109.64 255.723 1115.23 254.325C1120.82 252.926 1127.41 252.227 1134.98 252.227H1147.66Z"/><path fill="url(#paint1_linear_249_192)" d="M491.702 182.742H541.783C551.572 182.742 560.079 184.199 567.305 187.112C574.53 190.026 580.095 194.338 583.999 200.048C587.961 205.758 589.942 212.809 589.942 221.199C589.942 228.483 588.806 234.572 586.533 239.466C584.261 244.361 581.085 248.41 577.006 251.615C572.986 254.762 568.295 257.355 562.935 259.394L552.883 265.075H510.843L510.668 241.389H541.783C545.687 241.389 548.921 240.69 551.485 239.292C554.049 237.893 555.972 235.912 557.253 233.348C558.594 230.726 559.264 227.609 559.264 223.996C559.264 220.325 558.594 217.179 557.253 214.557C555.913 211.935 553.932 209.924 551.31 208.526C548.746 207.127 545.571 206.428 541.783 206.428H522.38V310H491.702V182.742ZM561.361 310L533.218 253.713L565.731 253.538L594.225 308.689V310H561.361ZM652.872 311.748C645.18 311.748 638.305 310.554 632.245 308.165C626.185 305.717 621.057 302.367 616.862 298.113C612.725 293.86 609.549 288.965 607.335 283.43C605.179 277.894 604.101 272.038 604.101 265.862V262.541C604.101 255.607 605.062 249.197 606.985 243.312C608.908 237.369 611.763 232.183 615.551 227.754C619.338 223.326 624.087 219.888 629.797 217.441C635.508 214.935 642.15 213.683 649.725 213.683C656.426 213.683 662.428 214.761 667.73 216.917C673.032 219.072 677.519 222.161 681.19 226.181C684.919 230.202 687.745 235.067 689.668 240.777C691.649 246.488 692.64 252.897 692.64 260.006V271.98H615.376V253.538H663.884V251.266C663.943 248.119 663.389 245.439 662.224 243.225C661.117 241.01 659.485 239.321 657.329 238.155C655.173 236.99 652.551 236.407 649.463 236.407C646.258 236.407 643.607 237.106 641.509 238.505C639.47 239.903 637.868 241.826 636.702 244.273C635.595 246.662 634.808 249.43 634.342 252.577C633.876 255.723 633.643 259.044 633.643 262.541V265.862C633.643 269.358 634.109 272.534 635.042 275.389C636.032 278.244 637.431 280.691 639.237 282.73C641.101 284.712 643.316 286.256 645.879 287.363C648.501 288.47 651.473 289.023 654.794 289.023C658.815 289.023 662.777 288.266 666.681 286.751C670.585 285.236 673.936 282.73 676.732 279.234L690.105 295.142C688.182 297.88 685.444 300.531 681.889 303.095C678.393 305.659 674.198 307.757 669.303 309.388C664.409 310.961 658.931 311.748 652.872 311.748ZM733.544 235.621V310H704.089V215.431H731.708L733.544 235.621ZM730.048 259.481L723.143 259.656C723.143 252.431 724.017 245.992 725.765 240.34C727.513 234.63 729.99 229.794 733.194 225.832C736.399 221.869 740.216 218.868 744.644 216.829C749.131 214.731 754.113 213.683 759.59 213.683C763.96 213.683 767.951 214.324 771.564 215.605C775.235 216.887 778.381 218.956 781.003 221.811C783.684 224.666 785.723 228.454 787.122 233.173C788.578 237.835 789.307 243.603 789.307 250.479V310H759.677V250.392C759.677 246.604 759.153 243.72 758.104 241.739C757.055 239.699 755.54 238.301 753.559 237.543C751.578 236.786 749.16 236.407 746.305 236.407C743.275 236.407 740.711 236.99 738.613 238.155C736.516 239.321 734.826 240.952 733.544 243.05C732.32 245.089 731.417 247.507 730.834 250.304C730.31 253.101 730.048 256.16 730.048 259.481ZM845.594 289.023C848.332 289.023 850.663 288.528 852.586 287.538C854.567 286.489 856.053 285.032 857.043 283.167C858.092 281.245 858.588 278.943 858.529 276.263H886.236C886.294 283.371 884.546 289.606 880.992 294.967C877.496 300.269 872.718 304.406 866.658 307.378C860.656 310.291 853.868 311.748 846.293 311.748C838.893 311.748 832.425 310.554 826.89 308.165C821.354 305.717 816.722 302.338 812.993 298.026C809.322 293.656 806.554 288.557 804.689 282.73C802.883 276.904 801.98 270.582 801.98 263.764V261.754C801.98 254.937 802.883 248.614 804.689 242.788C806.554 236.903 809.322 231.804 812.993 227.492C816.722 223.122 821.325 219.743 826.802 217.354C832.338 214.906 838.776 213.683 846.118 213.683C853.984 213.683 860.918 215.168 866.92 218.14C872.98 221.112 877.729 225.424 881.167 231.076C884.604 236.728 886.294 243.574 886.236 251.615H858.529C858.588 248.76 858.151 246.196 857.218 243.924C856.286 241.651 854.829 239.845 852.848 238.505C850.925 237.106 848.449 236.407 845.419 236.407C842.389 236.407 839.942 237.077 838.077 238.417C836.213 239.758 834.785 241.622 833.794 244.011C832.862 246.342 832.221 249.022 831.872 252.052C831.58 255.082 831.435 258.316 831.435 261.754V263.764C831.435 267.26 831.58 270.552 831.872 273.641C832.221 276.671 832.891 279.351 833.882 281.682C834.872 283.954 836.3 285.76 838.165 287.101C840.029 288.382 842.506 289.023 845.594 289.023ZM947.942 286.227V247.245C947.942 244.565 947.563 242.263 946.806 240.34C946.048 238.417 944.854 236.932 943.222 235.883C941.591 234.776 939.406 234.222 936.667 234.222C934.453 234.222 932.559 234.601 930.986 235.358C929.413 236.116 928.218 237.252 927.402 238.767C926.587 240.282 926.179 242.205 926.179 244.536H896.724C896.724 240.166 897.686 236.116 899.608 232.387C901.59 228.599 904.386 225.307 907.999 222.51C911.67 219.713 916.04 217.557 921.109 216.042C926.237 214.469 931.947 213.683 938.24 213.683C945.757 213.683 952.458 214.935 958.343 217.441C964.286 219.946 968.977 223.705 972.415 228.716C975.852 233.669 977.571 239.903 977.571 247.42V286.139C977.571 292.316 977.921 297.006 978.62 300.211C979.319 303.357 980.31 306.125 981.592 308.514V310H952.05C950.651 307.087 949.603 303.532 948.903 299.337C948.262 295.083 947.942 290.713 947.942 286.227ZM951.525 252.227L951.7 267.959H938.677C935.939 267.959 933.608 268.338 931.685 269.096C929.82 269.853 928.306 270.902 927.14 272.242C926.033 273.524 925.217 274.981 924.693 276.612C924.227 278.244 923.994 279.963 923.994 281.769C923.994 283.517 924.402 285.09 925.217 286.489C926.091 287.829 927.257 288.878 928.713 289.635C930.17 290.393 931.802 290.771 933.608 290.771C936.871 290.771 939.639 290.16 941.911 288.936C944.242 287.654 946.019 286.11 947.243 284.304C948.466 282.497 949.078 280.808 949.078 279.234L955.546 291.296C954.381 293.627 953.04 295.986 951.525 298.375C950.069 300.764 948.233 302.979 946.019 305.018C943.863 306.999 941.212 308.631 938.065 309.913C934.919 311.136 931.102 311.748 926.616 311.748C920.789 311.748 915.428 310.554 910.534 308.165C905.697 305.776 901.823 302.454 898.909 298.201C895.996 293.889 894.539 288.936 894.539 283.342C894.539 278.448 895.413 274.078 897.161 270.232C898.967 266.386 901.677 263.123 905.29 260.443C908.902 257.763 913.505 255.723 919.099 254.325C924.693 252.926 931.277 252.227 938.852 252.227H951.525ZM1022.85 235.621V310H993.391V215.431H1021.01L1022.85 235.621ZM1019.35 259.481L1012.44 259.656C1012.44 252.431 1013.32 245.992 1015.07 240.34C1016.81 234.63 1019.29 229.794 1022.5 225.832C1025.7 221.869 1029.52 218.868 1033.95 216.829C1038.43 214.731 1043.41 213.683 1048.89 213.683C1053.26 213.683 1057.25 214.324 1060.87 215.605C1064.54 216.887 1067.68 218.956 1070.31 221.811C1072.99 224.666 1075.02 228.454 1076.42 233.173C1077.88 237.835 1078.61 243.603 1078.61 250.479V310H1048.98V250.392C1048.98 246.604 1048.45 243.72 1047.41 241.739C1046.36 239.699 1044.84 238.301 1042.86 237.543C1040.88 236.786 1038.46 236.407 1035.61 236.407C1032.58 236.407 1030.01 236.99 1027.92 238.155C1025.82 239.321 1024.13 240.952 1022.85 243.05C1021.62 245.089 1020.72 247.507 1020.14 250.304C1019.61 253.101 1019.35 256.16 1019.35 259.481ZM1144.07 286.227V247.245C1144.07 244.565 1143.69 242.263 1142.94 240.34C1142.18 238.417 1140.98 236.932 1139.35 235.883C1137.72 234.776 1135.54 234.222 1132.8 234.222C1130.58 234.222 1128.69 234.601 1127.12 235.358C1125.54 236.116 1124.35 237.252 1123.53 238.767C1122.72 240.282 1122.31 242.205 1122.31 244.536H1092.85C1092.85 240.166 1093.82 236.116 1095.74 232.387C1097.72 228.599 1100.52 225.307 1104.13 222.51C1107.8 219.713 1112.17 217.557 1117.24 216.042C1122.37 214.469 1128.08 213.683 1134.37 213.683C1141.89 213.683 1148.59 214.935 1154.47 217.441C1160.42 219.946 1165.11 223.705 1168.55 228.716C1171.98 233.669 1173.7 239.903 1173.7 247.42V286.139C1173.7 292.316 1174.05 297.006 1174.75 300.211C1175.45 303.357 1176.44 306.125 1177.72 308.514V310H1148.18C1146.78 307.087 1145.73 303.532 1145.03 299.337C1144.39 295.083 1144.07 290.713 1144.07 286.227ZM1147.66 252.227L1147.83 267.959H1134.81C1132.07 267.959 1129.74 268.338 1127.82 269.096C1125.95 269.853 1124.44 270.902 1123.27 272.242C1122.16 273.524 1121.35 274.981 1120.82 276.612C1120.36 278.244 1120.12 279.963 1120.12 281.769C1120.12 283.517 1120.53 285.09 1121.35 286.489C1122.22 287.829 1123.39 288.878 1124.84 289.635C1126.3 290.393 1127.93 290.771 1129.74 290.771C1133 290.771 1135.77 290.16 1138.04 288.936C1140.37 287.654 1142.15 286.11 1143.37 284.304C1144.6 282.497 1145.21 280.808 1145.21 279.234L1151.68 291.296C1150.51 293.627 1149.17 295.986 1147.66 298.375C1146.2 300.764 1144.36 302.979 1142.15 305.018C1139.99 306.999 1137.34 308.631 1134.2 309.913C1131.05 311.136 1127.23 311.748 1122.75 311.748C1116.92 311.748 1111.56 310.554 1106.66 308.165C1101.83 305.776 1097.95 302.454 1095.04 298.201C1092.13 293.889 1090.67 288.936 1090.67 283.342C1090.67 278.448 1091.54 274.078 1093.29 270.232C1095.1 266.386 1097.81 263.123 1101.42 260.443C1105.03 257.763 1109.64 255.723 1115.23 254.325C1120.82 252.926 1127.41 252.227 1134.98 252.227H1147.66Z"/><defs><linearGradient id="paint0_linear_249_192" x1="0" x2="88.064" y1=".777" y2="9.505" gradientUnits="userSpaceOnUse"><stop stop-color="#00E1C3"/><stop offset="1" stop-color="#00D1D5"/></linearGradient><linearGradient id="paint1_linear_249_192" x1="482" x2="589.196" y1="144.371" y2="543.885" gradientUnits="userSpaceOnUse"><stop stop-color="#00E1C3"/><stop offset="1" stop-color="#00D1D5"/></linearGradient><clipPath id="clip0_249_192"><rect width="179" height="179" fill="#fff" transform="translate(189 136.5)"/></clipPath></defs></svg>