<svg xmlns="http://www.w3.org/2000/svg" width="1278" height="440" fill="none" viewBox="0 0 1278 440"><path fill="#132636" d="M3 37C3 16.5655 19.5655 0 40 0H1231.02C1254.96 0 1272.6 22.3939 1266.99 45.6693L1179.02 410.669C1175.02 427.289 1160.15 439 1143.05 439H40C19.5655 439 3 422.435 3 402V37Z"/><path fill="#132636" d="M0 37C0 16.5655 16.5655 0 37 0H39V440H37C16.5655 440 0 423.435 0 403V37Z"/><path fill="url(#paint0_linear_332_162)" d="M0 37C0 16.5655 16.5655 0 37 0H39V440H37C16.5655 440 0 423.435 0 403V37Z"/><g clip-path="url(#clip0_332_162)"><path fill="#01D8CE" d="M324.112 144.293C326.467 141.855 329.284 139.91 332.398 138.572C335.513 137.235 338.862 136.53 342.252 136.501C345.641 136.472 349.002 137.117 352.139 138.401C355.277 139.684 358.127 141.58 360.523 143.977C362.92 146.373 364.816 149.223 366.099 152.361C367.383 155.498 368.028 158.859 367.999 162.248C367.97 165.638 367.265 168.987 365.928 172.102C364.59 175.216 362.645 178.033 360.207 180.388L350.086 190.509L313.991 154.414L324.112 144.293V144.293ZM295.944 172.462L189 279.405V315.5H225.095L332.051 208.556L295.931 172.462H295.944Z"/></g><path fill="#fff" d="M503.011 147.114L512.627 111.789H525.101L509.517 158H501.456L503.011 147.114ZM494.283 111.789L503.899 147.114L505.518 158H497.361L481.873 111.789H494.283ZM547.159 149.653V123.659H557.886V158H547.857L547.159 149.653ZM548.174 142.67L550.967 142.607C550.967 144.913 550.692 147.05 550.142 149.018C549.592 150.965 548.777 152.657 547.698 154.096C546.64 155.535 545.328 156.656 543.763 157.46C542.218 158.243 540.43 158.635 538.399 158.635C536.706 158.635 535.151 158.402 533.733 157.937C532.337 157.45 531.131 156.699 530.115 155.683C529.1 154.646 528.306 153.324 527.735 151.716C527.185 150.087 526.91 148.14 526.91 145.876V123.659H537.605V145.939C537.605 146.701 537.701 147.357 537.891 147.907C538.082 148.457 538.357 148.923 538.716 149.304C539.076 149.663 539.52 149.938 540.049 150.129C540.599 150.298 541.224 150.383 541.922 150.383C543.53 150.383 544.789 150.044 545.699 149.367C546.609 148.69 547.243 147.77 547.603 146.606C547.984 145.442 548.174 144.13 548.174 142.67ZM580.42 158.635C577.627 158.635 575.131 158.201 572.93 157.333C570.73 156.445 568.868 155.228 567.344 153.684C565.842 152.139 564.689 150.362 563.885 148.352C563.102 146.341 562.71 144.215 562.71 141.972V140.766C562.71 138.248 563.06 135.921 563.758 133.784C564.456 131.625 565.493 129.742 566.868 128.134C568.243 126.526 569.968 125.278 572.042 124.389C574.115 123.479 576.527 123.024 579.278 123.024C581.711 123.024 583.89 123.416 585.816 124.199C587.741 124.982 589.371 126.103 590.704 127.563C592.058 129.023 593.084 130.79 593.782 132.863C594.502 134.937 594.861 137.264 594.861 139.846V144.194H566.805V137.497H584.419V136.672C584.441 135.529 584.24 134.556 583.816 133.752C583.414 132.948 582.822 132.334 582.039 131.911C581.256 131.488 580.304 131.276 579.183 131.276C578.019 131.276 577.056 131.53 576.294 132.038C575.554 132.546 574.972 133.244 574.549 134.133C574.147 135 573.861 136.005 573.692 137.148C573.523 138.291 573.438 139.497 573.438 140.766V141.972C573.438 143.242 573.607 144.395 573.946 145.432C574.306 146.468 574.813 147.357 575.469 148.098C576.146 148.817 576.95 149.378 577.881 149.78C578.833 150.182 579.913 150.383 581.119 150.383C582.579 150.383 584.017 150.108 585.435 149.558C586.853 149.007 588.069 148.098 589.085 146.828L593.941 152.604C593.243 153.599 592.248 154.562 590.958 155.493C589.688 156.424 588.165 157.185 586.387 157.778C584.61 158.349 582.621 158.635 580.42 158.635ZM622.093 111.789V158H610.953V111.789H622.093ZM635.994 111.789V120.39H597.369V111.789H635.994ZM658.179 149.653V123.659H668.907V158H658.877L658.179 149.653ZM659.195 142.67L661.988 142.607C661.988 144.913 661.713 147.05 661.163 149.018C660.612 150.965 659.798 152.657 658.719 154.096C657.661 155.535 656.349 156.656 654.783 157.46C653.239 158.243 651.451 158.635 649.419 158.635C647.727 158.635 646.172 158.402 644.754 157.937C643.357 157.45 642.151 156.699 641.136 155.683C640.12 154.646 639.327 153.324 638.755 151.716C638.205 150.087 637.93 148.14 637.93 145.876V123.659H648.626V145.939C648.626 146.701 648.721 147.357 648.912 147.907C649.102 148.457 649.377 148.923 649.737 149.304C650.097 149.663 650.541 149.938 651.07 150.129C651.62 150.298 652.244 150.383 652.942 150.383C654.55 150.383 655.809 150.044 656.719 149.367C657.629 148.69 658.264 147.77 658.624 146.606C659.004 145.442 659.195 144.13 659.195 142.67ZM674.905 109.25H685.601V149.558L684.49 158H674.905V109.25ZM706.675 140.449V141.115C706.675 143.718 706.411 146.088 705.882 148.225C705.353 150.362 704.538 152.213 703.438 153.779C702.338 155.323 700.952 156.519 699.28 157.365C697.609 158.212 695.63 158.635 693.345 158.635C691.272 158.635 689.494 158.19 688.013 157.302C686.532 156.392 685.294 155.144 684.3 153.557C683.305 151.949 682.501 150.097 681.888 148.002C681.274 145.887 680.787 143.623 680.428 141.21V140.417C680.787 138.026 681.274 135.783 681.888 133.688C682.501 131.573 683.305 129.721 684.3 128.134C685.294 126.526 686.521 125.278 687.981 124.389C689.463 123.479 691.229 123.024 693.282 123.024C695.588 123.024 697.577 123.458 699.249 124.326C700.941 125.193 702.338 126.41 703.438 127.976C704.538 129.541 705.353 131.382 705.882 133.498C706.411 135.614 706.675 137.931 706.675 140.449ZM695.979 141.115V140.449C695.979 139.2 695.905 138.026 695.757 136.926C695.609 135.826 695.345 134.852 694.964 134.006C694.583 133.16 694.043 132.493 693.345 132.006C692.647 131.52 691.737 131.276 690.616 131.276C689.473 131.276 688.51 131.467 687.728 131.848C686.966 132.229 686.352 132.779 685.887 133.498C685.442 134.196 685.125 135.064 684.935 136.101C684.744 137.116 684.66 138.269 684.681 139.56V142.067C684.638 143.824 684.797 145.326 685.157 146.574C685.516 147.823 686.141 148.775 687.029 149.431C687.918 150.087 689.135 150.415 690.679 150.415C691.822 150.415 692.742 150.192 693.44 149.748C694.16 149.304 694.699 148.669 695.059 147.844C695.419 147.019 695.662 146.035 695.789 144.892C695.916 143.75 695.979 142.491 695.979 141.115ZM728.067 158.635C725.274 158.635 722.777 158.201 720.577 157.333C718.376 156.445 716.514 155.228 714.991 153.684C713.488 152.139 712.335 150.362 711.531 148.352C710.748 146.341 710.357 144.215 710.357 141.972V140.766C710.357 138.248 710.706 135.921 711.404 133.784C712.103 131.625 713.139 129.742 714.515 128.134C715.89 126.526 717.614 125.278 719.688 124.389C721.762 123.479 724.174 123.024 726.924 123.024C729.358 123.024 731.537 123.416 733.462 124.199C735.388 124.982 737.017 126.103 738.35 127.563C739.704 129.023 740.73 130.79 741.429 132.863C742.148 134.937 742.508 137.264 742.508 139.846V144.194H714.451V137.497H732.066V136.672C732.087 135.529 731.886 134.556 731.463 133.752C731.061 132.948 730.468 132.334 729.686 131.911C728.903 131.488 727.951 131.276 726.829 131.276C725.665 131.276 724.703 131.53 723.941 132.038C723.2 132.546 722.618 133.244 722.195 134.133C721.793 135 721.508 136.005 721.338 137.148C721.169 138.291 721.084 139.497 721.084 140.766V141.972C721.084 143.242 721.254 144.395 721.592 145.432C721.952 146.468 722.46 147.357 723.116 148.098C723.793 148.817 724.597 149.378 725.528 149.78C726.48 150.182 727.559 150.383 728.765 150.383C730.225 150.383 731.664 150.108 733.082 149.558C734.499 149.007 735.716 148.098 736.731 146.828L741.587 152.604C740.889 153.599 739.895 154.562 738.604 155.493C737.334 156.424 735.811 157.185 734.034 157.778C732.256 158.349 730.267 158.635 728.067 158.635Z"/><path fill="#fff" d="M542.482 266.823H510.843V243.137H542.482C546.794 243.137 550.29 242.409 552.971 240.952C555.651 239.495 557.603 237.485 558.827 234.921C560.109 232.299 560.75 229.357 560.75 226.094C560.75 222.598 560.109 219.364 558.827 216.392C557.603 213.42 555.651 211.031 552.971 209.225C550.29 207.361 546.794 206.428 542.482 206.428H522.38V310H491.702V182.742H542.482C552.679 182.742 561.449 184.607 568.791 188.336C576.191 192.065 581.872 197.193 585.834 203.719C589.796 210.187 591.777 217.587 591.777 225.919C591.777 234.135 589.796 241.302 585.834 247.42C581.872 253.538 576.191 258.316 568.791 261.754C561.449 265.133 552.679 266.823 542.482 266.823ZM638.013 175.75V310H608.471V175.75H638.013ZM705.313 286.227V247.245C705.313 244.565 704.934 242.263 704.177 240.34C703.419 238.417 702.225 236.932 700.593 235.883C698.962 234.776 696.777 234.222 694.038 234.222C691.824 234.222 689.93 234.601 688.357 235.358C686.784 236.116 685.589 237.252 684.773 238.767C683.958 240.282 683.55 242.205 683.55 244.536H654.095C654.095 240.166 655.057 236.116 656.979 232.387C658.961 228.599 661.757 225.307 665.37 222.51C669.041 219.713 673.411 217.557 678.48 216.042C683.608 214.469 689.318 213.683 695.611 213.683C703.128 213.683 709.829 214.935 715.714 217.441C721.657 219.946 726.348 223.705 729.786 228.716C733.223 233.669 734.942 239.903 734.942 247.42V286.139C734.942 292.316 735.292 297.006 735.991 300.211C736.69 303.357 737.681 306.125 738.963 308.514V310H709.421C708.022 307.087 706.974 303.532 706.274 299.337C705.633 295.083 705.313 290.713 705.313 286.227ZM708.896 252.227L709.071 267.959H696.048C693.31 267.959 690.979 268.338 689.056 269.096C687.192 269.853 685.677 270.902 684.511 272.242C683.404 273.524 682.588 274.981 682.064 276.612C681.598 278.244 681.365 279.963 681.365 281.769C681.365 283.517 681.773 285.09 682.588 286.489C683.462 287.829 684.628 288.878 686.084 289.635C687.541 290.393 689.173 290.771 690.979 290.771C694.242 290.771 697.01 290.16 699.282 288.936C701.613 287.654 703.39 286.11 704.614 284.304C705.837 282.497 706.449 280.808 706.449 279.234L712.917 291.296C711.752 293.627 710.411 295.986 708.896 298.375C707.44 300.764 705.604 302.979 703.39 305.018C701.234 306.999 698.583 308.631 695.437 309.913C692.29 311.136 688.473 311.748 683.987 311.748C678.16 311.748 672.799 310.554 667.905 308.165C663.069 305.776 659.194 302.454 656.28 298.201C653.367 293.889 651.91 288.936 651.91 283.342C651.91 278.448 652.784 274.078 654.532 270.232C656.339 266.386 659.048 263.123 662.661 260.443C666.273 257.763 670.876 255.723 676.47 254.325C682.064 252.926 688.648 252.227 696.223 252.227H708.896ZM780.217 235.621V310H750.762V215.431H778.381L780.217 235.621ZM776.721 259.481L769.816 259.656C769.816 252.431 770.69 245.992 772.438 240.34C774.186 234.63 776.662 229.794 779.867 225.832C783.072 221.869 786.889 218.868 791.317 216.829C795.804 214.731 800.785 213.683 806.263 213.683C810.633 213.683 814.624 214.324 818.237 215.605C821.908 216.887 825.054 218.956 827.676 221.811C830.357 224.666 832.396 228.454 833.794 233.173C835.251 237.835 835.979 243.603 835.979 250.479V310H806.35V250.392C806.35 246.604 805.826 243.72 804.777 241.739C803.728 239.699 802.213 238.301 800.232 237.543C798.251 236.786 795.833 236.407 792.978 236.407C789.948 236.407 787.384 236.99 785.286 238.155C783.188 239.321 781.499 240.952 780.217 243.05C778.993 245.089 778.09 247.507 777.507 250.304C776.983 253.101 776.721 256.16 776.721 259.481ZM907.562 287.013V215.431H937.104V310H909.485L907.562 287.013ZM910.359 267.785L918.05 267.61C918.05 273.961 917.293 279.846 915.778 285.265C914.263 290.626 912.02 295.287 909.048 299.25C906.134 303.212 902.522 306.3 898.21 308.514C893.956 310.67 889.033 311.748 883.439 311.748C878.778 311.748 874.495 311.107 870.591 309.825C866.745 308.485 863.424 306.417 860.627 303.62C857.83 300.764 855.645 297.123 854.072 292.694C852.557 288.208 851.799 282.847 851.799 276.612V215.431H881.254V276.787C881.254 278.885 881.516 280.691 882.041 282.206C882.565 283.721 883.322 285.003 884.313 286.052C885.304 287.042 886.527 287.8 887.984 288.324C889.499 288.79 891.218 289.023 893.141 289.023C897.569 289.023 901.036 288.091 903.542 286.227C906.047 284.362 907.795 281.827 908.786 278.623C909.834 275.418 910.359 271.805 910.359 267.785ZM983.078 238.854V310H953.623V215.431H981.155L983.078 238.854ZM1011.05 214.731L1010.52 242.088C1009.36 241.972 1007.78 241.826 1005.8 241.651C1003.82 241.477 1002.16 241.389 1000.82 241.389C997.382 241.389 994.411 241.797 991.905 242.613C989.458 243.37 987.419 244.536 985.787 246.109C984.214 247.624 983.049 249.547 982.291 251.877C981.592 254.208 981.271 256.918 981.33 260.006L975.998 256.51C975.998 250.159 976.61 244.39 977.833 239.204C979.115 233.96 980.922 229.444 983.252 225.657C985.583 221.811 988.409 218.868 991.73 216.829C995.052 214.731 998.781 213.683 1002.92 213.683C1004.37 213.683 1005.8 213.77 1007.2 213.945C1008.66 214.12 1009.94 214.382 1011.05 214.731ZM1052.3 215.431V310H1022.76V215.431H1052.3ZM1021.01 191.045C1021.01 186.85 1022.53 183.412 1025.56 180.732C1028.59 178.052 1032.52 176.711 1037.35 176.711C1042.19 176.711 1046.12 178.052 1049.15 180.732C1052.18 183.412 1053.7 186.85 1053.7 191.045C1053.7 195.241 1052.18 198.679 1049.15 201.359C1046.12 204.039 1042.19 205.379 1037.35 205.379C1032.52 205.379 1028.59 204.039 1025.56 201.359C1022.53 198.679 1021.01 195.241 1021.01 191.045Z"/><path fill="url(#paint1_linear_332_162)" d="M542.482 266.823H510.843V243.137H542.482C546.794 243.137 550.29 242.409 552.971 240.952C555.651 239.495 557.603 237.485 558.827 234.921C560.109 232.299 560.75 229.357 560.75 226.094C560.75 222.598 560.109 219.364 558.827 216.392C557.603 213.42 555.651 211.031 552.971 209.225C550.29 207.361 546.794 206.428 542.482 206.428H522.38V310H491.702V182.742H542.482C552.679 182.742 561.449 184.607 568.791 188.336C576.191 192.065 581.872 197.193 585.834 203.719C589.796 210.187 591.777 217.587 591.777 225.919C591.777 234.135 589.796 241.302 585.834 247.42C581.872 253.538 576.191 258.316 568.791 261.754C561.449 265.133 552.679 266.823 542.482 266.823ZM638.013 175.75V310H608.471V175.75H638.013ZM705.313 286.227V247.245C705.313 244.565 704.934 242.263 704.177 240.34C703.419 238.417 702.225 236.932 700.593 235.883C698.962 234.776 696.777 234.222 694.038 234.222C691.824 234.222 689.93 234.601 688.357 235.358C686.784 236.116 685.589 237.252 684.773 238.767C683.958 240.282 683.55 242.205 683.55 244.536H654.095C654.095 240.166 655.057 236.116 656.979 232.387C658.961 228.599 661.757 225.307 665.37 222.51C669.041 219.713 673.411 217.557 678.48 216.042C683.608 214.469 689.318 213.683 695.611 213.683C703.128 213.683 709.829 214.935 715.714 217.441C721.657 219.946 726.348 223.705 729.786 228.716C733.223 233.669 734.942 239.903 734.942 247.42V286.139C734.942 292.316 735.292 297.006 735.991 300.211C736.69 303.357 737.681 306.125 738.963 308.514V310H709.421C708.022 307.087 706.974 303.532 706.274 299.337C705.633 295.083 705.313 290.713 705.313 286.227ZM708.896 252.227L709.071 267.959H696.048C693.31 267.959 690.979 268.338 689.056 269.096C687.192 269.853 685.677 270.902 684.511 272.242C683.404 273.524 682.588 274.981 682.064 276.612C681.598 278.244 681.365 279.963 681.365 281.769C681.365 283.517 681.773 285.09 682.588 286.489C683.462 287.829 684.628 288.878 686.084 289.635C687.541 290.393 689.173 290.771 690.979 290.771C694.242 290.771 697.01 290.16 699.282 288.936C701.613 287.654 703.39 286.11 704.614 284.304C705.837 282.497 706.449 280.808 706.449 279.234L712.917 291.296C711.752 293.627 710.411 295.986 708.896 298.375C707.44 300.764 705.604 302.979 703.39 305.018C701.234 306.999 698.583 308.631 695.437 309.913C692.29 311.136 688.473 311.748 683.987 311.748C678.16 311.748 672.799 310.554 667.905 308.165C663.069 305.776 659.194 302.454 656.28 298.201C653.367 293.889 651.91 288.936 651.91 283.342C651.91 278.448 652.784 274.078 654.532 270.232C656.339 266.386 659.048 263.123 662.661 260.443C666.273 257.763 670.876 255.723 676.47 254.325C682.064 252.926 688.648 252.227 696.223 252.227H708.896ZM780.217 235.621V310H750.762V215.431H778.381L780.217 235.621ZM776.721 259.481L769.816 259.656C769.816 252.431 770.69 245.992 772.438 240.34C774.186 234.63 776.662 229.794 779.867 225.832C783.072 221.869 786.889 218.868 791.317 216.829C795.804 214.731 800.785 213.683 806.263 213.683C810.633 213.683 814.624 214.324 818.237 215.605C821.908 216.887 825.054 218.956 827.676 221.811C830.357 224.666 832.396 228.454 833.794 233.173C835.251 237.835 835.979 243.603 835.979 250.479V310H806.35V250.392C806.35 246.604 805.826 243.72 804.777 241.739C803.728 239.699 802.213 238.301 800.232 237.543C798.251 236.786 795.833 236.407 792.978 236.407C789.948 236.407 787.384 236.99 785.286 238.155C783.188 239.321 781.499 240.952 780.217 243.05C778.993 245.089 778.09 247.507 777.507 250.304C776.983 253.101 776.721 256.16 776.721 259.481ZM907.562 287.013V215.431H937.104V310H909.485L907.562 287.013ZM910.359 267.785L918.05 267.61C918.05 273.961 917.293 279.846 915.778 285.265C914.263 290.626 912.02 295.287 909.048 299.25C906.134 303.212 902.522 306.3 898.21 308.514C893.956 310.67 889.033 311.748 883.439 311.748C878.778 311.748 874.495 311.107 870.591 309.825C866.745 308.485 863.424 306.417 860.627 303.62C857.83 300.764 855.645 297.123 854.072 292.694C852.557 288.208 851.799 282.847 851.799 276.612V215.431H881.254V276.787C881.254 278.885 881.516 280.691 882.041 282.206C882.565 283.721 883.322 285.003 884.313 286.052C885.304 287.042 886.527 287.8 887.984 288.324C889.499 288.79 891.218 289.023 893.141 289.023C897.569 289.023 901.036 288.091 903.542 286.227C906.047 284.362 907.795 281.827 908.786 278.623C909.834 275.418 910.359 271.805 910.359 267.785ZM983.078 238.854V310H953.623V215.431H981.155L983.078 238.854ZM1011.05 214.731L1010.52 242.088C1009.36 241.972 1007.78 241.826 1005.8 241.651C1003.82 241.477 1002.16 241.389 1000.82 241.389C997.382 241.389 994.411 241.797 991.905 242.613C989.458 243.37 987.419 244.536 985.787 246.109C984.214 247.624 983.049 249.547 982.291 251.877C981.592 254.208 981.271 256.918 981.33 260.006L975.998 256.51C975.998 250.159 976.61 244.39 977.833 239.204C979.115 233.96 980.922 229.444 983.252 225.657C985.583 221.811 988.409 218.868 991.73 216.829C995.052 214.731 998.781 213.683 1002.92 213.683C1004.37 213.683 1005.8 213.77 1007.2 213.945C1008.66 214.12 1009.94 214.382 1011.05 214.731ZM1052.3 215.431V310H1022.76V215.431H1052.3ZM1021.01 191.045C1021.01 186.85 1022.53 183.412 1025.56 180.732C1028.59 178.052 1032.52 176.711 1037.35 176.711C1042.19 176.711 1046.12 178.052 1049.15 180.732C1052.18 183.412 1053.7 186.85 1053.7 191.045C1053.7 195.241 1052.18 198.679 1049.15 201.359C1046.12 204.039 1042.19 205.379 1037.35 205.379C1032.52 205.379 1028.59 204.039 1025.56 201.359C1022.53 198.679 1021.01 195.241 1021.01 191.045Z"/><defs><linearGradient id="paint0_linear_332_162" x1="0" x2="88.064" y1=".777" y2="9.505" gradientUnits="userSpaceOnUse"><stop stop-color="#00E1C3"/><stop offset="1" stop-color="#00D1D5"/></linearGradient><linearGradient id="paint1_linear_332_162" x1="482" x2="607.35" y1="144.371" y2="532.125" gradientUnits="userSpaceOnUse"><stop stop-color="#00E1C3"/><stop offset="1" stop-color="#00D1D5"/></linearGradient><clipPath id="clip0_332_162"><rect width="179" height="179" fill="#fff" transform="translate(189 136.5)"/></clipPath></defs></svg>