<svg xmlns="http://www.w3.org/2000/svg" width="1413" height="440" fill="none" viewBox="0 0 1413 440"><path fill="#132636" d="M3 37C3 16.5655 19.5655 0 40 0H1364.85C1389.15 0 1406.86 23.0408 1400.6 46.5291L1303.31 411.529C1299 427.728 1284.33 439 1267.56 439H40C19.5654 439 3 422.435 3 402V37Z"/><path fill="#132636" d="M0 37C0 16.5655 16.5655 0 37 0H39V440H37C16.5655 440 0 423.435 0 403V37Z"/><path fill="url(#paint0_linear_201_120)" d="M0 37C0 16.5655 16.5655 0 37 0H39V440H37C16.5655 440 0 423.435 0 403V37Z"/><path fill="#01D8CE" d="M324.112 151.793C326.467 149.355 329.284 147.41 332.398 146.072C335.513 144.735 338.862 144.03 342.252 144.001C345.641 143.972 349.002 144.617 352.139 145.901C355.277 147.184 358.127 149.08 360.523 151.477C362.92 153.873 364.816 156.723 366.099 159.861C367.383 162.998 368.029 166.359 367.999 169.748C367.97 173.138 367.265 176.487 365.928 179.602C364.59 182.716 362.645 185.533 360.207 187.888L350.086 198.009L313.991 161.914L324.112 151.793ZM295.944 179.962L189 286.905V323H225.095L332.051 216.056L295.931 179.962H295.944Z"/><path fill="#fff" d="M503.011 147.114L512.627 111.789H525.101L509.517 158H501.456L503.011 147.114ZM494.283 111.789L503.899 147.114L505.518 158H497.361L481.873 111.789H494.283ZM547.159 149.653V123.659H557.886V158H547.857L547.159 149.653ZM548.174 142.67L550.967 142.607C550.967 144.913 550.692 147.05 550.142 149.018C549.592 150.965 548.777 152.657 547.698 154.096C546.64 155.535 545.328 156.656 543.763 157.46C542.218 158.243 540.43 158.635 538.399 158.635C536.706 158.635 535.151 158.402 533.733 157.937C532.337 157.45 531.131 156.699 530.115 155.683C529.1 154.646 528.306 153.324 527.735 151.716C527.185 150.087 526.91 148.14 526.91 145.876V123.659H537.605V145.939C537.605 146.701 537.701 147.357 537.891 147.907C538.082 148.457 538.357 148.923 538.716 149.304C539.076 149.663 539.52 149.938 540.049 150.129C540.599 150.298 541.224 150.383 541.922 150.383C543.53 150.383 544.789 150.044 545.699 149.367C546.609 148.69 547.243 147.77 547.603 146.606C547.984 145.442 548.174 144.13 548.174 142.67ZM580.42 158.635C577.627 158.635 575.131 158.201 572.93 157.333C570.73 156.445 568.868 155.228 567.344 153.684C565.842 152.139 564.689 150.362 563.885 148.352C563.102 146.341 562.71 144.215 562.71 141.972V140.766C562.71 138.248 563.06 135.921 563.758 133.784C564.456 131.625 565.493 129.742 566.868 128.134C568.243 126.526 569.968 125.278 572.042 124.389C574.115 123.479 576.527 123.024 579.278 123.024C581.711 123.024 583.89 123.416 585.816 124.199C587.741 124.982 589.371 126.103 590.704 127.563C592.058 129.023 593.084 130.79 593.782 132.863C594.502 134.937 594.861 137.264 594.861 139.846V144.194H566.805V137.497H584.419V136.672C584.441 135.529 584.24 134.556 583.816 133.752C583.414 132.948 582.822 132.334 582.039 131.911C581.256 131.488 580.304 131.276 579.183 131.276C578.019 131.276 577.056 131.53 576.294 132.038C575.554 132.546 574.972 133.244 574.549 134.133C574.147 135 573.861 136.005 573.692 137.148C573.523 138.291 573.438 139.497 573.438 140.766V141.972C573.438 143.242 573.607 144.395 573.946 145.432C574.306 146.468 574.813 147.357 575.469 148.098C576.146 148.817 576.95 149.378 577.881 149.78C578.833 150.182 579.913 150.383 581.119 150.383C582.579 150.383 584.017 150.108 585.435 149.558C586.853 149.007 588.069 148.098 589.085 146.828L593.941 152.604C593.243 153.599 592.248 154.562 590.958 155.493C589.688 156.424 588.165 157.185 586.387 157.778C584.61 158.349 582.621 158.635 580.42 158.635ZM622.093 111.789V158H610.953V111.789H622.093ZM635.994 111.789V120.39H597.369V111.789H635.994ZM658.179 149.653V123.659H668.907V158H658.877L658.179 149.653ZM659.195 142.67L661.988 142.607C661.988 144.913 661.713 147.05 661.163 149.018C660.612 150.965 659.798 152.657 658.719 154.096C657.661 155.535 656.349 156.656 654.783 157.46C653.239 158.243 651.451 158.635 649.419 158.635C647.727 158.635 646.172 158.402 644.754 157.937C643.357 157.45 642.151 156.699 641.136 155.683C640.12 154.646 639.327 153.324 638.755 151.716C638.205 150.087 637.93 148.14 637.93 145.876V123.659H648.626V145.939C648.626 146.701 648.721 147.357 648.912 147.907C649.102 148.457 649.377 148.923 649.737 149.304C650.097 149.663 650.541 149.938 651.07 150.129C651.62 150.298 652.244 150.383 652.942 150.383C654.55 150.383 655.809 150.044 656.719 149.367C657.629 148.69 658.264 147.77 658.624 146.606C659.004 145.442 659.195 144.13 659.195 142.67ZM674.905 109.25H685.601V149.558L684.49 158H674.905V109.25ZM706.675 140.449V141.115C706.675 143.718 706.411 146.088 705.882 148.225C705.353 150.362 704.538 152.213 703.438 153.779C702.338 155.323 700.952 156.519 699.28 157.365C697.609 158.212 695.63 158.635 693.345 158.635C691.272 158.635 689.494 158.19 688.013 157.302C686.532 156.392 685.294 155.144 684.3 153.557C683.305 151.949 682.501 150.097 681.888 148.002C681.274 145.887 680.787 143.623 680.428 141.21V140.417C680.787 138.026 681.274 135.783 681.888 133.688C682.501 131.573 683.305 129.721 684.3 128.134C685.294 126.526 686.521 125.278 687.981 124.389C689.463 123.479 691.229 123.024 693.282 123.024C695.588 123.024 697.577 123.458 699.249 124.326C700.941 125.193 702.338 126.41 703.438 127.976C704.538 129.541 705.353 131.382 705.882 133.498C706.411 135.614 706.675 137.931 706.675 140.449ZM695.979 141.115V140.449C695.979 139.2 695.905 138.026 695.757 136.926C695.609 135.826 695.345 134.852 694.964 134.006C694.583 133.16 694.043 132.493 693.345 132.006C692.647 131.52 691.737 131.276 690.616 131.276C689.473 131.276 688.51 131.467 687.728 131.848C686.966 132.229 686.352 132.779 685.887 133.498C685.442 134.196 685.125 135.064 684.935 136.101C684.744 137.116 684.66 138.269 684.681 139.56V142.067C684.638 143.824 684.797 145.326 685.157 146.574C685.516 147.823 686.141 148.775 687.029 149.431C687.918 150.087 689.135 150.415 690.679 150.415C691.822 150.415 692.742 150.192 693.44 149.748C694.16 149.304 694.699 148.669 695.059 147.844C695.419 147.019 695.662 146.035 695.789 144.892C695.916 143.75 695.979 142.491 695.979 141.115ZM728.067 158.635C725.274 158.635 722.777 158.201 720.577 157.333C718.376 156.445 716.514 155.228 714.991 153.684C713.488 152.139 712.335 150.362 711.531 148.352C710.748 146.341 710.357 144.215 710.357 141.972V140.766C710.357 138.248 710.706 135.921 711.404 133.784C712.103 131.625 713.139 129.742 714.515 128.134C715.89 126.526 717.614 125.278 719.688 124.389C721.762 123.479 724.174 123.024 726.924 123.024C729.358 123.024 731.537 123.416 733.462 124.199C735.388 124.982 737.017 126.103 738.35 127.563C739.704 129.023 740.73 130.79 741.429 132.863C742.148 134.937 742.508 137.264 742.508 139.846V144.194H714.451V137.497H732.066V136.672C732.087 135.529 731.886 134.556 731.463 133.752C731.061 132.948 730.468 132.334 729.686 131.911C728.903 131.488 727.951 131.276 726.829 131.276C725.665 131.276 724.703 131.53 723.941 132.038C723.2 132.546 722.618 133.244 722.195 134.133C721.793 135 721.508 136.005 721.338 137.148C721.169 138.291 721.084 139.497 721.084 140.766V141.972C721.084 143.242 721.254 144.395 721.592 145.432C721.952 146.468 722.46 147.357 723.116 148.098C723.793 148.817 724.597 149.378 725.528 149.78C726.48 150.182 727.559 150.383 728.765 150.383C730.225 150.383 731.664 150.108 733.082 149.558C734.499 149.007 735.716 148.098 736.731 146.828L741.587 152.604C740.889 153.599 739.895 154.562 738.604 155.493C737.334 156.424 735.811 157.185 734.034 157.778C732.256 158.349 730.267 158.635 728.067 158.635Z"/><path fill="#fff" d="M491.666 244.092V265.393H652.05V244.092H491.666ZM505.091 199.879V221.18H638.983V199.879H505.091ZM559.865 173.029V341.11H582.598V173.029H559.865ZM556.106 256.443C541.428 279.534 513.146 302.804 485.58 314.797C490.592 319.272 497.752 327.864 501.332 333.234C529.614 318.556 557.538 292.601 574.722 264.14L556.106 256.443ZM586.536 256.622L568.636 264.14C585.82 292.422 613.207 318.914 640.952 333.592C644.532 327.864 651.692 319.093 656.704 314.797C629.317 302.983 601.035 279.713 586.536 256.622ZM670.129 251.252V271.837H831.05V251.252H670.129ZM678.542 192.54V212.946H823.89V192.54H678.542ZM739.044 172.85V340.931H761.956V172.85H739.044ZM792.386 212.409C788.985 222.97 782.362 236.932 776.813 246.061L795.429 252.147C801.157 244.092 808.317 231.383 814.94 219.032L792.386 212.409ZM690.535 220.106C696.621 230.309 702.707 243.913 704.497 252.505L725.082 244.45C722.755 235.679 716.311 222.612 709.688 212.946L690.535 220.106ZM735.464 259.486C720.965 282.398 692.683 305.131 665.117 316.766C669.95 321.062 676.931 329.475 680.332 334.666C708.256 320.525 736.001 294.749 752.827 266.467L735.464 259.486ZM766.073 259.844L748.71 266.825C765.536 294.928 792.565 321.062 820.489 335.203C823.89 329.654 830.692 321.42 835.704 317.124C808.317 305.489 780.393 282.577 766.073 259.844ZM860.585 188.602C870.609 197.015 884.034 209.187 889.941 216.884L904.44 201.311C897.996 193.614 884.213 182.516 874.189 174.819L860.585 188.602ZM873.652 340.394C877.053 335.919 883.497 330.728 919.834 304.415C917.507 300.119 914.285 290.811 913.032 284.725L873.473 312.47L868.64 319.451L873.652 340.394ZM846.802 228.161V249.462H886.719V228.161H846.802ZM905.514 229.414V251.789H1013.09V229.414H905.514ZM948.653 173.745V341.11H971.744V173.745H948.653ZM873.652 340.394C873.652 332.518 894.774 319.63 894.774 319.63V228.161H872.757V303.52C872.757 311.575 867.208 317.661 862.912 320.346C866.671 324.821 871.862 334.666 873.652 340.394ZM1129.8 192.182V290.99H1150.39V192.182H1129.8ZM1164.17 174.819V316.229C1164.17 319.272 1162.92 320.167 1159.69 320.167C1156.65 320.167 1146.45 320.346 1136.42 319.988C1139.29 325.895 1142.51 335.382 1143.23 341.11C1158.62 341.11 1169 340.394 1175.98 336.993C1182.79 333.592 1185.11 327.864 1185.11 316.229V174.819H1164.17ZM1023.48 222.97L1025.44 243.376L1124.07 232.457L1122.1 212.23L1023.48 222.97ZM1045.31 173.208C1046.03 254.832 1061.78 339.678 1099.37 339.678C1115.3 339.678 1122.28 331.981 1125.68 300.656C1119.96 298.687 1112.62 293.854 1107.96 289.021C1106.89 309.964 1104.92 318.377 1100.8 318.377C1083.8 318.377 1066.08 246.598 1067.33 173.208H1045.31ZM1095.97 239.617C1081.65 274.343 1055.34 303.341 1023.65 320.167C1027.95 324.284 1035.47 332.697 1038.69 337.172C1070.91 317.124 1099.37 284.904 1116.38 245.703L1095.97 239.617ZM1071.81 185.917C1080.76 193.435 1091.67 204.354 1096.33 211.514L1111.54 198.626C1106.35 191.466 1095.08 181.263 1085.95 174.461L1071.81 185.917Z"/><path fill="url(#paint1_linear_201_120)" d="M491.666 244.092V265.393H652.05V244.092H491.666ZM505.091 199.879V221.18H638.983V199.879H505.091ZM559.865 173.029V341.11H582.598V173.029H559.865ZM556.106 256.443C541.428 279.534 513.146 302.804 485.58 314.797C490.592 319.272 497.752 327.864 501.332 333.234C529.614 318.556 557.538 292.601 574.722 264.14L556.106 256.443ZM586.536 256.622L568.636 264.14C585.82 292.422 613.207 318.914 640.952 333.592C644.532 327.864 651.692 319.093 656.704 314.797C629.317 302.983 601.035 279.713 586.536 256.622ZM670.129 251.252V271.837H831.05V251.252H670.129ZM678.542 192.54V212.946H823.89V192.54H678.542ZM739.044 172.85V340.931H761.956V172.85H739.044ZM792.386 212.409C788.985 222.97 782.362 236.932 776.813 246.061L795.429 252.147C801.157 244.092 808.317 231.383 814.94 219.032L792.386 212.409ZM690.535 220.106C696.621 230.309 702.707 243.913 704.497 252.505L725.082 244.45C722.755 235.679 716.311 222.612 709.688 212.946L690.535 220.106ZM735.464 259.486C720.965 282.398 692.683 305.131 665.117 316.766C669.95 321.062 676.931 329.475 680.332 334.666C708.256 320.525 736.001 294.749 752.827 266.467L735.464 259.486ZM766.073 259.844L748.71 266.825C765.536 294.928 792.565 321.062 820.489 335.203C823.89 329.654 830.692 321.42 835.704 317.124C808.317 305.489 780.393 282.577 766.073 259.844ZM860.585 188.602C870.609 197.015 884.034 209.187 889.941 216.884L904.44 201.311C897.996 193.614 884.213 182.516 874.189 174.819L860.585 188.602ZM873.652 340.394C877.053 335.919 883.497 330.728 919.834 304.415C917.507 300.119 914.285 290.811 913.032 284.725L873.473 312.47L868.64 319.451L873.652 340.394ZM846.802 228.161V249.462H886.719V228.161H846.802ZM905.514 229.414V251.789H1013.09V229.414H905.514ZM948.653 173.745V341.11H971.744V173.745H948.653ZM873.652 340.394C873.652 332.518 894.774 319.63 894.774 319.63V228.161H872.757V303.52C872.757 311.575 867.208 317.661 862.912 320.346C866.671 324.821 871.862 334.666 873.652 340.394ZM1129.8 192.182V290.99H1150.39V192.182H1129.8ZM1164.17 174.819V316.229C1164.17 319.272 1162.92 320.167 1159.69 320.167C1156.65 320.167 1146.45 320.346 1136.42 319.988C1139.29 325.895 1142.51 335.382 1143.23 341.11C1158.62 341.11 1169 340.394 1175.98 336.993C1182.79 333.592 1185.11 327.864 1185.11 316.229V174.819H1164.17ZM1023.48 222.97L1025.44 243.376L1124.07 232.457L1122.1 212.23L1023.48 222.97ZM1045.31 173.208C1046.03 254.832 1061.78 339.678 1099.37 339.678C1115.3 339.678 1122.28 331.981 1125.68 300.656C1119.96 298.687 1112.62 293.854 1107.96 289.021C1106.89 309.964 1104.92 318.377 1100.8 318.377C1083.8 318.377 1066.08 246.598 1067.33 173.208H1045.31ZM1095.97 239.617C1081.65 274.343 1055.34 303.341 1023.65 320.167C1027.95 324.284 1035.47 332.697 1038.69 337.172C1070.91 317.124 1099.37 284.904 1116.38 245.703L1095.97 239.617ZM1071.81 185.917C1080.76 193.435 1091.67 204.354 1096.33 211.514L1111.54 198.626C1106.35 191.466 1095.08 181.263 1085.95 174.461L1071.81 185.917Z"/><defs><linearGradient id="paint0_linear_201_120" x1="0" x2="88.064" y1=".777" y2="9.505" gradientUnits="userSpaceOnUse"><stop stop-color="#00E1C3"/><stop offset="1" stop-color="#00D1D5"/></linearGradient><linearGradient id="paint1_linear_201_120" x1="482" x2="587.113" y1="159.371" y2="560.074" gradientUnits="userSpaceOnUse"><stop stop-color="#00E1C3"/><stop offset="1" stop-color="#00D1D5"/></linearGradient></defs></svg>