<svg xmlns="http://www.w3.org/2000/svg" width="2030" height="440" fill="none" viewBox="0 0 2030 440"><path fill="#132636" d="M3 37C3 16.5655 19.5655 0 40 0H1976.2C2002.15 0 2020.03 26.0103 2010.75 50.2386L1870.89 415.239C1865.41 429.551 1851.67 439 1836.34 439H40C19.5655 439 3 422.435 3 402V37Z"/><path fill="#132636" d="M0 37C0 16.5655 16.5655 0 37 0H39V440H37C16.5655 440 0 423.435 0 403V37Z"/><path fill="url(#paint0_linear_240_113)" d="M0 37C0 16.5655 16.5655 0 37 0H39V440H37C16.5655 440 0 423.435 0 403V37Z"/><path fill="url(#paint1_linear_240_113)" d="M339.24 239.163C349.416 233.319 349.415 218.678 339.238 212.836L304.727 193.042L342.697 175.39L395.065 205.427C410.978 214.555 410.978 237.445 395.065 246.573L340.201 278.042L302.231 260.39L339.24 239.163Z"/><path fill="url(#paint2_linear_240_113)" d="M223.282 259.304V279.416C223.287 291.095 235.961 298.401 246.117 292.576L267.934 280.062L305.904 297.714L224.679 344.303C208.808 353.406 189 341.985 189 323.73L189 243.366L223.282 259.304Z"/><path fill="url(#paint3_linear_240_113)" d="M308.401 155.718L270.431 173.37L246.103 159.416C235.948 153.604 223.282 160.913 223.282 172.59V195.289L189 211.226L189 128.27C189 110.015 208.808 98.5937 224.679 107.697L308.401 155.718Z"/><path fill="#fff" d="M542.011 147.114L551.627 111.789H564.101L548.517 158H540.456L542.011 147.114ZM533.283 111.789L542.899 147.114L544.518 158H536.361L520.873 111.789H533.283ZM586.159 149.653V123.659H596.886V158H586.857L586.159 149.653ZM587.174 142.67L589.967 142.607C589.967 144.913 589.692 147.05 589.142 149.018C588.592 150.965 587.777 152.657 586.698 154.096C585.64 155.535 584.328 156.656 582.763 157.46C581.218 158.243 579.43 158.635 577.399 158.635C575.706 158.635 574.151 158.402 572.733 157.937C571.337 157.45 570.131 156.699 569.115 155.683C568.1 154.646 567.306 153.324 566.735 151.716C566.185 150.087 565.91 148.14 565.91 145.876V123.659H576.605V145.939C576.605 146.701 576.701 147.357 576.891 147.907C577.082 148.457 577.357 148.923 577.716 149.304C578.076 149.663 578.52 149.938 579.049 150.129C579.599 150.298 580.224 150.383 580.922 150.383C582.53 150.383 583.789 150.044 584.699 149.367C585.609 148.69 586.243 147.77 586.603 146.606C586.984 145.442 587.174 144.13 587.174 142.67ZM619.42 158.635C616.627 158.635 614.131 158.201 611.93 157.333C609.73 156.445 607.868 155.228 606.344 153.684C604.842 152.139 603.689 150.362 602.885 148.352C602.102 146.341 601.71 144.215 601.71 141.972V140.766C601.71 138.248 602.06 135.921 602.758 133.784C603.456 131.625 604.493 129.742 605.868 128.134C607.243 126.526 608.968 125.278 611.042 124.389C613.115 123.479 615.527 123.024 618.278 123.024C620.711 123.024 622.89 123.416 624.816 124.199C626.741 124.982 628.371 126.103 629.704 127.563C631.058 129.023 632.084 130.79 632.782 132.863C633.502 134.937 633.861 137.264 633.861 139.846V144.194H605.805V137.497H623.419V136.672C623.441 135.529 623.24 134.556 622.816 133.752C622.414 132.948 621.822 132.334 621.039 131.911C620.256 131.488 619.304 131.276 618.183 131.276C617.019 131.276 616.056 131.53 615.294 132.038C614.554 132.546 613.972 133.244 613.549 134.133C613.147 135 612.861 136.005 612.692 137.148C612.523 138.291 612.438 139.497 612.438 140.766V141.972C612.438 143.242 612.607 144.395 612.946 145.432C613.306 146.468 613.813 147.357 614.469 148.098C615.146 148.817 615.95 149.378 616.881 149.78C617.833 150.182 618.913 150.383 620.119 150.383C621.579 150.383 623.017 150.108 624.435 149.558C625.853 149.007 627.069 148.098 628.085 146.828L632.941 152.604C632.243 153.599 631.248 154.562 629.958 155.493C628.688 156.424 627.165 157.185 625.387 157.778C623.61 158.349 621.621 158.635 619.42 158.635ZM661.093 111.789V158H649.953V111.789H661.093ZM674.994 111.789V120.39H636.369V111.789H674.994ZM697.179 149.653V123.659H707.907V158H697.877L697.179 149.653ZM698.195 142.67L700.988 142.607C700.988 144.913 700.713 147.05 700.163 149.018C699.612 150.965 698.798 152.657 697.719 154.096C696.661 155.535 695.349 156.656 693.783 157.46C692.239 158.243 690.451 158.635 688.419 158.635C686.727 158.635 685.172 158.402 683.754 157.937C682.357 157.45 681.151 156.699 680.136 155.683C679.12 154.646 678.327 153.324 677.755 151.716C677.205 150.087 676.93 148.14 676.93 145.876V123.659H687.626V145.939C687.626 146.701 687.721 147.357 687.912 147.907C688.102 148.457 688.377 148.923 688.737 149.304C689.097 149.663 689.541 149.938 690.07 150.129C690.62 150.298 691.244 150.383 691.942 150.383C693.55 150.383 694.809 150.044 695.719 149.367C696.629 148.69 697.264 147.77 697.624 146.606C698.004 145.442 698.195 144.13 698.195 142.67ZM713.905 109.25H724.601V149.558L723.49 158H713.905V109.25ZM745.675 140.449V141.115C745.675 143.718 745.411 146.088 744.882 148.225C744.353 150.362 743.538 152.213 742.438 153.779C741.338 155.323 739.952 156.519 738.28 157.365C736.609 158.212 734.63 158.635 732.345 158.635C730.272 158.635 728.494 158.19 727.013 157.302C725.532 156.392 724.294 155.144 723.3 153.557C722.305 151.949 721.501 150.097 720.888 148.002C720.274 145.887 719.787 143.623 719.428 141.21V140.417C719.787 138.026 720.274 135.783 720.888 133.688C721.501 131.573 722.305 129.721 723.3 128.134C724.294 126.526 725.521 125.278 726.981 124.389C728.463 123.479 730.229 123.024 732.282 123.024C734.588 123.024 736.577 123.458 738.249 124.326C739.941 125.193 741.338 126.41 742.438 127.976C743.538 129.541 744.353 131.382 744.882 133.498C745.411 135.614 745.675 137.931 745.675 140.449ZM734.979 141.115V140.449C734.979 139.2 734.905 138.026 734.757 136.926C734.609 135.826 734.345 134.852 733.964 134.006C733.583 133.16 733.043 132.493 732.345 132.006C731.647 131.52 730.737 131.276 729.616 131.276C728.473 131.276 727.51 131.467 726.728 131.848C725.966 132.229 725.352 132.779 724.887 133.498C724.442 134.196 724.125 135.064 723.935 136.101C723.744 137.116 723.66 138.269 723.681 139.56V142.067C723.638 143.824 723.797 145.326 724.157 146.574C724.516 147.823 725.141 148.775 726.029 149.431C726.918 150.087 728.135 150.415 729.679 150.415C730.822 150.415 731.742 150.192 732.44 149.748C733.16 149.304 733.699 148.669 734.059 147.844C734.419 147.019 734.662 146.035 734.789 144.892C734.916 143.75 734.979 142.491 734.979 141.115ZM767.067 158.635C764.274 158.635 761.777 158.201 759.577 157.333C757.376 156.445 755.514 155.228 753.991 153.684C752.488 152.139 751.335 150.362 750.531 148.352C749.748 146.341 749.357 144.215 749.357 141.972V140.766C749.357 138.248 749.706 135.921 750.404 133.784C751.103 131.625 752.139 129.742 753.515 128.134C754.89 126.526 756.614 125.278 758.688 124.389C760.762 123.479 763.174 123.024 765.924 123.024C768.358 123.024 770.537 123.416 772.462 124.199C774.388 124.982 776.017 126.103 777.35 127.563C778.704 129.023 779.73 130.79 780.429 132.863C781.148 134.937 781.508 137.264 781.508 139.846V144.194H753.451V137.497H771.066V136.672C771.087 135.529 770.886 134.556 770.463 133.752C770.061 132.948 769.468 132.334 768.686 131.911C767.903 131.488 766.951 131.276 765.829 131.276C764.665 131.276 763.703 131.53 762.941 132.038C762.2 132.546 761.618 133.244 761.195 134.133C760.793 135 760.508 136.005 760.338 137.148C760.169 138.291 760.084 139.497 760.084 140.766V141.972C760.084 143.242 760.254 144.395 760.592 145.432C760.952 146.468 761.46 147.357 762.116 148.098C762.793 148.817 763.597 149.378 764.528 149.78C765.48 150.182 766.559 150.383 767.765 150.383C769.225 150.383 770.664 150.108 772.082 149.558C773.499 149.007 774.716 148.098 775.731 146.828L780.587 152.604C779.889 153.599 778.895 154.562 777.604 155.493C776.334 156.424 774.811 157.185 773.034 157.778C771.256 158.349 769.267 158.635 767.067 158.635Z"/><path fill="#fff" d="M561.38 182.742V310H530.702V182.742H561.38ZM610.85 235.708V259.307H552.64V235.708H610.85ZM615.832 182.742V206.428H552.64V182.742H615.832ZM621.6 263.677V261.841C621.6 254.907 622.591 248.527 624.572 242.7C626.553 236.815 629.466 231.717 633.312 227.405C637.158 223.093 641.907 219.743 647.559 217.354C653.211 214.906 659.737 213.683 667.137 213.683C674.595 213.683 681.15 214.906 686.802 217.354C692.513 219.743 697.291 223.093 701.136 227.405C704.982 231.717 707.895 236.815 709.876 242.7C711.858 248.527 712.848 254.907 712.848 261.841V263.677C712.848 270.552 711.858 276.933 709.876 282.818C707.895 288.645 704.982 293.743 701.136 298.113C697.291 302.425 692.542 305.776 686.89 308.165C681.238 310.554 674.712 311.748 667.312 311.748C659.911 311.748 653.356 310.554 647.646 308.165C641.936 305.776 637.158 302.425 633.312 298.113C629.466 293.743 626.553 288.645 624.572 282.818C622.591 276.933 621.6 270.552 621.6 263.677ZM651.055 261.841V263.677C651.055 267.231 651.317 270.552 651.841 273.641C652.366 276.729 653.24 279.438 654.463 281.769C655.687 284.042 657.348 285.819 659.445 287.101C661.543 288.382 664.165 289.023 667.312 289.023C670.4 289.023 672.964 288.382 675.003 287.101C677.101 285.819 678.761 284.042 679.985 281.769C681.208 279.438 682.083 276.729 682.607 273.641C683.131 270.552 683.394 267.231 683.394 263.677V261.841C683.394 258.403 683.131 255.17 682.607 252.14C682.083 249.051 681.208 246.342 679.985 244.011C678.761 241.622 677.101 239.758 675.003 238.417C672.905 237.077 670.283 236.407 667.137 236.407C664.049 236.407 661.456 237.077 659.358 238.417C657.319 239.758 655.687 241.622 654.463 244.011C653.24 246.342 652.366 249.051 651.841 252.14C651.317 255.17 651.055 258.403 651.055 261.841ZM754.889 235.621V310H725.434V215.431H753.053L754.889 235.621ZM751.393 259.481L744.488 259.656C744.488 252.431 745.362 245.992 747.11 240.34C748.858 234.63 751.334 229.794 754.539 225.832C757.744 221.869 761.56 218.868 765.989 216.829C770.475 214.731 775.457 213.683 780.935 213.683C785.305 213.683 789.296 214.324 792.909 215.605C796.58 216.887 799.726 218.956 802.348 221.811C805.028 224.666 807.068 228.454 808.466 233.173C809.923 237.835 810.651 243.603 810.651 250.479V310H781.022V250.392C781.022 246.604 780.498 243.72 779.449 241.739C778.4 239.699 776.885 238.301 774.904 237.543C772.923 236.786 770.505 236.407 767.649 236.407C764.619 236.407 762.056 236.99 759.958 238.155C757.86 239.321 756.171 240.952 754.889 243.05C753.665 245.089 752.762 247.507 752.179 250.304C751.655 253.101 751.393 256.16 751.393 259.481ZM866.938 289.023C869.677 289.023 872.008 288.528 873.931 287.538C875.912 286.489 877.398 285.032 878.388 283.167C879.437 281.245 879.932 278.943 879.874 276.263H907.581C907.639 283.371 905.891 289.606 902.336 294.967C898.84 300.269 894.062 304.406 888.002 307.378C882.001 310.291 875.213 311.748 867.638 311.748C860.238 311.748 853.77 310.554 848.234 308.165C842.699 305.717 838.067 302.338 834.337 298.026C830.667 293.656 827.899 288.557 826.034 282.73C824.228 276.904 823.325 270.582 823.325 263.764V261.754C823.325 254.937 824.228 248.614 826.034 242.788C827.899 236.903 830.667 231.804 834.337 227.492C838.067 223.122 842.67 219.743 848.147 217.354C853.682 214.906 860.121 213.683 867.463 213.683C875.329 213.683 882.263 215.168 888.265 218.14C894.325 221.112 899.073 225.424 902.511 231.076C905.949 236.728 907.639 243.574 907.581 251.615H879.874C879.932 248.76 879.495 246.196 878.563 243.924C877.631 241.651 876.174 239.845 874.193 238.505C872.27 237.106 869.794 236.407 866.764 236.407C863.734 236.407 861.286 237.077 859.422 238.417C857.557 239.758 856.13 241.622 855.139 244.011C854.207 246.342 853.566 249.022 853.216 252.052C852.925 255.082 852.779 258.316 852.779 261.754V263.764C852.779 267.26 852.925 270.552 853.216 273.641C853.566 276.671 854.236 279.351 855.227 281.682C856.217 283.954 857.645 285.76 859.509 287.101C861.374 288.382 863.85 289.023 866.938 289.023ZM969.986 215.431V235.883H913V215.431H969.986ZM924.974 191.919H954.428V279.147C954.428 281.653 954.72 283.604 955.302 285.003C955.885 286.343 956.875 287.305 958.274 287.887C959.731 288.412 961.653 288.674 964.042 288.674C965.732 288.674 967.131 288.645 968.238 288.586C969.345 288.47 970.394 288.324 971.384 288.149V309.213C968.879 310.029 966.257 310.641 963.518 311.049C960.779 311.515 957.866 311.748 954.778 311.748C948.485 311.748 943.095 310.757 938.608 308.776C934.18 306.795 930.8 303.678 928.47 299.424C926.139 295.171 924.974 289.635 924.974 282.818V191.919ZM1012.81 215.431V310H983.271V215.431H1012.81ZM981.523 191.045C981.523 186.85 983.038 183.412 986.068 180.732C989.098 178.052 993.031 176.711 997.867 176.711C1002.7 176.711 1006.64 178.052 1009.67 180.732C1012.7 183.412 1014.21 186.85 1014.21 191.045C1014.21 195.241 1012.7 198.679 1009.67 201.359C1006.64 204.039 1002.7 205.379 997.867 205.379C993.031 205.379 989.098 204.039 986.068 201.359C983.038 198.679 981.523 195.241 981.523 191.045ZM1027.32 263.677V261.841C1027.32 254.907 1028.31 248.527 1030.29 242.7C1032.27 236.815 1035.19 231.717 1039.03 227.405C1042.88 223.093 1047.63 219.743 1053.28 217.354C1058.93 214.906 1065.46 213.683 1072.86 213.683C1080.32 213.683 1086.87 214.906 1092.52 217.354C1098.23 219.743 1103.01 223.093 1106.86 227.405C1110.7 231.717 1113.62 236.815 1115.6 242.7C1117.58 248.527 1118.57 254.907 1118.57 261.841V263.677C1118.57 270.552 1117.58 276.933 1115.6 282.818C1113.62 288.645 1110.7 293.743 1106.86 298.113C1103.01 302.425 1098.26 305.776 1092.61 308.165C1086.96 310.554 1080.43 311.748 1073.03 311.748C1065.63 311.748 1059.08 310.554 1053.37 308.165C1047.66 305.776 1042.88 302.425 1039.03 298.113C1035.19 293.743 1032.27 288.645 1030.29 282.818C1028.31 276.933 1027.32 270.552 1027.32 263.677ZM1056.78 261.841V263.677C1056.78 267.231 1057.04 270.552 1057.56 273.641C1058.09 276.729 1058.96 279.438 1060.19 281.769C1061.41 284.042 1063.07 285.819 1065.17 287.101C1067.26 288.382 1069.89 289.023 1073.03 289.023C1076.12 289.023 1078.69 288.382 1080.72 287.101C1082.82 285.819 1084.48 284.042 1085.71 281.769C1086.93 279.438 1087.8 276.729 1088.33 273.641C1088.85 270.552 1089.12 267.231 1089.12 263.677V261.841C1089.12 258.403 1088.85 255.17 1088.33 252.14C1087.8 249.051 1086.93 246.342 1085.71 244.011C1084.48 241.622 1082.82 239.758 1080.72 238.417C1078.63 237.077 1076 236.407 1072.86 236.407C1069.77 236.407 1067.18 237.077 1065.08 238.417C1063.04 239.758 1061.41 241.622 1060.19 244.011C1058.96 246.342 1058.09 249.051 1057.56 252.14C1057.04 255.17 1056.78 258.403 1056.78 261.841ZM1160.61 235.621V310H1131.16V215.431H1158.77L1160.61 235.621ZM1157.11 259.481L1150.21 259.656C1150.21 252.431 1151.08 245.992 1152.83 240.34C1154.58 234.63 1157.06 229.794 1160.26 225.832C1163.47 221.869 1167.28 218.868 1171.71 216.829C1176.2 214.731 1181.18 213.683 1186.66 213.683C1191.03 213.683 1195.02 214.324 1198.63 215.605C1202.3 216.887 1205.45 218.956 1208.07 221.811C1210.75 224.666 1212.79 228.454 1214.19 233.173C1215.64 237.835 1216.37 243.603 1216.37 250.479V310H1186.74V250.392C1186.74 246.604 1186.22 243.72 1185.17 241.739C1184.12 239.699 1182.61 238.301 1180.63 237.543C1178.64 236.786 1176.23 236.407 1173.37 236.407C1170.34 236.407 1167.78 236.99 1165.68 238.155C1163.58 239.321 1161.89 240.952 1160.61 243.05C1159.39 245.089 1158.48 247.507 1157.9 250.304C1157.38 253.101 1157.11 256.16 1157.11 259.481ZM1261.65 235.621V310H1232.19V215.431H1259.81L1261.65 235.621ZM1258.15 259.481L1251.25 259.656C1251.25 252.431 1252.12 245.992 1253.87 240.34C1255.62 234.63 1258.09 229.794 1261.3 225.832C1264.5 221.869 1268.32 218.868 1272.75 216.829C1277.23 214.731 1282.22 213.683 1287.69 213.683C1292.06 213.683 1296.05 214.324 1299.67 215.605C1303.34 216.887 1306.48 218.956 1309.11 221.811C1311.79 224.666 1313.83 228.454 1315.23 233.173C1316.68 237.835 1317.41 243.603 1317.41 250.479V310H1287.78V250.392C1287.78 246.604 1287.26 243.72 1286.21 241.739C1285.16 239.699 1283.64 238.301 1281.66 237.543C1279.68 236.786 1277.26 236.407 1274.41 236.407C1271.38 236.407 1268.81 236.99 1266.72 238.155C1264.62 239.321 1262.93 240.952 1261.65 243.05C1260.42 245.089 1259.52 247.507 1258.94 250.304C1258.41 253.101 1258.15 256.16 1258.15 259.481ZM1382.87 286.227V247.245C1382.87 244.565 1382.5 242.263 1381.74 240.34C1380.98 238.417 1379.79 236.932 1378.15 235.883C1376.52 234.776 1374.34 234.222 1371.6 234.222C1369.39 234.222 1367.49 234.601 1365.92 235.358C1364.35 236.116 1363.15 237.252 1362.33 238.767C1361.52 240.282 1361.11 242.205 1361.11 244.536H1331.66C1331.66 240.166 1332.62 236.116 1334.54 232.387C1336.52 228.599 1339.32 225.307 1342.93 222.51C1346.6 219.713 1350.97 217.557 1356.04 216.042C1361.17 214.469 1366.88 213.683 1373.17 213.683C1380.69 213.683 1387.39 214.935 1393.28 217.441C1399.22 219.946 1403.91 223.705 1407.35 228.716C1410.78 233.669 1412.5 239.903 1412.5 247.42V286.139C1412.5 292.316 1412.85 297.006 1413.55 300.211C1414.25 303.357 1415.24 306.125 1416.52 308.514V310H1386.98C1385.58 307.087 1384.54 303.532 1383.84 299.337C1383.19 295.083 1382.87 290.713 1382.87 286.227ZM1386.46 252.227L1386.63 267.959H1373.61C1370.87 267.959 1368.54 268.338 1366.62 269.096C1364.75 269.853 1363.24 270.902 1362.07 272.242C1360.97 273.524 1360.15 274.981 1359.63 276.612C1359.16 278.244 1358.93 279.963 1358.93 281.769C1358.93 283.517 1359.33 285.09 1360.15 286.489C1361.02 287.829 1362.19 288.878 1363.65 289.635C1365.1 290.393 1366.73 290.771 1368.54 290.771C1371.8 290.771 1374.57 290.16 1376.84 288.936C1379.17 287.654 1380.95 286.11 1382.18 284.304C1383.4 282.497 1384.01 280.808 1384.01 279.234L1390.48 291.296C1389.31 293.627 1387.97 295.986 1386.46 298.375C1385 300.764 1383.17 302.979 1380.95 305.018C1378.8 306.999 1376.14 308.631 1373 309.913C1369.85 311.136 1366.03 311.748 1361.55 311.748C1355.72 311.748 1350.36 310.554 1345.47 308.165C1340.63 305.776 1336.76 302.454 1333.84 298.201C1330.93 293.889 1329.47 288.936 1329.47 283.342C1329.47 278.448 1330.35 274.078 1332.09 270.232C1333.9 266.386 1336.61 263.123 1340.22 260.443C1343.83 257.763 1348.44 255.723 1354.03 254.325C1359.63 252.926 1366.21 252.227 1373.78 252.227H1386.46ZM1459.96 175.75V310H1430.42V175.75H1459.96ZM1509.26 215.431V310H1479.72V215.431H1509.26ZM1477.97 191.045C1477.97 186.85 1479.48 183.412 1482.51 180.732C1485.54 178.052 1489.48 176.711 1494.31 176.711C1499.15 176.711 1503.08 178.052 1506.11 180.732C1509.14 183.412 1510.66 186.85 1510.66 191.045C1510.66 195.241 1509.14 198.679 1506.11 201.359C1503.08 204.039 1499.15 205.379 1494.31 205.379C1489.48 205.379 1485.54 204.039 1482.51 201.359C1479.48 198.679 1477.97 195.241 1477.97 191.045ZM1577.26 215.431V235.883H1520.27V215.431H1577.26ZM1532.25 191.919H1561.7V279.147C1561.7 281.653 1561.99 283.604 1562.57 285.003C1563.16 286.343 1564.15 287.305 1565.55 287.887C1567 288.412 1568.92 288.674 1571.31 288.674C1573 288.674 1574.4 288.645 1575.51 288.586C1576.62 288.47 1577.67 288.324 1578.66 288.149V309.213C1576.15 310.029 1573.53 310.641 1570.79 311.049C1568.05 311.515 1565.14 311.748 1562.05 311.748C1555.76 311.748 1550.37 310.757 1545.88 308.776C1541.45 306.795 1538.07 303.678 1535.74 299.424C1533.41 295.171 1532.25 289.635 1532.25 282.818V191.919ZM1634.77 311.748C1627.08 311.748 1620.2 310.554 1614.14 308.165C1608.08 305.717 1602.95 302.367 1598.76 298.113C1594.62 293.86 1591.45 288.965 1589.23 283.43C1587.08 277.894 1586 272.038 1586 265.862V262.541C1586 255.607 1586.96 249.197 1588.88 243.312C1590.8 237.369 1593.66 232.183 1597.45 227.754C1601.23 223.326 1605.98 219.888 1611.69 217.441C1617.4 214.935 1624.05 213.683 1631.62 213.683C1638.32 213.683 1644.32 214.761 1649.63 216.917C1654.93 219.072 1659.42 222.161 1663.09 226.181C1666.82 230.202 1669.64 235.067 1671.56 240.777C1673.55 246.488 1674.54 252.897 1674.54 260.006V271.98H1597.27V253.538H1645.78V251.266C1645.84 248.119 1645.29 245.439 1644.12 243.225C1643.01 241.01 1641.38 239.321 1639.23 238.155C1637.07 236.99 1634.45 236.407 1631.36 236.407C1628.15 236.407 1625.5 237.106 1623.41 238.505C1621.37 239.903 1619.76 241.826 1618.6 244.273C1617.49 246.662 1616.7 249.43 1616.24 252.577C1615.77 255.723 1615.54 259.044 1615.54 262.541V265.862C1615.54 269.358 1616.01 272.534 1616.94 275.389C1617.93 278.244 1619.33 280.691 1621.13 282.73C1623 284.712 1625.21 286.256 1627.78 287.363C1630.4 288.47 1633.37 289.023 1636.69 289.023C1640.71 289.023 1644.67 288.266 1648.58 286.751C1652.48 285.236 1655.83 282.73 1658.63 279.234L1672 295.142C1670.08 297.88 1667.34 300.531 1663.79 303.095C1660.29 305.659 1656.09 307.757 1651.2 309.388C1646.31 310.961 1640.83 311.748 1634.77 311.748ZM1613.88 203.107L1631.18 175.663H1662.3L1637.91 203.107H1613.88ZM1736.07 283.43C1736.07 281.798 1735.51 280.4 1734.41 279.234C1733.36 278.011 1731.49 276.904 1728.81 275.913C1726.13 274.864 1722.37 273.815 1717.54 272.767C1712.93 271.776 1708.59 270.465 1704.52 268.833C1700.49 267.202 1696.97 265.221 1693.94 262.89C1690.91 260.559 1688.52 257.792 1686.77 254.587C1685.08 251.382 1684.24 247.711 1684.24 243.574C1684.24 239.554 1685.08 235.766 1686.77 232.212C1688.52 228.599 1691.06 225.424 1694.38 222.685C1697.76 219.888 1701.86 217.703 1706.7 216.13C1711.54 214.498 1717.04 213.683 1723.22 213.683C1731.73 213.683 1739.07 214.994 1745.24 217.616C1751.42 220.18 1756.17 223.792 1759.49 228.454C1762.87 233.057 1764.56 238.388 1764.56 244.448H1735.11C1735.11 242.059 1734.7 240.02 1733.88 238.33C1733.12 236.64 1731.87 235.358 1730.12 234.484C1728.38 233.552 1726.05 233.086 1723.13 233.086C1721.09 233.086 1719.23 233.465 1717.54 234.222C1715.91 234.98 1714.6 236.028 1713.6 237.369C1712.61 238.709 1712.12 240.282 1712.12 242.088C1712.12 243.37 1712.41 244.536 1712.99 245.584C1713.63 246.575 1714.6 247.507 1715.88 248.381C1717.16 249.197 1718.79 249.955 1720.77 250.654C1722.75 251.295 1725.14 251.877 1727.94 252.402C1734.29 253.567 1740.23 255.228 1745.77 257.384C1751.3 259.54 1755.79 262.599 1759.23 266.561C1762.73 270.523 1764.47 275.855 1764.47 282.556C1764.47 286.751 1763.51 290.626 1761.59 294.18C1759.67 297.676 1756.9 300.764 1753.29 303.445C1749.67 306.067 1745.33 308.106 1740.26 309.563C1735.19 311.02 1729.48 311.748 1723.13 311.748C1714.1 311.748 1706.47 310.146 1700.23 306.941C1694 303.678 1689.28 299.599 1686.07 294.705C1682.93 289.752 1681.35 284.741 1681.35 279.671H1708.8C1708.91 282.585 1709.61 284.974 1710.9 286.838C1712.24 288.703 1714.01 290.072 1716.23 290.946C1718.44 291.82 1721.01 292.257 1723.92 292.257C1726.6 292.257 1728.81 291.879 1730.56 291.121C1732.37 290.364 1733.74 289.344 1734.67 288.062C1735.6 286.722 1736.07 285.178 1736.07 283.43Z"/><path fill="url(#paint4_linear_240_113)" d="M561.38 182.742V310H530.702V182.742H561.38ZM610.85 235.708V259.307H552.64V235.708H610.85ZM615.832 182.742V206.428H552.64V182.742H615.832ZM621.6 263.677V261.841C621.6 254.907 622.591 248.527 624.572 242.7C626.553 236.815 629.466 231.717 633.312 227.405C637.158 223.093 641.907 219.743 647.559 217.354C653.211 214.906 659.737 213.683 667.137 213.683C674.595 213.683 681.15 214.906 686.802 217.354C692.513 219.743 697.291 223.093 701.136 227.405C704.982 231.717 707.895 236.815 709.876 242.7C711.858 248.527 712.848 254.907 712.848 261.841V263.677C712.848 270.552 711.858 276.933 709.876 282.818C707.895 288.645 704.982 293.743 701.136 298.113C697.291 302.425 692.542 305.776 686.89 308.165C681.238 310.554 674.712 311.748 667.312 311.748C659.911 311.748 653.356 310.554 647.646 308.165C641.936 305.776 637.158 302.425 633.312 298.113C629.466 293.743 626.553 288.645 624.572 282.818C622.591 276.933 621.6 270.552 621.6 263.677ZM651.055 261.841V263.677C651.055 267.231 651.317 270.552 651.841 273.641C652.366 276.729 653.24 279.438 654.463 281.769C655.687 284.042 657.348 285.819 659.445 287.101C661.543 288.382 664.165 289.023 667.312 289.023C670.4 289.023 672.964 288.382 675.003 287.101C677.101 285.819 678.761 284.042 679.985 281.769C681.208 279.438 682.083 276.729 682.607 273.641C683.131 270.552 683.394 267.231 683.394 263.677V261.841C683.394 258.403 683.131 255.17 682.607 252.14C682.083 249.051 681.208 246.342 679.985 244.011C678.761 241.622 677.101 239.758 675.003 238.417C672.905 237.077 670.283 236.407 667.137 236.407C664.049 236.407 661.456 237.077 659.358 238.417C657.319 239.758 655.687 241.622 654.463 244.011C653.24 246.342 652.366 249.051 651.841 252.14C651.317 255.17 651.055 258.403 651.055 261.841ZM754.889 235.621V310H725.434V215.431H753.053L754.889 235.621ZM751.393 259.481L744.488 259.656C744.488 252.431 745.362 245.992 747.11 240.34C748.858 234.63 751.334 229.794 754.539 225.832C757.744 221.869 761.56 218.868 765.989 216.829C770.475 214.731 775.457 213.683 780.935 213.683C785.305 213.683 789.296 214.324 792.909 215.605C796.58 216.887 799.726 218.956 802.348 221.811C805.028 224.666 807.068 228.454 808.466 233.173C809.923 237.835 810.651 243.603 810.651 250.479V310H781.022V250.392C781.022 246.604 780.498 243.72 779.449 241.739C778.4 239.699 776.885 238.301 774.904 237.543C772.923 236.786 770.505 236.407 767.649 236.407C764.619 236.407 762.056 236.99 759.958 238.155C757.86 239.321 756.171 240.952 754.889 243.05C753.665 245.089 752.762 247.507 752.179 250.304C751.655 253.101 751.393 256.16 751.393 259.481ZM866.938 289.023C869.677 289.023 872.008 288.528 873.931 287.538C875.912 286.489 877.398 285.032 878.388 283.167C879.437 281.245 879.932 278.943 879.874 276.263H907.581C907.639 283.371 905.891 289.606 902.336 294.967C898.84 300.269 894.062 304.406 888.002 307.378C882.001 310.291 875.213 311.748 867.638 311.748C860.238 311.748 853.77 310.554 848.234 308.165C842.699 305.717 838.067 302.338 834.337 298.026C830.667 293.656 827.899 288.557 826.034 282.73C824.228 276.904 823.325 270.582 823.325 263.764V261.754C823.325 254.937 824.228 248.614 826.034 242.788C827.899 236.903 830.667 231.804 834.337 227.492C838.067 223.122 842.67 219.743 848.147 217.354C853.682 214.906 860.121 213.683 867.463 213.683C875.329 213.683 882.263 215.168 888.265 218.14C894.325 221.112 899.073 225.424 902.511 231.076C905.949 236.728 907.639 243.574 907.581 251.615H879.874C879.932 248.76 879.495 246.196 878.563 243.924C877.631 241.651 876.174 239.845 874.193 238.505C872.27 237.106 869.794 236.407 866.764 236.407C863.734 236.407 861.286 237.077 859.422 238.417C857.557 239.758 856.13 241.622 855.139 244.011C854.207 246.342 853.566 249.022 853.216 252.052C852.925 255.082 852.779 258.316 852.779 261.754V263.764C852.779 267.26 852.925 270.552 853.216 273.641C853.566 276.671 854.236 279.351 855.227 281.682C856.217 283.954 857.645 285.76 859.509 287.101C861.374 288.382 863.85 289.023 866.938 289.023ZM969.986 215.431V235.883H913V215.431H969.986ZM924.974 191.919H954.428V279.147C954.428 281.653 954.72 283.604 955.302 285.003C955.885 286.343 956.875 287.305 958.274 287.887C959.731 288.412 961.653 288.674 964.042 288.674C965.732 288.674 967.131 288.645 968.238 288.586C969.345 288.47 970.394 288.324 971.384 288.149V309.213C968.879 310.029 966.257 310.641 963.518 311.049C960.779 311.515 957.866 311.748 954.778 311.748C948.485 311.748 943.095 310.757 938.608 308.776C934.18 306.795 930.8 303.678 928.47 299.424C926.139 295.171 924.974 289.635 924.974 282.818V191.919ZM1012.81 215.431V310H983.271V215.431H1012.81ZM981.523 191.045C981.523 186.85 983.038 183.412 986.068 180.732C989.098 178.052 993.031 176.711 997.867 176.711C1002.7 176.711 1006.64 178.052 1009.67 180.732C1012.7 183.412 1014.21 186.85 1014.21 191.045C1014.21 195.241 1012.7 198.679 1009.67 201.359C1006.64 204.039 1002.7 205.379 997.867 205.379C993.031 205.379 989.098 204.039 986.068 201.359C983.038 198.679 981.523 195.241 981.523 191.045ZM1027.32 263.677V261.841C1027.32 254.907 1028.31 248.527 1030.29 242.7C1032.27 236.815 1035.19 231.717 1039.03 227.405C1042.88 223.093 1047.63 219.743 1053.28 217.354C1058.93 214.906 1065.46 213.683 1072.86 213.683C1080.32 213.683 1086.87 214.906 1092.52 217.354C1098.23 219.743 1103.01 223.093 1106.86 227.405C1110.7 231.717 1113.62 236.815 1115.6 242.7C1117.58 248.527 1118.57 254.907 1118.57 261.841V263.677C1118.57 270.552 1117.58 276.933 1115.6 282.818C1113.62 288.645 1110.7 293.743 1106.86 298.113C1103.01 302.425 1098.26 305.776 1092.61 308.165C1086.96 310.554 1080.43 311.748 1073.03 311.748C1065.63 311.748 1059.08 310.554 1053.37 308.165C1047.66 305.776 1042.88 302.425 1039.03 298.113C1035.19 293.743 1032.27 288.645 1030.29 282.818C1028.31 276.933 1027.32 270.552 1027.32 263.677ZM1056.78 261.841V263.677C1056.78 267.231 1057.04 270.552 1057.56 273.641C1058.09 276.729 1058.96 279.438 1060.19 281.769C1061.41 284.042 1063.07 285.819 1065.17 287.101C1067.26 288.382 1069.89 289.023 1073.03 289.023C1076.12 289.023 1078.69 288.382 1080.72 287.101C1082.82 285.819 1084.48 284.042 1085.71 281.769C1086.93 279.438 1087.8 276.729 1088.33 273.641C1088.85 270.552 1089.12 267.231 1089.12 263.677V261.841C1089.12 258.403 1088.85 255.17 1088.33 252.14C1087.8 249.051 1086.93 246.342 1085.71 244.011C1084.48 241.622 1082.82 239.758 1080.72 238.417C1078.63 237.077 1076 236.407 1072.86 236.407C1069.77 236.407 1067.18 237.077 1065.08 238.417C1063.04 239.758 1061.41 241.622 1060.19 244.011C1058.96 246.342 1058.09 249.051 1057.56 252.14C1057.04 255.17 1056.78 258.403 1056.78 261.841ZM1160.61 235.621V310H1131.16V215.431H1158.77L1160.61 235.621ZM1157.11 259.481L1150.21 259.656C1150.21 252.431 1151.08 245.992 1152.83 240.34C1154.58 234.63 1157.06 229.794 1160.26 225.832C1163.47 221.869 1167.28 218.868 1171.71 216.829C1176.2 214.731 1181.18 213.683 1186.66 213.683C1191.03 213.683 1195.02 214.324 1198.63 215.605C1202.3 216.887 1205.45 218.956 1208.07 221.811C1210.75 224.666 1212.79 228.454 1214.19 233.173C1215.64 237.835 1216.37 243.603 1216.37 250.479V310H1186.74V250.392C1186.74 246.604 1186.22 243.72 1185.17 241.739C1184.12 239.699 1182.61 238.301 1180.63 237.543C1178.64 236.786 1176.23 236.407 1173.37 236.407C1170.34 236.407 1167.78 236.99 1165.68 238.155C1163.58 239.321 1161.89 240.952 1160.61 243.05C1159.39 245.089 1158.48 247.507 1157.9 250.304C1157.38 253.101 1157.11 256.16 1157.11 259.481ZM1261.65 235.621V310H1232.19V215.431H1259.81L1261.65 235.621ZM1258.15 259.481L1251.25 259.656C1251.25 252.431 1252.12 245.992 1253.87 240.34C1255.62 234.63 1258.09 229.794 1261.3 225.832C1264.5 221.869 1268.32 218.868 1272.75 216.829C1277.23 214.731 1282.22 213.683 1287.69 213.683C1292.06 213.683 1296.05 214.324 1299.67 215.605C1303.34 216.887 1306.48 218.956 1309.11 221.811C1311.79 224.666 1313.83 228.454 1315.23 233.173C1316.68 237.835 1317.41 243.603 1317.41 250.479V310H1287.78V250.392C1287.78 246.604 1287.26 243.72 1286.21 241.739C1285.16 239.699 1283.64 238.301 1281.66 237.543C1279.68 236.786 1277.26 236.407 1274.41 236.407C1271.38 236.407 1268.81 236.99 1266.72 238.155C1264.62 239.321 1262.93 240.952 1261.65 243.05C1260.42 245.089 1259.52 247.507 1258.94 250.304C1258.41 253.101 1258.15 256.16 1258.15 259.481ZM1382.87 286.227V247.245C1382.87 244.565 1382.5 242.263 1381.74 240.34C1380.98 238.417 1379.79 236.932 1378.15 235.883C1376.52 234.776 1374.34 234.222 1371.6 234.222C1369.39 234.222 1367.49 234.601 1365.92 235.358C1364.35 236.116 1363.15 237.252 1362.33 238.767C1361.52 240.282 1361.11 242.205 1361.11 244.536H1331.66C1331.66 240.166 1332.62 236.116 1334.54 232.387C1336.52 228.599 1339.32 225.307 1342.93 222.51C1346.6 219.713 1350.97 217.557 1356.04 216.042C1361.17 214.469 1366.88 213.683 1373.17 213.683C1380.69 213.683 1387.39 214.935 1393.28 217.441C1399.22 219.946 1403.91 223.705 1407.35 228.716C1410.78 233.669 1412.5 239.903 1412.5 247.42V286.139C1412.5 292.316 1412.85 297.006 1413.55 300.211C1414.25 303.357 1415.24 306.125 1416.52 308.514V310H1386.98C1385.58 307.087 1384.54 303.532 1383.84 299.337C1383.19 295.083 1382.87 290.713 1382.87 286.227ZM1386.46 252.227L1386.63 267.959H1373.61C1370.87 267.959 1368.54 268.338 1366.62 269.096C1364.75 269.853 1363.24 270.902 1362.07 272.242C1360.97 273.524 1360.15 274.981 1359.63 276.612C1359.16 278.244 1358.93 279.963 1358.93 281.769C1358.93 283.517 1359.33 285.09 1360.15 286.489C1361.02 287.829 1362.19 288.878 1363.65 289.635C1365.1 290.393 1366.73 290.771 1368.54 290.771C1371.8 290.771 1374.57 290.16 1376.84 288.936C1379.17 287.654 1380.95 286.11 1382.18 284.304C1383.4 282.497 1384.01 280.808 1384.01 279.234L1390.48 291.296C1389.31 293.627 1387.97 295.986 1386.46 298.375C1385 300.764 1383.17 302.979 1380.95 305.018C1378.8 306.999 1376.14 308.631 1373 309.913C1369.85 311.136 1366.03 311.748 1361.55 311.748C1355.72 311.748 1350.36 310.554 1345.47 308.165C1340.63 305.776 1336.76 302.454 1333.84 298.201C1330.93 293.889 1329.47 288.936 1329.47 283.342C1329.47 278.448 1330.35 274.078 1332.09 270.232C1333.9 266.386 1336.61 263.123 1340.22 260.443C1343.83 257.763 1348.44 255.723 1354.03 254.325C1359.63 252.926 1366.21 252.227 1373.78 252.227H1386.46ZM1459.96 175.75V310H1430.42V175.75H1459.96ZM1509.26 215.431V310H1479.72V215.431H1509.26ZM1477.97 191.045C1477.97 186.85 1479.48 183.412 1482.51 180.732C1485.54 178.052 1489.48 176.711 1494.31 176.711C1499.15 176.711 1503.08 178.052 1506.11 180.732C1509.14 183.412 1510.66 186.85 1510.66 191.045C1510.66 195.241 1509.14 198.679 1506.11 201.359C1503.08 204.039 1499.15 205.379 1494.31 205.379C1489.48 205.379 1485.54 204.039 1482.51 201.359C1479.48 198.679 1477.97 195.241 1477.97 191.045ZM1577.26 215.431V235.883H1520.27V215.431H1577.26ZM1532.25 191.919H1561.7V279.147C1561.7 281.653 1561.99 283.604 1562.57 285.003C1563.16 286.343 1564.15 287.305 1565.55 287.887C1567 288.412 1568.92 288.674 1571.31 288.674C1573 288.674 1574.4 288.645 1575.51 288.586C1576.62 288.47 1577.67 288.324 1578.66 288.149V309.213C1576.15 310.029 1573.53 310.641 1570.79 311.049C1568.05 311.515 1565.14 311.748 1562.05 311.748C1555.76 311.748 1550.37 310.757 1545.88 308.776C1541.45 306.795 1538.07 303.678 1535.74 299.424C1533.41 295.171 1532.25 289.635 1532.25 282.818V191.919ZM1634.77 311.748C1627.08 311.748 1620.2 310.554 1614.14 308.165C1608.08 305.717 1602.95 302.367 1598.76 298.113C1594.62 293.86 1591.45 288.965 1589.23 283.43C1587.08 277.894 1586 272.038 1586 265.862V262.541C1586 255.607 1586.96 249.197 1588.88 243.312C1590.8 237.369 1593.66 232.183 1597.45 227.754C1601.23 223.326 1605.98 219.888 1611.69 217.441C1617.4 214.935 1624.05 213.683 1631.62 213.683C1638.32 213.683 1644.32 214.761 1649.63 216.917C1654.93 219.072 1659.42 222.161 1663.09 226.181C1666.82 230.202 1669.64 235.067 1671.56 240.777C1673.55 246.488 1674.54 252.897 1674.54 260.006V271.98H1597.27V253.538H1645.78V251.266C1645.84 248.119 1645.29 245.439 1644.12 243.225C1643.01 241.01 1641.38 239.321 1639.23 238.155C1637.07 236.99 1634.45 236.407 1631.36 236.407C1628.15 236.407 1625.5 237.106 1623.41 238.505C1621.37 239.903 1619.76 241.826 1618.6 244.273C1617.49 246.662 1616.7 249.43 1616.24 252.577C1615.77 255.723 1615.54 259.044 1615.54 262.541V265.862C1615.54 269.358 1616.01 272.534 1616.94 275.389C1617.93 278.244 1619.33 280.691 1621.13 282.73C1623 284.712 1625.21 286.256 1627.78 287.363C1630.4 288.47 1633.37 289.023 1636.69 289.023C1640.71 289.023 1644.67 288.266 1648.58 286.751C1652.48 285.236 1655.83 282.73 1658.63 279.234L1672 295.142C1670.08 297.88 1667.34 300.531 1663.79 303.095C1660.29 305.659 1656.09 307.757 1651.2 309.388C1646.31 310.961 1640.83 311.748 1634.77 311.748ZM1613.88 203.107L1631.18 175.663H1662.3L1637.91 203.107H1613.88ZM1736.07 283.43C1736.07 281.798 1735.51 280.4 1734.41 279.234C1733.36 278.011 1731.49 276.904 1728.81 275.913C1726.13 274.864 1722.37 273.815 1717.54 272.767C1712.93 271.776 1708.59 270.465 1704.52 268.833C1700.49 267.202 1696.97 265.221 1693.94 262.89C1690.91 260.559 1688.52 257.792 1686.77 254.587C1685.08 251.382 1684.24 247.711 1684.24 243.574C1684.24 239.554 1685.08 235.766 1686.77 232.212C1688.52 228.599 1691.06 225.424 1694.38 222.685C1697.76 219.888 1701.86 217.703 1706.7 216.13C1711.54 214.498 1717.04 213.683 1723.22 213.683C1731.73 213.683 1739.07 214.994 1745.24 217.616C1751.42 220.18 1756.17 223.792 1759.49 228.454C1762.87 233.057 1764.56 238.388 1764.56 244.448H1735.11C1735.11 242.059 1734.7 240.02 1733.88 238.33C1733.12 236.64 1731.87 235.358 1730.12 234.484C1728.38 233.552 1726.05 233.086 1723.13 233.086C1721.09 233.086 1719.23 233.465 1717.54 234.222C1715.91 234.98 1714.6 236.028 1713.6 237.369C1712.61 238.709 1712.12 240.282 1712.12 242.088C1712.12 243.37 1712.41 244.536 1712.99 245.584C1713.63 246.575 1714.6 247.507 1715.88 248.381C1717.16 249.197 1718.79 249.955 1720.77 250.654C1722.75 251.295 1725.14 251.877 1727.94 252.402C1734.29 253.567 1740.23 255.228 1745.77 257.384C1751.3 259.54 1755.79 262.599 1759.23 266.561C1762.73 270.523 1764.47 275.855 1764.47 282.556C1764.47 286.751 1763.51 290.626 1761.59 294.18C1759.67 297.676 1756.9 300.764 1753.29 303.445C1749.67 306.067 1745.33 308.106 1740.26 309.563C1735.19 311.02 1729.48 311.748 1723.13 311.748C1714.1 311.748 1706.47 310.146 1700.23 306.941C1694 303.678 1689.28 299.599 1686.07 294.705C1682.93 289.752 1681.35 284.741 1681.35 279.671H1708.8C1708.91 282.585 1709.61 284.974 1710.9 286.838C1712.24 288.703 1714.01 290.072 1716.23 290.946C1718.44 291.82 1721.01 292.257 1723.92 292.257C1726.6 292.257 1728.81 291.879 1730.56 291.121C1732.37 290.364 1733.74 289.344 1734.67 288.062C1735.6 286.722 1736.07 285.178 1736.07 283.43Z"/><defs><linearGradient id="paint0_linear_240_113" x1="0" x2="88.064" y1=".777" y2="9.505" gradientUnits="userSpaceOnUse"><stop stop-color="#00E1C3"/><stop offset="1" stop-color="#00D1D5"/></linearGradient><linearGradient id="paint1_linear_240_113" x1="189" x2="436.787" y1="104.929" y2="353.473" gradientUnits="userSpaceOnUse"><stop stop-color="#00E1C3"/><stop offset="1" stop-color="#00D1D5"/></linearGradient><linearGradient id="paint2_linear_240_113" x1="189" x2="436.787" y1="104.929" y2="353.473" gradientUnits="userSpaceOnUse"><stop stop-color="#00E1C3"/><stop offset="1" stop-color="#00D1D5"/></linearGradient><linearGradient id="paint3_linear_240_113" x1="189" x2="436.787" y1="104.929" y2="353.473" gradientUnits="userSpaceOnUse"><stop stop-color="#00E1C3"/><stop offset="1" stop-color="#00D1D5"/></linearGradient><linearGradient id="paint4_linear_240_113" x1="521" x2="581.881" y1="144.371" y2="563.81" gradientUnits="userSpaceOnUse"><stop stop-color="#00E1C3"/><stop offset="1" stop-color="#00D1D5"/></linearGradient></defs></svg>