<svg xmlns="http://www.w3.org/2000/svg" width="1611" height="440" fill="none" viewBox="0 0 1611 440"><path fill="#132636" d="M3 37C3 16.5655 19.5655 0 40 0H1561.08C1585.92 0 1603.71 23.9932 1596.48 47.7605L1485.54 412.76C1480.8 428.346 1466.43 439 1450.14 439H39.9999C19.5654 439 3 422.435 3 402V37Z"/><path fill="#132636" d="M0 37C0 16.5655 16.5655 0 37 0H39V440H37C16.5655 440 0 423.435 0 403V37Z"/><path fill="url(#paint0_linear_240_93)" d="M0 37C0 16.5655 16.5655 0 37 0H39V440H37C16.5655 440 0 423.435 0 403V37Z"/><g clip-path="url(#clip0_240_93)"><path fill="#01D8CE" d="M206.156 317.5C201.581 317.5 197.578 315.784 194.147 312.353C190.716 308.922 189 304.919 189 300.344V259.455H206.156V300.344H354.844V259.455H372V300.344C372 304.919 370.284 308.922 366.853 312.353C363.422 315.784 359.419 317.5 354.844 317.5H206.156ZM280.5 273.752L225.314 218.566L237.609 206.27L271.922 240.583V134.5H289.078V240.583L323.391 206.27L335.686 218.566L280.5 273.752Z"/></g><path fill="#fff" d="M507.011 147.114L516.627 111.789H529.101L513.517 158H505.456L507.011 147.114ZM498.283 111.789L507.899 147.114L509.518 158H501.361L485.873 111.789H498.283ZM551.159 149.653V123.659H561.886V158H551.857L551.159 149.653ZM552.174 142.67L554.967 142.607C554.967 144.913 554.692 147.05 554.142 149.018C553.592 150.965 552.777 152.657 551.698 154.096C550.64 155.535 549.328 156.656 547.763 157.46C546.218 158.243 544.43 158.635 542.399 158.635C540.706 158.635 539.151 158.402 537.733 157.937C536.337 157.45 535.131 156.699 534.115 155.683C533.1 154.646 532.306 153.324 531.735 151.716C531.185 150.087 530.91 148.14 530.91 145.876V123.659H541.605V145.939C541.605 146.701 541.701 147.357 541.891 147.907C542.082 148.457 542.357 148.923 542.716 149.304C543.076 149.663 543.52 149.938 544.049 150.129C544.599 150.298 545.224 150.383 545.922 150.383C547.53 150.383 548.789 150.044 549.699 149.367C550.609 148.69 551.243 147.77 551.603 146.606C551.984 145.442 552.174 144.13 552.174 142.67ZM584.42 158.635C581.627 158.635 579.131 158.201 576.93 157.333C574.73 156.445 572.868 155.228 571.344 153.684C569.842 152.139 568.689 150.362 567.885 148.352C567.102 146.341 566.71 144.215 566.71 141.972V140.766C566.71 138.248 567.06 135.921 567.758 133.784C568.456 131.625 569.493 129.742 570.868 128.134C572.243 126.526 573.968 125.278 576.042 124.389C578.115 123.479 580.527 123.024 583.278 123.024C585.711 123.024 587.89 123.416 589.816 124.199C591.741 124.982 593.371 126.103 594.704 127.563C596.058 129.023 597.084 130.79 597.782 132.863C598.502 134.937 598.861 137.264 598.861 139.846V144.194H570.805V137.497H588.419V136.672C588.441 135.529 588.24 134.556 587.816 133.752C587.414 132.948 586.822 132.334 586.039 131.911C585.256 131.488 584.304 131.276 583.183 131.276C582.019 131.276 581.056 131.53 580.294 132.038C579.554 132.546 578.972 133.244 578.549 134.133C578.147 135 577.861 136.005 577.692 137.148C577.523 138.291 577.438 139.497 577.438 140.766V141.972C577.438 143.242 577.607 144.395 577.946 145.432C578.306 146.468 578.813 147.357 579.469 148.098C580.146 148.817 580.95 149.378 581.881 149.78C582.833 150.182 583.913 150.383 585.119 150.383C586.579 150.383 588.017 150.108 589.435 149.558C590.853 149.007 592.069 148.098 593.085 146.828L597.941 152.604C597.243 153.599 596.248 154.562 594.958 155.493C593.688 156.424 592.165 157.185 590.387 157.778C588.61 158.349 586.621 158.635 584.42 158.635ZM626.093 111.789V158H614.953V111.789H626.093ZM639.994 111.789V120.39H601.369V111.789H639.994ZM662.179 149.653V123.659H672.907V158H662.877L662.179 149.653ZM663.195 142.67L665.988 142.607C665.988 144.913 665.713 147.05 665.163 149.018C664.612 150.965 663.798 152.657 662.719 154.096C661.661 155.535 660.349 156.656 658.783 157.46C657.239 158.243 655.451 158.635 653.419 158.635C651.727 158.635 650.172 158.402 648.754 157.937C647.357 157.45 646.151 156.699 645.136 155.683C644.12 154.646 643.327 153.324 642.755 151.716C642.205 150.087 641.93 148.14 641.93 145.876V123.659H652.626V145.939C652.626 146.701 652.721 147.357 652.912 147.907C653.102 148.457 653.377 148.923 653.737 149.304C654.097 149.663 654.541 149.938 655.07 150.129C655.62 150.298 656.244 150.383 656.942 150.383C658.55 150.383 659.809 150.044 660.719 149.367C661.629 148.69 662.264 147.77 662.624 146.606C663.004 145.442 663.195 144.13 663.195 142.67ZM678.905 109.25H689.601V149.558L688.49 158H678.905V109.25ZM710.675 140.449V141.115C710.675 143.718 710.411 146.088 709.882 148.225C709.353 150.362 708.538 152.213 707.438 153.779C706.338 155.323 704.952 156.519 703.28 157.365C701.609 158.212 699.63 158.635 697.345 158.635C695.272 158.635 693.494 158.19 692.013 157.302C690.532 156.392 689.294 155.144 688.3 153.557C687.305 151.949 686.501 150.097 685.888 148.002C685.274 145.887 684.787 143.623 684.428 141.21V140.417C684.787 138.026 685.274 135.783 685.888 133.688C686.501 131.573 687.305 129.721 688.3 128.134C689.294 126.526 690.521 125.278 691.981 124.389C693.463 123.479 695.229 123.024 697.282 123.024C699.588 123.024 701.577 123.458 703.249 124.326C704.941 125.193 706.338 126.41 707.438 127.976C708.538 129.541 709.353 131.382 709.882 133.498C710.411 135.614 710.675 137.931 710.675 140.449ZM699.979 141.115V140.449C699.979 139.2 699.905 138.026 699.757 136.926C699.609 135.826 699.345 134.852 698.964 134.006C698.583 133.16 698.043 132.493 697.345 132.006C696.647 131.52 695.737 131.276 694.616 131.276C693.473 131.276 692.51 131.467 691.728 131.848C690.966 132.229 690.352 132.779 689.887 133.498C689.442 134.196 689.125 135.064 688.935 136.101C688.744 137.116 688.66 138.269 688.681 139.56V142.067C688.638 143.824 688.797 145.326 689.157 146.574C689.516 147.823 690.141 148.775 691.029 149.431C691.918 150.087 693.135 150.415 694.679 150.415C695.822 150.415 696.742 150.192 697.44 149.748C698.16 149.304 698.699 148.669 699.059 147.844C699.419 147.019 699.662 146.035 699.789 144.892C699.916 143.75 699.979 142.491 699.979 141.115ZM732.067 158.635C729.274 158.635 726.777 158.201 724.577 157.333C722.376 156.445 720.514 155.228 718.991 153.684C717.488 152.139 716.335 150.362 715.531 148.352C714.748 146.341 714.357 144.215 714.357 141.972V140.766C714.357 138.248 714.706 135.921 715.404 133.784C716.103 131.625 717.139 129.742 718.515 128.134C719.89 126.526 721.614 125.278 723.688 124.389C725.762 123.479 728.174 123.024 730.924 123.024C733.358 123.024 735.537 123.416 737.462 124.199C739.388 124.982 741.017 126.103 742.35 127.563C743.704 129.023 744.73 130.79 745.429 132.863C746.148 134.937 746.508 137.264 746.508 139.846V144.194H718.451V137.497H736.066V136.672C736.087 135.529 735.886 134.556 735.463 133.752C735.061 132.948 734.468 132.334 733.686 131.911C732.903 131.488 731.951 131.276 730.829 131.276C729.665 131.276 728.703 131.53 727.941 132.038C727.2 132.546 726.618 133.244 726.195 134.133C725.793 135 725.508 136.005 725.338 137.148C725.169 138.291 725.084 139.497 725.084 140.766V141.972C725.084 143.242 725.254 144.395 725.592 145.432C725.952 146.468 726.46 147.357 727.116 148.098C727.793 148.817 728.597 149.378 729.528 149.78C730.48 150.182 731.559 150.383 732.765 150.383C734.225 150.383 735.664 150.108 737.082 149.558C738.499 149.007 739.716 148.098 740.731 146.828L745.587 152.604C744.889 153.599 743.895 154.562 742.604 155.493C741.334 156.424 739.811 157.185 738.034 157.778C736.256 158.349 734.267 158.635 732.067 158.635Z"/><path fill="#fff" d="M528.303 182.742V310H497.712V182.742H528.303ZM577.423 235.621V310H547.968V215.431H575.587L577.423 235.621ZM573.927 259.481L567.022 259.656C567.022 252.431 567.896 245.992 569.644 240.34C571.392 234.63 573.868 229.794 577.073 225.832C580.278 221.869 584.095 218.868 588.523 216.829C593.01 214.731 597.992 213.683 603.469 213.683C607.839 213.683 611.83 214.324 615.443 215.605C619.114 216.887 622.26 218.956 624.882 221.811C627.563 224.666 629.602 228.454 631 233.173C632.457 237.835 633.186 243.603 633.186 250.479V310H603.556V250.392C603.556 246.604 603.032 243.72 601.983 241.739C600.934 239.699 599.419 238.301 597.438 237.543C595.457 236.786 593.039 236.407 590.184 236.407C587.154 236.407 584.59 236.99 582.492 238.155C580.395 239.321 578.705 240.952 577.423 243.05C576.199 245.089 575.296 247.507 574.713 250.304C574.189 253.101 573.927 256.16 573.927 259.481ZM699.087 283.43C699.087 281.798 698.533 280.4 697.426 279.234C696.377 278.011 694.513 276.904 691.833 275.913C689.152 274.864 685.394 273.815 680.558 272.767C675.954 271.776 671.613 270.465 667.535 268.833C663.514 267.202 659.989 265.221 656.959 262.89C653.929 260.559 651.54 257.792 649.792 254.587C648.102 251.382 647.257 247.711 647.257 243.574C647.257 239.554 648.102 235.766 649.792 232.212C651.54 228.599 654.075 225.424 657.396 222.685C660.776 219.888 664.883 217.703 669.72 216.13C674.556 214.498 680.062 213.683 686.239 213.683C694.746 213.683 702.088 214.994 708.264 217.616C714.441 220.18 719.189 223.792 722.511 228.454C725.89 233.057 727.58 238.388 727.58 244.448H698.125C698.125 242.059 697.718 240.02 696.902 238.33C696.144 236.64 694.892 235.358 693.144 234.484C691.396 233.552 689.065 233.086 686.151 233.086C684.112 233.086 682.247 233.465 680.558 234.222C678.926 234.98 677.615 236.028 676.625 237.369C675.634 238.709 675.139 240.282 675.139 242.088C675.139 243.37 675.43 244.536 676.013 245.584C676.654 246.575 677.615 247.507 678.897 248.381C680.179 249.197 681.81 249.955 683.792 250.654C685.773 251.295 688.162 251.877 690.958 252.402C697.31 253.567 703.253 255.228 708.789 257.384C714.324 259.54 718.811 262.599 722.249 266.561C725.745 270.523 727.493 275.855 727.493 282.556C727.493 286.751 726.531 290.626 724.608 294.18C722.686 297.676 719.918 300.764 716.305 303.445C712.693 306.067 708.352 308.106 703.282 309.563C698.213 311.02 692.503 311.748 686.151 311.748C677.12 311.748 669.487 310.146 663.252 306.941C657.017 303.678 652.298 299.599 649.093 294.705C645.946 289.752 644.373 284.741 644.373 279.671H671.817C671.934 282.585 672.633 284.974 673.915 286.838C675.255 288.703 677.032 290.072 679.247 290.946C681.461 291.82 684.025 292.257 686.938 292.257C689.618 292.257 691.833 291.879 693.581 291.121C695.387 290.364 696.756 289.344 697.688 288.062C698.621 286.722 699.087 285.178 699.087 283.43ZM791.122 215.431V235.883H734.135V215.431H791.122ZM746.109 191.919H775.564V279.147C775.564 281.653 775.855 283.604 776.438 285.003C777.021 286.343 778.011 287.305 779.41 287.887C780.866 288.412 782.789 288.674 785.178 288.674C786.868 288.674 788.266 288.645 789.374 288.586C790.481 288.47 791.529 288.324 792.52 288.149V309.213C790.014 310.029 787.392 310.641 784.654 311.049C781.915 311.515 779.002 311.748 775.914 311.748C769.621 311.748 764.231 310.757 759.744 308.776C755.316 306.795 751.936 303.678 749.605 299.424C747.275 295.171 746.109 289.635 746.109 282.818V191.919ZM851.954 286.227V247.245C851.954 244.565 851.575 242.263 850.817 240.34C850.06 238.417 848.865 236.932 847.234 235.883C845.602 234.776 843.417 234.222 840.679 234.222C838.465 234.222 836.571 234.601 834.998 235.358C833.424 236.116 832.23 237.252 831.414 238.767C830.598 240.282 830.19 242.205 830.19 244.536H800.736C800.736 240.166 801.697 236.116 803.62 232.387C805.601 228.599 808.398 225.307 812.011 222.51C815.682 219.713 820.052 217.557 825.121 216.042C830.249 214.469 835.959 213.683 842.252 213.683C849.769 213.683 856.469 214.935 862.354 217.441C868.298 219.946 872.988 223.705 876.426 228.716C879.864 233.669 881.583 239.903 881.583 247.42V286.139C881.583 292.316 881.933 297.006 882.632 300.211C883.331 303.357 884.322 306.125 885.604 308.514V310H856.062C854.663 307.087 853.614 303.532 852.915 299.337C852.274 295.083 851.954 290.713 851.954 286.227ZM855.537 252.227L855.712 267.959H842.689C839.95 267.959 837.62 268.338 835.697 269.096C833.832 269.853 832.317 270.902 831.152 272.242C830.045 273.524 829.229 274.981 828.705 276.612C828.238 278.244 828.005 279.963 828.005 281.769C828.005 283.517 828.413 285.09 829.229 286.489C830.103 287.829 831.268 288.878 832.725 289.635C834.182 290.393 835.813 290.771 837.62 290.771C840.883 290.771 843.65 290.16 845.923 288.936C848.254 287.654 850.031 286.11 851.254 284.304C852.478 282.497 853.09 280.808 853.09 279.234L859.558 291.296C858.392 293.627 857.052 295.986 855.537 298.375C854.08 300.764 852.245 302.979 850.031 305.018C847.875 306.999 845.224 308.631 842.077 309.913C838.931 311.136 835.114 311.748 830.627 311.748C824.801 311.748 819.44 310.554 814.545 308.165C809.709 305.776 805.834 302.454 802.921 298.201C800.007 293.889 798.551 288.936 798.551 283.342C798.551 278.448 799.425 274.078 801.173 270.232C802.979 266.386 805.689 263.123 809.301 260.443C812.914 257.763 817.517 255.723 823.111 254.325C828.705 252.926 835.289 252.227 842.864 252.227H855.537ZM929.042 175.75V310H899.5V175.75H929.042ZM978.337 175.75V310H948.795V175.75H978.337ZM1045.64 286.227V247.245C1045.64 244.565 1045.26 242.263 1044.5 240.34C1043.74 238.417 1042.55 236.932 1040.92 235.883C1039.29 234.776 1037.1 234.222 1034.36 234.222C1032.15 234.222 1030.25 234.601 1028.68 235.358C1027.11 236.116 1025.91 237.252 1025.1 238.767C1024.28 240.282 1023.87 242.205 1023.87 244.536H994.419C994.419 240.166 995.381 236.116 997.304 232.387C999.285 228.599 1002.08 225.307 1005.69 222.51C1009.37 219.713 1013.74 217.557 1018.8 216.042C1023.93 214.469 1029.64 213.683 1035.94 213.683C1043.45 213.683 1050.15 214.935 1056.04 217.441C1061.98 219.946 1066.67 223.705 1070.11 228.716C1073.55 233.669 1075.27 239.903 1075.27 247.42V286.139C1075.27 292.316 1075.62 297.006 1076.32 300.211C1077.01 303.357 1078.01 306.125 1079.29 308.514V310H1049.75C1048.35 307.087 1047.3 303.532 1046.6 299.337C1045.96 295.083 1045.64 290.713 1045.64 286.227ZM1049.22 252.227L1049.4 267.959H1036.37C1033.63 267.959 1031.3 268.338 1029.38 269.096C1027.52 269.853 1026 270.902 1024.84 272.242C1023.73 273.524 1022.91 274.981 1022.39 276.612C1021.92 278.244 1021.69 279.963 1021.69 281.769C1021.69 283.517 1022.1 285.09 1022.91 286.489C1023.79 287.829 1024.95 288.878 1026.41 289.635C1027.87 290.393 1029.5 290.771 1031.3 290.771C1034.57 290.771 1037.33 290.16 1039.61 288.936C1041.94 287.654 1043.71 286.11 1044.94 284.304C1046.16 282.497 1046.77 280.808 1046.77 279.234L1053.24 291.296C1052.08 293.627 1050.74 295.986 1049.22 298.375C1047.76 300.764 1045.93 302.979 1043.71 305.018C1041.56 306.999 1038.91 308.631 1035.76 309.913C1032.61 311.136 1028.8 311.748 1024.31 311.748C1018.48 311.748 1013.12 310.554 1008.23 308.165C1003.39 305.776 999.518 302.454 996.604 298.201C993.691 293.889 992.234 288.936 992.234 283.342C992.234 278.448 993.108 274.078 994.856 270.232C996.663 266.386 999.372 263.123 1002.98 260.443C1006.6 257.763 1011.2 255.723 1016.79 254.325C1022.39 252.926 1028.97 252.227 1036.55 252.227H1049.22ZM1141.43 215.431V235.883H1084.44V215.431H1141.43ZM1096.42 191.919H1125.87V279.147C1125.87 281.653 1126.16 283.604 1126.75 285.003C1127.33 286.343 1128.32 287.305 1129.72 287.887C1131.17 288.412 1133.1 288.674 1135.49 288.674C1137.18 288.674 1138.58 288.645 1139.68 288.586C1140.79 288.47 1141.84 288.324 1142.83 288.149V309.213C1140.32 310.029 1137.7 310.641 1134.96 311.049C1132.22 311.515 1129.31 311.748 1126.22 311.748C1119.93 311.748 1114.54 310.757 1110.05 308.776C1105.62 306.795 1102.24 303.678 1099.91 299.424C1097.58 295.171 1096.42 289.635 1096.42 282.818V191.919ZM1184.26 215.431V310H1154.72V215.431H1184.26ZM1152.97 191.045C1152.97 186.85 1154.48 183.412 1157.51 180.732C1160.54 178.052 1164.48 176.711 1169.31 176.711C1174.15 176.711 1178.08 178.052 1181.11 180.732C1184.14 183.412 1185.66 186.85 1185.66 191.045C1185.66 195.241 1184.14 198.679 1181.11 201.359C1178.08 204.039 1174.15 205.379 1169.31 205.379C1164.48 205.379 1160.54 204.039 1157.51 201.359C1154.48 198.679 1152.97 195.241 1152.97 191.045ZM1198.77 263.677V261.841C1198.77 254.907 1199.76 248.527 1201.74 242.7C1203.72 236.815 1206.63 231.717 1210.48 227.405C1214.32 223.093 1219.07 219.743 1224.72 217.354C1230.38 214.906 1236.9 213.683 1244.3 213.683C1251.76 213.683 1258.32 214.906 1263.97 217.354C1269.68 219.743 1274.46 223.093 1278.3 227.405C1282.15 231.717 1285.06 236.815 1287.04 242.7C1289.02 248.527 1290.01 254.907 1290.01 261.841V263.677C1290.01 270.552 1289.02 276.933 1287.04 282.818C1285.06 288.645 1282.15 293.743 1278.3 298.113C1274.46 302.425 1269.71 305.776 1264.06 308.165C1258.4 310.554 1251.88 311.748 1244.48 311.748C1237.08 311.748 1230.52 310.554 1224.81 308.165C1219.1 305.776 1214.32 302.425 1210.48 298.113C1206.63 293.743 1203.72 288.645 1201.74 282.818C1199.76 276.933 1198.77 270.552 1198.77 263.677ZM1228.22 261.841V263.677C1228.22 267.231 1228.48 270.552 1229.01 273.641C1229.53 276.729 1230.41 279.438 1231.63 281.769C1232.85 284.042 1234.51 285.819 1236.61 287.101C1238.71 288.382 1241.33 289.023 1244.48 289.023C1247.57 289.023 1250.13 288.382 1252.17 287.101C1254.27 285.819 1255.93 284.042 1257.15 281.769C1258.37 279.438 1259.25 276.729 1259.77 273.641C1260.3 270.552 1260.56 267.231 1260.56 263.677V261.841C1260.56 258.403 1260.3 255.17 1259.77 252.14C1259.25 249.051 1258.37 246.342 1257.15 244.011C1255.93 241.622 1254.27 239.758 1252.17 238.417C1250.07 237.077 1247.45 236.407 1244.3 236.407C1241.21 236.407 1238.62 237.077 1236.52 238.417C1234.48 239.758 1232.85 241.622 1231.63 244.011C1230.41 246.342 1229.53 249.051 1229.01 252.14C1228.48 255.17 1228.22 258.403 1228.22 261.841ZM1332.05 235.621V310H1302.6V215.431H1330.22L1332.05 235.621ZM1328.56 259.481L1321.65 259.656C1321.65 252.431 1322.53 245.992 1324.28 240.34C1326.02 234.63 1328.5 229.794 1331.71 225.832C1334.91 221.869 1338.73 218.868 1343.15 216.829C1347.64 214.731 1352.62 213.683 1358.1 213.683C1362.47 213.683 1366.46 214.324 1370.07 215.605C1373.75 216.887 1376.89 218.956 1379.51 221.811C1382.19 224.666 1384.23 228.454 1385.63 233.173C1387.09 237.835 1387.82 243.603 1387.82 250.479V310H1358.19V250.392C1358.19 246.604 1357.66 243.72 1356.61 241.739C1355.57 239.699 1354.05 238.301 1352.07 237.543C1350.09 236.786 1347.67 236.407 1344.82 236.407C1341.79 236.407 1339.22 236.99 1337.12 238.155C1335.03 239.321 1333.34 240.952 1332.05 243.05C1330.83 245.089 1329.93 247.507 1329.35 250.304C1328.82 253.101 1328.56 256.16 1328.56 259.481Z"/><path fill="url(#paint1_linear_240_93)" d="M528.303 182.742V310H497.712V182.742H528.303ZM577.423 235.621V310H547.968V215.431H575.587L577.423 235.621ZM573.927 259.481L567.022 259.656C567.022 252.431 567.896 245.992 569.644 240.34C571.392 234.63 573.868 229.794 577.073 225.832C580.278 221.869 584.095 218.868 588.523 216.829C593.01 214.731 597.992 213.683 603.469 213.683C607.839 213.683 611.83 214.324 615.443 215.605C619.114 216.887 622.26 218.956 624.882 221.811C627.563 224.666 629.602 228.454 631 233.173C632.457 237.835 633.186 243.603 633.186 250.479V310H603.556V250.392C603.556 246.604 603.032 243.72 601.983 241.739C600.934 239.699 599.419 238.301 597.438 237.543C595.457 236.786 593.039 236.407 590.184 236.407C587.154 236.407 584.59 236.99 582.492 238.155C580.395 239.321 578.705 240.952 577.423 243.05C576.199 245.089 575.296 247.507 574.713 250.304C574.189 253.101 573.927 256.16 573.927 259.481ZM699.087 283.43C699.087 281.798 698.533 280.4 697.426 279.234C696.377 278.011 694.513 276.904 691.833 275.913C689.152 274.864 685.394 273.815 680.558 272.767C675.954 271.776 671.613 270.465 667.535 268.833C663.514 267.202 659.989 265.221 656.959 262.89C653.929 260.559 651.54 257.792 649.792 254.587C648.102 251.382 647.257 247.711 647.257 243.574C647.257 239.554 648.102 235.766 649.792 232.212C651.54 228.599 654.075 225.424 657.396 222.685C660.776 219.888 664.883 217.703 669.72 216.13C674.556 214.498 680.062 213.683 686.239 213.683C694.746 213.683 702.088 214.994 708.264 217.616C714.441 220.18 719.189 223.792 722.511 228.454C725.89 233.057 727.58 238.388 727.58 244.448H698.125C698.125 242.059 697.718 240.02 696.902 238.33C696.144 236.64 694.892 235.358 693.144 234.484C691.396 233.552 689.065 233.086 686.151 233.086C684.112 233.086 682.247 233.465 680.558 234.222C678.926 234.98 677.615 236.028 676.625 237.369C675.634 238.709 675.139 240.282 675.139 242.088C675.139 243.37 675.43 244.536 676.013 245.584C676.654 246.575 677.615 247.507 678.897 248.381C680.179 249.197 681.81 249.955 683.792 250.654C685.773 251.295 688.162 251.877 690.958 252.402C697.31 253.567 703.253 255.228 708.789 257.384C714.324 259.54 718.811 262.599 722.249 266.561C725.745 270.523 727.493 275.855 727.493 282.556C727.493 286.751 726.531 290.626 724.608 294.18C722.686 297.676 719.918 300.764 716.305 303.445C712.693 306.067 708.352 308.106 703.282 309.563C698.213 311.02 692.503 311.748 686.151 311.748C677.12 311.748 669.487 310.146 663.252 306.941C657.017 303.678 652.298 299.599 649.093 294.705C645.946 289.752 644.373 284.741 644.373 279.671H671.817C671.934 282.585 672.633 284.974 673.915 286.838C675.255 288.703 677.032 290.072 679.247 290.946C681.461 291.82 684.025 292.257 686.938 292.257C689.618 292.257 691.833 291.879 693.581 291.121C695.387 290.364 696.756 289.344 697.688 288.062C698.621 286.722 699.087 285.178 699.087 283.43ZM791.122 215.431V235.883H734.135V215.431H791.122ZM746.109 191.919H775.564V279.147C775.564 281.653 775.855 283.604 776.438 285.003C777.021 286.343 778.011 287.305 779.41 287.887C780.866 288.412 782.789 288.674 785.178 288.674C786.868 288.674 788.266 288.645 789.374 288.586C790.481 288.47 791.529 288.324 792.52 288.149V309.213C790.014 310.029 787.392 310.641 784.654 311.049C781.915 311.515 779.002 311.748 775.914 311.748C769.621 311.748 764.231 310.757 759.744 308.776C755.316 306.795 751.936 303.678 749.605 299.424C747.275 295.171 746.109 289.635 746.109 282.818V191.919ZM851.954 286.227V247.245C851.954 244.565 851.575 242.263 850.817 240.34C850.06 238.417 848.865 236.932 847.234 235.883C845.602 234.776 843.417 234.222 840.679 234.222C838.465 234.222 836.571 234.601 834.998 235.358C833.424 236.116 832.23 237.252 831.414 238.767C830.598 240.282 830.19 242.205 830.19 244.536H800.736C800.736 240.166 801.697 236.116 803.62 232.387C805.601 228.599 808.398 225.307 812.011 222.51C815.682 219.713 820.052 217.557 825.121 216.042C830.249 214.469 835.959 213.683 842.252 213.683C849.769 213.683 856.469 214.935 862.354 217.441C868.298 219.946 872.988 223.705 876.426 228.716C879.864 233.669 881.583 239.903 881.583 247.42V286.139C881.583 292.316 881.933 297.006 882.632 300.211C883.331 303.357 884.322 306.125 885.604 308.514V310H856.062C854.663 307.087 853.614 303.532 852.915 299.337C852.274 295.083 851.954 290.713 851.954 286.227ZM855.537 252.227L855.712 267.959H842.689C839.95 267.959 837.62 268.338 835.697 269.096C833.832 269.853 832.317 270.902 831.152 272.242C830.045 273.524 829.229 274.981 828.705 276.612C828.238 278.244 828.005 279.963 828.005 281.769C828.005 283.517 828.413 285.09 829.229 286.489C830.103 287.829 831.268 288.878 832.725 289.635C834.182 290.393 835.813 290.771 837.62 290.771C840.883 290.771 843.65 290.16 845.923 288.936C848.254 287.654 850.031 286.11 851.254 284.304C852.478 282.497 853.09 280.808 853.09 279.234L859.558 291.296C858.392 293.627 857.052 295.986 855.537 298.375C854.08 300.764 852.245 302.979 850.031 305.018C847.875 306.999 845.224 308.631 842.077 309.913C838.931 311.136 835.114 311.748 830.627 311.748C824.801 311.748 819.44 310.554 814.545 308.165C809.709 305.776 805.834 302.454 802.921 298.201C800.007 293.889 798.551 288.936 798.551 283.342C798.551 278.448 799.425 274.078 801.173 270.232C802.979 266.386 805.689 263.123 809.301 260.443C812.914 257.763 817.517 255.723 823.111 254.325C828.705 252.926 835.289 252.227 842.864 252.227H855.537ZM929.042 175.75V310H899.5V175.75H929.042ZM978.337 175.75V310H948.795V175.75H978.337ZM1045.64 286.227V247.245C1045.64 244.565 1045.26 242.263 1044.5 240.34C1043.74 238.417 1042.55 236.932 1040.92 235.883C1039.29 234.776 1037.1 234.222 1034.36 234.222C1032.15 234.222 1030.25 234.601 1028.68 235.358C1027.11 236.116 1025.91 237.252 1025.1 238.767C1024.28 240.282 1023.87 242.205 1023.87 244.536H994.419C994.419 240.166 995.381 236.116 997.304 232.387C999.285 228.599 1002.08 225.307 1005.69 222.51C1009.37 219.713 1013.74 217.557 1018.8 216.042C1023.93 214.469 1029.64 213.683 1035.94 213.683C1043.45 213.683 1050.15 214.935 1056.04 217.441C1061.98 219.946 1066.67 223.705 1070.11 228.716C1073.55 233.669 1075.27 239.903 1075.27 247.42V286.139C1075.27 292.316 1075.62 297.006 1076.32 300.211C1077.01 303.357 1078.01 306.125 1079.29 308.514V310H1049.75C1048.35 307.087 1047.3 303.532 1046.6 299.337C1045.96 295.083 1045.64 290.713 1045.64 286.227ZM1049.22 252.227L1049.4 267.959H1036.37C1033.63 267.959 1031.3 268.338 1029.38 269.096C1027.52 269.853 1026 270.902 1024.84 272.242C1023.73 273.524 1022.91 274.981 1022.39 276.612C1021.92 278.244 1021.69 279.963 1021.69 281.769C1021.69 283.517 1022.1 285.09 1022.91 286.489C1023.79 287.829 1024.95 288.878 1026.41 289.635C1027.87 290.393 1029.5 290.771 1031.3 290.771C1034.57 290.771 1037.33 290.16 1039.61 288.936C1041.94 287.654 1043.71 286.11 1044.94 284.304C1046.16 282.497 1046.77 280.808 1046.77 279.234L1053.24 291.296C1052.08 293.627 1050.74 295.986 1049.22 298.375C1047.76 300.764 1045.93 302.979 1043.71 305.018C1041.56 306.999 1038.91 308.631 1035.76 309.913C1032.61 311.136 1028.8 311.748 1024.31 311.748C1018.48 311.748 1013.12 310.554 1008.23 308.165C1003.39 305.776 999.518 302.454 996.604 298.201C993.691 293.889 992.234 288.936 992.234 283.342C992.234 278.448 993.108 274.078 994.856 270.232C996.663 266.386 999.372 263.123 1002.98 260.443C1006.6 257.763 1011.2 255.723 1016.79 254.325C1022.39 252.926 1028.97 252.227 1036.55 252.227H1049.22ZM1141.43 215.431V235.883H1084.44V215.431H1141.43ZM1096.42 191.919H1125.87V279.147C1125.87 281.653 1126.16 283.604 1126.75 285.003C1127.33 286.343 1128.32 287.305 1129.72 287.887C1131.17 288.412 1133.1 288.674 1135.49 288.674C1137.18 288.674 1138.58 288.645 1139.68 288.586C1140.79 288.47 1141.84 288.324 1142.83 288.149V309.213C1140.32 310.029 1137.7 310.641 1134.96 311.049C1132.22 311.515 1129.31 311.748 1126.22 311.748C1119.93 311.748 1114.54 310.757 1110.05 308.776C1105.62 306.795 1102.24 303.678 1099.91 299.424C1097.58 295.171 1096.42 289.635 1096.42 282.818V191.919ZM1184.26 215.431V310H1154.72V215.431H1184.26ZM1152.97 191.045C1152.97 186.85 1154.48 183.412 1157.51 180.732C1160.54 178.052 1164.48 176.711 1169.31 176.711C1174.15 176.711 1178.08 178.052 1181.11 180.732C1184.14 183.412 1185.66 186.85 1185.66 191.045C1185.66 195.241 1184.14 198.679 1181.11 201.359C1178.08 204.039 1174.15 205.379 1169.31 205.379C1164.48 205.379 1160.54 204.039 1157.51 201.359C1154.48 198.679 1152.97 195.241 1152.97 191.045ZM1198.77 263.677V261.841C1198.77 254.907 1199.76 248.527 1201.74 242.7C1203.72 236.815 1206.63 231.717 1210.48 227.405C1214.32 223.093 1219.07 219.743 1224.72 217.354C1230.38 214.906 1236.9 213.683 1244.3 213.683C1251.76 213.683 1258.32 214.906 1263.97 217.354C1269.68 219.743 1274.46 223.093 1278.3 227.405C1282.15 231.717 1285.06 236.815 1287.04 242.7C1289.02 248.527 1290.01 254.907 1290.01 261.841V263.677C1290.01 270.552 1289.02 276.933 1287.04 282.818C1285.06 288.645 1282.15 293.743 1278.3 298.113C1274.46 302.425 1269.71 305.776 1264.06 308.165C1258.4 310.554 1251.88 311.748 1244.48 311.748C1237.08 311.748 1230.52 310.554 1224.81 308.165C1219.1 305.776 1214.32 302.425 1210.48 298.113C1206.63 293.743 1203.72 288.645 1201.74 282.818C1199.76 276.933 1198.77 270.552 1198.77 263.677ZM1228.22 261.841V263.677C1228.22 267.231 1228.48 270.552 1229.01 273.641C1229.53 276.729 1230.41 279.438 1231.63 281.769C1232.85 284.042 1234.51 285.819 1236.61 287.101C1238.71 288.382 1241.33 289.023 1244.48 289.023C1247.57 289.023 1250.13 288.382 1252.17 287.101C1254.27 285.819 1255.93 284.042 1257.15 281.769C1258.37 279.438 1259.25 276.729 1259.77 273.641C1260.3 270.552 1260.56 267.231 1260.56 263.677V261.841C1260.56 258.403 1260.3 255.17 1259.77 252.14C1259.25 249.051 1258.37 246.342 1257.15 244.011C1255.93 241.622 1254.27 239.758 1252.17 238.417C1250.07 237.077 1247.45 236.407 1244.3 236.407C1241.21 236.407 1238.62 237.077 1236.52 238.417C1234.48 239.758 1232.85 241.622 1231.63 244.011C1230.41 246.342 1229.53 249.051 1229.01 252.14C1228.48 255.17 1228.22 258.403 1228.22 261.841ZM1332.05 235.621V310H1302.6V215.431H1330.22L1332.05 235.621ZM1328.56 259.481L1321.65 259.656C1321.65 252.431 1322.53 245.992 1324.28 240.34C1326.02 234.63 1328.5 229.794 1331.71 225.832C1334.91 221.869 1338.73 218.868 1343.15 216.829C1347.64 214.731 1352.62 213.683 1358.1 213.683C1362.47 213.683 1366.46 214.324 1370.07 215.605C1373.75 216.887 1376.89 218.956 1379.51 221.811C1382.19 224.666 1384.23 228.454 1385.63 233.173C1387.09 237.835 1387.82 243.603 1387.82 250.479V310H1358.19V250.392C1358.19 246.604 1357.66 243.72 1356.61 241.739C1355.57 239.699 1354.05 238.301 1352.07 237.543C1350.09 236.786 1347.67 236.407 1344.82 236.407C1341.79 236.407 1339.22 236.99 1337.12 238.155C1335.03 239.321 1333.34 240.952 1332.05 243.05C1330.83 245.089 1329.93 247.507 1329.35 250.304C1328.82 253.101 1328.56 256.16 1328.56 259.481Z"/><defs><linearGradient id="paint0_linear_240_93" x1="0" x2="88.064" y1=".777" y2="9.505" gradientUnits="userSpaceOnUse"><stop stop-color="#00E1C3"/><stop offset="1" stop-color="#00D1D5"/></linearGradient><linearGradient id="paint1_linear_240_93" x1="486" x2="570.783" y1="144.371" y2="555.148" gradientUnits="userSpaceOnUse"><stop stop-color="#00E1C3"/><stop offset="1" stop-color="#00D1D5"/></linearGradient><clipPath id="clip0_240_93"><rect width="183" height="183" fill="#fff" transform="translate(189 134.5)"/></clipPath></defs></svg>