<svg xmlns="http://www.w3.org/2000/svg" width="1279" height="440" fill="none" viewBox="0 0 1279 440"><path fill="#132636" d="M3 37C3 16.5655 19.5655 0 40 0H1232.01C1255.96 0 1273.6 22.3987 1267.98 45.6757L1179.94 410.676C1175.94 427.292 1161.07 439 1143.98 439H39.9999C19.5654 439 3 422.435 3 402V37Z"/><path fill="#132636" d="M0 37C0 16.5655 16.5655 0 37 0H39V440H37C16.5655 440 0 423.435 0 403V37Z"/><path fill="url(#paint0_linear_240_103)" d="M0 37C0 16.5655 16.5655 0 37 0H39V440H37C16.5655 440 0 423.435 0 403V37Z"/><g clip-path="url(#clip0_240_103)"><path fill="#01D8CE" d="M324.112 144.293C326.467 141.855 329.284 139.91 332.398 138.572C335.513 137.235 338.862 136.53 342.252 136.501C345.641 136.472 349.002 137.117 352.139 138.401C355.277 139.684 358.127 141.58 360.523 143.977C362.92 146.373 364.816 149.223 366.099 152.361C367.383 155.498 368.028 158.859 367.999 162.248C367.97 165.638 367.265 168.987 365.928 172.102C364.59 175.216 362.645 178.033 360.207 180.388L350.086 190.509L313.991 154.414L324.112 144.293V144.293ZM295.944 172.462L189 279.405V315.5H225.095L332.051 208.556L295.931 172.462H295.944Z"/></g><path fill="#fff" d="M503.011 147.114L512.627 111.789H525.101L509.517 158H501.456L503.011 147.114ZM494.283 111.789L503.899 147.114L505.518 158H497.361L481.873 111.789H494.283ZM547.159 149.653V123.659H557.886V158H547.857L547.159 149.653ZM548.174 142.67L550.967 142.607C550.967 144.913 550.692 147.05 550.142 149.018C549.592 150.965 548.777 152.657 547.698 154.096C546.64 155.535 545.328 156.656 543.763 157.46C542.218 158.243 540.43 158.635 538.399 158.635C536.706 158.635 535.151 158.402 533.733 157.937C532.337 157.45 531.131 156.699 530.115 155.683C529.1 154.646 528.306 153.324 527.735 151.716C527.185 150.087 526.91 148.14 526.91 145.876V123.659H537.605V145.939C537.605 146.701 537.701 147.357 537.891 147.907C538.082 148.457 538.357 148.923 538.716 149.304C539.076 149.663 539.52 149.938 540.049 150.129C540.599 150.298 541.224 150.383 541.922 150.383C543.53 150.383 544.789 150.044 545.699 149.367C546.609 148.69 547.243 147.77 547.603 146.606C547.984 145.442 548.174 144.13 548.174 142.67ZM580.42 158.635C577.627 158.635 575.131 158.201 572.93 157.333C570.73 156.445 568.868 155.228 567.344 153.684C565.842 152.139 564.689 150.362 563.885 148.352C563.102 146.341 562.71 144.215 562.71 141.972V140.766C562.71 138.248 563.06 135.921 563.758 133.784C564.456 131.625 565.493 129.742 566.868 128.134C568.243 126.526 569.968 125.278 572.042 124.389C574.115 123.479 576.527 123.024 579.278 123.024C581.711 123.024 583.89 123.416 585.816 124.199C587.741 124.982 589.371 126.103 590.704 127.563C592.058 129.023 593.084 130.79 593.782 132.863C594.502 134.937 594.861 137.264 594.861 139.846V144.194H566.805V137.497H584.419V136.672C584.441 135.529 584.24 134.556 583.816 133.752C583.414 132.948 582.822 132.334 582.039 131.911C581.256 131.488 580.304 131.276 579.183 131.276C578.019 131.276 577.056 131.53 576.294 132.038C575.554 132.546 574.972 133.244 574.549 134.133C574.147 135 573.861 136.005 573.692 137.148C573.523 138.291 573.438 139.497 573.438 140.766V141.972C573.438 143.242 573.607 144.395 573.946 145.432C574.306 146.468 574.813 147.357 575.469 148.098C576.146 148.817 576.95 149.378 577.881 149.78C578.833 150.182 579.913 150.383 581.119 150.383C582.579 150.383 584.017 150.108 585.435 149.558C586.853 149.007 588.069 148.098 589.085 146.828L593.941 152.604C593.243 153.599 592.248 154.562 590.958 155.493C589.688 156.424 588.165 157.185 586.387 157.778C584.61 158.349 582.621 158.635 580.42 158.635ZM622.093 111.789V158H610.953V111.789H622.093ZM635.994 111.789V120.39H597.369V111.789H635.994ZM658.179 149.653V123.659H668.907V158H658.877L658.179 149.653ZM659.195 142.67L661.988 142.607C661.988 144.913 661.713 147.05 661.163 149.018C660.612 150.965 659.798 152.657 658.719 154.096C657.661 155.535 656.349 156.656 654.783 157.46C653.239 158.243 651.451 158.635 649.419 158.635C647.727 158.635 646.172 158.402 644.754 157.937C643.357 157.45 642.151 156.699 641.136 155.683C640.12 154.646 639.327 153.324 638.755 151.716C638.205 150.087 637.93 148.14 637.93 145.876V123.659H648.626V145.939C648.626 146.701 648.721 147.357 648.912 147.907C649.102 148.457 649.377 148.923 649.737 149.304C650.097 149.663 650.541 149.938 651.07 150.129C651.62 150.298 652.244 150.383 652.942 150.383C654.55 150.383 655.809 150.044 656.719 149.367C657.629 148.69 658.264 147.77 658.624 146.606C659.004 145.442 659.195 144.13 659.195 142.67ZM674.905 109.25H685.601V149.558L684.49 158H674.905V109.25ZM706.675 140.449V141.115C706.675 143.718 706.411 146.088 705.882 148.225C705.353 150.362 704.538 152.213 703.438 153.779C702.338 155.323 700.952 156.519 699.28 157.365C697.609 158.212 695.63 158.635 693.345 158.635C691.272 158.635 689.494 158.19 688.013 157.302C686.532 156.392 685.294 155.144 684.3 153.557C683.305 151.949 682.501 150.097 681.888 148.002C681.274 145.887 680.787 143.623 680.428 141.21V140.417C680.787 138.026 681.274 135.783 681.888 133.688C682.501 131.573 683.305 129.721 684.3 128.134C685.294 126.526 686.521 125.278 687.981 124.389C689.463 123.479 691.229 123.024 693.282 123.024C695.588 123.024 697.577 123.458 699.249 124.326C700.941 125.193 702.338 126.41 703.438 127.976C704.538 129.541 705.353 131.382 705.882 133.498C706.411 135.614 706.675 137.931 706.675 140.449ZM695.979 141.115V140.449C695.979 139.2 695.905 138.026 695.757 136.926C695.609 135.826 695.345 134.852 694.964 134.006C694.583 133.16 694.043 132.493 693.345 132.006C692.647 131.52 691.737 131.276 690.616 131.276C689.473 131.276 688.51 131.467 687.728 131.848C686.966 132.229 686.352 132.779 685.887 133.498C685.442 134.196 685.125 135.064 684.935 136.101C684.744 137.116 684.66 138.269 684.681 139.56V142.067C684.638 143.824 684.797 145.326 685.157 146.574C685.516 147.823 686.141 148.775 687.029 149.431C687.918 150.087 689.135 150.415 690.679 150.415C691.822 150.415 692.742 150.192 693.44 149.748C694.16 149.304 694.699 148.669 695.059 147.844C695.419 147.019 695.662 146.035 695.789 144.892C695.916 143.75 695.979 142.491 695.979 141.115ZM728.067 158.635C725.274 158.635 722.777 158.201 720.577 157.333C718.376 156.445 716.514 155.228 714.991 153.684C713.488 152.139 712.335 150.362 711.531 148.352C710.748 146.341 710.357 144.215 710.357 141.972V140.766C710.357 138.248 710.706 135.921 711.404 133.784C712.103 131.625 713.139 129.742 714.515 128.134C715.89 126.526 717.614 125.278 719.688 124.389C721.762 123.479 724.174 123.024 726.924 123.024C729.358 123.024 731.537 123.416 733.462 124.199C735.388 124.982 737.017 126.103 738.35 127.563C739.704 129.023 740.73 130.79 741.429 132.863C742.148 134.937 742.508 137.264 742.508 139.846V144.194H714.451V137.497H732.066V136.672C732.087 135.529 731.886 134.556 731.463 133.752C731.061 132.948 730.468 132.334 729.686 131.911C728.903 131.488 727.951 131.276 726.829 131.276C725.665 131.276 724.703 131.53 723.941 132.038C723.2 132.546 722.618 133.244 722.195 134.133C721.793 135 721.508 136.005 721.338 137.148C721.169 138.291 721.084 139.497 721.084 140.766V141.972C721.084 143.242 721.254 144.395 721.592 145.432C721.952 146.468 722.46 147.357 723.116 148.098C723.793 148.817 724.597 149.378 725.528 149.78C726.48 150.182 727.559 150.383 728.765 150.383C730.225 150.383 731.664 150.108 733.082 149.558C734.499 149.007 735.716 148.098 736.731 146.828L741.587 152.604C740.889 153.599 739.895 154.562 738.604 155.493C737.334 156.424 735.811 157.185 734.034 157.778C732.256 158.349 730.267 158.635 728.067 158.635Z"/><path fill="#fff" d="M542.482 266.823H510.843V243.137H542.482C546.794 243.137 550.29 242.409 552.971 240.952C555.651 239.495 557.603 237.485 558.827 234.921C560.109 232.299 560.75 229.357 560.75 226.094C560.75 222.598 560.109 219.364 558.827 216.392C557.603 213.42 555.651 211.031 552.971 209.225C550.29 207.361 546.794 206.428 542.482 206.428H522.38V310H491.702V182.742H542.482C552.679 182.742 561.449 184.607 568.791 188.336C576.191 192.065 581.872 197.193 585.834 203.719C589.796 210.187 591.777 217.587 591.777 225.919C591.777 234.135 589.796 241.302 585.834 247.42C581.872 253.538 576.191 258.316 568.791 261.754C561.449 265.133 552.679 266.823 542.482 266.823ZM636.615 238.854V310H607.16V215.431H634.692L636.615 238.854ZM664.583 214.731L664.059 242.088C662.894 241.972 661.32 241.826 659.339 241.651C657.358 241.477 655.698 241.389 654.357 241.389C650.92 241.389 647.948 241.797 645.442 242.613C642.995 243.37 640.956 244.536 639.324 246.109C637.751 247.624 636.586 249.547 635.828 251.877C635.129 254.208 634.808 256.918 634.867 260.006L629.535 256.51C629.535 250.159 630.147 244.39 631.371 239.204C632.653 233.96 634.459 229.444 636.79 225.657C639.12 221.811 641.946 218.868 645.268 216.829C648.589 214.731 652.318 213.683 656.455 213.683C657.912 213.683 659.339 213.77 660.738 213.945C662.194 214.12 663.476 214.382 664.583 214.731ZM667.905 263.677V261.841C667.905 254.907 668.895 248.527 670.876 242.7C672.858 236.815 675.771 231.717 679.617 227.405C683.462 223.093 688.211 219.743 693.863 217.354C699.515 214.906 706.041 213.683 713.441 213.683C720.9 213.683 727.455 214.906 733.107 217.354C738.817 219.743 743.595 223.093 747.441 227.405C751.287 231.717 754.2 236.815 756.181 242.7C758.162 248.527 759.153 254.907 759.153 261.841V263.677C759.153 270.552 758.162 276.933 756.181 282.818C754.2 288.645 751.287 293.743 747.441 298.113C743.595 302.425 738.846 305.776 733.194 308.165C727.542 310.554 721.016 311.748 713.616 311.748C706.216 311.748 699.661 310.554 693.951 308.165C688.24 305.776 683.462 302.425 679.617 298.113C675.771 293.743 672.858 288.645 670.876 282.818C668.895 276.933 667.905 270.552 667.905 263.677ZM697.359 261.841V263.677C697.359 267.231 697.622 270.552 698.146 273.641C698.67 276.729 699.544 279.438 700.768 281.769C701.992 284.042 703.652 285.819 705.75 287.101C707.848 288.382 710.47 289.023 713.616 289.023C716.704 289.023 719.268 288.382 721.308 287.101C723.405 285.819 725.066 284.042 726.29 281.769C727.513 279.438 728.387 276.729 728.912 273.641C729.436 270.552 729.698 267.231 729.698 263.677V261.841C729.698 258.403 729.436 255.17 728.912 252.14C728.387 249.051 727.513 246.342 726.29 244.011C725.066 241.622 723.405 239.758 721.308 238.417C719.21 237.077 716.588 236.407 713.441 236.407C710.353 236.407 707.76 237.077 705.663 238.417C703.623 239.758 701.992 241.622 700.768 244.011C699.544 246.342 698.67 249.051 698.146 252.14C697.622 255.17 697.359 258.403 697.359 261.841ZM774.448 215.431H803.99V313.059C803.99 320.634 802.534 327.014 799.62 332.2C796.707 337.444 792.541 341.407 787.122 344.087C781.703 346.826 775.235 348.195 767.718 348.195C765.213 348.195 762.911 348.078 760.813 347.845C758.658 347.67 756.298 347.292 753.734 346.709V324.421C755.249 324.654 756.647 324.829 757.929 324.946C759.211 325.121 760.61 325.208 762.125 325.208C764.805 325.208 767.048 324.771 768.854 323.897C770.661 323.023 772.03 321.683 772.962 319.876C773.953 318.07 774.448 315.798 774.448 313.059V215.431ZM772.263 191.045C772.263 186.85 773.778 183.412 776.808 180.732C779.838 178.052 783.771 176.711 788.607 176.711C793.444 176.711 797.377 178.052 800.407 180.732C803.437 183.412 804.952 186.85 804.952 191.045C804.952 195.241 803.437 198.679 800.407 201.359C797.377 204.039 793.444 205.379 788.607 205.379C783.771 205.379 779.838 204.039 776.808 201.359C773.778 198.679 772.263 195.241 772.263 191.045ZM866.483 311.748C858.792 311.748 851.916 310.554 845.856 308.165C839.796 305.717 834.668 302.367 830.473 298.113C826.336 293.86 823.16 288.965 820.946 283.43C818.79 277.894 817.712 272.038 817.712 265.862V262.541C817.712 255.607 818.674 249.197 820.597 243.312C822.52 237.369 825.375 232.183 829.162 227.754C832.95 223.326 837.698 219.888 843.409 217.441C849.119 214.935 855.762 213.683 863.336 213.683C870.037 213.683 876.039 214.761 881.341 216.917C886.644 219.072 891.13 222.161 894.801 226.181C898.53 230.202 901.356 235.067 903.279 240.777C905.26 246.488 906.251 252.897 906.251 260.006V271.98H828.987V253.538H877.496V251.266C877.554 248.119 877 245.439 875.835 243.225C874.728 241.01 873.096 239.321 870.94 238.155C868.785 236.99 866.162 236.407 863.074 236.407C859.869 236.407 857.218 237.106 855.121 238.505C853.081 239.903 851.479 241.826 850.313 244.273C849.206 246.662 848.42 249.43 847.954 252.577C847.487 255.723 847.254 259.044 847.254 262.541V265.862C847.254 269.358 847.721 272.534 848.653 275.389C849.643 278.244 851.042 280.691 852.848 282.73C854.713 284.712 856.927 286.256 859.491 287.363C862.113 288.47 865.084 289.023 868.406 289.023C872.426 289.023 876.389 288.266 880.292 286.751C884.196 285.236 887.547 282.73 890.344 279.234L903.716 295.142C901.793 297.88 899.055 300.531 895.5 303.095C892.004 305.659 887.809 307.757 882.915 309.388C878.02 310.961 872.543 311.748 866.483 311.748ZM968.044 215.431V235.883H911.058V215.431H968.044ZM923.032 191.919H952.487V279.147C952.487 281.653 952.778 283.604 953.361 285.003C953.944 286.343 954.934 287.305 956.333 287.887C957.789 288.412 959.712 288.674 962.101 288.674C963.791 288.674 965.189 288.645 966.296 288.586C967.403 288.47 968.452 288.324 969.443 288.149V309.213C966.937 310.029 964.315 310.641 961.577 311.049C958.838 311.515 955.925 311.748 952.836 311.748C946.543 311.748 941.154 310.757 936.667 308.776C932.239 306.795 928.859 303.678 926.528 299.424C924.198 295.171 923.032 289.635 923.032 282.818V191.919ZM1029.31 283.43C1029.31 281.798 1028.76 280.4 1027.65 279.234C1026.6 278.011 1024.74 276.904 1022.06 275.913C1019.38 274.864 1015.62 273.815 1010.78 272.767C1006.18 271.776 1001.84 270.465 997.761 268.833C993.741 267.202 990.215 265.221 987.186 262.89C984.156 260.559 981.767 257.792 980.019 254.587C978.329 251.382 977.484 247.711 977.484 243.574C977.484 239.554 978.329 235.766 980.019 232.212C981.767 228.599 984.301 225.424 987.623 222.685C991.002 219.888 995.11 217.703 999.946 216.13C1004.78 214.498 1010.29 213.683 1016.47 213.683C1024.97 213.683 1032.31 214.994 1038.49 217.616C1044.67 220.18 1049.42 223.792 1052.74 228.454C1056.12 233.057 1057.81 238.388 1057.81 244.448H1028.35C1028.35 242.059 1027.94 240.02 1027.13 238.33C1026.37 236.64 1025.12 235.358 1023.37 234.484C1021.62 233.552 1019.29 233.086 1016.38 233.086C1014.34 233.086 1012.47 233.465 1010.78 234.222C1009.15 234.98 1007.84 236.028 1006.85 237.369C1005.86 238.709 1005.37 240.282 1005.37 242.088C1005.37 243.37 1005.66 244.536 1006.24 245.584C1006.88 246.575 1007.84 247.507 1009.12 248.381C1010.41 249.197 1012.04 249.955 1014.02 250.654C1016 251.295 1018.39 251.877 1021.19 252.402C1027.54 253.567 1033.48 255.228 1039.02 257.384C1044.55 259.54 1049.04 262.599 1052.48 266.561C1055.97 270.523 1057.72 275.855 1057.72 282.556C1057.72 286.751 1056.76 290.626 1054.83 294.18C1052.91 297.676 1050.14 300.764 1046.53 303.445C1042.92 306.067 1038.58 308.106 1033.51 309.563C1028.44 311.02 1022.73 311.748 1016.38 311.748C1007.35 311.748 999.713 310.146 993.479 306.941C987.244 303.678 982.524 299.599 979.319 294.705C976.173 289.752 974.6 284.741 974.6 279.671H1002.04C1002.16 282.585 1002.86 284.974 1004.14 286.838C1005.48 288.703 1007.26 290.072 1009.47 290.946C1011.69 291.82 1014.25 292.257 1017.16 292.257C1019.84 292.257 1022.06 291.879 1023.81 291.121C1025.61 290.364 1026.98 289.344 1027.92 288.062C1028.85 286.722 1029.31 285.178 1029.31 283.43Z"/><path fill="url(#paint1_linear_240_103)" d="M542.482 266.823H510.843V243.137H542.482C546.794 243.137 550.29 242.409 552.971 240.952C555.651 239.495 557.603 237.485 558.827 234.921C560.109 232.299 560.75 229.357 560.75 226.094C560.75 222.598 560.109 219.364 558.827 216.392C557.603 213.42 555.651 211.031 552.971 209.225C550.29 207.361 546.794 206.428 542.482 206.428H522.38V310H491.702V182.742H542.482C552.679 182.742 561.449 184.607 568.791 188.336C576.191 192.065 581.872 197.193 585.834 203.719C589.796 210.187 591.777 217.587 591.777 225.919C591.777 234.135 589.796 241.302 585.834 247.42C581.872 253.538 576.191 258.316 568.791 261.754C561.449 265.133 552.679 266.823 542.482 266.823ZM636.615 238.854V310H607.16V215.431H634.692L636.615 238.854ZM664.583 214.731L664.059 242.088C662.894 241.972 661.32 241.826 659.339 241.651C657.358 241.477 655.698 241.389 654.357 241.389C650.92 241.389 647.948 241.797 645.442 242.613C642.995 243.37 640.956 244.536 639.324 246.109C637.751 247.624 636.586 249.547 635.828 251.877C635.129 254.208 634.808 256.918 634.867 260.006L629.535 256.51C629.535 250.159 630.147 244.39 631.371 239.204C632.653 233.96 634.459 229.444 636.79 225.657C639.12 221.811 641.946 218.868 645.268 216.829C648.589 214.731 652.318 213.683 656.455 213.683C657.912 213.683 659.339 213.77 660.738 213.945C662.194 214.12 663.476 214.382 664.583 214.731ZM667.905 263.677V261.841C667.905 254.907 668.895 248.527 670.876 242.7C672.858 236.815 675.771 231.717 679.617 227.405C683.462 223.093 688.211 219.743 693.863 217.354C699.515 214.906 706.041 213.683 713.441 213.683C720.9 213.683 727.455 214.906 733.107 217.354C738.817 219.743 743.595 223.093 747.441 227.405C751.287 231.717 754.2 236.815 756.181 242.7C758.162 248.527 759.153 254.907 759.153 261.841V263.677C759.153 270.552 758.162 276.933 756.181 282.818C754.2 288.645 751.287 293.743 747.441 298.113C743.595 302.425 738.846 305.776 733.194 308.165C727.542 310.554 721.016 311.748 713.616 311.748C706.216 311.748 699.661 310.554 693.951 308.165C688.24 305.776 683.462 302.425 679.617 298.113C675.771 293.743 672.858 288.645 670.876 282.818C668.895 276.933 667.905 270.552 667.905 263.677ZM697.359 261.841V263.677C697.359 267.231 697.622 270.552 698.146 273.641C698.67 276.729 699.544 279.438 700.768 281.769C701.992 284.042 703.652 285.819 705.75 287.101C707.848 288.382 710.47 289.023 713.616 289.023C716.704 289.023 719.268 288.382 721.308 287.101C723.405 285.819 725.066 284.042 726.29 281.769C727.513 279.438 728.387 276.729 728.912 273.641C729.436 270.552 729.698 267.231 729.698 263.677V261.841C729.698 258.403 729.436 255.17 728.912 252.14C728.387 249.051 727.513 246.342 726.29 244.011C725.066 241.622 723.405 239.758 721.308 238.417C719.21 237.077 716.588 236.407 713.441 236.407C710.353 236.407 707.76 237.077 705.663 238.417C703.623 239.758 701.992 241.622 700.768 244.011C699.544 246.342 698.67 249.051 698.146 252.14C697.622 255.17 697.359 258.403 697.359 261.841ZM774.448 215.431H803.99V313.059C803.99 320.634 802.534 327.014 799.62 332.2C796.707 337.444 792.541 341.407 787.122 344.087C781.703 346.826 775.235 348.195 767.718 348.195C765.213 348.195 762.911 348.078 760.813 347.845C758.658 347.67 756.298 347.292 753.734 346.709V324.421C755.249 324.654 756.647 324.829 757.929 324.946C759.211 325.121 760.61 325.208 762.125 325.208C764.805 325.208 767.048 324.771 768.854 323.897C770.661 323.023 772.03 321.683 772.962 319.876C773.953 318.07 774.448 315.798 774.448 313.059V215.431ZM772.263 191.045C772.263 186.85 773.778 183.412 776.808 180.732C779.838 178.052 783.771 176.711 788.607 176.711C793.444 176.711 797.377 178.052 800.407 180.732C803.437 183.412 804.952 186.85 804.952 191.045C804.952 195.241 803.437 198.679 800.407 201.359C797.377 204.039 793.444 205.379 788.607 205.379C783.771 205.379 779.838 204.039 776.808 201.359C773.778 198.679 772.263 195.241 772.263 191.045ZM866.483 311.748C858.792 311.748 851.916 310.554 845.856 308.165C839.796 305.717 834.668 302.367 830.473 298.113C826.336 293.86 823.16 288.965 820.946 283.43C818.79 277.894 817.712 272.038 817.712 265.862V262.541C817.712 255.607 818.674 249.197 820.597 243.312C822.52 237.369 825.375 232.183 829.162 227.754C832.95 223.326 837.698 219.888 843.409 217.441C849.119 214.935 855.762 213.683 863.336 213.683C870.037 213.683 876.039 214.761 881.341 216.917C886.644 219.072 891.13 222.161 894.801 226.181C898.53 230.202 901.356 235.067 903.279 240.777C905.26 246.488 906.251 252.897 906.251 260.006V271.98H828.987V253.538H877.496V251.266C877.554 248.119 877 245.439 875.835 243.225C874.728 241.01 873.096 239.321 870.94 238.155C868.785 236.99 866.162 236.407 863.074 236.407C859.869 236.407 857.218 237.106 855.121 238.505C853.081 239.903 851.479 241.826 850.313 244.273C849.206 246.662 848.42 249.43 847.954 252.577C847.487 255.723 847.254 259.044 847.254 262.541V265.862C847.254 269.358 847.721 272.534 848.653 275.389C849.643 278.244 851.042 280.691 852.848 282.73C854.713 284.712 856.927 286.256 859.491 287.363C862.113 288.47 865.084 289.023 868.406 289.023C872.426 289.023 876.389 288.266 880.292 286.751C884.196 285.236 887.547 282.73 890.344 279.234L903.716 295.142C901.793 297.88 899.055 300.531 895.5 303.095C892.004 305.659 887.809 307.757 882.915 309.388C878.02 310.961 872.543 311.748 866.483 311.748ZM968.044 215.431V235.883H911.058V215.431H968.044ZM923.032 191.919H952.487V279.147C952.487 281.653 952.778 283.604 953.361 285.003C953.944 286.343 954.934 287.305 956.333 287.887C957.789 288.412 959.712 288.674 962.101 288.674C963.791 288.674 965.189 288.645 966.296 288.586C967.403 288.47 968.452 288.324 969.443 288.149V309.213C966.937 310.029 964.315 310.641 961.577 311.049C958.838 311.515 955.925 311.748 952.836 311.748C946.543 311.748 941.154 310.757 936.667 308.776C932.239 306.795 928.859 303.678 926.528 299.424C924.198 295.171 923.032 289.635 923.032 282.818V191.919ZM1029.31 283.43C1029.31 281.798 1028.76 280.4 1027.65 279.234C1026.6 278.011 1024.74 276.904 1022.06 275.913C1019.38 274.864 1015.62 273.815 1010.78 272.767C1006.18 271.776 1001.84 270.465 997.761 268.833C993.741 267.202 990.215 265.221 987.186 262.89C984.156 260.559 981.767 257.792 980.019 254.587C978.329 251.382 977.484 247.711 977.484 243.574C977.484 239.554 978.329 235.766 980.019 232.212C981.767 228.599 984.301 225.424 987.623 222.685C991.002 219.888 995.11 217.703 999.946 216.13C1004.78 214.498 1010.29 213.683 1016.47 213.683C1024.97 213.683 1032.31 214.994 1038.49 217.616C1044.67 220.18 1049.42 223.792 1052.74 228.454C1056.12 233.057 1057.81 238.388 1057.81 244.448H1028.35C1028.35 242.059 1027.94 240.02 1027.13 238.33C1026.37 236.64 1025.12 235.358 1023.37 234.484C1021.62 233.552 1019.29 233.086 1016.38 233.086C1014.34 233.086 1012.47 233.465 1010.78 234.222C1009.15 234.98 1007.84 236.028 1006.85 237.369C1005.86 238.709 1005.37 240.282 1005.37 242.088C1005.37 243.37 1005.66 244.536 1006.24 245.584C1006.88 246.575 1007.84 247.507 1009.12 248.381C1010.41 249.197 1012.04 249.955 1014.02 250.654C1016 251.295 1018.39 251.877 1021.19 252.402C1027.54 253.567 1033.48 255.228 1039.02 257.384C1044.55 259.54 1049.04 262.599 1052.48 266.561C1055.97 270.523 1057.72 275.855 1057.72 282.556C1057.72 286.751 1056.76 290.626 1054.83 294.18C1052.91 297.676 1050.14 300.764 1046.53 303.445C1042.92 306.067 1038.58 308.106 1033.51 309.563C1028.44 311.02 1022.73 311.748 1016.38 311.748C1007.35 311.748 999.713 310.146 993.479 306.941C987.244 303.678 982.524 299.599 979.319 294.705C976.173 289.752 974.6 284.741 974.6 279.671H1002.04C1002.16 282.585 1002.86 284.974 1004.14 286.838C1005.48 288.703 1007.26 290.072 1009.47 290.946C1011.69 291.82 1014.25 292.257 1017.16 292.257C1019.84 292.257 1022.06 291.879 1023.81 291.121C1025.61 290.364 1026.98 289.344 1027.92 288.062C1028.85 286.722 1029.31 285.178 1029.31 283.43Z"/><defs><linearGradient id="paint0_linear_240_103" x1="0" x2="88.064" y1=".777" y2="9.505" gradientUnits="userSpaceOnUse"><stop stop-color="#00E1C3"/><stop offset="1" stop-color="#00D1D5"/></linearGradient><linearGradient id="paint1_linear_240_103" x1="482" x2="607.176" y1="144.371" y2="532.251" gradientUnits="userSpaceOnUse"><stop stop-color="#00E1C3"/><stop offset="1" stop-color="#00D1D5"/></linearGradient><clipPath id="clip0_240_103"><rect width="179" height="179" fill="#fff" transform="translate(189 136.5)"/></clipPath></defs></svg>