<svg xmlns="http://www.w3.org/2000/svg" width="1160" height="440" fill="none" viewBox="0 0 1160 440"><path fill="#132636" d="M2.41162 37C2.41162 16.5655 18.9771 0 39.4116 0H1114.03C1137.65 0 1155.22 21.8337 1150.17 44.9092L1070.3 409.909C1066.59 426.894 1051.55 439 1034.16 439H39.4116C18.977 439 2.41162 422.435 2.41162 402V37Z"/><path fill="#132636" d="M0 31.3514C0 14.0365 14.0365 0 31.3514 0V0V440V440C14.0365 440 0 425.964 0 408.649V31.3514Z"/><path fill="url(#paint0_linear_330_23)" d="M0 31.3514C0 14.0365 14.0365 0 31.3514 0V0V440V440C14.0365 440 0 425.964 0 408.649V31.3514Z"/><path fill="url(#paint1_linear_330_23)" d="M339.24 249.163C349.416 243.319 349.415 228.678 339.238 222.836L304.727 203.042L342.697 185.39L395.065 215.427C410.978 224.555 410.978 247.445 395.065 256.573L340.201 288.042L302.231 270.39L339.24 249.163Z"/><path fill="url(#paint2_linear_330_23)" d="M223.282 269.304V289.416C223.287 301.095 235.961 308.401 246.117 302.576L267.934 290.062L305.904 307.714L224.679 354.303C208.808 363.406 189 351.985 189 333.73L189 253.366L223.282 269.304Z"/><path fill="url(#paint3_linear_330_23)" d="M308.401 165.718L270.431 183.37L246.103 169.416C235.948 163.604 223.282 170.913 223.282 182.59V205.289L189 221.226L189 138.27C189 120.015 208.808 108.594 224.679 117.697L308.401 165.718Z"/><path fill="#fff" d="M542.011 147.114L551.627 111.789H564.101L548.517 158H540.456L542.011 147.114ZM533.283 111.789L542.899 147.114L544.518 158H536.361L520.873 111.789H533.283ZM586.159 149.653V123.659H596.886V158H586.857L586.159 149.653ZM587.174 142.67L589.967 142.607C589.967 144.913 589.692 147.05 589.142 149.018C588.592 150.965 587.777 152.657 586.698 154.096C585.64 155.535 584.328 156.656 582.763 157.46C581.218 158.243 579.43 158.635 577.399 158.635C575.706 158.635 574.151 158.402 572.733 157.937C571.337 157.45 570.131 156.699 569.115 155.683C568.1 154.646 567.306 153.324 566.735 151.716C566.185 150.087 565.91 148.14 565.91 145.876V123.659H576.605V145.939C576.605 146.701 576.701 147.357 576.891 147.907C577.082 148.457 577.357 148.923 577.716 149.304C578.076 149.663 578.52 149.938 579.049 150.129C579.599 150.298 580.224 150.383 580.922 150.383C582.53 150.383 583.789 150.044 584.699 149.367C585.609 148.69 586.243 147.77 586.603 146.606C586.984 145.442 587.174 144.13 587.174 142.67ZM619.42 158.635C616.627 158.635 614.131 158.201 611.93 157.333C609.73 156.445 607.868 155.228 606.344 153.684C604.842 152.139 603.689 150.362 602.885 148.352C602.102 146.341 601.71 144.215 601.71 141.972V140.766C601.71 138.248 602.06 135.921 602.758 133.784C603.456 131.625 604.493 129.742 605.868 128.134C607.243 126.526 608.968 125.278 611.042 124.389C613.115 123.479 615.527 123.024 618.278 123.024C620.711 123.024 622.89 123.416 624.816 124.199C626.741 124.982 628.371 126.103 629.704 127.563C631.058 129.023 632.084 130.79 632.782 132.863C633.502 134.937 633.861 137.264 633.861 139.846V144.194H605.805V137.497H623.419V136.672C623.441 135.529 623.24 134.556 622.816 133.752C622.414 132.948 621.822 132.334 621.039 131.911C620.256 131.488 619.304 131.276 618.183 131.276C617.019 131.276 616.056 131.53 615.294 132.038C614.554 132.546 613.972 133.244 613.549 134.133C613.147 135 612.861 136.005 612.692 137.148C612.523 138.291 612.438 139.497 612.438 140.766V141.972C612.438 143.242 612.607 144.395 612.946 145.432C613.306 146.468 613.813 147.357 614.469 148.098C615.146 148.817 615.95 149.378 616.881 149.78C617.833 150.182 618.913 150.383 620.119 150.383C621.579 150.383 623.017 150.108 624.435 149.558C625.853 149.007 627.069 148.098 628.085 146.828L632.941 152.604C632.243 153.599 631.248 154.562 629.958 155.493C628.688 156.424 627.165 157.185 625.387 157.778C623.61 158.349 621.621 158.635 619.42 158.635ZM661.093 111.789V158H649.953V111.789H661.093ZM674.994 111.789V120.39H636.369V111.789H674.994ZM697.179 149.653V123.659H707.907V158H697.877L697.179 149.653ZM698.195 142.67L700.988 142.607C700.988 144.913 700.713 147.05 700.163 149.018C699.612 150.965 698.798 152.657 697.719 154.096C696.661 155.535 695.349 156.656 693.783 157.46C692.239 158.243 690.451 158.635 688.419 158.635C686.727 158.635 685.172 158.402 683.754 157.937C682.357 157.45 681.151 156.699 680.136 155.683C679.12 154.646 678.327 153.324 677.755 151.716C677.205 150.087 676.93 148.14 676.93 145.876V123.659H687.626V145.939C687.626 146.701 687.721 147.357 687.912 147.907C688.102 148.457 688.377 148.923 688.737 149.304C689.097 149.663 689.541 149.938 690.07 150.129C690.62 150.298 691.244 150.383 691.942 150.383C693.55 150.383 694.809 150.044 695.719 149.367C696.629 148.69 697.264 147.77 697.624 146.606C698.004 145.442 698.195 144.13 698.195 142.67ZM713.905 109.25H724.601V149.558L723.49 158H713.905V109.25ZM745.675 140.449V141.115C745.675 143.718 745.411 146.088 744.882 148.225C744.353 150.362 743.538 152.213 742.438 153.779C741.338 155.323 739.952 156.519 738.28 157.365C736.609 158.212 734.63 158.635 732.345 158.635C730.272 158.635 728.494 158.19 727.013 157.302C725.532 156.392 724.294 155.144 723.3 153.557C722.305 151.949 721.501 150.097 720.888 148.002C720.274 145.887 719.787 143.623 719.428 141.21V140.417C719.787 138.026 720.274 135.783 720.888 133.688C721.501 131.573 722.305 129.721 723.3 128.134C724.294 126.526 725.521 125.278 726.981 124.389C728.463 123.479 730.229 123.024 732.282 123.024C734.588 123.024 736.577 123.458 738.249 124.326C739.941 125.193 741.338 126.41 742.438 127.976C743.538 129.541 744.353 131.382 744.882 133.498C745.411 135.614 745.675 137.931 745.675 140.449ZM734.979 141.115V140.449C734.979 139.2 734.905 138.026 734.757 136.926C734.609 135.826 734.345 134.852 733.964 134.006C733.583 133.16 733.043 132.493 732.345 132.006C731.647 131.52 730.737 131.276 729.616 131.276C728.473 131.276 727.51 131.467 726.728 131.848C725.966 132.229 725.352 132.779 724.887 133.498C724.442 134.196 724.125 135.064 723.935 136.101C723.744 137.116 723.66 138.269 723.681 139.56V142.067C723.638 143.824 723.797 145.326 724.157 146.574C724.516 147.823 725.141 148.775 726.029 149.431C726.918 150.087 728.135 150.415 729.679 150.415C730.822 150.415 731.742 150.192 732.44 149.748C733.16 149.304 733.699 148.669 734.059 147.844C734.419 147.019 734.662 146.035 734.789 144.892C734.916 143.75 734.979 142.491 734.979 141.115ZM767.067 158.635C764.274 158.635 761.777 158.201 759.577 157.333C757.376 156.445 755.514 155.228 753.991 153.684C752.488 152.139 751.335 150.362 750.531 148.352C749.748 146.341 749.357 144.215 749.357 141.972V140.766C749.357 138.248 749.706 135.921 750.404 133.784C751.103 131.625 752.139 129.742 753.515 128.134C754.89 126.526 756.614 125.278 758.688 124.389C760.762 123.479 763.174 123.024 765.924 123.024C768.358 123.024 770.537 123.416 772.462 124.199C774.388 124.982 776.017 126.103 777.35 127.563C778.704 129.023 779.73 130.79 780.429 132.863C781.148 134.937 781.508 137.264 781.508 139.846V144.194H753.451V137.497H771.066V136.672C771.087 135.529 770.886 134.556 770.463 133.752C770.061 132.948 769.468 132.334 768.686 131.911C767.903 131.488 766.951 131.276 765.829 131.276C764.665 131.276 763.703 131.53 762.941 132.038C762.2 132.546 761.618 133.244 761.195 134.133C760.793 135 760.508 136.005 760.338 137.148C760.169 138.291 760.084 139.497 760.084 140.766V141.972C760.084 143.242 760.254 144.395 760.592 145.432C760.952 146.468 761.46 147.357 762.116 148.098C762.793 148.817 763.597 149.378 764.528 149.78C765.48 150.182 766.559 150.383 767.765 150.383C769.225 150.383 770.664 150.108 772.082 149.558C773.499 149.007 774.716 148.098 775.731 146.828L780.587 152.604C779.889 153.599 778.895 154.562 777.604 155.493C776.334 156.424 774.811 157.185 773.034 157.778C771.256 158.349 769.267 158.635 767.067 158.635Z"/><path fill="#fff" d="M527.981 266.276V285.071H677.983V266.276H527.981ZM544.807 295.632V314.427H635.918V345.931H659.725V295.632H544.807ZM546.597 238.173V256.252H662.052V238.173H546.597ZM546.597 183.936V247.302H570.225V202.015H660.799V183.936H546.597ZM563.602 211.144V228.507H657.04V211.144H563.602ZM806.67 180.356V278.448H830.656V180.356H806.67ZM774.45 281.849C739.545 281.849 717.886 293.842 717.886 314.069C717.886 334.475 739.545 346.289 774.45 346.289C809.355 346.289 831.372 334.475 831.372 314.069C831.372 293.842 809.355 281.849 774.45 281.849ZM774.45 300.286C796.109 300.286 807.565 304.761 807.565 314.069C807.565 323.377 796.109 328.031 774.45 328.031C752.97 328.031 741.693 323.377 741.693 314.069C741.693 304.761 752.97 300.286 774.45 300.286ZM733.101 197.182V207.564C733.101 228.507 721.287 249.987 693.542 258.937L705.714 277.553C737.576 267.171 752.791 238.889 752.791 207.564V197.182H733.101ZM737.934 197.182V207.564C737.934 237.099 753.149 263.77 784.295 273.436L796.288 254.82C769.259 246.586 757.445 226.896 757.445 207.564V197.182H737.934ZM699.807 191.275V210.07H790.023V191.275H699.807Z"/><path fill="url(#paint4_linear_330_23)" d="M527.981 266.276V285.071H677.983V266.276H527.981ZM544.807 295.632V314.427H635.918V345.931H659.725V295.632H544.807ZM546.597 238.173V256.252H662.052V238.173H546.597ZM546.597 183.936V247.302H570.225V202.015H660.799V183.936H546.597ZM563.602 211.144V228.507H657.04V211.144H563.602ZM806.67 180.356V278.448H830.656V180.356H806.67ZM774.45 281.849C739.545 281.849 717.886 293.842 717.886 314.069C717.886 334.475 739.545 346.289 774.45 346.289C809.355 346.289 831.372 334.475 831.372 314.069C831.372 293.842 809.355 281.849 774.45 281.849ZM774.45 300.286C796.109 300.286 807.565 304.761 807.565 314.069C807.565 323.377 796.109 328.031 774.45 328.031C752.97 328.031 741.693 323.377 741.693 314.069C741.693 304.761 752.97 300.286 774.45 300.286ZM733.101 197.182V207.564C733.101 228.507 721.287 249.987 693.542 258.937L705.714 277.553C737.576 267.171 752.791 238.889 752.791 207.564V197.182H733.101ZM737.934 197.182V207.564C737.934 237.099 753.149 263.77 784.295 273.436L796.288 254.82C769.259 246.586 757.445 226.896 757.445 207.564V197.182H737.934ZM699.807 191.275V210.07H790.023V191.275H699.807Z"/><defs><linearGradient id="paint0_linear_330_23" x1="0" x2="71.037" y1=".777" y2="6.437" gradientUnits="userSpaceOnUse"><stop stop-color="#00E1C3"/><stop offset="1" stop-color="#00D1D5"/></linearGradient><linearGradient id="paint1_linear_330_23" x1="189" x2="436.787" y1="114.929" y2="363.473" gradientUnits="userSpaceOnUse"><stop stop-color="#00E1C3"/><stop offset="1" stop-color="#00D1D5"/></linearGradient><linearGradient id="paint2_linear_330_23" x1="189" x2="436.787" y1="114.929" y2="363.473" gradientUnits="userSpaceOnUse"><stop stop-color="#00E1C3"/><stop offset="1" stop-color="#00D1D5"/></linearGradient><linearGradient id="paint3_linear_330_23" x1="189" x2="436.787" y1="114.929" y2="363.473" gradientUnits="userSpaceOnUse"><stop stop-color="#00E1C3"/><stop offset="1" stop-color="#00D1D5"/></linearGradient><linearGradient id="paint4_linear_330_23" x1="521" x2="692.761" y1="164.371" y2="506.389" gradientUnits="userSpaceOnUse"><stop stop-color="#00E1C3"/><stop offset="1" stop-color="#00D1D5"/></linearGradient></defs></svg>