<svg xmlns="http://www.w3.org/2000/svg" width="1775" height="440" fill="none" viewBox="0 0 1775 440"><path fill="#132636" d="M3 37C3 16.5655 19.5655 0 40 0H1723.59C1748.86 0 1766.7 24.7833 1758.67 48.7519L1636.41 413.752C1631.36 428.834 1617.23 439 1601.32 439H39.9999C19.5654 439 3 422.435 3 402V37Z"/><path fill="#132636" d="M0 37C0 16.5655 16.5655 0 37 0H39V440H37C16.5655 440 0 423.435 0 403V37Z"/><path fill="url(#paint0_linear_330_13)" d="M0 37C0 16.5655 16.5655 0 37 0H39V440H37C16.5655 440 0 423.435 0 403V37Z"/><g clip-path="url(#clip0_330_13)"><path fill="#01D8CE" d="M324.112 154.293C326.467 151.855 329.284 149.91 332.398 148.572C335.513 147.235 338.862 146.53 342.252 146.501C345.641 146.472 349.002 147.117 352.139 148.401C355.277 149.684 358.127 151.58 360.523 153.977C362.92 156.373 364.816 159.223 366.099 162.361C367.383 165.498 368.028 168.859 367.999 172.248C367.97 175.638 367.265 178.987 365.928 182.102C364.59 185.216 362.645 188.033 360.207 190.388L350.086 200.509L313.991 164.414L324.112 154.293V154.293ZM295.944 182.462L189 289.405V325.5H225.095L332.051 218.556L295.931 182.462H295.944Z"/></g><path fill="#fff" d="M503.011 147.114L512.627 111.789H525.101L509.517 158H501.456L503.011 147.114ZM494.283 111.789L503.899 147.114L505.518 158H497.361L481.873 111.789H494.283ZM547.159 149.653V123.659H557.886V158H547.857L547.159 149.653ZM548.174 142.67L550.967 142.607C550.967 144.913 550.692 147.05 550.142 149.018C549.592 150.965 548.777 152.657 547.698 154.096C546.64 155.535 545.328 156.656 543.763 157.46C542.218 158.243 540.43 158.635 538.399 158.635C536.706 158.635 535.151 158.402 533.733 157.937C532.337 157.45 531.131 156.699 530.115 155.683C529.1 154.646 528.306 153.324 527.735 151.716C527.185 150.087 526.91 148.14 526.91 145.876V123.659H537.605V145.939C537.605 146.701 537.701 147.357 537.891 147.907C538.082 148.457 538.357 148.923 538.716 149.304C539.076 149.663 539.52 149.938 540.049 150.129C540.599 150.298 541.224 150.383 541.922 150.383C543.53 150.383 544.789 150.044 545.699 149.367C546.609 148.69 547.243 147.77 547.603 146.606C547.984 145.442 548.174 144.13 548.174 142.67ZM580.42 158.635C577.627 158.635 575.131 158.201 572.93 157.333C570.73 156.445 568.868 155.228 567.344 153.684C565.842 152.139 564.689 150.362 563.885 148.352C563.102 146.341 562.71 144.215 562.71 141.972V140.766C562.71 138.248 563.06 135.921 563.758 133.784C564.456 131.625 565.493 129.742 566.868 128.134C568.243 126.526 569.968 125.278 572.042 124.389C574.115 123.479 576.527 123.024 579.278 123.024C581.711 123.024 583.89 123.416 585.816 124.199C587.741 124.982 589.371 126.103 590.704 127.563C592.058 129.023 593.084 130.79 593.782 132.863C594.502 134.937 594.861 137.264 594.861 139.846V144.194H566.805V137.497H584.419V136.672C584.441 135.529 584.24 134.556 583.816 133.752C583.414 132.948 582.822 132.334 582.039 131.911C581.256 131.488 580.304 131.276 579.183 131.276C578.019 131.276 577.056 131.53 576.294 132.038C575.554 132.546 574.972 133.244 574.549 134.133C574.147 135 573.861 136.005 573.692 137.148C573.523 138.291 573.438 139.497 573.438 140.766V141.972C573.438 143.242 573.607 144.395 573.946 145.432C574.306 146.468 574.813 147.357 575.469 148.098C576.146 148.817 576.95 149.378 577.881 149.78C578.833 150.182 579.913 150.383 581.119 150.383C582.579 150.383 584.017 150.108 585.435 149.558C586.853 149.007 588.069 148.098 589.085 146.828L593.941 152.604C593.243 153.599 592.248 154.562 590.958 155.493C589.688 156.424 588.165 157.185 586.387 157.778C584.61 158.349 582.621 158.635 580.42 158.635ZM622.093 111.789V158H610.953V111.789H622.093ZM635.994 111.789V120.39H597.369V111.789H635.994ZM658.179 149.653V123.659H668.907V158H658.877L658.179 149.653ZM659.195 142.67L661.988 142.607C661.988 144.913 661.713 147.05 661.163 149.018C660.612 150.965 659.798 152.657 658.719 154.096C657.661 155.535 656.349 156.656 654.783 157.46C653.239 158.243 651.451 158.635 649.419 158.635C647.727 158.635 646.172 158.402 644.754 157.937C643.357 157.45 642.151 156.699 641.136 155.683C640.12 154.646 639.327 153.324 638.755 151.716C638.205 150.087 637.93 148.14 637.93 145.876V123.659H648.626V145.939C648.626 146.701 648.721 147.357 648.912 147.907C649.102 148.457 649.377 148.923 649.737 149.304C650.097 149.663 650.541 149.938 651.07 150.129C651.62 150.298 652.244 150.383 652.942 150.383C654.55 150.383 655.809 150.044 656.719 149.367C657.629 148.69 658.264 147.77 658.624 146.606C659.004 145.442 659.195 144.13 659.195 142.67ZM674.905 109.25H685.601V149.558L684.49 158H674.905V109.25ZM706.675 140.449V141.115C706.675 143.718 706.411 146.088 705.882 148.225C705.353 150.362 704.538 152.213 703.438 153.779C702.338 155.323 700.952 156.519 699.28 157.365C697.609 158.212 695.63 158.635 693.345 158.635C691.272 158.635 689.494 158.19 688.013 157.302C686.532 156.392 685.294 155.144 684.3 153.557C683.305 151.949 682.501 150.097 681.888 148.002C681.274 145.887 680.787 143.623 680.428 141.21V140.417C680.787 138.026 681.274 135.783 681.888 133.688C682.501 131.573 683.305 129.721 684.3 128.134C685.294 126.526 686.521 125.278 687.981 124.389C689.463 123.479 691.229 123.024 693.282 123.024C695.588 123.024 697.577 123.458 699.249 124.326C700.941 125.193 702.338 126.41 703.438 127.976C704.538 129.541 705.353 131.382 705.882 133.498C706.411 135.614 706.675 137.931 706.675 140.449ZM695.979 141.115V140.449C695.979 139.2 695.905 138.026 695.757 136.926C695.609 135.826 695.345 134.852 694.964 134.006C694.583 133.16 694.043 132.493 693.345 132.006C692.647 131.52 691.737 131.276 690.616 131.276C689.473 131.276 688.51 131.467 687.728 131.848C686.966 132.229 686.352 132.779 685.887 133.498C685.442 134.196 685.125 135.064 684.935 136.101C684.744 137.116 684.66 138.269 684.681 139.56V142.067C684.638 143.824 684.797 145.326 685.157 146.574C685.516 147.823 686.141 148.775 687.029 149.431C687.918 150.087 689.135 150.415 690.679 150.415C691.822 150.415 692.742 150.192 693.44 149.748C694.16 149.304 694.699 148.669 695.059 147.844C695.419 147.019 695.662 146.035 695.789 144.892C695.916 143.75 695.979 142.491 695.979 141.115ZM728.067 158.635C725.274 158.635 722.777 158.201 720.577 157.333C718.376 156.445 716.514 155.228 714.991 153.684C713.488 152.139 712.335 150.362 711.531 148.352C710.748 146.341 710.357 144.215 710.357 141.972V140.766C710.357 138.248 710.706 135.921 711.404 133.784C712.103 131.625 713.139 129.742 714.515 128.134C715.89 126.526 717.614 125.278 719.688 124.389C721.762 123.479 724.174 123.024 726.924 123.024C729.358 123.024 731.537 123.416 733.462 124.199C735.388 124.982 737.017 126.103 738.35 127.563C739.704 129.023 740.73 130.79 741.429 132.863C742.148 134.937 742.508 137.264 742.508 139.846V144.194H714.451V137.497H732.066V136.672C732.087 135.529 731.886 134.556 731.463 133.752C731.061 132.948 730.468 132.334 729.686 131.911C728.903 131.488 727.951 131.276 726.829 131.276C725.665 131.276 724.703 131.53 723.941 132.038C723.2 132.546 722.618 133.244 722.195 134.133C721.793 135 721.508 136.005 721.338 137.148C721.169 138.291 721.084 139.497 721.084 140.766V141.972C721.084 143.242 721.254 144.395 721.592 145.432C721.952 146.468 722.46 147.357 723.116 148.098C723.793 148.817 724.597 149.378 725.528 149.78C726.48 150.182 727.559 150.383 728.765 150.383C730.225 150.383 731.664 150.108 733.082 149.558C734.499 149.007 735.716 148.098 736.731 146.828L741.587 152.604C740.889 153.599 739.895 154.562 738.604 155.493C737.334 156.424 735.811 157.185 734.034 157.778C732.256 158.349 730.267 158.635 728.067 158.635Z"/><path fill="#fff" d="M572.932 216.693V235.846H614.46V216.693H572.932ZM534.984 186.979C509.924 186.979 491.129 203.626 491.129 226.538C491.129 249.629 509.924 266.097 534.984 266.097C559.865 266.097 578.66 249.629 578.66 226.538C578.66 203.626 559.865 186.979 534.984 186.979ZM534.984 206.848C547.156 206.848 555.927 214.187 555.927 226.538C555.927 238.889 547.156 246.407 534.984 246.407C522.812 246.407 513.862 238.889 513.862 226.538C513.862 214.187 522.812 206.848 534.984 206.848ZM604.078 180.177V269.319H627.885V180.177H604.078ZM517.8 276.479V344.141H627.885V276.479H604.257V292.231H541.428V276.479H517.8ZM541.428 310.489H604.257V325.167H541.428V310.489ZM773.577 180.177V345.931H796.31V180.177H773.577ZM710.569 240.679V259.832H749.054V240.679H710.569ZM739.388 183.041V338.592H761.584V183.041H739.388ZM658.659 289.546V309.236H670.115C694.28 309.236 710.748 308.52 729.185 304.761L727.395 285.429C709.137 289.009 693.564 289.546 670.115 289.546H658.659ZM658.659 198.793V297.78H682.108V217.767H721.846V198.793H658.659ZM932.157 179.998V346.289H956.143V179.998H932.157ZM866.822 191.633C841.762 191.633 823.325 214.545 823.325 250.703C823.325 287.219 841.762 310.131 866.822 310.131C891.882 310.131 910.319 287.219 910.319 250.703C910.319 214.545 891.882 191.633 866.822 191.633ZM866.822 213.292C879.173 213.292 887.407 226.359 887.407 250.703C887.407 275.405 879.173 288.651 866.822 288.651C854.471 288.651 846.058 275.405 846.058 250.703C846.058 226.359 854.471 213.292 866.822 213.292ZM1000.88 265.56V284.176H1117.41V265.56H1000.88ZM983.337 307.625V326.957H1133.34V307.625H983.337ZM1000.88 192.17V270.751H1025.04V211.323H1115.98V192.17H1000.88ZM1017.71 228.686V247.123H1112.22V228.686H1017.71ZM1256.3 223.853V242.827H1289.95V223.853H1256.3ZM1255.41 265.202V284.176H1289.24V265.202H1255.41ZM1312.51 180.177V345.931H1335.24V180.177H1312.51ZM1278.32 183.757V338.592H1300.52V183.757H1278.32ZM1240.91 199.688V204.521C1240.91 244.617 1227.48 272.183 1190.07 294.916L1203.5 311.563C1249.68 284.355 1263.82 246.765 1263.82 199.688H1240.91ZM1199.56 199.688V218.662H1248.96V199.688H1199.56ZM1362.61 192.349V209.354H1459.99V192.349H1362.61ZM1411.3 213.292C1386.6 213.292 1370.13 223.137 1370.13 238.173C1370.13 253.388 1386.6 263.054 1411.3 263.054C1436 263.054 1452.47 253.388 1452.47 238.173C1452.47 223.137 1436 213.292 1411.3 213.292ZM1411.3 229.044C1422.58 229.044 1429.74 232.087 1429.74 238.173C1429.74 244.08 1422.58 247.302 1411.3 247.302C1400.2 247.302 1392.87 244.08 1392.87 238.173C1392.87 232.087 1400.2 229.044 1411.3 229.044ZM1399.31 179.103V200.941H1423.3V179.103H1399.31ZM1399.31 254.283V277.374H1423.3V254.283H1399.31ZM1471.27 180.356V292.589H1495.25V180.356H1471.27ZM1380.69 299.033V317.291H1471.27V345.931H1495.25V299.033H1380.69ZM1360.82 289.367C1390 289.367 1428.13 288.83 1463.21 282.744L1461.42 266.813C1427.59 271.109 1387.85 271.288 1357.96 271.288L1360.82 289.367Z"/><path fill="url(#paint1_linear_330_13)" d="M572.932 216.693V235.846H614.46V216.693H572.932ZM534.984 186.979C509.924 186.979 491.129 203.626 491.129 226.538C491.129 249.629 509.924 266.097 534.984 266.097C559.865 266.097 578.66 249.629 578.66 226.538C578.66 203.626 559.865 186.979 534.984 186.979ZM534.984 206.848C547.156 206.848 555.927 214.187 555.927 226.538C555.927 238.889 547.156 246.407 534.984 246.407C522.812 246.407 513.862 238.889 513.862 226.538C513.862 214.187 522.812 206.848 534.984 206.848ZM604.078 180.177V269.319H627.885V180.177H604.078ZM517.8 276.479V344.141H627.885V276.479H604.257V292.231H541.428V276.479H517.8ZM541.428 310.489H604.257V325.167H541.428V310.489ZM773.577 180.177V345.931H796.31V180.177H773.577ZM710.569 240.679V259.832H749.054V240.679H710.569ZM739.388 183.041V338.592H761.584V183.041H739.388ZM658.659 289.546V309.236H670.115C694.28 309.236 710.748 308.52 729.185 304.761L727.395 285.429C709.137 289.009 693.564 289.546 670.115 289.546H658.659ZM658.659 198.793V297.78H682.108V217.767H721.846V198.793H658.659ZM932.157 179.998V346.289H956.143V179.998H932.157ZM866.822 191.633C841.762 191.633 823.325 214.545 823.325 250.703C823.325 287.219 841.762 310.131 866.822 310.131C891.882 310.131 910.319 287.219 910.319 250.703C910.319 214.545 891.882 191.633 866.822 191.633ZM866.822 213.292C879.173 213.292 887.407 226.359 887.407 250.703C887.407 275.405 879.173 288.651 866.822 288.651C854.471 288.651 846.058 275.405 846.058 250.703C846.058 226.359 854.471 213.292 866.822 213.292ZM1000.88 265.56V284.176H1117.41V265.56H1000.88ZM983.337 307.625V326.957H1133.34V307.625H983.337ZM1000.88 192.17V270.751H1025.04V211.323H1115.98V192.17H1000.88ZM1017.71 228.686V247.123H1112.22V228.686H1017.71ZM1256.3 223.853V242.827H1289.95V223.853H1256.3ZM1255.41 265.202V284.176H1289.24V265.202H1255.41ZM1312.51 180.177V345.931H1335.24V180.177H1312.51ZM1278.32 183.757V338.592H1300.52V183.757H1278.32ZM1240.91 199.688V204.521C1240.91 244.617 1227.48 272.183 1190.07 294.916L1203.5 311.563C1249.68 284.355 1263.82 246.765 1263.82 199.688H1240.91ZM1199.56 199.688V218.662H1248.96V199.688H1199.56ZM1362.61 192.349V209.354H1459.99V192.349H1362.61ZM1411.3 213.292C1386.6 213.292 1370.13 223.137 1370.13 238.173C1370.13 253.388 1386.6 263.054 1411.3 263.054C1436 263.054 1452.47 253.388 1452.47 238.173C1452.47 223.137 1436 213.292 1411.3 213.292ZM1411.3 229.044C1422.58 229.044 1429.74 232.087 1429.74 238.173C1429.74 244.08 1422.58 247.302 1411.3 247.302C1400.2 247.302 1392.87 244.08 1392.87 238.173C1392.87 232.087 1400.2 229.044 1411.3 229.044ZM1399.31 179.103V200.941H1423.3V179.103H1399.31ZM1399.31 254.283V277.374H1423.3V254.283H1399.31ZM1471.27 180.356V292.589H1495.25V180.356H1471.27ZM1380.69 299.033V317.291H1471.27V345.931H1495.25V299.033H1380.69ZM1360.82 289.367C1390 289.367 1428.13 288.83 1463.21 282.744L1461.42 266.813C1427.59 271.109 1387.85 271.288 1357.96 271.288L1360.82 289.367Z"/><defs><linearGradient id="paint0_linear_330_13" x1="0" x2="88.064" y1=".777" y2="9.505" gradientUnits="userSpaceOnUse"><stop stop-color="#00E1C3"/><stop offset="1" stop-color="#00D1D5"/></linearGradient><linearGradient id="paint1_linear_330_13" x1="482" x2="554.421" y1="164.371" y2="580.029" gradientUnits="userSpaceOnUse"><stop stop-color="#00E1C3"/><stop offset="1" stop-color="#00D1D5"/></linearGradient><clipPath id="clip0_330_13"><rect width="179" height="179" fill="#fff" transform="translate(189 146.5)"/></clipPath></defs></svg>