<svg xmlns="http://www.w3.org/2000/svg" width="1472" height="440" fill="none" viewBox="0 0 1472 440"><path fill="#132636" d="M3.06055 37C3.06055 16.5655 19.626 0 40.0605 0H1423.33C1447.79 0 1465.52 23.324 1458.98 46.8994L1357.63 411.899C1353.18 427.915 1338.6 439 1321.97 439H40.0606C19.6261 439 3.06055 422.435 3.06055 402V37Z"/><path fill="#132636" d="M0 37C0 16.5655 16.5654 0 37 0H39.7838V440H37C16.5654 440 0 423.435 0 403V37Z"/><path fill="url(#paint0_linear_409_23)" d="M0 37C0 16.5655 16.5654 0 37 0H39.7838V440H37C16.5654 440 0 423.435 0 403V37Z"/><path fill="url(#paint1_linear_409_23)" d="M339.24 239.163C349.416 233.319 349.415 218.678 339.238 212.836L304.727 193.042L342.697 175.39L395.065 205.427C410.978 214.555 410.978 237.445 395.065 246.573L340.201 278.042L302.231 260.39L339.24 239.163Z"/><path fill="url(#paint2_linear_409_23)" d="M223.282 259.304V279.416C223.287 291.095 235.961 298.401 246.117 292.576L267.934 280.062L305.904 297.714L224.679 344.303C208.808 353.406 189 341.985 189 323.73L189 243.366L223.282 259.304Z"/><path fill="url(#paint3_linear_409_23)" d="M308.401 155.718L270.431 173.37L246.103 159.416C235.948 153.604 223.282 160.913 223.282 172.59V195.289L189 211.226L189 128.27C189 110.015 208.808 98.5937 224.679 107.697L308.401 155.718Z"/><path fill="#fff" d="M542.011 147.114L551.627 111.789H564.101L548.517 158H540.456L542.011 147.114ZM533.283 111.789L542.899 147.114L544.518 158H536.361L520.873 111.789H533.283ZM586.159 149.653V123.659H596.886V158H586.857L586.159 149.653ZM587.174 142.67L589.967 142.607C589.967 144.913 589.692 147.05 589.142 149.018C588.592 150.965 587.777 152.657 586.698 154.096C585.64 155.535 584.328 156.656 582.763 157.46C581.218 158.243 579.43 158.635 577.399 158.635C575.706 158.635 574.151 158.402 572.733 157.937C571.337 157.45 570.131 156.699 569.115 155.683C568.1 154.646 567.306 153.324 566.735 151.716C566.185 150.087 565.91 148.14 565.91 145.876V123.659H576.605V145.939C576.605 146.701 576.701 147.357 576.891 147.907C577.082 148.457 577.357 148.923 577.716 149.304C578.076 149.663 578.52 149.938 579.049 150.129C579.599 150.298 580.224 150.383 580.922 150.383C582.53 150.383 583.789 150.044 584.699 149.367C585.609 148.69 586.243 147.77 586.603 146.606C586.984 145.442 587.174 144.13 587.174 142.67ZM619.42 158.635C616.627 158.635 614.131 158.201 611.93 157.333C609.73 156.445 607.868 155.228 606.344 153.684C604.842 152.139 603.689 150.362 602.885 148.352C602.102 146.341 601.71 144.215 601.71 141.972V140.766C601.71 138.248 602.06 135.921 602.758 133.784C603.456 131.625 604.493 129.742 605.868 128.134C607.243 126.526 608.968 125.278 611.042 124.389C613.115 123.479 615.527 123.024 618.278 123.024C620.711 123.024 622.89 123.416 624.816 124.199C626.741 124.982 628.371 126.103 629.704 127.563C631.058 129.023 632.084 130.79 632.782 132.863C633.502 134.937 633.861 137.264 633.861 139.846V144.194H605.805V137.497H623.419V136.672C623.441 135.529 623.24 134.556 622.816 133.752C622.414 132.948 621.822 132.334 621.039 131.911C620.256 131.488 619.304 131.276 618.183 131.276C617.019 131.276 616.056 131.53 615.294 132.038C614.554 132.546 613.972 133.244 613.549 134.133C613.147 135 612.861 136.005 612.692 137.148C612.523 138.291 612.438 139.497 612.438 140.766V141.972C612.438 143.242 612.607 144.395 612.946 145.432C613.306 146.468 613.813 147.357 614.469 148.098C615.146 148.817 615.95 149.378 616.881 149.78C617.833 150.182 618.913 150.383 620.119 150.383C621.579 150.383 623.017 150.108 624.435 149.558C625.853 149.007 627.069 148.098 628.085 146.828L632.941 152.604C632.243 153.599 631.248 154.562 629.958 155.493C628.688 156.424 627.165 157.185 625.387 157.778C623.61 158.349 621.621 158.635 619.42 158.635ZM661.093 111.789V158H649.953V111.789H661.093ZM674.994 111.789V120.39H636.369V111.789H674.994ZM697.179 149.653V123.659H707.907V158H697.877L697.179 149.653ZM698.195 142.67L700.988 142.607C700.988 144.913 700.713 147.05 700.163 149.018C699.612 150.965 698.798 152.657 697.719 154.096C696.661 155.535 695.349 156.656 693.783 157.46C692.239 158.243 690.451 158.635 688.419 158.635C686.727 158.635 685.172 158.402 683.754 157.937C682.357 157.45 681.151 156.699 680.136 155.683C679.12 154.646 678.327 153.324 677.755 151.716C677.205 150.087 676.93 148.14 676.93 145.876V123.659H687.626V145.939C687.626 146.701 687.721 147.357 687.912 147.907C688.102 148.457 688.377 148.923 688.737 149.304C689.097 149.663 689.541 149.938 690.07 150.129C690.62 150.298 691.244 150.383 691.942 150.383C693.55 150.383 694.809 150.044 695.719 149.367C696.629 148.69 697.264 147.77 697.624 146.606C698.004 145.442 698.195 144.13 698.195 142.67ZM713.905 109.25H724.601V149.558L723.49 158H713.905V109.25ZM745.675 140.449V141.115C745.675 143.718 745.411 146.088 744.882 148.225C744.353 150.362 743.538 152.213 742.438 153.779C741.338 155.323 739.952 156.519 738.28 157.365C736.609 158.212 734.63 158.635 732.345 158.635C730.272 158.635 728.494 158.19 727.013 157.302C725.532 156.392 724.294 155.144 723.3 153.557C722.305 151.949 721.501 150.097 720.888 148.002C720.274 145.887 719.787 143.623 719.428 141.21V140.417C719.787 138.026 720.274 135.783 720.888 133.688C721.501 131.573 722.305 129.721 723.3 128.134C724.294 126.526 725.521 125.278 726.981 124.389C728.463 123.479 730.229 123.024 732.282 123.024C734.588 123.024 736.577 123.458 738.249 124.326C739.941 125.193 741.338 126.41 742.438 127.976C743.538 129.541 744.353 131.382 744.882 133.498C745.411 135.614 745.675 137.931 745.675 140.449ZM734.979 141.115V140.449C734.979 139.2 734.905 138.026 734.757 136.926C734.609 135.826 734.345 134.852 733.964 134.006C733.583 133.16 733.043 132.493 732.345 132.006C731.647 131.52 730.737 131.276 729.616 131.276C728.473 131.276 727.51 131.467 726.728 131.848C725.966 132.229 725.352 132.779 724.887 133.498C724.442 134.196 724.125 135.064 723.935 136.101C723.744 137.116 723.66 138.269 723.681 139.56V142.067C723.638 143.824 723.797 145.326 724.157 146.574C724.516 147.823 725.141 148.775 726.029 149.431C726.918 150.087 728.135 150.415 729.679 150.415C730.822 150.415 731.742 150.192 732.44 149.748C733.16 149.304 733.699 148.669 734.059 147.844C734.419 147.019 734.662 146.035 734.789 144.892C734.916 143.75 734.979 142.491 734.979 141.115ZM767.067 158.635C764.274 158.635 761.777 158.201 759.577 157.333C757.376 156.445 755.514 155.228 753.991 153.684C752.488 152.139 751.335 150.362 750.531 148.352C749.748 146.341 749.357 144.215 749.357 141.972V140.766C749.357 138.248 749.706 135.921 750.404 133.784C751.103 131.625 752.139 129.742 753.515 128.134C754.89 126.526 756.614 125.278 758.688 124.389C760.762 123.479 763.174 123.024 765.924 123.024C768.358 123.024 770.537 123.416 772.462 124.199C774.388 124.982 776.017 126.103 777.35 127.563C778.704 129.023 779.73 130.79 780.429 132.863C781.148 134.937 781.508 137.264 781.508 139.846V144.194H753.451V137.497H771.066V136.672C771.087 135.529 770.886 134.556 770.463 133.752C770.061 132.948 769.468 132.334 768.686 131.911C767.903 131.488 766.951 131.276 765.829 131.276C764.665 131.276 763.703 131.53 762.941 132.038C762.2 132.546 761.618 133.244 761.195 134.133C760.793 135 760.508 136.005 760.338 137.148C760.169 138.291 760.084 139.497 760.084 140.766V141.972C760.084 143.242 760.254 144.395 760.592 145.432C760.952 146.468 761.46 147.357 762.116 148.098C762.793 148.817 763.597 149.378 764.528 149.78C765.48 150.182 766.559 150.383 767.765 150.383C769.225 150.383 770.664 150.108 772.082 149.558C773.499 149.007 774.716 148.098 775.731 146.828L780.587 152.604C779.889 153.599 778.895 154.562 777.604 155.493C776.334 156.424 774.811 157.185 773.034 157.778C771.256 158.349 769.267 158.635 767.067 158.635Z"/><path fill="#fff" d="M561.38 182.742V310H530.702V182.742H561.38ZM610.85 235.708V259.307H552.64V235.708H610.85ZM615.832 182.742V206.428H552.64V182.742H615.832ZM680.509 287.013V215.431H710.051V310H682.432L680.509 287.013ZM683.306 267.785L690.998 267.61C690.998 273.961 690.24 279.846 688.725 285.265C687.21 290.626 684.967 295.287 681.995 299.25C679.082 303.212 675.469 306.3 671.157 308.514C666.904 310.67 661.98 311.748 656.386 311.748C651.725 311.748 647.442 311.107 643.538 309.825C639.692 308.485 636.371 306.417 633.574 303.62C630.777 300.764 628.592 297.123 627.019 292.694C625.504 288.208 624.747 282.847 624.747 276.612V215.431H654.201V276.787C654.201 278.885 654.463 280.691 654.988 282.206C655.512 283.721 656.27 285.003 657.26 286.052C658.251 287.042 659.474 287.8 660.931 288.324C662.446 288.79 664.165 289.023 666.088 289.023C670.516 289.023 673.983 288.091 676.489 286.227C678.994 284.362 680.742 281.827 681.733 278.623C682.782 275.418 683.306 271.805 683.306 267.785ZM755.238 235.621V310H725.784V215.431H753.403L755.238 235.621ZM751.742 259.481L744.837 259.656C744.837 252.431 745.711 245.992 747.459 240.34C749.208 234.63 751.684 229.794 754.889 225.832C758.093 221.869 761.91 218.868 766.338 216.829C770.825 214.731 775.807 213.683 781.284 213.683C785.654 213.683 789.646 214.324 793.258 215.605C796.929 216.887 800.076 218.956 802.698 221.811C805.378 224.666 807.417 228.454 808.816 233.173C810.273 237.835 811.001 243.603 811.001 250.479V310H781.372V250.392C781.372 246.604 780.847 243.72 779.798 241.739C778.75 239.699 777.235 238.301 775.253 237.543C773.272 236.786 770.854 236.407 767.999 236.407C764.969 236.407 762.405 236.99 760.308 238.155C758.21 239.321 756.52 240.952 755.238 243.05C754.015 245.089 753.111 247.507 752.529 250.304C752.004 253.101 751.742 256.16 751.742 259.481ZM857.062 175.663V310H827.607V175.663H857.062ZM917.544 215.431L876.465 263.589L854.964 285.09L842.116 266.386L860.034 243.05L882.234 215.431H917.544ZM885.992 310L860.733 266.911L882.496 251.44L919.729 310H885.992ZM963.431 289.023C966.169 289.023 968.5 288.528 970.423 287.538C972.404 286.489 973.89 285.032 974.88 283.167C975.929 281.245 976.424 278.943 976.366 276.263H1004.07C1004.13 283.371 1002.38 289.606 998.829 294.967C995.333 300.269 990.555 304.406 984.495 307.378C978.493 310.291 971.705 311.748 964.13 311.748C956.73 311.748 950.262 310.554 944.727 308.165C939.191 305.717 934.559 302.338 930.83 298.026C927.159 293.656 924.391 288.557 922.526 282.73C920.72 276.904 919.817 270.582 919.817 263.764V261.754C919.817 254.937 920.72 248.614 922.526 242.788C924.391 236.903 927.159 231.804 930.83 227.492C934.559 223.122 939.162 219.743 944.639 217.354C950.175 214.906 956.613 213.683 963.955 213.683C971.821 213.683 978.755 215.168 984.757 218.14C990.817 221.112 995.566 225.424 999.003 231.076C1002.44 236.728 1004.13 243.574 1004.07 251.615H976.366C976.424 248.76 975.987 246.196 975.055 243.924C974.123 241.651 972.666 239.845 970.685 238.505C968.762 237.106 966.286 236.407 963.256 236.407C960.226 236.407 957.779 237.077 955.914 238.417C954.049 239.758 952.622 241.622 951.631 244.011C950.699 246.342 950.058 249.022 949.708 252.052C949.417 255.082 949.271 258.316 949.271 261.754V263.764C949.271 267.26 949.417 270.552 949.708 273.641C950.058 276.671 950.728 279.351 951.719 281.682C952.709 283.954 954.137 285.76 956.001 287.101C957.866 288.382 960.342 289.023 963.431 289.023ZM1047.77 215.431V310H1018.23V215.431H1047.77ZM1016.48 191.045C1016.48 186.85 1018 183.412 1021.03 180.732C1024.06 178.052 1027.99 176.711 1032.83 176.711C1037.66 176.711 1041.6 178.052 1044.63 180.732C1047.66 183.412 1049.17 186.85 1049.17 191.045C1049.17 195.241 1047.66 198.679 1044.63 201.359C1041.6 204.039 1037.66 205.379 1032.83 205.379C1027.99 205.379 1024.06 204.039 1021.03 201.359C1018 198.679 1016.48 195.241 1016.48 191.045ZM1062.28 263.677V261.841C1062.28 254.907 1063.27 248.527 1065.25 242.7C1067.24 236.815 1070.15 231.717 1073.99 227.405C1077.84 223.093 1082.59 219.743 1088.24 217.354C1093.89 214.906 1100.42 213.683 1107.82 213.683C1115.28 213.683 1121.83 214.906 1127.48 217.354C1133.2 219.743 1137.97 223.093 1141.82 227.405C1145.66 231.717 1148.58 236.815 1150.56 242.7C1152.54 248.527 1153.53 254.907 1153.53 261.841V263.677C1153.53 270.552 1152.54 276.933 1150.56 282.818C1148.58 288.645 1145.66 293.743 1141.82 298.113C1137.97 302.425 1133.22 305.776 1127.57 308.165C1121.92 310.554 1115.39 311.748 1107.99 311.748C1100.59 311.748 1094.04 310.554 1088.33 308.165C1082.62 305.776 1077.84 302.425 1073.99 298.113C1070.15 293.743 1067.24 288.645 1065.25 282.818C1063.27 276.933 1062.28 270.552 1062.28 263.677ZM1091.74 261.841V263.677C1091.74 267.231 1092 270.552 1092.52 273.641C1093.05 276.729 1093.92 279.438 1095.15 281.769C1096.37 284.042 1098.03 285.819 1100.13 287.101C1102.23 288.382 1104.85 289.023 1107.99 289.023C1111.08 289.023 1113.65 288.382 1115.69 287.101C1117.78 285.819 1119.44 284.042 1120.67 281.769C1121.89 279.438 1122.77 276.729 1123.29 273.641C1123.81 270.552 1124.08 267.231 1124.08 263.677V261.841C1124.08 258.403 1123.81 255.17 1123.29 252.14C1122.77 249.051 1121.89 246.342 1120.67 244.011C1119.44 241.622 1117.78 239.758 1115.69 238.417C1113.59 237.077 1110.97 236.407 1107.82 236.407C1104.73 236.407 1102.14 237.077 1100.04 238.417C1098 239.758 1096.37 241.622 1095.15 244.011C1093.92 246.342 1093.05 249.051 1092.52 252.14C1092 255.17 1091.74 258.403 1091.74 261.841ZM1094.53 203.194L1111.84 175.75H1142.96L1118.57 203.194H1094.53ZM1196.36 175.663V310H1166.9V175.663H1196.36ZM1256.84 215.431L1215.76 263.589L1194.26 285.09L1181.41 266.386L1199.33 243.05L1221.53 215.431H1256.84ZM1225.29 310L1200.03 266.911L1221.79 251.44L1259.03 310H1225.29Z"/><path fill="url(#paint4_linear_409_23)" d="M561.38 182.742V310H530.702V182.742H561.38ZM610.85 235.708V259.307H552.64V235.708H610.85ZM615.832 182.742V206.428H552.64V182.742H615.832ZM680.509 287.013V215.431H710.051V310H682.432L680.509 287.013ZM683.306 267.785L690.998 267.61C690.998 273.961 690.24 279.846 688.725 285.265C687.21 290.626 684.967 295.287 681.995 299.25C679.082 303.212 675.469 306.3 671.157 308.514C666.904 310.67 661.98 311.748 656.386 311.748C651.725 311.748 647.442 311.107 643.538 309.825C639.692 308.485 636.371 306.417 633.574 303.62C630.777 300.764 628.592 297.123 627.019 292.694C625.504 288.208 624.747 282.847 624.747 276.612V215.431H654.201V276.787C654.201 278.885 654.463 280.691 654.988 282.206C655.512 283.721 656.27 285.003 657.26 286.052C658.251 287.042 659.474 287.8 660.931 288.324C662.446 288.79 664.165 289.023 666.088 289.023C670.516 289.023 673.983 288.091 676.489 286.227C678.994 284.362 680.742 281.827 681.733 278.623C682.782 275.418 683.306 271.805 683.306 267.785ZM755.238 235.621V310H725.784V215.431H753.403L755.238 235.621ZM751.742 259.481L744.837 259.656C744.837 252.431 745.711 245.992 747.459 240.34C749.208 234.63 751.684 229.794 754.889 225.832C758.093 221.869 761.91 218.868 766.338 216.829C770.825 214.731 775.807 213.683 781.284 213.683C785.654 213.683 789.646 214.324 793.258 215.605C796.929 216.887 800.076 218.956 802.698 221.811C805.378 224.666 807.417 228.454 808.816 233.173C810.273 237.835 811.001 243.603 811.001 250.479V310H781.372V250.392C781.372 246.604 780.847 243.72 779.798 241.739C778.75 239.699 777.235 238.301 775.253 237.543C773.272 236.786 770.854 236.407 767.999 236.407C764.969 236.407 762.405 236.99 760.308 238.155C758.21 239.321 756.52 240.952 755.238 243.05C754.015 245.089 753.111 247.507 752.529 250.304C752.004 253.101 751.742 256.16 751.742 259.481ZM857.062 175.663V310H827.607V175.663H857.062ZM917.544 215.431L876.465 263.589L854.964 285.09L842.116 266.386L860.034 243.05L882.234 215.431H917.544ZM885.992 310L860.733 266.911L882.496 251.44L919.729 310H885.992ZM963.431 289.023C966.169 289.023 968.5 288.528 970.423 287.538C972.404 286.489 973.89 285.032 974.88 283.167C975.929 281.245 976.424 278.943 976.366 276.263H1004.07C1004.13 283.371 1002.38 289.606 998.829 294.967C995.333 300.269 990.555 304.406 984.495 307.378C978.493 310.291 971.705 311.748 964.13 311.748C956.73 311.748 950.262 310.554 944.727 308.165C939.191 305.717 934.559 302.338 930.83 298.026C927.159 293.656 924.391 288.557 922.526 282.73C920.72 276.904 919.817 270.582 919.817 263.764V261.754C919.817 254.937 920.72 248.614 922.526 242.788C924.391 236.903 927.159 231.804 930.83 227.492C934.559 223.122 939.162 219.743 944.639 217.354C950.175 214.906 956.613 213.683 963.955 213.683C971.821 213.683 978.755 215.168 984.757 218.14C990.817 221.112 995.566 225.424 999.003 231.076C1002.44 236.728 1004.13 243.574 1004.07 251.615H976.366C976.424 248.76 975.987 246.196 975.055 243.924C974.123 241.651 972.666 239.845 970.685 238.505C968.762 237.106 966.286 236.407 963.256 236.407C960.226 236.407 957.779 237.077 955.914 238.417C954.049 239.758 952.622 241.622 951.631 244.011C950.699 246.342 950.058 249.022 949.708 252.052C949.417 255.082 949.271 258.316 949.271 261.754V263.764C949.271 267.26 949.417 270.552 949.708 273.641C950.058 276.671 950.728 279.351 951.719 281.682C952.709 283.954 954.137 285.76 956.001 287.101C957.866 288.382 960.342 289.023 963.431 289.023ZM1047.77 215.431V310H1018.23V215.431H1047.77ZM1016.48 191.045C1016.48 186.85 1018 183.412 1021.03 180.732C1024.06 178.052 1027.99 176.711 1032.83 176.711C1037.66 176.711 1041.6 178.052 1044.63 180.732C1047.66 183.412 1049.17 186.85 1049.17 191.045C1049.17 195.241 1047.66 198.679 1044.63 201.359C1041.6 204.039 1037.66 205.379 1032.83 205.379C1027.99 205.379 1024.06 204.039 1021.03 201.359C1018 198.679 1016.48 195.241 1016.48 191.045ZM1062.28 263.677V261.841C1062.28 254.907 1063.27 248.527 1065.25 242.7C1067.24 236.815 1070.15 231.717 1073.99 227.405C1077.84 223.093 1082.59 219.743 1088.24 217.354C1093.89 214.906 1100.42 213.683 1107.82 213.683C1115.28 213.683 1121.83 214.906 1127.48 217.354C1133.2 219.743 1137.97 223.093 1141.82 227.405C1145.66 231.717 1148.58 236.815 1150.56 242.7C1152.54 248.527 1153.53 254.907 1153.53 261.841V263.677C1153.53 270.552 1152.54 276.933 1150.56 282.818C1148.58 288.645 1145.66 293.743 1141.82 298.113C1137.97 302.425 1133.22 305.776 1127.57 308.165C1121.92 310.554 1115.39 311.748 1107.99 311.748C1100.59 311.748 1094.04 310.554 1088.33 308.165C1082.62 305.776 1077.84 302.425 1073.99 298.113C1070.15 293.743 1067.24 288.645 1065.25 282.818C1063.27 276.933 1062.28 270.552 1062.28 263.677ZM1091.74 261.841V263.677C1091.74 267.231 1092 270.552 1092.52 273.641C1093.05 276.729 1093.92 279.438 1095.15 281.769C1096.37 284.042 1098.03 285.819 1100.13 287.101C1102.23 288.382 1104.85 289.023 1107.99 289.023C1111.08 289.023 1113.65 288.382 1115.69 287.101C1117.78 285.819 1119.44 284.042 1120.67 281.769C1121.89 279.438 1122.77 276.729 1123.29 273.641C1123.81 270.552 1124.08 267.231 1124.08 263.677V261.841C1124.08 258.403 1123.81 255.17 1123.29 252.14C1122.77 249.051 1121.89 246.342 1120.67 244.011C1119.44 241.622 1117.78 239.758 1115.69 238.417C1113.59 237.077 1110.97 236.407 1107.82 236.407C1104.73 236.407 1102.14 237.077 1100.04 238.417C1098 239.758 1096.37 241.622 1095.15 244.011C1093.92 246.342 1093.05 249.051 1092.52 252.14C1092 255.17 1091.74 258.403 1091.74 261.841ZM1094.53 203.194L1111.84 175.75H1142.96L1118.57 203.194H1094.53ZM1196.36 175.663V310H1166.9V175.663H1196.36ZM1256.84 215.431L1215.76 263.589L1194.26 285.09L1181.41 266.386L1199.33 243.05L1221.53 215.431H1256.84ZM1225.29 310L1200.03 266.911L1221.79 251.44L1259.03 310H1225.29Z"/><defs><linearGradient id="paint0_linear_409_23" x1="0" x2="89.798" y1=".777" y2="9.855" gradientUnits="userSpaceOnUse"><stop stop-color="#00E1C3"/><stop offset="1" stop-color="#00D1D5"/></linearGradient><linearGradient id="paint1_linear_409_23" x1="189" x2="436.787" y1="104.929" y2="353.473" gradientUnits="userSpaceOnUse"><stop stop-color="#00E1C3"/><stop offset="1" stop-color="#00D1D5"/></linearGradient><linearGradient id="paint2_linear_409_23" x1="189" x2="436.787" y1="104.929" y2="353.473" gradientUnits="userSpaceOnUse"><stop stop-color="#00E1C3"/><stop offset="1" stop-color="#00D1D5"/></linearGradient><linearGradient id="paint3_linear_409_23" x1="189" x2="436.787" y1="104.929" y2="353.473" gradientUnits="userSpaceOnUse"><stop stop-color="#00E1C3"/><stop offset="1" stop-color="#00D1D5"/></linearGradient><linearGradient id="paint4_linear_409_23" x1="521" x2="623.61" y1="144.371" y2="546.462" gradientUnits="userSpaceOnUse"><stop stop-color="#00E1C3"/><stop offset="1" stop-color="#00D1D5"/></linearGradient></defs></svg>