<svg xmlns="http://www.w3.org/2000/svg" width="1356" height="440" fill="none" viewBox="0 0 1356 440"><path fill="#132636" d="M3.3374 37C3.3374 16.5655 19.9029 0 40.3374 0H1308.35C1332.5 0 1350.18 22.7658 1344.2 46.1658L1250.87 411.166C1246.68 427.543 1231.92 439 1215.02 439H40.3373C19.9028 439 3.3374 422.435 3.3374 402V37Z"/><path fill="#132636" d="M0 37C0 16.5655 16.5655 0 37 0H43.3831V440H37C16.5655 440 0 423.435 0 403V37Z"/><path fill="url(#paint0_linear_409_3)" d="M0 37C0 16.5655 16.5655 0 37 0H43.3831V440H37C16.5655 440 0 423.435 0 403V37Z"/><g clip-path="url(#clip0_409_3)"><path fill="#01D8CE" d="M206.156 317.5C201.581 317.5 197.578 315.784 194.147 312.353C190.716 308.922 189 304.919 189 300.344V259.455H206.156V300.344H354.844V259.455H372V300.344C372 304.919 370.284 308.922 366.853 312.353C363.422 315.784 359.419 317.5 354.844 317.5H206.156ZM280.5 273.752L225.314 218.566L237.609 206.27L271.922 240.583V134.5H289.078V240.583L323.391 206.27L335.686 218.566L280.5 273.752Z"/></g><path fill="#fff" d="M507.011 147.114L516.627 111.789H529.101L513.517 158H505.456L507.011 147.114ZM498.283 111.789L507.899 147.114L509.518 158H501.361L485.873 111.789H498.283ZM551.159 149.653V123.659H561.886V158H551.857L551.159 149.653ZM552.174 142.67L554.967 142.607C554.967 144.913 554.692 147.05 554.142 149.018C553.592 150.965 552.777 152.657 551.698 154.096C550.64 155.535 549.328 156.656 547.763 157.46C546.218 158.243 544.43 158.635 542.399 158.635C540.706 158.635 539.151 158.402 537.733 157.937C536.337 157.45 535.131 156.699 534.115 155.683C533.1 154.646 532.306 153.324 531.735 151.716C531.185 150.087 530.91 148.14 530.91 145.876V123.659H541.605V145.939C541.605 146.701 541.701 147.357 541.891 147.907C542.082 148.457 542.357 148.923 542.716 149.304C543.076 149.663 543.52 149.938 544.049 150.129C544.599 150.298 545.224 150.383 545.922 150.383C547.53 150.383 548.789 150.044 549.699 149.367C550.609 148.69 551.243 147.77 551.603 146.606C551.984 145.442 552.174 144.13 552.174 142.67ZM584.42 158.635C581.627 158.635 579.131 158.201 576.93 157.333C574.73 156.445 572.868 155.228 571.344 153.684C569.842 152.139 568.689 150.362 567.885 148.352C567.102 146.341 566.71 144.215 566.71 141.972V140.766C566.71 138.248 567.06 135.921 567.758 133.784C568.456 131.625 569.493 129.742 570.868 128.134C572.243 126.526 573.968 125.278 576.042 124.389C578.115 123.479 580.527 123.024 583.278 123.024C585.711 123.024 587.89 123.416 589.816 124.199C591.741 124.982 593.371 126.103 594.704 127.563C596.058 129.023 597.084 130.79 597.782 132.863C598.502 134.937 598.861 137.264 598.861 139.846V144.194H570.805V137.497H588.419V136.672C588.441 135.529 588.24 134.556 587.816 133.752C587.414 132.948 586.822 132.334 586.039 131.911C585.256 131.488 584.304 131.276 583.183 131.276C582.019 131.276 581.056 131.53 580.294 132.038C579.554 132.546 578.972 133.244 578.549 134.133C578.147 135 577.861 136.005 577.692 137.148C577.523 138.291 577.438 139.497 577.438 140.766V141.972C577.438 143.242 577.607 144.395 577.946 145.432C578.306 146.468 578.813 147.357 579.469 148.098C580.146 148.817 580.95 149.378 581.881 149.78C582.833 150.182 583.913 150.383 585.119 150.383C586.579 150.383 588.017 150.108 589.435 149.558C590.853 149.007 592.069 148.098 593.085 146.828L597.941 152.604C597.243 153.599 596.248 154.562 594.958 155.493C593.688 156.424 592.165 157.185 590.387 157.778C588.61 158.349 586.621 158.635 584.42 158.635ZM626.093 111.789V158H614.953V111.789H626.093ZM639.994 111.789V120.39H601.369V111.789H639.994ZM662.179 149.653V123.659H672.907V158H662.877L662.179 149.653ZM663.195 142.67L665.988 142.607C665.988 144.913 665.713 147.05 665.163 149.018C664.612 150.965 663.798 152.657 662.719 154.096C661.661 155.535 660.349 156.656 658.783 157.46C657.239 158.243 655.451 158.635 653.419 158.635C651.727 158.635 650.172 158.402 648.754 157.937C647.357 157.45 646.151 156.699 645.136 155.683C644.12 154.646 643.327 153.324 642.755 151.716C642.205 150.087 641.93 148.14 641.93 145.876V123.659H652.626V145.939C652.626 146.701 652.721 147.357 652.912 147.907C653.102 148.457 653.377 148.923 653.737 149.304C654.097 149.663 654.541 149.938 655.07 150.129C655.62 150.298 656.244 150.383 656.942 150.383C658.55 150.383 659.809 150.044 660.719 149.367C661.629 148.69 662.264 147.77 662.624 146.606C663.004 145.442 663.195 144.13 663.195 142.67ZM678.905 109.25H689.601V149.558L688.49 158H678.905V109.25ZM710.675 140.449V141.115C710.675 143.718 710.411 146.088 709.882 148.225C709.353 150.362 708.538 152.213 707.438 153.779C706.338 155.323 704.952 156.519 703.28 157.365C701.609 158.212 699.63 158.635 697.345 158.635C695.272 158.635 693.494 158.19 692.013 157.302C690.532 156.392 689.294 155.144 688.3 153.557C687.305 151.949 686.501 150.097 685.888 148.002C685.274 145.887 684.787 143.623 684.428 141.21V140.417C684.787 138.026 685.274 135.783 685.888 133.688C686.501 131.573 687.305 129.721 688.3 128.134C689.294 126.526 690.521 125.278 691.981 124.389C693.463 123.479 695.229 123.024 697.282 123.024C699.588 123.024 701.577 123.458 703.249 124.326C704.941 125.193 706.338 126.41 707.438 127.976C708.538 129.541 709.353 131.382 709.882 133.498C710.411 135.614 710.675 137.931 710.675 140.449ZM699.979 141.115V140.449C699.979 139.2 699.905 138.026 699.757 136.926C699.609 135.826 699.345 134.852 698.964 134.006C698.583 133.16 698.043 132.493 697.345 132.006C696.647 131.52 695.737 131.276 694.616 131.276C693.473 131.276 692.51 131.467 691.728 131.848C690.966 132.229 690.352 132.779 689.887 133.498C689.442 134.196 689.125 135.064 688.935 136.101C688.744 137.116 688.66 138.269 688.681 139.56V142.067C688.638 143.824 688.797 145.326 689.157 146.574C689.516 147.823 690.141 148.775 691.029 149.431C691.918 150.087 693.135 150.415 694.679 150.415C695.822 150.415 696.742 150.192 697.44 149.748C698.16 149.304 698.699 148.669 699.059 147.844C699.419 147.019 699.662 146.035 699.789 144.892C699.916 143.75 699.979 142.491 699.979 141.115ZM732.067 158.635C729.274 158.635 726.777 158.201 724.577 157.333C722.376 156.445 720.514 155.228 718.991 153.684C717.488 152.139 716.335 150.362 715.531 148.352C714.748 146.341 714.357 144.215 714.357 141.972V140.766C714.357 138.248 714.706 135.921 715.404 133.784C716.103 131.625 717.139 129.742 718.515 128.134C719.89 126.526 721.614 125.278 723.688 124.389C725.762 123.479 728.174 123.024 730.924 123.024C733.358 123.024 735.537 123.416 737.462 124.199C739.388 124.982 741.017 126.103 742.35 127.563C743.704 129.023 744.73 130.79 745.429 132.863C746.148 134.937 746.508 137.264 746.508 139.846V144.194H718.451V137.497H736.066V136.672C736.087 135.529 735.886 134.556 735.463 133.752C735.061 132.948 734.468 132.334 733.686 131.911C732.903 131.488 731.951 131.276 730.829 131.276C729.665 131.276 728.703 131.53 727.941 132.038C727.2 132.546 726.618 133.244 726.195 134.133C725.793 135 725.508 136.005 725.338 137.148C725.169 138.291 725.084 139.497 725.084 140.766V141.972C725.084 143.242 725.254 144.395 725.592 145.432C725.952 146.468 726.46 147.357 727.116 148.098C727.793 148.817 728.597 149.378 729.528 149.78C730.48 150.182 731.559 150.383 732.765 150.383C734.225 150.383 735.664 150.108 737.082 149.558C738.499 149.007 739.716 148.098 740.731 146.828L745.587 152.604C744.889 153.599 743.895 154.562 742.604 155.493C741.334 156.424 739.811 157.185 738.034 157.778C736.256 158.349 734.267 158.635 732.067 158.635Z"/><path fill="#fff" d="M579.783 286.401V310H515.455V286.401H579.783ZM526.38 182.742V310H495.702V182.742H526.38ZM637.119 311.748C629.427 311.748 622.552 310.554 616.492 308.165C610.432 305.717 605.304 302.367 601.109 298.113C596.972 293.86 593.796 288.965 591.582 283.43C589.426 277.894 588.348 272.038 588.348 265.862V262.541C588.348 255.607 589.31 249.197 591.232 243.312C593.155 237.369 596.01 232.183 599.798 227.754C603.585 223.326 608.334 219.888 614.044 217.441C619.755 214.935 626.397 213.683 633.972 213.683C640.673 213.683 646.675 214.761 651.977 216.917C657.279 219.072 661.766 222.161 665.437 226.181C669.166 230.202 671.992 235.067 673.915 240.777C675.896 246.488 676.887 252.897 676.887 260.006V271.98H599.623V253.538H648.131V251.266C648.19 248.119 647.636 245.439 646.471 243.225C645.364 241.01 643.732 239.321 641.576 238.155C639.42 236.99 636.798 236.407 633.71 236.407C630.505 236.407 627.854 237.106 625.756 238.505C623.717 239.903 622.115 241.826 620.949 244.273C619.842 246.662 619.056 249.43 618.589 252.577C618.123 255.723 617.89 259.044 617.89 262.541V265.862C617.89 269.358 618.356 272.534 619.289 275.389C620.279 278.244 621.678 280.691 623.484 282.73C625.348 284.712 627.563 286.256 630.126 287.363C632.749 288.47 635.72 289.023 639.042 289.023C643.062 289.023 647.024 288.266 650.928 286.751C654.832 285.236 658.183 282.73 660.979 279.234L674.352 295.142C672.429 297.88 669.691 300.531 666.136 303.095C662.64 305.659 658.445 307.757 653.55 309.388C648.656 310.961 643.179 311.748 637.119 311.748ZM738.68 215.431V235.883H681.694V215.431H738.68ZM693.668 191.919H723.123V279.147C723.123 281.653 723.414 283.604 723.997 285.003C724.579 286.343 725.57 287.305 726.968 287.887C728.425 288.412 730.348 288.674 732.737 288.674C734.427 288.674 735.825 288.645 736.932 288.586C738.039 288.47 739.088 288.324 740.079 288.149V309.213C737.573 310.029 734.951 310.641 732.212 311.049C729.474 311.515 726.56 311.748 723.472 311.748C717.179 311.748 711.789 310.757 707.303 308.776C702.874 306.795 699.495 303.678 697.164 299.424C694.833 295.171 693.668 289.635 693.668 282.818V191.919ZM744.099 263.677V261.841C744.099 254.907 745.09 248.527 747.071 242.7C749.052 236.815 751.965 231.717 755.811 227.405C759.657 223.093 764.406 219.743 770.058 217.354C775.71 214.906 782.236 213.683 789.636 213.683C797.094 213.683 803.649 214.906 809.301 217.354C815.012 219.743 819.79 223.093 823.635 227.405C827.481 231.717 830.394 236.815 832.375 242.7C834.357 248.527 835.347 254.907 835.347 261.841V263.677C835.347 270.552 834.357 276.933 832.375 282.818C830.394 288.645 827.481 293.743 823.635 298.113C819.79 302.425 815.041 305.776 809.389 308.165C803.737 310.554 797.211 311.748 789.811 311.748C782.41 311.748 775.855 310.554 770.145 308.165C764.435 305.776 759.657 302.425 755.811 298.113C751.965 293.743 749.052 288.645 747.071 282.818C745.09 276.933 744.099 270.552 744.099 263.677ZM773.554 261.841V263.677C773.554 267.231 773.816 270.552 774.34 273.641C774.865 276.729 775.739 279.438 776.962 281.769C778.186 284.042 779.847 285.819 781.944 287.101C784.042 288.382 786.664 289.023 789.811 289.023C792.899 289.023 795.463 288.382 797.502 287.101C799.6 285.819 801.26 284.042 802.484 281.769C803.708 279.438 804.582 276.729 805.106 273.641C805.63 270.552 805.893 267.231 805.893 263.677V261.841C805.893 258.403 805.63 255.17 805.106 252.14C804.582 249.051 803.708 246.342 802.484 244.011C801.26 241.622 799.6 239.758 797.502 238.417C795.404 237.077 792.782 236.407 789.636 236.407C786.548 236.407 783.955 237.077 781.857 238.417C779.818 239.758 778.186 241.622 776.962 244.011C775.739 246.342 774.865 249.051 774.34 252.14C773.816 255.17 773.554 258.403 773.554 261.841ZM753.713 190.696C753.713 187.433 755.024 184.694 757.646 182.48C760.269 180.208 763.357 179.071 766.911 179.071C770.524 179.071 773.612 180.208 776.176 182.48C778.798 184.694 780.109 187.433 780.109 190.696C780.109 193.959 778.798 196.727 776.176 198.999C773.612 201.213 770.524 202.32 766.911 202.32C763.357 202.32 760.269 201.213 757.646 198.999C755.024 196.727 753.713 193.959 753.713 190.696ZM799.075 190.696C799.075 187.433 800.386 184.694 803.008 182.48C805.63 180.208 808.719 179.071 812.273 179.071C815.886 179.071 818.974 180.208 821.538 182.48C824.16 184.694 825.471 187.433 825.471 190.696C825.471 193.959 824.16 196.727 821.538 198.999C818.974 201.213 815.886 202.32 812.273 202.32C808.719 202.32 805.63 201.213 803.008 198.999C800.386 196.727 799.075 193.959 799.075 190.696ZM879.573 175.75V310H850.031V175.75H879.573ZM947.572 215.431V235.883H890.585V215.431H947.572ZM902.56 191.919H932.014V279.147C932.014 281.653 932.306 283.604 932.888 285.003C933.471 286.343 934.461 287.305 935.86 287.887C937.317 288.412 939.239 288.674 941.628 288.674C943.318 288.674 944.717 288.645 945.824 288.586C946.931 288.47 947.98 288.324 948.97 288.149V309.213C946.465 310.029 943.843 310.641 941.104 311.049C938.365 311.515 935.452 311.748 932.364 311.748C926.071 311.748 920.681 310.757 916.194 308.776C911.766 306.795 908.386 303.678 906.056 299.424C903.725 295.171 902.56 289.635 902.56 282.818V191.919ZM1005.08 311.748C997.391 311.748 990.515 310.554 984.456 308.165C978.396 305.717 973.268 302.367 969.073 298.113C964.936 293.86 961.76 288.965 959.546 283.43C957.39 277.894 956.312 272.038 956.312 265.862V262.541C956.312 255.607 957.273 249.197 959.196 243.312C961.119 237.369 963.974 232.183 967.762 227.754C971.549 223.326 976.298 219.888 982.008 217.441C987.719 214.935 994.361 213.683 1001.94 213.683C1008.64 213.683 1014.64 214.761 1019.94 216.917C1025.24 219.072 1029.73 222.161 1033.4 226.181C1037.13 230.202 1039.96 235.067 1041.88 240.777C1043.86 246.488 1044.85 252.897 1044.85 260.006V271.98H967.587V253.538H1016.1V251.266C1016.15 248.119 1015.6 245.439 1014.43 243.225C1013.33 241.01 1011.7 239.321 1009.54 238.155C1007.38 236.99 1004.76 236.407 1001.67 236.407C998.469 236.407 995.818 237.106 993.72 238.505C991.681 239.903 990.078 241.826 988.913 244.273C987.806 246.662 987.019 249.43 986.553 252.577C986.087 255.723 985.854 259.044 985.854 262.541V265.862C985.854 269.358 986.32 272.534 987.252 275.389C988.243 278.244 989.641 280.691 991.448 282.73C993.312 284.712 995.527 286.256 998.09 287.363C1000.71 288.47 1003.68 289.023 1007.01 289.023C1011.03 289.023 1014.99 288.266 1018.89 286.751C1022.8 285.236 1026.15 282.73 1028.94 279.234L1042.32 295.142C1040.39 297.88 1037.65 300.531 1034.1 303.095C1030.6 305.659 1026.41 307.757 1021.51 309.388C1016.62 310.961 1011.14 311.748 1005.08 311.748ZM984.193 203.107L1001.5 175.663H1032.61L1008.23 203.107H984.193ZM1106.38 283.43C1106.38 281.798 1105.83 280.4 1104.72 279.234C1103.67 278.011 1101.81 276.904 1099.13 275.913C1096.45 274.864 1092.69 273.815 1087.85 272.767C1083.25 271.776 1078.91 270.465 1074.83 268.833C1070.81 267.202 1067.28 265.221 1064.25 262.89C1061.22 260.559 1058.83 257.792 1057.09 254.587C1055.4 251.382 1054.55 247.711 1054.55 243.574C1054.55 239.554 1055.4 235.766 1057.09 232.212C1058.83 228.599 1061.37 225.424 1064.69 222.685C1068.07 219.888 1072.18 217.703 1077.01 216.13C1081.85 214.498 1087.36 213.683 1093.53 213.683C1102.04 213.683 1109.38 214.994 1115.56 217.616C1121.74 220.18 1126.48 223.792 1129.81 228.454C1133.19 233.057 1134.88 238.388 1134.88 244.448H1105.42C1105.42 242.059 1105.01 240.02 1104.2 238.33C1103.44 236.64 1102.19 235.358 1100.44 234.484C1098.69 233.552 1096.36 233.086 1093.45 233.086C1091.41 233.086 1089.54 233.465 1087.85 234.222C1086.22 234.98 1084.91 236.028 1083.92 237.369C1082.93 238.709 1082.43 240.282 1082.43 242.088C1082.43 243.37 1082.72 244.536 1083.31 245.584C1083.95 246.575 1084.91 247.507 1086.19 248.381C1087.47 249.197 1089.11 249.955 1091.09 250.654C1093.07 251.295 1095.46 251.877 1098.25 252.402C1104.6 253.567 1110.55 255.228 1116.08 257.384C1121.62 259.54 1126.11 262.599 1129.54 266.561C1133.04 270.523 1134.79 275.855 1134.79 282.556C1134.79 286.751 1133.83 290.626 1131.9 294.18C1129.98 297.676 1127.21 300.764 1123.6 303.445C1119.99 306.067 1115.65 308.106 1110.58 309.563C1105.51 311.02 1099.8 311.748 1093.45 311.748C1084.41 311.748 1076.78 310.146 1070.55 306.941C1064.31 303.678 1059.59 299.599 1056.39 294.705C1053.24 289.752 1051.67 284.741 1051.67 279.671H1079.11C1079.23 282.585 1079.93 284.974 1081.21 286.838C1082.55 288.703 1084.33 290.072 1086.54 290.946C1088.76 291.82 1091.32 292.257 1094.23 292.257C1096.91 292.257 1099.13 291.879 1100.88 291.121C1102.68 290.364 1104.05 289.344 1104.98 288.062C1105.92 286.722 1106.38 285.178 1106.38 283.43Z"/><path fill="url(#paint1_linear_409_3)" d="M579.783 286.401V310H515.455V286.401H579.783ZM526.38 182.742V310H495.702V182.742H526.38ZM637.119 311.748C629.427 311.748 622.552 310.554 616.492 308.165C610.432 305.717 605.304 302.367 601.109 298.113C596.972 293.86 593.796 288.965 591.582 283.43C589.426 277.894 588.348 272.038 588.348 265.862V262.541C588.348 255.607 589.31 249.197 591.232 243.312C593.155 237.369 596.01 232.183 599.798 227.754C603.585 223.326 608.334 219.888 614.044 217.441C619.755 214.935 626.397 213.683 633.972 213.683C640.673 213.683 646.675 214.761 651.977 216.917C657.279 219.072 661.766 222.161 665.437 226.181C669.166 230.202 671.992 235.067 673.915 240.777C675.896 246.488 676.887 252.897 676.887 260.006V271.98H599.623V253.538H648.131V251.266C648.19 248.119 647.636 245.439 646.471 243.225C645.364 241.01 643.732 239.321 641.576 238.155C639.42 236.99 636.798 236.407 633.71 236.407C630.505 236.407 627.854 237.106 625.756 238.505C623.717 239.903 622.115 241.826 620.949 244.273C619.842 246.662 619.056 249.43 618.589 252.577C618.123 255.723 617.89 259.044 617.89 262.541V265.862C617.89 269.358 618.356 272.534 619.289 275.389C620.279 278.244 621.678 280.691 623.484 282.73C625.348 284.712 627.563 286.256 630.126 287.363C632.749 288.47 635.72 289.023 639.042 289.023C643.062 289.023 647.024 288.266 650.928 286.751C654.832 285.236 658.183 282.73 660.979 279.234L674.352 295.142C672.429 297.88 669.691 300.531 666.136 303.095C662.64 305.659 658.445 307.757 653.55 309.388C648.656 310.961 643.179 311.748 637.119 311.748ZM738.68 215.431V235.883H681.694V215.431H738.68ZM693.668 191.919H723.123V279.147C723.123 281.653 723.414 283.604 723.997 285.003C724.579 286.343 725.57 287.305 726.968 287.887C728.425 288.412 730.348 288.674 732.737 288.674C734.427 288.674 735.825 288.645 736.932 288.586C738.039 288.47 739.088 288.324 740.079 288.149V309.213C737.573 310.029 734.951 310.641 732.212 311.049C729.474 311.515 726.56 311.748 723.472 311.748C717.179 311.748 711.789 310.757 707.303 308.776C702.874 306.795 699.495 303.678 697.164 299.424C694.833 295.171 693.668 289.635 693.668 282.818V191.919ZM744.099 263.677V261.841C744.099 254.907 745.09 248.527 747.071 242.7C749.052 236.815 751.965 231.717 755.811 227.405C759.657 223.093 764.406 219.743 770.058 217.354C775.71 214.906 782.236 213.683 789.636 213.683C797.094 213.683 803.649 214.906 809.301 217.354C815.012 219.743 819.79 223.093 823.635 227.405C827.481 231.717 830.394 236.815 832.375 242.7C834.357 248.527 835.347 254.907 835.347 261.841V263.677C835.347 270.552 834.357 276.933 832.375 282.818C830.394 288.645 827.481 293.743 823.635 298.113C819.79 302.425 815.041 305.776 809.389 308.165C803.737 310.554 797.211 311.748 789.811 311.748C782.41 311.748 775.855 310.554 770.145 308.165C764.435 305.776 759.657 302.425 755.811 298.113C751.965 293.743 749.052 288.645 747.071 282.818C745.09 276.933 744.099 270.552 744.099 263.677ZM773.554 261.841V263.677C773.554 267.231 773.816 270.552 774.34 273.641C774.865 276.729 775.739 279.438 776.962 281.769C778.186 284.042 779.847 285.819 781.944 287.101C784.042 288.382 786.664 289.023 789.811 289.023C792.899 289.023 795.463 288.382 797.502 287.101C799.6 285.819 801.26 284.042 802.484 281.769C803.708 279.438 804.582 276.729 805.106 273.641C805.63 270.552 805.893 267.231 805.893 263.677V261.841C805.893 258.403 805.63 255.17 805.106 252.14C804.582 249.051 803.708 246.342 802.484 244.011C801.26 241.622 799.6 239.758 797.502 238.417C795.404 237.077 792.782 236.407 789.636 236.407C786.548 236.407 783.955 237.077 781.857 238.417C779.818 239.758 778.186 241.622 776.962 244.011C775.739 246.342 774.865 249.051 774.34 252.14C773.816 255.17 773.554 258.403 773.554 261.841ZM753.713 190.696C753.713 187.433 755.024 184.694 757.646 182.48C760.269 180.208 763.357 179.071 766.911 179.071C770.524 179.071 773.612 180.208 776.176 182.48C778.798 184.694 780.109 187.433 780.109 190.696C780.109 193.959 778.798 196.727 776.176 198.999C773.612 201.213 770.524 202.32 766.911 202.32C763.357 202.32 760.269 201.213 757.646 198.999C755.024 196.727 753.713 193.959 753.713 190.696ZM799.075 190.696C799.075 187.433 800.386 184.694 803.008 182.48C805.63 180.208 808.719 179.071 812.273 179.071C815.886 179.071 818.974 180.208 821.538 182.48C824.16 184.694 825.471 187.433 825.471 190.696C825.471 193.959 824.16 196.727 821.538 198.999C818.974 201.213 815.886 202.32 812.273 202.32C808.719 202.32 805.63 201.213 803.008 198.999C800.386 196.727 799.075 193.959 799.075 190.696ZM879.573 175.75V310H850.031V175.75H879.573ZM947.572 215.431V235.883H890.585V215.431H947.572ZM902.56 191.919H932.014V279.147C932.014 281.653 932.306 283.604 932.888 285.003C933.471 286.343 934.461 287.305 935.86 287.887C937.317 288.412 939.239 288.674 941.628 288.674C943.318 288.674 944.717 288.645 945.824 288.586C946.931 288.47 947.98 288.324 948.97 288.149V309.213C946.465 310.029 943.843 310.641 941.104 311.049C938.365 311.515 935.452 311.748 932.364 311.748C926.071 311.748 920.681 310.757 916.194 308.776C911.766 306.795 908.386 303.678 906.056 299.424C903.725 295.171 902.56 289.635 902.56 282.818V191.919ZM1005.08 311.748C997.391 311.748 990.515 310.554 984.456 308.165C978.396 305.717 973.268 302.367 969.073 298.113C964.936 293.86 961.76 288.965 959.546 283.43C957.39 277.894 956.312 272.038 956.312 265.862V262.541C956.312 255.607 957.273 249.197 959.196 243.312C961.119 237.369 963.974 232.183 967.762 227.754C971.549 223.326 976.298 219.888 982.008 217.441C987.719 214.935 994.361 213.683 1001.94 213.683C1008.64 213.683 1014.64 214.761 1019.94 216.917C1025.24 219.072 1029.73 222.161 1033.4 226.181C1037.13 230.202 1039.96 235.067 1041.88 240.777C1043.86 246.488 1044.85 252.897 1044.85 260.006V271.98H967.587V253.538H1016.1V251.266C1016.15 248.119 1015.6 245.439 1014.43 243.225C1013.33 241.01 1011.7 239.321 1009.54 238.155C1007.38 236.99 1004.76 236.407 1001.67 236.407C998.469 236.407 995.818 237.106 993.72 238.505C991.681 239.903 990.078 241.826 988.913 244.273C987.806 246.662 987.019 249.43 986.553 252.577C986.087 255.723 985.854 259.044 985.854 262.541V265.862C985.854 269.358 986.32 272.534 987.252 275.389C988.243 278.244 989.641 280.691 991.448 282.73C993.312 284.712 995.527 286.256 998.09 287.363C1000.71 288.47 1003.68 289.023 1007.01 289.023C1011.03 289.023 1014.99 288.266 1018.89 286.751C1022.8 285.236 1026.15 282.73 1028.94 279.234L1042.32 295.142C1040.39 297.88 1037.65 300.531 1034.1 303.095C1030.6 305.659 1026.41 307.757 1021.51 309.388C1016.62 310.961 1011.14 311.748 1005.08 311.748ZM984.193 203.107L1001.5 175.663H1032.61L1008.23 203.107H984.193ZM1106.38 283.43C1106.38 281.798 1105.83 280.4 1104.72 279.234C1103.67 278.011 1101.81 276.904 1099.13 275.913C1096.45 274.864 1092.69 273.815 1087.85 272.767C1083.25 271.776 1078.91 270.465 1074.83 268.833C1070.81 267.202 1067.28 265.221 1064.25 262.89C1061.22 260.559 1058.83 257.792 1057.09 254.587C1055.4 251.382 1054.55 247.711 1054.55 243.574C1054.55 239.554 1055.4 235.766 1057.09 232.212C1058.83 228.599 1061.37 225.424 1064.69 222.685C1068.07 219.888 1072.18 217.703 1077.01 216.13C1081.85 214.498 1087.36 213.683 1093.53 213.683C1102.04 213.683 1109.38 214.994 1115.56 217.616C1121.74 220.18 1126.48 223.792 1129.81 228.454C1133.19 233.057 1134.88 238.388 1134.88 244.448H1105.42C1105.42 242.059 1105.01 240.02 1104.2 238.33C1103.44 236.64 1102.19 235.358 1100.44 234.484C1098.69 233.552 1096.36 233.086 1093.45 233.086C1091.41 233.086 1089.54 233.465 1087.85 234.222C1086.22 234.98 1084.91 236.028 1083.92 237.369C1082.93 238.709 1082.43 240.282 1082.43 242.088C1082.43 243.37 1082.72 244.536 1083.31 245.584C1083.95 246.575 1084.91 247.507 1086.19 248.381C1087.47 249.197 1089.11 249.955 1091.09 250.654C1093.07 251.295 1095.46 251.877 1098.25 252.402C1104.6 253.567 1110.55 255.228 1116.08 257.384C1121.62 259.54 1126.11 262.599 1129.54 266.561C1133.04 270.523 1134.79 275.855 1134.79 282.556C1134.79 286.751 1133.83 290.626 1131.9 294.18C1129.98 297.676 1127.21 300.764 1123.6 303.445C1119.99 306.067 1115.65 308.106 1110.58 309.563C1105.51 311.02 1099.8 311.748 1093.45 311.748C1084.41 311.748 1076.78 310.146 1070.55 306.941C1064.31 303.678 1059.59 299.599 1056.39 294.705C1053.24 289.752 1051.67 284.741 1051.67 279.671H1079.11C1079.23 282.585 1079.93 284.974 1081.21 286.838C1082.55 288.703 1084.33 290.072 1086.54 290.946C1088.76 291.82 1091.32 292.257 1094.23 292.257C1096.91 292.257 1099.13 291.879 1100.88 291.121C1102.68 290.364 1104.05 289.344 1104.98 288.062C1105.92 286.722 1106.38 285.178 1106.38 283.43Z"/><defs><linearGradient id="paint0_linear_409_3" x1="0" x2="97.736" y1=".777" y2="11.552" gradientUnits="userSpaceOnUse"><stop stop-color="#00E1C3"/><stop offset="1" stop-color="#00D1D5"/></linearGradient><linearGradient id="paint1_linear_409_3" x1="486" x2="599.478" y1="144.371" y2="540.107" gradientUnits="userSpaceOnUse"><stop stop-color="#00E1C3"/><stop offset="1" stop-color="#00D1D5"/></linearGradient><clipPath id="clip0_409_3"><rect width="183" height="183" fill="#fff" transform="translate(189 134.5)"/></clipPath></defs></svg>