<svg xmlns="http://www.w3.org/2000/svg" width="1256" height="440" fill="none" viewBox="0 0 1256 440"><path fill="#132636" d="M3.0835 37C3.0835 16.5655 19.649 0 40.0835 0H1209.21C1233.1 0 1250.72 22.2884 1245.22 45.5272L1158.77 410.527C1154.82 427.215 1139.92 439 1122.77 439H40.0834C19.6489 439 3.0835 422.435 3.0835 402V37Z"/><path fill="#132636" d="M0 37C0 16.5655 16.5655 0 37 0H40.0851V440H37C16.5655 440 0 423.435 0 403V37Z"/><path fill="url(#paint0_linear_409_13)" d="M0 37C0 16.5655 16.5655 0 37 0H40.0851V440H37C16.5655 440 0 423.435 0 403V37Z"/><g clip-path="url(#clip0_409_13)"><path fill="#01D8CE" d="M324.112 144.293C326.467 141.855 329.284 139.91 332.398 138.572C335.513 137.235 338.862 136.53 342.252 136.501C345.641 136.472 349.002 137.117 352.139 138.401C355.277 139.684 358.127 141.58 360.523 143.977C362.92 146.373 364.816 149.223 366.099 152.361C367.383 155.498 368.028 158.859 367.999 162.248C367.97 165.638 367.265 168.987 365.928 172.102C364.59 175.216 362.645 178.033 360.207 180.388L350.086 190.509L313.991 154.414L324.112 144.293V144.293ZM295.944 172.462L189 279.405V315.5H225.095L332.051 208.556L295.931 172.462H295.944Z"/></g><path fill="#fff" d="M503.011 147.114L512.627 111.789H525.101L509.517 158H501.456L503.011 147.114ZM494.283 111.789L503.899 147.114L505.518 158H497.361L481.873 111.789H494.283ZM547.159 149.653V123.659H557.886V158H547.857L547.159 149.653ZM548.174 142.67L550.967 142.607C550.967 144.913 550.692 147.05 550.142 149.018C549.592 150.965 548.777 152.657 547.698 154.096C546.64 155.535 545.328 156.656 543.763 157.46C542.218 158.243 540.43 158.635 538.399 158.635C536.706 158.635 535.151 158.402 533.733 157.937C532.337 157.45 531.131 156.699 530.115 155.683C529.1 154.646 528.306 153.324 527.735 151.716C527.185 150.087 526.91 148.14 526.91 145.876V123.659H537.605V145.939C537.605 146.701 537.701 147.357 537.891 147.907C538.082 148.457 538.357 148.923 538.716 149.304C539.076 149.663 539.52 149.938 540.049 150.129C540.599 150.298 541.224 150.383 541.922 150.383C543.53 150.383 544.789 150.044 545.699 149.367C546.609 148.69 547.243 147.77 547.603 146.606C547.984 145.442 548.174 144.13 548.174 142.67ZM580.42 158.635C577.627 158.635 575.131 158.201 572.93 157.333C570.73 156.445 568.868 155.228 567.344 153.684C565.842 152.139 564.689 150.362 563.885 148.352C563.102 146.341 562.71 144.215 562.71 141.972V140.766C562.71 138.248 563.06 135.921 563.758 133.784C564.456 131.625 565.493 129.742 566.868 128.134C568.243 126.526 569.968 125.278 572.042 124.389C574.115 123.479 576.527 123.024 579.278 123.024C581.711 123.024 583.89 123.416 585.816 124.199C587.741 124.982 589.371 126.103 590.704 127.563C592.058 129.023 593.084 130.79 593.782 132.863C594.502 134.937 594.861 137.264 594.861 139.846V144.194H566.805V137.497H584.419V136.672C584.441 135.529 584.24 134.556 583.816 133.752C583.414 132.948 582.822 132.334 582.039 131.911C581.256 131.488 580.304 131.276 579.183 131.276C578.019 131.276 577.056 131.53 576.294 132.038C575.554 132.546 574.972 133.244 574.549 134.133C574.147 135 573.861 136.005 573.692 137.148C573.523 138.291 573.438 139.497 573.438 140.766V141.972C573.438 143.242 573.607 144.395 573.946 145.432C574.306 146.468 574.813 147.357 575.469 148.098C576.146 148.817 576.95 149.378 577.881 149.78C578.833 150.182 579.913 150.383 581.119 150.383C582.579 150.383 584.017 150.108 585.435 149.558C586.853 149.007 588.069 148.098 589.085 146.828L593.941 152.604C593.243 153.599 592.248 154.562 590.958 155.493C589.688 156.424 588.165 157.185 586.387 157.778C584.61 158.349 582.621 158.635 580.42 158.635ZM622.093 111.789V158H610.953V111.789H622.093ZM635.994 111.789V120.39H597.369V111.789H635.994ZM658.179 149.653V123.659H668.907V158H658.877L658.179 149.653ZM659.195 142.67L661.988 142.607C661.988 144.913 661.713 147.05 661.163 149.018C660.612 150.965 659.798 152.657 658.719 154.096C657.661 155.535 656.349 156.656 654.783 157.46C653.239 158.243 651.451 158.635 649.419 158.635C647.727 158.635 646.172 158.402 644.754 157.937C643.357 157.45 642.151 156.699 641.136 155.683C640.12 154.646 639.327 153.324 638.755 151.716C638.205 150.087 637.93 148.14 637.93 145.876V123.659H648.626V145.939C648.626 146.701 648.721 147.357 648.912 147.907C649.102 148.457 649.377 148.923 649.737 149.304C650.097 149.663 650.541 149.938 651.07 150.129C651.62 150.298 652.244 150.383 652.942 150.383C654.55 150.383 655.809 150.044 656.719 149.367C657.629 148.69 658.264 147.77 658.624 146.606C659.004 145.442 659.195 144.13 659.195 142.67ZM674.905 109.25H685.601V149.558L684.49 158H674.905V109.25ZM706.675 140.449V141.115C706.675 143.718 706.411 146.088 705.882 148.225C705.353 150.362 704.538 152.213 703.438 153.779C702.338 155.323 700.952 156.519 699.28 157.365C697.609 158.212 695.63 158.635 693.345 158.635C691.272 158.635 689.494 158.19 688.013 157.302C686.532 156.392 685.294 155.144 684.3 153.557C683.305 151.949 682.501 150.097 681.888 148.002C681.274 145.887 680.787 143.623 680.428 141.21V140.417C680.787 138.026 681.274 135.783 681.888 133.688C682.501 131.573 683.305 129.721 684.3 128.134C685.294 126.526 686.521 125.278 687.981 124.389C689.463 123.479 691.229 123.024 693.282 123.024C695.588 123.024 697.577 123.458 699.249 124.326C700.941 125.193 702.338 126.41 703.438 127.976C704.538 129.541 705.353 131.382 705.882 133.498C706.411 135.614 706.675 137.931 706.675 140.449ZM695.979 141.115V140.449C695.979 139.2 695.905 138.026 695.757 136.926C695.609 135.826 695.345 134.852 694.964 134.006C694.583 133.16 694.043 132.493 693.345 132.006C692.647 131.52 691.737 131.276 690.616 131.276C689.473 131.276 688.51 131.467 687.728 131.848C686.966 132.229 686.352 132.779 685.887 133.498C685.442 134.196 685.125 135.064 684.935 136.101C684.744 137.116 684.66 138.269 684.681 139.56V142.067C684.638 143.824 684.797 145.326 685.157 146.574C685.516 147.823 686.141 148.775 687.029 149.431C687.918 150.087 689.135 150.415 690.679 150.415C691.822 150.415 692.742 150.192 693.44 149.748C694.16 149.304 694.699 148.669 695.059 147.844C695.419 147.019 695.662 146.035 695.789 144.892C695.916 143.75 695.979 142.491 695.979 141.115ZM728.067 158.635C725.274 158.635 722.777 158.201 720.577 157.333C718.376 156.445 716.514 155.228 714.991 153.684C713.488 152.139 712.335 150.362 711.531 148.352C710.748 146.341 710.357 144.215 710.357 141.972V140.766C710.357 138.248 710.706 135.921 711.404 133.784C712.103 131.625 713.139 129.742 714.515 128.134C715.89 126.526 717.614 125.278 719.688 124.389C721.762 123.479 724.174 123.024 726.924 123.024C729.358 123.024 731.537 123.416 733.462 124.199C735.388 124.982 737.017 126.103 738.35 127.563C739.704 129.023 740.73 130.79 741.429 132.863C742.148 134.937 742.508 137.264 742.508 139.846V144.194H714.451V137.497H732.066V136.672C732.087 135.529 731.886 134.556 731.463 133.752C731.061 132.948 730.468 132.334 729.686 131.911C728.903 131.488 727.951 131.276 726.829 131.276C725.665 131.276 724.703 131.53 723.941 132.038C723.2 132.546 722.618 133.244 722.195 134.133C721.793 135 721.508 136.005 721.338 137.148C721.169 138.291 721.084 139.497 721.084 140.766V141.972C721.084 143.242 721.254 144.395 721.592 145.432C721.952 146.468 722.46 147.357 723.116 148.098C723.793 148.817 724.597 149.378 725.528 149.78C726.48 150.182 727.559 150.383 728.765 150.383C730.225 150.383 731.664 150.108 733.082 149.558C734.499 149.007 735.716 148.098 736.731 146.828L741.587 152.604C740.889 153.599 739.895 154.562 738.604 155.493C737.334 156.424 735.811 157.185 734.034 157.778C732.256 158.349 730.267 158.635 728.067 158.635Z"/><path fill="#fff" d="M553.32 182.742V310H522.642V182.742H553.32ZM591.603 182.742V206.428H485.234V182.742H591.603ZM641.16 311.748C633.468 311.748 626.593 310.554 620.533 308.165C614.473 305.717 609.345 302.367 605.15 298.113C601.013 293.86 597.837 288.965 595.623 283.43C593.467 277.894 592.389 272.038 592.389 265.862V262.541C592.389 255.607 593.351 249.197 595.273 243.312C597.196 237.369 600.051 232.183 603.839 227.754C607.626 223.326 612.375 219.888 618.085 217.441C623.796 214.935 630.438 213.683 638.013 213.683C644.714 213.683 650.716 214.761 656.018 216.917C661.32 219.072 665.807 222.161 669.478 226.181C673.207 230.202 676.033 235.067 677.956 240.777C679.937 246.488 680.928 252.897 680.928 260.006V271.98H603.664V253.538H652.172V251.266C652.231 248.119 651.677 245.439 650.512 243.225C649.405 241.01 647.773 239.321 645.617 238.155C643.461 236.99 640.839 236.407 637.751 236.407C634.546 236.407 631.895 237.106 629.797 238.505C627.758 239.903 626.156 241.826 624.99 244.273C623.883 246.662 623.097 249.43 622.63 252.577C622.164 255.723 621.931 259.044 621.931 262.541V265.862C621.931 269.358 622.397 272.534 623.33 275.389C624.32 278.244 625.719 280.691 627.525 282.73C629.389 284.712 631.604 286.256 634.167 287.363C636.79 288.47 639.761 289.023 643.083 289.023C647.103 289.023 651.065 288.266 654.969 286.751C658.873 285.236 662.224 282.73 665.021 279.234L678.393 295.142C676.47 297.88 673.732 300.531 670.177 303.095C666.681 305.659 662.486 307.757 657.591 309.388C652.697 310.961 647.22 311.748 641.16 311.748ZM722.619 238.854V310H693.164V215.431H720.696L722.619 238.854ZM750.587 214.731L750.063 242.088C748.898 241.972 747.324 241.826 745.343 241.651C743.362 241.477 741.701 241.389 740.361 241.389C736.924 241.389 733.952 241.797 731.446 242.613C728.999 243.37 726.96 244.536 725.328 246.109C723.755 247.624 722.59 249.547 721.832 251.877C721.133 254.208 720.812 256.918 720.871 260.006L715.539 256.51C715.539 250.159 716.151 244.39 717.375 239.204C718.656 233.96 720.463 229.444 722.793 225.657C725.124 221.811 727.95 218.868 731.271 216.829C734.593 214.731 738.322 213.683 742.459 213.683C743.916 213.683 745.343 213.77 746.742 213.945C748.198 214.12 749.48 214.382 750.587 214.731ZM796.386 289.81L815.003 215.431H846.031L815.09 310H796.736L796.386 289.81ZM785.374 215.431L803.728 289.81L803.553 310H785.111L754.258 215.431H785.374ZM899.346 311.748C891.655 311.748 884.779 310.554 878.719 308.165C872.659 305.717 867.532 302.367 863.336 298.113C859.199 293.86 856.024 288.965 853.81 283.43C851.654 277.894 850.576 272.038 850.576 265.862V262.541C850.576 255.607 851.537 249.197 853.46 243.312C855.383 237.369 858.238 232.183 862.025 227.754C865.813 223.326 870.562 219.888 876.272 217.441C881.982 214.935 888.625 213.683 896.2 213.683C902.901 213.683 908.902 214.761 914.205 216.917C919.507 219.072 923.994 222.161 927.665 226.181C931.394 230.202 934.22 235.067 936.143 240.777C938.124 246.488 939.114 252.897 939.114 260.006V271.98H861.851V253.538H910.359V251.266C910.417 248.119 909.864 245.439 908.698 243.225C907.591 241.01 905.96 239.321 903.804 238.155C901.648 236.99 899.026 236.407 895.938 236.407C892.733 236.407 890.082 237.106 887.984 238.505C885.944 239.903 884.342 241.826 883.177 244.273C882.07 246.662 881.283 249.43 880.817 252.577C880.351 255.723 880.118 259.044 880.118 262.541V265.862C880.118 269.358 880.584 272.534 881.516 275.389C882.507 278.244 883.905 280.691 885.711 282.73C887.576 284.712 889.79 286.256 892.354 287.363C894.976 288.47 897.948 289.023 901.269 289.023C905.29 289.023 909.252 288.266 913.156 286.751C917.06 285.236 920.41 282.73 923.207 279.234L936.58 295.142C934.657 297.88 931.918 300.531 928.364 303.095C924.868 305.659 920.672 307.757 915.778 309.388C910.883 310.961 905.406 311.748 899.346 311.748ZM980.805 175.663V310H951.351V175.663H980.805ZM1041.29 215.431L1000.21 263.589L978.708 285.09L965.859 266.386L983.777 243.05L1005.98 215.431H1041.29ZM1009.74 310L984.476 266.911L1006.24 251.44L1043.47 310H1009.74Z"/><path fill="url(#paint1_linear_409_13)" d="M553.32 182.742V310H522.642V182.742H553.32ZM591.603 182.742V206.428H485.234V182.742H591.603ZM641.16 311.748C633.468 311.748 626.593 310.554 620.533 308.165C614.473 305.717 609.345 302.367 605.15 298.113C601.013 293.86 597.837 288.965 595.623 283.43C593.467 277.894 592.389 272.038 592.389 265.862V262.541C592.389 255.607 593.351 249.197 595.273 243.312C597.196 237.369 600.051 232.183 603.839 227.754C607.626 223.326 612.375 219.888 618.085 217.441C623.796 214.935 630.438 213.683 638.013 213.683C644.714 213.683 650.716 214.761 656.018 216.917C661.32 219.072 665.807 222.161 669.478 226.181C673.207 230.202 676.033 235.067 677.956 240.777C679.937 246.488 680.928 252.897 680.928 260.006V271.98H603.664V253.538H652.172V251.266C652.231 248.119 651.677 245.439 650.512 243.225C649.405 241.01 647.773 239.321 645.617 238.155C643.461 236.99 640.839 236.407 637.751 236.407C634.546 236.407 631.895 237.106 629.797 238.505C627.758 239.903 626.156 241.826 624.99 244.273C623.883 246.662 623.097 249.43 622.63 252.577C622.164 255.723 621.931 259.044 621.931 262.541V265.862C621.931 269.358 622.397 272.534 623.33 275.389C624.32 278.244 625.719 280.691 627.525 282.73C629.389 284.712 631.604 286.256 634.167 287.363C636.79 288.47 639.761 289.023 643.083 289.023C647.103 289.023 651.065 288.266 654.969 286.751C658.873 285.236 662.224 282.73 665.021 279.234L678.393 295.142C676.47 297.88 673.732 300.531 670.177 303.095C666.681 305.659 662.486 307.757 657.591 309.388C652.697 310.961 647.22 311.748 641.16 311.748ZM722.619 238.854V310H693.164V215.431H720.696L722.619 238.854ZM750.587 214.731L750.063 242.088C748.898 241.972 747.324 241.826 745.343 241.651C743.362 241.477 741.701 241.389 740.361 241.389C736.924 241.389 733.952 241.797 731.446 242.613C728.999 243.37 726.96 244.536 725.328 246.109C723.755 247.624 722.59 249.547 721.832 251.877C721.133 254.208 720.812 256.918 720.871 260.006L715.539 256.51C715.539 250.159 716.151 244.39 717.375 239.204C718.656 233.96 720.463 229.444 722.793 225.657C725.124 221.811 727.95 218.868 731.271 216.829C734.593 214.731 738.322 213.683 742.459 213.683C743.916 213.683 745.343 213.77 746.742 213.945C748.198 214.12 749.48 214.382 750.587 214.731ZM796.386 289.81L815.003 215.431H846.031L815.09 310H796.736L796.386 289.81ZM785.374 215.431L803.728 289.81L803.553 310H785.111L754.258 215.431H785.374ZM899.346 311.748C891.655 311.748 884.779 310.554 878.719 308.165C872.659 305.717 867.532 302.367 863.336 298.113C859.199 293.86 856.024 288.965 853.81 283.43C851.654 277.894 850.576 272.038 850.576 265.862V262.541C850.576 255.607 851.537 249.197 853.46 243.312C855.383 237.369 858.238 232.183 862.025 227.754C865.813 223.326 870.562 219.888 876.272 217.441C881.982 214.935 888.625 213.683 896.2 213.683C902.901 213.683 908.902 214.761 914.205 216.917C919.507 219.072 923.994 222.161 927.665 226.181C931.394 230.202 934.22 235.067 936.143 240.777C938.124 246.488 939.114 252.897 939.114 260.006V271.98H861.851V253.538H910.359V251.266C910.417 248.119 909.864 245.439 908.698 243.225C907.591 241.01 905.96 239.321 903.804 238.155C901.648 236.99 899.026 236.407 895.938 236.407C892.733 236.407 890.082 237.106 887.984 238.505C885.944 239.903 884.342 241.826 883.177 244.273C882.07 246.662 881.283 249.43 880.817 252.577C880.351 255.723 880.118 259.044 880.118 262.541V265.862C880.118 269.358 880.584 272.534 881.516 275.389C882.507 278.244 883.905 280.691 885.711 282.73C887.576 284.712 889.79 286.256 892.354 287.363C894.976 288.47 897.948 289.023 901.269 289.023C905.29 289.023 909.252 288.266 913.156 286.751C917.06 285.236 920.41 282.73 923.207 279.234L936.58 295.142C934.657 297.88 931.918 300.531 928.364 303.095C924.868 305.659 920.672 307.757 915.778 309.388C910.883 310.961 905.406 311.748 899.346 311.748ZM980.805 175.663V310H951.351V175.663H980.805ZM1041.29 215.431L1000.21 263.589L978.708 285.09L965.859 266.386L983.777 243.05L1005.98 215.431H1041.29ZM1009.74 310L984.476 266.911L1006.24 251.44L1043.47 310H1009.74Z"/><defs><linearGradient id="paint0_linear_409_13" x1="0" x2="90.465" y1=".777" y2="9.992" gradientUnits="userSpaceOnUse"><stop stop-color="#00E1C3"/><stop offset="1" stop-color="#00D1D5"/></linearGradient><linearGradient id="paint1_linear_409_13" x1="482" x2="611.302" y1="144.371" y2="529.202" gradientUnits="userSpaceOnUse"><stop stop-color="#00E1C3"/><stop offset="1" stop-color="#00D1D5"/></linearGradient><clipPath id="clip0_409_13"><rect width="179" height="179" fill="#fff" transform="translate(189 136.5)"/></clipPath></defs></svg>